<?xml version="1.0" encoding="UTF-8"?>
<svg id="b" data-name="Layer 2" xmlns="http://www.w3.org/2000/svg" width="330.998" height="508.832" viewBox="0 0 330.998 508.832">
  <g id="c" data-name="Layer 1">
    <g>
      <path d="M5.094,378.183l.017.03c.012.024.026.048.042.072l.062.109c.003.006.008.012.01.019l.216.376c1.726.799,3.352,1.755,4.85,2.854,3.148,2.333,5.771,5.365,7.499,8.86.595,1.215,1.086,2.492,1.464,3.83.087.316.177.632.25.954.445,2.766,1.37,5.438,2.589,7.955-.046-.01-.094-.018-.141-.027-.39-.1-.879-.147-1.323-.104-.067.006-.13.015-.189.027-.047.008-.1.01-.146.021-.111.031-.208.106-.276.203-.008.012-.021.02-.028.032-.001.003-.001.008-.002.011-.009.017-.027.027-.033.046-.127.444-.051.914-.004,1.364l.483,3.618c.172,2.16.665,4.405,1.445,6.57.054.156.1.313.158.469.098.264.218.515.324.774.029.069.058.139.087.208.782,1.857,1.777,3.585,2.988,5.12.113.146.225.292.341.434.13.155.258.311.393.462,2.296,2.637,5.22,4.562,8.675,5.146.155.029.309.049.464.071.145.019.29.035.437.049.428.046.854.066,1.279.063.169,0,.338,0,.509-.005.091-.005.183-.008.274-.016.18-.009.358-.014.54-.031,2.403-.334,4.734-1.575,6.156-3.576,1.164-1.616,1.479-3.615,1.122-5.42-.194-1.128-.671-2.131-1.362-2.929-1.014-1.232-2.502-2.007-4.345-1.915-.233.003-.47.016-.711.046,3.041-5.755,11.228-2.617,13.805,2.022,1.508,2.393,2.034,5.321,1.706,8.11-.327,2.816-1.492,5.442-2.712,7.977,0,0-2.467,7.356-2.511,7.49-1.346-1.467-3.035-2.611-4.892-3.324-2.826-1.225-5.928-.939-8.906-1.21-1.997-.271-3.857-1.079-5.805-1.561-.489-.097-1.011-.2-1.514-.035-.517.15-.83.633-.988,1.112l-.01.03.024.023c1.682,1.642,3.182,3.502,4.188,5.634,1.087,2.127,1.262,4.514,1.697,6.825.817,4.605,2.814,9.082,6.273,12.303-.246.02-3.024.242-3.024.242-.243.032-.988.053-1.198.113-.309.154-.646.354-.761.696,0,.105.022.141.033.214l.156.776.004.022.017.015c3.231,2.623,4.958,6.442,6.568,10.167,1.662,3.364,4.867,6.927,8.159,8.232.111.056.214.122.328.175-.783.185-2.391.589-3.077.747-2.106.881-.208,2.322.734,3.223,1.801,1.697,3.643,3.352,5.396,5.096,1.75,1.732,3.54,3.52,5.782,4.643,2.154,1.111,4.583,1.538,6.981,1.602-.425.322-1.467,1.112-1.467,1.112-.348.307-.615.73-.611,1.197.234.601.865.957,1.421,1.173l.948.42,1.896.839,3.792,1.678c6.177,2.831,14.51,1.9,19.854-1.801,2.193.201,4.476.395,6.644-.232l-.362-.095c-14.575-3.531-28.377-11.386-37.017-23.88-4.308-6.149-7.254-13.214-8.777-20.556-1.496-7.355-.576-15.131,2.399-22.009.698-1.732,1.688-3.356,2.254-5.176,1.779-5.353.888-11.82-3.204-15.909-4.355-4.85-14.065-5.767-16.905,1.125-.494,1.218-.627,2.688.049,3.87.049.118.213.255.361.274.576.048.983-.197,1.435-.334.866-.313,1.795-.616,2.654-.359,1.751.609,2.208,3.017,1.799,4.63-.469,1.815-2.084,3.079-3.846,3.561-1.779.529-3.706.317-5.418-.409-7.152-2.759-10.211-10.875-10.625-18.05.373.145,1.996.773,1.996.773.392.139.697.3,1.16.419,1.992-.05,1.869-1.412.674-2.638-1.571-1.78-2.968-3.734-3.696-6.012-.513-1.487-.628-3.095-1.066-4.646-1.522-6.076-5.393-11.429-10.54-14.968,5.745-.127,11.286,2.287,15.604,6.002,3.229,1.658,6.344,3.328,8.697,6.179.263.235.615.568,1.03.481.636-.185.904-.843,1.188-1.352.946-2.397,1.304-5.101.592-7.621,5.306,2.987,11.615,3.626,16.771,6.895,5.313,3.026,9.297,8.866,8.815,15.074-.079.478-.301,2.348-.375,2.751l-.031.229c-.078.313.212.624.463.723.305.159.598.289,1.007.264.102-.001.278-.114.303-.159,2.272-2.352,3.128-5.702,3.555-8.869,5.895,4.832,10.792,12.245,9.119,19.994-.044.247.043.24.055.296.354.376.728.771,1.287.812.184-.031.208-.079.273-.105l1.454-.786s2.39-1.292,2.719-1.469c3.267,5.835,4.16,13.255,1.112,19.358-1.007,1.916-2.161,3.804-3.245,5.705-4.34-4.489-11.579-1.152-13.051,4.44-1.577,5.39-.131,11.25,2.342,16.132,5.063,9.936,14.759,16.885,25.129,20.486,16.437,5.394,40.476,3.895,49.626-12.961,2.573-4.758,3.173-11.574-.731-15.807-.928-.844-2.988-2.192-3.994-.764-.305.527.05,1.139.377,1.519.594.714,1.271,1.373,1.252,2.183-.38,2.68-4.032,3.694-6.192,2.321-3.215-1.729-4.704-5.647-4.035-9.164.493-3.495,2.738-6.502,3.435-10.105,3.397,1.166,8.337,2.377,11.24,4.337,11.021,6.896,12.134,22.333,6.237,33.01-3.814,7.364-10.775,12.695-18.542,15.381-14.791,4.862-34.459,2.501-48.042-4.961-14.287-7.765-26.093-22.396-26.605-39.11.017-6.341,2.315-14.208,9.029-16.198.621-.316,1.009-.774,1.002-1.523-.541-1.352-2.085-1.12-3.123-.778-8.167,3.29-10.712,13.416-9.859,21.421,3.141,25.825,27.447,43.545,52.192,46.088,14.323,1.649,30.289-.237,40.847-10.98,10.261-10.133,13.632-28.476,3.956-40.074-2.689-3.18-6.251-5.561-10.127-7.024-.631-1.358-.958-2.867-.808-4.367.313-4.559,4.073-8.449,6.865-11.802.053.022.091.038.143.06l3.75,4.211c.651.697,1.218,1.458,1.818,2.193.03.059.244.286.413.319.652.151,1.451.027,1.843-.574.058-.129.062-.182.076-.235l.169-.694.027-.113c-4.439-7.809.443-13.574,4.866-19.833l3.948-5.672c.874,1.382,3.773,5.964,3.772,5.964,3.937,5.632,8.675,11.407,5.087,18.491-.248.503-.345,1.151-.404,1.706,0,.11-.027.113.003.328.099.327.279.429.431.547.16.107.325.186.509.244.189.041.374.126.703-.012,1.082-.699,3.321-3.72,4.18-4.615.637-.783,1.292-1.467,1.936-2.296,3.721,5.193,8.406,9.522,5.831,16.519-15.9,5.705-19.596,26.309-11.177,40.724,8.092,14.674,26.338,19.091,41.942,17.156,19.834-1.897,38.981-13.448,48.417-31.223,3.721-7.049,5.89-15.227,4.546-23.206-1.023-5.65-4.526-12.54-10.883-13.26l-.789.021c-.067.007-.104-.016-.29.049-.264.132-.412.343-.529.573-.13.261-.229.516-.262.84.005.143-.057.412.261.657l.351.2c2.823,1.056,5.267,2.517,6.709,5.269.206.396.793,1.593.984,1.963.207.631.575,1.445.755,2.063,2.369,8.131-.096,16.843-4.038,24.088-9.692,17.375-28.938,28.396-48.701,29.185-7.854.413-15.943-.617-23.04-4.125-14.23-6.737-21.611-26.213-13.103-39.991,1.984-3.312,5.26-6.075,8.593-7.67l7.276-2.563c.541,3.704,2.793,6.799,3.111,10.482.103,1.221-.062,2.454-.396,3.632-.835,3.416-4.866,6.616-8.089,4.189-.865-.6-1.208-1.981-.959-2.959.125-.135,1.739-1.872,1.739-1.872l.145-.156c-.123-.59-.514-.955-.916-1.214-.362-.196-.786-.422-1.371-.214-.346.198-.676.372-.993.59-1.541,1.117-2.521,2.882-3.001,4.669-2.244,8.828,3.571,17.748,10.884,22.248,10.05,5.871,22.667,6.824,33.832,3.955,11.17-2.953,21.694-9.836,27.654-19.885,2.872-5.019,5.002-10.926,3.849-16.784-1.188-6.164-8.198-10.448-13.14-5.589-.58-.978-1.945-3.284-1.945-3.284-2.232-3.637-3.206-7.983-2.859-12.22.273-3.367,1.477-6.608,3.33-9.424l.006-.01c.486.271,1.116.744,1.683,1.067,1.357.833,2.989,1.488,4.705,1.283-1.1-8.153,2.625-16.398,9.21-21.242.192,2.34.746,4.624,1.772,6.753.473.855,1.023,2.052,2.153,2.329.819.16,1.423-.735,1.609-1.337l.045-.104-.028-.124c-1.526-6.273,1.414-12.957,6.567-16.677,4.377-3.286,10.097-4.812,15.208-6.729-.029.194-.047.391-.046.58l.063.604.502,4.835.062.604.016.151c.011.065-.002.06.034.216.07.218.162.311.247.415.406.396.905.817,1.511.546.819-.313,1.269-1.176,1.785-1.866,1.945-2.637,5.025-3.755,7.934-5.072,2.917-1.425,5.192-3.89,8.264-5.044,2.539-1.131,5.285-1.763,8.059-1.936-5.287,4.387-8.759,10.815-9.872,17.563l-.65,2.588c-.697,2.535-2.007,4.891-3.872,6.752-.774.864-1.827,1.454-2.442,2.536-.299.692.447,1.258,1.029,1.42.254.068.448.201.907.113,0,0,3.663-1.025,4.593-1.285-.839,7-3.902,14.79-11.096,17.082-3.238,1.157-7.947-.312-8.292-4.116-.155-1.666.803-3.662,2.504-3.764.403-.041.817.012,1.176.174.438.208.868.651,1.334.671.279.045.547.073.895-.017.171-.016.458-.277.479-.36.426-.545.575-1.256.598-1.903.02-4.275-3.999-7.168-7.971-7.334-3.946-.348-7.843,1.574-10.326,4.533-3.862,4.416-4.817,10.982-2.616,16.381,4.32,8.317,6.218,17.943,4.037,27.158-4.48,19.301-20.46,34.805-39.143,40.665-1.727.527-6.332,1.96-8.115,2.492l-2.734.837,2.86.008s6.445.018,6.649.018c.178.094,3.795,1.989,3.795,1.989,4.985,1.803,10.709,2.22,15.731.236,2.051-.86,6.451-3.135,8.51-4.124l.062-.03.043-.042c.56-.611.103-1.394-.311-1.908-.238-.271-.464-.499-.736-.683,4.723-.385,9.088-3.028,12.255-6.466,1.628-1.802,3.205-3.541,5.203-4.907l.736-.5c.273-.159.58-.44.776-.698.316-.368.712-1.106.385-1.641-.561-.719-1.606-.99-2.385-1.17,0,0-.383-.096-.749-.188,2.165-1.062,4.875-2.767,6.408-5.006,2.853-4.412,4.571-9.667,8.725-13.112.237-.171.227-.603.186-.776-.157-.55-.4-1.197-1.019-1.369-.089-.015-.062-.007-.1-.012l-.262-.02-1.049-.079-2.099-.157s-.125-.008-.172-.012c2.633-2.407,4.359-5.692,5.348-9.064.883-2.673.957-5.534,1.855-8.186.651-1.958,1.714-3.732,3.031-5.318.493-.718,1.498-1.476,1.418-2.558-.017-.312-.283-.552-.517-.698-.393-.218-.707-.391-1.295-.363l-2.088.534s-3.958,1.026-4.036,1.046c-2.331.182-4.804.328-7.183.676-2.526.523-4.714,1.925-6.655,3.478-.7-3.054-1.809-6.073-3.229-8.836-2.551-5.239-2.831-11.934,1.761-16.15,2.716-2.793,8.401-4.032,10.989-.533-4.147-.293-7.064,4.075-6.269,7.939,1.298,7.091,9.895,8.612,15.399,5.329,6.848-3.657,9.661-11.397,10.684-18.606l.349-1.79.175-.895c.016-.09.026-.114.046-.259-.006-.588-.051-1.106-.458-1.585-.058-.044-.077-.073-.176-.115-.095-.041-.206-.051-.201-.048-.743-.022-1.372.098-2.078.297,1.361-2.432,2.339-5.113,2.664-7.918,1.353-7.095,5.282-13.811,11.633-17.494l1.856-1.188c.314-.143.788-.713.836-1.118.036-.236.186-.447-.066-.933-.053-.109-.272-.238-.278-.233l-.146-.069-.278-.114c-.687-.31-1.58-.365-2.319-.352-2.228-.034-4.457.065-6.666.396-4.419.622-8.77,2.239-12.361,4.933-2.319,1.854-5.042,2.805-7.659,4.184-1.035.555-2.015,1.225-2.945,1.955.022-1.41.305-2.869.611-4.294l.306-1.306.079-.327c.059-.353-.052-.502-.111-.648-.149-.276-.312-.474-.551-.672-.138-.085-.231-.222-.619-.242-.321.06-.269.093-.339.111l-.151.075-.605.299-1.21.611c-3.158,1.799-6.479,2.986-9.911,4.087-6.455,2.379-12.727,6.787-15.058,13.476.006-.744.015-1.514-.013-2.237-.11-.413-.352-.463-.447-.524-.25-.109-.439-.134-.641-.159-.443-.028-.845-.065-1.247.233-.499.463-1.804,1.74-2.302,2.198-1.757,1.727-4.212,3.889-5.854,5.729-3.411,4.09-5.138,9.392-5.404,14.661-.129-.089-.357-.246-.357-.246l-1.05-.726-2.099-1.452-.378-.261c-4.095,5.171-6.55,11.882-5.567,18.522.653,5.266,3.338,9.902,6.117,14.288l.309.509c.223.319.404.409.611.548,1.345.873,1.737-.341,2.392-1.135,1.611-2.808,5.413-2.608,7.082.087,4.616,7.904-2.229,19.255-8.142,24.762-13.416,12.924-36.261,16.719-52.142,6.254-4.9-3.449-8.491-9.006-8.409-15.09.32.252.846.667.846.667,1.8,1.595,4.858,1.666,7.044.725,6.198-2.363,7.677-10.405,5.408-16.043-.814-2.701-2.647-5.698-1.789-8.478l.083-.263-.18-.21-.617-.72-.207-.241-.306.086s-4.446,1.247-5.603,1.571c.855-6.122-2.313-10.81-6.043-15.377-1.157-1.306-1.461-3.253-2.927-4.222-.278-.112-.65-.038-.833.214l-1.176,1.29s-.864.947-1.562,1.711c-.219-2.214-.648-4.394-1.548-6.447,3.184.534,6.407.874,9.647.897,3.552-.013,7.128-.378,10.575-1.321,5.219-1.317,9.818-4.269,13.957-7.608l2.105-1.593.131-.099s.11-.091.143-.135c.227-.321.297-.626.315-1-.011-.158.032-.304-.153-.619-.217-.234-.193-.162-.253-.219l-.137-.092-.273-.184s-.139-.093-.277-.187c4.506-.883,8.181-4.463,9.98-8.607.884-1.934,1.771-3.855,3.151-5.373.737-.898,1.736-1.334,2.223-2.534.058-.18.112-.413.027-.694-.104-.288-.26-.418-.393-.538-.432-.356-.998-.562-1.568-.686,2.295-2.481,3.912-5.74,3.787-9.17-.071-1.108-.679-2.196-1.637-2.772,1.717-1.701,3.036-3.913,3.454-6.302.567-2.283,2.283-3.792,3.499-5.728.181-.384.219-.949-.111-1.396-.366-.476-.889-.515-1.244-.534-.382-.011-.717.038-1.051.083l-1.923.321c-1.266.201-2.482.283-3.737.077-2.44-.325-5.118-.136-7.265,1.196-.979-2.642-2.417-6.147-2.976-8.696-.855-3.714,1.15-8.356,5.167-8.971,1.042-.112,2.079.507,2.649,1.381-.622-.148-1.423-.252-2.044-.083-3.838.803-4.943,5.774-2.995,8.766,4.028,6.184,13.55,4.749,18.097-.071,2.437-2.388,3.978-5.561,4.695-8.839.328-1.651.486-3.177,1.165-4.708.291-.799.781-1.589.831-2.519-.088-.955-.91-1.068-1.728-1.038,7.15-5.093,9.487-14.465,7.396-23.391l-.048-.23-.214-.098-.559-.257-.279-.128c-.037-.015.034.01-.092-.037-.146-.042-.23-.021-.313,0-.117.039-.178.088-.217.118-.19.167-.285.294-.408.511l-.15.267-.295.524c-4.475,8.085-13.837,11.126-22.399,12.832-3.081.537-6.178,1.684-8.574,3.731.013-.089.034-.232.034-.232.004-.022.01-.072.004-.095l-.043-.741c.01-1.337-1.66-.919-2.436-.758-4.832,1.282-9.703,3.492-12.825,7.559-1.184,1.537-2.048,3.313-2.577,5.177-9.132,1.505-17.643,7.049-22.175,15.202-2.987,5.456-4.296,12.119-2.356,18.154,1.834,5.972,7.414,11.312,13.986,10.829,2.903-.1,5.672-1.731,7.179-4.199,2.902,9.419-6.646,19.811-14.92,23.092-3.108,1.341-6.468,2.049-9.845,2.246-.161-.168-.417-.434-.559-.582-.001-.351-.088-19.539-.088-19.539l.027-19.718c-.063.307.177-38.654-.012-39.202.151-.211,4.097-5.725,4.097-5.725,1.143-1.663,3.07-4.095,4.009-5.846,2.361-4.136,3.933-8.797,4.214-13.59,0,0-.127-2.641-.167-3.451.907.163,6.235,1.121,6.235,1.121l.342.062c3.345-7.59,3.352-16.478.023-24.075,6.893,3.312,16.25,3.662,23.416-.384-.041-1.911-.371-3.828-.948-5.655,10.235,1.84,18.884-5.764,26.349-11.635,1.433-1.082,2.902-2.101,4.452-2.998.707-.402,1.55-.791,1.907-1.577.324-.59-.365-1.287-.765-1.586l-1.454-1.096c-9.07-6.631-18.985-15.992-31.167-13.543-.008.001-.021.002-.029.003.536-1.396.737-3.091,1.122-4.507.01-.178.114-.191.057-.637-.338-.899-1.27-1.257-2.046-1.557-3.438-1.267-7.129-1.882-10.794-1.732-4.427.174-8.768,1.431-12.683,3.463,2.536-4.7,4.401-9.826,4.946-15.185.635-5.94-.442-11.958-2.538-17.495-2.3.453-4.503,1.317-6.585,2.349.123-3.217-.236-6.519-1.563-9.521-1.354-2.839-3.232-6.062-4.698-8.955.972-5.804,5.526-11.125,11.438-12.068-3.523,6.602,4.923,12.841,11.779,9.477,6.334-2.908,8.09-11.522,4.529-17.213-.543-1.069-1.573-1.902-2.654-2.431,1.956-3.294,1.556-8.265-1.912-10.346.034-.051.072-.104.114-.165,3.107-3.208,5.268-7.263,6.492-11.538.011-.026.02-.083.016-.111v-.991c.005.018-.009-.159-.042-.214-.066-.141-.156-.209-.214-.25-.127-.084-.225-.117-.32-.148-.297-.08-.551-.13-.861-.093l-.231.032-.462.063-.923.127c.032.002-3.824.517-3.66.505-16.323.854-28.751,15.493-31.521,30.918-.097-3.159-.15-6.627-.123-9.694.006-8.489-.005-28.98.002-38.379,2.108,1.064,4.442,1.677,6.78,1.829,14.042,1.362,24.773-9.398,23.796-23.452-.128-4.878-2.189-10.253,1.083-14.528l-.012-.14-.046-.519-.023-.259-.012-.13c-.042-.687-.834-.741-1.307-.914-3.248.808-6.578,1.816-9.368,3.86l-.069.051-.025.049c-.656,1.298-2.434.554-4.009.764-1.591.115-3.171.525-4.591,1.253-6.788,3.299-11.486,14.403-4.898,19.997,1.072.812,2.395,1.25,3.73,1.329-1.384,1.28-3.204,2.082-5.086,2.253-2.101.207-4.259-.384-5.963-1.628.009-7.886.016-23.216.024-30.736-.114-5.516,2.465-12.919,7.064-16.267.237,2.318,1.771,4.583,4.053,5.217,8.724,2.893,13.948-6.671,11.685-14.268-4.087-13.435-11.389-27.778-16.992-40.823-2.091-4.713-3.839-9.541-5.379-14.473-.129-.305-.269-.595-.523-.833-.092-.08-.266-.224-.538-.187l-1.09.179-.203.033-.07.194c.01,0-4.257,11.751-4.212,11.669-4.634,10.735-11.018,24.261-15.425,35.109-2.202,5.83-5.565,12.49-2.586,18.672,1.415,2.985,4.518,5.241,7.89,5.2,3.153.091,6.412-1.88,6.924-5.096,2.746,2.706,4.418,6.222,5.219,9.989.438,1.516.847,2.861.765,4.442v1.541s.006,6.166.006,6.166c0,0,.021,23.874.021,24.395-.453.104-3.663.836-3.663.836-1.18.237-2.7.718-3.871.756-3.472-.209-7.973-1.889-8.645-5.702,4.729,3.937,10.976-1.465,10.127-7.079-.477-7.192-8.524-11.673-15.181-10.503-2.724.372-5.293,1.59-7.41,3.327l-.118.097.002.157s.056,4.11.063,4.633c-.84.087-1.674.303-2.439.683-6.068,3.455-4.415,13.198,1.249,16.27l-1.723,3.313-.117.225.19.166c2.668,2.333,5.267,4.932,8.583,6.352,7.565,3.591,16.527,2.216,22.484-3.734,0,0,.391-.363.454-.421.002.013.007.029.009.042.008.016.002.195.004.285v.665s-.007,5.317-.007,5.317c0,0-.044,38.475-.047,41.121-1.774-7.974-6.163-15.498-12.936-20.213-5.177-4.107-11.93-4.994-17.831-7.512-1.948-.886-3.63-2.208-5.083-3.781l-.023-.017-.371-.276-.093-.069s-.107-.066-.164-.078c-.055-.012-.101-.012-.151-.011-.157.018-.246.065-.337.109-.33.207-.588.372-.789.826-.022.062-.035.152-.025.25l.017.115.035.229.069.458.137.916.55,3.662c.426,3.176.81,6.11,2.648,8.893.298.624.842,1.199.696,1.803-2.03,2.69-1.584,6.374-.229,9.262-.107.151-.409.374-.645.547,0,0-.031.05-.03.05-4.317,6.695-1.806,16.833,5.731,19.972,3.584,1.55,8.096,1.311,11.181-1.241,3.139-2.517,4.304-7.415,1.682-10.699,2.185.667,4.186,2.013,5.625,3.8,1.659,2.021,2.631,4.594,2.707,7.211-3.524,6.167-7.212,12.826-6.991,20.157-1.994-1.053-4.117-1.91-6.345-2.359l-.237-.048-.092.223c-4.292,10.134-3.137,22.086,2.335,31.542-7.575-3.616-16.636-3.837-24.202-.073l-.181.084c.153,2.021.624,3.998,1.195,5.922-6.469-1.196-13.061.955-18.724,3.988-5.054,2.875-11.388,8.022-16.216,11.376l-.348.253.372.215c8.672,4.504,15.278,12.355,24.658,15.563,3.04,1.055,6.324,1.394,9.514.952.053.12.086.196.115.261-.031.163-.933,4.965-.933,4.965l-.036.19c7.102,4.273,16.219,3.958,23.545.409-1.76,3.583-2.892,7.689-3.013,11.749-.155,4.184.667,8.393,2.335,12.229l.087.2.213-.043s5.205-1.055,5.845-1.184c-1.047,7.866,2.319,15.719,6.951,21.918,0,0,4.547,6.483,4.547,6.482-.175-.695-.211,61.317-.311,61.269l-.062,15.355c-.089,1.054.402,2.729-1.044,2.917-8.768-.461-17.645-4.873-22.372-12.433-2.509-4.018-4.301-9.226-2.421-13.807,2.772,5.957,11.347,5.829,15.896,1.904,2.483-1.959,4.126-4.767,5.161-7.689,5.114-15.546-8.953-31.356-24.099-33.296-.468-1.935-1.341-3.772-2.552-5.351-2.471-3.292-6.199-5.298-9.974-6.717-1.213-.379-2.465-1.032-3.789-.846-.289.099-.412.524-.435.814-.074.382-.123.756-.177,1.131-4.925-4.128-11.759-3.871-17.512-6.113-5.867-2.111-11.809-5.819-14.191-11.767l-.74-.271c-.05-.015-.018-.015-.137-.042-.206-.017-.27.095-.409.173l-.305.26-.047.041c-1.25,4.408-1.266,9.175.116,13.555,1.245,4.223,4.054,7.886,7.695,10.339-.495.033-1.125.074-1.125.074-.297.025-1.008.052-1.292.098-.271.097-.321.323-.361.465-.303,1.239.647,2.137,1.031,3.22.847,2.067.766,4.392,1.496,6.501,1.339,4.307,4.655,8.026,8.93,9.586,4.153,1.612,9.591,1.212,12.463-2.556,3.103-4.053.435-10.071-4.926-8.762,2.488-4.635,8.287-.103,8.783,3.82.497,2.194-.066,4.36-.921,6.399l-2.271,6.064c-2.219-1.431-5.042-1.693-7.546-1.077-1.272.261-2.588.246-3.877.038-1.333-.124-2.62-.798-3.987-.36-1.625,1.007.146,2.516.885,3.468,1.268,1.54,1.951,3.379,2.357,5.314.479,1.89,1.766,3.45,3.205,4.702-.186.078-.404.17-.404.17l-.025.01c-3.246,3.504-.1,9.181,2.884,11.966-.477.096-1.396.28-1.396.28-.151.017-.396.093-.462.219-.301.402-.388.876-.499,1.346l.074.057c2.369,1.771,4.157,4.183,5.157,6.966,1.141,2.756,3.083,5.177,5.546,6.865,1.558,1.071,3.313,1.83,5.138,2.306-.499.317-.969.684-1.319,1.166-.146.223-.311.513-.109.781,4.815,4.05,10.026,7.807,16.162,9.516,6.881,2.008,14.164,1.403,21.18.556-.627,1.255-1.123,2.583-1.422,3.958-.294,1.34-.415,2.707-.47,4.07-.332-.433-1.956-2.546-1.956-2.546l-.54-.703c-.19-.264-.362-.5-.65-.662-.58-.285-1.403-.255-1.661.446-2.238,4.185-6.408,7.1-7.815,11.754-.743,2.204-.94,4.58-.623,6.881-.294-.079-6.884-1.853-6.884-1.853l-.129-.035-.008.132c-.504,6.401-5.684,12.135-3.535,18.779,1.14,4.744,6.322,8.579,11.188,6.967,1.482-.527,2.714-1.58,3.655-2.813.991,6.504-2.969,12.71-8.004,16.517-5.198,3.994-11.757,5.708-18.178,6.442-18.907,2.099-41.41-7.442-47.141-26.79-.923-3.436-1.252-7.511.834-10.583,1.078-1.68,3.049-2.929,5.092-2.655,1.701.207,2.673,1.735,3.676,2.954.269.286.563.674,1.036.655.468-.085.657-.53.88-.857,2.262-4.199,5.007-8.628,6.05-13.333,1.451-6.439-.557-13.27-4.083-18.705l-.036.025s-3.775,2.667-3.903,2.758c.319-5.639-1.777-11.245-5.542-15.431-1.786-2.194-4.146-3.815-5.916-6.01-.462-.529-.897-1.084-1.42-1.564-.252-.208-.601-.506-.969-.326-.337.176-.479.537-.614.856-.126.347-.059.707-.092,1.055l-.03,1.055s-.054,1.887-.058,2.031c-.105-.131-.379-.479-.357-.443-.354-1.147-.82-2.257-1.368-3.325-.035-.069-.071-.136-.107-.204-.209-.396-.43-.786-.665-1.167-.079-.128-.157-.257-.238-.382-.239-.37-.491-.73-.754-1.084-.049-.065-.095-.133-.145-.197-.99-1.3-2.132-2.483-3.426-3.494-2.167-1.749-4.599-2.996-7.137-4.019-1.525-.63-3.117-1.184-4.751-1.691-1.549-.504-3.103-.988-4.629-1.508-1.876-.733-3.602-1.827-5.086-3.19-.307-.249-.606-.548-.975-.709-.078-.036-.154-.063-.23-.079h-.003c-.02-.005-.036-.016-.056-.019-.264-.034-.503.138-.646.343-.021.035-.034.074-.053.109-.054.09-.104.189-.146.303-.021.052-.034.106-.052.159-.013.042-.027.082-.04.127-.28.956-.155,2.04.021,2.998.025.087.048.176.072.264.056.248.118.5.196.76,0,.003.002.007.003.011.047.159.069.316.107.474.163.805.253,1.62.241,2.437-.008.221-.01.441-.034.666-.005.058-.014.115-.021.173-.036.295-.092.595-.152.897-.021.087-.033.175-.057.262-.072-.066-.143-.123-.215-.188-1.208-1.165-2.761-2.195-4.19-3.121,0,0-4.677-2.957-4.674-2.956-2.237-1.742-4.774-3.074-7.459-3.958-2.097-.696-4.276-1.104-6.48-1.226-2.492-.144-5.005.077-7.435.704-.01.013-.021.026-.031.039-.059.073-.12.149-.18.227-.029.037-.054.075-.081.113-.085.12-.158.237-.187.335,0,.001-.002.003-.002.004-.019.053-.01.102.007.148.002.004-.002.012,0,.017ZM5.112,378.215l.03.053c-.011-.018-.021-.035-.03-.053ZM125.979,383.168c-.029-.302-.045-.604-.061-.907.006.125.017.247.025.371-.024-.337-.035-.675-.043-1.014.002.132,0,.265.004.396-.01-.232-.015-.463-.017-.695.001.1.01.2.013.299-.005-.257-.013-.514-.008-.774,0,.036-.003.072-.003.108.002-.341.012-.68.032-1.019-.016.296-.025.592-.028.889.103-5.288,2.208-10.945,7.615-12.42.25-.094.506-.164.765-.218.023-.004.045-.012.068-.016.14-.027.282-.035.423-.051.169-.02.338-.038.505-.045,3.919-.109,8.125,3.651,6.175,7.639-.32.637.126,2.157,1.025,1.828,3.165-1.596,2.172-6.302.368-8.625-4.227-5.525-13.222-3.818-16.684,1.698-6.862,11.465-.291,26.523,8.443,35.099,0,0,5.196,4.103,6.892,5.441-4.804-1.96-9.304-4.688-13.143-8.18-7.357-6.657-12.36-15.929-13.516-25.807-.537-4.174-.475-8.55.652-12.621.704-2.747,1.749-5.376,2.837-8.03,1.071-2.729,1.127-5.861.084-8.622-1.447-4.208-6.113-7.573-10.568-5.773-1.385.547-2.685,1.58-3.294,3.013-.792,1.688-.617,4.336,1.18,5.321,1.351.49,1.892-1.322,2.995-1.259,1.125.173,1.749,1.77,1.522,2.84-.368,2.298-3.079,3.593-5.242,3.666-4.537.024-8.767-2.837-10.606-6.965-1.034-2.045-1.379-5.228-1.907-7.619,1.233-.016,4.01-.053,4.01-.053.63-.023,1.139.024,1.834-.063.513-.16.837-.325,1.234-.72.579-.569-.221-1.737-.468-2.341-4.095-.744-7.865-3.072-10.281-6.471-2.187-3.015-3.282-6.753-3.259-10.485,5.174,5.2,12.219,8.158,19.336,9.534,5.06,1.027,10.396,2.303,12.319,7.681.233.322.48.705.903.781.632.007,1.228-.274,1.611-.796.124-.19.097-.478.12-.688.056-.816.17-2.637.245-3.764,6.454,2.18,11.608,7.021,10.981,14.325l-.015.22.194.101c.166.089.617.315.775.402.524.264,1.066-.18,1.411-.516.197-.15.482-1.663.641-2.357,5.243.972,10.139,3.598,13.995,7.277,7.849,6.988,11.129,21.504,1.83,28.622-2.99,2.284-8.603,2.75-10.578-.998-.564-1.2.04-2.564.437-3.851l.027-.089-.043-.07c-.617-.789-1.774-.665-2.57-.265-3.122,2.073-4.509,5.908-4.347,9.538.623,13.349,14.131,23.846,26.452,24.51.215.025.428.056.645.077-.27.399-2.567,3.575-2.681,3.857-12.766-2.033-24.407-10.969-29.171-22.955-.896-2.282-1.556-4.679-1.939-7.172-.072-.496-.126-.997-.167-1.5.007.094.01.19.019.283ZM128.025,372.597c-.108.181-.22.359-.318.544.101-.186.209-.365.318-.544ZM127.402,373.751c-.109.23-.209.464-.306.7.096-.238.197-.472.306-.7ZM126.835,375.119c-.063.179-.113.362-.169.543.056-.182.107-.365.169-.543ZM126.205,377.525c-.013.068-.03.136-.042.205.012-.069.029-.136.042-.205ZM126.04,378.612c-.026.214-.054.427-.073.642.02-.216.046-.429.073-.642ZM104.852,378.691c0,.021-.002.043-.001.063,0-.021.001-.042.001-.063ZM105.993,376.835c.931.005,1.881.162,2.821.235.232.062.515-.045.698-.182,2.314-1.539-.924-2.463-2.082-3.151-1.659-.863-3.105-2.194-3.705-3.948l-1.662-4.916c1.334-.055,5.063-.207,5.063-.207,1.679-.071,3.341.21,4.656,1.254-1.353,7.202-.138,14.711,2.569,21.452-4.232-.018-8.231-3.077-9.271-7.186-.085-.342-.157-.69-.204-1.049-.097-.858.11-2.126,1.116-2.303ZM109.093,389.922l6.465.642c.945,2.242,2.069,4.424,3.432,6.455,1.225,1.866,2.637,3.597,4.134,5.239-4.292.434-8.52-2.089-10.712-5.792-.333-.579-.625-1.185-.872-1.812-.637-1.658-1.439-3.258-2.446-4.73ZM126.421,405.115c2.698,2.463,5.672,4.633,8.848,6.448,2.3,1.281,4.714,2.364,7.202,3.24-7.379-.352-14.524-3.348-20.111-8.241l4.062-1.447ZM149.769,172.474c-.007.003-.007.002,0,0h0ZM163.45,119.287c-.342.087-.685.166-1.028.236-.056.011-.112.021-.168.031-.235.046-.471.088-.707.126-4.183.648-8.635-.096-12.026-2.696-2.883-1.994-4.859-5.669-3.629-9.131.214-.638.577-1.179,1.042-1.602-1.815,6.514,4.977,10.529,11.061,10.771,2.827-.263,5.562-1.086,8.265-1.908.015.465.11,3.426.11,3.426.051-.038-1.696.429-2.509.643.021-.005.04-.01.062-.016l-.127.033c.021-.005.042-.011.065-.017-.244.06-.408.101-.41.105ZM205.887,410.956c-4.443,2.839-9.76,4.028-15.013,4.006,2.69-.866,5.311-1.961,7.799-3.312,3.237-1.757,6.211-3.973,8.867-6.491,1.384.501,2.772.989,4.149,1.509-1.466,1.134-2.955,2.238-4.438,3.351-.447.331-.903.639-1.364.936ZM220.928,397.403c-2.326,3.158-6.077,5.352-10.003,4.961,3.333-3.42,6.179-7.39,8.034-11.805l5.994-.536c-.941,1.887-1.924,3.753-2.918,5.612-.334.618-.705,1.207-1.106,1.768ZM227.171,364.374c1.65.07,3.308.151,4.962.208-.866,1.368-1.442,2.905-1.857,4.463-.558,1.604-1.597,2.982-2.984,3.921-1.08.793-2.354,1.12-3.491,1.921-1.221.93-.153,2.382,1.098,2.661.858.077,2.484.146,3.55.214.139,4.593-3.433,8.788-7.972,9.425,2.543-6.635,3.295-13.986,1.899-20.949.985-1.601,3.072-1.888,4.794-1.865ZM200.2,391.031c-.046.147-.096.293-.146.44.049-.146.1-.293.146-.44ZM200.597,389.57c-.036.152-.073.304-.112.457.04-.152.076-.305.112-.457ZM198.392,395.334c1.729-3.168,2.839-6.693,2.703-10.151-.041-1.794-.418-3.493-1.188-5.003-.034-.074-.058-.15-.094-.224-.568-1.17-1.489-2.119-2.457-2.966-.476-.446-1.17-.667-1.823-.566-.676.094-1.302.507-1.642,1.105l.062.025c1.367.505,1.669,2.177.979,3.356-.903,1.827-2.988,2.877-4.986,2.85-6.395-.112-10.812-6.315-11.324-12.273-.459-6.787,2.662-13.527,7.513-18.179,3.857-3.726,8.788-6.294,14.02-7.443.104.336.335,1.087.335,1.087.155.415.208.871.443,1.28.275.385.669.906,1.203.815.532-.145.894-.435,1.259-.792l-.005-.088c-.311-4.263,1.688-8.589,4.878-11.256,2.154-1.497,4.554-2.629,7.055-3.421.028.486.146,2.516.146,2.516l.082,1.411c-.006.104.043.329.11.435.216.372.413.624.798.886.419.167.657-.009.899-.103.236-.126.454-.263.639-.526.257-.505.354-.885.604-1.3,2.196-4.377,7.391-5.454,11.805-6.313,3.694-.786,7.365-1.844,10.79-3.504,3.195-1.535,6.125-3.643,8.58-6.213.125,3.894-1.003,7.827-3.315,10.959-2.433,3.353-6.186,5.669-10.251,6.412l-.144.026c-.314.443-.626.89-.856,1.396-.317.751.929,1.442,1.538,1.479.932.056,4.006.147,5.471.22-.249,1.076-.869,3.759-.869,3.759-.613,4.22-2.964,8.076-6.978,9.771-3.283,1.711-9.378,1.419-9.98-3.045-.032-.947.263-1.884,1.135-2.33.269-.155.576-.271.676-.208.35.106.817.502,1.116.807.786,1.086,2.45.331,2.843-.749,1.531-2.96-.609-6.629-3.693-7.384-4.639-1.407-9.147,2.327-10.413,6.642-.939,2.853-.75,6.03.438,8.776,4.949,10.52,4.501,22.634-.954,32.86-4.642,9.146-12.649,16.492-22.106,20.482,7.295-5.021,13.254-12.132,15.925-20.646,2.483-7.593,2.509-18.099-4.945-22.907-6.03-3.939-15.291-.382-14.601,7.456.202,1.011.487,2.288,1.417,2.895.51.142.891.246,1.413-.026.224-.271.251-.438.318-.682.145-.914-.135-1.718-.191-2.524-.381-2.482,1.466-4.694,3.709-5.525,7.324-2.117,11.661,5.788,11.518,12.132-.336,16.802-15.086,31.074-31.013,33.725,0,0-2.568-3.738-2.699-3.93.226-.025.45-.059.675-.088,7.009-.715,14.373-4.087,19.302-9.401-.702.75-1.447,1.453-2.224,2.115.771-.661,1.514-1.363,2.224-2.115,1.599-1.696,3.01-3.682,4.13-5.794ZM165.926,267.309c-.124-.017-.244-.041-.366-.062-.26-.044-.517-.096-.77-.156-.133-.032-.266-.063-.396-.099-.233-.064-.461-.138-.688-.214-.135-.046-.272-.086-.404-.137-.093-.035-.181-.079-.272-.116-7.907-3.252-10.414-14.46-3.489-20.726,4.661-4.506,12.772-4.092,17.006.803,6.656,7.125,2.487,18.766-6.444,20.588-.031.006-.061.015-.092.021-.211.042-.428.07-.644.1-.191.026-.384.049-.579.066-.175.016-.35.031-.528.039-.386.017-.775.026-1.172.007-.396-.019-.782-.061-1.164-.115ZM209.482,239.413c.024-.051.047-.103.071-.154-.024.051-.047.104-.071.154ZM210.602,235.664c.011-.25.022-.5,0-.758.022.29.011.572-.009.851-.008.105-.019.211-.032.316-.029.232-.066.462-.119.688-.008.037-.013.074-.021.111-.413,1.665-1.38,3.185-2.05,4.771-.029.066-.054.127-.077.187-.052.129-.111.257-.158.387-.071.238.122.434.335.473l1.117.439.023.009c2.651-1.506,5.79-2.007,8.791-1.61,8.821,1.136,16.265,7.956,23.134,13.153-.505.371-9.044,6.633-9.044,6.633-6.202,4.516-14.503,9.525-22.124,5.563-.902-.39-2.528-.173-2.322,1.115.801,2.339,2.739,4.438,2.667,6.939-3.709,1.498-7.816,1.989-11.783,1.382-4.017-.559-8.17-2.47-11.233-4.803,0,0-7.307-7.515-7.618-7.833,1.774-2.761,2.76-6.04,2.669-9.324-.069-3.313-1.293-6.57-3.374-9.13,6.405-8.35,17.581-13.708,27.992-11.325,1.083.253,2.163.586,3.235,1.006.019.252.016.505,0,.758ZM197.185,152.167c-.336.337-.856.648-1.111,1.073-.273.444-.531,1.121-.064,1.536.938.654,2.035.028,3.034.262,1.935.463,2.366,3.209,1.912,4.906-.378,1.475-1.398,2.629-2.212,3.906-.337.463-.402,1.375.289,1.636.605.21,1.108.098,1.604.116,1.648-.18,2.379,1.278,2.979,2.574,1.656,3.573.684,8.252-2.55,10.59-2.283,1.812-5.797,1.946-7.949-.102-1.422-1.163-1.828-3.532-.332-4.783.407-.339.853-.633,1.266-.453.37.204.956.53,1.324.735.767.484,1.978-.313,1.949-1.226.057-.929-.646-1.756-1.342-2.21-2.25-1.496-5.121-1.564-7.674-.975-5.988,1.134-10.708,5.889-12.831,11.453-.544-.618-1.034-1.305-1.502-2.01,2.951-5.53,7.242-10.581,13.436-12.236,1.007-.262,2.036-.43,3.083-.478,1.376-.138,4.872.485,4.521-1.974-.112-.404-.426-.65-.751-.858-1.306-.688-2.844-.682-4.23-.62-5.791.332-10.782,3.7-14.605,7.858,2.759-6.176,7.685-11.742,14.5-13.064.567-.176,1.15-.446,1.503-1.108.807-3.165-4.153-1.727-5.63-1.07-5.342,2.094-9.204,6.561-12.097,11.36,3.321-12.419,14.051-22.861,26.903-24.434,1.16-.136,2.34-.213,3.541-.212-1.414,3.817-3.958,7.117-6.962,9.809ZM181.461,114.763c2.073-1.52,4.363-4.321,3.727-7.095-1.179-2.126-2.954,1.082-4.434.976-1.945-.002-3.526-2.1-3.844-3.94-.785-6.053,4.518-12.578,10.779-12.334.259.29.787.878.787.878.145.21.582.295.821.184.632-.226,1.133-.746,1.543-1.206,1.505-1.561,3.429-2.58,5.448-3.365-1.014,4.199.291,8.47.451,12.688.092,3.325-.501,6.697-1.963,9.694-2.292,5.093-7.183,8.796-12.696,9.761-4.342.953-9.283-.226-12.986-2.121l-.065-3.583c.332.158.67.285,1.007.417-.341-.127-.678-.263-1.007-.417,3.857,2.024,8.798,2.032,12.431-.537ZM156.79,61.044c.754.089,1.555.406,2.316.82-.804-.42-1.605-.713-2.316-.82ZM157.14,64.43c-.012-.039-.025-.076-.041-.113.008.018.02.034.027.053.006.017.009.042.014.06ZM159.649,62.166c-1.071-.66-2.279-1.188-3.342-1.166-.617-.014-1.139.144-1.485.532-.01.009-.022.014-.032.023-.144.155-.204.293-.233.425-.016.054-.022.106-.021.156,0,.016-.003.032,0,.047.01.083.045.159.095.232.007.012.017.023.025.034.035.045.076.089.124.132.33.32.905.56,1.25.771.49.284,1.038.655,1.13,1.245.047.579-.079,1.172-.299,1.707-.572,1.012-1.67,1.693-2.818,1.86-2.326.339-4.706-1.07-5.894-3.033-1.808-3.106-1.139-6.945-.163-10.225,1.455-4.492,6.229-14.678,8.072-19.34,1.554,1.152,2.826,2.659,3.829,4.312.609.971,1.046,1.996,1.516,3.039.422.531,1.217,1.029,1.877.61,1.011-.974.008-2.745-.382-3.757-1.331-2.664-3.121-5.126-5.513-6.951,4.038-8.45,7.92-16.994,11.165-25.8,3.042,8.639,6.888,17.346,10.634,25.706-3.183,2.194-5.71,5.444-6.711,9.21.036.537.182.841.42,1.282.112.229.53.64.96.431.392-.136.963-.331,1.357-.468,1.055-2.904,2.88-5.497,5.387-7.303,2.814,6.684,7.234,15.878,8.657,22.746.608,2.922-.3,6.167-2.65,8.054-1.762,1.437-4.573,1.641-6.259,0-.484-.592-1.023-1.974-.347-2.603.643-.742,2.653-1.077,2.218-2.461-.337-.761-.847-.984-1.31-1.43-2.67.23-5.188,1.499-7.123,3.317-1.581,1.465-2.833,3.209-3.909,5.039l-.305-42.87v-.044c-.152-.236-.311-.467-.5-.685-.19-.18-.357-.462-.772-.444-.519.145-1.014.716-1.241,1.184,0,0,.083,45.251.086,46.875-.068-.191-.141-.38-.211-.569-.685-2.004-1.681-4.006-2.974-5.773-.127-.175-.249-.353-.383-.523-.049-.063-.104-.121-.155-.183-.217-.269-.436-.536-.672-.793-.3-.329-.614-.646-.944-.949.322.297.632.609.93.934-.294-.319-.603-.631-.93-.934-.647-.599-1.391-1.147-2.152-1.598ZM156.813,66.446c-.028.051-.055.103-.084.143-.037.05-.083.087-.122.135.07-.091.145-.179.206-.277ZM166.277,115.061s-.005-.004-.008-.006c.013-.004.025-.007.038-.011v.01c-.01.002-.02.005-.03.007ZM166.257,115.059v.006c-.033.007-.066.015-.099.022.034-.01.064-.019.099-.028ZM139.809,115.332c.376-.725-.75-1.093-1.228-1.35-4.249-1.543-5.769-7.538-3.021-11.001,1.129-1.264,2.829-.828,4.331-.658,1.524-.014.869-2.077.638-2.85-.333-1.172-.468-2.359-.226-3.503,4.709-3.499,12.062-2.509,15.302,2.482,1.745,2.236,1.628,5.771-.779,7.412-.881.64-1.734.801-2.735.356-.446-.101-.719-.974-.651-1.276.078-.176.457-1.119.526-1.271.038-.087.058-.14.09-.224.132-.306-.108-.73-.238-.822-.463-.421-.923-.624-1.552-.788-1.657.023-3.353.457-4.726,1.433-7.831,5.876-.886,16.465,6.734,18.439,2.585.8,5.31,1.045,7.994.789-7.483,4.641-16.69,1.991-22.751-4.062l2.293-3.106ZM143.448,170.485c.083-.051.171-.092.257-.139-.086.046-.174.088-.257.139ZM142.836,170.921c.008-.006.016-.011.023-.018-.008.006-.016.012-.023.018ZM141.17,173.456s.001-.004.002-.007c0,.002,0,.005-.002.007ZM141.427,172.73s.001-.002.002-.004c0,.001-.001.003-.002.004ZM142.188,175.559c-.009.003-.019.005-.028.008.009-.003.019-.005.028-.008ZM144.891,169.851c-.265.074-.521.168-.767.276.25-.11.505-.205.767-.276-.542.143-1.066.38-1.545.688-.056.035-.104.079-.158.117-.169.118-.338.236-.494.372-.083.072-.152.154-.23.23-.12.118-.243.231-.351.359-.021.025-.037.053-.057.079-.666.82-1.083,1.828-1.052,2.915.011.044.04.081.054.124.023.069.056.143.095.219.067.136.148.258.247.374.037.044.073.085.111.123.043.042.074.096.121.133.039.022.08.032.12.044.003,0,.006.002.008.003.448.129.942-.32,1.17-.679.403-.643.761-1.394,1.475-1.729.721-.226,1.557-.131,2.255.132,2.438,1.274,2.609,4.709.82,6.617-1.945,2.466-5.515,3.161-8.388,2.074-5.984-2.012-8.59-9.711-5.483-15.066.831.1,1.775.384,2.582-.024,1.018-.327.712-1.598.213-2.261-2.038-1.989-3.055-5.391-1.563-7.951l.88.137.548.085c.236.031.553.129.77-.028.438-.354.535-.711.648-1.2.012-.224.104-.447-.139-.811-1.221-1.146-2.361-2.308-3.209-3.731-1.379-2.225-1.883-4.849-2.245-7.48,2.51,1.361,5.207,2.376,7.97,3.081,12.271,2.816,21.738,13.43,23.04,25.851-3.375-7.6-10.74-14.627-19.46-12.96-.596.192-1.271.399-1.67,1.088-.172.379-.089.826.216,1.121.314.288.708.315,1.014.324,9.557-1.054,16.997,7.701,18.91,16.364-.09.124-1.311,1.812-1.451,2.007-.044-.213-.107-.422-.162-.633-.717-3.511-3.274-6.83-6.576-8.773-.827-.492-1.704-.887-2.613-1.179-2.067-.677-4.279-.809-6.422-.156.902-.256,1.806-.384,2.7-.401-.891.02-1.794.149-2.7.401ZM146.843,173.415c-.062-.035-.126-.067-.19-.099.054.024.112.046.155.072.013.008.022.019.035.026ZM147.43,204.913c.175.058.341.127.508.194.232.096.467.19.688.306.011.005.022.011.033.016,1.978,1.049,3.528,2.813,5.342,4.142,1.449.588,1.17-1.498.941-2.292-.454-1.959-.795-3.95-.621-5.944.116-2,.711-3.913,1.437-5.787,2.234-6.529,8.001-14.334,11.709-20.365,1.113,1.702,4.843,7.401,4.843,7.401,4.776,7.398,11.207,16.51,7.505,25.596l-.076.172.067.182.241.645c.118.268.071.324.293.639.388.356.91.255,1.285.185.277-.087.524-.104.872-.457,1.513-2,3.666-3.499,6.062-4.173,4.521,13.175-.898,28.429-11.534,37.098-5.121-4.027-12.764-4.297-18.024-.396-11.187-8.366-17.302-23.937-12.504-37.418.325.061.63.155.932.255ZM125.447,274.535c.002-.095.014-.183.019-.275.158-2.081,1.368-3.908,2.51-5.634.275-.417.375-1.185-.222-1.383-1.003-.483-1.924.319-2.871.573-3.733,1.251-7.851.778-11.406-.799-6.217-2.554-13.468-8.784-19.146-12.721,4.393-3.048,10.102-7.712,14.874-9.73,5.352-2.508,11.999-4.095,17.486-1.188.102-.003.64-.107.754-.107.45-.057.982-.094,1.188-.592.175-.451.019-.875-.111-1.245-.87-2.068-2.228-4.088-2.34-6.293,7.925-3.337,17.217-1.283,24.05,3.599,1.917,1.388,4.195,3.929,6.055,5.635-5.022,5.54-5.161,14.494-.367,20.212-1.037,1.042-6.026,6.053-6.026,6.053-6.232,6.334-16.239,8.001-24.416,4.754-.035-.292-.04-.577-.032-.858ZM155.942,312.658c-.641-1.564-1.168-3.178-1.617-4.827-.881-3.807-.819-7.731.931-11.321l-.516-1.118c-.106-.229-.413-.217-.59-.139-2.279,1.267-4.488,3.101-7.262,2.895-1.827-5.438-1.874-12.093.417-17.629,2.17-5.574,6.09-10.358,10.829-13.951,2.754,2.391,6.418,3.73,10.083,3.593,3.636-.108,7.181-1.655,9.806-4.173,9.722,7.329,15.019,20.078,10.639,31.811-2.653-.107-4.776-1.652-7.104-2.797-1.055-.358-1.602.773-1.758,1.61,1.676,3.025,1.76,6.65,1.079,9.981-1.255,5.641-4.06,10.647-7.637,15.157-.666.912-2.422,3.317-3.063,4.196-2.155,2.375-1.109,5.734-1.298,8.634.011,9.063.207,56.312.253,68.399-.586-.774-1.547-2.043-1.547-2.043l-.223-.293-.219.293s-1.194,1.595-1.78,2.377c-.017-17.86-.027-53.724.036-70.713.013-.916-.022-1.836.032-2.747.109-.896.298-1.882-.255-2.681l-6.292-9.023c-1.011-1.453-1.841-2.983-2.547-4.567.759,1.609,1.628,3.147,2.547,4.567-1.089-1.69-2.104-3.545-2.943-5.487ZM292.182,438.605l5.962-.696c-1.282,2.193-2.155,4.63-2.569,7.137-.899,6.379-4.092,13.879-11.058,15.203l-3.39.734c1.675-5.609,2.335-11.576,1.464-17.372,2.084-3.205,5.811-5.07,9.59-5.006ZM257.139,499.7c-4.631,1.584-9.826,1.385-14.27-.64,4.133-1.284,8.49-3.282,11.794-5.462,2.922-.414,5.439,2.455,7.772,3.608l.093.064-3.26,1.554c-.702.328-1.413.62-2.131.875ZM271.29,490.974c-3.812,2.227-8.725,2.339-12.646.238,4.031-2.692,7.671-5.96,10.907-9.551,1.023-.686,3.534-.251,5.061.138l5.251,1.116c-1.977,2.057-3.999,4.067-6.028,6.071-.795.778-1.65,1.438-2.546,1.987ZM287.95,469.306c-2.687,5.785-9.006,10.372-15.453,8.649,2.903-3.959,5.44-8.229,7.205-12.821.754-.653,1.703-1.055,2.715-1.263,1.04-.224,2.133-.273,3.225-.421,2.104-.279,4.232-.607,6.504-.884-1.427,2.367-2.858,4.552-4.196,6.739ZM200.894,152.357c-.013-.011-.017-.018,0,0h0ZM45.708,420.549c-.006.11-.018.219-.029.329.011-.109.022-.218.029-.329ZM45.603,421.433c-.022.123-.051.243-.08.364.028-.121.058-.241.08-.364ZM45.365,422.373c-.026.076-.055.151-.083.227.028-.075.058-.15.083-.227ZM44.969,423.323s-.004.008-.006.012c.002-.004.004-.008.006-.012ZM87.346,498.916c-6.498,3.006-12.958,1.178-19.184-1.79,2.378-1.62,4.552-3.975,7.568-4.075,3.546,2.515,7.497,4.46,11.616,5.864ZM32.963,437.206c1.973.23,3.943.497,5.915.739,3.803.014,7.48,1.882,9.593,5.038-.017.29-.318,5.436-.318,5.436.096,2.138.38,4.268.758,6.371.346,1.907.763,3.797,1.243,5.669-8.975-.363-13.371-6.788-14.631-15.371-.352-2.75-1.185-5.456-2.56-7.882ZM57.392,489.26c-1.443-1.298-4.466-4.51-6.268-6.337,1.284-.306,5.312-1.267,5.312-1.267,1.655-.573,3.487-.632,5.198-.204,2.06,2.939,7.106,7.113,10.839,9.65-4.863,2.395-10.998,1.787-15.082-1.842ZM58.684,477.857c-7.606,1.489-12.81-2.991-15.637-9.875-.821-1.999-1.979-3.842-3.2-5.588,1.255.156,5.8.721,5.8.721,2.194.236,4.528.006,6.406,1.361,1.558,4.742,3.807,9.257,6.63,13.382ZM36.568,435.168c.124.009.248.018.372.026-.125-.006-.248-.016-.372-.026ZM28.825,424.908c-.363-.274-.715-.566-1.057-.872.344.3.688.601,1.057.872ZM29.159,383.194c.551.344,1.112.699,1.674,1.059l-1.674-1.059ZM5.706,377.269c1.718-.432,3.478-.663,5.242-.706-1.752.048-3.509.28-5.242.706ZM11.388,382.496c2.175,1.781,4.035,3.888,5.474,6.283-1.444-2.379-3.315-4.502-5.474-6.283ZM20.484,408.693c.249,1.773.548,3.512,1.047,5.229-.545-1.739-.898-3.51-1.047-5.229ZM28.879,424.95c1.041.761,2.178,1.406,3.412,1.913-1.22-.476-2.36-1.124-3.412-1.913ZM32.391,426.901c.24.097.483.172.726.254-.245-.078-.486-.163-.726-.254ZM85.242,415.458c-.05-.079-.094-.159-.145-.237h.002c.049.077.095.159.143.237ZM57.589,387.99c-.021-.014-.042-.027-.063-.04.021.013.042.026.063.04ZM45.373,382.916c-.819-.232-1.55-.481-2.209-.739.869.294,1.747.579,2.626.861-.14-.04-.277-.083-.417-.122ZM39.755,380.406c-.106-.073-.21-.144-.309-.215.102.073.205.144.309.215ZM40.866,381.095c-.052-.029-.104-.058-.154-.087.051.029.103.058.154.087ZM36.209,384.358c-.002-.011-.003-.022-.005-.033.002.011.004.022.005.033ZM36.303,385.492c0,.049,0,.099.001.148,0-.05,0-.099-.001-.148ZM36.046,387.959c-.007.032-.009.062-.016.095-.002-.001-.003-.003-.005-.004.009-.029.013-.062.021-.09ZM5.344,377.583c-.022.029-.042.058-.062.087.021-.029.04-.059.062-.087ZM5.087,378.018s.001-.002.001-.003c-.017.058-.013.107.004.149-.016-.046-.025-.094-.006-.146Z"/>
      <path d="M125.891,380.843c0-.008,0-.015,0-.022,0,.007,0,.015,0,.022Z"/>
      <path d="M125.96,382.884c-.007-.083-.012-.168-.017-.253.006.084.01.169.017.253Z"/>
      <path d="M330.993,508.472c.016.006-.013-1.393-.026-2.104l-.003-.254c0-.093-.001-.151-.002-.15-104.979-.768-225.66-.487-330.401-.91l-.486-.002-.012.487s-.064,2.674-.062,2.676c-.473,1.206,216.369.293,299.28.173l31.666.077c.019.002.044.005.046.007ZM330.993,508.457h0s0,0,0,0Z"/>
      <path d="M183.223,118.632c3.453-1.667,6.432-4.338,8.331-7.661.013-.023.027-.045.04-.068.154-.273.302-.549.441-.831.194-.386.379-.779.547-1.185.286-.689.497-1.383.653-2.067.592-2.423.601-5.065-.607-7.244-.42-.747-1.364-.938-1.771-.071-.374,1.571.288,3.206.1,4.793-.079,1.785-.718,3.498-1.589,5.049-3.523,6.041-11.606,9.635-18.307,7.048l-1.084-.389.551,1.001c2.541,4.836,8.663,3.746,12.695,1.623Z"/>
      <path d="M166.937,247.062c.017-.002.033-.001.05-.003-.017.001-.034.002-.05.003Z"/>
      <path d="M166.476,247.125c.153-.023.307-.05.461-.063-.153.017-.307.038-.461.063Z"/>
      <path d="M174.825,258.631c2.989-5.746-1.84-12.187-7.837-11.572.257-.02.514-.025.77-.018-.463-.002-.936.033-1.415.115.044-.008.09-.022.134-.03-.342.052-.683.121-1.02.226-.309.086-.604.193-.889.312-5.794,2.322-6.496,11.201-.785,14.297,3.78,2.259,9.157.651,11.042-3.33ZM166.926,250.05c5.293-.725,7.41,5.782,4.159,8.709-.082.071-.163.142-.25.208-.138.108-.285.209-.44.305-.185.113-.378.216-.582.307-.122.055-.247.106-.377.153-.3.108-.607.208-.941.267-.211.037-.419.058-.624.069.206-.015.413-.028.624-.069-6.645.794-7.956-8.61-1.569-9.949ZM163.262,248.363c.11-.077.232-.141.348-.211-.117.07-.237.136-.348.211ZM164.063,247.898c.158-.081.318-.157.485-.226-.167.07-.327.146-.485.226Z"/>
    </g>
  </g>
</svg>