<?xml version="1.0" encoding="UTF-8"?>
<svg id="b" data-name="Layer 2" xmlns="http://www.w3.org/2000/svg" width="362.343" height="367.426" viewBox="0 0 362.343 367.426">
  <g id="c" data-name="Layer 1">
    <g id="d" data-name="IY5rsW">
      <g>
        <path d="M181.164,367.426l-6.385-6.293c-11.21,5.5-24.945,3.513-29.647-8.795-6.653-.03-11.898-4.182-13.173-10.663-.8-4.068-.56-8.36.877-12.351l6.203-17.229,20.954-51.534,9.885-24.597c7.679,1.866,14.997,1.782,22.708.002l30.543,75.598c2.546,7.008,5.116,13.55,6.599,20.747,1.924,9.339-1.718,18.808-11.622,20.033-5.007,12.174-19.34,14.44-30.421,8.4l-6.524,6.681Z"/>
        <path d="M192.325,131.515c-7.638-1.581-15.038-1.651-22.504.045l-11.38-28.225-18.96-46.036c-2.526-6.132-4.553-12.052-6.149-18.425-2.559-10.219-.026-20.218,10.591-22.412,4.461-12.477,18.399-14.872,30.042-10.049l7.1-6.413,5.972,6.429c6.827-3.707,15.295-4.027,22.253-.399,3.871,2.018,5.837,5.822,7.907,9.184,4.014,1.152,8.24,2.292,10.409,6.344,2.027,3.786,2.674,8.198,1.851,12.568-.998,5.301-2.443,10.239-4.463,15.335l-18.669,47.083-13.999,34.972Z"/>
        <path d="M319.041,115.953c-3.243,2.825-6.74,4.919-10.634,6.604l-28.816,12.469-53.174,22.104c-4.576-7.844-10.713-14.298-18.839-19.046l14.023-30.549,22.326-47.427,6.995-12.918c2.476-4.573,6.792-7.752,11.852-9.14s10.134.249,14.017,3.767c5.641-2.282,11.571-1.17,16.54,2.038,5.205,3.361,8.46,8.552,8.387,15.079l9.176.836-1.011,9.936c10.498,4.168,16.352,15.151,11.754,25.72,4.664,6.476,3.668,15.068-2.597,20.526Z"/>
        <path d="M45.815,117.845c-3.898-2.389-6.885-5.502-8.378-9.625-1.969-5.437-.853-11.335,3.321-15.465-3.179-10.549,1.391-19.005,11.482-23.23l-.834-9.703,9.988-.465c.18-6.599,3.778-12.344,9.565-15.584,4.551-2.549,9.732-3.283,14.575-1.277,5.169-4.559,12.102-5.175,17.955-1.526,3.352,2.09,6.043,4.975,8.263,8.356,2.689,4.095,5.102,8.107,7.276,12.591l20.203,41.668,15.851,34.353c-8.36,4.768-14.496,11.283-19.425,19.381l-39.204-16.516-37.153-15.969c-4.727-2.032-9.007-4.243-13.486-6.988Z"/>
        <path d="M300.795,308.923c.19,5.087-2.088,9.776-5.788,13.196-5.083,4.699-11.861,6.359-18.473,4.184-6.972,6.43-16.889,4.6-23.03-2.247-2.562-2.857-4.627-6.015-6.38-9.518l-14.435-28.834-25.139-56.324c8.215-4.758,14.424-11.195,19.167-19.286l45.467,20.695,37.93,17.574c3.387,1.941,6.601,3.525,9.42,6.091,5.67,5.162,6.748,13.672,2.058,19.947,3.926,10.114-1.403,20.945-11.659,24.61l.959,9.657-10.098.255Z"/>
        <path d="M13.808,218.74c-10.51-5.345-12.39-17.582-7.484-28.016l-5.944-5.914c-.647-.644-.398-1.699.22-2.311l5.121-5.072c-3.033-4.727-3.892-10.228-2.686-15.543,1.25-5.507,5.092-9.641,10.52-11.426.19-6.489,4.4-11.566,10.66-13.079,3.879-.938,7.811-.908,11.834-.022,8.552,1.883,16.446,4.794,24.764,7.781l68.76,27.153c-1.962,7.923-1.792,15.424-.013,23.105-25.111,10.835-49.882,21.049-75.174,30.862-9.183,3.231-19.402,7.735-28.676,6.331-6.929-1.049-11.947-6.403-11.903-13.849Z"/>
        <path d="M67.874,322.267c-3.938-3.536-6.138-8.185-6.24-13.374l-10.033-.232.74-9.463c-2.442-1.344-4.867-2.478-6.887-4.29-5.365-4.813-6.919-12.339-4.505-19.246-4.285-5.538-4.149-12.984.283-18.543,2.413-3.026,5.525-5.392,9.11-7.119l28.14-13.554,57.231-26.263c4.969,7.944,10.883,14.531,19.305,19.176l-4.552,10.566-13.569,29.254-21.181,44.176c-1.801,3.757-3.977,7.039-6.584,10.11-6.226,7.335-16.274,9.401-23.569,2.794-6.32,2.079-12.687.499-17.687-3.991Z"/>
        <path d="M348.799,218.438c-.238,7.342-4.754,13.114-12.035,14.161-4.898.705-9.729.194-14.436-1.552l-25.775-9.559-63.988-26.145c1.865-7.665,1.845-15.438.125-23.065l60.697-23.88,26.39-9.35c4.239-1.502,8.474-2.269,12.969-2.373,8.798-.205,15.123,5.03,15.621,13.925,10.519,4.643,12.116,16.23,7.703,26.392l6.274,6.769-6.389,6.418c5.423,10.247,4.177,23.017-7.155,28.259Z"/>
        <path d="M181.421,215.414c-9.873.187-18.805-4.515-24.461-11.434-6.403-7.832-8.734-17.8-6.375-27.358,4.305-17.444,21.956-27.521,38.875-22.771,16.805,4.718,26.834,22.69,21.307,39.568-4.184,12.777-15.505,21.732-29.345,21.994Z"/>
      </g>
    </g>
  </g>
</svg>