<?xml version="1.0" encoding="UTF-8"?>
<svg id="b" xmlns="http://www.w3.org/2000/svg" version="1.1" viewBox="0 0 429 433.6">
  <!-- Generator: Adobe Illustrator 30.4.0, SVG Export Plug-In . SVG Version: 2.1.4 Build 226)  -->
  <defs>
    <style>
      .st0 {
        fill: #fff;
      }
    </style>
  </defs>
  <g id="c">
    <g id="d">
      <g>
        <path d="M88.4,389.3c-2.2-3.5-4.3-7.1-6.5-10.6-13.7-11.3-25.9-24.3-36.4-38.6-15.9-21.6-27.4-46-34-72.1-6-23.7-7.6-48.3-4.9-72.5.9-8.2,2.3-15.8,4.1-23.9,6.5-28.4,18.6-54.9,35.8-78.3,1.1-1.5,2.2-3,3.3-4.5.3-3.5.7-7,1.2-10.5-5.1,6.3-10,12.8-14.6,19.8C7.8,140.8-4.9,194.2,1.7,245.1c6.8,52.2,32.9,99.6,72.6,134,4.9,4.3,10,8.3,15.3,12.2-.4-.6-.9-1.3-1.3-1.9Z"/>
        <path d="M405.9,301.7c-2.6,6.1-5.6,12.1-8.8,18-27,48.7-72.1,85.4-125.6,101.2-16.4,4.8-33.3,7.1-50.5,7.6-39.7,1-78.1-10.3-111.7-30.5,0,0,.1.1.2.2,3.4,4,7.2,7.3,11.1,10.8.9.9,1.9,1.7,2.8,2.6,10.2,5,20.8,9.3,31.7,12.7,36.3,11.4,76.8,12.5,113.7,2.8,12.7-3.3,24.7-8.1,36.5-13.7,42.8-20.2,79.1-56.2,100.4-98.3,4.5-8.8,8-17.8,11.3-27.1.6-1.7,1.1-3.3,1.7-5-3.9,6.4-8.2,12.7-12.7,18.7Z"/>
        <path d="M322,34.9c0,0-.1-.2-.2-.2-.1-.2-.2-.3-.4-.5-.6-.7-1.2-1.5-1.8-2.2-2.5-2.9-5.2-5.7-8.2-8.1-.2-.2-.4-.3-.7-.5,0,0-.1,0-.2-.2-.1,0-.4-.3-.4-.3-.2-.1-.3-.2-.5-.4-.7-.5-1.5-1.1-2.2-1.6-.2-.1-.3-.2-.5-.3-16.8-8.3-34.6-14.3-53.2-17.6-7-1.2-13.6-2.2-20.7-2.8l-4.8-.4h-24.4s-5.5.4-5.5.4c-43.8,3.4-85.9,20.8-119.4,49.3-4.1,3.5-8.1,7.1-11.8,10.8-1.2,3.5-2.1,7.2-2.9,10.8.1-.1.2-.3.4-.4,12.8-13.6,27.2-25.3,43-35.1,13-8,26.5-14.3,40.8-19.2,37-12.7,77.2-14.8,115.2-5.7,20.8,5,40.9,13.7,59.1,25.2-.3-.4-.6-.8-.9-1.1Z"/>
        <path d="M411.5,132.9h0c-14.5-34.3-38.4-65.4-67.3-88.6-3.4-2.7-6.8-5.2-10.3-7.6.4.6.8,1.2,1.1,1.8,2,3.2,3.7,6.5,5.4,9.9,7.6,6,14.8,12.5,21.5,19.4,38.5,39.9,61.4,93,61.9,148.8.1,12.9-1.1,25.7-3.4,38.2.6-1.3,1.2-2.7,1.8-4,.4-.9.8-1.7,1.1-2.6.1-.3.3-.7.4-1,0-.1,0-.2.1-.3.7-1.7,1.4-3.4,2-5.1.8-2.2,1.6-4.3,2.4-6.5,2.9-34.6-2.9-69.6-16.8-102.3Z"/>
        <path class="st0" d="M266.6,404.5v.4c0,0,.3.5.3.5v-.2c.1,0-.3-.6-.3-.6ZM280.8,41.5h-.4c0,0,.4.7.4.7v-.4s0-.3,0-.3Z"/>
        <path d="M356,336.6c0-1.4-.1-2.9-.2-4.3-21.6,30.4-52.1,53.3-87.7,65.1-7.5,2.5-15.1,4.3-23.1,5.6-23.4,3.9-47.1,2.9-70-2.8-.6,0-1.2,0-1.7,0-2.1,0-4.3.3-6.4.5,11.9,3.5,24.1,5.7,36.6,6.6,24.3,1.8,48.6-1,71.4-9.6,32.6-12.2,60.4-33.3,81-61,0,0,0-.1,0-.2Z"/>
        <path d="M352.9,137.7c11.2,11.5,20.5,24.5,27.8,38.8,4.3,8.4,7.2,16.7,10,25.8-.9-10.7-3.2-21-6.4-31.2-3-9.9-6.8-19.2-11.9-28.1-2.9-5.1-8.3-11.4-13.9-11.9-.8,0-2.1.4-2.4.9-.5.7-.7,1.8-.9,3.1-11.8-14.7-27.7-29.4-45.5-35.8-4.1-4.7-8.2-9-13.2-12.7-4.4-3.2-8.1-7-11.8-10.8l-10.6-11c-5.5-5-11.3-9.3-18.3-12h-.7c0-.2,0,0,0,0l.5.5c4.3,3.8,7.8,8.3,10,13.7l4.2,10.1c3.9,9.3,10.2,16.7,21,15.7,1.5-.1,3.9,0,5.2.4l.9.3c.1,0,.1.2,0,.2l-.9.2c-7.2,1.2-10.5,7.3-9.8,14.8l-4.7-9.6c-6-12.3-17.2-14.6-30.1-12.7l-10.1,1.4c-10.4,1.5-19.3-4.2-22.7-14.3,0-.7-.4-.4-.6.2-1.3,6.4,2.2,12.7,7.4,16.3,3.1,2.1,6.4,3.7,10.2,4.5l17.2,3.3c5.6,1.1,10.9,2.1,16.1,4.2,5.2,2.1,9.8,4.7,13.8,8.6,6.8,6.6,12.5,13.8,16.9,22.2,4.8,9.1,8.8,18.4,10.8,28.6l-6.5-15.3c-2.6-6.2-5.6-11.9-9.2-17.6-3.8-6-9.8-9.8-16.9-11.1,2.3,3.2,4.4,6.2,6.1,9.6l5.6,10.9c.3.5.3,1-.4.4-14.4-13.8-32-22.4-50.7-25.3-.3,0-.5,0-.8.1-2.2.4-4.4,1-6.5,1.7,31.4,2.5,59.9,21.4,75.2,50.9,19.3,37.2,15.4,81.1-5.8,116.6,0,.8,0,1.7,0,2.5,0,1.3,0,2.6,0,3.8.9-1.4,1.8-2.7,2.8-4,1.8-2.3,3.9-4,6.4-5.2,3.1-1.5,6.4-.2,7.7,3.1.9,2.4.6,5,.2,7.7,4.5-4,10.2-7.6,14.7-4.2,1.5,1.1,2.4,3.3,2.5,5.6,0,3.3-1.6,5.9-3.1,8.8,2.5-1.1,4.5-2.2,6.8-2.7.6-1.1,1.1-2.2,1.6-3.3,0,0,0,0,0,0-.1,0-.2,0-.3,0,.1,0,.3-.2.4-.3,0,0,0,0,0,0,0,0,0,0,0,0,0,0,0,0,0,0,0-.2.1-.4.2-.5.1-.3.3-.6.4-1,.3-.7.5-1.5.8-2.2.1-.5.3-1,.4-1.4.9-4.7-1-9.2-5.3-11.3,6.7-3.3,12.6-7.3,17.8-12.2.3-1.2.6-2.4.9-3.5.2-.7.3-1.5.4-2.2,0,0,0-.2,0-.3,0,0,0-.2,0-.2,0-.2,0-.4,0-.6,0-.4,0-.8.1-1.2,0-.1,0-.2,0-.3-1.6,2.5-3.4,4.9-5.3,6.8-4.3,4.5-9,8.4-14.8,11.4,1-1.7,2.3-2.8,3.6-4,5.2-5,9.9-10.6,13.3-17,1.9-3.6,3-8.5.7-9.8-4.4-2.4-10.7,9.2-13.2,14.3l-7.5,15.7,3.7-13.1c1.9-6.6,4.8-12.6,8.8-18.1,2-2.7,4.4-4.8,7.5-5.8,3.1-1,6,.6,6.9,3.8,1,3.3.3,7.1-1.1,10.7,0,1.5,0,3.1-.2,4.6-.1,1.8-.3,3.6-.7,5.4,0,0,.1-.1.2-.2,6.1-6.9,11.3-18,7.6-26.3-1.9-4.2-6-5.9-10.3-4.7-7.1,2-11.3,8.8-15.1,15.2l2.8-24.4c1.2-18.9-.4-38.5-5.2-57.2-.3-.4-.7-.8-1-1.2-.8-.8-1.6-1.6-2.5-2.3,0,0,0,0-.1-.1,1.2,4.4,2.3,8.8,3.2,13.3,6.9,34.1,2.8,70.4-8.3,103.1l-3.9,1.5c7.2-20.7,11.6-41.6,12.2-63.3.3-9.4,0-18.7-1.1-28-.4-.8-.9-1.5-1.4-2.1-.6-.8-1.3-1.5-2-2.2.6,3.8,1,7.6,1.4,11.6-1.3-1.9-2.7-3.2-4.8-3.9-.6-.2-1.2-1.5-1.8-2.3l-.9,2.4c-2.3,1.2-3.4,3.6-2.8,6.2,1.8-2.8,5.2-3.3,7.7-1.4,1.4,1.1,2.9,2.9,2.9,4.8v18.7c-.8-1.3-1.4-2.7-2.7-3.4-1.5-.8-2.3-1.5-2.8-3.4-.6,1.7-1.2,2.5-2.4,3.2-2.1,1.2-2.8,3.9-2.6,6.2,1-1.5,2-2.5,3.2-2.9,1.6-.5,3.2-.1,4.5.9,1.9,1.6,2.7,4,2.5,6.5-.6,7-1.4,13.7-2.9,20.8-1.1-1.9-2-3.3-3.8-4l-1.1-2.6c-.7,1.5-1.7,2.3-3,3-2.2,1.1-3,3.9-3.1,6.2,1.2-1.5,2.3-2.7,3.5-3,1.9-.5,3.6.2,4.8,1.7,1,1.3,1.8,3.4,1.5,5.1-2.2,9.9-5,19.4-8.8,28.7-2.3-5.9-1.1-13,0-18.7-1.7,3-2.7,6.1-3.5,9.5v3c-3.3-1.9-6.7-1.4-10.1.5,3.1-7,6.1-13.4,8.3-20.6,3.4-11.1,5.5-22.3,5.8-34,.6-23.1-2.7-46-9.8-67.9-4.2-12.8-10.1-24.7-17.6-35.8l-.3-7.2c0-2,.9-3.8,2.3-5.5,4,3.7,7.5,7.3,10.4,11.8l8,12.1-4.1-.7-1.7-1.3c0,3.2-2.9,4.6-.8,8.1.7-2.2,2.3-3.5,4.7-3.3,1.6.1,3.8,1.2,4.7,2.7,2.6,4.6,4.6,9.2,6.7,14.3-1.9-1-3-1.5-4.8-1.8l-1.8-1.4c-.3,1.6-.8,2.6-1.8,3.7-1.1,1.4-1,3.7,0,5.3.7-2.5,2.5-4,5-3.8,2.7.2,5.1,2.2,5.8,4.8l4.2,15c-1.5-1.1-2.6-2.1-4.1-2.5-1.3-.4-2-1-2.9-2.4-.2,1.7-.7,2.6-1.8,3.6-1.5,1.4-1.6,3.8-1.2,5.8.8-1.3,1.6-2.6,2.5-3,3.9-2,8,2,8.5,4.1.2,1,.4,2,.6,3,1.3.9,2.4,1.9,3.4,3-.8-5.7-2-11.4-3.5-17.1-4.9-19-13.1-36.9-25.1-52.2l-8.4-9.3c1.4-.5,2.7-.7,3.7-.5,7.4,7,13.2,15,18.1,23.9,5.3,9.4,9.4,19.3,12.6,29.6,0,0,0,0,0,0,.2,0,.3.1.4.3.5.4,1.1.9,1.6,1.3.5.4,1,.8,1.5,1.3-5.6-19.5-14.6-38-27.4-53.6,4.4,1.6,8.1,3.7,12,6.1,11.7,7.4,22.1,16.2,31.8,26.1ZM332.7,279.6c2.5.4,4.5,2.2,5.4,4.1,1.2,2.5,1.1,5.2,0,7.6,0-3.2-.7-6.2-3.1-8.2-2.9-2.5-6.7-2.4-10.3-.9,2.1-2,5.2-3,8.1-2.5ZM294.8,101.4c-3.2,2.8-4.1,6.8-4.1,10.9-1.1-2.1-1.5-4.7-1-7.1.7-4.3,4.2-7.5,8.5-8.1,3-.4,6,0,8.4,1.5-4.5-.3-8.5-.1-11.8,2.7Z"/>
        <path d="M390.3,169h0c-4.1-14.8-10-28.8-17.5-42.2-14.4-26-34.7-48.3-59.6-64.6-9.6-6.3-19.6-11.3-30.3-15.3-3.4-1.3-6.8-2.5-10.3-3.6-.4-.1-.9-.2-1.4-.3-.2,0-.3,0-.5,0,0,0,0,0,0,0,0,0-.2,0-.3,0-.4,0-.7,0-1.1,0-1.5,0-3,0-4.6,0-1.4,0-2.8.2-4.1.3,6.8,1.7,13.6,3.8,20.3,6.3,15.2,5.8,29.4,13.7,42.3,23.7,19.8,15.3,35.8,34.6,47.8,56.5,10.2,18.8,17.5,39.1,20.7,60.2,3.9,25.2,2.4,50.5-4.4,75l-6,18.5h0s-2.5,2.8-2.5,2.8c-7,7.8-14.5,15-22.4,21.8-.2,0-.6.2-.6,0l.2-.7c.8-2.9,1.1-5.8.4-8.7-1.4-5.9-6.5-9.5-12.4-9-.3,1-.6,2-1,3,3.1-.4,6.3,1,8.3,3.7,1.8,2.4,2.2,5.2,2.1,8.2-.5,2.4-1.2,4.7-2.3,6.9.5-3,1.2-5.7.7-8.5-.8-5-4.4-8.3-9.2-8.9-.2.5-.4,1.1-.7,1.6-.2.5-.5,1-.7,1.4,3,.3,5.4,2.2,6.5,5.2h0c.9,2.6.8,5.3,0,7.9-1.7,5.2-4.9,9.9-8.9,14.2,0,.4,0,.8-.1,1.3-.2,1.4-.4,2.8-.8,4.2,0,.2-.1.3-.2.5,2-1.6,3.7-3.1,5.1-4.4l13.4-12.4,12.8-12.3c4.2-4.5,7.7-9.1,10.6-14.5l.6-.6s0,0,0-.1c0,0,0,.2,0,.3-5.1,13.7-11.9,26.6-19.7,38.8h0c-.8,1.3-1.7,2.6-2.6,3.9,0,1.5.1,3,.2,4.6,1-1.4,2-2.8,2.9-4.3,9.5-14.2,17.2-29.3,23.1-45.3,13.9-37.7,16.6-76,5.9-115Z"/>
        <path d="M245.5,36.9c-28.1-3.9-56.6-.9-83.5,7.9-8.4,2.8-16.4,5.5-24.4,9.1-7.8,3.4-15.1,7.4-22.1,11.9-.1.2-.3.4-.4.7-.1.2-.2.4-.3.6,0,0,0,.1-.1.2,0,0,0,0,0,.1-.3.7-.5,1.5-.7,2.2,0,.2,0,.4,0,.6,0,.3,0,.1,0,0,0,0,0,0,0,0,0,0,0,0,0,0,0,0,0,0,0,.1,0,0,0,0,0,.1,3.3-2.2,6.7-4.4,10.2-6.4,10.6-6.1,21.7-10.6,33.2-14.6,16.9-5.8,34.1-9.4,52-10.6,15-1,29.8,0,44.3,2.8,0,0,.2,0,.3,0,1.3-.2,2.6-.3,3.9-.5,1.8-.2,3.6-.4,5.4-.5-5.7-1.5-11.5-2.7-17.5-3.6Z"/>
        <path d="M127.1,355.9c-1.4-1.5-2.9-2.8-4.2-4.4-.9-1-1.7-2.1-2.5-3.3-30.9-17.5-54.2-40.2-73.3-70.5,5.4,18,19.5,44.6,33.7,56.2,3.2,2.6,9,6,11.5,3.9.6-.5.8-1.6.8-2.6-.4-.7-.1-.9.4-.5l15.3,11.7c6.4,4.3,12.9,8,20,11-.6-.6-1.1-1.1-1.7-1.7Z"/>
        <path d="M203.6,360l-14.7-1c-8.3-.6-15.8-3.4-22.6-8.2-3.9-2.7-7.6-5.6-10.6-9.3-5.9-7.1-10.6-14.8-14.5-23.2-4.6-9.7-8.7-19.4-11.3-30.1,5.2,10.8,10.3,26.7,18.8,34.7,2.8,2.7,6.9,5.1,9.1,2.9,2.4-2.5-.3-6.3-1.8-9.7,26.4,22.7,59.4,29.5,89.5,19.1-1.4-.2-2.9-.5-4.3-.8-.5-.1-1-.2-1.5-.3-2.4.7-4.8,1.2-7.2,1.7-36,6.7-71.4-11.2-91.6-40.7-9.9-14.5-16.5-30.8-19.3-48-1.2-.6-2.4-1.2-3.6-1.9,2.2,23.7,8.2,46.8,17.8,68.6,4.5,10.1,9.8,19.5,16.4,28.3l1.2,7.7c.3,1.9-.3,3.6-1.4,5.3-8.7-4.8-16.2-13.2-22.1-21.3h0c2,.5,3.3.7,5.2.8l1.9.8c0-2.8,2.3-4.1.2-7.6-.9,2.2-2.6,3.5-5.1,3.7-1.8,0-4.3-.8-5.4-2.3-3.5-4.8-6.2-9.9-9-15.3,1.7,1.1,3.1,2.1,5.1,2,1.4,0,2.6.6,3.8,1.5-.2-3.3,3.8-4.1,1.6-9.2-1,2.8-3.2,4.3-5.7,4.5-2.4.2-5.6-.7-6.6-3.1l-4.9-11.9c-3-8.8-5.5-17.5-7.2-27.1,1.9,2.3,3.8,4,6.5,4.5.7.1,1.8,1.4,2.3,1.9.4-1.4.9-2.5,1.9-3.2,2-1.5,2.3-4,1.8-6.4-1.3,2.5-3.1,3.8-5.7,4.1-3.2.1-6.1-1.7-7.5-4.6-1.1-6.5-2-12.9-2.2-19.9,1.4,2.4,2.2,5.1,5.1,5.9,1.6.4,2.5,1.1,3.4,3l1.3-2.7c2.7-1.4,3.9-4.1,3.2-7.2-1.2,2.3-3,3.6-5.4,3.7-3.7.3-6.9-2-7.9-5.6-.7-9.7-.1-19.1,1-28.7,1.8-15.8,5.8-32.8,12.3-47.2,1.5,4.6,5.3,7.1,9.8,6.6,2.2-.3,4.1-1.4,6.2-2.6-9.7,20.7-13.5,42-12.6,64.4,1,.7,2.1,1.4,3.2,2.1,0-1.1-.2-2.1-.2-3.2-.7-11.2.3-21.9,2.5-32.7,2.7-13.4,7.5-25.9,14.5-37.6,7.1-11.9,16.3-21.9,27.4-30.2,10.3-7.7,21.6-13.5,34-17,3.3-1,6.6-1.7,10-2.3,1.9-1.2,3.9-2.4,5.9-3.5-4.6.5-9.2,1.3-13.8,2.4-9.4,2.3-18.1,6-26.5,10.7-.3.2-.8.3-1,.3-1.5,0,2.3-3,1.4-6.1-.8.5-1.6,1-2.2,1.1-.8.1-1.6-1.3-1.3-2.1,2.6-5.6,0-11.9-5.8-13.9-2-.7-4-.7-6.3-.9,6.7-2.9,13.2-1.3,18.6,3.6,1.6,1.5,4.5,1.3,5.4-.8,1-2.3,0-4.9-2.1-6.3v-.7c.1,0,6.4,1.2,6.4,1.2,5.6,1.6,11.2-.7,14-5.8,2-3.6,2.7-8,.2-11.6-.9,5.7-5.8,9.1-11.1,7.4-2.9-.9-5.6-.5-8.4.7l-7.6,3.2c1.1-2.1,2.2-3.4,1.5-5.6-.4-1.1-1.7-1.9-2.7-1.9-4.6-.3-2.7,3.8-5.6,6.8s-3.2,2.6-5,3.8l-11,7,8.2-11.2c2.6-3.5,5.2-6.8,8.6-9.5,3.7-3,9.7-5.4,11.8-2,.3.5.4,1.6,0,2-.3.4-1.4.6-2.1.7-.2.5.2,1.8.8,2.1.6.4,1.8.6,2.7.5,2.4-.5,3.7-2.6,3.6-4.7,0-2.2-1.7-4.1-4-4.8-3.8-1-7.3.6-11.2,2.5,4.3-5.1,13.7-12,20.5-11.5,2.5.2,4.4,1.9,5,3.8.8,2.5-.2,4.9-2.5,6.3,1.9,1.8,4.4,1.6,6.4.4,3.7-2.2,5.6-6.3,4-10.4-.6-1.7-2.1-2.9-3.9-4.1,5-2.2,10.7-2.2,15.9.1,6.6,3,13.8,2.2,17.8-3.7,2.5-3.7,3.4-8.3,1.9-12.8-1,5.5-5.2,9-10.7,8.5-2.3-.2-4.7-.9-6.9-1.8-3-1.1-6.2-1.3-9.2,0l-7.8,3.7,2.4-4.2c1.2-3.1-.2-6.2-3.2-7.6-3.2-1.5-7.1-1-9.9,1.5,2.5.9,3.5,3.3,2.8,5.8-1,3.4-3.4,6.2-6.2,8.4l-10.3,7.9c-4.1,3.2-7.5,6.8-11,10.8,1.8-5,5-8.9,8.4-12.7,1.6-2,1.9-4.8-.1-6.5-.8-3,.7-5.9,3.6-6.9l2,.4c.4,0,.6,1.3.3,1.5l-1,.9c-.2.2.4,1,.7,1.2.5.3,1.9.4,2.4,0,.5-.3,1.2-1.3,1.3-2,.6-2.6-1.2-5-3.7-5.8-4-1.3-8.5-.2-11.6,2.6-2.8,2.5-3.6,6.2-2.7,9.8.4,1.6.6,3.2.3,5.1-1.5-1.9-3.2-3.2-5.5-2.5-1.5.5-2.5,2-2.7,3.3-.3,1.7.3,2.9,1.4,4.3,4.1,5,.4,15.3-3.6,21.1,1.3-6.5.2-12.3-3.2-17.5-3.3-5.1-6.6-11.7-2.6-15.9-3.1-1.5-6.1.8-6.7,3.9-2.3-2.4-5.5-1-6-4.6-2.8,1.9-3.6,5.6-2,8.4.7,1.3,1.8,2.3,2.9,3.7l-7.7-1.1c-6-.8-10.8,2.8-12.4,8.4-.6,2.1-2.3,3.8-4.1,4.3-2.4.7-4.3-.3-6.2-2.1.5,4.7,4.8,7.4,9.3,6.6,3.4-.7,5.9-3,8.3-5.6,0,1.9.7,3.4,2.1,3.9,1.3.4,3.8,0,4-1.6.2-1.6.5-3.1,1.6-4.2,1.6-1.6,3.7-2.5,6-2.5-1.7,2.3-1.8,5.3,0,7.3,1.6,1.7,4.2,2,5.8.4l-.2-1.9c.3-1.4,1.5-2.3,2.6-2.5,1.4-.2,2.9.3,3.8,1.6,5.8,8-1.8,22.7-8.8,29.7-.2-2.5-1-4.5-1.9-6.5,1.2-1.9,2.2-4,1.3-6.2-2.2-5.8-10.3-5.1-16.4-3-6.2,2.2-11.7,5.3-17.2,8.9-9.4,6.1-18.1,12.8-27,19.8-6.7,5.2-12.9,10.4-19.1,16.1-8.1,7.5-14.2,16.1-19.2,26,3-12.1,7.8-23,13.6-33.8,8.5-16,19.2-30.5,32.2-43.1,7.4-7.1,15.1-13.6,23.4-19.5,0-1.3.2-2.6.5-3.9,0,0,0,0,0,0-2.2,1.5-4.3,3-6.4,4.6-9.3,7.1-18,14.6-26,23.2-18,19.2-31.4,42.6-39.2,67.7-6.3,20-9,40.2-8.4,60.1.1.2.3.5.4.7,0,0,.3.4.4.5.2.2.3.4.5.6.5.5.9,1,1.4,1.5.1.1.3.2.4.4-.9-18.8,1-37.5,6.1-55.7.2-.6.9-1.3,1.2-1.8,10.1-15.1,20.8-25.7,35.3-36.6h.7c-1.2,2.7-2,5.3-2.3,7.8.6.2,1.2.4,1.8.6.5.2,1.1.3,1.6.4,0-4.7,2.1-9.6,5.4-13.5-1.3,3.6-2.6,6.9-3,10.5,0,1.2,0,2.4.1,3.6.5.1,1,.2,1.6.3.8.2,1.6.3,2.4.4,0,0,0-.1,0-.2-2.4-9.8,6.3-20.6,14-26.8,6.2-5,12.8-9.2,19.8-13,3.8-2,7.5-3.5,11.6-4.5,3.6-.9,7.3.8,7.1,3.7,0,.8-.8,1.9-1.8,2.2-.5.1-1.4,0-1.7-.3-.3-.3-.6-1.5-.3-1.8.4-.4,1.1-.7,1.8-1-.2-.5-1.1-1.3-1.6-1.3h0c-.6,0-1.7.4-2.1.8-1.5,1.4-1.5,3.4-.7,5,.9,1.7,2.8,1.8,4.7,2.2,1.9,1.9,2.6,6.9.5,8.9-1.2,1.1-2.9,1.8-3.5,3.3-2.2.5-4,1.6-4.2,3.9-.2,2.2,1,4.1,2.9,4.8,2,.8,4.3-.2,5.3-1.9,1.2-2.1.7-4.4-1.3-6.2.6-.5,1.9-1,2.7-1,2.8.3,4.3,4.7,4.8,8.2.3,2.6.3,5.3,0,8.1.7-1,1.3-2.1,1.8-3.2.2-.5.4-.9.5-1.4.4-1.3.8-2.6,1-4-.5-2.6-1.4-5.2-2.7-7.5-1-1.1-2-2-3.2-2.8,3.5-2,7.6-2.5,9.1.3.2.4.2,1.9-.3,1.9h-1.9c-.5.4-.3,2.1.4,2.5,1.7,1.2,3.6.7,4.7-.9,1.6-2.3,1-5.4-1.2-7.1-1.9-1.4-4.2-1.6-6.8-1.4,5.2-4.6,14-8.9,20-5.8,2.8,1.5,4.1,5,2.2,7.6-.5.8-1.8,1.1-2.6.9-.9-.2-1.3-1.5-1.3-2.6-2,0-3.5,1.9-3.6,3.7-.2,2.1.7,4,2.7,4.8-1.4,1.3-2,3.6-.6,4.9,1.6,1.7,4.4.4,5.4-1.3,1,.8,1.8,1.2,3.4,1.9-9.4,5.9-17.6,13.1-25.4,21.4,1.2-4.5,2.1-9.2,2.2-13.8-.4,1-.9,1.9-1.5,2.8-.8,1.3-1.8,2.4-2.9,3.4-1.5,7.9-5,15.7-9.2,21.9-2,2.8-4.4,5.2-7.3,6.7-3.3,1.6-6.9.8-8.9-2.3-1.7-2.6-1.6-5.6-1-8.7-4.8,4.2-11,7.2-15.6,3.6-1.6-1.2-2.6-3.5-2.7-5.9-.1-3.4,1.6-5.8,3.6-9-2.9,1.2-5.5,2.4-8.5,2.3-2.9,0-5.3-1.3-6.8-3.5-1.5-.2-3-.4-4.5-.7.4,1,.8,2,1.5,2.9h0c1.9,3.1,5,4.4,9.2,4.9-3.7,2-8.2.5-11-2.8-1.4-1.8-2.2-3.7-2.5-5.7-1.3-.3-2.6-.7-3.8-1.1,0,3.9,1.3,7.5,4.3,10.6,3,2.9,6.7,4.1,11.2,3.2-1.4,4.9.2,9.3,4.1,12-11.6,6.2-22.9,14.6-28.6,26.1-2.1,4.3-3.2,8.7-2.6,13.4.7,5.7,5.4,9.2,11.1,8.4,3.5-.5,6.5-2.3,9.2-4.7,4.2-3.6,6.9-8.2,10.2-13-5.1,28-4.1,55.8,2.6,83,4,16,10,31.3,18.3,45.4,6.1,10.4,13.6,19.3,22.7,27.6-4.4-1-8.3-2.6-12.1-4.5.4.4.8.8,1.2,1.2.6.7,1.3,1.3,1.9,2,.7.7,1.4,1.4,2.1,2.1.4.3.7.7,1.1,1,.2.2.4.3.6.5.1,0,.2.2.3.2,0,0,0,0,0,0,0,0,0,0,0,0,.7.5,1.4,1,2.2,1.4l4.2,1.3h.2c3.5.7,7.1.6,10.5-.9,3.2-1.7,4.9-4.9,5.4-8.5l.3-2.6c1.9,4.2,1.4,9-2.1,12-3.9,3.3-9.8,2.6-14.3.5h-.6c4,5.4,10.4,9.4,17.1,12.9,5.3,2.7,10,5.9,14.9,9.2l9.8,6.6c5.5,3.7,11.7,6.2,18.5,7-4.3-2.5-7.9-5.5-10.7-9.5l-6.1-8.9c-5.9-7.8-14.7-12.1-24.5-11.7-2.4,0-4.6,0-6.9-.4,5.5-1.2,9.3-4.7,9.7-10.2.1-1.9-.3-3.6-.7-5.7,2.3,2.2,3.8,4.6,5.3,7.4,6.9,12,19.5,17.4,33,14l9.4-2.4c8.5-2.2,18.7.6,23.8,8.3.8-3-.5-5.8-2.4-8.1-5.6-7-16.9-9.3-25.9-9.9ZM135.1,126.2c-.6.3-1.7.4-2.3.2-.6-.2-1.2-1.7-.9-2.3l1.4-2.3.3,1.9c0,.3,1.2.2,1.8.5.5.3.1,1.8-.3,2ZM95.4,155.6c-.4,4.8,1.4,8.9,5.5,10.9,2.4,1.1,4.8.8,7.8.7-3,1.9-7.1,2.2-10.4.2-4.2-2.5-5.1-7.8-2.9-11.8ZM89.8,201.5c-3.5,5-9.9,11.1-15.3,8.8-2.4-1-3.5-3.7-3.5-6.3-.2-11.9,14.6-26.5,26-31.5l-8,7.7c-5.1,4.9-12.5,14.8-12.6,21.7,0,.9.6,2.1,1.2,2.5,2.6,1.7,7.3-3.3,9.8-6.7,3.1-4.3,5.5-8.9,8-13.6,2.2-4,3.3-8.4,6.2-12.3-.9,4.8-2.4,9.1-3.8,13.6-1.9,5.8-4.5,11.2-8,16.1ZM145.5,357.7c-4.4-2.5-7.8-5.6-11.2-9.1-8.8-9-15.7-19.3-21.4-30.6-8-15.9-13.2-32.7-16.1-50.2-2.3-13.7-3.3-27.2-2.5-41.1,1-18.8,4.5-37,11-54.6l4.5-2c-16.5,42.7-16.1,90.4.1,132.9,7.6,20,21.7,42,39.4,54.2-1,.4-2.9,1.1-3.8.5Z"/>
        <path d="M323.9,347l-3,3c-.7-1.4-1.9-2-3.3-1.5-1.2.4-2.4,1.4-3,2.5-1.7,3.2-4.5,5.6-8.3,6.2,1.6-2,1.8-4.5.2-6.2-1.3-1.4-4.7-2.1-5.6,0-.6,1.3-.4,2.8-2.2,3.4-2.1.7-4.5-.2-5.6-2.4-3.2-6.2,2-15.6,6.6-20.9.6,1.9,1.5,3.2,2.5,4.5-.6,1.2-1.3,2.8-.8,4.4.3,1.1,1.5,2.5,2.9,3.2,7.7,3.6,20.4-3.2,29.9-10.2,0,0,0-.2.1-.2,0,0,0-.1,0-.2,0-.1.1-.3.2-.4.1-.3.2-.6.3-.8.4-1.1.7-2.2,1-3.4,0-.3.1-.6.2-.9-4.7,4.3-10.1,8-15.3,10.8-4.3,2.3-11,4.8-15.2,3-1.5-.7-2.2-2.1-1.7-3.5.1-.4,1-1.1,1.4-1,.4,0,1.2.7,1.3,1.1.2.5-.3,1.2-1,1.9,0,.2.8.7,1.1.7s1.2-.4,1.5-.7c1.1-1.2.9-2.9.2-4.1-.8-1.5-2.4-1.2-3.9-1.6-1.8-.5-2.4-3.1-2.5-4.6-.2-2.1.8-3.8,2.4-5.2,2.2,0,3.8-1.8,3.8-4,0-1.9-1-3.6-2.6-4.2-1.8-.6-3.6-.1-4.8,1.3-1.7,2-1.5,4.9.9,6.4-.9,1.4-2.6,1.7-4.1.7-3.5-2.6-4.4-10.6-3.9-15.8.5-5.4,2-10.5,4.3-15.3,0-1.4,0-2.8,0-4.2,0-1,0-2,0-3l-8.1,12.4c-7.2,9.8-15.7,18.4-26,25-2.2,1.4-4.5,2.7-6.7,3.9,1.1,0,2.2-.2,3.2-.3.8,0,1.5.1,2.1.5,4.1-2.4,8.1-5.2,12-8.4-1.9,3.9-.5,7.1-1.6,11.2-.6-.8-1.3-1.6-1.9-1.8-1.1-.2-2.1.3-2.6,1.2-1.4,2.3-.5,5.1,1.7,6.4.4.2,1.3,1,1.3,1.5,1,5.7,5.8,7.3,11.7,6.6-1.9,1-3.8,2-5.9,2.5-6.3,1.5-13.8-1.5-14.3-6.2-.1-1.3.6-2.3,1.7-3.7-1.7-.6-3.4-.4-4.9.5-1.1.8-2.2,2.4-2.3,4.1-.2,3,1.5,4.9,3.8,6.9l-6.2-1.6c-2.3-.6-4.9-1.1-7.2-.2-6.8,2.7-11.3,11.4-7.3,17.5.4-5,4.3-8.4,9-7.8,2.2,1.8,5.1,1.8,7.7.6l8.2-3.1c-.7,1.2-1.5,2.2-1.7,3.2-.4,1.8.6,3.1,1.9,3.8,1,.6,3.4.4,3.7-1.1-1-3.3,1.7-5.9,5-7.6l9.2-5-4,4.2c-1.3,1.4-1.7,2.9-1.1,4.8l-3.9,5.3c-2.8,3.8-10.4,7.7-13.6,4.2-.3-.4-.5-1.7-.2-2,.3-.4,1-.5,1.9-.8.2-.4-.7-1.5-1.4-1.7-1.5-.4-2.9.2-3.7,1.2-.9,1.1-1,2.9-.4,4.3.9,2,3.1,2.8,5.3,3,2.9.2,5.3-1,8.3-2-4.3,5.5-12.5,10.5-17.9,6.7-1.8-1.3-2.3-3.8-.6-5.2l.7-.6c.6-.5-3.9-2.2-7,1.4-1.7,2-2.1,4.8-.8,7.2,1.1,2,3,3,5.4,4-2.3,1.2-5.2,2.7-8,2.2l-4.4-.9c-1.6-.3-2.9.5-3.7,1.8-3.4-.4-6.9-.6-10.2.8-5.3,2.2-8.6,7.9-6.7,13.5,1.8-6.1,7.4-7.5,13.6-6.5l6,1c3.8.6,7.4-.9,10.2-3.4l6.5-5.6c-1,2-2.3,3.4-2.8,5.4-.7,3.2,1.4,5.8,4.5,6.2,2.8.4,5.7,0,7.8-2.5-4.2-1.5-3.1-6.6-.6-10.7,2.4-4,5.4-7.2,8.4-10.8l5.1-6.1c-.6,4.4-4.3,7.3-3.6,11.3.3,1.8,1.7,2.3,2.9,3.2,1.3,1.1.6,3.9-.2,5.1-1.1,1.7-3,2-5.4,2,.4,1.1,1.4,2,2.4,2.2,2.8.8,5-.3,7.3-1.7,4.1-2.6,5.8-7.3,3.4-11.7-.9-1.6-1.5-3.4-1.7-5.5,1.6,1.5,2.8,2.5,4.8,2.2,1.6-.2,3.1-1.6,3.3-3.4.3-1.7-.5-3.1-2.2-3.6-5.1-7.1-2.1-15.5,3-22.5-.3,3.1-1,5.5-.6,8.3.6,3.6,2.3,6.6,4.4,9.5,3.2,4.6,5.2,9.7,1.8,13.9,1.9.5,3.3.4,4.7-.7,1.1-.8,1.8-2.3,2.2-4.1,3.2,2.6,5.9.7,6.4,3.8,1.9-1.8,2.3-4.4,1.9-6.8-.4-2.2-2.1-3.8-4.3-5.2h8.6c5.8,0,10.4-3.5,11.9-9,.6-2.1,2-4,3.9-4.9,2.7-1.3,5.2.5,5.1.1l-.2-.7c-1.2-3.4-8.2-3.9-11.9-.2ZM302.9,318.9h0c.5-.4,1.8-.6,2.4,0,1.2,1.3.6,3-.5,4.2l-.2-1.9c0-.4-.9-.2-1.5-.2-.7,0-.7-1.7-.2-2.2ZM278.1,341.3c-2-.7-3.2-2.4-3.3-4.3,0-1.9.9-3.7,3-4.4.5-.2,1.8,0,2.2.3.5.4.9,1.5,1,2.3,2.1-.4,3.3-2.4,3.3-4.2,0-2.1-1.2-3.6-3.6-4.4,2.5-1.8,4.7-3.4,5.3-6.3.5-2.2-.6-4.8-3-4.8-1.8,0-3.5,1.3-4.5,2.8l-1.5-1.2c5.1-4.6,9.7-9.7,14.2-15.4-.5,4.2-1.2,7.9-.8,11.8.6,5.8,3,13.2,8.7,14.2-2.3,2.1-4.7,3.5-6.8,2.2-.4-.2-.8-1.4-.5-1.7.6-.5,1.3-1.1,1.1-1.6h0c-.2-.4-1.2-.9-1.7-.8-1.5.3-2.3,1.5-2.5,2.6-.2,1.4.2,2.8,1.2,3.8,1.5,1.3,3.4,1.1,5.6.8-3.9,5.2-11.8,10.6-17.5,8.6Z"/>
        <path d="M162,398.5c1.1,0,2.2,0,3.2-.1.8,0,1.7-.1,2.5-.2-2.8-.8-5.6-1.7-8.4-2.7-32.7-11.5-62-32.5-83.6-59.5-21.9-27.4-36.5-62.9-40.2-97.8,0-.3,0-.7,0-1-1.1-.8-2.1-1.6-3.2-2.4,2,22.9,8.4,45.4,18.8,67,18.7,39,50.2,69.8,89.1,88.5,6.9,3.3,13.9,6.2,21.1,8.6.2-.2.5-.4.9-.4Z"/>
        <path d="M205.3,32.5c-3.8-.2-7.5-1.5-10.7-3.7l-9.1-6.6c-5.9-4.3-14-6.6-19.8-2-5,3.9-7.6,12.7-2.9,16.6,1.8.8,3.4.8,5,.3,1.6-.7,3-1.8,3-3.7,0-.5-.7-1.6-1.2-1.7-.6,0-1.6.8-2.1,1.2-1.4,0-1.7-2.3-1.1-3.5,1-1.9,2.6-2.9,4.6-2.9s3.9,1,4.8,3c1.3,2.9.2,6.1-2.1,8.2-3.6,3.3-8.6,4.4-13.4,2.8-1.7,4.5-4.5,3-8.3,4.2l-6.8,2.3c-1.1.3-2.2.5-3.3.3-11.9,12.5-26.8,2.7-37.2,3.5-5.9.5-10.9,4.1-12.4,9.7-.7,2.6-.6,5.3.8,7.6,1.1,1.8,3,2.6,4.9,2.2,1.8-.4,3.6-2.1,3.5-4.2,0-.4-.6-1.4-.9-1.5-.4-.2-1.3,0-1.8.2l-1,.5c-.3.1-.6-.8-.7-1.1-.4-1.9.8-3.8,2.6-4.5,2-.8,4-.4,5.5,1.4,1.5,1.7,1.7,4.3.7,6.6-1.8,4.2-6,7-10.4,7.3.2,3.3-2.3,4.8-5.1,5.7-1.8,2-3.7,4.2-5.9,5.8-1.7,1.3-3,2.6-5.1,3.4,2.8-4.1,4.3-8.1,4.2-12.9-.2-8-.6-14.6,4.2-21.3,3.9-5.5,10-8.5,16.8-8.6,8.5-.2,15.8,3.6,23,3.6,4.2,0,8.1-1.4,11-4.2,3.5-3.4,4.2-8.6,1.4-12.5-1.2-1.7-3.6-1.9-5.4-1.4-2.8.8-5.1,2.8-5.6,5.7-.3,1.6.7,3.3,2.3,3.5,1.4.2,2.6-.9,3.5-2.6.6.4,1,1.6.7,2.4-.9,2.8-3.5,4.3-6.3,4.2-2.6,0-5-2-5.7-4.8-1.2-4.6.9-9.2,4.7-12,2.7-1.9,6-2.7,9.3-1.7,2.9.8,5.3,3,6.7,6.2,2,4.4.9,9.2-1.8,13.4,6.4-3.1,7.7-10.3,9.5-16.9,3.3-12.4,16-19,28-14.7,8.8,3.1,13.4,9.6,20.3,12.8,3.8,1.8,8.3,1.9,11.7-.4,2.7-1.8,3.6-5,2.7-7.9-.9-2.8-3.6-5-6.8-4.8-2,.2-3.9,1.3-4.2,3.3-.2,1.2.4,2.7,1.3,3.1,1.1.5,2.4-.1,3.4-.9.9,1.4-.1,3.2-1.8,4-2.6,1.2-5.8.2-7.4-2.5-2.3-3.8-.9-8.8,2.8-11.3,3.2-2.2,7.3-2.5,10.9-.6,3.1,1.6,5.4,4.9,5.7,8.9.5,7.7-5.4,13.8-13.3,13.4h0Z"/>
        <path d="M57.9,322.4s0,0,0,0c0,0,0,0,0,0,0,0,0,0,0,.1Z"/>
        <path d="M54,314.6l-2.2-2.7c-.2-1.3-.5-2.4-1.2-3.2-.8-.8-2-1-3.2-1,1.7-4.6-.4-9.7-4.8-11.6-2.1-.9-4.5-.6-6.1,1s-1.4,2.9-.8,4.3c.7,1.8,2.5,2.9,4.6,2.1.4-.2-1-1.9-.1-2.8.3-.3,1.2-.4,1.6-.3,2,.5,2.9,2.7,2.6,4.6-.3,1.6-1.8,3.1-3.7,3.4-3.3.5-6.6-1-8.8-3.6-2.8-3.4-3.8-8-2.7-12.4,2.4-9.8,12-18.6,3.4-29.8l-.2-.2c-.5-.5-1-.9-1.5-1.3,0,0,0,0,0,0-3.1-1.9-6.4-2.8-9.9-1.6-3.9,1.4-6.1,5.3-5.7,9.2.4,3.9,3.3,7.2,7.3,7.7,2,.2,3.8-.4,5.1-1.7,1.1-1.1,1.7-2.9,1.3-4.6-.5-1.9-2.1-3.1-3.8-2.4l.7,2.3c.2.6-1,1.8-1.7,1.8-.7,0-1.8-.3-2.3-.8-1.7-1.6-1.7-4-.8-5.9.8-1.8,2.8-2.9,5-2.7,6.1.5,8.4,9,6.3,13.5l-3.9,8.9c-1.9,4.4-3.3,9-2.8,13.8,1.1,9.7,8,16.9,17.6,18.3l8.1,1.6c.2,0,.5.1.7.2.3,0,.6.2.8.3.2,0,.5.2.7.3.2,0,.3.1.5.2.2,0,.4.2.5.3.3.2.6.3.8.5.4.3.8.6,1.2.9.2.2.4.4.6.6.2.2.5.5.7.8,0-.3.2-.7.2-.8h0s-4-6.9-4-6.9Z"/>
        <path d="M76.4,76.2c-3.1-2.8-7.5-2.9-10.9-.5-3.8,2.6-5.8,7-4.5,11.4.8,2.5,3.2,4.3,5.6,4.1,2.5-.2,4.8-1.8,5.3-4.5.1-.7-.4-2-.8-2.2l-1.7,1.9c-.4.4-2.1.3-2.4-.1-1.5-2-.6-4.5,1.1-6.1,2.1-1.9,5-2.1,7,0,2,2.2,2.3,5.3,1.2,8-4.2,10.3-18.4,8.6-28.7,13.9-6.4,3.4-10.5,9.6-10.2,16.9.4,9.2,8.6,15,6,23.1-.5-4.8-2.7-8.6-7-10-4.5-1.5-9,.8-11,5-1.4,2.9-1.4,6.3.7,8.8,1.5,1.7,3.6,2.6,5.8,2,1.9-.5,3.7-2,3.9-4.3.1-1.2-.6-2.5-1.5-2.3-.4,1.2-1.2,2.3-2.3,2.3-1.2,0-2.1-1.1-2.2-2.4-.2-3.2,2.9-6,6.1-5.3,2.6.5,4.2,2.9,4.4,5.5.2,3.5-1.5,6.7-4,9-4,3.6-9.1,5.1-13.8,8.2-6.1,4.1-9.8,11.1-9.3,18.5.4,6,3.6,10.7,7.9,14.7,2.9,2.7,5.5,5.6,6.1,9.8-1.6-1.9-3-3.7-5.1-4.8-4.9-2.6-10.5-.7-12.5,4.5-1.6,3.9-.2,8.6,3.7,10.6,1.7.9,3.9.8,5.5-.2,2.5-1.6,3.2-4.7,1.8-6.4-.3-.4-1.4-.5-1.8-.4.2,1.4,0,2.4-.9,2.8-1,.4-2.3,0-2.9-.9-1.2-2-.6-4.3.9-5.8,1.6-1.6,4-1.9,6-.8,2.3,1.3,3.5,3.6,3.6,6.3.1,3.4-1.4,6.5-3.8,8.9l-7.7,7.6c-5.7,6.1-6.8,14.8-2.3,21.9,1.2,1.9,2.8,3.6,4.5,4.9.2,0,.3.1.4.3,0,0,.1.1.2.2,1.8,1.3,3.8,2.5,5.9,3.4.5.2,1.1.5,1.6.8.6,0,1.1.2,1.7.4.3,0,.5,0,.8.1,1.3.2,2.6.5,4,.7.1,0,.2,0,.4,0v-.5c-.1,0-2.1-4.9-2.1-4.9.4-1,1-2.5.4-3.6-.5-.8-1.5-1.5-2.6-1.9,2.7-3.6,2.9-8.2,0-11.4-1.8-2-4.5-2.9-7-1.6-1.1.6-2,2-2.1,3.1-.1,1.3.5,2.6,1.6,3.5.5.4,2,.3,2-.2,0-.9.3-1.9.8-2.1.4-.1,1.5.1,1.8.4,1.3,1.3,1.5,3.2.5,4.9-.6,1.1-2.5,2.2-4.2,2-5.9-.8-9-6.8-7.3-12.4,2-6.4,7.6-9.3,11.7-14.5,3-3.8,4.4-8.6,2.8-13.2-.3-1,0-1.4.1-2.3.8-3.3.5-6.8.6-10.2.9-1,1.6-2.2,1.2-3.6-.2-.9-1-1.8-2.3-2.7,2.5-1,4.2-3.4,4.8-5.8.7-2.9.3-5.7-1.7-7.9-1.1-1.2-2.7-1.9-4.2-1.7-1.3,0-2.7,1-3.4,2.2-1.1,2-.3,4.8,2.1,5.2,0-1,.2-2.2.8-2.5.5-.2,1.7.2,2.1.7,1.4,1.9.9,4.3-.8,5.6-1.6,1.3-3.9,1.4-5.7,0-3.5-2.6-4.6-7.5-3-11.6,2.2-5.7,6.4-8.1,11.7-10.7,7-3.5,12.4-7.5,13.2-15.5l1-.5c1.5-2.6,3-5.7,3.5-8.8.2-1.4.5-1.9,1.6-2.7,1.9-1.2,2.4-3.7.6-5.5,3.9-1.3,6.8-4.5,7-8.8,0-2.3-.9-4.5-2.9-5.6-1.5-.8-3.4-.7-4.7.3-1.1.8-1.9,2.3-1.7,3.9.1.8,1.4,1.9,1.8,1.5.6-.7,1.2-1.4,2-1.5.7,0,1.5,1,1.6,1.7.2,1.9-.7,3.4-2.1,4.2-1.6.9-3.5.8-5-.3-3.2-2.4-3.8-6.8-2-10.4,4.7-9.2,18.3-7.3,27.9-12.9,4.1-2.4,7.3-6.3,8-10.9.6-3.9-.6-7.6-3.4-10.2Z"/>
        <path d="M97.7,366.7c-8-4.1-14.2,0-22.2-1.4-7.9-1.3-13.5-7.4-14.2-15.4-.7-8.1,2.5-14.9-1.4-21.6-1.6-2.8-4.3-4.8-7.6-4.7-2.5,0-4.3,2-4.5,4.1-.2,2.5,1.4,4.7,4.1,5,.8,0,2-.8,2.1-1.5,0-.6-.6-1.6-1.3-2.3.9-1.1,3-.7,3.8.6,1,1.4,1.4,3,.7,4.7-.6,1.4-2,2.6-3.7,3.1-3,.8-5.8-.4-7.8-2.4-2.2-2.2-3.1-5.4-2.2-8.4,1-3.3,4.1-5.3,7.6-5.6.2,0,.5,0,.7,0s.5,0,.8,0c.2,0,.4,0,.6,0,.2,0,.4,0,.6.1.1,0,.3,0,.4.1.1,0,.3,0,.4.1.2,0,.3,0,.5.1.2,0,.3.1.5.1.2,0,.5.2.8.3,0,0,0,0,0,0,.5.2,1,.4,1.5.5,0,0,0,0,0,0,0,0,0,.1,0,.1l.8.7c3.7,3.1,5.8,7.4,6.1,12.3l-.3,9.8c-.1,3,0,6,1.4,8.6,2,4,6.4,6.4,10.6,5.3,2-.5,3.3-2,3.4-3.7,0-1.9-1.2-3.6-3.2-3.9-.5,0-1.7.6-1.7,1.1,0,.5.4,1.2.9,1.8-1,1.4-3.4,1-4.4-.6-.9-1.3-.9-3,0-4.4.7-1.1,2.3-2.1,4-2,4.5.2,8.2,4.2,8.3,9,4.5-1.6,4.3,1.9,7.3,3.8,2.6,1.7,5,3.5,6.8,6.3h0Z"/>
        <path d="M388.6,328.1c-1,2.7-2.9,5-5.1,7.1-4,3.9-9.2,5.7-14.6,7.3l-9.9,3c-3.9,1.7-7,5.1-7.5,9.3-.3,2,.6,3.9,2,4.8,1.7,1.1,3.6,1.1,5.3,0,1.6-1,2.6-2.4,2.4-4.4-.1-1-1.1-2-2.1-1.9-.9.1-1.6,1.1-2,2.3-.9-.3-1.4-1.6-1.1-2.7.8-2.4,3-3.7,5.4-3.5,2.1.2,4.1,1.9,4.6,4.4.6,3.2-.8,6.2-3.2,8.2-2.4,2-5.8,3.1-8.9,1.8-4.3-1.8-5.7-6.4-4.8-11-1.8,1.7-2.9,4.1-2.9,6.5v7c.2,5.8-1.2,11.4-5.2,15.7-7.8,8.4-18.1,8.4-29,7.6-4-.3-8,0-11.7,1.5-4.1,1.8-7.4,5.4-5.8,8.7.4.9,1.5,1.8,2.7,2.2,2.5.8,5.5-.3,6.7-2.7.4-.9.1-2.2-.6-2.6-.6-.4-1.9,0-2.5.4l-.8.7c-.2.2-.7-.9-.7-1.2.2-1.6,2.5-3.3,4.2-3.4,2.2-.1,4.2.6,5.3,2.7,1,2,.5,4.3-.8,6.1-2.3,3.2-6.4,4.9-10.3,4.3-4.3-.7-7.1-4.7-6-9.1,1.6-6.5,9-9.8,15.4-10.5,8.4-.9,15.8,1.9,24-1.5,3.5-1.5,6.4-4,7.5-7.6.8-2.5.4-5.3-1.8-6.8-2.3-1.6-5.7-.4-6.8,2.1-.2.5,0,1.5.3,1.8.4.3,1.3.1,1.7,0l1.1-.4c.5-.2,1.5,2.7-1.1,4.4-1.5,1-3.3,1.1-4.8.1-1.3-.9-2.1-2.8-1.7-4.7,1.1-4.7,5.7-7.9,10.8-7.6-.9-2-.4-4,1.5-5.1l2.4-1.4c2-3.4,5.8-7.2,9.3-8.4l1.6-3c3-4.4,7.6-6.8,12.7-8.2l10.1-2.9c7.3-2.9,12.8-10,9.1-16.2-1.1-1.9-3.1-2.9-5.1-2.6-2,.2-3.8,1.5-4.2,3.7-.2.9.2,2,1.1,2.3.7.2,1.8-.6,2.3-1.4,1.3-.2,2,1.6,1.8,2.9-.5,2.5-2.9,3.9-5.2,3.6-2.3-.3-4-2.5-4.1-5,0-4.6,3.1-8.5,7.7-9.8-1-.9-1.5-2-1.2-3.3.2-1,1.4-2,2.3-2.6.4-1.9.6-3.9,1.5-5.5l2.9-5.5c-.2,4.4.9,7.8,3.3,11.2,3.8,5.5,5.1,12.2,2.7,18.5h0Z"/>
        <path d="M292.6,393.9c-2.2,1.9-3.9,4-4.8,6.7l-2.4,7.4c-1.9,5.8-7,9.8-13,10.5-2.3.2-4.7-.4-6.1-2.4,2.6,1,5.4.8,7.8-.6,2-1.1,3.8-3.5,4-6.2.2-2.1-1-3.8-2.7-4.4-1.8-.7-4.1,0-5,1.9-.2.4,0,1.6.5,1.8s1.2-.2,2-.4c.6-.2,1.1,1.5.8,2.1-.7,1.3-1.8,2.1-2.9,2.2-1.5.2-2.9-.3-3.7-1.5-1.1-1.6-1.1-3.7-.1-5.4l-.4-.5c-1.5.8-3.1,2-4,3.6l-3.2,5.9c-1.8,3.4-4.2,6-7.6,7.7-8.3,4.2-17.8,3-25.1-2.9-2.7-2.2-5.3-4.3-8.5-5.8-6-2.9-12.7-1.1-13,3.5,0,1.8,1.2,3.3,2.4,3.8,1.8.9,3.7.9,5.2-.6.4-.4.5-1.5.3-1.9-.2-.5-1.3-.9-1.8-.9h-1.3c-.3,0,.2-1.1.5-1.4,1.4-1.2,4.1-1,5.6.4,1.5,1.5,1.9,4.1.6,6.1-1.8,2.9-5.4,3.9-8.7,3-3-.8-5.5-3.4-5.8-6.9-.2-3,1.6-5.2,3.7-7.4-2.7,0-4.4,1.5-5.9,3.2l-4.6,5.2c-3.1,3.5-8.1,4.5-12.9,4.1-7.3-.7-13.3-5.1-17.4-11-2.1-3.1-4-6.2-6.7-8.6-4.8-4.4-11.8-4.7-13.1-.8-.7,1.9,0,3.8,1.5,5,1.9,1.4,4.2,1.7,5.5.2.3-.3.2-1.6,0-1.8-.6-.4-1.8-.7-2.6-.9.2-1.1,1.4-1.7,2.5-1.7,2.5.1,4.2,2,4.5,4.3.2,2.3-1.3,4.4-3.7,5.1-3.3,1.1-7.1,0-9.5-2.6-2-2.1-2.7-5.1-1.6-7.9.9-2.3,3.2-4.1,6.3-4.9-2.8-1-5.8-.1-8.7,1.1l-7.1,3c-10.7,3.1-19.9-3.7-23.3-14.3l-2.3-7.1c-1.1-3.3-2.5-6.3-5-8.7-4-3.9-9.7-3.7-11-.6-.7,1.6-.4,3.5.6,4.6,1.1,1.5,2.6,2.4,4.7,2.1.5,0,1.5-.9,1.5-1.4,0-.6-.7-1.5-1.2-1.9l-.9-.6c-.2-.2.6-.9,1-.9,2.1-.4,4.4,1.4,4.9,3.7.4,2.2-1,4.5-3.3,5.3-3.5,1.2-7.2-.1-9.7-2.9-1.9-2.2-2.5-5.1-1.5-8,.8-2.3,3.2-4.2,6.1-4.6,3.8-.6,7.4.8,10.5,3.3,3.7,3.1,5.9,7.5,7.2,12.2,1.8,6.3,4.2,13.3,10.7,15.6,2.7,1,5.6.6,7.7-1.3,1.3-1.2,1.6-3,1-4.5-.7-1.6-2.3-2.8-4.2-2.3-.4,0-1.1.6-1.2,1-.3,1.3,2.8,2.2.7,3.2-2.1,1-4.5-.3-5.1-2.5-.6-1.9.5-4.3,2.9-5,4.3-1.2,8.9,1.4,10.5,5.6,2.2-1.6,4.2-.5,5.6,1.2l6.2,2.1c1.5.5,2.7,1.4,3.8,2.6,5.3-.1,10,2.3,13.6,6.2l5.9,8c2.9,3.9,6.6,6.9,11.3,7.9,3,.6,6.2-.5,7.8-2.9,1.2-1.8,1.2-3.8,0-5.4-1-1.5-3.1-2.2-5-1.4-.4.2-.9.9-1,1.2-.2,1.4,2.1,1.2,2.2,1.8,0,.2-.2,1-.4,1.2-1.4,1.4-4.6,1-5.8-.9-1.4-2.1-.6-4.8,2-6,3.8-1.8,8.3-.5,11.1,2.6,1.6-2,4.1-2,5.8-.4,3.4-1.1,7.1-.8,10.2.9,4.7-2.3,11.9-1,16.1,2l7.1,5.1c6.8,4.9,16.4,5.1,19.6-1.2,1-1.9.8-4.1-.8-5.5-1.4-1.2-3.9-1.5-5.5,0-.3.3-.6,1.2-.5,1.6.5,1.2,3.3,0,2.3,1.9-.8,1.5-3.5,2.2-5.1,1-1.7-1.3-2.1-3.7-.5-5.6,2.8-3.2,7.8-3.6,11.6-1,2-4.2,4.8-1.4,6.9-2.5,2.8-1.4,5.6-2.5,8.5-2.1l.4.6c2.3-3,6.1-4.6,10.2-3.5.6-2.4,2.7-3.8,5.3-3.2,2.8-2.6,6.3-4.1,10.2-4.5h0Z"/>
        <path d="M345.5,58.5c-1.5-3-4.6-5.2-8.3-5.2-2.5,0-4.8,1.5-5.8,3.5-1.1,2.1-1,4.8.6,6.6.7.8,1.8,1.3,2.9,1.3.7,0,1.8-.8,2.2-1.5-1.8-.3-2.7-1.5-2.4-2.8.3-1.2,1.5-2,3-1.8,3.1.4,4.8,3.5,4.3,6.5-.5,2.8-3.1,4.8-6.1,4.5-6.8-.5-9.6-7.8-11.1-14.1l-1.9-7.9c-1-4.1-2.9-7.8-5.8-10.8-5.1-5.3-13.1-6.4-19-2l-6.2,4.5c-3.3,2.4-7.2,3.2-11,2.4v-.3c6.6-1.9,10-9.5,6.7-15.7-2.4-4.6-7.8-6.8-12.7-5-2.8,1-4.7,3.5-4.9,6.4-.2,3.2,1.8,6.1,5,6.6,1.8.3,3.7-1,3.4-2.5-1.2.1-2.8-.2-3.3-1.2-.6-1.1-.2-2.6.8-3.4,1.8-1.3,3.8-.9,5.5.3,2.4,1.8,3.6,4.8,2.7,7.6-.9,2.7-3.6,4.5-6.7,4.4-7.2-.2-12-7.2-15.7-13.2-4.8-7.9-9.8-14.9-19.5-16.3-6.8-1-13.3,1.9-16.9,7.7l-4.8,8c-1.8,3-4.5,4.4-7.8,6,3.5.4,6.7.2,10,0,1.7.7,3.4,1,5.3,1,1.3-.5,2.2-1.1,3.2-2.3,3.6,2.9,9,3.2,12.7.3,2.5-1.9,3.3-5.4,1.5-7.9-.9-1.3-2.5-2-3.9-1.9-3.2.3-4.1,3.4-3.5,3.5l1.2.2c.5,0,1.5.7,1.6,1.1.1.4-.1,1.5-.5,1.8-1.8,1.7-4.5,1.4-6.3-.2-2.3-2.2-2.5-5.5-.8-8.3,2.5-4.1,7.5-5.6,12.2-4.2,4.1,1.3,7.4,4.1,9.8,7.7l6,9.3c2.6,4,6.3,7.5,10.6,9.2.7.1,1.3.3,1.9.5.2,0,.4.2.5.3,1.9.5,4,.6,6,.1l.4.6c3.4,2.3,7.5,4,11.9,4,.3-.2,1.2-.4,1.3-.1l.4,1c.6,1.5,2,2.2,3.6,1.5,2.1,3.6,6.6,5.7,10.7,4.2,1.6-.6,2.9-2,3.4-3.1.7-1.6.5-3.6-.4-4.8-.8-1.1-2-1.7-3.2-1.7-1,0-2.4.9-2.6,1.9,1,.7,1.6,1.4,1.6,2.3,0,.7-1,1.7-1.9,1.8-2.2.4-4-1.2-4.4-3.5-.7-3.9,2.3-7.5,6.4-7.9,4.6-.4,8.7,2.5,10.6,6.8,3.4,7.5,2.5,15.4,7.6,22.3,2,2.7,4.5,4.6,7.7,5.5,4.1,1.2,8.3-.3,10.9-3.7h0c2.3-2.9,2.7-6.7,1-10.1Z"/>
        <path d="M386.1,120.9c-4.1,3.2-9.6,2.8-13.5-.5-3-2.6-4.8-6.2-5.4-10.2-1.1-7.2,1.3-13.2.9-19.8-.2-3.5-1.8-6.8-4.6-8.6-3-1.9-6.6-2.1-9.4,0-1.3,1-2,2.6-1.8,4.2.1,1.6,1.3,3.1,3,3.5.6.1,1.9-.2,2.2-.7.4-.6-.2-1.6-.8-2.4,0-.9,1.7-1.4,2.7-1.1,1.3.4,2.3,1.6,2.6,2.8.3,1.4,0,3-1.1,4.1-1.9,1.9-4.8,2.1-7.3.9-3.1-1.4-5-4.5-5.4-7.9-1.1.2-2.2.1-3-.6-.7-.6-1.1-2-1.4-3-1.6-1-3.5-1.9-4.7-3.3l-4.1-4.6c6.8,3.2,12,0,19.2,0,10.9,0,18,7.9,17.5,18.8l-1.3,10.3c-.6,4.8-.4,9.5,2.2,13.5,1.6,2.5,4.5,4.3,7.4,3.9,2.3-.3,4.1-1.9,4.6-3.6.7-2.4-.1-4.6-2.1-6-1.1-.8-2.9-.6-3.7.4-.3.3-.6,1.5-.3,1.7l1.3,1.1c.4.4-.6,1.4-1.3,1.4-2.4,0-4-2.2-3.8-4.7.2-3.6,3.3-5.8,6.9-5.6,3.6.2,6.6,2.9,7.6,6.1,1.1,3.6,0,7.4-3.1,9.9Z"/>
        <path d="M418.3,236.4c-1.3,4.7-6,7.4-10.5,6.8-4.8-.7-8.3-4.2-8.5-9.5-.2-4.3,1.3-8.3,4.3-11.2l7.7-7.6c1.9-1.8,3.2-4,4.1-6.4,1.5-4.4-.2-9.4-4.5-11.5-2.3-1.1-5-.8-6.6,1.2-1.2,1.4-1.4,3.4-.3,5,.3.5,1.7.9,2.1.6.5-.3.7-1.3.8-2.2.5-.6,2.2,0,2.7.7,1.4,2,.8,4.6-1.3,5.9-2.5,1.5-5.8.6-7.5-1.9-2.4-3.6-1.7-8.5,1.3-11.6-2.5-.2-4.2-2.1-3.6-4.6.2-1.1-.2-2-.5-3.1-1-3.4-1.6-6.9-1.9-10.6,1.8,2.2,2.9,4.3,5.1,5.6l7.3,4.3c1.8,1.1,3.5,2.2,5.1,3.6,7.5,6.7,8.2,17.7,1.8,25.4l-6.8,6.7c-2.2,2.1-4.4,4.3-5.5,7-1.2,3-1.3,6.3.7,8.7,1.7,2.1,4.5,2.7,6.8,1.5,2.1-1.1,3.6-3.8,2.6-6.3-.5-1.2-1.8-1.8-2.7-1.5-1.3.4-1.6,1.6-1.5,3-.5.2-1.5.1-1.8-.3-1.4-1.9-.6-5,1.8-6.5,1.7-1,3.8-1.1,5.6-.3,3.3,1.5,4.9,5.4,3.9,9h0Z"/>
        <path d="M388.6,300.9c1.9,1.4,4.1,1.4,6,.3,1.9-1.1,3.1-3.1,2.7-5.4-.2-1.2-1.5-2-2.6-1.8-1.2.2-1.8,1.3-1.9,2.8-.7-.1-1.4-.4-1.6-.8-.2-.4-.3-1.6-.2-2.2.5-2.6,4-4.6,6.8-4,3.1.6,5.1,3.4,4.9,6.6-.2,3.3-2.1,6.1-4.5,7.6-3,1.9-6.7,2.1-9.7.5-3.4-1.8-5.3-5.3-4.8-9.3,1-7.7,7.1-12.3,13.7-15.3,5.9-2.7,12.8-6.5,12.5-13.4-.1-3.6-2.6-6.7-6-7.2-1.5-.2-3,.1-4.1,1.1-.9.8-1.7,2.2-1.4,3.7.1.8,1.1,1.6,1.8,1.7.9,0,1.4-.9,1.9-1.9.7-.2,2,.6,2.3,1.3.4.9.5,2.2,0,3.1-1,1.7-2.6,2.6-4.5,2.6-1.6,0-3.5-1-4.4-2.6-2.4-4.1-.5-9.2,3.4-11.7-1-1-1.8-2-1.7-3.1,0-1,.8-2.1,1.6-2.9-1-3.7-.7-7.5,1-11.1,1.5,7.2,7,9,11.4,14.9,5.1,6.7,4.5,15.6-1.4,21.6-5.4,5.6-12.6,6.7-18.2,11-5.1,3.9-7,11-3,13.9h0Z"/>
        <path d="M413.7,170.4c-.4,2.8-2,5.4-4.9,7-4,2.1-8.9,1.4-12-1.9-3.1-3.2-4.3-7.6-3.9-12,.4-3.6,1.9-6.8,3.5-9.9l3.2-5.9c1.2-2.3,1.4-4.9.7-7.4-1.3-4.5-6.3-6.9-10.5-4.8-1.2.6-2.1,1.9-2.3,2.9-.3,1.5.1,2.9,1.4,3.8.4.3,1.8.3,2.3,0,.5-.4.2-1.6.1-2.4.7-.9,2.4-.4,3,.3.9.9,1.3,2.3.9,3.6-.8,3-4.4,4.1-7.2,2.7-3.8-1.8-5.2-6.1-4-10.1-2.5,0-4-1.7-3.8-4-2.6-2.7-4.5-5.8-5.4-9.3,3.2,2.5,6.4,3.4,10.1,3.6,7.2.5,14.1,1.8,17.7,8.4,2.4,4.4,2.3,9.1.5,13.3l-3.9,7.2c-1.4,2.6-2.8,5.3-3.3,8.3-.6,3.6.5,7.4,3.2,9.8,2.1,1.9,5,1.9,7.1.5,2.1-1.5,3-4.4,1.8-6.8-.8-1.6-2.7-2.4-4.2-1.3-1,.7-.5,2.3-.2,3.4-.4.9-2,.6-2.7-.2-1.8-2.3-1.2-5.5,1.3-7.3,2.6-1.8,6.1-1.5,8.5.6,2.2,2,3.3,4.9,2.9,7.9h0Z"/>
        <path d="M365.8,130.7c-5.6-2.6-10.7-5.5-15.9-8.8-8-5.1-15.6-10.4-22.9-16.4-5.9-4.8-10.7-10.3-14.5-16.9-2.9-5-6.2-9.3-10.1-13.7,8.9,3.9,16.5,9.2,23.8,15.4,6.2,5.2,11.5,10.9,17.1,16.8l22.6,23.8h0Z"/>
        <path d="M148.5,381.3c-9.4-3.1-18.2-7.6-26.7-12.9-11.3-7.1-21.9-14.8-32.1-23.3l-4.3-4,15,4.9c8.8,2.9,16.8,7.2,24.5,12.4,5.3,3.5,9.6,7.7,13.5,12.8,3,3.9,6.2,6.8,10.1,10.1h0Z"/>
        <path d="M177.7,344.9c-12,0-21-4.2-26.8-14.9,2.2,1,4.5,1.8,6.8,1.4,2.9-.4,4.4-2.4,4.4-5.4l5.8,8.1c2.8,4,6.1,7.5,9.8,10.7h0Z"/>
        <path d="M113.3,210.4l-2.9,2.7c-.3-2.1-1.2-2.9-2.7-3.7-2.2-1.2-2.5-4.2-2.3-6.4,1.2,1.8,2.9,3.2,4.6,3.5,2.5.5,4.4-.3,6.4-2.3.2,2.7-1.2,4.4-3.1,6.2Z"/>
        <path d="M120.9,294c-1.1,1.2-1.6,2.2-2.1,4.1l-1.7-1.7c-3.8.2-6.8-2.2-7.5-5.7,1.5,1.2,3.2,2,5.1,2.1,3.1.3,5.5-1.5,6.8-4.4.7,1.8.8,4.1-.5,5.6h0Z"/>
        <path d="M110.8,231.5l-2.1,2.7c-.6-2-1.3-2.4-2.7-3.1-2.4-1.2-3.3-4.1-3.3-6.7,1.6,2.2,3.3,3.6,5.6,3.7,2.4.1,4.3-1,5.8-3.4.6,2.7-.6,5.3-3.3,6.8Z"/>
        <path d="M113.1,193.1c.8-4.8,1.4-9.2.8-13.8l3,3.1,4.1-.5c-3.6,3.6-5.6,6.9-7.8,11.2h0Z"/>
        <path d="M109.1,139.3c-2.9.9-6.3-.7-7.3-3.6-1.1-3.2.4-6.8,3.8-7.9,3.4-1.1,6.6.9,7.5,4.1.9,3-.8,6.4-4,7.4Z"/>
        <path d="M332.9,314.1c-.1,3.5-2.9,5.8-5.9,5.6-3.2-.2-5.5-2.9-5.3-6.2.2-3.2,2.6-5.5,5.7-5.5,3.1,0,5.7,2.5,5.6,6h0Z"/>
        <path d="M300.7,167.3c9.1,17,13.4,36.3,12.4,55.6.8,1.2,1.5,2.4,2.2,3.7,0,0,0,.1,0,.2,1.6-19.2-1.7-38.6-10.1-56.2-10.8-22.7-29.7-40.4-53.5-48.6-9.3-3.2-18.9-4.6-28.3-4.5-.2.1-.5.2-.7.3-1.6.8-3.3,1.6-4.8,2.5,0,0,0,0,0,0,18.1-1.4,36.2,3,52.5,13.7,12.8,8.4,23.1,19.7,30.3,33.2Z"/>
        <path d="M314.7,232.5c-.2-1.2-.5-2.3-1-3.4-.3-.6-.6-1.3-.9-1.9-2,21.5-9.6,41.8-21.4,59.7-5.3,8-11.1,15.2-18.1,21.7-8.5,7.9-18.1,13.9-28.2,17.7.3,0,.5.1.8.2.3,0,.7.1,1,.2.1,0,.3,0,.5,0,.9.1,1.8.2,2.7.3,4.6-2.1,9.2-4.6,13.6-7.5,10.4-7,18.9-16,26.2-26.1,11-15.2,19-32.4,23.1-50.7.7-3.2,1.3-6.5,1.8-9.8,0-.1,0-.3,0-.4Z"/>
        <path d="M160.7,311.3c1,0,2,0,3.1-.1-.9-.7-1.7-1.5-2.6-2.2-11-9.9-19.3-22-25.2-35.6-3.4-7.7-5.9-15.6-7.5-23.7-.7-.2-1.3-.4-2-.6-.3,0-.5-.2-.8-.3,4.4,23.9,16.3,46.5,34.3,62.5.2,0,.5,0,.7,0Z"/>
        <path d="M228.9,330.6c-10.3,1.6-21.1,1-32-1.9-11.1-3-21.3-8.2-30.3-15.2-.5,0-.9,0-1.4,0-.8,0-1.6,0-2.5.1,5.4,4.4,11.3,8.3,17.7,11.5,17.2,8.6,35.6,10.9,53.2,7.2-1.6-.5-3.2-1.1-4.7-1.7Z"/>
        <path d="M297.7,183.9c-2.9-1.9-6.7-2.5-9.4,0,1.5-.1,3.1-.5,3.8,1.1.5,1-.5,2.6-1.5,3.3-6.5,4.7-15.5,3.2-23.4,2-11.2-1.7-21.9-2.4-32,3.6-5.8,3.5-10,8.7-11.5,15.3-2.9-.1-5.4.4-8.1,1.3-2-7.8.3-15.8,5.6-21.5,3.7-3.9,8.4-6.4,13.5-7.8,5.4-1.5,10.9-1.8,16.5-1.7l12.6.2c10.1.1,21-8.2,19.8-19.7-.6-6.1-4.4-11.1-9.6-14.1-4.9-2.9-10.9-3.2-15.9-.6-1.8,1-3.2,2.5-3.7,4.3,1.6-1,3.1-2.4,4.7-1.4,1.3.7,1.2,3,.7,4.3-4.6,11.4-20.5,14-30.8,22-11.3,8.7-19.2,23-15.6,37.2-2.5,1.5-4.2,3.3-5.9,5.6-12.5-14.4-7.9-31.9,6.5-42.8l10.3-7.8c7.6-5.8,14.1-14.7,13.1-24.4-.7-7.3-6.2-13.2-13.4-13.8-4.7-.4-9,1.2-11.9,4.7-2,2.4-3.2,5.3-2.4,8.4l1.4-2.8c.2-.5,1.7-1,2.2-.8,2.1.6,2.7,4.7,1.8,7.9-.8,2.9-2.1,5.7-3.7,8.1l-6.7,10c-8.4,12.6-10.7,28.3-6,42.7,1.6,4.8,4,8.8,7.7,12.4l-1.3,3c-6.9,1.7-15-.2-21.7-2.9l-11.6-4.6c4.8-.5,8.5-2.3,10.4-6.3,1.1-2.4,1.5-4.9.5-7.5,1.2.3,2,.4,2.8-.3,1.7-1.4-1.2-4.1,1.4-5.7,1.2-.7,2.3-.3,3.9.5-.4-1.2-1.2-2.5-2-3-1.4-.8-2.9-.8-4.2-.2-2.3,1.1-3.4,3.3-3.4,6.1-1.6-1-3.1-1.5-4.8-.9-1.4.5-2.5,1.8-2.7,3.5-.1,1.3.5,2.8,1.9,2.8.2-.7.8-2,1.5-2.2,1-.2,2.1.5,2.4,1.4.8,2.2.1,4.4-1.3,6.3-2.4,3.2-6.7,4.6-10.6,3.4l-13.7-4c-6.9-2-13.6-3.1-21.2-4.4l24.3-10.1c13.8-5.7,32.8-14.4,33.1-30.9.1-5.4-2.7-10.3-7.1-12.6-4.8-2.5-10.4-1.9-14.6,1.4-5.2,4-6.5,10.8-3.3,16.5.5.9.7,2.1.2,3-2.2,4.1-4.7,7.7-7.9,11-8.1,8.4-17.5,15.5-28.2,20.9,6.8-31.1,25-57.3,52.8-72.3,4.7-2.6,9.6-4.7,14.5-6.3,1.7-1.5,3.5-2.9,5.4-4.3-21.2,5.6-40.6,18.7-54.3,36.6-12.7,16.5-20.3,36.1-22.8,56.7-1.1,9-1.4,17.6-.3,26.6,0,.1,0,.2,0,.3.9.4,1.9.8,2.8,1.2-1.4-11.6-1-23.5,1.4-35.3,7.9,5.6,14.4,12.8,18.4,21.6,7.9,17.6,2.8,38.4-3.4,36-2-.8-1.8-3.1-1.6-4.9-1,.8-1.9,2.1-2.2,3.5-2.2,8.9,4.6,19,13.5,18.8,4.4,0,8.2-2.5,10.9-5.9,7.7-9.8,6.3-24.6,1-35.7-6.4-13.3-18.9-22.9-30.6-32-.2,0,.3-.2.5-.3,14.8,4.3,31.1,13.5,42.5,23.9,4.5,4.1,9.6,11,7,16.4-.3.7-1.2,1.4-1.8,1.7-.7.3-2.1,0-2.6-.6-.3-.3-.4-1.5-.2-1.9.3-1,3.1-.1,2.5-1.6-.2-.6-1.1-1.4-1.7-1.5-.6-.1-1.8.1-2.4.5-1.4,1-2,2.6-1.9,4.2,0,1.6,1.4,3.1,2.6,3.9-.8.9-1.3,1.7-1.4,2.5-.1.8.5,2.3,1.3,2.4,1.6.2,2.6.6,3,2.2.8,3.5-1.9,6.5-5.5,6.8,2.3,1.5,4.9,1.2,7,0,2-1.2,3.6-3.4,3.5-6,.2-3-1.4-5.6-4.5-6.2,0-.4,0-1.2.1-1.2l1-.3c3.5-1.6,4.9-5.5,4.1-9.3-.7-3.2-2.5-5.8-4.3-8.8,7,3.8,14,4.5,21.8,2.4-3.6,4.2-6,8.4-7.6,13.4-2.2,6.8-3.3,13.7-3.4,20.9,0,5.9.7,11.5,1.2,17.3l.9,11c.2,2.6-1.4,7.2-4.2,7.5-.7,0-2.1-.5-2.6-1.2-.9-1.4-.8-3-.5-4.5-2,1.6-2.8,4-2.8,6.7,0,7.4,6,13.8,13.3,14.4,7.7.6,14.3-3.7,16.9-11,1.8-5.3,1.1-11.2-1.2-16.4l-5.9-10.5c-3.4-6.1-6.7-12.1-8.2-19.1-2.1-9.6-.8-19.2,5.6-26.5,1.7,2.3,3.2,3.9,5.3,5.4-4.3,9-1.8,19,3.4,27.1,8,12.4,23.5,19.4,23.1,33.4,0,1.7-.5,3.9-1.8,4.9-1.4,1-3-.5-3.4-1.9-.2-.6-.5-.8-.6,0,.1,5.3,4.6,9,9.7,9.1,5,0,9.3-2.3,12.5-5.9,7.7-8.7,6.1-21.6-3.6-28.1-3-2-6.3-3.2-9.8-4.4l-13.7-4.8c-3.9-1.4-7.1-3.9-9.9-6.9-5.5-5.7-7.3-14-4-21.4,2.2,1,4.5,1.4,7.4,1.3,1.9,13.5,15.1,22.3,28.3,23.9,9.2,1.1,17.1-1.5,24.1,1.4,4,1.7,6.5,5.9,5.4,10.1-.2.9-1.2,1.9-2,1.9-.7,0-1.6-.7-2.4-1.5-.2,2.4,1.8,4.2,4.3,4.6,3,.5,6.1-.7,8.4-2.9,9.9-9.2,11.2-26.5.3-33-3.8-2.3-8.3-2.4-12.6-1.1-7.2,2.2-12.2,8.2-19.7,11.6-8.9,4-19.1,2.6-26.1-4.1-3-2.9-5-6.5-5.8-10.9,7.8-1.6,13.4-7.7,14.9-15.7h2.7c-.3,1.8.2,3,1.5,3.5,1.1.5,2.8-.2,3.2-1.5l.7-2.2,53.7-1.4c-1.1-.5-2.5-.5-3.8-.6l-7.4-.4-42.8-2.1c.1-1.9-.8-3.2-2-3.4-1.7-.2-2.9,1.1-2.9,3-.5.3-1.8.3-2.6.1-.4-4.6-2.1-8.8-5-11.8,0,0,0,0-.1,0-1.9,0-3.8,0-5.7.2,0,0,0,0-.1,0,2.7,1.4,5,3.9,6.3,7.1,2.6,6.9.3,14.9-6.1,19.2-6.8,4.6-15.5,1.8-18.9-5.5,0-.2-.2-.4-.2-.6-.4-.2-.8-.5-1.2-.8-1.1-.8-2.2-1.8-3.2-2.7-.1-.1-.3-.3-.4-.4,0,1,.2,2,.4,3-7.4,2.7-15.2,1.6-21.9-2.2l-9.3-6.5c-8-6.1-16.4-11.1-25.6-15.3,3.6.4,6.7,1.4,10.1,2.5,7.9,2.2,15.3,5.2,22.9,8.5,5,2.2,10,3.8,15.3,4.9,2.6.3,5,.4,8.1,0,0,.5,0,1.1-.1,1.6.2.1.3.3.5.4,1.1,1,2.2,2.1,3.3,3.1-.7-4.9,1.1-10,4.6-13.6,0-.1.1-.3.3-.4.7-.8,1.6-1.3,2.6-1.8.2,0,.3-.2.5-.3,2.1-1.2,4.3-1.7,6.4-1.7.1,0,.2,0,.3,0,1.9-.4,3.9-.8,5.9-1,.8,0,1.7-.1,2.5-.2-1.5-.9-3.2-1.7-5.1-2.2,1.6-5.9,5.8-11.1,11.6-13.1,5.7-2,11.8-1,17.2,1.3,4.4,1.9,8,4.6,11.6,7.6,7.6,6.4,15.2,12.2,25.8,10.1,6.8-1.4,11.7-6.4,13-13.2,1.3-7-1.4-14.5-7.4-18.3ZM278.9,154.7c3.1,4.7,2.3,10.6-1.2,15-3,3.9-7.6,5.8-12.7,6.8l-5.4.2c4-1.2,7.8-2.1,11.3-4.4,6-3.9,8.9-10.4,8-17.7ZM276,161.5c-2.9,10.5-15.7,13.6-26,13.8l7.8-2.4c10.4-3.1,19.2-11.4,15.9-22.9,2.9,3.1,3.4,7.5,2.3,11.4ZM271.5,157.8c-1.7,6.8-7.9,10.6-14.3,13-5.1,1.6-10.1,3-15.8,3.8l6-2.3c4.8-1.7,9.5-3.6,13.6-6.6,3.3-2.5,6.1-5.3,7.5-9.2,1.2-2.9,1-5.8,0-9,3.2,2.4,4,6.5,3.1,10.1ZM242.9,169.6c7.8-3.9,17.1-8.9,20-17.1.7-2,.5-3.9-.5-5.8,1.8-.2,2.9,1.1,3.6,2.6,1.2,2.8.7,6-1,8.7-4,6.8-12.4,10-19.9,12.8l-11.3,4.2c2.8-2.5,5.9-3.8,9-5.4ZM232.9,138.8c4.7,11.4-6.5,23.7-16.6,29.9,1.8-2.6,4-4.3,6.1-6.5,7.4-8.2,12.4-19.5,5.3-29,2.5,1,4.2,3.2,5.2,5.7ZM226,135.6c4.3,6,2.1,14.3-2,20.5-2.4,3.6-5.3,6.6-8.5,9.7l-9.5,10.1c.7-2.3,2.3-4.1,3.6-6.1l6.2-7.4c5.7-6.7,11-14.8,8.7-23.7-.7-2.5-2.1-4.5-4.2-6.1,2.4-.1,4.3,1.3,5.5,3.1ZM207,166.2l5.5-8.5c3.7-5.8,7.8-13.2,5.4-19.7h0c-.5-1.3-1.5-2.3-2.7-3.3,2.3-1,4.8.3,6,2.5,1.5,2.7,1.7,5.8,1,8.8-.8,3.4-2,6.8-4.2,9.5l-7.2,9.2c-3,3.8-5.7,7.4-8.2,11.2.9-3.8,2.5-6.8,4.5-9.8ZM185.2,159.7c1.1,3.4.5,6.8-.7,10.2-2.3,5.1-5.9,9.6-11.1,12.3,2.9-3.6,5.7-6.7,7.4-10.7,1.3-3.4,2.1-6.9,1.5-10.5h0c-.5-3.4-2.2-6-5.1-8,4.2,0,6.9,3.1,8,6.7ZM177.6,157.4c5,6.6.2,16.6-5.6,22.4-3,2.9-5.9,5.7-9.8,7.6l8.4-9c2.1-2.9,3.8-5.9,4.9-9.3,1.6-5.7.5-12-4.9-13.7,2.7-1.2,5.4,0,7,2.1ZM164.9,177.2c3.7-5.5,7.6-13.5,2.2-18.1,1.3-1.4,3.4-1,4.7.6,1.7,2.1,1.8,5,1.3,7.8-1,3.9-2.9,7.3-5.2,10.6-4.3,4.9-8.7,9.5-14.9,12.7,4.2-4.4,8.5-8.5,11.9-13.5ZM163.2,245.8c3.8,8.9,3.9,21.6-3.1,28.4-2.3,2.2-5.4,3.7-8.6,2.9,6.8-2.3,10-8.2,11.5-14.8,1.5-5.4.8-10.7.1-16.5ZM161.2,253.2c.5,7.4-2.3,17.6-9.3,20.6-2.6,1.1-5.3.5-7-1.3,8.6.7,12.6-8.9,13.6-16.9.9-7.1-.4-13.7-2.4-20.7,3.2,5.5,4.6,11.9,5,18.2ZM153.8,263.3c-1.7,4-5.2,7.3-8.6,6.1-1.1-.4-2.2-1.5-2.7-2.9,6.2,2.2,9.4-5.2,10.6-11.5,1.5-8.2.3-16.1-1.8-24.3,5.3,9.5,6.8,22.6,2.5,32.6ZM207.7,317.9c5.8-6.4,6.3-12.8,5-21.1,3.9,7.4,3,17.5-5,21.1ZM207.8,313.6c-2.5,3.7-7.2,6.5-10.7,4.7,3.8-.7,6.6-2.8,8.5-5.8,4.5-7,3.1-14.6,1.5-22.7,4.1,7.4,5.6,16.8.7,23.8ZM205.4,293.3c2.1,6.7,1.1,17-5,21.2-2.4,1.6-5.5,2.3-8.1.2,3.2,0,5.8-1,7.8-3.3,2.6-2.8,3.7-6.5,4-10.3,0-3.6-.3-7.1-.9-10.7l-1.9-10.6,4.2,13.7ZM201.1,292c1.1,6.2,1,14.9-3.9,18.6h0c-2.6,2-6.1,1.6-7.4-1.3,2.8.7,5,0,6.6-2,1.7-2.1,2.8-4.9,2.6-7.7l-.8-11.1c-.4-5.7-1.2-11.2-.8-16.8l.7,4.2,3,16.2ZM254.9,306.4c1.5-6.6.9-12.3-2.6-18.2,5.6,4.2,6.8,12.4,2.6,18.2ZM251.9,293.2c2.4,6,1.9,13.3-3.4,18,2.5-5.2,3.6-10.6,1.7-16.1-1-4.2-3.7-7.1-6.5-10.6,4,1.7,6.4,5.2,8.1,8.8ZM248.6,302.7c-.6,3.6-1.3,7.6-5,9.7,2.2-4.4,3.2-8.6,2.4-13.4-1.5-8.3-6.3-12.8-12.5-18.3,9.1,4,15.6,12,15.1,22ZM235.3,285.3h0c6.7,6,10.6,15.1,7.3,23.5-.8,1.5-1.7,3.1-3.7,3.4,1.2-1.8,2-3.5,2.4-5.6,1-8.5-3.1-14.8-8.8-20.8-2.5-2.7-5.2-4.8-7.5-8,4,2.2,7.1,4.9,10.4,7.5ZM283.1,252.8c5.5.9,9.3,5.7,9.4,11.4-4-8.2-10.2-10.1-19.2-8.9,2.9-2,6.3-3.1,9.8-2.5ZM281.3,257.8c6.9,1.6,11.4,8.4,9.4,15.5-1.2-8.6-7.9-14.7-16.6-14.4h-3.9c3.5-1.2,7.3-1.9,11-1.1ZM273.4,261.3h0c6.8-.4,12.8,3.9,14.6,10.5.4,2.6.8,5.3-1.1,7.7.5-7.3-3.4-13.3-10.3-15.6-3.9-1.3-7.8-.9-12-.7,2.8-1.1,5.7-1.8,8.8-1.9ZM267.4,265.6h0c3.6-.7,7.2,0,10.4,1.6,5.3,2.6,7.9,8.5,5.9,14.1-.4,1.2-1.3,2.2-2.5,2.7,2.8-6.2-.8-12.5-6.8-14.8-3.4-1.3-6.9-1.4-10.5-1.3l-9.5.2,13-2.5ZM266.1,192.7c8.5,1.2,17.6,2.8,25.1-1.5,2.2-1.3,3.5-3.1,4.3-5.6,2,2.5.9,5.5-1.1,7.4h0c-6.7,6.2-18,4.3-26.7,1.8l-8.7-2.5c2.5-.4,4.7,0,7.1.4ZM291.1,198c3.8-1.4,6.7-4.1,8.2-8.2,1.9,5-3.1,9.9-8.4,11.6-8.9,2.8-19.8-1.3-28-5.4,9.6,2.1,18.8,5.6,28.3,2ZM294.1,210.5c-2.7.9-5.4,1.2-8.5,1.1-4.7-.8-9.1-2.2-12.7-5.1,4.8,1.7,9.4,3.2,14.4,3,5.1,0,9.6-1.7,13.3-5.3-1.1,3.2-3.7,5-6.5,6.3ZM298.9,202.3c-9.4,8.8-22.7,4.1-32.9-2.2l11.7,3.6c3.6,1.1,7.3,1.1,11,.6,5.7-.8,10.3-3.9,12.9-9,.5,2.9-1.1,5-2.8,7Z"/>
        <path d="M231.3,225.7c-.5-.3-.9-.6-1.4-.8-.4-.1-.8-.3-1.2-.4,1.3,3.6.4,7.8-2.8,10.4-2.2,1.8-4.9,2-7.5.9-2.1-.9-3.8-2.9-4.3-5.5-.6-3.2.4-6.5,2.8-8.8,1.7-1.6,3.9-2.4,6.3-1.9,1.3.3,2.8,1,3.9,2.1,1.5.2,2.9.5,4.2,1.1-.2-.5-.5-1-.7-1.5h0c-1.9-3.1-5.1-4.8-8.3-4.9-3.4,0-6.4,1.5-8.5,4.3-3,4.1-3.7,9.4-1,13.8,2.6,4.4,7.9,6.3,12.8,4,4.7-2.3,7.1-7.2,6.7-12-.3-.3-.6-.6-.9-.9Z"/>
        <path d="M223.7,224.1s0,0,0,0c-.3,0-.6-.1-.8-.3-.8-.2-1.6-.2-2.4,0-1.9.6-3,2.3-3.1,4.2,0,1.8.9,3.7,2.8,4.4,1.5.5,3,.2,4.2-.8h0c1-.8,1.7-2.3,1.6-4-.1-1.7-1-2.9-2.2-3.5Z"/>
      </g>
    </g>
  </g>
  <path d="M368.6,197.6c-.5-1.1-1.1-2-1.9-2.9-1.7-1.8-5.1-1.4-6.3.8-.4.8-.8,1.7-1,2.6-.2.9-.3,1.9-.3,2.9,0,.9.2,1.9.4,2.8.3.9.7,1.8,1.2,2.6,0,0,0,0,0,0,.1.3.3.5.5.8.5.7,1.2,1.2,2.1,1.4.7.2,1.4.2,2.1,0,1-.2,1.8-1,2.4-1.8.6-.8,1-1.8,1.2-2.7.2-.6.2-1.3.3-2,0-.4,0-.7,0-1.1-.1-1.2-.3-2.3-.8-3.4Z"/>
  <path d="M385.2,248.9c0-1.2-.4-2.3-.9-3.4-1-2.3-4.4-3-6.2-1.2-.7.6-1.3,1.4-1.8,2.2-.5.8-.9,1.7-1.2,2.6-.2.9-.4,1.8-.4,2.8,0,1,0,1.9.3,2.9,0,0,0,0,0,0,0,.3.1.6.2.9.3.8.8,1.6,1.5,2,.6.4,1.3.6,2,.7,1,.1,2.1-.4,2.8-1,.8-.6,1.5-1.4,2-2.2.4-.6.6-1.2.9-1.8.1-.3.3-.7.3-1,.3-1.2.4-2.2.3-3.5Z"/>
  <path d="M383.1,209.1c-.3-.8-.8-1.5-1.3-2.1-1.2-1.3-3.7-1-4.5.6-.3.6-.6,1.2-.7,1.9-.1.7-.2,1.4-.2,2.1,0,.7.1,1.4.3,2,.2.7.5,1.3.9,1.9,0,0,0,0,0,0,0,.2.2.4.3.5.4.5.9.9,1.5,1,.5.1,1,.1,1.5,0,.7-.2,1.3-.7,1.7-1.3.4-.6.7-1.3.9-2,.1-.5.2-.9.2-1.4,0-.3,0-.5,0-.8,0-.9-.2-1.6-.6-2.4Z"/>
  <path d="M352.3,218.2c-.2-.5-.5-1-.9-1.4-.8-.9-2.5-.7-3,.4-.2.4-.4.8-.5,1.3,0,.4-.2.9-.1,1.4,0,.4,0,.9.2,1.3.1.4.3.9.6,1.3,0,0,0,0,0,0,0,.1.1.3.2.4.2.3.6.6,1,.7.3,0,.7,0,1,0,.5-.1.9-.5,1.2-.9.3-.4.5-.9.6-1.3,0-.3.1-.6.1-1,0-.2,0-.3,0-.5,0-.6-.2-1.1-.4-1.6Z"/>
  <path d="M363.7,270c-.2-.5-.5-1-.9-1.4-.8-.9-2.5-.7-3,.4-.2.4-.4.8-.5,1.3,0,.4-.2.9-.1,1.4,0,.4,0,.9.2,1.3.1.4.3.9.6,1.3,0,0,0,0,0,0,0,.1.1.3.2.4.2.3.6.6,1,.7.3,0,.7,0,1,0,.5-.1.9-.5,1.2-.9.3-.4.5-.9.6-1.3,0-.3.1-.6.1-1,0-.2,0-.3,0-.5,0-.6-.2-1.1-.4-1.6Z"/>
  <path d="M365.3,179c-.3-.7-.7-1.3-1.2-1.9-1.1-1.2-3.3-.9-4.1.5-.3.5-.5,1.1-.7,1.7-.1.6-.2,1.2-.2,1.9,0,.6.1,1.2.3,1.8.2.6.4,1.2.8,1.7,0,0,0,0,0,0,0,.2.2.3.3.5.3.4.8.8,1.3.9.5.1.9.1,1.4,0,.7-.1,1.2-.6,1.6-1.2.4-.5.6-1.2.8-1.8.1-.4.2-.9.2-1.3,0-.2,0-.5,0-.7,0-.8-.2-1.5-.5-2.2Z"/>
  <path d="M353.6,174.6c-.2-.6-.5-1-.9-1.5-.8-.9-2.6-.7-3.1.4-.2.4-.4.9-.5,1.3,0,.5-.2,1-.1,1.4,0,.5,0,.9.2,1.4.1.5.3.9.6,1.3,0,0,0,0,0,0,0,.1.1.3.2.4.3.3.6.6,1,.7.4,0,.7,0,1.1,0,.5-.1.9-.5,1.2-.9.3-.4.5-.9.6-1.4,0-.3.1-.7.2-1,0-.2,0-.4,0-.5,0-.6-.2-1.1-.4-1.7Z"/>
  <path d="M68.1,259c.5,1.1,1.1,2,1.9,2.9,1.7,1.8,5.1,1.4,6.3-.8.4-.8.8-1.7,1-2.6.2-.9.3-1.9.3-2.9,0-.9-.2-1.9-.4-2.8-.3-.9-.7-1.8-1.2-2.6,0,0,0,0,0,0-.1-.3-.3-.5-.5-.8-.5-.7-1.2-1.2-2.1-1.4-.7-.2-1.4-.2-2.1,0-1,.2-1.8,1-2.4,1.8-.6.8-1,1.8-1.2,2.7-.2.6-.2,1.3-.3,2,0,.4,0,.7,0,1.1.1,1.2.3,2.3.8,3.4Z"/>
  <path d="M75.6,323.3c.5,1.1,1.1,2,1.9,2.9,1.7,1.8,5.1,1.4,6.3-.8.4-.8.8-1.7,1-2.6.2-.9.3-1.9.3-2.9,0-.9-.2-1.9-.4-2.8-.3-.9-.7-1.8-1.2-2.6,0,0,0,0,0,0-.1-.3-.3-.5-.5-.8-.5-.7-1.2-1.2-2.1-1.4-.7-.2-1.4-.2-2.1,0-1,.2-1.8,1-2.4,1.8-.6.8-1,1.8-1.2,2.7-.2.6-.2,1.3-.3,2,0,.4,0,.7,0,1.1.1,1.2.3,2.3.8,3.4Z"/>
  <path d="M51.5,207.7c0,1.2.4,2.3.9,3.4,1,2.3,4.4,3,6.2,1.2.7-.6,1.3-1.4,1.8-2.2.5-.8.9-1.7,1.2-2.6.2-.9.4-1.8.4-2.8,0-1,0-1.9-.3-2.9,0,0,0,0,0,0,0-.3-.1-.6-.2-.9-.3-.8-.8-1.6-1.5-2-.6-.4-1.3-.6-2-.7-1-.1-2.1.4-2.8,1-.8.6-1.5,1.4-2,2.2-.4.6-.6,1.2-.9,1.8-.1.3-.3.7-.3,1-.3,1.2-.4,2.2-.3,3.5Z"/>
  <path d="M59.1,152.1c0,1.2.4,2.3.9,3.4,1,2.3,4.4,3,6.2,1.2.7-.6,1.3-1.4,1.8-2.2.5-.8.9-1.7,1.2-2.6.2-.9.4-1.8.4-2.8,0-1,0-1.9-.3-2.9,0,0,0,0,0,0,0-.3-.1-.6-.2-.9-.3-.8-.8-1.6-1.5-2-.6-.4-1.3-.6-2-.7-1-.1-2.1.4-2.8,1-.8.6-1.5,1.4-2,2.2-.4.6-.6,1.2-.9,1.8-.1.3-.3.7-.3,1-.3,1.2-.4,2.2-.3,3.5Z"/>
  <path d="M53.7,247.5c.3.8.8,1.5,1.3,2.1,1.2,1.3,3.7,1,4.5-.6.3-.6.6-1.2.7-1.9.1-.7.2-1.4.2-2.1,0-.7-.1-1.4-.3-2-.2-.7-.5-1.3-.9-1.9,0,0,0,0,0,0,0-.2-.2-.4-.3-.5-.4-.5-.9-.9-1.5-1-.5-.1-1-.1-1.5,0-.7.2-1.3.7-1.7,1.3-.4.6-.7,1.3-.9,2-.1.5-.2.9-.2,1.4,0,.3,0,.5,0,.8,0,.9.2,1.6.6,2.4Z"/>
  <path d="M73,186.6c.2.5.5,1,.9,1.4.8.9,2.5.7,3-.4.2-.4.4-.8.5-1.3,0-.4.2-.9.1-1.4,0-.4,0-.9-.2-1.3-.1-.4-.3-.9-.6-1.3,0,0,0,0,0,0,0-.1-.1-.3-.2-.4-.2-.3-.6-.6-1-.7-.3,0-.7,0-1,0-.5.1-.9.5-1.2.9-.3.4-.5.9-.6,1.3,0,.3-.1.6-.1,1,0,.2,0,.3,0,.5,0,.6.2,1.1.4,1.6Z"/>
  <path d="M71.4,277.6c.3.7.7,1.3,1.2,1.9,1.1,1.2,3.3.9,4.1-.5.3-.5.5-1.1.7-1.7.1-.6.2-1.2.2-1.9,0-.6-.1-1.2-.3-1.8-.2-.6-.4-1.2-.8-1.7,0,0,0,0,0,0,0-.2-.2-.3-.3-.5-.3-.4-.8-.8-1.3-.9-.5-.1-.9-.1-1.4,0-.7.1-1.2.6-1.6,1.2-.4.5-.6,1.2-.8,1.8-.1.4-.2.9-.2,1.3,0,.2,0,.5,0,.7,0,.8.2,1.5.5,2.2Z"/>
  <path d="M83.2,282c.2.6.5,1,.9,1.5.8.9,2.6.7,3.1-.4.2-.4.4-.9.5-1.3,0-.5.2-1,.1-1.4,0-.5,0-.9-.2-1.4-.1-.5-.3-.9-.6-1.3,0,0,0,0,0,0,0-.1-.1-.3-.2-.4-.3-.3-.6-.6-1-.7-.4,0-.7,0-1.1,0-.5.1-.9.5-1.2.9-.3.4-.5.9-.6,1.4,0,.3-.1.7-.2,1,0,.2,0,.4,0,.5,0,.6.2,1.1.4,1.7Z"/>
  <path d="M58.3,178.5c.2.6.5,1,.9,1.5.8.9,2.6.7,3.1-.4.2-.4.4-.9.5-1.3,0-.5.2-1,.1-1.4,0-.5,0-.9-.2-1.4-.1-.5-.3-.9-.6-1.3,0,0,0,0,0,0,0-.1-.1-.3-.2-.4-.3-.3-.6-.6-1-.7-.4,0-.7,0-1.1,0-.5.1-.9.5-1.2.9-.3.4-.5.9-.6,1.4,0,.3-.1.7-.2,1,0,.2,0,.4,0,.5,0,.6.2,1.1.4,1.7Z"/>
  <path d="M361.3,141.6c-.2-.6-.5-1-.9-1.5-.8-.9-2.6-.7-3.1.4-.2.4-.4.9-.5,1.3,0,.5-.2,1-.1,1.4,0,.5,0,.9.2,1.4.1.5.3.9.6,1.3,0,0,0,0,0,0,0,.1.1.3.2.4.3.3.6.6,1,.7.4,0,.7,0,1.1,0,.5-.1.9-.5,1.2-.9.3-.4.5-.9.6-1.4,0-.3.1-.7.2-1,0-.2,0-.4,0-.5,0-.6-.2-1.1-.4-1.7Z"/>
  <path d="M364.4,288.6c.1-.3.2-.6.3-.9,0-.7-.6-1.3-1.3-1.1-.2,0-.5.1-.7.3-.2.1-.4.3-.6.4-.2.2-.4.4-.5.6-.1.2-.3.5-.3.7,0,0,0,0,0,0,0,0,0,.1,0,.2,0,.2,0,.5,0,.7,0,.2.2.3.4.4.2.2.5.2.8.2.3,0,.5-.1.8-.2.2,0,.3-.2.5-.3,0,0,.2-.1.2-.2.2-.2.4-.5.5-.8Z"/>
</svg>