<?xml version="1.0" encoding="UTF-8"?>
<svg id="b" data-name="Layer 2" xmlns="http://www.w3.org/2000/svg" width="428.951" height="433.599" viewBox="0 0 428.951 433.599">
  <g id="c" data-name="Layer 1">
    <g id="d" data-name="EP7F0A">
      <g>
        <path d="M411.471,132.92c-14.55-34.28-38.36-65.39-67.34-88.58-5.81-4.65-11.8-8.7-18.04-12.72-22.07-14.21-46.48-23.84-72.32-28.43-7.02-1.25-13.65-2.2-20.67-2.79l-4.76-.4-24.38.01-5.53.43c-43.78,3.44-85.91,20.77-119.42,49.3-16.89,14.38-30.37,30.03-42.69,48.43C7.771,140.83-4.929,194.18,1.741,245.061c6.84,52.21,32.9,99.59,72.6,134,23.47,20.34,50.89,35.82,80.64,45.15,36.35,11.41,76.83,12.5,113.67,2.83,12.7-3.33,24.7-8.1,36.53-13.68,42.79-20.2,79.14-56.15,100.43-98.3,4.46-8.84,8.05-17.82,11.34-27.13,17.91-50.81,15.52-105.53-5.48-155.01ZM415.391,275.16c-4.52,15.51-10.49,30.43-18.3,44.53-27.04,48.73-72.07,85.37-125.62,101.16-16.41,4.84-33.29,7.15-50.45,7.59-49.19,1.25-96.47-16.46-135.01-46.47-15.43-12.01-28.92-26.16-40.51-41.87-15.94-21.6-27.42-46.05-34.04-72.09-6.01-23.69-7.65-48.26-4.93-72.49.92-8.23,2.27-15.85,4.11-23.89,6.46-28.37,18.58-54.87,35.79-78.34,5.72-7.79,11.58-15.26,18.23-22.31,12.78-13.56,27.17-25.31,43-35.14,12.95-8.04,26.48-14.27,40.83-19.22,36.97-12.74,77.17-14.83,115.21-5.74,37.02,8.85,71.75,29.55,98.11,56.9,38.5,39.93,61.38,93.05,61.86,148.77.16,19.91-2.74,39.58-8.28,58.61Z"/>
        <path d="M266.551,404.5l-.08.36.38.51.12-.25-.42-.62ZM280.801,41.47l-.38.09.43.58.04-.38-.09-.29Z" fill="#fff"/>
        <path d="M390.321,169.021c-4.07-14.84-10.01-28.771-17.45-42.18-14.44-26.02-34.68-48.27-59.61-64.59-9.58-6.27-19.62-11.32-30.35-15.35-12.21-4.58-24.43-8.2-37.41-9.98-28.11-3.87-56.6-.94-83.51,7.91-8.4,2.76-16.4,5.49-24.44,9.07-11.58,5.14-22.2,11.31-32.29,19.02-9.27,7.07-18.04,14.59-26.05,23.16-17.99,19.25-31.36,42.57-39.23,67.73-14.59,46.7-10.03,94.15,11.04,137.979,18.73,38.96,50.21,69.79,89.06,88.55,19.98,9.64,41.31,15.43,63.51,17.03,24.32,1.75,48.57-1.04,71.41-9.56,35.5-13.24,65.29-37.09,86.31-68.5,9.51-14.21,17.17-29.28,23.09-45.32,13.93-37.74,16.61-76.02,5.92-114.97ZM360.721,325.14c-21.79,33.93-54.22,59.56-92.54,72.27-7.55,2.5-15.12,4.29-23.06,5.61-28.76,4.78-58.19,2.16-85.73-7.51-32.66-11.49-61.99-32.54-83.6-59.51-21.93-27.36-36.51-62.92-40.25-97.78-2.39-22.36-.73-44.73,5.33-66.29.16-.57.89-1.28,1.2-1.75,10.12-15.05,20.84-25.71,35.32-36.58l.72.13c-3.46,7.46-3.66,15,1.88,20.78,2.98,2.86,6.73,4.11,11.22,3.2-1.42,4.91.18,9.33,4.09,12.01-11.62,6.16-22.93,14.59-28.6,26.09-2.1,4.26-3.17,8.7-2.58,13.35.73,5.67,5.43,9.23,11.11,8.37,3.5-.52,6.49-2.33,9.2-4.65,4.25-3.61,6.9-8.23,10.19-12.99-5.12,28.03-4.13,55.76,2.61,82.99,3.96,16,9.96,31.27,18.34,45.42,6.14,10.35,13.57,19.3,22.66,27.63-6-1.43-11.15-3.88-16.34-6.77-31.59-17.56-55.36-40.54-74.76-71.36,5.4,17.96,19.51,44.63,33.73,56.21,3.24,2.64,9.04,5.98,11.5,3.93.58-.49.82-1.63.75-2.63-.39-.68-.12-.91.39-.45l15.29,11.74c6.85,4.64,13.82,8.54,21.47,11.65l9.54,2.96.22-.05c3.46.76,7.12.68,10.49-.89,3.23-1.68,4.94-4.89,5.39-8.47l.33-2.63c1.86,4.23,1.39,8.99-2.09,11.96-3.88,3.33-9.77,2.58-14.34.45l-.6-.06c4.03,5.5,10.35,9.42,17.12,12.92,5.27,2.71,9.98,5.88,14.88,9.17l9.81,6.61c5.54,3.72,11.69,6.2,18.5,6.99-4.35-2.48-7.92-5.45-10.72-9.54l-6.09-8.88c-5.86-7.82-14.72-12.07-24.46-11.71-2.39.09-4.63.08-6.92-.42,5.52-1.21,9.32-4.73,9.7-10.19.14-1.88-.28-3.65-.67-5.72,2.28,2.21,3.79,4.65,5.35,7.36,6.86,11.95,19.53,17.43,33.01,14.01l9.43-2.39c8.54-2.17,18.69.6,23.75,8.27.8-3.05-.48-5.75-2.36-8.08-5.62-6.97-16.94-9.28-25.94-9.91l-14.66-1.03c-8.28-.58-15.82-3.41-22.58-8.18-3.85-2.73-7.58-5.59-10.62-9.27-5.88-7.1-10.56-14.81-14.53-23.16-4.61-9.71-8.68-19.42-11.3-30.08,5.24,10.84,10.28,26.71,18.84,34.74,2.83,2.65,6.93,5.06,9.06,2.88,2.39-2.45-.34-6.32-1.75-9.72,35.35,30.41,82.45,32.17,118.61,2.69-1.87,3.91-.52,7.08-1.64,11.23-.61-.8-1.26-1.61-1.94-1.76-1.06-.24-2.11.3-2.63,1.18-1.39,2.34-.5,5.06,1.7,6.44.37.24,1.28,1.05,1.35,1.49.96,5.71,5.81,7.32,11.73,6.58-1.88,1.021-3.78,1.97-5.92,2.49-6.29,1.53-13.78-1.55-14.27-6.24-.13-1.32.62-2.33,1.68-3.66-1.68-.57-3.37-.44-4.86.55-1.13.76-2.15,2.44-2.29,4.1-.25,3.01,1.55,4.87,3.77,6.92l-6.23-1.65c-2.33-.61-4.91-1.08-7.24-.16-6.8,2.7-11.35,11.43-7.34,17.55.39-4.96,4.27-8.38,9.05-7.85,2.25,1.76,5.11,1.75,7.66.59l8.15-3.12c-.73,1.16-1.48,2.18-1.73,3.22-.44,1.84.6,3.07,1.93,3.84,1,.58,3.36.37,3.74-1.12-1.05-3.28,1.72-5.86,5.02-7.63l9.24-4.95-4.04,4.18c-1.33,1.37-1.73,2.9-1.1,4.78l-3.87,5.3c-2.8,3.84-10.37,7.68-13.56,4.22-.34-.37-.52-1.68-.23-2.03.3-.36,1-.53,1.91-.75.21-.37-.66-1.52-1.4-1.7-1.53-.37-2.9.22-3.73,1.25-.92,1.13-1.04,2.87-.37,4.29.94,1.99,3.12,2.84,5.31,3.03,2.91.25,5.32-.96,8.34-2-4.34,5.45-12.53,10.47-17.92,6.71-1.82-1.26-2.28-3.8-.58-5.23l.66-.56c.64-.54-3.9-2.2-7.03,1.44-1.74,2.02-2.08,4.85-.8,7.17,1.1,2,2.96,2.99,5.37,4.02-2.31,1.23-5.17,2.72-7.97,2.16l-4.41-.87c-1.61-.32-2.91.47-3.68,1.78-3.37-.43-6.91-.58-10.17.78-5.28,2.22-8.6,7.92-6.69,13.53,1.76-6.11,7.4-7.52,13.58-6.53l5.96.96c3.79.61,7.37-.94,10.22-3.37l6.53-5.57c-1.03,2.02-2.31,3.38-2.76,5.36-.73,3.17,1.36,5.78,4.45,6.17,2.83.36,5.67-.08,7.78-2.48-4.16-1.54-3.06-6.61-.57-10.72,2.39-3.96,5.44-7.25,8.38-10.79l5.08-6.1c-.58,4.38-4.31,7.31-3.65,11.31.31,1.83,1.7,2.28,2.86,3.24,1.34,1.11.58,3.89-.22,5.09-1.15,1.74-2.99,2.03-5.37,2.02.4,1.1,1.37,1.95,2.37,2.21,2.84.75,5.05-.32,7.3-1.73,4.13-2.57,5.8-7.29,3.42-11.72-.89-1.63-1.53-3.43-1.73-5.46,1.6,1.5,2.81,2.45,4.79,2.15,1.56-.24,3.06-1.58,3.28-3.43.27-1.71-.55-3.09-2.21-3.63-5.09-7.06-2.1-15.5,3.01-22.46-.33,3.07-1.03,5.55-.58,8.26.6,3.6,2.28,6.63,4.35,9.54,3.24,4.56,5.19,9.68,1.8,13.91,1.9.53,3.34.37,4.72-.66,1.09-.8,1.82-2.3,2.24-4.13,3.18,2.62,5.9.72,6.38,3.85,1.93-1.85,2.34-4.36,1.93-6.81-.37-2.22-2.13-3.84-4.34-5.19l8.57.05c5.82.04,10.42-3.58,11.89-9.04.58-2.14,2-3.96,3.91-4.92,2.69-1.34,5.25.48,5.12.11l-.25-.69c-1.21-3.41-8.22-3.87-11.94-.17l-2.96,2.95c-.7-1.41-1.91-1.99-3.33-1.53-1.16.37-2.36,1.41-2.95,2.53-1.72,3.25-4.47,5.64-8.31,6.24,1.6-2.05,1.8-4.46.18-6.24-1.31-1.439-4.66-2.12-5.63.07-.59,1.31-.36,2.75-2.24,3.37-2.09.68-4.47-.24-5.57-2.39-3.16-6.21,1.98-15.64,6.6-20.86.61,1.87,1.52,3.21,2.48,4.47-.61,1.17-1.26,2.77-.78,4.44.32,1.12,1.49,2.51,2.94,3.2,10.46,4.96,30.28-9.65,38.59-17.37l13.39-12.44,12.83-12.28c4.17-4.48,7.74-9.11,10.61-14.5l.59-.61c-.01-.04-.01-.08-.02-.11.03.09.06.19.1.32-5.1,13.72-11.88,26.6-19.73,38.83ZM83.871,148.59c1.91,3.12,5.01,4.37,9.18,4.87-3.66,2.04-8.16.52-11.04-2.75-5.04-6.55-2.77-15.54,2.61-21.82-1.34,3.62-2.61,6.86-3.01,10.55-.17,3.33.41,6.43,2.26,9.15ZM134.671,100.75c-.59.04-1.71.4-2.1.76-1.52,1.44-1.54,3.44-.66,5.04.91,1.66,2.82,1.82,4.74,2.18,1.93,1.88,2.64,6.88.49,8.87-1.16,1.07-2.87,1.77-3.51,3.31-2.15.54-3.96,1.61-4.18,3.88-.2,2.17.99,4.1,2.91,4.84,2.05.79,4.32-.24,5.29-1.89,1.24-2.14.73-4.37-1.27-6.22.63-.54,1.86-1.04,2.7-.95,2.8.32,4.34,4.72,4.79,8.19,1.48,11.53-3.2,24.85-9.76,34.34-1.96,2.83-4.35,5.19-7.33,6.67-3.32,1.64-6.86.81-8.88-2.271-1.69-2.57-1.63-5.59-1.01-8.65-4.79,4.24-10.97,7.18-15.58,3.56-1.59-1.24-2.56-3.53-2.65-5.87-.13-3.38,1.64-5.83,3.58-9-2.91,1.16-5.48,2.37-8.51,2.34-3.95-.03-7.13-2.47-8.08-6.33-2.39-9.75,6.26-20.59,13.97-26.79,6.22-4.99,12.76-9.24,19.81-12.98,3.75-1.99,7.521-3.49,11.62-4.46,3.62-.85,7.32.85,7.15,3.67-.06.85-.79,1.92-1.78,2.17-.54.13-1.36-.07-1.69-.35-.32-.29-.57-1.47-.27-1.78.36-.36,1.1-.67,1.84-1.01-.16-.521-1.1-1.31-1.63-1.271ZM135.051,126.23c-.57.29-1.66.37-2.26.15-.56-.2-1.19-1.72-.87-2.26l1.39-2.33.33,1.93c.06.34,1.22.16,1.75.46.45.26.12,1.82-.34,2.05ZM148.771,122.65c1.65,1.16,3.6.68,4.7-.88,1.6-2.26,1.03-5.36-1.21-7.07-1.88-1.44-4.16-1.59-6.81-1.43,5.25-4.56,14.05-8.89,19.96-5.84,2.8,1.45,4.06,4.98,2.25,7.56-.53.76-1.79,1.14-2.63.93-.89-.23-1.29-1.54-1.28-2.59-2.03.01-3.46,1.92-3.62,3.68-.19,2.14.72,3.99,2.7,4.84-1.36,1.35-1.95,3.59-.64,4.95,1.61,1.67,4.37.42,5.44-1.32,1.05.75,1.84,1.18,3.4,1.89-9.4,5.88-17.62,13.08-25.43,21.38,2.58-9.51,3.77-19.8-1.01-28.07-1.05-1.14-1.96-1.95-3.18-2.82,3.47-2.05,7.63-2.5,9.12.33.21.39.17,1.91-.26,1.92l-1.87.05c-.47.31-.26,2.05.37,2.49ZM351.951,303c-1-5.939-5.91-9.53-12.17-9.01,3.89-2.47,8.97-1.21,11.71,2.53,1.75,2.4,2.23,5.19,2.08,8.17-.45,2.43-1.15,4.72-2.33,6.86.55-3.01,1.2-5.68.71-8.55ZM347.871,302.28c.92,2.56.83,5.25-.03,7.93-3.86,11.95-16.14,21.87-27.06,27.74-4.3,2.31-11.05,4.85-15.18,3-1.52-.68-2.18-2.1-1.7-3.51.14-.41.97-1.08,1.4-1.03.43.04,1.16.66,1.33,1.1.18.49-.32,1.2-1.04,1.89,0,.18.76.66,1.14.66.37,0,1.22-.41,1.48-.71,1.08-1.19.88-2.89.19-4.08-.85-1.46-2.38-1.18-3.92-1.57-1.81-.45-2.36-3.14-2.48-4.59-.19-2.1.84-3.76,2.43-5.21,2.25-.04,3.78-1.85,3.82-4.05.09-1.93-.98-3.63-2.56-4.2-1.76-.64-3.61-.12-4.83,1.32-1.72,2.04-1.47,4.85.94,6.42-.91,1.42-2.61,1.74-4.08.66-3.52-2.57-4.44-10.61-3.93-15.76.88-8.77,4.22-17.05,9.63-23.92,1.79-2.28,3.87-4.03,6.36-5.24,3.12-1.51,6.41-.23,7.65,3.08.9,2.39.62,4.98.24,7.68,4.49-3.97,10.21-7.59,14.69-4.2,1.48,1.13,2.43,3.29,2.45,5.59.02,3.29-1.58,5.91-3.11,8.77,2.61-1.1,4.65-2.28,6.979-2.79,4.1-.88,7.81,1.14,9.19,5.02ZM302.861,318.89c.49-.44,1.82-.56,2.4.07,1.22,1.31.63,3.04-.51,4.23l-.24-1.88c-.04-.36-.86-.15-1.46-.21-.67-.06-.73-1.73-.19-2.21ZM292.941,326.39c-.18-.44-1.18-.94-1.74-.83-1.45.26-2.28,1.49-2.46,2.57-.24,1.4.19,2.83,1.22,3.75,1.52,1.33,3.41,1.15,5.64.83-3.9,5.16-11.83,10.58-17.47,8.63-2.03-.7-3.21-2.39-3.29-4.35-.08-1.91.93-3.66,3.03-4.43.52-.2,1.79-.08,2.22.26.53.42.9,1.51,1,2.27,2.15-.4,3.3-2.4,3.28-4.25-.02-2.1-1.18-3.56-3.62-4.42,2.53-1.75,4.72-3.41,5.32-6.34.46-2.22-.58-4.76-3.01-4.82-1.81-.05-3.51,1.34-4.55,2.84l-1.52-1.25c5.12-4.6,9.66-9.73,14.19-15.38-.52,4.21-1.15,7.89-.76,11.81.58,5.81,2.95,13.17,8.7,14.19-2.31,2.07-4.74,3.54-6.78,2.24-.4-.25-.81-1.38-.46-1.67.59-.45,1.26-1.14,1.06-1.65ZM338.001,291.3c-.01-3.2-.72-6.16-3.11-8.2-2.89-2.47-6.74-2.44-10.29-.92,2.13-2.03,5.16-2.96,8.06-2.53,2.55.38,4.53,2.19,5.42,4.07,1.2,2.53,1.06,5.23-.08,7.58ZM336.101,274.73c1.01-1.71,2.31-2.76,3.64-4.03,5.25-5.04,9.85-10.6,13.26-17.02,1.9-3.6,3.03-8.5.67-9.79-4.38-2.41-10.72,9.21-13.17,14.34l-7.48,15.66,3.74-13.09c1.87-6.55,4.76-12.61,8.8-18.05,1.98-2.67,4.42-4.81,7.5-5.81,3.15-1.03,5.97.58,6.9,3.76,2.19,7.46-3.63,16.95-9.08,22.68-4.3,4.54-9.05,8.39-14.78,11.35ZM329.061,276.61l-3.87,1.52c7.17-20.67,11.56-41.62,12.19-63.29.5-17.02-1-33.68-5.27-50.09-4.93-18.979-13.06-36.85-25.14-52.25l-8.4-9.26c1.36-.51,2.67-.72,3.71-.47,7.42,7,13.16,15.01,18.14,23.89,8.21,14.66,13.64,30.39,16.98,46.89,6.9,34.08,2.84,70.4-8.34,103.06ZM294.751,101.38c-3.16,2.78-4.12,6.8-4.08,10.93-1.06-2.08-1.45-4.65-1.04-7.11.72-4.29,4.22-7.47,8.51-8.09,2.96-.43,5.95.07,8.37,1.53-4.51-.27-8.48-.14-11.76,2.74ZM296.071,104.98c3.98,3.7,7.53,7.35,10.45,11.81l7.95,12.11-4.08-.73-1.74-1.29c.06,3.24-2.94,4.64-.81,8.07.66-2.16,2.32-3.5,4.71-3.33,1.56.11,3.85,1.17,4.71,2.69,2.61,4.6,4.58,9.25,6.66,14.32-1.85-.96-3.02-1.46-4.82-1.85l-1.82-1.4c-.34,1.56-.83,2.56-1.76,3.73-1.13,1.42-1.05,3.69-.02,5.26.65-2.52,2.55-4,5.01-3.81,2.71.2,5.07,2.21,5.79,4.78l4.21,14.98c-1.55-1.1-2.57-2.07-4.09-2.52-1.27-.37-1.96-1.05-2.88-2.41-.24,1.72-.73,2.63-1.83,3.58-1.55,1.35-1.65,3.84-1.18,5.83.79-1.27,1.59-2.59,2.51-3.05,3.91-1.97,7.95,1.96,8.46,4.11,1.43,6.01,2.09,11.85,2.67,18.23-1.27-1.86-2.71-3.16-4.81-3.9-.62-.22-1.22-1.45-1.77-2.29l-.9,2.41c-2.3,1.2-3.36,3.62-2.82,6.17,1.83-2.75,5.15-3.31,7.65-1.38,1.36,1.06,2.89,2.91,2.9,4.75l.12,18.71c-.87-1.33-1.55-2.74-2.84-3.39-1.48-.77-2.26-1.54-2.82-3.43-.64,1.72-1.19,2.45-2.44,3.16-2.11,1.21-2.79,3.93-2.64,6.25,1.01-1.47,1.95-2.5,3.19-2.91,1.59-.52,3.22-.11,4.5.94,1.92,1.57,2.73,4.03,2.52,6.51-.59,6.99-1.44,13.69-2.93,20.84-1.07-1.85-1.99-3.28-3.83-3.98l-1.09-2.59c-.66,1.55-1.7,2.3-3.05,3.01-2.19,1.14-2.97,3.9-3.11,6.23,1.18-1.52,2.28-2.73,3.55-3.05,1.92-.49,3.61.17,4.78,1.69,1.01,1.3,1.84,3.37,1.45,5.12-2.22,9.91-4.95,19.43-8.8,28.71-2.28-5.88-1.09-12.95.01-18.71-1.72,3.05-2.7,6.12-3.55,9.51l-.05,3c-3.28-1.94-6.62-1.35-10.03.55,3.11-7,6.13-13.42,8.28-20.57,3.36-11.12,5.5-22.3,5.8-34.04.61-23.08-2.68-46-9.79-67.92-4.16-12.83-10.13-24.68-17.59-35.76l-.29-7.24c-.08-2.05.94-3.82,2.3-5.51ZM300.561,282.061l-10.51,16.11c-7.23,9.77-15.67,18.38-25.96,24.95-9.67,6.19-19.96,10.58-31.48,12.74-36.02,6.74-71.41-11.24-91.57-40.69-12.13-17.71-19.28-38.27-20.59-59.72-.69-11.18.32-21.85,2.55-32.73,2.74-13.36,7.52-25.89,14.5-37.56,7.11-11.91,16.28-21.95,27.37-30.24,10.3-7.7,21.64-13.46,33.98-17,43.15-12.4,87.11,8.22,107.52,47.55,19.29,37.17,15.38,81.1-5.81,116.59ZM100.851,166.45c2.36,1.1,4.81.78,7.79.67-3.01,1.9-7.11,2.18-10.38.22-4.16-2.49-5.06-7.77-2.87-11.76-.37,4.8,1.36,8.94,5.46,10.87ZM97.041,172.43l-8.05,7.7c-5.1,4.87-12.49,14.76-12.62,21.74-.01.87.6,2.1,1.17,2.49,2.63,1.74,7.32-3.32,9.78-6.73,3.11-4.3,5.52-8.86,8.02-13.56,2.17-4.05,3.26-8.37,6.24-12.33-.89,4.84-2.37,9.11-3.83,13.61-1.88,5.78-4.52,11.19-7.95,16.14-3.46,4.99-9.95,11.11-15.27,8.77-2.37-1.04-3.46-3.72-3.5-6.31-.16-11.91,14.57-26.53,26.01-31.52ZM105.281,172.05l4.53-2.01c-16.51,42.74-16.14,90.44.11,132.9,7.64,19.98,21.69,42.04,39.41,54.17-1,.43-2.93,1.06-3.82.55-4.41-2.54-7.76-5.6-11.17-9.07-8.83-9-15.73-19.3-21.43-30.58-8-15.86-13.16-32.67-16.11-50.21-2.3-13.73-3.3-27.18-2.55-41.13,1.01-18.78,4.52-37.01,11.03-54.62ZM130.051,333.89c1.97.52,3.34.75,5.2.79l1.91.76c-.05-2.76,2.31-4.12.25-7.56-.89,2.17-2.6,3.55-5.08,3.67-1.78.09-4.3-.75-5.44-2.34-3.49-4.84-6.23-9.89-8.97-15.3,1.74,1.11,3.12,2.06,5.08,2.05,1.41,0,2.59.6,3.79,1.53-.23-3.31,3.8-4.1,1.6-9.22-1.01,2.75-3.18,4.31-5.74,4.55-2.37.23-5.63-.72-6.62-3.1l-4.92-11.89c-2.99-8.84-5.52-17.52-7.22-27.11,1.9,2.32,3.76,4,6.53,4.45.66.11,1.75,1.38,2.32,1.85.42-1.39.89-2.46,1.86-3.21,2-1.53,2.3-3.99,1.83-6.42-1.28,2.48-3.08,3.81-5.68,4.13-3.22.14-6.08-1.67-7.55-4.62-1.07-6.53-1.97-12.92-2.21-19.89,1.39,2.4,2.22,5.14,5.08,5.93,1.58.44,2.47,1.11,3.43,3.01l1.32-2.73c2.66-1.39,3.85-4.15,3.21-7.17-1.22,2.3-3.02,3.56-5.38,3.67-3.72.29-6.86-1.97-7.86-5.6-.65-9.69-.13-19.07,1-28.7,1.85-15.85,5.82-32.77,12.32-47.22,1.51,4.65,5.28,7.14,9.8,6.6,2.21-.26,4.1-1.38,6.2-2.64-10.6,22.69-14.25,46.18-12.17,70.97,2.06,24.46,8.08,48.32,17.98,70.73,4.48,10.13,9.84,19.47,16.45,28.28l1.22,7.69c.3,1.92-.34,3.64-1.41,5.34-8.7-4.79-16.17-13.21-22.13-21.28ZM381.511,283.47l-2.52,2.81c-7.01,7.84-14.49,14.96-22.43,21.85-.23.09-.62.2-.58.06l.21-.73c.85-2.94,1.12-5.79.4-8.72-1.65-6.73-8.08-10.55-15.06-8.48,1.86-5.34-.01-10.78-4.79-13.11,8.34-4.05,15.47-9.24,21.37-15.93,6.1-6.91,11.32-17.97,7.56-26.28-1.88-4.18-5.99-5.94-10.33-4.69-7.08,2.03-11.32,8.771-15.15,15.18l2.84-24.36c2.63-40.29-7.78-83.75-33.82-115.63,4.37,1.64,8.09,3.68,11.95,6.14,11.65,7.4,22.12,16.2,31.78,26.12,11.22,11.51,20.53,24.51,27.82,38.81,4.26,8.36,7.22,16.74,9.99,25.84-.89-10.68-3.24-20.96-6.38-31.24-3.02-9.9-6.82-19.17-11.94-28.11-2.9-5.08-8.27-11.39-13.9-11.85-.76-.06-2.06.4-2.44.9-.49.66-.67,1.8-.93,3.13-11.85-14.68-27.7-29.37-45.49-35.79-4.09-4.68-8.17-9.02-13.23-12.69-4.37-3.17-8.06-6.96-11.79-10.85l-10.59-11.05c-5.47-5.05-11.33-9.32-18.29-12.01l-.7-.14c-.1-.02-.07.14,0,.2l.5.45c4.29,3.85,7.79,8.35,10.04,13.68l4.24,10.09c3.93,9.35,10.25,16.7,20.99,15.73,1.55-.14,3.94-.03,5.2.38l.88.29c.12.04.12.15,0,.17l-.91.15c-7.18,1.18-10.54,7.34-9.82,14.79l-4.73-9.65c-6.04-12.31-17.16-14.55-30.05-12.71l-10.13,1.44c-10.4,1.49-19.32-4.2-22.71-14.35-.05-.67-.43-.35-.61.17-1.27,6.42,2.18,12.67,7.4,16.29,3.09,2.13,6.42,3.729,10.16,4.45l17.25,3.29c5.55,1.07,10.87,2.12,16.08,4.19,5.19,2.07,9.8,4.72,13.79,8.6,6.78,6.6,12.47,13.83,16.9,22.22,4.82,9.12,8.8,18.38,10.82,28.61l-6.45-15.29c-2.62-6.21-5.62-11.91-9.19-17.6-3.79-6.03-9.77-9.8-16.88-11.07,2.34,3.17,4.37,6.17,6.13,9.59l5.6,10.91c.34.52.26.98-.39.43-23.86-22.84-56.21-31.48-88.21-23.5-9.42,2.35-18.11,5.99-26.52,10.72-.32.18-.81.3-1.05.3-1.52.01,2.26-2.97,1.39-6.08-.83.5-1.64.97-2.18,1.06-.76.12-1.63-1.32-1.28-2.06,2.63-5.59.02-11.87-5.84-13.9-1.96-.68-4.01-.66-6.3-.91,6.71-2.93,13.16-1.33,18.59,3.59,1.63,1.47,4.45,1.3,5.38-.82,1.01-2.27-.09-4.92-2.12-6.31l.1-.66,6.27,1.24c5.6,1.63,11.15-.67,13.96-5.75,1.97-3.56,2.66-8.03.21-11.6-.94,5.72-5.82,9.06-11.09,7.42-2.89-.9-5.6-.49-8.38.67l-7.62,3.16c1.12-2.07,2.24-3.44,1.54-5.6-.35-1.07-1.69-1.86-2.65-1.92-4.64-.27-2.69,3.75-5.57,6.77-1.44,1.51-3.17,2.64-4.95,3.78l-10.96,7.03,8.21-11.18c2.57-3.5,5.23-6.83,8.6-9.53,3.67-2.96,9.73-5.39,11.83-2.03.3.49.42,1.57.1,1.96-.31.38-1.38.56-2.14.65-.19.45.21,1.75.82,2.13.63.39,1.83.62,2.68.45,2.37-.48,3.65-2.55,3.63-4.74-.02-2.22-1.66-4.13-4.04-4.75-3.82-1-7.27.56-11.18,2.47,4.32-5.09,13.68-11.97,20.5-11.51,2.52.17,4.38,1.86,4.99,3.81.76,2.49-.2,4.94-2.55,6.28,1.87,1.83,4.38,1.61,6.44.39,3.66-2.16,5.58-6.35,4.01-10.45-.64-1.69-2.11-2.9-3.87-4.08,4.97-2.23,10.72-2.21,15.91.13,6.64,2.99,13.83,2.25,17.8-3.73,2.47-3.72,3.41-8.31,1.92-12.75-1.05,5.48-5.21,9.01-10.7,8.48-2.33-.23-4.68-.9-6.9-1.75-2.97-1.14-6.2-1.34-9.17.07l-7.82,3.7,2.35-4.25c1.17-3.06-.23-6.2-3.16-7.59-3.21-1.53-7.1-.95-9.88,1.53,2.49.9,3.48,3.32,2.75,5.83-1,3.39-3.38,6.21-6.23,8.39l-10.27,7.86c-4.14,3.18-7.46,6.81-11.03,10.8,1.78-5.04,5-8.89,8.38-12.68,1.62-2.04,1.91-4.82-.13-6.55-.75-2.96.7-5.89,3.65-6.92l1.97.43c.42.1.62,1.26.28,1.54l-1.04.87c-.21.19.42,1.01.67,1.16.53.35,1.85.36,2.39-.01.49-.33,1.17-1.3,1.34-2.02.61-2.59-1.16-4.96-3.71-5.79-3.98-1.3-8.49-.17-11.62,2.63-2.81,2.5-3.59,6.16-2.74,9.78.39,1.62.56,3.22.31,5.11-1.52-1.93-3.15-3.25-5.5-2.52-1.54.49-2.46,1.98-2.7,3.33-.31,1.73.35,2.94,1.44,4.28,4.15,5.03.44,15.31-3.56,21.12,1.28-6.55.24-12.27-3.22-17.54-3.31-5.06-6.58-11.65-2.57-15.93-3.15-1.46-6.08.84-6.67,3.89-2.26-2.36-5.46-1.03-5.98-4.62-2.79,1.88-3.56,5.59-1.95,8.43.74,1.31,1.75,2.34,2.87,3.67l-7.73-1.09c-5.97-.84-10.81,2.81-12.36,8.43-.59,2.12-2.32,3.77-4.08,4.27-2.41.69-4.34-.27-6.18-2.08.5,4.69,4.82,7.44,9.31,6.59,3.45-.65,5.91-3.04,8.29-5.64.04,1.87.67,3.39,2.12,3.86,1.3.42,3.79-.03,3.98-1.57.19-1.63.51-3.09,1.65-4.21,1.59-1.57,3.65-2.52,6-2.55-1.74,2.31-1.82,5.31,0,7.31,1.56,1.72,4.18,1.99,5.8.41l-.22-1.92c.26-1.38,1.52-2.32,2.64-2.52,1.38-.25,2.87.33,3.75,1.56,5.79,8.05-1.77,22.68-8.81,29.68-.18-2.54-.97-4.55-1.93-6.49,1.21-1.88,2.17-3.97,1.29-6.24-2.25-5.84-10.32-5.14-16.41-2.98-6.2,2.2-11.69,5.3-17.24,8.9-9.43,6.13-18.13,12.78-26.96,19.75-6.65,5.25-12.9,10.4-19.11,16.13-8.08,7.47-14.16,16.11-19.23,26,2.97-12.06,7.84-23.03,13.56-33.78,8.5-15.97,19.22-30.53,32.24-43.1,11.01-10.64,22.94-20,36.18-27.69,10.58-6.14,21.68-10.63,33.24-14.63,16.88-5.83,34.13-9.42,51.97-10.65,24.61-1.7,48.8,1.98,71.8,10.73,15.24,5.79,29.42,13.67,42.32,23.68,19.75,15.33,35.84,34.59,47.83,56.54,10.25,18.76,17.48,39.07,20.74,60.24,3.88,25.2,2.36,50.52-4.37,75.02l-5.98,18.53Z"/>
        <path d="M205.271,32.47c-3.81-.15-7.54-1.45-10.68-3.72l-9.13-6.56c-5.95-4.29-13.96-6.56-19.84-1.98-5.02,3.91-7.55,12.7-2.86,16.64,1.81.8,3.41.77,5.04.26,1.62-.74,2.96-1.8,2.99-3.74,0-.51-.69-1.61-1.2-1.67-.57-.06-1.55.77-2.11,1.16-1.38-.07-1.67-2.29-1.05-3.48,1-1.9,2.56-2.88,4.56-2.88,1.85,0,3.89,1.021,4.75,2.98,1.27,2.87.25,6.09-2.05,8.24-3.56,3.32-8.65,4.43-13.42,2.85-1.71,4.53-4.47,2.96-8.31,4.23l-6.84,2.26c-1.05.35-2.17.46-3.31.33-11.9,12.48-26.75,2.65-37.22,3.45-5.89.45-10.89,4.06-12.39,9.74-.7,2.63-.55,5.33.84,7.59,1.09,1.78,2.99,2.61,4.93,2.22,1.8-.36,3.56-2.08,3.52-4.19-.01-.42-.59-1.37-.95-1.54-.42-.19-1.26-.03-1.76.2l-1.04.49c-.26.12-.63-.79-.7-1.14-.37-1.91.84-3.81,2.55-4.5,1.99-.81,4.03-.36,5.52,1.4,1.46,1.71,1.72,4.34.74,6.56-1.85,4.19-6,7-10.44,7.34.23,3.3-2.3,4.85-5.06,5.67-1.83,1.96-3.74,4.21-5.95,5.85-1.7,1.26-3,2.62-5.1,3.39,2.84-4.14,4.3-8.12,4.16-12.93-.24-8-.55-14.59,4.24-21.32,3.91-5.51,9.979-8.48,16.82-8.61,8.47-.17,15.76,3.57,22.97,3.61,4.2.03,8.08-1.36,10.99-4.2,3.46-3.37,4.22-8.58,1.38-12.53-1.21-1.69-3.58-1.94-5.44-1.43-2.81.77-5.1,2.84-5.59,5.74-.28,1.64.73,3.35,2.33,3.521,1.41.15,2.61-.92,3.49-2.56.61.41.99,1.63.74,2.44-.9,2.83-3.5,4.34-6.3,4.25-2.64-.08-4.98-2.02-5.74-4.85-1.23-4.58.88-9.21,4.75-11.97,2.73-1.94,5.99-2.66,9.33-1.7,2.87.82,5.26,3.03,6.7,6.21,2,4.43.9,9.21-1.82,13.44,6.37-3.06,7.74-10.31,9.49-16.94,3.26-12.35,16-19.05,28.04-14.72,8.75,3.14,13.42,9.55,20.26,12.8,3.79,1.81,8.3,1.93,11.74-.41,2.66-1.81,3.63-4.96,2.73-7.89-.85-2.75-3.57-5.02-6.77-4.75-1.99.17-3.86,1.34-4.21,3.29-.21,1.17.42,2.67,1.33,3.06,1.08.46,2.4-.1,3.41-.94.9,1.43-.15,3.22-1.78,4-2.6,1.24-5.84.16-7.4-2.45-2.28-3.82-.94-8.78,2.77-11.31,3.25-2.21,7.31-2.47,10.92-.58,3.08,1.61,5.43,4.92,5.69,8.86.51,7.74-5.43,13.75-13.26,13.42Z"/>
        <path d="M57.871,322.37c-.03-.01-.06-.02-.09-.03,0-.02,0-.05.01-.07.03.03.05.07.08.1Z"/>
        <path d="M57.981,321.46c.03.12-.12.52-.19.81-.21-.26-.43-.51-.66-.75-.21-.22-.42-.43-.64-.63-.37-.33-.75-.64-1.15-.93-.27-.19-.55-.37-.83-.53-.18-.1-.36-.2-.54-.29-.15-.08-.3-.15-.45-.22-.22-.1-.44-.19-.67-.27-.26-.11-.54-.2-.82-.27-.24-.07-.48-.13-.72-.18l-8.1-1.65c-9.56-1.4-16.54-8.58-17.6-18.27-.52-4.73.85-9.35,2.79-13.75l3.94-8.93c2.02-4.58-.27-13.08-6.34-13.53-2.19-.17-4.2.94-5.04,2.73-.93,1.95-.94,4.3.8,5.92.51.47,1.63.81,2.28.8.66,0,1.92-1.14,1.71-1.771l-.72-2.26c1.69-.7,3.31.51,3.78,2.39.43,1.7-.18,3.45-1.3,4.6-1.25,1.28-3.1,1.91-5.06,1.68-4.05-.46-6.89-3.82-7.33-7.68-.45-3.92,1.78-7.83,5.7-9.19,3.94-1.36,7.71-.02,11.12,2.47-2.01-3.86-5.4-6.15-9.16-7.86-4.41-2.01-8.31-4.72-10.93-8.83-4.52-7.11-3.48-15.8,2.26-21.94l7.67-7.61c2.42-2.4,3.91-5.521,3.8-8.91-.08-2.67-1.35-5.01-3.63-6.27-2.03-1.13-4.36-.83-5.99.76-1.44,1.42-2.12,3.76-.87,5.75.54.87,1.87,1.3,2.87.87.81-.35,1.12-1.43.88-2.78.41-.11,1.47.05,1.79.44,1.41,1.69.76,4.82-1.75,6.42-1.58,1.01-3.72,1.04-5.46.18-3.89-1.93-5.25-6.64-3.65-10.57,2.08-5.13,7.63-7.08,12.53-4.47,2.06,1.11,3.5,2.88,5.07,4.81-.63-4.14-3.22-7.07-6.14-9.76-4.25-3.95-7.45-8.71-7.86-14.69-.5-7.38,3.17-14.37,9.27-18.47,4.67-3.15,9.76-4.59,13.76-8.24,2.56-2.33,4.29-5.53,4.04-9.02-.19-2.61-1.87-5.02-4.43-5.54-3.24-.66-6.26,2.12-6.11,5.29.06,1.31.99,2.4,2.17,2.38,1.08-.02,1.85-1.1,2.27-2.31.87-.2,1.58,1.12,1.45,2.28-.24,2.24-2.03,3.83-3.91,4.28-2.2.52-4.31-.29-5.76-2.03-2.07-2.48-2.11-5.88-.68-8.77,2.05-4.17,6.56-6.46,11.04-5.01,4.32,1.41,6.44,5.23,6.99,10.03,2.57-8.1-5.65-13.97-6.02-23.12-.29-7.28,3.78-13.52,10.229-16.89,10.3-5.36,24.5-3.59,28.65-13.92,1.12-2.78.84-5.86-1.16-8.05-2-2.21-4.9-2-7.02-.09-1.72,1.55-2.6,4.13-1.09,6.09.34.45,2.03.56,2.41.13l1.66-1.9c.36.22.92,1.53.77,2.25-.52,2.66-2.85,4.33-5.31,4.48-2.44.14-4.81-1.6-5.6-4.12-1.36-4.41.72-8.8,4.48-11.37,3.41-2.33,7.77-2.3,10.91.54,2.8,2.54,4.05,6.3,3.41,10.17-.76,4.66-3.93,8.53-8.03,10.92-9.66,5.6-23.22,3.71-27.92,12.94-1.82,3.58-1.2,8.01,1.97,10.4,1.51,1.14,3.37,1.2,4.98.32,1.33-.72,2.29-2.22,2.06-4.17-.09-.71-.9-1.72-1.56-1.7-.75.02-1.35.71-1.95,1.45-.42.47-1.69-.67-1.79-1.46-.23-1.64.6-3.06,1.69-3.9,1.36-1.06,3.19-1.15,4.73-.34,2.02,1.07,3.04,3.29,2.95,5.61-.17,4.3-3.07,7.55-7.01,8.85,1.8,1.75,1.33,4.24-.57,5.48-1.16.75-1.37,1.25-1.62,2.69-.54,3.05-2.05,6.13-3.5,8.75l-.95.54c-.79,7.94-6.2,12-13.17,15.46-5.25,2.61-9.51,5.01-11.68,10.73-1.55,4.12-.46,9.05,3.02,11.62,1.81,1.35,4.11,1.24,5.66-.021,1.65-1.33,2.14-3.71.75-5.63-.33-.46-1.56-.93-2.05-.71-.56.25-.79,1.49-.81,2.48-2.38-.34-3.22-3.14-2.12-5.17.68-1.26,2.09-2.16,3.37-2.25,1.5-.11,3.1.57,4.16,1.74,1.97,2.16,2.43,5,1.7,7.87-.61,2.39-2.34,4.74-4.83,5.75,1.3.88,2.08,1.72,2.31,2.66.35,1.4-.33,2.61-1.21,3.57-.03,3.35.28,6.9-.56,10.16-.24.93-.47,1.34-.15,2.3,1.55,4.6.17,9.42-2.81,13.21-4.09,5.22-9.71,8.07-11.69,14.49-1.73,5.61,1.41,11.61,7.27,12.39,1.72.23,3.521-.86,4.17-1.95.97-1.65.8-3.55-.52-4.86-.32-.31-1.35-.58-1.78-.44-.49.17-.75,1.25-.78,2.11-.02.54-1.49.58-2.03.19-1.14-.84-1.76-2.15-1.64-3.47.09-1.11.99-2.54,2.1-3.11,2.5-1.3,5.14-.41,6.95,1.62,2.85,3.21,2.64,7.88-.06,11.44,1.07.45,2.13,1.1,2.58,1.9.63,1.1.04,2.62-.38,3.62l2.02,4.91,1.4,5.99c-.22.16-.61.43-.54.52l.48.62c8.63,11.23-1.02,20.05-3.39,29.8-1.05,4.35-.12,8.95,2.71,12.38,2.17,2.62,5.49,4.14,8.77,3.64,1.95-.3,3.43-1.76,3.7-3.35.32-1.92-.59-4.06-2.59-4.61-.44-.12-1.32.02-1.59.3-.9.94.58,2.66.14,2.83-2.07.82-3.9-.23-4.59-2.06-.54-1.42-.33-3.16.83-4.32,1.59-1.59,4.01-1.93,6.1-1.01,4.39,1.92,6.47,7.02,4.8,11.6,1.25.03,2.47.18,3.25,1,.72.75,1,1.87,1.24,3.17l2.22,2.71,3.98,6.89Z"/>
        <path d="M97.661,366.68c-7.96-4.15-14.16-.02-22.24-1.38-7.89-1.32-13.54-7.41-14.25-15.4-.73-8.14,2.49-14.86-1.42-21.58-1.6-2.75-4.3-4.81-7.57-4.73-2.46.06-4.32,2.05-4.45,4.12-.17,2.48,1.43,4.69,4.11,4.96.77.07,1.95-.78,2.08-1.49.1-.62-.6-1.59-1.29-2.32.89-1.1,2.95-.66,3.85.6,1.02,1.44,1.38,3.03.72,4.66-.58,1.42-1.99,2.62-3.74,3.07-2.98.78-5.85-.43-7.82-2.38-2.19-2.17-3.14-5.38-2.19-8.41,1.03-3.29,4.13-5.28,7.56-5.58.23-.02.46-.03.68-.03.26,0,.51.01.76.04.2.02.4.04.59.08.19.03.38.06.58.11.14.03.29.06.44.1.14.03.29.07.43.12.16.04.31.09.47.14.16.04.31.1.47.15.25.08.51.17.76.26.02,0,.04.01.07.021.49.17.99.35,1.52.53-.01.03-.02.06-.01.08-.01.08-.01.13.02.15l.8.66c3.7,3.07,5.83,7.41,6.09,12.33l-.34,9.75c-.11,3.02.09,6.02,1.45,8.65,2.04,3.96,6.37,6.4,10.61,5.33,1.98-.5,3.32-2.01,3.38-3.71.05-1.87-1.2-3.6-3.23-3.9-.52-.07-1.65.63-1.7,1.15-.05.48.4,1.18.93,1.79-1,1.35-3.37.96-4.44-.61-.86-1.26-.94-3.01-.08-4.37.72-1.14,2.3-2.09,4.03-2,4.51.22,8.17,4.18,8.27,8.99,4.48-1.61,4.31,1.89,7.27,3.77,2.63,1.67,4.97,3.53,6.83,6.28Z"/>
        <path d="M388.621,328.07c-1.04,2.74-2.94,5.03-5.07,7.08-4.03,3.88-9.23,5.71-14.57,7.33l-9.91,3c-3.94,1.72-6.96,5.07-7.54,9.27-.28,2.03.59,3.88,1.99,4.84,1.66,1.13,3.56,1.07,5.28,0,1.56-.96,2.59-2.44,2.37-4.37-.1-.99-1.08-2.01-2.07-1.85-.92.14-1.57,1.1-1.99,2.31-.94-.3-1.44-1.61-1.08-2.74.75-2.35,2.98-3.69,5.42-3.48,2.11.19,4.12,1.93,4.59,4.35.62,3.2-.84,6.229-3.19,8.25-2.39,2.04-5.82,3.07-8.92,1.76-4.28-1.81-5.69-6.35-4.8-11.03-1.8,1.69-2.9,4.1-2.86,6.521l.13,7c.1,5.76-1.38,11.43-5.3,15.68-7.76,8.43-18.15,8.42-28.98,7.63-4.05-.29-8.04-.07-11.68,1.53-4.1,1.79-7.39,5.4-5.83,8.72.4.85,1.54,1.79,2.74,2.17,2.54.78,5.5-.3,6.66-2.71.41-.85.1-2.22-.59-2.63-.65-.4-1.94-.07-2.55.44l-.81.7c-.2.17-.7-.88-.66-1.19.22-1.62,2.5-3.28,4.24-3.37,2.22-.12,4.23.61,5.28,2.68,1.01,1.98.47,4.26-.84,6.12-2.28,3.24-6.35,4.9-10.34,4.28-4.31-.66-7.13-4.74-6.03-9.11,1.61-6.46,9.04-9.76,15.39-10.45,8.35-.92,15.84,1.9,23.95-1.53,3.47-1.47,6.39-4,7.48-7.57.76-2.46.38-5.31-1.78-6.81-2.3-1.59-5.72-.43-6.78,2.14-.19.46-.04,1.54.32,1.8.35.26,1.29.12,1.72-.04l1.08-.4c.51-.19,1.54,2.71-1.11,4.41-1.5.97-3.33,1.11-4.82.15-1.34-.86-2.14-2.77-1.67-4.71,1.15-4.71,5.74-7.85,10.84-7.58-.92-1.95-.38-4.03,1.46-5.07l2.44-1.37c1.97-3.41,5.77-7.24,9.33-8.38l1.6-3.05c3.04-4.39,7.57-6.77,12.66-8.21l10.06-2.86c7.31-2.92,12.79-10.01,9.15-16.17-1.11-1.89-3.08-2.86-5.15-2.63-1.97.21-3.82,1.47-4.25,3.71-.18.91.17,2.03,1.06,2.34.71.25,1.77-.61,2.26-1.37,1.29-.23,2.02,1.59,1.75,2.87-.53,2.47-2.88,3.91-5.24,3.6-2.31-.3-4.01-2.47-4.06-5.02-.09-4.62,3.1-8.48,7.69-9.82-.99-.85-1.49-1.96-1.16-3.27.25-1,1.43-1.99,2.33-2.65.36-1.85.65-3.89,1.5-5.54l2.86-5.48c-.22,4.43.92,7.8,3.31,11.24,3.84,5.48,5.12,12.18,2.69,18.54Z"/>
        <path d="M292.601,393.88c-2.25,1.88-3.93,3.95-4.83,6.69l-2.42,7.37c-1.9,5.77-6.96,9.83-13.01,10.49-2.29.25-4.74-.38-6.1-2.44,2.65.95,5.35.81,7.82-.61,2.02-1.15,3.78-3.5,4.05-6.17.21-2.11-.97-3.81-2.69-4.44-1.83-.67-4.06-.04-5.03,1.88-.2.41.07,1.65.51,1.77.44.12,1.2-.16,1.96-.41.56-.19,1.07,1.45.75,2.06-.66,1.27-1.79,2.06-2.89,2.17-1.49.16-2.9-.3-3.74-1.51-1.15-1.65-1.14-3.68-.13-5.36l-.38-.51c-1.45.78-3.09,1.96-3.97,3.59l-3.17,5.9c-1.8,3.35-4.23,6-7.61,7.7-8.28,4.17-17.83,2.95-25.05-2.85-2.73-2.18-5.34-4.29-8.47-5.8-6.03-2.91-12.73-1.08-12.98,3.46-.09,1.8,1.25,3.27,2.45,3.84,1.83.88,3.74.89,5.19-.57.36-.37.54-1.48.33-1.93-.22-.5-1.29-.88-1.82-.88l-1.31-.02c-.31,0,.25-1.1.52-1.34,1.37-1.2,4.15-1.02,5.57.4,1.54,1.54,1.89,4.06.62,6.07-1.83,2.92-5.37,3.93-8.7,3.04-2.98-.8-5.52-3.44-5.8-6.89-.23-3.04,1.55-5.25,3.73-7.4-2.66-.09-4.43,1.52-5.93,3.22l-4.57,5.2c-3.13,3.55-8.12,4.53-12.89,4.1-7.31-.67-13.3-5.06-17.39-11.05-2.1-3.06-3.98-6.16-6.67-8.62-4.82-4.4-11.75-4.73-13.12-.79-.67,1.91-.05,3.81,1.54,5.01,1.9,1.44,4.24,1.74,5.53.19.28-.33.25-1.57-.09-1.83-.6-.44-1.78-.72-2.63-.9.25-1.09,1.4-1.72,2.52-1.66,2.47.11,4.22,2.05,4.46,4.29.24,2.31-1.27,4.35-3.66,5.15-3.29,1.11-7.11.01-9.53-2.56-2.03-2.15-2.66-5.11-1.56-7.92.91-2.32,3.2-4.12,6.32-4.85-2.81-.97-5.81-.1-8.67,1.12l-7.05,3.02c-10.74,3.13-19.93-3.7-23.31-14.26l-2.29-7.13c-1.05-3.27-2.54-6.28-4.99-8.67-4.03-3.93-9.69-3.66-11.04-.65-.74,1.63-.36,3.48.55,4.65,1.12,1.45,2.58,2.41,4.66,2.06.5-.09,1.46-.9,1.5-1.4.04-.6-.68-1.52-1.2-1.87l-.95-.61c-.25-.17.62-.85.97-.92,2.13-.41,4.4,1.4,4.86,3.69.44,2.24-.97,4.51-3.34,5.3-3.51,1.16-7.24-.12-9.69-2.9-1.93-2.17-2.54-5.12-1.47-8.03.85-2.28,3.22-4.17,6.08-4.64,3.81-.63,7.44.77,10.46,3.29,3.7,3.11,5.86,7.49,7.23,12.17,1.84,6.31,4.25,13.28,10.65,15.64,2.7.99,5.62.64,7.71-1.31,1.32-1.24,1.65-2.97,1.01-4.47-.68-1.58-2.32-2.76-4.21-2.3-.38.09-1.08.63-1.17.97-.33,1.28,2.84,2.24.73,3.19-2.11.95-4.47-.28-5.14-2.54-.57-1.91.54-4.28,2.93-4.96,4.27-1.22,8.91,1.43,10.48,5.61,2.23-1.64,4.16-.45,5.55,1.17l6.19,2.14c1.52.52,2.69,1.42,3.77,2.65,5.28-.11,10.03,2.27,13.55,6.23l5.91,7.99c2.85,3.85,6.56,6.93,11.28,7.87,2.98.58,6.18-.5,7.78-2.86,1.19-1.76,1.21-3.84.08-5.43-1.03-1.45-3.15-2.2-5-1.37-.38.18-.95.86-.99,1.23-.17,1.36,2.09,1.25,2.19,1.76.05.24-.16,1-.41,1.25-1.4,1.36-4.56,1.04-5.81-.94-1.35-2.14-.57-4.8,1.98-6.02,3.79-1.82,8.34-.47,11.14,2.57,1.56-2.03,4.06-2.04,5.76-.42,3.41-1.07,7.1-.84,10.24.87,4.66-2.34,11.91-.98,16.07,2.01l7.09,5.1c6.81,4.89,16.4,5.07,19.58-1.21.97-1.93.78-4.11-.78-5.52-1.36-1.24-3.9-1.53-5.47-.03-.3.29-.61,1.23-.46,1.6.5,1.24,3.28-.04,2.28,1.87-.77,1.46-3.51,2.22-5.1,1.03-1.71-1.27-2.1-3.74-.48-5.62,2.77-3.22,7.84-3.57,11.61-1.05,1.96-4.22,4.75-1.41,6.92-2.5,2.77-1.4,5.64-2.48,8.45-2.08l.42.62c2.28-3.03,6.06-4.6,10.18-3.51.65-2.39,2.72-3.75,5.27-3.24,2.8-2.61,6.28-4.15,10.18-4.49Z"/>
        <path d="M344.491,68.55c-2.63,3.41-6.79,4.84-10.94,3.68-3.2-.89-5.73-2.83-7.69-5.53-5.05-6.94-4.17-14.85-7.56-22.32-1.93-4.25-5.98-7.18-10.62-6.76-4.1.37-7.13,3.96-6.44,7.87.4,2.27,2.18,3.89,4.41,3.5.84-.15,1.82-1.07,1.85-1.81.04-.86-.61-1.6-1.59-2.28.17-.97,1.55-1.91,2.58-1.91,1.21.01,2.37.66,3.16,1.72.93,1.23,1.11,3.19.43,4.8-.48,1.12-1.83,2.57-3.4,3.14-4.09,1.49-8.6-.65-10.67-4.22-1.61.68-2.98,0-3.6-1.52l-.39-.96c-.11-.27-.97-.01-1.29.14-4.38.06-8.44-1.61-11.88-3.95l-.43-.58c-7.48,1.58-14.84-3.68-19.02-10.17l-6-9.32c-2.35-3.65-5.63-6.44-9.76-7.72-4.66-1.45-9.66.12-12.2,4.19-1.72,2.74-1.56,6.12.77,8.271,1.78,1.64,4.51,1.93,6.28.2.31-.31.58-1.38.45-1.8-.15-.49-1.1-1.05-1.61-1.14l-1.2-.2c-.63-.11.23-3.24,3.45-3.53,1.32-.12,2.96.66,3.86,1.92,1.81,2.52.94,5.97-1.51,7.91-3.71,2.93-9.05,2.62-12.67-.3-.92,1.14-1.84,1.77-3.17,2.27-1.87.02-3.57-.3-5.3-.95-3.31.23-6.46.38-9.98.02,3.31-1.59,5.97-2.96,7.78-5.98l4.84-8.02c3.53-5.84,10.07-8.7,16.85-7.74,9.75,1.39,14.76,8.41,19.53,16.27,3.68,6.06,8.45,13.04,15.7,13.22,3.12.07,5.83-1.74,6.69-4.42.9-2.81-.22-5.83-2.66-7.58-1.7-1.23-3.78-1.69-5.53-.35-.99.77-1.39,2.28-.82,3.36.52,1,2.12,1.27,3.33,1.17.24,1.57-1.65,2.81-3.44,2.55-3.15-.46-5.22-3.34-4.99-6.57.2-2.89,2.09-5.39,4.88-6.41,4.88-1.77,10.22.43,12.65,5.05,3.27,6.2-.09,13.83-6.82,15.71l.09.29c3.81.83,7.72-.01,10.99-2.42l6.19-4.55c5.95-4.37,13.93-3.32,19.01,2.021,2.9,3.04,4.86,6.71,5.82,10.82l1.85,7.91c1.48,6.33,4.26,13.64,11.08,14.09,3.01.2,5.65-1.8,6.13-4.55.51-2.93-1.23-6.05-4.32-6.48-1.42-.19-2.68.59-2.95,1.81-.29,1.31.6,2.47,2.42,2.76-.44.74-1.48,1.55-2.22,1.52-1.08-.05-2.22-.53-2.91-1.31-1.61-1.82-1.65-4.5-.56-6.62,1.03-2,3.26-3.44,5.8-3.47,3.74-.05,6.83,2.18,8.32,5.18,1.67,3.36,1.22,7.15-1.05,10.08Z"/>
        <path d="M386.131,120.88c-4.06,3.22-9.64,2.8-13.48-.48-3.03-2.6-4.79-6.21-5.42-10.19-1.13-7.17,1.32-13.22.94-19.81-.2-3.48-1.75-6.81-4.58-8.64-3-1.92-6.62-2.12-9.43-.05-1.33.99-1.97,2.61-1.82,4.17.14,1.57,1.26,3.06,3.03,3.46.61.14,1.88-.23,2.16-.69.36-.59-.2-1.64-.75-2.42-.04-.88,1.69-1.43,2.74-1.09,1.32.42,2.29,1.61,2.56,2.79.33,1.4-.08,3-1.15,4.07-1.91,1.92-4.81,2.1-7.26.94-3.07-1.45-4.96-4.49-5.4-7.89-1.08.21-2.23.12-3-.59-.67-.62-1.11-1.98-1.36-2.97-1.6-.96-3.47-1.86-4.72-3.3l-4.06-4.64c6.79,3.23,12.05,0,19.19.02,10.86.04,18.02,7.86,17.5,18.79l-1.34,10.29c-.61,4.75-.4,9.48,2.21,13.52,1.63,2.52,4.46,4.33,7.39,3.92,2.33-.32,4.07-1.88,4.6-3.61.74-2.44-.14-4.58-2.15-5.96-1.14-.78-2.87-.61-3.7.37-.29.34-.62,1.46-.32,1.72l1.34,1.11c.43.36-.61,1.42-1.34,1.42-2.39-.01-3.96-2.23-3.84-4.66.17-3.57,3.32-5.81,6.93-5.59,3.6.22,6.61,2.89,7.62,6.1,1.13,3.56.04,7.41-3.09,9.89Z"/>
        <path d="M418.311,236.37c-1.3,4.67-5.95,7.45-10.55,6.79-4.78-.69-8.27-4.25-8.52-9.49-.21-4.27,1.34-8.28,4.29-11.18l7.72-7.6c1.87-1.84,3.23-4,4.08-6.45,1.55-4.45-.25-9.4-4.45-11.46-2.32-1.14-4.96-.76-6.57,1.18-1.2,1.45-1.43,3.43-.3,5.02.34.46,1.66.9,2.14.63.49-.26.69-1.32.81-2.18.54-.57,2.18-.09,2.73.72,1.36,2.04.8,4.55-1.33,5.86-2.48,1.52-5.82.62-7.49-1.95-2.37-3.61-1.74-8.54,1.32-11.65-2.5-.23-4.16-2.08-3.65-4.55.23-1.11-.21-2.021-.54-3.13-1.03-3.43-1.6-6.92-1.94-10.62,1.78,2.22,2.93,4.33,5.12,5.62l7.271,4.28c1.83,1.07,3.53,2.16,5.09,3.56,7.47,6.7,8.24,17.67,1.75,25.38l-6.82,6.72c-2.16,2.14-4.38,4.27-5.52,7.04-1.24,3.02-1.29,6.27.74,8.74,1.74,2.12,4.51,2.69,6.84,1.49,2.15-1.11,3.57-3.84,2.62-6.3-.46-1.17-1.83-1.79-2.71-1.52-1.32.4-1.6,1.57-1.53,3.01-.47.24-1.53.14-1.83-.26-1.41-1.85-.58-5.02,1.8-6.46,1.7-1.03,3.75-1.13,5.58-.28,3.32,1.54,4.85,5.43,3.85,9.04Z"/>
        <path d="M388.561,300.86c1.87,1.39,4.1,1.42,6.04.31,1.88-1.08,3.13-3.12,2.71-5.36-.23-1.23-1.51-2.021-2.61-1.79-1.23.25-1.82,1.33-1.93,2.79-.7-.15-1.4-.42-1.56-.8-.16-.39-.33-1.6-.21-2.17.54-2.59,4.01-4.58,6.79-4.01,3.09.63,5.1,3.43,4.94,6.64-.17,3.34-2.12,6.08-4.52,7.6-3.05,1.93-6.71,2.07-9.73.48-3.42-1.78-5.26-5.28-4.76-9.31.95-7.68,7.09-12.3,13.69-15.31,5.86-2.66,12.77-6.52,12.51-13.43-.12-3.57-2.56-6.689-5.99-7.22-1.51-.24-2.99.15-4.12,1.1-.89.76-1.68,2.24-1.39,3.74.14.75,1.11,1.65,1.78,1.69.9.04,1.36-.93,1.87-1.91.72-.19,2,.61,2.26,1.27.37.89.45,2.23-.03,3.11-.95,1.74-2.63,2.6-4.46,2.57-1.61-.02-3.48-.95-4.44-2.6-2.4-4.11-.47-9.24,3.37-11.689-1.05-.97-1.79-2.03-1.71-3.14.07-1.02.83-2.09,1.59-2.93-.95-3.68-.69-7.5,1.01-11.12,1.53,7.2,6.99,9.04,11.44,14.91,5.09,6.73,4.48,15.55-1.38,21.61-5.43,5.61-12.56,6.7-18.16,11.04-5.08,3.93-6.97,11.01-3,13.93Z"/>
        <path d="M413.691,170.39c-.4,2.78-2,5.43-4.92,6.99-3.96,2.12-8.93,1.35-12-1.85-3.08-3.21-4.31-7.57-3.87-11.99.35-3.62,1.85-6.79,3.52-9.94l3.16-5.94c1.21-2.27,1.43-4.88.72-7.39-1.26-4.47-6.31-6.89-10.45-4.79-1.18.6-2.09,1.92-2.3,2.9-.33,1.5.14,2.89,1.44,3.84.44.32,1.84.33,2.29-.07.45-.4.25-1.56.14-2.36.73-.95,2.39-.37,3.02.28.9.92,1.28,2.27.93,3.6-.8,3.02-4.42,4.07-7.21,2.72-3.75-1.81-5.23-6.05-3.98-10.06-2.5.04-3.95-1.7-3.77-4.02-2.57-2.67-4.45-5.771-5.44-9.32,3.21,2.47,6.38,3.36,10.07,3.59,7.16.46,14.11,1.75,17.74,8.43,2.38,4.39,2.3,9.07.46,13.31l-3.89,7.25c-1.43,2.65-2.82,5.28-3.29,8.29-.56,3.65.5,7.45,3.18,9.82,2.11,1.86,5.01,1.92,7.09.48,2.13-1.46,3-4.44,1.8-6.81-.78-1.58-2.71-2.37-4.21-1.3-1.03.74-.48,2.33-.24,3.35-.36.94-2.05.59-2.69-.23-1.84-2.33-1.17-5.54,1.3-7.26,2.6-1.8,6.12-1.53,8.54.62,2.24,1.99,3.28,4.92,2.86,7.86Z"/>
        <path d="M365.781,130.74c-5.57-2.58-10.72-5.51-15.94-8.83-8.02-5.1-15.56-10.44-22.92-16.43-5.93-4.84-10.67-10.34-14.48-16.94-2.89-5-6.22-9.26-10.13-13.729,8.86,3.87,16.52,9.24,23.83,15.39,6.19,5.2,11.51,10.88,17.08,16.76l22.56,23.78Z"/>
        <path d="M148.511,381.311c-9.37-3.12-18.17-7.59-26.67-12.88-11.34-7.06-21.9-14.79-32.14-23.26l-4.34-4.04,15.04,4.88c8.85,2.86,16.85,7.19,24.54,12.35,5.26,3.54,9.63,7.67,13.52,12.82,2.96,3.93,6.22,6.75,10.05,10.13Z"/>
        <path d="M177.721,344.9c-11.96-.06-21.03-4.16-26.76-14.91,2.18,1.01,4.47,1.75,6.83,1.43,2.85-.38,4.44-2.42,4.4-5.35l5.77,8.12c2.84,4,6.06,7.47,9.76,10.71Z"/>
        <path d="M113.301,210.42l-2.93,2.7c-.27-2.14-1.19-2.89-2.66-3.68-2.22-1.18-2.48-4.16-2.34-6.42,1.22,1.78,2.92,3.19,4.61,3.53,2.46.5,4.42-.33,6.39-2.33.23,2.7-1.16,4.44-3.07,6.2Z"/>
        <path d="M120.851,293.99c-1.1,1.24-1.6,2.24-2.08,4.06l-1.73-1.68c-3.8.22-6.82-2.2-7.53-5.71,1.51,1.16,3.21,1.97,5.07,2.13,3.11.28,5.52-1.54,6.76-4.36.66,1.84.83,4.08-.49,5.56Z"/>
        <path d="M110.761,231.47l-2.1,2.69c-.55-1.96-1.31-2.43-2.67-3.09-2.42-1.18-3.28-4.06-3.35-6.66,1.55,2.17,3.31,3.56,5.58,3.66,2.38.1,4.3-1.01,5.81-3.44.55,2.72-.57,5.32-3.27,6.84Z"/>
        <path d="M113.141,193.13c.78-4.8,1.39-9.2.79-13.81l2.97,3.1,4.09-.48c-3.56,3.58-5.59,6.89-7.85,11.19Z"/>
        <path d="M109.091,139.311c-2.93.92-6.28-.73-7.3-3.58-1.13-3.17.36-6.79,3.78-7.86,3.42-1.07,6.56.89,7.52,4.09.9,2.98-.84,6.36-4,7.35Z"/>
        <path d="M332.871,314.09c-.1,3.46-2.94,5.84-5.93,5.65-3.17-.2-5.5-2.85-5.31-6.16.19-3.21,2.63-5.47,5.67-5.48,3.08-.01,5.68,2.47,5.57,5.99Z"/>
        <path d="M305.291,170.67c-10.79-22.68-29.74-40.4-53.54-48.6-38.4-13.24-80.05,3.63-104.15,35.01-12.65,16.49-20.3,36.06-22.83,56.65-1.1,9.01-1.35,17.57-.34,26.62,3.94,35.11,23.87,68.81,56,84.79,27.41,13.63,57.85,11.49,83.22-5.64,10.35-6.99,18.92-15.96,26.23-26.07,11.03-15.24,18.95-32.36,23.11-50.74,5.49-24.24,2.98-49.57-7.7-72.02ZM312.911,226.32c-1.82,21.85-9.57,42.4-21.49,60.58-5.28,8.04-11.08,15.21-18.14,21.72-21.09,19.41-48.26,27.6-76.37,20.07-13.43-3.6-25.45-10.47-35.77-19.79-10.96-9.89-19.26-22.03-25.18-35.57-9.15-20.93-12.07-43.9-7.3-66.83,7.87,5.561,14.41,12.75,18.39,21.58,7.91,17.58,2.82,38.4-3.41,35.99-1.98-.76-1.84-3.09-1.58-4.91-1.02.82-1.9,2.15-2.25,3.53-2.25,8.89,4.59,18.96,13.48,18.83,4.42-.06,8.25-2.46,10.95-5.92,7.66-9.84,6.3-24.6.96-35.73-6.38-13.3-18.91-22.94-30.59-31.99-.17.06.32-.25.5-.34,14.83,4.3,31.14,13.5,42.48,23.86,4.5,4.11,9.6,11.01,7.05,16.43-.32.67-1.19,1.45-1.77,1.71-.67.29-2.08.05-2.59-.6-.26-.33-.38-1.46-.25-1.85.31-.97,3.08-.15,2.52-1.56-.24-.6-1.12-1.43-1.69-1.54-.6-.11-1.79.14-2.36.53-1.43.97-1.97,2.65-1.88,4.24.09,1.6,1.35,3.14,2.63,3.91-.77.86-1.3,1.65-1.42,2.47-.12.8.55,2.3,1.34,2.41,1.6.22,2.62.64,2.97,2.24.76,3.46-1.86,6.45-5.51,6.83,2.28,1.55,4.85,1.21,7-.04,2.01-1.16,3.57-3.44,3.46-6.02.2-3.03-1.44-5.57-4.54-6.2-.06-.43-.08-1.17.15-1.25l1-.34c3.479-1.6,4.87-5.55,4.08-9.34-.67-3.24-2.49-5.81-4.3-8.83,7.04,3.76,14.02,4.55,21.8,2.42-3.57,4.21-6,8.38-7.61,13.39-2.18,6.81-3.27,13.71-3.39,20.94-.09,5.88.68,11.47,1.18,17.28l.94,10.98c.22,2.6-1.41,7.23-4.18,7.47-.74.06-2.14-.49-2.58-1.17-.89-1.4-.76-2.95-.51-4.48-1.98,1.61-2.77,4.05-2.76,6.67.04,7.38,5.96,13.78,13.32,14.37,7.71.62,14.34-3.7,16.87-10.98,1.84-5.31,1.14-11.17-1.2-16.37l-5.86-10.52c-3.42-6.15-6.67-12.14-8.2-19.06-2.12-9.57-.76-19.25,5.6-26.55,1.72,2.34,3.24,3.89,5.33,5.42-4.26,9.02-1.83,19.03,3.38,27.14,7.96,12.38,23.54,19.35,23.13,33.44-.04,1.71-.47,3.88-1.85,4.86-1.4.99-2.96-.45-3.36-1.88-.25-.61-.54-.8-.58-.09.13,5.34,4.6,9.03,9.729,9.13,4.96.1,9.26-2.28,12.47-5.9,7.68-8.66,6.06-21.65-3.59-28.14-2.97-2-6.3-3.19-9.76-4.42l-13.68-4.83c-3.88-1.37-7.06-3.93-9.88-6.87-5.47-5.71-7.27-13.96-4.01-21.39,2.24.95,4.55,1.44,7.37,1.3,1.88,13.55,15.11,22.29,28.33,23.88,9.2,1.11,17.06-1.54,24.06,1.4,4.04,1.7,6.53,5.85,5.36,10.06-.24.88-1.18,1.86-1.98,1.91-.7.04-1.58-.73-2.44-1.53-.229,2.38,1.78,4.24,4.32,4.63,2.95.45,6.11-.74,8.44-2.91,9.92-9.25,11.23-26.5.3-33.01-3.85-2.29-8.35-2.39-12.58-1.1-7.21,2.2-12.22,8.19-19.73,11.61-8.89,4.05-19.07,2.62-26.09-4.13-3.02-2.91-4.98-6.45-5.78-10.88,7.8-1.63,13.36-7.68,14.93-15.66l2.74-.07c-.3,1.9.24,3.04,1.5,3.6,1.06.479,2.82-.25,3.21-1.49l.7-2.25,53.69-1.42c-1.14-.54-2.45-.49-3.83-.57l-7.37-.43-42.77-2.12c.12-1.87-.76-3.25-2.05-3.43-1.68-.23-2.88,1.07-2.85,3.01-.46.34-1.76.35-2.58.15-.77-7.86-5.05-14.48-13.2-16.46,1.64-5.91,5.75-11.1,11.63-13.1,5.72-1.95,11.75-1.03,17.22,1.33,4.35,1.88,8.01,4.57,11.63,7.6,7.64,6.42,15.2,12.19,25.75,10.08,6.76-1.36,11.72-6.42,12.96-13.19,1.29-7.05-1.39-14.45-7.39-18.33-2.94-1.9-6.7-2.49-9.39-.1,1.5-.11,3.15-.5,3.85,1.13.45,1.03-.49,2.59-1.45,3.28-6.5,4.66-15.53,3.23-23.41,2.021-11.25-1.72-21.94-2.43-31.97,3.62-5.76,3.47-10.03,8.69-11.55,15.31-2.85-.15-5.35.35-8.09,1.28-1.98-7.76.26-15.83,5.59-21.54,3.67-3.93,8.37-6.35,13.54-7.81,5.41-1.54,10.88-1.76,16.54-1.68l12.62.17c10.08.14,21.01-8.21,19.84-19.65-.62-6.07-4.38-11.06-9.58-14.07-4.93-2.86-10.93-3.23-15.9-.57-1.83.98-3.19,2.47-3.71,4.35,1.6-.98,3.05-2.37,4.69-1.44,1.31.74,1.21,2.97.66,4.33-4.61,11.36-20.48,14.04-30.76,21.98-11.32,8.73-19.22,23.05-15.64,37.17-2.46,1.48-4.19,3.27-5.86,5.61-12.51-14.42-7.92-31.89,6.48-42.81l10.3-7.82c7.59-5.76,14.09-14.65,13.13-24.43-.72-7.29-6.17-13.17-13.45-13.8-4.67-.41-9,1.15-11.91,4.67-1.99,2.4-3.19,5.35-2.43,8.41l1.39-2.83c.25-.51,1.67-.96,2.21-.8,2.12.62,2.69,4.7,1.76,7.93-.83,2.88-2.06,5.65-3.72,8.14l-6.71,10.05c-8.4,12.61-10.71,28.271-5.97,42.65,1.6,4.83,3.97,8.81,7.72,12.37l-1.33,3.03c-6.95,1.72-15.05-.21-21.68-2.86l-11.61-4.64c4.75-.45,8.49-2.3,10.44-6.29,1.15-2.35,1.48-4.91.45-7.48,1.16.33,2.04.37,2.78-.26,1.66-1.42-1.17-4.12,1.42-5.68,1.17-.7,2.33-.27,3.92.48-.35-1.18-1.15-2.54-2.03-3.03-1.4-.77-2.86-.82-4.21-.19-2.34,1.1-3.37,3.33-3.36,6.12-1.58-1.01-3.14-1.5-4.78-.9-1.36.49-2.54,1.75-2.67,3.48-.11,1.28.5,2.79,1.85,2.82.24-.72.82-2.04,1.5-2.2.97-.21,2.06.48,2.42,1.42.82,2.19.13,4.42-1.29,6.33-2.35,3.16-6.67,4.59-10.63,3.43l-13.73-4.02c-6.94-2.03-13.64-3.09-21.2-4.39l24.31-10.07c13.75-5.69,32.75-14.4,33.07-30.93.11-5.44-2.65-10.27-7.12-12.6-4.78-2.49-10.41-1.85-14.64,1.45-5.16,4.04-6.54,10.76-3.26,16.48.51.9.66,2.08.15,3.03-2.18,4.07-4.66,7.68-7.92,11.05-8.14,8.44-17.52,15.46-28.21,20.85,6.82-31.07,25-57.31,52.85-72.32,28.55-15.4,61.07-14.95,88.35,2.88,12.79,8.36,23.06,19.73,30.32,33.25,9.66,17.97,13.9,38.59,12.2,59.02ZM151.211,230.76c5.29,9.52,6.79,22.56,2.54,32.57-1.68,3.95-5.2,7.27-8.61,6.06-1.15-.4-2.23-1.5-2.69-2.88,6.2,2.23,9.41-5.2,10.59-11.45,1.55-8.18.27-16.08-1.83-24.3ZM163.151,245.78c3.8,8.95,3.9,21.6-3.09,28.39-2.3,2.23-5.36,3.65-8.6,2.89,6.76-2.34,9.97-8.2,11.55-14.82,1.48-5.44.78-10.74.14-16.46ZM151.841,273.82c-2.56,1.08-5.27.5-6.98-1.35,8.59.72,12.61-8.94,13.62-16.85.9-7.09-.44-13.67-2.37-20.67,3.23,5.5,4.64,11.87,5.04,18.24.46,7.41-2.27,17.64-9.31,20.63ZM204.711,233.66c-7.37,2.67-15.21,1.63-21.87-2.25l-9.28-6.46c-8.02-6.1-16.36-11.14-25.59-15.28,3.63.4,6.73,1.44,10.09,2.5,7.95,2.18,15.35,5.15,22.89,8.49,5.02,2.22,9.979,3.84,15.34,4.91,2.61.34,4.95.36,8.07.05-.25,2.7-.26,5.37.35,8.04ZM207.111,289.771c4.12,7.36,5.57,16.75.71,23.81-2.55,3.69-7.19,6.51-10.69,4.72,3.81-.71,6.57-2.8,8.51-5.84,4.49-7.04,3.09-14.65,1.47-22.69ZM212.711,296.71c3.88,7.39,2.96,17.54-5.05,21.15,5.77-6.43,6.28-12.76,5.05-21.15ZM200.341,314.49c-2.42,1.59-5.5,2.28-8.1.16,3.24-.04,5.81-1,7.77-3.29,2.59-2.83,3.7-6.47,4-10.34.09-3.63-.29-7.14-.92-10.72l-1.89-10.63,4.18,13.66c2.05,6.67,1.08,16.96-5.04,21.16ZM197.131,310.69c-2.6,1.98-6.1,1.6-7.4-1.33,2.84.71,5,0,6.63-2.03,1.7-2.12,2.81-4.86,2.61-7.73l-.8-11.14c-.41-5.73-1.21-11.24-.76-16.79l.67,4.17,2.97,16.21c1.12,6.17.99,14.9-3.92,18.64ZM215.971,214.72c7.07-4.04,15.51-.73,18.38,6.79,2.64,6.93.26,14.91-6.11,19.17-6.83,4.57-15.53,1.78-18.91-5.53-3.4-7.37-.4-16.41,6.64-20.43ZM252.211,288.2c5.59,4.22,6.82,12.42,2.64,18.22,1.55-6.57.88-12.34-2.64-18.22ZM248.531,311.21c2.51-5.23,3.62-10.63,1.69-16.14-1.02-4.17-3.69-7.15-6.46-10.64,4,1.71,6.42,5.2,8.13,8.8,2.42,6.05,1.86,13.28-3.36,17.98ZM248.641,302.65c-.61,3.65-1.33,7.57-4.99,9.67,2.21-4.36,3.25-8.63,2.35-13.37-1.52-8.28-6.32-12.79-12.49-18.26,9.1,3.97,15.56,12.02,15.13,21.96ZM235.321,285.32c6.66,6.03,10.64,15.08,7.27,23.55-.78,1.49-1.66,3.08-3.73,3.35,1.24-1.75,2.01-3.48,2.41-5.63,1.02-8.52-3.12-14.84-8.8-20.84-2.52-2.66-5.24-4.85-7.53-7.979,4.03,2.16,7.09,4.85,10.38,7.55ZM281.251,257.83c6.91,1.58,11.4,8.36,9.42,15.45-1.17-8.58-7.94-14.66-16.59-14.38l-3.88.13c3.5-1.33,7.27-2.06,11.05-1.2ZM273.281,255.271c2.86-2.04,6.32-3.09,9.84-2.5,5.53.92,9.33,5.67,9.38,11.38-4.04-8.24-10.17-10.09-19.22-8.88ZM273.371,261.3c6.85-.36,12.85,3.9,14.61,10.48.39,2.61.75,5.31-1.1,7.71.55-7.32-3.41-13.33-10.26-15.57-3.87-1.27-7.83-.89-12.03-.7,2.79-1.08,5.68-1.75,8.78-1.92ZM267.421,265.61c3.65-.7,7.18,0,10.43,1.57,5.32,2.57,7.87,8.54,5.88,14.12-.42,1.15-1.27,2.16-2.45,2.7,2.8-6.21-.78-12.49-6.8-14.77-3.36-1.27-6.89-1.43-10.53-1.34l-9.48.21,12.95-2.49ZM298.871,202.32c-9.37,8.83-22.7,4.08-32.86-2.17l11.7,3.6c3.59,1.1,7.34,1.08,11.02.59,5.67-.77,10.3-3.86,12.89-8.97.48,2.91-1.14,4.99-2.75,6.95ZM300.661,204.2c-1.07,3.22-3.68,5.02-6.54,6.33-2.69.9-5.42,1.25-8.47,1.06-4.73-.79-9.07-2.19-12.73-5.14,4.82,1.72,9.37,3.24,14.39,3.03,5.09-.01,9.56-1.73,13.35-5.28ZM290.881,201.38c-8.87,2.75-19.75-1.28-28.02-5.38,9.58,2.14,18.83,5.561,28.26,2.03,3.84-1.44,6.67-4.05,8.17-8.21,1.88,5.01-3.09,9.9-8.41,11.56ZM294.391,192.99c-6.67,6.2-17.96,4.32-26.68,1.79l-8.73-2.52c2.5-.36,4.72.06,7.14.4,8.47,1.21,17.61,2.77,25.1-1.51,2.22-1.26,3.5-3.13,4.32-5.55,1.98,2.52.91,5.48-1.15,7.39ZM262.451,146.73c1.78-.17,2.93,1.1,3.57,2.59,1.21,2.84.66,5.99-.96,8.7-4.03,6.78-12.39,10-19.88,12.79l-11.29,4.22c2.83-2.46,5.86-3.83,8.98-5.4,7.76-3.9,17.1-8.87,20.05-17.13.7-1.96.5-3.89-.47-5.77ZM268.401,147.66c3.24,2.38,3.99,6.46,3.1,10.13-1.65,6.84-7.88,10.61-14.34,13.03-5.15,1.59-10.12,2.98-15.8,3.84l5.97-2.31c4.82-1.71,9.47-3.6,13.61-6.55,3.32-2.49,6.1-5.31,7.53-9.18,1.15-2.93,1-5.79-.07-8.96ZM273.681,150.1c2.92,3.12,3.38,7.47,2.28,11.42-2.9,10.479-15.68,13.63-25.99,13.83l7.8-2.35c10.4-3.14,19.16-11.38,15.91-22.9ZM278.931,154.69c3.08,4.74,2.29,10.64-1.15,15.05-3.05,3.91-7.64,5.83-12.67,6.76l-5.4.23c3.95-1.2,7.81-2.1,11.27-4.39,5.98-3.94,8.94-10.36,7.95-17.65ZM217.881,138.061c-.47-1.28-1.47-2.26-2.68-3.271,2.32-.99,4.8.28,5.979,2.47,1.45,2.7,1.67,5.78.98,8.84-.77,3.41-1.96,6.78-4.15,9.53l-7.25,9.15c-2.97,3.75-5.7,7.4-8.24,11.23.86-3.75,2.53-6.81,4.45-9.77l5.5-8.48c3.73-5.75,7.8-13.19,5.41-19.7ZM224.011,156.03c-2.43,3.62-5.33,6.65-8.48,9.67l-9.46,10.09c.73-2.32,2.26-4.13,3.64-6.12l6.23-7.39c5.68-6.72,10.97-14.84,8.73-23.7-.66-2.55-2.09-4.52-4.19-6.13,2.41-.11,4.27,1.32,5.53,3.11,4.28,6.03,2.14,14.28-2,20.47ZM227.691,133.1c2.54.99,4.21,3.18,5.24,5.67,4.71,11.38-6.53,23.68-16.55,29.86,1.77-2.64,4.04-4.28,6.05-6.51,7.43-8.21,12.36-19.47,5.26-29.02ZM167.171,159.16c1.27-1.36,3.38-.97,4.66.61,1.73,2.15,1.8,4.99,1.3,7.75-.98,3.9-2.87,7.28-5.23,10.58-4.26,4.87-8.73,9.52-14.88,12.69,4.22-4.42,8.5-8.47,11.92-13.54,3.66-5.55,7.59-13.5,2.23-18.09ZM182.301,161.03c-.47-3.4-2.25-6.02-5.14-8.04,4.22-.09,6.89,3.1,8.04,6.73,1.07,3.38.54,6.8-.66,10.21-2.3,5.06-5.93,9.58-11.13,12.29,2.89-3.62,5.66-6.67,7.41-10.68,1.34-3.41,2.09-6.91,1.48-10.51ZM177.621,157.44c4.97,6.63.23,16.61-5.55,22.37-2.96,2.93-5.88,5.68-9.81,7.58l8.38-9c2.06-2.94,3.84-5.91,4.9-9.33,1.56-5.73.46-11.97-4.92-13.74,2.73-1.24,5.39-.03,7,2.12Z"/>
        <path d="M230.561,221.4c-1.87-3.07-5.07-4.79-8.31-4.87-3.38-.09-6.42,1.54-8.46,4.3-3.02,4.08-3.68,9.41-1.05,13.8,2.62,4.39,7.94,6.33,12.79,3.95,6.45-3.16,8.63-11.25,5.03-17.18ZM225.951,234.9c-2.25,1.82-4.93,2.01-7.46.94-2.09-.89-3.8-2.87-4.31-5.52-.61-3.15.37-6.55,2.75-8.77,1.7-1.58,3.88-2.36,6.26-1.9,1.79.34,3.8,1.54,4.91,3.5,2.19,3.86,1.44,8.85-2.15,11.75Z"/>
        <path d="M224.331,231.59c-1.13.99-2.7,1.33-4.18.79-1.86-.68-2.83-2.62-2.75-4.42.09-1.84,1.21-3.56,3.11-4.16,2.57-.81,5.18.79,5.41,3.78.14,1.7-.61,3.17-1.59,4.01Z"/>
      </g>
    </g>
  </g>
</svg>