<?xml version="1.0" encoding="UTF-8"?>
<svg id="b" data-name="Layer 2" xmlns="http://www.w3.org/2000/svg" width="490.175" height="279.453" viewBox="0 0 490.175 279.453">
  <g id="c" data-name="Layer 1">
    <g id="d" data-name="auHUZB">
      <g>
        <path d="M217.403,60.956l-2.57-3.495c-4.502-5.373-9.783-9.718-15.699-13.326l-3.346-2.04-5.644-2.953-6.208-2.751c-5.047-2.237-10.23-3.544-15.739-4.408l-3.94-.198c-1.189-.85-2.475-1.364-3.953-1.342l-.424-.485c-4.831-5.527-12.078-4.746-18.84-2.124l-4.144,2.435c-2.444,1.436-8.724,2.58-13.306,9.188-1.315,1.897-2.238,4.569-2.263,6.748l.305,1.398c-1.887.816-3.238,2.431-3.553,4.654-.156,1.102.461,2.444,1.051,3.457-.334.733-.855,2.027-.675,2.664l.203.713c.046.16-2.205,1.262-1.691,4.752l-1.491.858c-1.135.653-1.867,2.089-2.081,3.227-1.626.586-3.315,1.604-4.248,3.143l-2.125-.192c-.345-.031-1.34.208-1.628.434l-2.418,1.896c-.876.687-2.554-.659-6.137.632-3.073,1.107-4.099,3.549-6.325,3.011l-2.441-.59c-2.818-.682-5.83,1.325-8.119,3.721-4.181,4.376-7.735,2.267-10.896,3.412-2.039.738-3.643,2.424-3.747,4.714,1.722-1.745,3.672-3.331,6.129-2.874l2.263.421,2.395.417c2.256.392,4.422-.946,6.086-2.363l2.346-1.998c1.011-.861,2.887-.667,4.098-.212,2.694,1.012,5.36.484,7.09-1.483,2.981-3.388,5.354.558,9.195-1.869,2.299.321,4.93.424,6.821-1.592,2.374.687,4.281-.279,5.739-2.463,2.678-.011,4.426-1.327,5.341-3.953l.865.097c1.793.2,3.117-.317,4.186-2.126.056.132.134.313.211.495l1.04,1.14,1.69,1.119,3.695,2.042c.201.111.494.395.971.843.168.009-.046-.001-.457-.02-3.567-.525-6.964.124-10.239,1.563-6.438,2.83-10.165,9.813-9.739,16.968.126,2.127,1.129,4.111,1.469,6.146.714,4.281-.221,8.988-1.28,13.281-1.446,5.861-4.104,11.14-7.647,15.962l-1.368,1.861c-2.788.165-4.77.929-5.614,3.387-2.244.396-4.02,2.097-4.148,4.538-2.928,1.2-4.823,4.352-3.431,7.24l-2.47,2.914c-2.078,2.452-3.775,5.239-5.012,8.207l-2.21,5.302-1.769,5.454-4.271,15.573c-.522.648-1.534,1.798-1.838,2.545l-1.191,2.926c-.378.929-.602,1.794-.568,2.846.029.925-.505,2.122-.934,3.116l-.539,1.249-2.002,4.928-2.299,5.5c-8.934,2.991-17.379,7.001-24.439,13.473l-4.149,3.803-6.445,6.096-3.374,3.039-2.52,2.139-3.815,3.019-2.265,1.679-6.537,4.216-8.437,3.739-1.674.777c-3.887,1.804-5.547,7.276-3.134,10.631,3.219,4.476,10.146,5.266,14.349,10.737l1.415,1.842,2.874,4.018c.939,1.314,2.841,2.273,4.335,2.75.388.136,1.103.864,1.346,1.17,1.28,1.612,3.292,1.17,4.79.396,1.279.214,2.701.117,3.97-.233l2.547-.356c.128-.018.777-.549.896-.496,1.051.469,3.238-.475,3.841-1.617,2.265-.012,4.7-.989,5.13-3.716.14-.886-.382-2.553-1.259-3.1-1.028-.642-2.135-.746-3.283-.845l-1.852-.651c-.544-.191-1.592-.895-2.024-1.35l-5.109-5.37c-1.576-1.657-3.03-3.916-4.151-5.771-1.326-2.194,2.407-5.056,5.277-6.693,3.723-2.122,7.326-4.018,11.328-5.524l9.813-3.694,11.094-4.03,5.391-2.074,8.964-3.62.71-.299,2.08-.918,3.66-1.639,2.215-1.085c3.34-1.635,6.213-3.894,8.401-7.01l5.911-8.417,4.309-6.072c.496-.698,2.138-1.273,2.533-2.16l1.115-2.506,2.546-3.536.517-.269,4.748.392,6.742-.053c6.734-.053,13.211-1.182,19.677-2.963l5.995-1.651,6.207-2.074,1.998-.794,1.942-.859,4.285-1.906c-.023-.139.066.393.088.529l-.538.931-1.038,2.787-1.002,2.94-4.607,13.684c-2.371,7.042-5.317,13.67-8.71,20.251l-2.473,4.023c-1.021,1.661-2.265,3.2-2.941,4.968-1.378,3.602.498,7.408,4.163,8.544,5.038,1.562,10.458-.295,18.143,5.146,3.487,2.469,5.47,2.9,9.428,1.984,1.267-.293,2.964,2.568,6.296,2.073,1.804-.268,3.153-1.365,3.563-3.011l.359-.672c1.672-.563,1.859-2.225,1.047-3.577.856-1.046.855-2.47-.477-3.147l-.242-.94c-.116-.45-.462-1.485-.824-1.812-.555-.501-1.719-1.168-2.371-1.2l-3.929-.193c-2.014-.099-4.055-1.89-5.642-3.165l-6.78-5.446c-.969-.778-1.407-2.342-.734-3.473l5.34-8.968,4.041-5.622,4.172-5.518,3.277-4.256,2.82-3.618,5.746-7.506,3.649-5.01c2.839-3.898,5.526-7.816,7.533-12.132,1.434-3.083,2.011-6.383,1.603-9.626-1.261-10.008-12.924-13.074-22.31-13.963l-1.458-.706-5.797-.095-4.394-.143c-9.043-.294-17.857.389-26.754,1.773.398-1.615.212-3.142-.924-4.587l2.954-3.931,8.599-8.71c.004-.045.548.203.658.312l2.66,2.638c1.993,1.977,4.938,3.144,7.812,2.555,3.716-.762,7.245-1.821,10.676-3.289l10.501-4.49,8.181-4.074,5.85-3.105,2.763-1.49c1.994-1.075,5.418-.927,8.114-6.75.811-2.75,1.247-5.434,1.226-8.299,1.394-2.115,1.531-4.48.123-6.626l-2.374-.862c-.378-1.637-2.152-2.516-3.833-2.218-.288-.373-1.047-1.205-1.519-1.389-1.376-.538-3.074.196-4.176,1.004-.461-.193-1.405-.523-1.831-.499-1.948.107-2.981,1.8-3.86,3.207-.724,1.16-1.834,2.257-1.92,3.737-.169,2.917.378,5.406,1.774,7.898-3.725,1.021-7.442,1.587-11.29,1.968l-9.102.903-.663.1,1.11-1.492,2.825-4.021,2.801-5.666c.184-.371,1.03-.967,1.345-1.208l6.696-5.122,3.633-2.801,2.223-1.78,1.917-1.634,5.452-4.99,2.091-2.143,3.609-3.976,1.796-2.125,1.426-1.801,3.584-4.674,1.071-1.407c2.313-3.039,3.057-6.748.784-9.84ZM149.825,28.135c3.012.019,6.338.911,8.025,2.755-.325-.032-.705-.074-.845-.143l-1.034-.507c-.702-.344-1.816-.804-2.505-.954l-3.723-.809c-.57-.15-.572-.299.081-.342ZM141.108,29.961l2.843-1.001c.625-.22,1.878-.117,2.762-.055-.06.052-.592.355-.746.382l-1.397.248-1.453.255-1.331.607-1.582.156c.37-.256.756-.54.903-.592ZM134.588,32.9l.276.585-2.783,1.581-1.995.874c1.25-1.561,2.47-2.136,4.501-3.041ZM127.992,39.426c.889-.92,2.318-1.578,3.521-2.117l2.701-1.211,3.647-2.166c2.019-1.199,4.546-2.272,6.748-2.82l1.541-.383,4.298-.041.905.235,1.785.405c.295-.088.271.817-.008.747l-1.747-.435c-.187-.047-.773-.258-.931-.258l-4.288-.002c-1.007,0-5.273,1.584-7.115,2.662l-3.116,1.824-3.361,1.693-1.342.507c-1.783.674-3.194,1.912-4.563,3.458l-.607-.098,1.933-2.001ZM137.387,40.001l-1.769,1.348-1.109.748-1.066.719-1.07.724-.828.411-.881.44c-.141.07-.415.09-.914.141l.856-.668,1.278-.81,1.526-.957,1.145-.724,1.364-.951c2.848-1.986,6.143-7.507,14.575-7.325.532-.062.626.882.003.694-3.845-.337-7.897,1.456-10.619,3.939l-2.49,2.272ZM138.507,41.883c-1.401,1.766-2.769,3.273-4.62,4.586l1.375-1.936,2.004-2.134c.167-.178.904-.421,1.241-.517ZM122.228,48.187c.149-.095.921.429.777.529l-.753.525c-.233.163-.645.665-.768.92-.154.32.458,1.172.824,1.295l2.345.788-.967-1.862-.743-1.269,2.268-.143-.668,1.214.492,1.62,1.229.95c-.962.04-2.285.142-2.885-.165l-1.234-.631c-.411-.21-1.275-1.13-1.243-1.592.055-.782.83-1.862,1.328-2.179ZM126.543,54.573l4.054-2.027c2.31-1.155,4.134-2.95,6.11-4.662,1.633-1.414,2.943-3.068,4.183-4.771l3.648-5.011,2.803-2.647.655.025-3.018,3.07-3.216,4.357c-1.443,1.955-2.893,4.025-4.743,5.585l-2.561,2.161-1.015.783c-3.44,2.654-8.28,4.902-12.443,4.668l-.441-.688c2.08-.008,4.169.061,5.983-.845ZM146.329,44.264l.167-.582.905,1.236.337.903-.044,2.223-.4,1.096-.576,1.243c-.604,1.306-4.096,5.223-5.724,5.55l4.619-4.742c.18-.185.456-.905.542-1.104l.754-1.724c.386-.883.287-2.963-.58-4.099ZM120.12,64.63l-.939-2.486c-.016.014.392-.356.432-.393l.576,1.531.466.954.931,1.521c.165.27.813.851,1.064,1.06l1.212,1.008c-1.319.257-3.37-2.214-3.741-3.196ZM121.992,61.567c-1.321-1.253-1.777-2.963-1.282-4.439.231,1.281.556,2.958,1.54,3.696,2.079,1.559,10.171-2.924,13.72-5.776l3.005-2.416c1.593-1.281,3.201-2.914,4.121-4.796l1.293-2.645.471-1.252.152-1.357.53-1.592.025,2.724c.002.157-.257.739-.323.908l-.497,1.265c-1.375,3.504-4.744,6.969-8.103,9.405-3.263,2.367-8.498,5.88-11.748,6.241l-2.511.279,1.673,2.872c.465.799,1.347,1.493,2.244,1.7l1.368.709c-2.36.716-5.087-2.613-5.679-5.526ZM137.725,70.51l1.105,2.38.645,1.054.325.984c.092-.011-.368.268-.438.127l-.296-.589-1.885-3.55c-.788-1.483-1.285-3.415.268-4.347l.779-.468c.158-.095.493.571.677.604l1.247.218c-.124.352-.29.746-.468.675l-.934-.374-1.008-.402c-.375.433-.948,1.199-.895,1.632.062.505.562,1.375.878,2.055ZM129.394,64.193l-.769.389-1.685.014.881-.537.944-.286,3.697-1.838,1.106-.693,1.109-.803c-.026-.118.688.498.502.434l-1.407.949-1.043.676-3.335,1.695ZM133.988,69.124l-.249-1.649c-.176-1.169.518-2.777,1.206-3.363l1.442.131c.027-.059.047-.102.063-.137-.051.112-.143.31-.235.51-1.428.494-2.495,2.018-1.913,3.532l.329.856.975,2.536c-.871-.654-1.479-1.494-1.618-2.415ZM109.557,131.723c.158,0,.81.211.961.248l1.393.343,1.413.37,1.125.323,1.366.436,1.359.556.704.307c7.539,3.293,15.079,9.471,18.912,16.869.203.391.215,1.652.096,1.547l-1.598.388-1.352.425c-.425.103-.869-.896.11-.56l1.04-.683.687.184c.201.054.575-.247.861-.479l-1.334-2.459c-2.299-4.238-9.483-10.599-14.028-12.831l-4.116-2.022-1.287-.522-1.024-.379-1.509-.426-1.075-.307-1.434-.405-1.347-.26-1.642-.193-3.251-.195-.155-.3,5.125.026ZM142.729,148.903l-.054,3.043c-.004.234-.291.94-.397,1.145l-.977,1.891-.879,1.211-.365.547c-.087.13-.652-.022-.57-.156l.359-.583.788-1.057,1.344-2.806c.129-.269.322-1.165.333-1.466l.053-1.43c-.447-.51-.384-.849.365-.339ZM139.592,152.88l-2.757,4.009h-1.344c.688-.57,1.501-1.121,1.785-1.56l1.869-2.902.667-1.028c.069.078-.009,1.176-.219,1.481ZM129.337,150.159l-5.853-5.678c-3.253-3.156-7.453-5.215-11.884-6.413l-1.463-.396-1.415-.364-1.847-.475c.543-.072,1.548-.12,2.041-.017l1.615.338,1.632.405c4.787,1.189,8.851,3.898,12.642,7.081l4.644,4.61,2.631,3.527,1.829,3.598.24.583c.053.129-.106.577-.19.706l-2.328,3.59c1.474,1.224,5.279-.582,5.766-3.49-.445-.605-.237-.777.373-.396.47,2.451-2.858,4.667-3.968,4.704l-2.175.072c-.265.009-.802-.873-.646-1.102l2.286-3.346c.668-.978-2.352-6.007-3.929-7.537ZM99.696,134.896l1.1-.713.934-.266c1.018-.29,3.21-.202,4.262.049l1.989.475-6.194.191c-.251.008-1.033.29-1.238.406l-1.547.871c.06-.218.474-.87.694-1.013ZM94.362,142.586l.612-.286,1.71-.8,1.378-.369,2.314-.318,2.031.015,3.253.309,1.256.267,1.52.369,3.888,1.213.789.391c3.802,1.885,7.551,3.871,10.619,6.947l2.129,2.135,4.313,5.689-.545.369c-4.655-7.326-8.9-10.491-15.962-14.168l-1.095-.57-4.218-1.375-1.053-.268-1.467-.321-1.413-.148-.911-.258-3.934.023c-.234.001-1.051.196-1.279.268l-2.906.923-.883.448c.014.103-.29-.42-.147-.487ZM101.265,210.612l-1.628,2.298-3.2,4.348c-1.839,2.499-4.092,4.587-6.811,6.069l-2.564,1.399c-7.935,3.679-15.901,6.87-24.106,9.876l-1.877.688-1.267.454-17.071,6.538-3.517,1.597-1.208.59-7.899,4.652c-1.852,1.091-3.994,4.548-3.17,6.184,1.286,2.558,2.706,4.817,4.686,6.839l6.068,6.196c.697.712,2.154,1.047,3.405,1.374-.011.138-.042.535-.053.664l-.352,1.088c.755.991,1.976,1.081,2.729.345l1.107-1.082c.204.713.315,1.547.051,2.174-.451,1.072-2.575,1.918-3.359,1.168l-3.053-2.917-2.088-1.203c-.08.058-.711.514-.576.416l1.882,1.53,1.304,1.142-.881,1.207.509.96c.123.115.53.399.688.325l.825-.385c-.003.052-.018.265-.044.685-.316.238-1.778.401-2.089-.028-.549-.759-1.305-2.437-2.008-2.899l-2.206-1.453c-.084.083-.531.525-.438.433l2.863,2.584-.86.456c-.142.075-.265.554-.403.953l.996.712.611.154-1.056.553c-1.413-1.206-1.688-3.24-4.11-4.722l-1.076.117,2.029,1.873c.135.125.173.863.109.835l-.9.757.417.993,1.469.289-2.046.03-.492-1.042c-.626-1.327-1.599-2.139-2.986-2.865l-1.089.15,1.454,1.047c.128.092.539.412.45.515l-.585.679-.183,1.476.908.553c-1.149-.033-1.729-.371-2.35-1.124-1.353-1.644-3.221-1.413-4.191-2.549l-1.825-2.137-2.468-3.649-4.462-4.512c-1.447-1.464-3.494-2.28-5.322-3.264l-2.117-1.14c-2.937-1.581-4.55-4.621-3.481-7.487.761-2.04,2.549-3.278,4.484-4.043l3.079-1.219,3.403-1.619,3.73-2.012,10.672-7.576,2.155-1.808,3.591-3.21,5.737-5.372,7.159-6.467c6.838-6.177,19.718-11.639,28.55-13.722l2.254-.532c2.265-.534,4.472-.506,6.83-.431l.575-.301c-4.903-1.858-9.494-.505-14.261.683l1.59-3.956,4.071-10.133,4.698-1.141c5.951-1.446,17.143,3.281,21.567,7.687l2.483,2.474,2.154,2.904-5.615,8.287ZM108.483,201.766l-1.393-2.18-1.217-1.612-1.619-1.639c-3.36-3.4-7.574-5.579-12.106-7.25-4.017-1.481-8.234-2.015-12.502-1.244l-3.953,1.145.771-1.851c.229-.551,1.409-1.182,2.08-1.335l3.562-.811c6.821-1.554,17.612,2.359,22.604,7.298l2.369,2.344c1.095,1.083,2.213,2.521,2.736,4.119.201.693-.668,2.139-1.33,3.016ZM114.179,191.25l-1.678,3.75c.05.373-.05-.295-.125-.803.209-4.013-.683-7.601-2.594-10.926l-1.053-1.503c-.218-.311-.905-.713-1.49-1.056l.457,1.057c.906,2.095,2.185,3.845,2.579,6.081l.465,2.633-.092,6.154c-.381-.358-.612-.591-.777-.829-2.161-3.105-4.851-5.477-8.017-7.463-7.532-4.724-15.681-6.51-24.352-3.663,2.205-2.479,4.348-4.811,7.19-6.396l2.137-1.191c.301-.168.899-.676,1.171-.975-3.421.374-5.77,2.273-8.311,4.332l.94-3.353,2.055-7.691c1.759-6.583,4.068-12.922,7.824-18.631l.817-1.242.732,3.714c.084.43.942,1.288,1.359,1.478-.675-2.376-1.232-4.334-.393-6.595l.39-1.051c.831,3.648,3.989,6.747,7.512,6.071-.322-.307-.782-.692-1.038-.808-3.489-1.581-5.578-3.835-4.992-7.728,9.854-4.265,24.38,2.765,30.733,11.345l2.956,3.992c-1.593-.186-2.82-.371-4.042-.797l-6.28-2.186c.458.659,1.085,1.299,1.556,1.516l4.001,1.849c1.628.752,3.619.869,5.292.955l.39,1.498c-2.006,1.994-4.033,3.493-6.689,4.684-.467-.02-.542.806-.057.793,2.101-.772,3.62-1.403,5.357-2.548l2.187-2.017c.109-.026.719.274.646.448l-.358.864-1.573,3.561-2.347,4.748c-2.618,5.294-5.696,10.101-9.03,14.953l-1.182,1.721-.482.294c.965-3.421,1.724-6.467,1.399-9.883l-.245-2.572-.191-1.176-.236-.199-.185,2.187c-.366,4.337-1.041,8.509-2.335,12.604ZM181.763,152.548c6.083.715,11.812,1.652,16.619,4.829,6.016,3.977,6.379,11.146,3.135,17.315-2.203,4.19-4.727,7.985-7.499,11.816l-2.267,3.133-5.388,7.164-8.386,10.937-2.651,3.502-8.076,11.938-1.733,3.447-.461,1.611c-.32,1.118.626,2.732,1.577,3.509l4.571,3.737,1.654,1.292,2.042,1.699-.232.579.387.486,1.075,1.347c.111.139.657.205.839.229.165.022,0-.381-.086-.501l-.468-1.111c1.315.324,2.646,1.148,3.615,1.189l3.619.154c.201.009.709.598.821.757-.032.009.347-.131.469-.103l.784.178.321.839-.843-.431c-.128-.066-.522.118-.676.17l-4.165-.381c-.336.071-.89.187-.815.172.622.374.974.601,1.179.635l2.243.372,2.665.684-.035,1.328c-.039-.007-.078-.014-.121-.022l-3.031-.734-2.443-.345-.741.009c-.157.002.201.616.351.656l.506.138,4.62,1.163c.232.087.586.183.575.333l-.061.863c-.024.343.446,1.28.748,1.168l1.096-.407c.001-.051-.006.289-.01.421l-.482.462c-.14.134-.69-.024-.84-.146l-.878-.715c-.428-.348-1.379-.647-2.008-.788l-3.852-.867c-.205-.046-.873.375-.695.449l3.125,1.304c.623.073.764.297.134.518-.17.262-.426,1.206-.189,1.398.413.335,1.294.762,1.691.702.477-.072,1.018-.642,1.556-1.301l.634.637c-.3,2.031-3.335,2.568-4.929,1.484-.89-.604-2.244-1.29-3.163-1.547-3.05.887-5.801.435-8.266-1.477-3.497-2.713-7.557-4.279-11.941-4.807l-6.1-.735c-1.424-.172-3.115-1.355-3.717-2.594-.918-1.89-.4-3.768.621-5.402l3.573-5.722,4.071-8.221c2.837-5.73,4.941-11.61,6.942-17.664l2.853-8.627,3.146-8.367c1.6-4.256,4.122-8.014,7.171-11.444,3.132-3.522,6.834-6.092,11.133-8.311l-.071-.823c-4.228,1.367-7.367,3.537-10.578,6.435-1.701,1.535-3.751,3.538-4.837,5.465l-.371.658c-.07.124-.517-.315-.504-.489l.39-5.22c.366-4.9,2.313-9.255,5.028-13.274l1.594-2.361,4.438-4.375ZM180.069,151.818l-3.452,3.342c-5.685,7.078-8.992,16.698-7.522,25.656l-.757,1.233-.334.545c-.412.671-3.962-7.388-.977-16.961,1.055-3.383,2.319-6.71,4.478-9.492l1.753-2.258,2.085-2.129,4.727.064ZM144.01,153.604l2.947-.559c7.513-1.424,15.112-1.535,22.775-1.442l3.551.201c-6.978,7.894-10.817,18.613-7.904,28.96l.329,1.169-1.373-.53-4.403-2.086-1.459-.759c.454.965,1.085,1.787,1.823,2.179l4.09,2.173-2.63-.01c-3.677-.014-6.786-1.55-10.057-3.142.293,1.561,4.177,3.368,6.131,3.792l2.788.605,4.117.358-2.731,1.206c-13.088,5.778-27.712,8.761-42.318,8.461l.077-.343c3.944-1.601,7.268-3.564,10.121-6.563l2.81-2.954,1.459-1.784c.19-.232.351-1.117.318-1.458-2.776,2.787-5.34,5.324-8.553,7.601l-4.971,2.915-5.113,1.99,2.527-3.149,6.551-10.638,2.51-4.683,2.011-4.025,1.824-3.998,1.032-2.415c.065-.152.606-.394.793-.431l1.92-.378-.713,5.408.285,1.14c.9-2.145,1.226-3.541,1.589-5.514l3.301,6.256,2.958,4.527.382-.896-1.457-2.625-1.98-3.794-1.568-3.079-.954-1.805-.273-.807c-.072-.211.761-.011.949.195l3.159,3.458c1.752,1.919,2.156,4.353,2.997,7.083,1.277-4.365-1.958-8.888-5.665-11.816l1.106-1.661c.221-.333.582-1.067.852-1.282,1.708-1.361,3.121-3.001,4.039-5.052ZM215.841,68.909l-2.136,2.927-2.946,3.867-1.745,2.218-1.805,2.156-9.98,10.002-2.514,2.174-2.163,1.752-5.725,4.318-3.41,2.334,1.187-3.834,1.384-7.405.699-4.21c.031-.187-.296-.887-.485-1.286l-.684,2.477-.778-.24c-.297,4.417-1.137,8.785-2.678,12.848l-1.178,3.108c-1.315,3.468-5.404,5.925-8.937,7.719,2.703.13,4.579-1.117,6.692-2.479l-2.813,4.357-2.253,3.171c-.277.39-.994,1.162-1.417,1.298l-2.54.816c-.3.096-1.116.261-1.399.284l-6.607-9.806-5.087-6.768-2.428-2.936c-3.127-3.522-6.422-6.661-10.05-9.714l-1.053-.039,1.439,1.505c3.272,3.423,6.49,6.802,9.424,10.6l2.514,3.253,3.172,4.367,8.118,11.854c3.129-1.352,5.934-2.029,9.036-2.394l15.048-1.768,5.549-1.603c.638-.184,1.25-.194,2.285-.212l-.096-.274c-3.128-1.518-4.526-7.595-2.998-9.988l1.857-2.909c.325-.509,1.413-1.284,2.018-1.316.199-.01.848.383.786.568l-.386,1.142-1,2.411c-.042.102-.508.374-.604.426-.097.052-.157-.122-.405-.738.15.013-.116-.01-.843-.071.31.744.769,1.472,1.286,1.915,2.882-1.314,1.82-4.794,4.882-6.081.736-.309,2.176.348,2.386.86-1.086,1.138-1.505,1.898-1.893,3.628l.943.072c.327-1.965,1.262-2.716,2.891-3.154.567-.153,1.91.877,1.597,1.324l-1.386,1.976c-.218.31-.085,1.274.21,1.807.838-1.303,1.455-3.237,3.037-2.599,1.41.569,1.642,2.111,1.219,3.512-.196.454-.806.715-.487-.121l-.675-1.032-.122,1.95.122,1.834c.21,3.163-.577,6.306-2.048,8.97-1.381,2.501-3.801,2.939-6.053,4.113l-8.664,4.518-4.048,2.003-7.528,3.589-2.514,1.084c-4.801,2.07-9.574,3.803-14.67,4.945-2.119.475-4.551-.215-6.039-1.692l-3.931-3.903-2.513-2.871-5.038-6.082-2.115-2.544-8.433-9.509-1.968-1.98-2.717-2.661-2.679-2.31-2.35-1.876-.419.321,3.608,3.784c-1.424.276-2.332.576-3.161,1.263l4.336.093,5.293,5.605,4.954,5.767,2.572,3.137,5.146,6.352,1.297,1.6,2.04,2.516-3.843,3.873-6.96,7.695-1.446,1.816-1.677,2.191-1.044,1.573-.362.545c-.115.173-.354-.511-.46-.708-1.804-3.362-3.882-6.281-6.588-8.861-6.345-6.05-14.33-10.527-23.352-11.578,5.829-7.828,9.425-16.869,9.931-26.525l.039-.744c.008-.148.476.282.553.416l1.411,2.436c.074.128.575.273.826.311l-2.087-5.703c-.804-2.195-1.653-4.358-1.999-6.671-.419-2.804.039-5.762,1.093-8.406,3.306-8.3,14.255-11.825,22.345-7.059.448-.138.836-1.271.677-1.704l-.894-2.432-.529-1.272c-.647-1.556-.135-3.332,1.462-4.095.612.883,1.218,1.765,2.117,2.342.71.456,2.397.251,2.906-.278.179-.186.452-.824.632-1.266l-1.021.509c-.572.285-2.14.178-2.525-.362l-1.085-1.523c-.852-1.195-4.502-2.498-5.598-6.469-.249-.902.117-2.268.693-2.892.631-.682,1.909-1.135,2.985-.822,1.123.326,2.389,1.32,2.944,2.263l.937,1.591,1.311-.387c.379-.112.992-1.192.731-1.498l-1.825-2.14c-.182-.214-.372-1.198-.455-1.491l2.953-3.172c1.69-1.816,2.493-4.336,2.019-6.727-.413-2.084-2.764-3.615-2.165-5.923.64-2.467,3.072-4.161,5.4-5.408,2.369-1.269,4.861-1.939,7.512-2.132l1.448-.105c.08.066.517.456.449.395-1.693.688-3.117,1.416-4.14,2.814-.328.448-.637.715-1.191.788-2.854.376-4.919,4.136-3.33,6.722,1.114,1.814,3.797,1.565,3.533,2.195l-.259.618c-.605,1.444.843,2.799,2.856,3.485l-.407.674-.434,1.051,1.404-.746c1.19.727,2.075,1.122,3.627,1.664l-3.105,2.37-.575.251,2.31.356c1.029.159,2.981.606,3.881.198l2.326-1.053-.685-.59.073-1.297.412-.079,3.372.011,3.488,2.711,2.612,1.693c1.333,1.093-.133,3.509-1.293,3.555-.479.019-2.303-1.16-3.182.124l-.543.793c-.156.229-1.015.108-1.232-.089-.531-.481-.539-1.433-.321-2.299.075-.097-.774.375-.883.566-.337.59.055,2.19.736,2.58,1.682.965,2.606-1.108,3.855-.976l-.283,1.877c-.021.146-.06.682.076.737l.944.385c.185.075.579.698.418.828l-.865.699c-1.838-.935-2.929,1.554-6.099,1.758l-.04-.971.451-2.552c-.24.099-.942.652-1.046.951l-1.262,3.634c-.054.155-.081.786-.084,1.26l1.309-1.413c.569-.615.434.485,2.629.297l3.22-.275c.341-.029,1.126.252,1.24.563s-.201,1.205-.528,1.201l-2.13-.026.269.63.9.616c-1.038,1.829.913,3.353-.184,5.27-2.197,3.84-9.772,2.333-14.756.475l-.338.574,4.059,2.087.63.278c.133.059-.192.312-.386.516-1.547,1.628-3.11,4.631-2.44,6.08l4.274-6.311c2.965.732,5.764.633,8.321-.736,2.027-1.085,3.194-3.203,2.388-5.507l-.185-.528c-.239-.683,5.151-3.001,9.496-1.99l1.415.329-.842,1.52c.354-.123.904-.312.999-.393l2.268-1.942,4.167-2.997,2.59-1.374c.371-.197,1.304-.336,1.65-.176l2.193,1.015c2.42,1.12,4.77,1.218,7.599.915l.073-.513-3.798-.712c-4.998-.937-9.175-4.022-12.87-7.499l-6.1-5.739-3.959-3.627-1.58-1.194c-.111-.084-.613-.286-.55-.408l.413-.793c.659-1.263,1.038-2.155.972-3.758l-.918,1.282-1.622,2.461c-.911,1.383-2.785,2.837-4.495,2.908l-6.109.252c.864-1.286,1.776-1.673,1.032-3.623-.055-.256.939-.621,1.237-.482l.71.332c.153.072.552-.289.532-.315l-1.189-1.188-1.07.146c-.254.035-.521-.522-.726-.879-.019-.017-.507.153-.481.265l.2.87c.011.096-.683.339-.833.204l-.909-.819-.033,1.321-.963,1.078c-.114-.092.448.36.488.394l1.678-1.073c.269.147.735,1.39.642,1.811-.108.491-.729.998-1.359,1.414-1.348.888-3.501.361-4.205-.984-.569-1.087.212-3.274,1.172-4.825l.986-1.594c.107.175-.057-.093-.369-.603-.996,1.151-2.028,2.383-2.504,3.772l-.755,2.204c-.375-.126-1.814-1.092-1.894-1.709-.145-1.284.921-2.994,1.672-3.87l1.625-1.895.215-1.121-1.93,1.706-2.101,2.402-2.129-.721c-1.965-1.753-.579-4.172-.202-4.008.056-.075.116-.147.175-.216.137-.158.303-.282.471-.406.125-.092.255-.175.388-.253.345-.2.716-.36,1.09-.497.331-.121.673-.216,1.02-.282.075-.014.151-.022.227-.034.264-.545,1.366-2.155,2.022-2.349l2.395-.711c1.497-.444,3.076-.76,4.678-.516,5.482.833,10.706,2.051,15.715,4.3l6.893,3.094c5.335,2.395,10.212,5.524,14.716,9.228l2.801,2.303c3.293,2.708,8.458,8.181,9.407,11.724.367,1.368.029,3.483-.826,4.654ZM164.264,53.346l.717.844c.049-.064-.181.233-.275.354l-2.765-.43c.156-.201.604-.727.834-.907l1.335-1.039c.165.111.547.367.503.337-.292.532-.437.738-.35.84ZM175.548,67.104c-.199-.163-.982-.242-1.251-.211l-1.799.213c-.051-.07.391-.923.601-.908l1.956.134c.623.043,1.821-.9,1.953-1.629.329-1.818-2.062-2.088-1.172-3.43,2.066-.176,3.869-1.786,3.524-4.211-.139-.979-.941-1.837-1.866-2.404l-3.929-2.409c-.146-.09-.45-.547-.32-.613l.606-.308,2.249-1.28.581-.37c.12-.076.494.096.618.206l3.404,2.996,5.484,5.285,7.879,6.741c-2.766,1.368-5.184,3.087-7.354,4.959l-1.777-.44c-2.844-.703-5.786-.156-8.541.859-.147-.028-.32-.062-.443-.085.976-1.177.218-2.585-.403-3.095Z"/>
        <path d="M347.716,185.744l-10.414,10.41-2.798,3.274-2.48,10.407c-1.347,5.651-3.91,10.74-6.853,15.734l-6.127,10.398c-3.705,6.288-7.246,12.384-10.257,19.01l-.959,2.734c-1.8,5.133-.383,9.449-.696,12.186-.339,2.968-2.546,5.331-5.632,5.482-3.842.188-8.365-1.512-12.868-1.257l-11.533.653c-1.326.075-3.471-.582-4.6-1.019-1.069-.414-3.52,1.644-6.088-.232-.599-.438-1.056-1.633-1.211-2.359-1.205-.352-2.696-1.363-2.323-2.949l.128-.545c.08-.339-1.259-.495-1.632-1.854-.149-.54.329-1.661.684-2.29l-.511-1.147c-.688-1.543.472-3.023,2.004-3.518-.25-1.18-.321-2.655.201-3.586.961-1.716,2.907-2.101,4.445-1.075l1.935,1.291c1.525,1.017,3.636,1.321,5.453,1.394l6.941.279c2.87.115,5.624-.338,8.321-.925l2.133-5.882,1.609-4.823,3.892-12.92,3.704-13.483,1.142-4.337c2.414-9.169,4.534-18.166,6.071-27.539.561-3.419,1.52-6.5,3.048-9.485l2.803-5.475,2.084-3.657.781-1.252c-.096-1.011.257-2.159.857-3.092l1.003-1.559c.494-.769,1.411-1.673,2.158-2.219.471-.344.995-1.296,1.336-1.843l5.223-8.382,2.63-3.845,2.934-3.869v-.361s-1.601-1.198-1.601-1.198c-1.474-1.103-2.126-3.274-2.342-5.148-.612-5.303,2.842-8.331,2.125-9.043l-2.814-2.793-2.046-1.582c-4.76-3.68-14.344-4.764-21.664-7.745-4.542-1.85-8.739-4.105-12.71-6.962-3.294-2.369-5.994-5.281-8.274-8.608l-.478-.697-1.974,2.38-1.635,1.955-7.219,8.151-2.881,2.846-3.776,3.44-1.99,1.632c-2.705,2.218-5.633,3.992-8.913,5.104-2.124.72-4.323.451-6.186-.849-4.448-3.101-8.352-8.794-10.667-13.688l-2.675-5.652-.737-1.773-2.471-6.469-1.219-3.371-3.999-11.04c-.87-2.401-1.511-4.467-1.416-7.17l1.879-6.457c-.337-1.737-.22-3.263.389-5.083l2.456-1.842c.314-1.803,1.933-3.009,3.802-2.737.586-.361,1.478-.905,2.007-1.07.624-.195,1.84.654,2.449.778.847.172,2.442.351,2.968.936l.913,1.015c2.379.013,1.927,2.331,3.433,2.743,1.635.447,1.784,2.809,1.276,3.805-.623,1.22,1.897,5.034-1.486,7.75l-1.794,2.349-2.54,2.655,6.378,9.901,5.837,9.219.682,1.178.277.574,6.789-9.914,3.598-4.656,3.756-4.79,1.12-2.715,1.277-2.505c2.088-4.096,4.893-7.575,8.516-10.462l3.021-1.996.767-.479c.211-.131-.086-.772-.195-.996l-.302-.617c-.061-.125-.555-.149-.705-.127l-1.577.225c-2.651.379-5.373-.638-6.754-3.121-1.073-1.929.355-3.767-.235-4.87-.192-.359-1.026-.699-1.478-.877-1.603-.631-2.057-2.582-1.182-3.745,1.305-1.735,3.145-.536,4.135-1.099l1.746-.992c-1.287-.18-2.196-.284-3.186-.643l-1.55-.563-.636.496c-.446.348-1.463.525-2.335.283-.555-.154-1.302-1.236-1.4-1.801-.326-1.875,2.056-2.555,1.198-3.39-1.852.164-4.023-.839-4.309-2.888-.248-1.775.755-3.256,2.027-4.354l3.71-3.201,1.879-2.042c.092-2.198.144-4.372,1.013-6.419l2.027-4.776c1.09-2.567,3.001-4.554,4.951-6.461,1.473-3.693,5.961-6.838,9.785-8.264,2.438-.909,4.936-1.752,7.541-1.791l6.504-.098c2.264-.034,4.477.601,6.56,1.386l1.334.503c3.067,1.156,5.783,3.173,7.845,5.788l1.947,3.398,2.524,1.78c1.543,1.088,2.039,3.423,1.279,5.224-.086.203-.225.543-.224.533.001-.009.301.33.353.433l.717,1.432c.23.459,1.76.019,3.019,2.28,1.444.254,2.554,1.166,3.315,2.359l2.295,1.85c1.628-.07,3.627.44,4.478,2.109l1.453.025c1.435.025,2.646.016,3.978.745,1.133.619,1.402-.015,3.152.175l2.708.294,4.146-.187,2.398-.766,3.331-1.065,2.517-1.653c1.048-.688,2.617-.944,3.799-1.285,1.766-.509,3.271-.578,5.12-.677,1.243-.066,2.626-.375,3.841-.149,1.09.203,1.684-.234,3.951.008l3.021.323c1.63.174,3.382,1.213,4.908,1.835l2.551,1.04c2.617,1.067,5.415.509,7.909-.649,3.228-1.498,6.676-1.39,9.462.925l-.03.447c-2.123-.791-4.242-1.159-6.195-.202l-5.031,2.465c-7.114,3.485-11.855-2.305-17.105-1.749l-3.339.353-3.711.137c-1.464.054-2.535,1.439-4.946.566l-3.169,1.579-1.282.639c-.891,1.637-2.732,2.364-4.528,2.135-1.194,1.137-2.665,1.514-4.24,1.31-1.084.648-2.237.927-3.559.785-1.116.716-2.981,1.016-4.178.544-.797-.314-2.468,1.626-5.512.388-.596-.243-1.263-.259-1.893-.117-2.707.61-4.533-1.281-4.772-1.206l-.952.299c-1.2.377-2.871-.235-3.952-.889l-1.728-1.045c-1.484,1.002-3.221.935-4.612-.402l-.19.571-.241.73c-.165.499-.825,1.425-1.193,1.837l-1.677,1.882.864-.128c2.27-.678,4.67-1.124,7-.696,9.951,1.828,13.735,12.188,12.73,22.112l-.964,9.943.124.843c2.042,4.815,4.862,8.921,8.574,12.56l2.684,2.379c2.138,1.894,9.42,6.29,10.876,5.924,3.584-.9,7.03.151,9.562,3.006l2.392.377c2.644.417,4.565,2.72,5.719,5.108l.43,1.506c.268.939,8.944,3.564,15.506,13.745,2.925,4.539,4.275,9.585,4.747,14.945l.695,2.496,1.698,6.707,1.232,4.026,2.085,5.795.459,1.088,2.358,5.215.826.934c.696.786,1.73,2.561,1.88,3.698l.257,1.942,1.509,2.734,2.597,4.334,12.351,1.573c3.558.453,6.866,1.876,10.115,3.481l4.068,2.01,9.296,5.397,3.156,1.826,4.982,2.618,1.435.709,7.878,3.294.997.334,4.781,1.356c5.538,1.57,8.719.259,11.534,1.675,3.485,1.753,3.795,6.544,1.413,9.8-.907,1.239-2.064,2.345-3.231,3.257l-1.841,1.438-3.553,3.538-2.139,2.901-3.341,6.314-2.266,4.922-1.085,1.775c-.858,1.403-2.339,2.439-3.94,2.953-2.954.949-4.461-.771-5.269-.348l-1.209.633-.922.328c-2.136.759-3.431-.86-3.854-.774l-.785.159c-.772.157-2.26-.273-2.667-.965l-.526-.896c-.108-.184-.848-.093-1.044-.176l-1.304-.554c-.924-.392-1.624-1.755-1.563-2.832.056-.995,1.088-2.316,2.177-2.563l1.604-.364.794-.287.515-.191,3.507-1.142,4.849-8.026.406-.945.243-.528,2.084-4.355.275-.575c.08-.167-.491-.501-.682-.568l-1.326-.468-1.915-.676-.731-.216-2.023-.551-.825-.225-1.081-.294-.622-.162-4.761-.986-1.111-.231c-8.123-1.686-16.283-2.3-24.56-2.736l-6.488-.342-16.128-1.05-1.988-.416-.649-.161-.844-.277-2.617-1.322c-2.765-1.397-7.875-8.182-10.346-11.573l-1.012-.443c-1.888-.826-2.165-3.26-2.857-3.882l-1.869-1.683-8.051-7.776-2.526-2.389c-.164-.155-.802.045-.988.198l-3.963,3.267-5.117,4.194-3.117,2.62-1.949,1.655-1.684,1.508-1.031,1.15c-.701.782-1.613,2.06-2.438,2.398-.63.258-1.245.456-1.533.744ZM304.251,4.151l3.522.782,2.372.892,3.603,1.811c.199.1.681.245,1.092.338-.564-.545-1.17-1.077-1.756-1.401l-1.876-1.037-1.066-.444-2.139-.716-1.388-.347-1.492-.31-.981-.305-6.334.031-1.323.271-1.242.24-4.109,1.265-1.351.473-2.373,1.147-1.151.687c-.312.186-.75.732-1.032,1.166l.82-.422,3.728-1.884,1.124-.419,4.516-1.376,1.419-.169.981-.298,6.436.027ZM314.057,12.425c-.944-1.187-2.101-1.903-3.174-2.317l-3.896-1.502-3.671-.975c-2.828-.751-5.85-.355-8.687-.066l-1.232.125-.536.668,4.387-.312h3.544c3.502-.001,6.748,1.2,9.829,2.698l2.35,1.143,1.085.537ZM239.611,62.469l1.794-1.975c.158-.174.435-.812.236-.935l-.6-.372c-.274-.17-1.23-.061-1.447.185l-1.498,1.692-1.031,1.165c-.083.094-.539.231-.65.283s-.07-.596.001-.696l1.566-2.195.559-.783c.078-.11-.542-.477-.681-.49-.752-.069-1.719.654-2.201,1.343l-1.918,2.746-1.432,1.65-.065-1.225c-.011-.207-.451-.688-.644-.638-.588.153-1.555,1.345-1.55,1.943l.023,2.978-1.413,6.829c-.467,2.255.453,4.39,1.188,6.447l1.89,5.291,2.525,7.162,4.98,12.261c1.525,3.755,3.688,7.064,6.023,10.404,1.43,2.045,3.116,3.735,5.009,5.368,1.193,1.029,2.968,1.698,4.514,1.278,2.058-.559,4.143-1.353,5.862-2.696l7.237-5.65,8.47-8.684,2.154-2.524,1.807-2.17,5.388-6.416,2.849-3.234,2.42-2.613,4.421-3.754-.436,1.64c-.555.362-.763.497.008-.005l2.375,1.367-1.247.028-2.568.282c-.273.03-.998.564-1.174.786l-1.542,1.939-3.189,4.03-1.855,2.233,2.148,3.035c1.744,2.464,7.301,7.407,9.088,7.718l3.238.565-.933.501-.448.379.882.488c5.104,2.823,10.44,4.58,15.992,6.236l8.772,2.616,3.013.496-1.078.601.291.295c2.6,1.379,4.879,3.193,6.849,5.52.705-2.689,1.499-5.4,2.934-7.879l3.706-6.404,3.497-4.757,1.262-1.558,2.815-2.961,2.776-2.606,1.797-1.456c2.132-1.727,4.333-3.027,6.942-4.389-11.115-5.618-18.605-13.742-22.217-25.754l-2.334-7.762c-.84-2.792-2.368-5.078-3.954-7.524,2.982,1.29,5.23,6.245,6.29,9.511l1.497,4.61c-.248.058.096-.022.261-.06l.329-3.336c.387-3.922.537-7.744-.337-11.536-1.292-5.603-5.004-10.197-10.744-11.125-3.713-.6-7.284.535-10.349,2.791-.446.328-.938,1.281-1.294,1.833l-1.327,2.056c-.039.631.64,1.993.972,2.707l.561,1.208c.317.682-1.874,1.534-3.204-3.305-2.466.005-4.457-1.257-5.317-3.26l-1.308,1.533c-1.164,1.365-4.611,1.272-5.332-.729-.125-.348.388-1.576.402-1.194.584.794,1.296,1.53,2.025,1.598,2.719.252,2.964-3.076,5.078-4.815,4.035-3.32,5.329-8.383,2.222-10.41-.589-.385-2.189-.495-2.883-.266-3.692,1.217-3.358,5.124-6.56,5.28l-.568-1.571,1.151-1.906c.385-.638.76-1.959.768-2.418-4.492-2.447-7.757-7.079-5.308-10.609,1.341-1.933,1.465-4.394-.03-6.306-2.56-3.275-7.751-4.21-11.738-2.604l-3.281,1.321c-.346.163-1.047.879-1.28,1.185l-2.515,3.308c-1.88,2.473-3.106,5.426-3.505,8.602l-.394,3.135c-.04.319-.503,1.308-.769,1.568l-3.569,3.485-2.613,2.214c-.736.624-1.213,2.296-.718,3.132.316.535,1.58,1.123,2.128,1.116.132-.002.499-.593.601-.69.655-.622,2.408-.497,2.955.219l.622.816c.086.112.858-.077.928-.199.277-.48.35-1.46.263-2.291-.562-.549-.312-.761.327-.447.471.538.97,1.523.838,1.993-.112.402-.569,1.074-.941,1.468-.722.763-1.996.436-2.57-.248-.196-.234-1.106-.55-1.211-.495l.281,2.093c1.128.054,2.463.267,3.46.793l2.39,1.26c.35.184,1.424.386,1.682.423l-.456-1.771,1.543.853c1.863,1.03.316,3.27,2.169,4.798l1.249,1.029c-1.85.167-3.041-1.274-3.411-2.813l-.224-.931c-.032-.133-.677-.093-.591-.064.854,1.751-2.709,3.687-5.483,3.578-.423-.017-.925.802-.89,1.163s.821,1.131,1.154,1.018l2.144-.728-.026.729c-.349.176-.676.318-.617.443l.317.673c1.066,2.262-.935,5.622,2.856,6.754.961.287,2.372.3,3.548.229l1.336-1.569c.289-.34.81-1.134,1.19-1.245l.938-.275.906.233c.182.047.632.388.547.545l-.379.703.074.481c2.354-.545,4.061-1.655,5.5-3.486l1.002-1.275-.307,1.877.656-.308,1.831-1.434,1.893-1.482c-1.001,3.811-5.665,6.123-9.418,7.73l.49.481c2.262-1.064,3.949-1.572,6.464-1.898l.051.591-6.164,2.634-1.253.847c1.696.034,2.704.015,4.319.414l-4.611,1.163c-5.413,1.366-9.927,6.273-12.793,11.165-2.38,4.063-3.942,8.269-5.538,12.742-.112.314-.601.853-1.024,1.264l.37-3.227c.569.163.014.004-.283-.081l-1.119,1.401-2.554,3.198-7.982,11.813.102,1.814c.013.226-.034.875-.073,1.07s-.498.205-.69.164c-1.967-3.97-3.862-7.73-6.293-11.331l-3.34-4.949-4.971-8.258-.858-2.088-.122-.844c-.019-.128.453-.46.568-.399l.858.456c.124.066.475-.261.569-.381l2.197-2.812,1.697-2.174c.983-1.26.782-3.22.127-4.604l-.9-1.899,1.222.809.388-1.218c.167-.524-.729-1.63-1.275-1.654-.556-.024-1.656.702-1.733,1.243l-.386,2.71c-.816-1.122-1.079-3.053.022-4.085l1.118-1.048c-.161-.236-.716-.889-1.045-1.166-.282-.237-1.392.084-1.651.34l-1.933,1.916c.01.013-.331-.394-.585-.697ZM324.066,19.005c-2.629.716-8.18-.663-10.24-1.805l-5.509-3.054-5.727-2.878-.665-.283-1.47-.372-1.279-.324-1.743.024c.539.331,1.01.563,1.494.681l1.542.378,1.445.36c.529.132,1.659.592,2.147.864l5.097,2.848c3.581,2.001,7.119,3.91,11.372,4.386l3.79-.038c.423-.004,1.316-.983,1.269-1.203l-1.523.415ZM320.999,14.392l.702,1.954c.13.363-1.205.727-1.609.667-.141-.021-.113.578.03.55l.483-.094,1.804-.341c.648-.123,2.124-1.126,1.802-1.803l-1.269-2.668-1.094.998c-.486-.214-.31-.136.205.089.479.181,1.383.956,1.589,1.553.135.392-1.077,1.305-1.138,1.068-.545-.953-.971-1.615-1.503-1.973ZM327.045,22.067l-.198,2.744c-.037.513-1.119,1.445-1.652,1.394l-3.163-.302-2.271-.499-4.171-1.335c-5.066-1.622-9.313-4.598-12.961-8.52l-2.78-2.502.12.69,2.619,2.553c1.873,1.826,3.625,3.572,5.784,4.982,4.624,3.022,9.532,4.563,14.98,5.556,1.375.251,3.326-.333,3.878-1.52l.403-.868-.027-1.595-.563-.778ZM322.489,31.47l.654-.738-2.541-.225-1.217-.301-1.079-.299-3.93-1.26-.838-.369-1.315-.52-1.305-.494c-2.404-.911-5.161-2.523-6.983-4.413l-2.401-2.49c-.088-.091-.477-.787-.516-.916l-.843-2.782c-.384.252-.528,1.529-.228,2.048l.919,1.586c1.469,2.535,6.832,6.392,10.116,7.688l1.252.494,1.112.444,1.001.421,3.996,1.302,1.052.273,1.223.292,1.87.259ZM304.663,28.003c-1.817-1.101-3.772-2.289-4.649-4.171l-.902-1.938c-.151-.324-.105-1.188-.032-1.531l.296-.692c.062-.145-.708-.169-.709-.011l-.008,2.971c1.068,1.955,2.151,3.559,4.008,4.718l2.767,1.728c.199.124,1.197.057,1.051.031l-1.823-1.105ZM327.8,33.246l1.65-1.837c.141-.157.438-.881.517-1.098l.857-2.333.099-3.403-.711.041-.099,3.671c-.004.157-.243.809-.315.951l-1.08,2.133c-.211.417-.887,1.078-1.343,1.573-.089-.063.112.08.423.303ZM332.439,34.057l1.367-1.699c.606-.753,1.145-3.436.839-3.965l-.416-.718-.216,2.483-.457,1.265c-.063.173-.386.875-.511,1.023l-1.4,1.663.794-.052ZM322.264,34.52l-1.755-.557-1.918-.337-1.377-.425-3.17-1.22c.283.423.77.956,1.061,1.065l1.58.596,1.308.496c.23.087,1.023.344,1.257.347l3.014.035ZM317.319,39.315l.909.152c.544-.179.719-.594-.147-.398-1.786-.638-2.96-1.311-4.544-2.367-.065-.122.049.6.186.703l1.783,1.339c.429.236,1.336.707,1.259,1.061l-.329,1.507-.059.804c1.587-1.134.197-2.926.943-2.801ZM313.836,43.07c-.621-.333-1.598-1.48-1.841-2.082l-.292-.723c-.058-.144-.478.252-.427.398.617,1.764,2.188,3.488,3.821,3.084l-1.261-.677ZM309.861,42.331c-.029-.131-.301-.654-.314-.531l-.084.76c.156,1.775,1.991,3.811,4.395,3.368l.075-.382c-2.172.165-3.651-1.316-4.072-3.215ZM278.494,45.051c.538-.438.506-.821-.204-.497l-3.821-1.562c-1.302-.532-2.798-.767-4.029-.277l.275,1.393c.056.282,1.017.026,1.276-.1,1.751-.851,3.168.943,6.503,1.042ZM342.214,123.054l.776-1.83,1.064-2.162,3.363-5.258,3.62-4.631c2.421-3.097,5.165-5.863,8.499-8.001l5.254-3.369,5.177-2.25c-1.943-1.44-4.496-2.459-6.914-1.936-5.956,1.289-14.844,8.862-18.093,13.779l-5.854,8.86c-1.436,2.174-2.207,4.617-3.004,7.064-1.862,5.718-1.738,12.18,4.117,13.509l1.051-.995c-2.183-3.653-.705-8.891.944-12.779ZM348.144,129.07l1.016-2.414c2.187-4.092,4.491-7.998,7.654-11.329l2.989-3.148c4.417-4.651,12.665-10.336,18.855-10.868-1.226-2.184-3.089-3.756-5.569-4.313-3.087-.694-10.759,3.731-13.527,6.372l-6.608,6.307c-2.615,2.496-4.645,5.459-6.358,8.677l-2.34,4.396c-1.682,3.159-3.067,8.982-1.674,12.147l4.183-1.669,1.379-4.159ZM330.902,159.524l4.504.293,5.234.795c.505.077,1.293.433,1.82.743l-3.209-.033-3.678-.341c-3.267-.303-6.456-.2-9.805.486l5.462.793c9.116,2.149,17.189,8.073,21.458,16.597l2.318-1.918,4.554-3.707,5.721-4.69,4.616-3.953,4.347-3.92,3.575-3.561c9.402-9.366,14.652-22.557,11.705-35.778-.935-4.195-3.671-10.147-6.705-12.915l-3.178-2.899-3.602-2.214c-3.784,1.308-7.209,2.79-10.213,5.254l-3.555,2.915c-5.851,5.287-10.339,11.717-13.214,19.12,1.589-1.106,2.987-2.156,4.593-2.686l2.374-.784.815.488c-2.867,1.326-5.156,2.512-7.439,4.341,2.221-.373,4.12-.809,6.237-.766l2.143.53c.082.259.223.7.221.696l-3.749.06-4.336.797c2.133,1.134,3.914,1.428,6.175,3.656,1.13,1.114,1.962,2.041,2.18,3.99l-1.863-1.841c-2.269-2.242-5.196-4.404-8.663-4.257-3.105.132-8.217,4.205-10.611,7.042l-1.657,1.964c-4.261,5.05-7.547,10.732-10.851,16.374,2.273-.419,4.159-.812,6.277-.674ZM379.706,162.039c1.235,1.024,1.808,2.754,1.815,4.389l.029,7.138c.006,1.595.698,3.214,1.224,4.715l.636-.396c2.577-5.513,6.165-10.218,10.752-14.114,1.931-1.641,3.823-3.289,6.164-4.246l6.174-2.523,1.001-.352-3.065-7.457-3.682-11.394-.173-1.197-.673,2.878c-.446,1.91-1.309,3.801-2.197,5.582l-.315.631c-.069.138-.56-.317-.428-.272,1.389-4.562,2.028-9.002,2.022-13.735-.27-4.274-.807-8.48-2.958-12.098l-2.669-4.49c-3.061-3.999-6.544-7.51-11.229-9.597l1.829,2.164c3.08,3.645,5.596,7.594,6.347,12.28l1.251,7.808-.064,3.935c-.483,4.427-1.249,8.781-3.02,12.765l-1.704,3.832,1.875-2.323c.194-.241.629-.546,1.015-.716l-1.373,2.903-.907,1.339-1.272,1.589-2.114,2.489-4.401,4.648,2.965-.644c.097-.181.31.494.242.725l-3.506,1.328-1.457.306-3.646,3.6c1.507-.077,3-.286,4.18-.851l1.333-.638ZM334.849,136.56c-.365.312.108-.686-.573-2.482l-.649-1.71-.457-2.509c-1.912,3.86-1.36,9.162,2.602,10.872l2.895-2.741c-1.867-.47-3.031-2.103-3.302-1.872l-.517.442ZM397.952,165.946l1.304-.984,3.605-2.178c2.114-1.278,4.38-1.784,6.916-2.541l-.746-1.695c-.088-.199-.93-.404-1.156-.325l-6.015,2.105c-7.712,3.848-14.38,11.41-17.716,19.388l1.451,1.837c1.764-3.686,3.39-6.96,6.189-9.758l4.482-4.481,1.687-1.367ZM458.311,227.268l1.158.719c.236.146.067,1.08-.136,1.27s-.842.574-1.039.469l-.928-.495.173.67c.035.136.48.233.616.2l1.122-.27c1.107-.266.393-2.518,2.13-3.144l2.815-1.013.666.547-1.917.785c-.607.248-1.404,1.024-2.132,1.805l.558.534c2.319-.99,4.829,1.22,7.62-1.87.626-.693,1.317-1.647,1.739-2.5l3.565-7.21c1.349-2.728,2.729-5.43,4.893-7.627l1.939-1.97,3.536-2.996c2.436-2.064,4.08-4.591,3.157-7.541-.426-1.361-1.803-2.37-3.178-2.448l-3.182-.18-3.712-.421c-5.098-1.039-9.997-2.407-14.674-4.728l-8.445-4.191-11.585-6.704c-5.917-3.424-12.15-5.851-18.879-6.553l-6.609-.69,1.082,1.841c-.093.078-.979-.091-1.232-.266l-4.628-3.182c.515-.553,1.796-.476,1.55-.567-.01-.004-.424-.451-.521-.626l-3.752-6.785-3.175.811-2.752,1.173c-7.16,3.744-14.25,11.007-16.816,18.779l4.512,5.756,4.995,5.033c1.188,1.197,3.256,1.8,4.87,1.963l8.024.81,12.534.689,5.412.353c8.954.584,17.649,1.652,26.374,3.448l10.283,2.984c.883.256,1.947,1.145,2.428,1.786l-2.627,5.503-3.79,6.893-1.514,2.467-.821,1.325-4.922,1.814.149,1.248c.057.476-1.317,1.074-1.7.8l-1.619-1.157c-.042.516.01,1.463.256,1.924s1.818.822,2.212.471l2.208-1.965c.106-.094.664-.418.805-.464l3.098-1.026c.112-.037.484.109.594.153.109.044-.111.471-.219.511l-1.595.579c-1.72.625-2.728,1.519-2.332,3.163l-.629.528-1.157.362,1.8.578c.304.098.968-.628,1.101-.976.857-2.232,3.217-3.65,5.922-3.49l-3.604,2.019c-.023.096-.094.382-.071.289ZM349.692,182.025l1.445-1.754c.296-.359-.283-1.581-.526-2.013-3.206-5.697-8.062-9.862-13.985-12.509-3.905-1.745-7.847-2.77-12.176-2.366l-2.737.702c-.455.117-1.125,1.168-1.291,1.504l3.699-.286,3.195.29c7.251,1.35,14.323,5.581,19.041,11.218,2.624,3.135,2.73,5.947,3.335,5.213ZM380.057,175.154l.328-7.669c.045-1.049.033-2.228-.359-3.17l-.442-1.061-2.081,1.143c-1.493.82-3.291.785-5.054.607l-1.654,1.376,3.69,3.446,5.572,5.328ZM271.308,266.928l-4.147-.179.269,1.117-1.797.528-.907-.427-.637.25c.816,2.042,2.376,1.234,4.586.503.596-.197,1.97-.183,2.602-.076l1.491.254-.089.904-3.055-.182.368.93c.176.444-1.184,1.642-1.49,1.337l-1.209-1.202c-.029-.115-.094-.221-.155-.131-.058.087-.267.461-.278.564-.041.386.669,1.268,1.095,1.33,2.6.377,3.642-.716,5.127-.204,1.749.603,3.473.885,5.215.75l5.044-.393c3.752-.292,7.552-.66,11.25.017l2.659.487c3.004.55,6.253.721,7.402-1.72.44-.934.549-2.15.518-3.141l-.17-5.397c.306-3.424,1.228-6.545,2.634-9.681,2.589-5.772,5.601-11.09,8.855-16.49l3.255-5.403,7.478-13.95.559-1.307,1.434-3.979,1.386-4.3,2.177-9.349.904-3.918c.043-.188.585-.693.846-.91l.08,3.026,2.864-3.146,10.242-10.314c-.857-3.165-4.393-7.602-7.036-9.276l-5.925-3.752c-3.484-2.206-10.19-3.61-14.52-2.648l-1.899,3.29-3.391,6.235c-2.152,3.957-3.1,8.23-3.876,12.646l-.412,2.345-8.245,33.621-1.188,4.289-3.448,11.689-2.05,6.527-.898,2.591-1.676,4.545-1.012,2.549c-3.471.771-6.783,1.419-10.336,1.177l-9.363-.639-2.367-.846c-.164-.059-.662-.138-.656-.122-.208.288-.758.918-.953.951-.673.116-2.182-.787-2.384-1.365l.634-1.798c-.76.158-1.69.846-1.77,1.468-.515,4.04,4.164,1.955,6.878,4.678-.64.114-1.262.125-1.719.032l-3.57-.725c-.056.612-.406,1.567-.804,1.673-.768.204-2.055-.277-2.274-.636-.194-.813-.24-.884-.353-.862-.395.432-.137,1.672.28,1.777.43.109,1.204.182,1.583.191l4.639.121c.551.014,1.435.528,1.903,1.01-.659.189-1.341.205-1.849.158l-3.511-.327.171,1.071-1.019.652c-.282.181-1.271.284-1.354.233l-.54-1.239-.501.238c-.166.079-.014.899.118,1.027,1.499,1.456,3.62-.453,5.786-.077l2.564.445c.469-.036.355.899-.065.881Z"/>
        <path d="M142.773,65.021c.134.08.534.31.528.305-.008-.007.313-.25.407-.314.55-.375-1.695-.605-1.868-2.427-.041-.045-.606.1-.677.303l-.425,1.202c-.207-.393-.297-1.675.121-1.905l.906-.499c.435-.24-.48-1.773-1.616-1.888-.372-.038-1.176.519-1.26.881l-.253,1.088c-.719-.483-.578-1.836.312-2.383.9-.553,2.439-.285,3.143.576,1.737,2.123.367,3.08,1.1,3.47.484.258,1.165.823,1.283,1.216l.279.93c.071.237-.591.51-.838.43l-1.96-.634c-.371-.12-.924-.892-1.178-1.545l1.997,1.196Z"/>
        <polygon points="163.799 88.145 162.149 89.396 162.074 88.379 164.285 86.606 170.184 83.302 170.654 83.607 168.642 85.136 164.768 87.484 163.799 88.145"/>
        <path d="M158.887,89.391l-.87.265-3.451-.943c-1.975-.54-3.683-1.171-5.411-2.023.584.008,1.099.045,1.404.11l5.792,1.234c.718.153,1.576.712,2.535,1.357Z"/>
        <path d="M10.009,253.871c.476.989,1.706,1.432,2.578,1.503l.893.074c.784.065-1.567,1.611-3.639.32-1.46-.91-1.627-2.524-.942-3.841.604-1.16,1.592-2.002,3.295-2.058l-1.343,1.192-.764.982c-.232.298-.26,1.451-.079,1.828Z"/>
        <path d="M158,235.603c-.304.7-.746,1.517-1.186,1.824-1.322.922-2.867.919-4.027-.012-1.257-1.008-1.229-2.564-.378-4.164l.584.04c-.384,1.559-.213,2.536.75,3.272.761.581,2.049.299,2.942-.21l1.315-.749Z"/>
        <path d="M336.048,98.223l-4.835-4.871c-1.96-1.974-3.347-4.36-4.713-6.719l-1.323-2.285-1.612-3.197-4.038-11.086.077-1.506,4.276,10.316c2.3,5.55,5.223,10.878,9.47,15.2l6.11,6.218-.544.097-1.463-1.096-1.406-1.072Z"/>
        <path d="M286.111,30.113c1.237.342-1.821.324-3.053,1.011-2.013,1.122-4.03,1.287-5.972-.231l.516-.374.171-1.889-1.001-.226.53-.85c.331-.53,1.259-1.646,1.925-1.757.994-.166,2.19.244,3.137.628l.694.967-2.322-.862c-.604-.224-1.937.105-2.456.638,3.545-.255,4.442,2.007,6.996,2.714l.835.231ZM283.041,30.509c.199-.099-.164-.902-.404-1.045l-1.613-.967-.537,2.76,2.554-.747Z"/>
        <path d="M305.931,40.01l1.866-1.407,1.877-1.832c.148.014-.091,1.325-.467,1.607l-3.009,2.254-.9.553c-.185.114-.783-.447-.882-.673-.362-.832.713-2.031,1.41-2.319.421-.174.308-1.18.115-1.628-.316-.733-.154-2.578.424-3.108l1.641-1.506c.529-.486,2.132-.281,2.608.204.628.639.822,1.901.428,2.537-.42-.801-.815-1.72-1.242-1.986-1.172-.729-2.974,1.094-2.924,2.096.009.188.521.409.965.521.464-.16.48.819.027.634l-.982.384.761,1.32-2.284,1.792.567.558Z"/>
        <path d="M285.912,25.38c-2.858-2.352-4.667-2.568-7.572-1.184l-.739.352c-.237.113-.18-.932.051-1.116,2.87-2.29,6.332-1.689,8.851,1.65.483.669-.179.764-.591.298Z"/>
        <path d="M243.767,68.994c-.269.34-.602,1.348-.765,1.751-.063.154-.553-.189-.586-.349l-.373-1.801-.476-2.099c-.035-.156.582-.557.627-.409l.243.805c.087.287.351.833.498,1.07s.933-.428,1.128-.649l1.02.02-1.316,1.662Z"/>
        <path d="M295.277,265.698l1.125.558c.469.293,1.423.712,2.16.692.572-.016,1.609-1.018,1.793-1.559l.527-1.543c.733,1.245.405,2.857-.768,3.696-1.062.76-2.358.828-3.458.157-.579-.353-.839-.796-1.379-2.002Z"/>
        <path d="M477.413,202.707c1.555-.165,2.85-1.795,2.346-3.144-.134-.36-.832-1.014-1.145-1.236l-.867-.614c1.403-.366,2.374.137,3.1,1.314.382.62.262,2.181-.266,2.876-.914,1.201-3.224,1.89-3.167.805Z"/>
      </g>
    </g>
  </g>
</svg>