<?xml version="1.0" encoding="UTF-8"?>
<svg id="b" data-name="Layer 2" xmlns="http://www.w3.org/2000/svg" width="152.119" height="51.139" viewBox="0 0 152.119 51.139">
  <g id="c" data-name="Layer 1">
    <g>
      <rect x="11.664" y="10.72" width="3.502" height="3.502" transform="translate(12.748 -5.833) rotate(45)" fill="#f41423"/>
      <path d="M40.739,5.411V0l-.799.07c-9.678.847-15.017,5.337-16.688,7.002C21.608,5.402,16.35.927,6.554.07l-.799-.07v5.411H0v34.681l.011.735h.703c15.112,1.337,21.892,9.521,21.958,9.602l.572.71.573-.709c.067-.083,6.847-8.267,21.959-9.603h.714V5.411h-5.751ZM39.27,1.614v31.133c-.473.05-.931.111-1.382.177-.063.009-.127.018-.19.027-.425.065-.839.138-1.245.216-.076.015-.151.029-.226.044-.4.08-.791.165-1.171.256-.062.015-.123.031-.184.046-.392.096-.777.197-1.149.304-.015.004-.03.009-.045.013-.367.106-.723.218-1.071.333-.048.016-.096.031-.143.047-.338.114-.665.232-.984.352-.06.023-.12.045-.179.068-.312.12-.616.243-.91.369-.052.022-.102.044-.153.067-.3.13-.593.262-.874.397-.02.01-.039.019-.058.029-.277.133-.544.268-.803.404-.031.016-.063.032-.094.049-.257.136-.504.273-.743.41-.042.024-.084.048-.125.072-.233.135-.456.27-.672.405-.035.022-.07.044-.105.066-.219.139-.43.276-.631.412-.013.009-.025.017-.038.026-.205.14-.4.278-.585.413-.01.008-.021.015-.031.023-.186.136-.36.269-.526.399-.019.015-.038.03-.057.044-.163.128-.316.253-.46.373-.014.012-.027.023-.041.034-.147.124-.286.244-.414.358V8.432c.906-.989,5.73-5.751,15.288-6.819ZM7.224,1.614c9.546,1.067,14.371,5.82,15.287,6.816v30.55c-.128-.115-.267-.235-.415-.36-.012-.01-.024-.02-.036-.03-.145-.122-.3-.247-.464-.376-.017-.014-.035-.028-.053-.041-.167-.131-.343-.265-.53-.402-.009-.007-.019-.013-.028-.02-.188-.137-.385-.276-.592-.418-.011-.007-.021-.015-.032-.022-.201-.137-.414-.275-.634-.415-.034-.022-.067-.043-.102-.065-.216-.135-.441-.271-.674-.406-.04-.023-.081-.047-.122-.07-.24-.138-.487-.275-.744-.412-.03-.016-.062-.032-.092-.048-.259-.136-.527-.271-.805-.405-.019-.009-.038-.019-.057-.028-.281-.134-.574-.267-.874-.397-.051-.022-.101-.044-.153-.067-.294-.126-.597-.248-.909-.369-.06-.023-.12-.046-.18-.069-.319-.12-.646-.238-.983-.352-.048-.016-.096-.031-.144-.047-.347-.115-.702-.226-1.069-.332-.016-.005-.03-.009-.046-.014-.372-.107-.756-.207-1.148-.304-.062-.015-.123-.031-.185-.046-.381-.091-.771-.176-1.171-.256-.075-.015-.151-.03-.226-.044-.406-.078-.82-.15-1.245-.216-.063-.01-.127-.018-.19-.027-.451-.066-.909-.127-1.382-.178V1.614ZM45.021,39.422c-13.025,1.323-19.845,7.424-21.776,9.445-1.93-2.021-8.75-8.122-21.775-9.445V6.881h4.285v27.206l.671.059c11.183.979,16.201,7.021,16.249,7.08l.571.709.573-.707c.049-.061,5.067-6.103,16.25-7.082l.671-.059V6.881h4.281v32.541Z" fill="#05286e"/>
      <polygon points="35.419 12.331 35.419 13.911 28.382 16.725 28.382 15.142 35.419 12.331" fill="#05286e"/>
      <polygon points="35.419 18.908 35.419 20.488 28.382 23.303 28.382 21.719 35.419 18.908" fill="#05286e"/>
      <polygon points="35.419 25.603 35.419 27.183 28.382 29.998 28.382 28.414 35.419 25.603" fill="#05286e"/>
      <polygon points="11.074 18.908 11.074 20.488 18.11 23.303 18.11 21.719 11.074 18.908" fill="#05286e"/>
      <polygon points="11.074 25.603 11.074 27.183 18.11 29.998 18.11 28.414 11.074 25.603" fill="#05286e"/>
    </g>
    <g>
      <g>
        <path d="M65.999,27.822V7.689h-7.081V3.524h18.744v4.166h-7.081v20.133h-4.582Z" fill="#05286e"/>
        <path d="M93.491,28.308c-1.874,0-3.529-.336-4.964-1.007-1.435-.671-2.557-1.631-3.367-2.881-.81-1.25-1.215-2.754-1.215-4.513v-.972h4.512v.972c0,1.458.451,2.551,1.354,3.28s2.129,1.093,3.68,1.093c1.573,0,2.748-.312,3.523-.937.775-.625,1.163-1.423,1.163-2.395,0-.671-.191-1.215-.572-1.631-.382-.417-.937-.758-1.666-1.024-.729-.266-1.614-.515-2.656-.746l-.798-.173c-1.666-.37-3.095-.839-4.287-1.406-1.192-.567-2.106-1.313-2.742-2.239-.637-.925-.954-2.129-.954-3.61s.353-2.748,1.059-3.801c.706-1.053,1.701-1.863,2.985-2.43,1.284-.567,2.794-.85,4.53-.85s3.28.295,4.634.885c1.354.59,2.418,1.47,3.193,2.638.775,1.169,1.163,2.633,1.163,4.391v1.041h-4.512v-1.041c0-.925-.18-1.672-.538-2.239-.359-.567-.874-.983-1.545-1.25-.671-.266-1.47-.399-2.395-.399-1.389,0-2.412.26-3.072.781-.659.521-.989,1.232-.989,2.135,0,.602.156,1.111.468,1.527.312.417.781.764,1.406,1.041s1.423.521,2.395.729l.798.173c1.736.371,3.246.845,4.53,1.423,1.284.579,2.285,1.342,3.003,2.291.717.949,1.076,2.164,1.076,3.645s-.377,2.783-1.128,3.905c-.752,1.123-1.817,2.002-3.193,2.638-1.377.636-3.003.955-4.877.955Z" fill="#05286e"/>
        <path d="M110.777,27.822V3.524h9.997c1.527,0,2.875.307,4.044.92,1.168.613,2.083,1.475,2.742,2.586.66,1.111.989,2.43.989,3.957v.486c0,1.505-.341,2.818-1.024,3.94-.683,1.123-1.609,1.991-2.777,2.603-1.169.613-2.494.92-3.974.92h-5.415v8.886h-4.582ZM115.359,14.771h4.964c1.087,0,1.967-.3,2.638-.903.671-.601,1.007-1.423,1.007-2.465v-.347c0-1.041-.336-1.863-1.007-2.465-.671-.602-1.551-.902-2.638-.902h-4.964v7.081Z" fill="#05286e"/>
        <path d="M136.43,27.822V3.524h4.582v20.133h11.108v4.165h-15.69Z" fill="#05286e"/>
      </g>
      <g>
        <path d="M60.536,37.494v-4.008h-1.445v-.488h3.43v.488h-1.445v4.008h-.539Z" fill="#05286e"/>
        <path d="M64.094,37.494v-4.496h.507v1.856h.09c.043-.094.108-.183.196-.267.088-.084.201-.153.341-.209.139-.055.316-.083.53-.083.236,0,.447.05.633.151.186.101.335.246.446.437.111.191.167.427.167.71v1.901h-.508v-1.863c0-.312-.078-.539-.234-.681-.156-.141-.367-.212-.633-.212-.304,0-.551.099-.742.296-.19.197-.286.49-.286.88v1.58h-.507Z" fill="#05286e"/>
        <path d="M69.861,37.584c-.218,0-.417-.038-.597-.115-.18-.077-.321-.188-.424-.334-.103-.146-.154-.323-.154-.533,0-.214.052-.391.154-.53.103-.139.244-.244.424-.315.18-.071.381-.106.604-.106h1.06v-.231c0-.223-.066-.398-.196-.527-.131-.129-.324-.193-.581-.193-.252,0-.449.061-.591.183-.141.122-.238.286-.289.491l-.476-.154c.052-.175.133-.335.244-.479.111-.143.26-.259.446-.347.186-.088.41-.131.671-.131.403,0,.715.104.937.311.223.208.334.5.334.877v1.419c0,.128.06.193.18.193h.289v.43h-.443c-.141,0-.255-.039-.34-.119-.086-.079-.129-.185-.129-.318v-.032h-.077c-.047.082-.111.166-.19.254-.079.088-.187.16-.324.218-.137.058-.315.087-.533.087ZM69.919,37.147c.3,0,.542-.089.729-.267s.279-.427.279-.748v-.071h-1.04c-.201,0-.367.044-.498.132s-.196.219-.196.395.067.312.202.411c.135.099.309.148.524.148Z" fill="#05286e"/>
        <path d="M73.715,33.865c-.111,0-.205-.036-.279-.109-.075-.073-.112-.165-.112-.276,0-.116.037-.21.112-.283.075-.073.168-.109.279-.109s.203.037.276.109c.073.073.109.167.109.283,0,.111-.037.203-.109.276-.073.073-.165.109-.276.109ZM73.458,37.494v-3.141h.507v3.141h-.507Z" fill="#05286e"/>
        <path d="M79.887,37.584c-.325,0-.616-.058-.874-.173-.257-.115-.459-.29-.607-.523-.148-.233-.222-.526-.222-.877v-.135h.533v.135c0,.372.109.65.328.832.218.182.499.273.842.273.351,0,.619-.079.803-.238s.276-.357.276-.597c0-.167-.041-.3-.125-.398-.083-.098-.2-.179-.35-.241-.15-.062-.325-.117-.526-.164l-.334-.084c-.261-.068-.492-.152-.694-.251-.201-.098-.358-.228-.472-.388-.113-.16-.17-.367-.17-.62s.063-.471.189-.655c.126-.184.304-.325.533-.424.229-.098.493-.148.793-.148.304,0,.577.052.819.157.242.105.432.259.571.462.139.203.209.459.209.768v.27h-.533v-.27c0-.218-.046-.394-.138-.527-.092-.133-.218-.231-.379-.296-.161-.064-.344-.096-.549-.096-.296,0-.533.065-.713.196-.18.131-.27.316-.27.556,0,.158.039.287.116.385.077.099.186.179.328.241.141.062.31.117.507.164l.334.083c.261.056.496.132.703.228.207.097.374.227.497.392.124.165.186.38.186.645s-.066.497-.199.694c-.132.197-.32.35-.562.459-.242.109-.526.164-.851.164Z" fill="#05286e"/>
        <path d="M83.592,38.778v-.45h1.798c.124,0,.186-.064.186-.193v-1.143h-.09c-.043.09-.108.179-.196.267-.088.088-.202.158-.344.212s-.319.08-.533.08c-.227,0-.435-.049-.626-.148-.19-.099-.34-.244-.449-.437-.109-.193-.164-.428-.164-.707v-1.907h.508v1.869c0,.308.078.533.234.674.156.141.367.212.633.212.3,0,.546-.099.739-.295.193-.197.289-.49.289-.88v-1.58h.507v3.873c0,.171-.048.306-.144.405s-.237.148-.421.148h-1.927Z" fill="#05286e"/>
        <path d="M88.011,37.494v-3.141h.494v.392h.09c.06-.111.158-.214.296-.308.137-.094.329-.141.578-.141.244,0,.442.053.594.16.152.107.262.238.331.392h.09c.073-.154.183-.285.331-.392.148-.107.354-.16.62-.16.21,0,.394.043.552.128.159.086.284.209.376.369.092.16.138.352.138.575v2.126h-.507v-2.081c0-.21-.061-.376-.183-.498-.122-.122-.292-.183-.51-.183-.231,0-.421.075-.568.225-.148.15-.222.366-.222.649v1.888h-.508v-2.081c0-.21-.061-.376-.183-.498-.122-.122-.292-.183-.511-.183-.231,0-.42.075-.568.225-.148.15-.222.366-.222.649v1.888h-.507Z" fill="#05286e"/>
        <path d="M96.142,37.584c-.325,0-.579-.062-.761-.186s-.314-.265-.395-.424h-.09v.52h-.494v-4.496h.507v1.85h.09c.051-.099.124-.192.218-.279.094-.088.217-.16.369-.218.152-.058.337-.087.555-.087.274,0,.524.065.748.196s.403.317.536.559c.133.242.199.53.199.864v.084c0,.334-.068.623-.202.867-.135.244-.315.43-.539.559-.225.128-.472.193-.742.193ZM96.007,37.134c.325,0,.59-.104.793-.311s.305-.498.305-.87v-.058c0-.372-.102-.663-.305-.87-.203-.207-.468-.311-.793-.311-.321,0-.586.104-.793.311-.208.208-.311.498-.311.87v.058c0,.373.103.663.311.87s.472.311.793.311Z" fill="#05286e"/>
        <path d="M100.855,37.584c-.317,0-.596-.066-.838-.199-.242-.133-.431-.32-.565-.562-.135-.242-.202-.528-.202-.857v-.084c0-.325.067-.61.202-.854.135-.244.323-.432.565-.565.242-.133.521-.199.838-.199s.596.066.838.199c.242.133.431.321.565.565.135.244.202.529.202.854v.084c0,.33-.067.616-.202.857-.135.242-.323.429-.565.562s-.521.199-.838.199ZM100.855,37.128c.334,0,.6-.106.8-.318.199-.212.299-.498.299-.857v-.058c0-.36-.1-.645-.299-.857-.199-.212-.466-.318-.8-.318-.33,0-.595.106-.797.318-.201.212-.302.498-.302.857v.058c0,.36.101.645.302.857.201.212.467.318.797.318Z" fill="#05286e"/>
        <path d="M104.24,37.494v-4.496h.507v4.496h-.507Z" fill="#05286e"/>
        <path d="M109.179,37.494v-4.496h1.721c.27,0,.51.052.723.157.212.105.38.254.504.446.124.193.186.426.186.7v.083c0,.27-.063.502-.189.697-.127.195-.297.343-.511.446s-.452.154-.713.154h-1.182v1.811h-.539ZM109.718,35.195h1.124c.287,0,.514-.072.681-.215.167-.144.25-.346.25-.607v-.064c0-.261-.082-.463-.247-.607-.165-.143-.393-.215-.684-.215h-1.124v1.708Z" fill="#05286e"/>
        <path d="M114.818,37.584c-.218,0-.417-.038-.597-.115-.18-.077-.321-.188-.424-.334-.103-.146-.154-.323-.154-.533,0-.214.052-.391.154-.53.103-.139.244-.244.424-.315.18-.071.381-.106.604-.106h1.06v-.231c0-.223-.066-.398-.196-.527-.131-.129-.324-.193-.581-.193-.252,0-.449.061-.591.183-.141.122-.238.286-.289.491l-.476-.154c.052-.175.133-.335.244-.479.111-.143.26-.259.446-.347.186-.088.41-.131.671-.131.403,0,.715.104.937.311.223.208.334.5.334.877v1.419c0,.128.06.193.18.193h.289v.43h-.443c-.141,0-.255-.039-.34-.119-.086-.079-.129-.185-.129-.318v-.032h-.077c-.047.082-.111.166-.19.254-.079.088-.187.16-.324.218-.137.058-.315.087-.533.087ZM114.876,37.147c.3,0,.542-.089.729-.267s.279-.427.279-.748v-.071h-1.04c-.201,0-.367.044-.498.132s-.196.219-.196.395.067.312.202.411c.135.099.309.148.524.148Z" fill="#05286e"/>
        <path d="M119.57,37.494c-.18,0-.318-.049-.414-.148-.096-.098-.144-.233-.144-.405v-2.145h-.944v-.443h.944v-1.117h.507v1.117h.822v.443h-.822v2.068c0,.128.062.193.186.193h.7v.437h-.835ZM121.638,37.494c-.18,0-.319-.049-.418-.148-.099-.098-.148-.233-.148-.405v-2.145h-.732v-.443h.732v-1.117h.507v1.117h1.034v.443h-1.034v2.068c0,.128.064.193.193.193h.7v.437h-.835Z" fill="#05286e"/>
        <path d="M125.742,37.584c-.317,0-.595-.067-.835-.202s-.426-.324-.559-.568c-.133-.244-.199-.527-.199-.848v-.077c0-.325.066-.61.199-.854.132-.244.316-.434.552-.569.235-.135.505-.202.809-.202.296,0,.557.063.784.189s.405.307.533.543c.128.235.193.511.193.828v.231h-2.563c.013.338.122.603.328.793s.462.286.771.286c.27,0,.477-.062.623-.186.145-.124.257-.272.334-.443l.437.212c-.065.133-.153.266-.267.398-.114.133-.261.244-.444.334-.182.09-.414.135-.697.135ZM124.663,35.638h2.042c-.017-.291-.116-.518-.299-.681-.182-.163-.414-.244-.697-.244-.287,0-.522.081-.707.244s-.297.39-.34.681Z" fill="#05286e"/>
        <path d="M128.972,37.494v-3.141h.494v.385h.09c.056-.137.141-.238.257-.302.116-.064.267-.097.456-.097h.373v.462h-.405c-.227,0-.41.063-.549.189-.139.126-.209.322-.209.588v1.914h-.507Z" fill="#05286e"/>
        <path d="M132.261,37.494v-3.141h.494v.533h.09c.069-.15.185-.286.35-.408.165-.122.408-.183.729-.183.236,0,.447.049.633.148s.335.244.446.437.167.43.167.713v1.901h-.508v-1.863c0-.312-.078-.539-.234-.681-.156-.141-.367-.212-.633-.212-.304,0-.551.099-.742.296-.19.197-.286.49-.286.88v1.58h-.507Z" fill="#05286e"/>
        <path d="M139.563,37.494v-4.496h.539v4.008h2.273v.488h-2.813Z" fill="#05286e"/>
        <path d="M144.919,37.584c-.218,0-.417-.038-.597-.115-.18-.077-.321-.188-.424-.334-.103-.146-.154-.323-.154-.533,0-.214.052-.391.154-.53.103-.139.244-.244.424-.315.18-.071.381-.106.604-.106h1.06v-.231c0-.223-.066-.398-.196-.527-.131-.129-.324-.193-.581-.193-.252,0-.449.061-.591.183-.141.122-.238.286-.289.491l-.476-.154c.052-.175.133-.335.244-.479.111-.143.26-.259.446-.347.186-.088.41-.131.671-.131.403,0,.715.104.937.311.223.208.334.5.334.877v1.419c0,.128.06.193.18.193h.289v.43h-.443c-.141,0-.255-.039-.34-.119-.086-.079-.129-.185-.129-.318v-.032h-.077c-.047.082-.111.166-.19.254-.079.088-.187.16-.324.218-.137.058-.315.087-.533.087ZM144.977,37.147c.3,0,.542-.089.729-.267s.279-.427.279-.748v-.071h-1.04c-.201,0-.367.044-.498.132s-.196.219-.196.395.067.312.202.411c.135.099.309.148.524.148Z" fill="#05286e"/>
        <path d="M150.256,37.584c-.325,0-.579-.062-.761-.186s-.314-.265-.395-.424h-.09v.52h-.494v-4.496h.507v1.85h.09c.051-.099.124-.192.218-.279.094-.088.217-.16.369-.218.152-.058.337-.087.555-.087.274,0,.524.065.748.196s.403.317.536.559c.133.242.199.53.199.864v.084c0,.334-.068.623-.202.867-.135.244-.315.43-.539.559-.225.128-.472.193-.742.193ZM150.122,37.134c.325,0,.59-.104.793-.311s.305-.498.305-.87v-.058c0-.372-.102-.663-.305-.87-.203-.207-.468-.311-.793-.311-.321,0-.586.104-.793.311-.208.208-.311.498-.311.87v.058c0,.373.103.663.311.87s.472.311.793.311Z" fill="#05286e"/>
      </g>
    </g>
  </g>
</svg>