<?xml version="1.0" encoding="UTF-8"?>
<svg id="b" xmlns="http://www.w3.org/2000/svg" version="1.1" viewBox="0 0 510.4 507.1">
  <!-- Generator: Adobe Illustrator 30.4.0, SVG Export Plug-In . SVG Version: 2.1.4 Build 226)  -->
  <g id="c">
    <g id="d">
      <g>
        <path d="M210.7,117.2c1.4-2.2,2.3-4.5,3.2-6.9.9-2.3,2-4.6,2.8-7-3.5,3.1-7.3,6-11.4,8.6l-20.4,13.1c-1.4-4.7-6.6-7.9-11.3-6.3,2.6,3.2,3.2,6.7,1.1,10.1-1.4,2.3-3.3,4.6-5.6,6.4l-13.1,9.9c-6.7,5.1-13.1,9.9-14.4,17.1-3.5-1.5-6.5-2.3-10.4-2.7,1,3,2,5.6,3.6,8.2-5.7.9-10,3.3-13.8,6.2.3,0,.7-.1,1-.2,3.7-.7,7.6-.3,11.2.4,1,.2,2,.5,3.1.7.4-.2.9-.3,1.3-.5,7.5-2.5,9.8,2.8,15,2,.9-1.6,0-3.4-1.4-4.7-3.9-3.7-1.1-8.8,2.6-12.9,6.4-6.9,13.9-13,22.7-17.8,4.9-2.7,11.3-2.5,14.9,1.1,1.9,1.8,2.1,4,.6,5.8-1.4,1.7-3.9,2-6.7,1.4,3.4,3.5,9.2,3.3,12.9.6,3-2.2,4.2-5.5,3.5-8.9-1-5.2-5.8-8.8-12.4-10l16.1-10.6c1.7-1.1,3.5-2.3,5.1-3.4Z"/>
        <path d="M362.7,152.1c-4.4-4.1-9.2-7.5-14.2-11.1-7.9-5.8-19.4-14.4-11.3-22-4.8-1.8-10,1.6-11.4,6.4-8.6-5.8-41.5-24-36.7-30.8,1.5-2.2,4.8-2.3,7.7-1.3-1.5-3.2-5.7-4.9-9.7-4.3-3.6.6-6.7,3.2-7,6.7-.2,2.7,1.3,5.3,3,7.4l-4.1,2.8c-9-6.3-18.5-13.5-23.6-22.2-5.6,8.8-14.9,15.7-23.7,22.2l-3.8-2.7c1.5-2.1,2.7-4.3,2.8-6.9.1-3.6-3-6.7-7.1-7.4-4.1-.7-8.4,1.3-10,4.6,3.2-1.1,6.5-1.1,8.1,1.2,1.1,1.6.2,3.7-1.2,5.2-.1.1-.2.2-.3.3.3,1.2,0,2.5-.2,3.7-.4,2.7-1.2,5.4-1.9,8.1,1.2-.9,2.4-1.8,3.6-2.8l3.6,2.1c2,1.2,3,3.5,1.8,5.4l-2.4,3.7c6.4-2.7,11.6-6.2,16.8-10,5.1-3.7,9.5-7.6,13.7-12.1,8.5,8.9,18.4,16.6,30.6,22.2l-2.7-4.6c-.9-1.6.3-3.5,1.8-4.4l4.1-2.4,11.5,8.7,20.8,13.6c-4.2.8-7.6,2.2-9.9,4.7-3.5,3.7-4,8.6-.8,12.5,3.3,4,9.9,4.8,14.4,1.6v-.5c-2.6.5-4.2.3-5.8-.9-1.2-.9-2-2.8-1.4-4.3,1.1-2.7,4.1-4.4,7.6-4.8,3.6-.4,7.1.4,10.2,2.2,8,4.7,14.9,10.3,20.8,16.8,1,1.1,1.9,2.2,2.7,3.4,1-1.2,2.1-2.2,3.4-3.3,1.2-1,2.4-1.9,3.7-2.7-1-1.3-2.1-2.6-3.4-3.7h0Z"/>
        <path d="M56.9,281.5c1.5-.3,3.7,0,4.9.7,2.5,1.4,4.7,3,6.8,4.7,3.8-.3,7.6-.3,11.3,0l-6.5-5.6,3.1-3.3c1.3-1.4,3.8-2.2,5.9-1.3l5.2,2.3c-5.6-8.9-15.4-16.9-25.1-23,4.4-2.7,8.2-5.5,12-8.7,5.1-4.3,9.8-8.6,13.1-14.2l-4.8,2.2c-2.4,1.1-5.1.1-6.6-1.4l-2.9-3.1,6.5-5.6,20.7-20.5c1.3,7.6,9.6,12.2,18.1,10,3.2-.8,5.8-2.8,6.9-5.3,1.5-3.3,0-6.9-3.7-8.5.9,2.1,1.2,3.8,0,5.2-1.2,1.4-3.5,2.1-5.6,1.5-6.1-1.6-8.1-8.6-4.2-13.9,4.3-5.8,12.2-12.6,20-16.7-3.3-.3-6.5-.6-9.7.2-2.6.6-5.1,1.4-7.5,2.2,0,0-.1.1-.2.2-8.3,7.5-19.5,19.2-30.4,12.2-1.3,4.4,2.9,8.1,8.4,9.1l-12.5,13.4c-4.9,5.3-13.5,13.8-20,16.4-2.2.9-4.7.2-6-1.5-1.3-1.5-1.4-3.2-1.6-5.5-4.3,1.1-5.3,6.7-2.7,10.3,3.6,4.8,10.4,5,16.4,1.8l3.4,3.4-12.2,10c-3.7,3-7.9,5.3-12.8,7,10.3,3.8,17.8,10.7,25,17.1l-3.4,3.3c-5.6-2.7-11.7-2.9-15.5,1.2-2.1,2.2-2.7,5.1-1.6,7.8.7,1.7,2.3,3,4.2,3.6-.4-3.4.7-6.7,3.8-7.5h0Z"/>
        <path d="M166.1,372.8c-.4-3.2-.5-6.4-1.2-9.6-4.7-3.6-9.1-7.8-11.8-10.9-3.3-3.8-5.4-8.3-2-11.8,1.2-1.3,2.2-3,1.7-4.7-5.4-.7-7.6,4.8-14.8,2.3-9.3-3.3-19.3-11.5-25.1-18.4-2.4-2.9-3.6-6.1-2.9-9.5.7-3,3-5.4,6.7-6,2.1-.3,4.2.7,5.1,2,1,1.6.5,3.2-.2,5,3.9-1.3,5.2-4.8,4.1-7.9-1.5-4.4-6.8-7-12.4-6.7-7.1.4-12.2,4.6-13.6,10.7l-15.4-15.9c-1.5-.2-3-.3-4.5-.3-2.1,0-4.2,0-6.3.1.4.4.8.7,1.2,1.1,6.3,6.2,12.1,12.4,17.9,18.9-6.2,1-10.2,5.4-8,9.7,2.4-2.2,4.9-3.3,8.2-2.8,3.2.5,6.4,1.6,8.7,3.5l10.2,8.2c6.8,5.5,11.8,12.5,22.9,14.7-1.5,2.6-2.6,5.1-3.4,7.9,3.9-.3,6.9-1.2,10.3-2.7.7,3.1,2,6.2,4.9,8.4l13,10.4,6.9,5.5c0-.4,0-.8-.1-1.2h0Z"/>
        <path d="M336.6,380.4c-.2-1.8-.1-3.7.1-5.5.3-2.3.7-4.6,1.3-6.9-1.1.7-2.2,1.3-3.4,1.9-5,2.6-11.3,2.5-15.3-.8-2-1.6-2.5-4-1.1-5.7,1.5-1.8,3.8-2.5,6.9-1.5.2,0,.2-.3,0-.7-3.6-2.9-8.9-2.9-12.8-.3-3.9,2.6-5,7.2-3.1,11.1,2,4.1,6.4,6.7,12,7.5l-14.9,9.5-17.4,12.3c-1.7-.8-3.9-1.7-5-2.9-2-2.2-.8-5.3,1.5-7.1,0-.4,0-.8-.1-.6-7.5,3.3-13.5,7.3-19.5,11.9l-10.7,9.7c-7.3-7.5-15.8-14.2-25.7-19.5l-4.9-2.2c1.1,1.6,2.3,2.8,2.8,4.4.5,1.8-.5,3.6-2.1,4.5l-3.6,2-9.8-7.3-22.4-14.6c5.2-1,9.4-3.3,11.4-7,2.6-4.8.7-10.4-5-12.7-3.9-1.6-8.8-.8-11,2,2.9-.6,5.3-.4,6.9,1.1,1.6,1.5,1.4,3.8-.3,5.6-2.6,2.7-7.3,3.7-11.6,2.8-2.7-.6-5.8-2.1-9-4.1.4,1.8.7,3.6,1,5.3.4,2.2.6,4.4.7,6.7,3,3.5,4.6,9.2.2,12.6,3.3.9,7.2,0,8.7-2.5l2.4-4,26.6,16.7c4.3,2.7,7.7,5.7,10.9,9.2.8.9,1.1,2.4.8,3.4-.8,2.4-4.4,2.8-8.4,2.3,1.7,2.4,4.6,3.7,7.6,3.8,3.1,0,6.3-.9,8-3.2,1.4-1.8,1.8-4.4.6-6.4l-2.1-3.5,3.7-2.4c8.7,6.2,18.2,13.1,23.6,21.6,5.5-8.9,14.6-15.6,23.6-21.7l3.9,2.5c-2.3,2.8-3.8,6.1-2.1,9.2,1.4,2.5,4.6,3.9,7.6,3.9,3.3,0,6-1.3,8.2-3.8l-.6-.3c-2.6.8-5.7.7-7.2-1.3-1.1-1.4-.3-3.4,1-4.8,3.5-3.6,7.2-6.7,11.7-9.6l24.4-15.3c1.3,4.8,6.1,7.6,11.5,6.3-4.4-3.3-3.5-7.7-.7-11.5h0Z"/>
        <path d="M438.3,286.2c-3.7.4-7.3,1.7-10.5,3.3-.5.3-1,.6-1.5.8-1.2,1.2-2.3,2.3-3.5,3.5l-12.4,13.1c-.2.1-.5.3-.5.2l-.3-.7c-1.1-5.1-5.9-9.2-12.1-9.9-4.7-.4-9.1,1-11.6,4.2-2.4,3.1-2.2,7.4,1.3,9.7l.7.5c.5.4-1.5-3.7,1.1-5.6,1.4-1.1,3.7-1.7,5.7-1,6.3,2.4,6.9,9.8,2.2,15.4-5.8,7-17.4,16.8-26.9,18.7-5.4,1.1-7.4-3.5-12.4-2.8-.8,1.7.2,3.4,1.5,4.6,3.7,3.5,1.5,8.2-2,12.1-4.2,4.6-8.9,8.8-14.2,12.4-.7,3.5-1,7-1.1,10.5l9.9-7.5,12.2-9.9c3.2-2.6,5.2-8.1,5.2-8.1l.8.3c2.9,1.3,5.9,2,9.5,2.3-.7-3-1.8-5.3-3.4-8,4.1-.9,8.1-2.4,11.1-4.9l8.4-7.1,12.2-10.3c2.4-2,5.7-3.3,9-4,3.6-.8,6.8.2,9.3,2.6.9-1.5.8-3,.1-4.5-1.4-2.9-4.4-4.6-8.6-5.1l18.7-19.7c1.9-2,4-3.8,6.2-5.5-1.4,0-2.8,0-4,.2h0Z"/>
        <path d="M465,255.5c-9.5-3.6-17.1-10.2-24.4-16.6l3.4-3.2c6.3,3.2,12.9,3.1,16.5-1.8,2.5-3.3,1.4-8.3-2.3-10.1,0,0,0,6.7-5.7,7.1-4.2.3-11.6-5.9-17.1-11.1-.6,0-1.2.2-1.8.2-2.7.3-5.4.4-8.1.4l11.1,10.4-3,3.1c-1.1,1.2-3.1,2.3-5.2,1.7-2-.6-3.6-1.5-5.8-2.5,2.1,3.6,4.7,6.5,7.7,9.4,5,4.9,10.5,9.2,17,13.3-6.8,4.3-13,9.1-18.4,14.7l-6.3,7.8v.5c2-1.1,3.7-2.2,5.6-2.6,2.6-.5,4.3.5,5.6,1.9l2.6,2.9c-.5.4-1.1.9-1.6,1.3,2.6-.4,5.2-.6,7.8-.3,1.2.1,2.7.3,4,.8.6-.4,1.2-.7,1.8-1,2.6-1.4,5.6-1.2,7.5.7,1.6,1.6,2,3.6,1.9,5.9,3.9-2.3,4.9-6.3,3-9.7-1.8-3.2-5.9-5.2-10.5-4.6-2.2.3-4.4,1.2-6.5,2.1l-3.4-3.5,11.8-9.7c3.7-3,7.9-5.1,12.5-7l.8-.3c.1,0-.6-.3-.7-.3h0Z"/>
        <path d="M371,174c9.3,2.3,20.1,11.2,25.7,17.9,4,4.9,4.6,11.2-.6,14.6-2.1,1.4-4.6,1.5-6.5.3-2-1.2-2.8-3.1-1.6-5.4l-.7-.4c-2.8,2.1-3.5,4.9-2.6,7.9.7,2.2,3.2,4.4,6.4,5.4,4.2,1.3,8.6.9,12.5-1.3,3.2-1.8,5.6-4.9,6.4-8.7l11.6,12.1c3.6.2,7.2.3,10.7.2-.7-.7-1.2-1.3-1.7-1.8l-13.1-14c3-.6,5.4-1.3,7-3,2-2,2.7-4.5,1.4-6.9-2,2.2-4.5,3.3-7.7,3.1-8.3-.7-14.6-7.5-20.1-12.2l-11.1-9.3c-3-2.6-7.2-3.9-11.3-4.6,1.8-2.6,2.8-5.1,3.6-8.2-3.9.5-7,1.4-10.4,2.7-.1-.8-.3-1.6-.6-2.4-.9.6-1.7,1.2-2.5,1.8-.6.5-1.3,1-1.9,1.5,0,0-.2.2-.3.3,0,0,0,0,0,0,0,0,0,0,0,0-.7.8-1.3,1.5-2,2.2-.2.2-.3.4-.5.6.3,1.8,0,3.5-1.6,5.1-1.3,1.3-2.3,3.2-2,4.9,5.2,1.2,7.5-4,13.8-2.4h0Z"/>
        <path d="M281.6,80.1l-.8,1.1c-5.7.9-10,4.6-11,9.3-2.6-1.3-3.5-3.1-3.8-5.3l-.2-1.7c4-3.9,4.7-9.3,1.6-13.8-1.6-2.3-3.7-4.3-5.8-6.5l-6.3-6.9-5.5,6.1c-2.2,2.5-4.8,4.7-6.6,7.4-3.2,4.6-2.2,9.8,1.4,13.8.7,2.5-.8,5.3-3.5,6.9-1.1-3.7-4-6.9-8.4-8.5-1.4-.5-2.7-1.2-3.6-2.1,2-2,4.5-2,7.6-1.2-4.2-14.4,13.2-19.5,18.7-32.6,1.2,2.3,2.1,4.9,4.1,6.9l8.5,8.8c5.1,5.3,7.9,10.2,5.8,16.9,4.7-1.4,8.4.8,7.9,1.5h0Z"/>
        <path d="M281.2,428.7c-.3,3-4.2,4.3-8,3.2,1.5,3.9.9,7.9-1.3,11.7-4.8,7-13,11.3-17.2,19.3-4.2-7.8-11.6-12-16.4-18.6-2.5-3.9-3.4-8.1-1.6-12.5-3,.7-6.3.6-8.1-1.8.7-.7,2.1-1.1,3.3-1.4,4.6-1.2,7.9-4.6,9.1-8.5,2.7,1.4,3.9,4.1,3.6,6.9-4.2,4-4.7,9.5-1.5,14.2l4.9,5.5,6.9,7.3,5.5-6c2.1-2.3,4.6-4.4,6.4-6.9,3.5-4.7,2.3-9.7-.9-13.9-1-2.7,1-5.9,3.6-7,1.4,4.7,5.4,9,11.9,8.5h0Z"/>
        <path d="M473.9,270.3c.4,1.5.5,2.9,0,4.3-.4.9-2.1,1.9-3.5,2.2.5-5.3-4.5-9-10.4-10.9,1.8-1.7,5.5-3.2,8.3-2.2,4.7,3.2,10.8,4.4,16.6,2,2.9-1.2,5.5-3,8.1-4.7l7.7-5.2-7.5-4.9-6.9-4.3c-6.1-3.1-13.2-2-18.5,1.8-2.8.6-6-.5-8-2.4,5.7-1.6,11.2-5.9,10.6-10.7,2,.2,4.1,1.3,4,3.1l-.2,3.2c5.7-1.6,11.9-.9,16.9,1.9l8.7,5.8c3.5,2.3,6.7,4.6,10.9,6.5-13.1,6.1-19.9,18.8-36.5,14.6h0Z"/>
        <path d="M16.6,251l-6.9,4.5,6.4,4.4c2.8,1.9,5.3,3.9,8.4,5.2,6,2.7,12.6,2,17.7-1.6,2.5-.9,6.2.3,8,2.2-5.6,2-10.8,5.8-9.9,10.8-3.8-1-4.8-3.3-3.7-6.6-10.8,2.9-18.3-1.7-25.9-7.8C7.5,259.7,4.1,257.5,0,255.6c3.6-1.7,6.8-3.6,9.8-5.8,7.8-6,15.1-11.3,26.6-8.3l-.3-4.6c0-.6,1.6-1.7,2-1.5l1.9,2.7c2.5,3.6,5.8,6.7,10.9,7.8-1.8,1.9-5.2,3.3-8.3,2.6-4.7-3.8-11.4-5-17.5-2.4-3.1,1.3-5.8,3.2-8.6,5.1h0Z"/>
        <path d="M377.2,287.4c-3-.6-5.9-1.4-8.8-2.2-.6-.2-1.3-.4-1.9-.6-6.4,2-13.2,2.4-20.1,1.1l-10.4-2.5,4.8,13c-15.8,7.2-30.6,1.1-42.3-9.3l-4,3.2c13,9.9,20.8,21.3,12.2,35.4l-15.5-4.1c4.4,11.7,3.8,20.4-3.7,30.6-5,6.6-11.2,12.2-18,17.6l-14.6,11.7-4.7-4.1-14.2-11.2c-5.6-4.4-10-9.3-14-14.7-1-1.4-1.8-2.8-2.6-4.1,0,2.2.2,4.4.5,6.6,0,.8.2,1.5.3,2.3,0,.2,0,.3,0,.5,0,0,0,0,0,.1,0,.4.1.7.2,1.1.2,1.1.5,2.1.7,3.2,4.4,4.3,9.3,8.2,14.4,12.1l10.9,8.4c3.6,2.8,6.3,5.9,8.6,9.8,3.2-5.8,8.5-9.8,13.7-14l18.4-14.8c9.6-8.7,17.8-20.8,14.6-32.7,3.7.8,7.2,2.2,10.1,4l4-8.1c3.8-7.6,3.3-15.6-1.8-23,9.3,4.1,19.4,4.3,28.6.7l8.3-2.7c-2.3-2.5-3.9-5.2-4.9-8.1,11.1,2.4,21.7-.3,31-5.1h0Z"/>
        <path d="M201.4,306.3c2.8-6,7.3-10.8,13.2-15.3,0-.4.3-.7.7-1l-3.7-3.2c-7.7,6.9-16.4,11.9-27.9,12.7-5.2,0-9.9-1.2-14.4-3.3l4.9-13.1c-6.8,2-12.9,3.5-19.7,3.3-15.6-.6-28.6-9.5-39.2-18.4l-14.5-12.1,8.8-7.3,13.3-10.8c1.1-.9,2.3-1.8,3.5-2.6-5,1.3-10,2.7-14.8,4.4l-10.6,9.4c-3.4,3-7.2,5.3-11.8,7.1,4.1,1.6,7.6,3.4,10.6,6l9.8,8.6c13.8,12.7,32.6,26.4,54.3,22.2-1.3,3.1-2.9,5.6-4.9,8l8.6,2.9c9.3,3.2,19.2,3.2,28.4-.9-5.5,7.6-5.5,15.8-1.7,23.6l3.7,7.5c3.1-1.8,6.5-3.2,10.1-3.9-1.7,7.2.3,13.8,4.1,19.9,0-2.2,0-4.5.3-6.7.4-3.2,1.2-6.4,2-9.6.9-3.4,2.1-6.7,3.7-10,.2-.7.5-1.4.8-2.1l-15.5,4.2c-3.8-6.1-4.8-12.9-2.1-19.3h0Z"/>
        <path d="M219,190.1c-4.2-10.8-3.7-19.5,2.3-28.8-.3-4,0-8.1,1.2-12-9.2,8.7-17,20.4-14.4,32.4-3.5-.6-6.9-2-9.9-3.8l-4,8c-3.8,7.8-3.5,15.8,1.8,23.2-9.3-4.2-19.5-4.3-28.9-.7l-8.2,2.6c2,2.3,3.6,4.8,4.7,7.9-7.6-1.5-15.2-.8-22.5,1.7-6.5,2.2-12.4,5.2-17.6,9.1l-3.2,2.5c4.8-1.2,9.8-2.1,14.7-2.8.8-.1,1.7-.2,2.5-.3.8-.3,1.6-.7,2.4-1,11.5-4.3,22-3.8,34.2.4l-5-13.1c15.8-7.2,30.7-1,42.4,9.4l3.8-3.3c-12.9-10-20.6-21.6-11.9-35.5l15.4,3.9h0Z"/>
        <path d="M410.7,250.3l-10.7-9.3c-5.9-5.2-11.8-10.2-18.8-14.4-10.4-6.2-22.2-10.1-35-7.5.7-1.6,1.4-3.2,2.3-4.7-.9.2-1.7.5-2.5.7-1.9.6-3.8,1.3-5.7,2.1l-4.2,11.3c14.3-4.6,24.8-4.5,37.9,1.4,5.7,2.8,10.9,5.8,15.6,9.7l10.9,9.1,8.8,7.1-10.9,9c-7.9,6.6-14.9,12.5-24.6,17,2.3.5,4.7.9,7.1,1.1,1.3.1,2.6.1,3.8.1.2-.1.3-.2.5-.3,6-4.1,11.1-8.7,16.5-13.3l10.8-9.2c2.3-1.9,5.3-3.1,8.5-4.4-3.7-1.4-7.3-3.1-10.2-5.6h0Z"/>
        <path d="M344.3,211.2c1.2-.4,2.4-.7,3.6-1l-6.3-2.1c-9.1-3-18.8-2.8-27.5,1,5.4-7.7,5.8-15.7,1.7-23.4l-3.8-7.8c-3,1.7-6.4,3.1-9.9,3.8,2.9-12.7-6.1-24.9-16-33.9l-13.1-10.6-10.4-8.1c-3.3-2.6-5.5-5.7-7.3-9.1-2.3,3.9-5.1,7.2-8.7,10l-8.1,6.3c-3.7,2.9-7.4,5.7-11,8.6-1.2,2.3-2.1,4.7-2.6,7.2-.4,1.7-.6,3.5-.7,5.2,3.9-4.9,8.3-9.2,13.5-13.3l12.2-9.5,5.4-4.6,5.1,4.4c10.7,8.1,22.2,16.9,29.1,27.4,6,9.5,5.9,17.7,2,28.3l15.4-4c8.5,13.6,1.3,25.3-12.1,35.3l4,3.4c4.3-3.8,8.4-6.9,13.8-9.2,7.8-3.8,16.9-4.3,25.1-1.5,2.1-1.2,4.3-2.2,6.7-3h0Z"/>
        <path d="M186.2,187.4c-2,2.3-3.2,4.8-3.2,7.8-7.7-2.5-9.4-10-7.3-16.2.5,4.1,1.4,7.7,4.7,10.6l3.3-5.3c5.9-9.4-4.1-11.2-8.6-18.4-5.6,4.8-11.1,11.5-7.5,17.8l3,5.3-6.6-2.7c-3.7-1.5-7.9-1-11.6.3-3.3,1.4-6,3.2-9.1,5.6,2.8,1.2,5,2.4,7,4.2,5,4.6,9.2,6.1,16.1,3.2l5.3-2.2c-3.4-2.3-7.2-3.4-11.4-4.1,6.9-1.5,14.9.8,18.4,5.8-3.4.3-5.9,1-8.6,2.4-6.5,3.6-13.4,5.6-19.3.7l-6.4-5.4c-2.5-2.1-5.9-2.6-9.7-2.9,7.9-6.9,16-14.1,27.6-11.9-2.3-6.6,2.1-12.4,7.4-17l6.8-6c.9,3.7,2.7,6.4,5.7,8.8l4.6,3.6c5.7,4.5,3.8,10.6-.7,15.9h0Z"/>
        <path d="M376,194.6c-6.8,0-10.6,2.9-14.8,6.8-5.7,5.5-12.8,4.7-19.9.8-2.9-1.6-5.7-2.6-9.2-3,3.1-5,10.9-6.9,17.2-5.7-4,1-7.4,1.9-10.3,4.1l5.7,2.5c5.2,2.2,10.6,1.3,14.4-2.4,2.2-2.1,4.6-3.7,8.2-5.1-5.5-4.5-13.9-9.1-20.9-6l-6,2.6,2.8-4.9c2.2-3.8,1.7-8.1-.9-11.7l-6.2-6.8c-4.2,7-15.2,9.1-8.7,18.7l3.3,4.8c3.5-3.2,4-7.1,4.7-11,2,6.8.3,14-7.6,17,0-6-5-8.8-6.8-13.7-1.3-3.6-.5-7.5,2.8-10l6.2-4.9c2.6-2.1,4-4.7,4.6-7.6,7.9,6.8,17.2,13.4,14,23.2,12-2.2,19.5,5.5,27.6,12.2h0Z"/>
        <path d="M348.4,329.9c3.1,9.4-6.3,16-14.1,22.6-.7-4.6-4.3-8.2-8.6-10.9-4.8-3-6.9-7.7-4.5-12.5l3.9-5.6c1.5-2.2,2.6-4.3,2.5-7,7.6,2.4,10.1,10.1,7.6,16.5-.6-4.1-1.3-7.7-4.6-10.7l-3.8,5.7c-2.6,3.9-1.6,8.1,2.4,10.9,2.7,1.9,5,4,6.9,6.7l5.6-5.9c2.8-2.9,3.5-6.8,2.1-10.4l-3.4-6.2,4.1,1.9c8.4,3.9,15.9.7,22.6-4.3-9.1-3.3-11.5-12.8-23-7.8l-4.9,2.1c3,2.5,6.9,3.6,10.9,4.3-7.2,1.4-15-1.3-18.2-6.4,3.2-.1,5.8-.8,8.5-2l5.8-2.6c5.1-1.8,10.7-.7,14.3,2.8l6,5c2.4,2,5.5,2.6,9.2,3-7.7,6.2-16.1,13.3-27.3,10.7h0Z"/>
        <path d="M186.8,340l-7,5.7c-2.2,1.8-2.9,4.2-3.6,6.9-7.4-6.7-17.2-12.9-14.1-22.6-11.3,2.3-19.1-4.4-27.3-10.8,3.9-.4,7.1-1.2,9.6-3.4l5.1-4.3c3.7-3.8,9.7-5.1,15.1-3l5.4,2.5c2.7,1.2,5.4,1.9,8.6,2-3.1,5.1-11.2,7.8-18.2,6.4,4.1-.7,7.8-1.9,11.2-4.3l-7.1-2.8c-3.8-1.5-8.4-.6-11.3,1.8l-4.5,3.7c-1.5,1.2-3.2,2-5.3,2.8,5.5,4.3,13.9,8,20.2,5.3l6.9-2.9-2.5,4c-2.6,4.1-2.1,8.7,1,12.6l5.8,6.1c1.8-2.8,4.1-4.9,6.9-6.9,4.3-3.2,4.4-7.6,1.8-11.5l-3.4-5.1c-3.3,3-4.5,6.6-4.7,10.6-2.7-6.1,0-14.2,7.7-16.4-.7,5.8,5.1,8.7,6.8,13.7,1.2,3.6.3,7.2-2.9,9.8h0Z"/>
        <path d="M184.8,256.3c-3.8,1.7-7.2,3.3-10.3,5.3-3.4,2.5-5.7,5.2-7.6,8.6-.3-4.6,2.6-8.4,6.4-11.7l-39.6-1.7-5-.2v-.5s44.5-2,44.5-2c-3.7-3.2-6.8-7.2-6.3-11.9,2,4,5,7.2,9.3,9.8l8.7,4.2Z"/>
        <path d="M337.6,258.5c3.9,3.6,6.8,7.1,6.3,11.6-1.9-3.6-4.5-6.6-8.3-9.1l-9.7-4.9c8.4-3.2,14.2-7,18-13.9.2,4.6-2.6,8.6-6.3,11.8l41.4,1.9c1.1,0,1.9,0,2.8.6l-44.1,1.9h0Z"/>
        <path d="M270.7,183.3c-4.3,2-8.2,4.2-10.6,7.7l-4.8,7.1-3.8-5.5c-2.8-4.1-6.9-7-11.8-9.3,5.2-.2,9.2,2.3,12.9,5l2.3-33.1c-.2-1.1,0-2,.7-3l2.3,36.1c4-2.7,7.7-5.2,13-5h0Z"/>
        <path d="M271.1,328.6c-5.3,0-9.4-2.3-13.4-5.3l-2.1,32.1c-.1,1.4-.1,2.3-.7,3.3l-.6-9-1.8-26.4c-3.7,3-8,5.3-13.2,5.2,7.7-3.4,11.9-8.3,15.9-15,4,6.9,7.8,11.4,15.9,15h0Z"/>
        <path d="M335.5,238.1c0,2.6-1.5,4.5-3.2,6.4-4.6,4.5-11,7.3-18.5,7l-1.4-5c9.1.9,17.4-2.2,23.1-8.3Z"/>
        <path d="M197.9,246.3l-1.3,5.2c-9.9.3-19.9-5-21.9-13.5,6,5.9,13.3,9.4,23.2,8.4h0Z"/>
        <path d="M335.4,273.8c-5.7-5.6-13.6-9-23-8.1l1.4-4.9c7.1-.2,13.8,2.4,18.5,6.8,1.6,1.8,3.5,3.4,3.2,6.2Z"/>
        <path d="M266.2,209l-5.5-1.2c0-6.5,3.7-12.4,10-16.2,1.8-.9,3.5-1.7,5.9-1.7-7.1,4.8-10.6,11.5-10.4,19h0Z"/>
        <path d="M276.8,321.9c-3.5,0-6.1-1.8-8.7-3.5-4.8-3.7-7.5-8.8-7.4-14.2l5.4-1.1c0,7.6,3.3,14.2,10.7,18.9Z"/>
        <path d="M249.6,304.2c.2,7.7-6.6,16.6-16.1,17.7,4.9-3.4,8.7-7.4,9.9-12.5l1.5-6.2,4.8,1h0Z"/>
        <path d="M198.1,265.8c-8.7-.9-16.3,2-22.5,7.4,2.3-7.8,11.8-12.5,20.9-12.3l1.6,4.9h0Z"/>
        <path d="M249.7,207.4l-4.6.2-1.2-4.3c-1.5-5.3-4.7-9.8-10-13.4,3.3,0,5.8,1.5,8,3.2,4.8,3.7,7.8,8.5,7.8,14.3h0Z"/>
        <g>
          <path d="M216.3,239.3c3.8-9.4,10.6-16.9,19.8-21.5,7-3.5,14.3-5.2,22.4-4.5,8.5.8,16.1,3.8,22.2,8.5,4.5.6,8.8,1.8,12.8,3.7-4.7-5.9-10.7-10.8-17.7-14.4-8.5-4.4-17.9-6.6-27.5-4.7-28.5,5.6-49.6,35.2-39.8,63.2,3.8,11,11.2,20.1,20.7,26.5.9,0,1.8-.2,2.7-.4,2.5-.4,5-1,7.5-1.6-21.2-8.6-32.1-32.8-23.1-54.8h0Z"/>
          <path d="M289.1,227.5c-1.1-.5-2.3-.9-3.4-1.3,9,9.4,13.4,22.7,10.9,36.4-4.2,23.3-26.7,38-48.8,33.9-1.2.5-2.4.9-3.7,1.3-2.6.9-5.3,1.6-8,2.3,10.8,5.2,22.6,6,34.1,1.6,13.4-5.2,23.9-14.9,29.9-27.7,5.6-11.9,5.4-24.4.9-35.5-2.8-4.8-6.8-8.6-12-11h0Z"/>
          <path d="M272,237c-9.6-8.8-23.1-8.9-33-.4-10.7,9.3-11.5,26.2-1.2,36.2,5.4,5.3,12.7,8.1,19.8,7.3,1-.6,2-1.2,3-1.9,2.3-1.8,4.1-4.2,5.6-6.7-6.6,4.5-15.4,4.4-22,0-5.1-3.4-8-9.2-8.4-14.9-.4-6.1,1.9-12.1,6.7-16.2,7.5-6.4,18.4-6.4,25.8.2,7.6,6.9,8.6,18.4,2.6,26.4-.4,1.9-.8,3.8-1.6,5.6,0,.2-.2.4-.2.6,1.4-.9,2.9-1.3,4.4-.9,9.3-10.3,8.7-26.2-1.4-35.4h0Z"/>
          <path d="M257.7,267.6c-6.4,1.4-13.1-2.7-14.7-9.2-1.6-6.7,2.3-13.7,9.5-15.3,7.1-1.6,13.5,3,14.9,9.7,1.4,6.8-2.8,13.2-9.7,14.8Z"/>
        </g>
      </g>
    </g>
  </g>
</svg>