<?xml version="1.0" encoding="UTF-8"?>
<svg id="b" data-name="Layer 2" xmlns="http://www.w3.org/2000/svg" width="510.38" height="507.12" viewBox="0 0 510.38 507.12">
  <g id="c" data-name="Layer 1">
    <g id="d" data-name="1Xaxku">
      <g>
        <path d="M210.653,86.692c1.363-2.666,2.341-5.512,3.229-8.365.883-2.837,1.951-5.63,2.785-8.485-3.476,3.792-7.254,7.236-11.396,10.469l-20.45,15.98c-1.37-5.75-6.61-9.59-11.3-7.65,2.63,3.95,3.22,8.15,1.12,12.26-1.44,2.8-3.29,5.56-5.65,7.74l-13.05,12.08c-6.66,6.17-13.09,12.01-14.44,20.82-3.49-1.84-6.5-2.8-10.35-3.33.99,3.68,2.04,6.76,3.62,9.97-5.735,1.122-9.957,3.98-13.789,7.572.34-.084.68-.177,1.021-.255,3.733-.855,7.557-.415,11.229.527,1.011.259,2.044.555,3.087.837.432-.202.864-.406,1.291-.582,7.51-3.09,9.75,3.35,15,2.39.86-1.92-.09-4.15-1.39-5.66-3.88-4.51-1.13-10.73,2.58-15.63,6.37-8.42,13.95-15.76,22.69-21.59,4.9-3.27,11.26-2.99,14.95,1.32,1.86,2.17,2.12,4.89.61,7.1-1.43,2.1-3.92,2.42-6.73,1.73,3.4,4.21,9.22,3.98,12.94.71,3.02-2.67,4.2-6.74,3.53-10.81-1.03-6.31-5.84-10.75-12.38-12.12l16.11-12.85c1.749-1.39,3.453-2.778,5.133-4.178Z"/>
        <path d="M362.66,129.08c-4.41-4.93-9.25-9.15-14.23-13.55-7.93-7.02-19.37-17.5-11.29-26.8-4.84-2.19-10.01,1.98-11.36,7.76-8.57-7.1-41.48-29.22-36.74-37.4,1.55-2.67,4.75-2.82,7.67-1.61-1.46-3.87-5.66-6-9.68-5.21-3.63.71-6.69,3.92-6.99,8.1-.23,3.27,1.3,6.47,2.95,9.03l-4.1,3.41c-8.96-7.71-18.49-16.41-23.59-26.99-5.64,10.73-14.85,19.13-23.68,26.94l-3.84-3.29c1.49-2.58,2.74-5.28,2.82-8.36.12-4.39-3.04-8.17-7.07-8.97-4.11-.8-8.4,1.55-9.98,5.61,3.17-1.31,6.54-1.31,8.07,1.42,1.13,1.99.21,4.54-1.18,6.27-.114.142-.232.278-.346.42.265,1.458.026,3.018-.156,4.476-.415,3.332-1.195,6.596-1.863,9.882,1.194-1.094,2.385-2.209,3.575-3.358l3.62,2.55c2,1.41,3.04,4.24,1.8,6.59l-2.4,4.55c6.38-3.29,11.55-7.54,16.81-12.2,5.06-4.47,9.54-9.27,13.69-14.75,8.5,10.86,18.45,20.21,30.56,26.94l-2.66-5.62c-.91-1.9.3-4.2,1.81-5.29l4.06-2.91,11.5,10.54,20.81,16.53c-4.23.99-7.56,2.68-9.94,5.77-3.47,4.49-3.95,10.47-.81,15.15,3.29,4.91,9.86,5.85,14.41,1.91l.03-.63c-2.67.6-4.22.35-5.85-1.12-1.21-1.1-1.98-3.41-1.35-5.26,1.12-3.31,4.15-5.35,7.58-5.86,3.59-.52,7.13.53,10.16,2.68,7.99,5.67,14.9,12.54,20.78,20.4.966,1.292,1.893,2.676,2.674,4.094.996-1.41,2.101-2.73,3.361-3.959,1.193-1.164,2.448-2.274,3.749-3.329-.951-1.608-2.092-3.119-3.384-4.556Z"/>
        <path d="M56.87,286.48c1.46-.41,3.68-.05,4.91.81,2.47,1.729,4.705,3.623,6.813,5.663,3.757-.397,7.574-.334,11.295.053l-6.468-6.787,3.06-4.02c1.28-1.69,3.83-2.73,5.92-1.62l5.21,2.74c-5.63-10.85-15.4-20.57-25.14-27.94,4.41-3.23,8.24-6.73,12-10.58,5.09-5.23,9.8-10.5,13.13-17.26l-4.75,2.63c-2.44,1.36-5.09.17-6.58-1.75l-2.88-3.71,6.49-6.87,20.65-24.92c1.31,9.24,9.59,14.78,18.08,12.11,3.25-1.02,5.77-3.37,6.94-6.5,1.5-4.03-.04-8.37-3.72-10.33.95,2.58,1.22,4.62,0,6.36-1.16,1.65-3.46,2.53-5.59,1.88-6.12-1.89-8.09-10.46-4.2-16.88,4.291-7.099,12.167-15.369,19.997-20.335-3.296-.388-6.452-.675-9.704.254-2.559.731-5.072,1.647-7.513,2.711-.07.077-.139.153-.209.23-8.32,9.13-19.48,23.29-30.39,14.82-1.28,5.36,2.9,9.89,8.38,11.05l-12.53,16.33c-4.92,6.42-13.52,16.8-19.99,19.9-2.21,1.05-4.7.19-6.04-1.78-1.28-1.87-1.44-3.91-1.61-6.71-4.3,1.31-5.34,8.19-2.71,12.48,3.62,5.89,10.39,6.1,16.38,2.16l3.39,4.08-12.21,12.14c-3.69,3.67-7.94,6.39-12.84,8.48,10.26,4.67,17.83,13,24.99,20.83l-3.38,4.06c-5.62-3.25-11.72-3.57-15.54,1.43-2.06,2.7-2.73,6.17-1.59,9.45.71,2.021,2.32,3.68,4.18,4.4-.4-4.11.71-8.18,3.77-9.06Z"/>
        <path d="M166.064,397.408c-.38-3.89-.508-7.838-1.206-11.692-4.742-4.438-9.104-9.453-11.848-13.235-3.34-4.6-5.44-10.13-1.98-14.37,1.25-1.53,2.17-3.63,1.73-5.75-5.43-.84-7.65,5.87-14.8,2.78-9.29-4.02-19.33-13.96-25.1-22.37-2.44-3.55-3.63-7.41-2.87-11.56.66-3.6,2.98-6.62,6.71-7.27,2.08-.36,4.23.87,5.1,2.48,1.02,1.89.53,3.92-.17,6.09,3.87-1.59,5.15-5.84,4.13-9.6-1.46-5.36-6.83-8.56-12.4-8.18-7.09.49-12.22,5.57-13.61,13.02l-15.45-19.317c-1.484-.217-2.977-.368-4.485-.406-2.1-.053-4.201.014-6.296.157.392.448.783.898,1.172,1.356,6.35,7.48,12.09,15.12,17.87,22.98-6.17,1.19-10.19,6.55-8.04,11.75,2.38-2.68,4.9-3.98,8.24-3.38,3.15.561,6.4,1.92,8.73,4.21l10.2,10c6.82,6.69,11.79,15.15,22.87,17.93-1.49,3.19-2.57,6.15-3.43,9.6,3.91-.32,6.88-1.42,10.34-3.3.67,3.75,2.01,7.49,4.85,10.26l12.96,12.6,6.903,6.734c-.04-.505-.07-1.012-.119-1.516Z"/>
        <path d="M336.61,406.711c-.158-2.24-.146-4.488.101-6.729.31-2.81.715-5.611,1.262-8.385-1.113.803-2.245,1.58-3.403,2.322-4.98,3.2-11.32,3.08-15.26-.96-1.96-2-2.51-4.81-1.06-6.88,1.49-2.13,3.8-2.98,6.86-1.79.19.07.22-.39.05-.81-3.62-3.53-8.91-3.53-12.8-.34-3.89,3.19-5.03,8.75-3.12,13.48,2.02,5.01,6.37,8.09,11.95,9.14l-14.93,11.6-17.38,14.96c-1.7-.92-3.94-2.03-5.03-3.55-1.96-2.73-.77-6.42,1.55-8.6.06-.5.02-.97-.12-.77-7.51,3.97-13.55,8.82-19.46,14.5l-10.69,11.83c-7.31-9.11-15.75-17.23-25.68-23.77l-4.89-2.73c1.12,1.9,2.32,3.43,2.79,5.36.54,2.2-.47,4.32-2.15,5.44l-3.6,2.39-9.82-8.84-22.35-17.78c5.16-1.25,9.35-4.02,11.39-8.57,2.6-5.82.7-12.64-5.03-15.44-3.9-1.91-8.8-1.03-10.97,2.43,2.9-.77,5.3-.51,6.92,1.33,1.61,1.83,1.45,4.68-.29,6.85-2.65,3.31-7.29,4.52-11.57,3.36-2.719-.738-5.844-2.563-9.024-4.958.417,2.168.708,4.366.997,6.503.365,2.695.631,5.399.679,8.109,3.011,4.218,4.639,11.244.178,15.305,3.32,1.06,7.2.05,8.69-3.05l2.39-4.92,26.62,20.25c4.26,3.24,7.7,6.93,10.91,11.14.83,1.08,1.11,2.93.79,4.12-.78,2.86-4.43,3.36-8.35,2.8,1.66,2.88,4.61,4.55,7.58,4.64,3.12.09,6.27-1.14,8.04-3.92,1.44-2.24,1.81-5.38.64-7.81l-2.09-4.31,3.67-2.95c8.67,7.51,18.25,15.87,23.57,26.31,5.46-10.82,14.63-18.94,23.57-26.33l3.85,3.03c-2.29,3.38-3.75,7.42-2.07,11.19,1.37,3.08,4.62,4.76,7.65,4.76,3.3.01,6.04-1.54,8.19-4.59l-.6-.33c-2.59.98-5.67.83-7.18-1.64-1.07-1.75-.28-4.18,1.03-5.81,3.48-4.32,7.24-8.2,11.73-11.62l24.43-18.65c1.34,5.89,6.11,9.27,11.54,7.68-4.35-4.005-3.498-9.314-.7-13.999Z"/>
        <path d="M438.293,292.155c-3.746.508-7.29,2.041-10.456,4.064-.501.32-.979.675-1.464,1.02-1.174,1.401-2.33,2.825-3.464,4.281l-12.42,15.92c-.17.16-.46.36-.51.23l-.32-.83c-1.14-6.18-5.93-11.16-12.13-12.04-4.7-.49-9.13,1.18-11.6,5.06-2.42,3.82-2.18,8.99,1.26,11.85l.7.58c.53.44-1.55-4.46,1.07-6.86,1.44-1.33,3.69-2.11,5.74-1.16,6.26,2.88,6.87,11.88,2.2,18.76-5.77,8.5-17.36,20.37-26.92,22.71-5.44,1.33-7.44-4.23-12.39-3.39-.81,2.02.25,4.13,1.5,5.58,3.69,4.31,1.47,10.03-2.03,14.68-4.192,5.544-8.917,10.661-14.18,15.125-.685,4.22-1.018,8.517-1.144,12.769l9.874-9.174,12.18-12.01c3.19-3.14,5.16-9.79,5.16-9.87l.75.41c2.94,1.58,5.9,2.43,9.45,2.84-.72-3.61-1.8-6.45-3.4-9.67,4.15-1.13,8.13-2.9,11.15-5.97l8.44-8.61,12.18-12.48c2.41-2.47,5.73-4.01,8.98-4.89,3.59-.96,6.76.29,9.3,3.17.87-1.77.83-3.67.15-5.42-1.39-3.56-4.4-5.56-8.56-6.25l18.74-23.96c1.901-2.429,3.955-4.671,6.174-6.707-1.397-.037-2.802.078-4.011.242Z"/>
        <path d="M464.99,254.81c-9.53-4.43-17.09-12.44-24.38-20.23l3.42-3.88c6.29,3.95,12.93,3.74,16.54-2.17,2.48-4.05,1.44-10.04-2.27-12.26.02.01.08,8.11-5.72,8.61-4.164.36-11.626-7.175-17.112-13.552-.589.099-1.179.189-1.774.261-2.684.324-5.391.447-8.099.453l11.145,12.688-2.98,3.78c-1.15,1.46-3.14,2.75-5.19,2.07-2.04-.68-3.64-1.79-5.8-3.03,2.07,4.38,4.68,7.9,7.7,11.49,5.03,5.97,10.5,11.22,17.01,16.17-6.75,5.21-12.96,11.12-18.37,17.93l-6.32,9.53.15.65c1.82-1.39,3.54-2.65,5.46-3.13,2.58-.65,4.3.57,5.65,2.37l2.64,3.51c-.548.54-1.077,1.095-1.616,1.641,2.558-.506,5.172-.676,7.775-.413,1.249.126,2.664.42,3.992.923.599-.427,1.208-.842,1.829-1.241,2.6-1.67,5.6-1.48,7.48.89,1.56,1.98,1.98,4.43,1.91,7.17,3.89-2.79,4.85-7.71,2.95-11.81-1.83-3.94-5.9-6.36-10.53-5.63-2.23.35-4.35,1.4-6.48,2.59l-3.4-4.26,11.82-11.75c3.67-3.65,7.93-6.22,12.51-8.56l.79-.41c.15-.08-.58-.33-.73-.4Z"/>
        <path d="M371.05,155.73c9.27,2.83,20.12,13.56,25.74,21.78,4.03,5.9,4.61,13.68-.61,17.8-2.09,1.65-4.61,1.82-6.54.39-1.98-1.46-2.79-3.78-1.59-6.58l-.72-.54c-2.77,2.59-3.54,5.93-2.57,9.64.71,2.72,3.18,5.38,6.38,6.6,4.17,1.6,8.61,1.05,12.49-1.57,3.24-2.19,5.57-5.92,6.36-10.63l11.565,14.677c3.579.24,7.156.378,10.721.192-.651-.809-1.238-1.555-1.736-2.2l-13.15-17.05c2.95-.72,5.37-1.63,7.03-3.62,2-2.4,2.72-5.49,1.39-8.41-1.99,2.67-4.55,4.04-7.7,3.71-8.27-.88-14.63-9.16-20.12-14.78l-11.07-11.33c-3.05-3.12-7.17-4.78-11.34-5.63,1.75-3.14,2.75-6.25,3.56-9.96-3.87.59-6.97,1.66-10.38,3.32-.114-1-.319-1.953-.572-2.88-.863.709-1.708,1.438-2.52,2.199-.639.599-1.288,1.208-1.863,1.869-.091.104-.175.214-.265.319-.019.023-.026.03-.042.048-.009.013-.011.017-.024.036-.654.916-1.323,1.82-1.99,2.726-.175.237-.34.479-.511.717.301,2.198-.099,4.314-1.642,6.146-1.33,1.58-2.26,3.92-2.04,5.92,5.24,1.42,7.48-4.83,13.76-2.91Z"/>
        <path d="M281.63,41.55l-.83,1.31c-5.72,1.06-10,5.56-11.05,11.27-2.58-1.56-3.47-3.83-3.78-6.49l-.25-2.11c4.03-4.69,4.73-11.3,1.62-16.76-1.6-2.82-3.72-5.17-5.77-7.93l-6.28-8.45-5.48,7.44c-2.22,3.01-4.83,5.75-6.63,8.96-3.16,5.61-2.2,11.89,1.41,16.82.71,3.02-.84,6.47-3.51,8.43-1.13-4.52-3.98-8.42-8.4-10.34-1.41-.61-2.66-1.51-3.6-2.55,2.03-2.39,4.54-2.46,7.62-1.48-4.17-17.52,13.24-23.76,18.7-39.67,1.15,2.79,2.09,5.92,4.06,8.39l8.54,10.76c5.14,6.48,7.89,12.39,5.78,20.52,4.71-1.69,8.4,1.01,7.85,1.88Z"/>
        <path d="M281.25,465.5c-.31,3.7-4.18,5.27-7.97,3.91,1.55,4.77.88,9.59-1.27,14.21-4.81,8.54-13.01,13.78-17.23,23.5-4.17-9.43-11.61-14.65-16.42-22.61-2.5-4.69-3.41-9.86-1.62-15.16-3,.87-6.28.71-8.1-2.18.73-.89,2.07-1.31,3.28-1.71,4.62-1.48,7.87-5.59,9.09-10.33,2.72,1.7,3.86,4.97,3.63,8.35-4.23,4.82-4.68,11.57-1.52,17.27l4.9,6.71,6.87,8.91,5.47-7.35c2.11-2.84,4.59-5.41,6.37-8.36,3.46-5.72,2.27-11.79-.89-16.96-.97-3.28,1.01-7.16,3.56-8.53,1.38,5.71,5.4,10.92,11.85,10.33Z"/>
        <path d="M473.85,272.79c.38,1.86.51,3.52-.07,5.23-.37,1.11-2.11,2.25-3.54,2.68.45-6.39-4.55-10.96-10.43-13.29,1.84-2.01,5.46-3.89,8.29-2.63,4.72,3.86,10.79,5.34,16.61,2.42,2.91-1.45,5.51-3.61,8.1-5.73l7.74-6.31-7.49-6.01-6.91-5.18c-6.15-3.79-13.25-2.48-18.51,2.17-2.83.68-6.05-.66-8.05-2.86,5.69-1.97,11.22-7.2,10.58-13.01,1.99.22,4.08,1.55,3.96,3.74l-.21,3.86c5.66-1.9,11.85-1.06,16.91,2.27l8.68,7.03c3.46,2.81,6.72,5.64,10.87,7.89-13.14,7.43-19.93,22.84-36.53,17.73Z"/>
        <path d="M16.65,249.36l-6.85,5.5,6.4,5.3c2.75,2.27,5.33,4.7,8.37,6.38,6.02,3.32,12.6,2.42,17.67-1.89,2.55-1.07,6.2.36,7.98,2.63-5.57,2.45-10.75,7.08-9.93,13.16-3.84-1.26-4.81-4.01-3.7-7.98-10.8,3.58-18.29-2.07-25.92-9.45-3.21-3.11-6.61-5.78-10.67-8.07,3.59-2.09,6.81-4.34,9.77-7.1,7.75-7.24,15.15-13.7,26.63-10.14l-.3-5.57c-.04-.75,1.63-2.01,2.05-1.86l1.91,3.3c2.51,4.35,5.81,8.13,10.93,9.45-1.85,2.36-5.2,4.03-8.26,3.11-4.69-4.65-11.35-6.02-17.5-2.93-3.12,1.57-5.79,3.92-8.58,6.16Z"/>
        <path d="M377.235,293.631c-2.989-.721-5.91-1.673-8.8-2.718-.64-.231-1.277-.47-1.915-.708-6.444,2.379-13.245,2.877-20.051,1.395l-10.37-3.07,4.79,15.79c-15.78,8.78-30.64,1.36-42.26-11.32l-3.96,3.95c12.96,12.1,20.76,25.88,12.18,43.06l-15.52-4.99c4.44,14.25,3.84,24.82-3.68,37.27-5.01,8.05-11.21,14.8-18.02,21.44l-14.61,14.24-4.67-4.98-14.18-13.65c-5.55-5.34-10-11.31-13.98-17.9-.984-1.702-1.829-3.365-2.565-5.007.074,2.665.222,5.333.466,7.984.085.931.185,1.861.299,2.789.022.183.046.366.07.549.005.03.01.07.018.124.064.434.128.868.197,1.301.209,1.307.47,2.6.745,3.892,4.379,5.271,9.292,9.961,14.35,14.729l10.86,10.26c3.62,3.41,6.26,7.23,8.56,11.9,3.17-7.03,8.45-11.88,13.74-17.06l18.35-17.98c9.56-10.61,17.83-25.29,14.65-39.73,3.69.99,7.19,2.65,10.09,4.86l4.05-9.88c3.8-9.27,3.32-18.96-1.82-27.97,9.29,5.01,19.42,5.17,28.62.84l8.26-3.26c-2.27-3.05-3.87-6.32-4.91-9.89,11.089,2.914,21.698-.422,31.015-6.258Z"/>
        <path d="M201.44,316.59c2.807-7.35,7.314-13.157,13.247-18.643.085-.445.313-.875.657-1.219l-3.664-3.839c-7.74,8.42-16.44,14.53-27.85,15.4-5.16-.12-9.91-1.52-14.45-3.99l4.94-15.88c-6.77,2.49-12.86,4.3-19.67,3.98-15.56-.74-28.59-11.6-39.23-22.41l-14.47-14.69,8.81-8.88,13.27-13.19c1.13-1.121,2.307-2.172,3.518-3.174-5.02,1.541-9.975,3.33-14.84,5.315l-10.568,11.399c-3.37,3.63-7.25,6.44-11.81,8.61,4.08,1.94,7.61,4.14,10.55,7.26l9.81,10.42c13.82,15.42,32.59,32.08,54.26,26.94-1.28,3.76-2.86,6.8-4.86,9.68l8.61,3.58c9.31,3.87,19.23,3.86,28.45-1.12-5.53,9.23-5.54,19.19-1.66,28.73l3.72,9.13c3.05-2.24,6.51-3.87,10.05-4.74-1.69,8.712.33,16.79,4.052,24.158-.059-2.736.021-5.469.271-8.167.363-3.912,1.209-7.808,2.034-11.642.881-4.097,2.11-8.197,3.656-12.123.234-.82.485-1.652.757-2.498l-15.52,5.07c-3.83-7.37-4.79-15.72-2.07-23.47Z"/>
        <path d="M219.02,175.31c-4.239-13.162-3.726-23.769,2.313-35.031-.273-4.919.062-9.834,1.247-14.562-9.212,10.619-17.027,24.769-14.4,39.383-3.5-.76-6.89-2.43-9.87-4.59l-3.97,9.78c-3.84,9.44-3.51,19.27,1.82,28.24-9.34-5.07-19.53-5.18-28.86-.88l-8.21,3.21c2.04,2.75,3.58,5.78,4.73,9.57-7.63-1.79-15.16-1.02-22.52,2.04-6.49,2.69-12.41,6.33-17.58,11.12l-3.237,2.997c4.819-1.513,9.756-2.586,14.746-3.4.827-.135,1.656-.253,2.487-.367.802-.404,1.614-.795,2.435-1.17,11.48-5.25,22.01-4.63,34.23.5l-4.99-15.95c15.79-8.79,30.74-1.24,42.35,11.439l3.81-4.01c-12.89-12.19-20.62-26.22-11.94-43.12l15.41,4.8Z"/>
        <path d="M410.7,248.47l-10.66-11.35c-5.94-6.32-11.75-12.44-18.79-17.52-10.37-7.48-22.2-12.34-34.98-9.09.668-1.997,1.4-3.909,2.337-5.773-.854.273-1.703.562-2.545.872-1.899.697-3.839,1.551-5.682,2.532l-4.25,13.8c14.27-5.55,24.84-5.44,37.89,1.71,5.72,3.35,10.92,7.09,15.57,11.84l10.87,11.11,8.75,8.69-10.85,10.93c-7.911,7.971-14.932,15.241-24.628,20.615,2.349.549,4.718,1.113,7.104,1.34,1.295.123,2.557.164,3.8.132.155-.125.311-.25.465-.376,6.03-4.97,11.06-10.61,16.51-16.22l10.83-11.16c2.29-2.36,5.34-3.76,8.45-5.3-3.71-1.71-7.34-3.74-10.19-6.78Z"/>
        <path d="M344.323,200.921c1.177-.475,2.39-.861,3.621-1.184l-6.265-2.507c-9.13-3.64-18.77-3.45-27.46,1.17,5.36-9.31,5.79-19.14,1.66-28.41l-3.82-9.46c-2.95,2.12-6.35,3.82-9.94,4.59,2.87-15.49-6.08-30.25-15.95-41.2l-13.15-12.87-10.37-9.82c-3.3-3.12-5.53-6.94-7.34-11.12-2.32,4.78-5.05,8.77-8.71,12.21l-8.11,7.62c-3.739,3.517-7.439,6.894-10.992,10.495-1.176,2.779-2.074,5.694-2.633,8.764-.387,2.121-.608,4.248-.707,6.379,3.934-5.906,8.298-11.245,13.482-16.188l12.18-11.59,5.42-5.56,5.05,5.4c10.69,9.91,22.22,20.51,29.08,33.311,6.02,11.61,5.94,21.56,2.05,34.41l15.4-4.87c8.48,16.55,1.26,30.78-12.08,42.93l3.96,4.12c4.31-4.57,8.4-8.37,13.79-11.14,7.805-4.565,16.913-5.243,25.124-1.855,2.079-1.468,4.327-2.662,6.709-3.624Z"/>
        <path d="M186.21,172.06c-1.98,2.8-3.22,5.8-3.18,9.52-7.7-2.99-9.45-12.21-7.31-19.73.54,4.93,1.39,9.35,4.69,12.83l3.26-6.41c5.85-11.47-4.13-13.56-8.59-22.33-5.61,5.84-11.14,13.98-7.5,21.63l3.04,6.39-6.58-3.26c-3.74-1.86-7.85-1.271-11.6.37-3.26,1.74-6.04,3.89-9.12,6.79,2.79,1.42,4.97,2.87,7.04,5.16,5.02,5.56,9.25,7.41,16.12,3.89l5.27-2.7c-3.36-2.75-7.21-4.11-11.44-4.98,6.91-1.77,14.89.93,18.35,7.1-3.44.38-5.94,1.18-8.55,2.91-6.52,4.33-13.4,6.85-19.26.86l-6.41-6.55c-2.52-2.57-5.9-3.21-9.69-3.54,7.93-8.38,16.01-17.1,27.61-14.46-2.29-8.08,2.11-15.03,7.4-20.67l6.84-7.27c.89,4.53,2.66,7.83,5.73,10.75l4.59,4.36c5.73,5.45,3.84,12.92-.71,19.34Z"/>
        <path d="M376,180.8c-6.83-.04-10.64,3.47-14.8,8.3-5.74,6.65-12.78,5.69-19.94.95-2.87-1.9-5.69-3.11-9.22-3.6,3.1-6.07,10.88-8.41,17.18-6.99-3.98,1.23-7.41,2.37-10.34,5.01l5.74,3.02c5.22,2.73,10.59,1.57,14.38-2.88,2.21-2.61,4.63-4.54,8.24-6.16-5.48-5.49-13.85-11.01-20.93-7.35l-6.04,3.12,2.77-5.93c2.17-4.64,1.72-9.79-.89-14.18l-6.2-8.29c-4.21,8.48-15.25,11.06-8.69,22.79l3.27,5.85c3.54-3.84,4.03-8.59,4.74-13.39,1.98,8.23.31,16.98-7.58,20.69-.02-7.26-4.99-10.72-6.83-16.67-1.34-4.36-.46-9.07,2.79-12.16l6.2-5.91c2.65-2.52,3.96-5.77,4.59-9.29,7.94,8.33,17.23,16.31,13.95,28.23,12.02-2.62,19.49,6.67,27.61,14.84Z"/>
        <path d="M348.41,345.24c3.15,11.44-6.34,19.42-14.07,27.44-.71-5.6-4.33-9.97-8.6-13.21-4.84-3.66-6.87-9.33-4.5-15.21l3.86-6.78c1.52-2.66,2.63-5.28,2.51-8.56,7.58,2.94,10.13,12.27,7.57,20.07-.59-4.95-1.27-9.39-4.62-13.02l-3.84,6.93c-2.63,4.75-1.61,9.81,2.36,13.28,2.71,2.37,4.95,4.83,6.93,8.17l5.63-7.17c2.79-3.55,3.55-8.28,2.12-12.6l-3.39-7.58,4.12,2.35c8.38,4.76,15.87.89,22.63-5.21-9.13-4.06-11.5-15.53-22.99-9.5l-4.93,2.6c3.04,3.1,6.9,4.36,10.89,5.25-7.21,1.69-15.01-1.59-18.2-7.84,3.21-.14,5.82-.96,8.54-2.43l5.78-3.14c5.15-2.15,10.67-.8,14.3,3.39l5.96,6.13c2.36,2.43,5.53,3.21,9.2,3.64-7.68,7.58-16.09,16.16-27.26,13Z"/>
        <path d="M186.78,357.52l-7.03,6.89c-2.18,2.14-2.86,5.09-3.61,8.34-7.43-8.15-17.21-15.7-14.15-27.44-11.27,2.82-19.15-5.32-27.26-13.1,3.89-.5,7.11-1.46,9.63-4.08l5.05-5.24c3.68-4.64,9.68-6.18,15.09-3.66l5.45,3.01c2.69,1.49,5.35,2.29,8.58,2.39-3.08,6.15-11.19,9.45-18.25,7.84,4.15-.83,7.83-2.31,11.2-5.25l-7.12-3.38c-3.83-1.82-8.43-.75-11.32,2.17l-4.51,4.55c-1.48,1.48-3.21,2.43-5.31,3.4,5.48,5.17,13.87,9.77,20.22,6.47l6.91-3.58-2.51,4.9c-2.58,5.01-2.13,10.61.98,15.35l5.78,7.44c1.77-3.46,4.14-5.91,6.89-8.39,4.31-3.9,4.44-9.25,1.81-14l-3.44-6.21c-3.29,3.68-4.47,8.07-4.69,12.95-2.67-7.41.05-17.24,7.69-19.99-.67,7.05,5.06,10.52,6.79,16.71,1.22,4.37.3,8.81-2.87,11.91Z"/>
        <path d="M216.26,239.3c3.83-9.39,10.56-16.91,19.75-21.5,7.03-3.53,14.34-5.25,22.42-4.52,8.511.766,16.084,3.848,22.239,8.502,4.453.621,8.829,1.755,12.787,3.718-4.714-5.854-10.74-10.828-17.696-14.42-8.54-4.4-17.9-6.61-27.52-4.73-28.48,5.58-49.62,35.2-39.82,63.19,3.834,10.966,11.215,20.127,20.725,26.525.912-.096,1.823-.209,2.726-.359,2.506-.417,5-.982,7.478-1.648-21.241-8.63-32.062-32.76-23.089-54.758Z"/>
        <path d="M289.07,227.525c-1.118-.499-2.253-.923-3.399-1.298,8.97,9.36,13.423,22.662,10.929,36.363-4.247,23.342-26.72,38.002-48.823,33.943-1.217.45-2.438.884-3.664,1.293-2.621.875-5.271,1.639-7.953,2.265,10.799,5.178,22.611,6.039,34.129,1.609,13.42-5.16,23.85-14.94,29.89-27.72,5.621-11.89,5.358-24.405.93-35.471-2.842-4.79-6.751-8.622-12.04-10.984Z"/>
        <path d="M184.84,255.75c-3.76,2.02-7.18,3.96-10.34,6.47-3.39,2.99-5.74,6.33-7.65,10.48-.27-5.62,2.58-10.271,6.36-14.2l-39.58-2.04-4.99-.26-.02-.62,44.54-2.45c-3.72-3.92-6.78-8.77-6.31-14.47,2.02,4.89,5.02,8.81,9.26,11.96l8.73,5.13Z"/>
        <path d="M337.64,258.46c3.91,4.35,6.75,8.63,6.26,14.15-1.88-4.36-4.45-8.08-8.26-11.03l-9.73-5.91c8.38-3.95,14.18-8.48,18.04-16.96.23,5.62-2.56,10.47-6.3,14.39l41.38,2.34c1.13.06,1.89-.02,2.76.73l-44.15,2.29Z"/>
        <path d="M270.74,167.04c-4.3,2.42-8.23,5.13-10.62,9.41l-4.82,8.62-3.81-6.72c-2.81-4.96-6.86-8.57-11.82-11.29,5.25-.21,9.2,2.79,12.88,6.11l2.27-40.22c-.16-1.33-.01-2.42.68-3.65l2.25,43.86c4-3.23,7.66-6.35,12.99-6.12Z"/>
        <path d="M271.08,343.75c-5.34.01-9.4-2.81-13.36-6.45l-2.11,39.01c-.1,1.76-.1,2.83-.68,3.98l-.6-10.89-1.78-32.07c-3.71,3.62-7.97,6.44-13.18,6.37,7.72-4.13,11.87-10.08,15.85-18.22,4,8.37,7.77,13.87,15.86,18.27Z"/>
        <path d="M335.55,233.68c-.03,3.12-1.52,5.5-3.2,7.8-4.56,5.47-10.97,8.91-18.55,8.46l-1.39-6.13c9.11,1.14,17.39-2.72,23.14-10.13Z"/>
        <path d="M197.88,243.64l-1.27,6.271c-9.93.36-19.86-6.06-21.93-16.43,6.04,7.12,13.28,11.47,23.2,10.16Z"/>
        <path d="M335.36,277.09c-5.69-6.81-13.57-10.93-23.03-9.83l1.37-6.01c7.12-.3,13.83,2.91,18.45,8.3,1.57,2.18,3.52,4.11,3.21,7.54Z"/>
        <path d="M266.21,198.27l-5.49-1.45c-.06-7.86,3.66-15.08,9.98-19.64,1.78-1.12,3.5-2.11,5.86-2.01-7.11,5.79-10.64,13.97-10.35,23.1Z"/>
        <path d="M276.84,335.6c-3.53-.09-6.06-2.22-8.72-4.29-4.78-4.44-7.45-10.66-7.38-17.27l5.41-1.39c-.08,9.24,3.32,17.31,10.69,22.95Z"/>
        <path d="M249.64,314.09c.24,9.34-6.57,20.18-16.13,21.56,4.9-4.1,8.67-8.94,9.9-15.24l1.48-7.57,4.75,1.25Z"/>
        <path d="M198.13,267.29c-8.67-1.04-16.34,2.47-22.51,9.04,2.33-9.5,11.8-15.2,20.94-15l1.57,5.96Z"/>
        <path d="M249.68,196.35l-4.59.27-1.24-5.27c-1.51-6.45-4.71-11.95-9.99-16.26,3.31.12,5.83,1.87,8.01,3.91,4.84,4.51,7.77,10.29,7.81,17.35Z"/>
        <path d="M271.95,237.03c-9.65-8.76-23.13-8.93-33-.41-10.73,9.27-11.47,26.23-1.25,36.23,5.428,5.318,12.733,8.105,19.842,7.322,1.033-.582,2.038-1.206,2.958-1.913,2.291-1.761,4.09-4.191,5.597-6.674-6.637,4.505-15.448,4.35-22.037-.055-5.1-3.41-8.01-9.16-8.37-14.92-.38-6.11,1.94-12.1,6.73-16.18,7.49-6.37,18.38-6.41,25.78.25,7.642,6.876,8.633,18.392,2.572,26.447-.392,1.894-.832,3.776-1.573,5.589-.079.192-.166.382-.248.573,1.353-.884,2.854-1.292,4.368-.889,9.3-10.28,8.68-26.25-1.37-35.37Z"/>
        <path d="M257.68,267.59c-6.45,1.43-13.13-2.68-14.68-9.19-1.6-6.71,2.26-13.66,9.52-15.3,7.07-1.59,13.48,3.04,14.89,9.72,1.42,6.76-2.82,13.23-9.73,14.77Z"/>
      </g>
    </g>
  </g>
</svg>