<?xml version="1.0" encoding="UTF-8"?>
<svg id="b" data-name="Layer 2" xmlns="http://www.w3.org/2000/svg" width="394.436" height="438.513" viewBox="0 0 394.436 438.513">
  <g id="c" data-name="Layer 1">
    <g id="d" data-name="hUc4aL">
      <g>
        <path d="M.31,438.511c-.398-2.136-.334-4.407-.234-6.541.353-2.52,1.927-4.465,4.458-4.668l.544-18.733c-1.299-3.407-1.005-6.941.38-10.332.868-.53,2.306-1.214,3.173-1.219l5.946-.036c-2.597-3.961,2.325-4.711.567-7.624l.055-3.063c.028-1.568-.14-2.998.651-4.38,1.998-3.491,6.056-.386,7.578-1.677,2.479-2.101,4.739-3.486,8.392-2.859-1.182-1.981-.784-3.923.341-5.922-3.036-5.015-5.931-10.213-7.124-16.073-1.626-7.989-.377-15.971,4.154-22.623,4.725-6.937,13.109-10.064,20.965-7.297,6.016-2.698,8.101,3.975,10.831.957l.371-5.932c.118-1.891-1.101-5.139-2.101-6.825-3.138-5.12-5.186-10.149-5.136-16.335l-5.789-9.704c-3.179-5.329-5.933-10.882-8.343-16.612-1.967-.264-3.933-1.125-4.665-2.648-.992-2.064-.829-4.115.502-6.131-2.025-.536-3.807-1.63-4.384-3.295-.716-2.065.153-4.044,1.392-5.841-1.956-5.924-3.888-12.065-5.233-18.237-3.926-18.024,12.241-34.217,26.2-44.235-.619-3.512,1.425-6.77,5.201-6.812.072-3.233,2.601-5.339,5.617-5.147l1.556-6.252c.47-1.887.851-3.588.404-5.543-.435-1.905-.686-4.062-.253-5.813.556-2.243,2.57-3.122,4.505-2.95.441-1.302.965-2.433,1.684-3.207.913-.983,2.834-.416,3.728-.778,1.374-.557,2.617-1.366,4.534-1.385-9.749-42.144,1.343-85.96,32.138-116.614,14.872-14.804,32.995-25.462,53.017-31.205,62.681-17.979,128.553,14.652,150.574,75.902,6.539,18.189,8.561,37.266,5.849,56.295l-3.332,16.805c1.468-.325,2.723.027,3.765,1,2.452-.208,4.389,1.297,4.654,3.982,2.751.499,4.006,2.646,3.723,5.485-.317,2.388-1.528,5.31-1.205,7.73l1.089,8.166c2.805-.4,4.84,2.003,4.913,4.825,1.652.229,3.296.797,3.982,1.765,1.045,1.473,1.083,3.184.836,5.023,6.304,4.872,11.926,10.196,17.06,16.248,3.486,4.11,6.052,8.594,8.001,13.611,1.684,4.334,2.002,8.875,1.037,13.504-1.392,6.677-3.566,13.182-5.874,19.453,1.162,1.673,1.977,3.644,1.343,5.593-.559,1.715-2.125,3.182-4.446,3.474.873,2.089,1.346,3.987.276,6.028-.771,1.47-2.832,2.376-4.747,2.436l-5.985,11.262-8.396,13.865c-.587,5.594-1.426,10.722-4.666,15.507-.451,1.587-1.501,4.729-1.385,6.305l.576,7.789,3.183.327c2.365-2.306,5.619-3.48,8.584-1.848,6.763-2.906,14.432-.744,19.354,4.561,7.426,8.004,8.798,18.973,4.783,29.093-1.726,4.35-4.536,8.534-6.791,12.517.687,2.161,1.375,4.853-1.366,6.867,3.249-.151,5.956.148,8.002,2.618,1.779,2.148,3.763-1.012,6.792,1.275,1.722,1.3,1.286,2.857,1.185,4.77l-.232,4.395c.962,1.762,1.955,3.562.852,5.527l7.038.219c2.592.081,4.219,2.728,4.106,5.043l-.288,5.891-.081,19.41c2.698-.7,5.745.698,5.74,3.38l-.014,7.493-394.112-.002ZM194.645,239.455c3.704.293,7.4.471,10.809-.11l4.553-.776c2.1-.358,3.9-1.144,6.045.236,3.148-.566,6.782-.631,9.678-1.857,2.528-1.07,4.296-2.457,7.309-1.286,35.274-10.168,62.584-32.619,77.45-66.326l1-7.686c.3-2.307,1.791-4.015,3.935-4.876l2.253-8.939c9.854-39.103-3.218-82.092-31.689-110.246C263.915,15.761,234.596,3.482,203.558,2.764c-17.589-.407-34.832,3.029-51.059,9.761-5.66,2.348-10.701,5.099-15.854,8.259-46.093,28.267-66.48,83.41-51.899,135.286,1.929,1.002,3.176,2.424,3.457,4.555l1.01,7.677c13.967,32.243,41.837,56.391,75.417,66.541,3.252.983,6.473-2.531,9.032,2.233,3.25.512,6.618,1.485,9.805,1.202,2.428-.215,4.529-1.14,6.659.685,1.567-1.014,3.036.373,4.517.49ZM66.955,180.626l-.311,3.59c1.967,5.524,6.723,9.48,12.33,10.848.398-.083,1.295-.338,1.295-.664v-1.157c7.781-1.237,11.95-8.985,9.604-16.511-.572-1.834-1.735-3.914-1.952-5.758-.673-5.726-.373-13.317-4.224-13.231-.991.022-2.389,1.204-2.464,2.343-.231,3.501,1.989,7.387-.29,11.223.084-3.171.027-5.681-.755-8.472-.629-2.246-.565-4.358,1.443-5.969-.207-.68-1.359-1.679-2.039-1.645-.65.032-1.852.73-2.304,1.397-2.487,3.67-.053,7.888-.972,11.622l-.438-2.093c-.644-3.079-1.027-6.052-.455-9.134-2.992-1.355-3.521,4.041-2.939,8.918.145,1.211.055,2.322-.366,3.535l-1.41-9.162c-1.274-.117-2.686.913-2.544,2.049l.557,4.457c.302,2.414.401,4.582-.466,6.848-.849,2.221-1.093,4.576-1.3,6.964ZM325.203,190.838c1.894-1.8,3.469-4.109,3.791-6.498-.313-.816-.334-1.823-.423-2.854l-.799-9.239c-.381-4.404,3.341-9.392-.233-11.012-.507,2.536-.875,4.542-1.858,6.686l.458-7.677c.065-1.093-1.177-2.703-2.095-2.893l.051,2.411-1.152,7.173-.682-.002.67-6.97c.138-1.441-.755-3.538-2.228-3.994-.702-.217-2.171.73-2.674,1.223,1.759,1.169,1.995,2.51,1.639,4.32l-1.844,9.378c-1.443-5.08,2.399-10.844-.516-12.147-.742-.332-2.356-.012-2.911.739-.761,1.032-1.316,2.27-1.478,3.547l-.99,7.802-3.449,8.528c-.743,1.837-1.329,3.408-1.302,5.44.07,5.274,3.697,9.148,8.992,9.257l-.935.951c-.089.09.274.405.462.595,3.697-.152,6.809-1.955,9.505-4.763ZM81.718,196.144c-1.65.624-2.804.948-4.008.608-5.733-1.618-10.347-5.824-12.728-11.28-.6-1.375-.413-2.844-.231-4.386-.988-.055-2.376.326-2.884.995-3.332,4.395,4.083,13.786,11.212,17.329,3.417,1.698,7.321,1.636,8.338-.397.347-.694.428-2.488.3-2.869ZM325.561,199.951l1.749-.057c-2.891,2.229-6.061,3.785-9.802,3.398-.147,1.168.154,2.265.79,2.728.506.369,2.059.923,2.723.816,13.449-2.15,19.793-16.206,17.008-18.93-.581-.568-2.215-.914-3.064-1.065-.104-1.205-.355-2.688-.789-3.506-.583-1.1-2.626-1.559-3.493-1.007.082,1.107.262,2.68-.136,3.687-2.23,5.642-6.934,9.944-12.81,11.326-1.541.362-2.678.043-4.048-.93-.26.544-.546,2.079-.358,2.796.493,1.888,3.417,2.772,6.315,2.068,4.41-1.072,7.348-3.884,10.847-6.624-1.368,2.251-3.151,3.764-4.933,5.3ZM79.977,222.247c-2.487-1.217-1.989-3.038-1.625-4.724.52-2.408,2.011-3.098,3.868-4.197l3.356-2.61c-.453-1.425-1.333-3.709-.46-5.109l2.895-4.646c.208-2.073.975-4.523,3.498-4.792,1.68-.179,3.46,1.392,4.532,2.562,1.854.13,3.441.489,5.025,1.261,2.488.94,3.53,3.29,2.821,5.872l2.371,2.257c-.107-.551-.397-1.323-.096-1.354,2.476-.259,1.762,1.937,4.784,3.324l2.653-1.674c-8.216-7.77-14.892-16.451-20.674-25.909-.751,5.934-4.02,10.453-9.143,12.406.751,2.042.729,3.666-.283,5.4-.622,1.065-2.538,1.994-3.846,2.542-.131,1.426-.521,3.423-1.56,4.2-1.513,1.132-3.056,1.485-4.999,1.458-2.869,6.038-6.019,11.831-10.412,16.901l-4.03,3.582c1.763,2.592,3.301,5.55,4.443,8.726,1.353.243,3.065.735,3.803,1.653,1.053,1.31,1.317,2.644,1.073,4.566l4.056,2.387-1.711-3.547,1.431-4.365c-1.037-1.001-1.65-2.437-1.512-3.504.098-.761,1.259-1.826,1.828-2.538.116-1.803,1.253-2.764,3.033-3.318.133-1.468.516-3.73,1.806-4.639l3.076-2.17ZM70.822,200.847c-.065-.856-.293-1.331-.83-1.658-4.151-2.53-8.065-8.4-9.849-13.135-.933-.46-2.624.059-3.25.967-2.168,3.146,1.875,9.396,5.275,12.869,4.058,4.146,11.386,7.582,14.09,5.333.676-.563,1.054-1.862.859-2.684-2.33-.147-4.572-.598-6.296-1.691ZM322.406,239.311l1.402,3.236-1.487,4.219,3.712-1.922c-.116-2.142.168-3.268,1.165-4.649.744-1.03,2.401-1.479,3.82-1.634,1.246-3.223,2.843-6.233,4.869-8.814-6.581-4.794-10.745-13.422-14.082-20.817-1.739-.189-3.416-.575-4.691-1.531-1.409-1.056-1.43-2.973-1.33-4.332-1.678-.507-3.58-1.485-4.011-2.704-.627-1.774-.295-3.313.24-5.068-3.938-1.72-6.21-5.064-6.852-9.489l-11.774,15.821-11.024,10.972h2.822c2.169-5.447,7.593-7.775,13.395-7.957l4.549-.143c2.045-.064,3.634-1.189,5.66.137,1.251.819,2.382,2.274,2.817,4.08,5.452,3.692,8.249,10.235,5.941,16.525,4.741,3.559,2.438,7.246,4.693,10.731.432.668-.208,2.477.166,3.34ZM61.447,240.51c-1.558-4.181-3-7.358-4.862-10.721-2.049.834-3.536,1.366-5.715,1.042,9.903-4.354,15.181-13.474,19.819-23.297-7.275-2.222-12.907-7.453-15.669-14.662-10.641,8.135-20.807,17.116-24.76,29.629-1.179,3.814-1.386,7.514-.502,11.437,1.587,7.034,3.783,13.74,6.612,20.55,9.806-2.173,18.566-6.569,25.075-13.977ZM357.735,255.72l7.107-21.237c1.101-3.292.651-6.6-.119-9.948-4.149-13.346-14.355-21.886-24.799-30.362-3.274,7.218-8.874,12.239-16.261,14.138,4.493,10.937,10.813,21.333,22.302,23.604-2.939.906-5.691.388-8.283-1.388-2.354,3.238-4.073,6.992-5.268,11.165,5.733,7.055,16.449,12.874,25.321,14.028ZM95.778,209.937l.155,3.001c.624.108,2.489-.243,2.876-.954,1.286-2.363-1.576-4.085.372-5.871.491-.451,1.706-.375,2.747-.125,1.253-3.493-3.364-5.405-7.85-5.573-.224-.87-.742-1.744-1.509-2.127-.689-.345-1.829.005-2.127.792-.205.542-.093,1.462.091,2.438l-2.12,2.296c-1.751,1.896-2.276,4.556-.633,6.738l1.882-1.768c2.514.388,3.513,2.184,4.6,4.657.527-1.787.658-2.477,1.517-3.504ZM309.384,207.773c-.633-2.423-2.581-2.888-4.486-2.183l4.486,2.183ZM310.442,210.345c-.326-.576-1.499-1.559-1.572-1.195l-.296,3.088c-.519-1.861-.689-2.741-1.735-4.745-2.458,2.319-3.616,4.321-5.394,6.67.964-2.784,2.185-4.41,3.619-7.059-2.2-.086-3.301.618-5.411,1.416l2.396-2.162c-3.142-.089-5.28.97-8.152,2.127l2.727-2.169c-4.273.565-7.997,2.857-9.763,6.487l2.543.355,4.838.95c.174.034.819-.756.818-.58s.346.967.516,1.016l4.293,1.222c.76.216.99.303,1.591.593l12.076,5.826,2.558,1.907c1.534-5.084-.425-10.363-4.492-13.396l1.352,4.093-2.512-4.445ZM100.186,213.006l1.639-.01c.228-2.381,2.257-3.989,1.543-4.594l-1.325-1.123c-.324-.275-1.427-.417-1.768-.176-.284.201-.445,1.043-.266,1.096l1.87.005c-1.275,1.85-1.77,2.875-1.694,4.801ZM109.494,211.647c-.678-1.577-2.675-1.967-4.364-2.2-.465-.064-1.011.87-.993,1.337.019.491.43,1.325.82,1.326,1.975.006,2.228-1.412,3.067-1.067l1.47.604ZM93.132,212.146l-3.231-1.466c-1.341.543-2.873,3.208-1.326,4.304,1.682,1.192,4.453-.595,4.557-2.839ZM110.967,215.561l4.66-.684c.209-1.343-.223-3.336-1.476-3.943-.71-.344-2.771.536-2.951.87l.916,1.369c.12.179-.711.455-.908.582l-1.013.651c-.164.106.58,1.184.772,1.156ZM120.494,214.498l-3.95-3.645,1.033,3.655,2.917-.01ZM85.039,217.639c.491-1.059.698-1.725,1.025-1.804l1.366-.331-.834-3.242c-.505.125-2.458,1.505-2.27,2.312l.713,3.065ZM79.573,228.045l1.068,1.808c1.369-1.975,3.437-2.173,5.253-1.056,1.35-1.926,2.777-3.953,4.771-4.861l4.089-1.861,4.082-1.554c.257-.098.721-.86.951-.726l.851.491,2.777-1.419,2.895-3.784-5.121-.782-2.606,2.807.808,1.094c.089.12-.618.224-.729.123l-.504-.46c-1.315-1.201-2.798-1.798-4.575-1.206-1.243.414-1.983,1.858-2.602,3.496l-4.475,1.235c-.326.09-.915.744-1.06,1.038s1.044.681,1.195.662l-2.494,3.859c-.428-.879-1.191-2.245-1.698-2l-2.171,1.046.108-1.647c-1.71.166-3.641,2.18-3.448,3.949.068.625,1.354,1.525,1.865,1.783l.766-2.035ZM309.022,223.811c1.113.06,1.77.742,2.356,1.386,1.217.105,2.325.393,3.036,1.362.577.785.53,2.125.43,3.328l4.614,3.148c.605-1.914-1.112-2.17-1.834-2.776l-2.471-2.075,2.859-.598-2.34-2.153c-9.494-6.309-21.305-11.9-33.023-11.157,1.828,2.437,6.598-.055,8.551,2.176l1.187,1.356c.477.545,3.011-.937,3.684.296l.92,1.685c1.531-1.31,2.581-1.29,4.13-.645,3.6,1.497,8.211,3.923,6.396,6.586l3.148,1.497c-.166-1.71-.728-2.114-1.644-3.417ZM84.601,224.109c-.314-2.25-.288-2.665.415-3.998l-2.097-1.141,1.569-1.203-2.559-2.704c-1.728,1.636-2.094,3.363-2.181,5.416l2.461.044c-.26.717-.682,2.271-.281,2.742.469.551,2.507,1.001,2.672.845ZM282.807,217.839c.578.034,1.665-1.038,1.594-1.254l-2.683-.893c-1.074-.358-3.163.842-3.985,1.85l5.074.298ZM102.082,222.666l2.364-.795c4.246,3.474,6.519-1.633,8.727-.865,1.216.423,1.896.736,3.157.498,2.763-.52,5.981-1.315,8.499-.014.814.42,1.567,1.022,2.137.855.618-.181,1.663-1.645,1.219-2.002l-3.154-2.124.668,1.354c.656,1.329-2.532-.213-5.229.406l-2.871-2.14c1.265-.364,2.283.076,3.532.544.311-.922-.367-1.888-1.431-1.953-.696-.042-1.518.409-2.215,1.109-1.758-1.206-3.994-1.784-5.929-1.189,1.614,2.427,4.586,1.513,4.263,1.823-.108.104-.451.521-.591.574l-3.455,1.312-3.454-2.045c1.003-.286,1.938-.094,3.347.255-.673-.798-2.134-1.744-3.119-1.901-1.718-.272-2.712.581-3.54,2.028l2.321.24-4.194,1.698c-.726.294-1.615.935-1.908,1.557-.264.56-.2,2.192.354,2.482,2.168.846,4.902,1.287,7.008,1.274l.253-1.596c.092-.582-4.53,1.149-6.758-1.385ZM90.405,217.514c.335-.035.488-1.331.177-1.342l-4.712,1.817,4.535-.474ZM289.209,218.819c.458-.735-.252-2.401-.986-2.377-1.349.043-2.313.863-3.011,1.868l3.997.509ZM296.018,221.087c.189-1.252-.418-2.731-1.326-2.696-.817.031-1.754.525-2.532,1.169l3.859,1.527ZM319.801,239.325c.572-.877.987-1.883,1.195-2.913-2.431-2.494-4.981-4.226-7.843-6.011-11.209-6.987-25.823-12.802-39.124-11.154-1.096.136-2.631,1.591-3.356,2.653,4.425-.221,8.514-.117,12.935.376,1.6-.829,3.387-.859,4.172,1.329l4.76.961c8.391,1.694,21.115,8.107,27.261,14.759ZM305.686,224.696c-.605-2.699-2.489-4.113-5.234-4.524l-.099,2.406,5.333,2.118ZM115.236,223.712l2.969-.119c2.253-.09,3.845-.306,6.367.055-.196-.737-.998-1.761-1.605-1.803-2.074-.141-2.466,1.203-4.284.462-.838.32-1.765.499-2.723.469l-1-.031c-.199-.006.078.975.277.967ZM97.049,225.74l2.843-3.479c-1.125-.315-2.516.007-3.659.564l-4.928,2.4c1.656,2.076,2.428-.18,5.744.515ZM85.58,230.213c-.55-.542-1.687-1.213-2.244-1.091-1.748.383-4.078,3.583-4.038,6.132l1.806,1.725-2.303,1.457.383,4.181-3.392,3.849c.186.35,1.47.927,2.093,1.016.54.077,1.108-1.122,1.576-1.526,4.469-3.859,9.318-6.816,14.598-9.469,4.355-2.188,8.942-3.38,13.637-4.671l1.223-.336c.159-.044.659,1.949,6,1,1.632-.29,3.625-2.029,2.62-3.77-.737-1.278-3.385-1.207-4.604-.884l1.206-2.593c.267-.574-.509-2.019-1.07-2.339-1.055-.602-2.694-.094-3.207.907-.53,1.037-.828,2.605.076,3.219l1.567,1.064-2.22.05c-.44.01-.828,1.49-1.257,1.642-1.536.545-4.031.989-5.955,1.095,2.181-2.08,5.392-1.167,6.392-3.752-4.719-1.9-13.433,2.165-18.276,5.121-.713.435-1.202,1.556-1.923,2.688l-.538-2.242c-1.68.873-3.409,2.744-3.78,5.201-1.036-1.588-1.844-2.312-3.66-2.829l.67-1.113c.165-.274,1.09.734,1.407.687.619-.091,1.88-.708,2.24-.985-1.598-1.51.068-2.462.972-3.436ZM279.848,226.908c.113-2.146.186-2.273,1.252-3.563l-4.123-.135-3.503-.092c-.864-.023-2.097.52-2.827,1.054-.432-.291-2.003-.937-2.6-.693-.905.83-1.373,2.322-1.318,3.952,4.28-1.479,8.604-1.329,13.12-.523ZM285.822,228.537c.65-.249,1.78-1.147,1.976-1.747.398-1.22-1.666-3.952-2.331-3.77l-1.694.462c-2.003.547-2.959,2.067-2.312,3.599.747,1.768,2.183,2.292,4.361,1.456ZM134.208,230.854c2.956-.583,3.464-1.383,4.769-3.686l-7.049-4.028,1.836,3.167.444,4.546ZM101.756,226.118l-1.546-2.465-2.083,3.172,3.629-.708ZM131.813,230.351l-5.719-2.677,6.193.766c-.215-1.166-.791-2.56-1.342-3.435-1.885.65-2.53.467-4.324.013-3.184-.807-7.852-.51-10.951-.004-.437.071-1.388,1.362-1.033,1.506l1.303.526c1.399.564,2.359,1.06,3.055,2.59l5.6-.052c2.899-.027,5.154.989,7.647,2.762.28-.277.033-1.778-.43-1.994ZM264.344,229.031l1.155-4.14-5.411,2.968c1.09,1.648,2.278,2.614,3.625,3.479l.631-2.307ZM89.489,230.048l1.458-2.958c.149-.302-.461-1.204-.774-1.34-1.497,1.023-2.852,2.509-2.929,4.206-.019.416.672,1.435,1.064,1.392s.866-.659,1.182-1.301ZM310.742,235.504c-.599-1.816-1.001-2.475-2.328-3.197-1.035-.563-2.708-.264-3.876-.071-.544-1.295-1.199-2.106-2.173-2.655l-3.411-1.923.707,2.178-3.613-3.061c-.425-.36-1.811-.066-2.068.102-1.439-.354-3.251-.604-4.923-.707.19.77.377,1.177.207,1.412l-.689.957,7.285,2.526,7.094,2.876c1.058.429,2.014.92,2.947,1.543l9.55,6.376c.34-.799.548-1.562.932-1.699l1.558-.557c-4.057-4.918-6.871-3.106-7.199-4.1ZM90.681,230.213l5.764-2.677c-.333-.436-1.083-1.006-1.424-.817l-1.295.716c-1.477-.032-2.873.828-3.044,2.779ZM297.14,235.063c5.938,2.598,11.25,5.462,16.24,9.275l3.704,3.617c.192.188,1.056.567,1.212.38l.769-.926c-2.8-3.028-5.661-5.302-8.99-7.755-7.272-4.841-15.291-8.328-23.827-10.4-1.209.524-3.193.922-4.062.366l-2.023-2.372-1.315,1.076c-.225.184-.945-.399-1.183-.594-4.053-.543-7.861-.23-11.613,1.309l-.371,1.251c-.073.246.765-.086,1.065-.173,3.057-.887,6.63-.811,9.671-.631.471.028,1.549-.406,1.773-.09l.835,1.174c1.745,2.455,5.228,2.364,7.885.919l10.23,3.574ZM156.799,278.352l.886-2.994c-1.363-.792-2.566-2.188-2.795-3.65-.252-1.606.751-3.341,1.504-4.534-.848-1.389-1.846-3.016-1.411-4.782.322-1.307,1.45-2.655,2.92-3.829-3.813-5.575-2.688-12.871,2.666-17.053,1.341-1.048,2.486-2.158,3.703-3.729-8.349-2.538-15.979-5.561-23.401-9.472,1.264,4.264,1.47,7.857.286,11.83l1.833.826-.572,6.056c1.458,3.001,2.122,5.902,1.283,9.202l-.913,3.593,3.231,2.384c2.911,2.786,3.482,7.107,2.713,10.776,3.849,1.641,5.534,4.303,8.067,5.375ZM240.244,276.334c1.898-1.47,3.757-2.905,5.958-3.959-1.392-5.655,1.245-11.694,7.199-13.359-2.067-4.145-1.272-8.592,1.138-12.413.016-1.23-.229-3.535.451-4.457.84-1.14,1.129-1.783,1.047-3.141-.198-3.263.849-6.498,1.572-9.758-7.652,3.762-15.05,6.511-23.06,9.042l4.416,5.705c3.365,4.348,2.179,10.596-.774,15.116,2.721,2.384,2.785,5.901.479,8.465,1.223,1.335,1.714,2.826,1.271,4.488-.275,1.03-1.333,2.147-2.654,3.164l.162,3.273,2.796-2.165ZM260.139,244.694c.436-1.002-.02-2.424-.648-2.659l-1.066,2.235.542-4.31,2.118,1.439c-.691-3.408-.294-6.436.885-9.256-1.158-.837-1.785-1.45-2.74-2.536l-1.655,7.612.305,4.25-1.812,1.384.054,4.457c-2.279,3.021-3.368,7.072-1.331,10.471.521-2.196-.338-4.209.216-6.055,1.333-4.438,4.348-5.231,5.132-7.032ZM139.661,257.151l.989,2.039c2.092-3.571,2.073-8.117-.342-11.696l1.242-5.13c-1.56.149-1.506.675-2.454,1.982-.976-4.039,1.875-8.171.157-14.17l-2.006,2.381c-.701-.29-1.604-.314-1.695.046.621,2.232,1.582,5.355.375,7.454-1.047,1.821-.765,2.874-.153,4.613l.926,2.634,1.033-2.492.823,3.664c1.815,2.637,2.008,5.528,1.106,8.673ZM134.546,276.016l-.084-4.053,1.264,1.374c4.433-3.581,6.183-11.726,2.071-14.257-.378-.233-1.061,1.184-.803,1.495s.812.706,1.393,1.054c.506.304.949,1.552.739,2.099-.175.456-1.029,1.305-1.515,1.402-1.624.323-3.746-.616-4.663-1.749l-.662-.817c-.134-.166-.852.472-.696.618l.772.723c1.148,1.075.882,3.869-.387,4.621-.579.343-2.134.213-2.907.09-2.983,1.798-6.614,2.549-9.936,1.457,2.789-.399,5.586-.438,8.03-1.315,1.495-.536,2.403-.817,4.154-1.03.907-.11,1.225-1.846.57-2.767-1.623-2.28-5.032,1.161-8.039,1.172-3.416.012-6.109.071-8.906,2.13-2.531,1.863-7.707,3.719-9.446,3.198-1.424-.426-2.111-3.895-1.325-4.268l1.607-.762c.26-.123-.19-1.071-.453-.967l-1.01.4c-.985.39-2.26,1.155-2.548,1.943-.327.896.065,2.469.47,3.194,1.326,2.374,3.311,2.85,6.052,2.965-2.304,1.212-4.684.27-6.128-1.355-1.215-1.368-2.489-3.775-1.267-5.691.679-1.064,2.969-1.912,4.019-2.597.4-1.748.635-3.398,2.303-4.52l1.808,2.006c1.025.055,2.91.689,3.411,1.417.156,1.398.42,2.257,1.469,2.739.755.347,1.836.152,2.697-.257,2.033-.966,4.088-.748,6.404-.797,4.453-.096,10.736-4.357,9.515-5.848l-.926-1.13,2.271-.105c-.207-.58-.746-1.527-1.22-1.6-.394-.061-1.087.428-1.607.708-.568.306-1.789.488-2.716.703-1.367.318-2.342,2.528-4.381,1.745,2.249-1.028,3.556-2.55,3.837-4.476.335-2.291-1.026-4.314-2.552-5.048-2.302-1.108-4.128-.286-6.15,1.015.479-1.722,1.66-2.123,3.609-2.933l-3.284-.695,2.811-.759c-.379-.84-1.57-1.914-2.44-1.932-1.045-.021-1.894.398-3.083.865.797-1.493,2.442-1.958,4.295-1.55l-1.113-4.347,2.268,2.124c.193.173,1.053-.642,1.07-.958.144-2.601,1.994-5.672,4.705-5.823l3.196-.179c-.493-3.084-5.151-3.543-9.006-3.79-1.842-.118-3.377.245-4.468,1.756-2.864,1.542-6.1,1.657-9.298.674-4.602.708-8.833,2.489-13.046,4.294-2.024.867-2.267,1.608-3.284,3.566l-3.49,6.714c-.955,2.685.314,5.473,1.849,7.984l-4.762,2.3c-.171,1.025-.374,1.779-1.085,2.439.26-5.68-2.93-11.251-8.627-11.93,1.062,1.544,1.621,2.049,2.009,3.422l-2.154-1.382c-.275-1.094-1.022-2.062-1.998-2.164-2.65-.28-4.38-1.492-6.578-3.336-.526,3.195.614,6.633,3.295,8.23l-.517-1.482c-.09-.258.894-.506,1.146-.294,1.224,1.03,3.141,3.688,1.636,5.629l-2.059-2.905c-.75,1.466-.713,3.402-.118,4.833.406.978,1.789,1.742,2.998,2.347.736,3.469,2.159,8.114,4.368,8.144.36.005.846-.862.7-1.191l-.589-1.328,3.238-.134-1.757-2.724c-.308-.477-.855-1.924-.499-2.356l1.391-1.685.524-1.714c-.038-1.797-2.366-3.822-4.373-3.004-.83.339-1.414,2.094-1.876,3.211-1.018-1.546-.237-3.338,1.193-4.233,1.238-.775,2.976-.478,4.213.443,2.452,1.825,3.002,4.726,1.803,7.423l-1.854-.452c.045,1.434.536,2.336,1.559,3.137,1.635,1.281,2.188,3.782.457,4.909l-.94-1.412c-.588-.883-2.533,1.28-3.295,3.857-.309,1.046.783,2.616,1.539,3.033.844.465,2.395.58,3.058.063.627-1.606,1.473-2.937,2.49-4.275l.093-5.157c1.364,3.357,1.764,5.953,4.162,8.385l.229-4.555c.743,2.892,1.661,5.484,3.421,7.912-.075.348-.313,1.063-.098,1.263l.954.89c2.275,2.123,4.634,2.955,7.683,3.246,4.201.402,8.352.764,12.108-1.025l-1.838-.964c1.155-.327,2.171-.205,3.27.423,4.206,2.4,9.485,1.668,11.989-2.407l.601,1.312c.388.848,7.161-.37,7.073-4.604ZM265.384,239.81c.693-.733,2.396-.973,3.312-.604,1.935.781,1.886,5.235,4.734,3.888l-1.317-2.406c.127-1.803-.868-4.387-2.844-4.52-3.379-.227-4.826-.95-5.826-3.237-.062-.142-.455.149-.504.296l-.278.838c-.627,1.891-1.059,4.102.687,5.464-2.648,1.316-.627,5.837-2.87,7.526-2.801,2.109-4.943,4.637-4.209,8.293.889,1.582.368,3.295-1.222,4.252-1.819,4.343-.482,8.891,2.252,12.475l.839-1.707c1.353,2.807-1.236,5.651,1.949,7.997,1.395,1.028,3.141,1.423,4.609,1.235l.382-1.842c.599,1.592,1.521,3.06,3.167,3.785,3.464,1.526,7.102.709,9.99-1.329l1.246.75c.128.077-.227.353-.33.462l-.565.597c5.428,1.895,11.456,2.175,16.786.064,4.573-1.81,6.61-6.067,8.098-10.682.757,2.064-.568,3.811-.921,5.71,1.528-1.701,3.329-3.481,3.969-5.338l1.972-5.722-.119,5.967c1.151,1.04,1.831,2.023,2.124,3.376,1.361.875,3.317.651,4.285-.645.659-1.29.54-3.038-.623-4.215-.963-.975-2.142-.861-3.147-.316-1.373-1.069-1.102-3.722.572-4.753,1.183-.728,1.494-2.649.647-3.382-.406.197-1.437.674-1.469.415l-.167-1.369c-.221-1.818.71-3.804,1.933-4.896,1.271-1.134,3.234-1.723,4.915-1.011,2,.848,2.166,3.91.76,5.222-.114-1.453-.307-3.924-1.821-4.265-2.487-.561-4.47,2.441-4.661,4.514l2.223-.134c.479-.029,1.128,1.491,1.01,1.969-.704,2.858-3.713,3.73-2.759,5.69l3.152-1.27-1.356,1.942,1.389,1.87c3.913-3.404,4.784-11.101,5.546-10.981l1.359.215c1.046-.978,1.868-3.134,1.227-4.923-1.266.81-1.76,1.938-2.48,3.492-1.617-2.412-.635-5.213,2.204-6.347l-.132,1.645c2.802-1.459,4.435-4.362,3.463-7.465l-5.301,3.073c-.81.47-2.526-.295-3.434,1.278l5.473-.121c-1.774,1.774-4.593-.109-7.795,2.389l1.143-3.011c-5.042,1.584-7.641,5.739-8.263,10.95l-.848-2.824-3.986-2.067c1.728-2.378,2.22-3.742,2.508-6.13.246-2.039-.551-3.365-1.671-4.957-1.143-1.625-1.769-3.832-2.44-5.854-4.914-2.56-9.97-4.572-15.378-5.849l-3.316.458c-2.586.357-4.424-.932-5.968-2.743l-6.95-.11c-1.608-.025-3.289,1.311-4.393,2.446.828,1.948,2.91,1.041,4.026,1.539,2.428,1.082,3.344,3.862,3.491,6.102l2.216-1.115-1.524,3.718c2.706-.576,4.779.567,5.04,3.163l-2.473-1.9c-1.516-1.164-3.939.154-4.196,1.704,1.201.125,2.446.502,3.282,1.177-1.516-.194-2.601-.337-3.931.295,1.751.617,3.472,1.183,3.444,3.349-1.209-1.39-2.682-2.319-4.48-2.07-2.285.316-3.904,2.399-4.097,4.276-.259,2.513.827,4.116,3.033,5.79-1.277-.039-2.376-1.114-3.438-1.593l-4.359-1.892-2.748,1.91c-.749.52-.701,2.558-.708,3.559l-2.271.233c.084,1.331,1.155,2.398,2.173,2.143.904-.227,1.823-1.358,2.243-2.174.151-.292,1.157-.643,1.054-.947l-.404-1.185c-.137-.403-.151-1.731.278-1.743l1.36-.039c-.781,1.513-.744,3.001.49,3.873,6.174,4.362,9.138,2.48,11.275,3.546,1.63.813,2.672.779,4.279-.127.016.625.203,1.808.624,1.748,2.128-.304,1.56-1.731,2.847-1.91l2.554,4.878c.164.313,1.254.263,1.354-.068.075-.247.175-1.039.056-1.26l-1.137-2.107c.793-1.674.925-3.443-.049-5.057-1.635,1.657-3.452,2.825-6.069,2.146l4.158-1.866c-1.809-3.102-3.258.2-6.093-.796,1.729-.628,3.1-1.11,3.609-2.424.44-1.137.036-2.662-.904-3.523-.857-.785-2.27-.782-3.961-.759,1.084-1.579,3.373-.95,4.826-.034,1.283.809,1.604,3.057,1.29,4.548-.208.99,1.978,2.156,2.39,1.908l1.29-.774c.729.915,1.172,2.352,1.59,3.887l4.486,2.53-5.023-1.037c1.743,1.153,3.424,1.731,3.953,3.079.706,1.798.084,3.637-1.286,4.93-1.208,1.14-3.442,1.632-5.095,1.057,1.545-.428,3.032-.839,4.395-1.847.997-.738,1.396-2.54.996-3.577-.405-1.049-1.687-1.864-2.883-1.69.911,1.505,1.218,2.577.57,3.659-.448.748-2.586,1.314-3.039.345l-2.1-4.489c-.559.817-.769,1.351-1.133,1.404l-1.904.277,2.48.856c.368.127,1.04.909.791,1.196-.882,1.019-3.562-.469-5.676-2.167-1.759-1.413-3.495-2.191-5.731-2.266-5.268-.175-8.085-3.559-9.165-1.879l-1.02,1.587-.832-1.2c-.18-.26-3.469,1.677-4.662-.855-.657-1.395-.045-2.342,1.39-3.216.32-.769.814-2.923,1.543-3.382l3.691-2.326,1.11-3.191c.06-.171.061-.66.239-.679l1.043-.111,1.01-.109c.168-.018.259-.274.109-.338l-.806-.349c-1.02-.442-2.292-1.182-2.493-2.013-.29-1.199.105-2.704.919-3.469.593-.557,1.641-1.074,2.215-.978,2.374.393,2.834,2.782,2.484,5.422.908-.675,1.452-.864,2.592-.973l1.782-3.244-1.565-.098c-.584-.036-1.099-4.842-5.375-4.504ZM75.44,238.99c1.867-3.061,3.209-4.69,3.592-7.942l-5.644,2.154c-.584.223-1.381,1.526-1.371,2.12.009.519.526,1.489.858,1.92l2.564,1.748ZM124.856,248.132l2.75,1.437c-1.209-1.801-1.145-3.749.358-5.117,1.268-1.154,3.472-1.362,4.888.274.697.805.775,2.695.126,3.747-.432.7-1.453,1.362-2.664,2.149,3.163.661,1.416,4.565,2.973,4.777,1.684.228,3.374,1.468,3.686,3.706,3.168-4.056,2.095-9.111-2.025-11.597l-1.564-6.536c2.709-1.556,2.547-5.653.557-7.916-1.482,2.249-2.625,3.326-4.79,3.565l-1.175-.799c-5.015,2.318-2.662,6.642-5.865,6.774l1.015,1.652c2.802-.97,2.452-4.073,5.622-4.885,1.397-.358,2.937-.087,3.456,1.38-2.247-.633-4.058-.423-5.135,1.293,1.184-.292,2.134-.469,3.177.056-3.178.42-4.354,2.417-5.008,5.527-.682-.796-.355-1.717.135-3.136l-2.392.834c.443,1.02,1.118,2.421,1.873,2.816ZM191.082,245.733l1.658-1.586c.829-.793.939-2.065.244-2.977-.44-.578-2.31-.945-2.555-.264-.858,2.385-2.233,4.092-4.901,4.474l2.773-2.324c.574-.481.863-2.044.502-2.626-1.436-2.313-7.062.161-10.589,2.703-3.141-.245-6.398.493-8.641,2.834l-1.975,2.226.65-3.796c2.28-.532,5.111-3.108,3.943-5.891-.735-1.752-4.339-2.359-5.431-.851-1.358,1.876-2.461,3.609-4.264,4.964-2.787,2.094-4.442,5.061-4.469,8.413-.027,3.263,1.29,6.591,3.936,8.485-.529.407-1.087.829-.912.995l.655.622c5.87,2.726,12.88,2.569,18.379-.848l-4.219-.127c4.987-1.186,8.391-4.08,11.995-7.532,3.617-.858,6.931-3.835,6.22-4.835l-.564-.794,2.598-1.556c.937-.562,1.475-1.592,1.11-2.647-.251-.727-1.595-1.345-2.318-1.024-.448,2.032-1.75,3.519-3.823,3.96ZM205.814,246.65c-.537.834-.88,1.348-.848,1.78.138,1.873,3.635,3.237,6.51,3.965,2.159,3.715,5.117,6.091,9.175,7.448l-4.201-.095c1.835,2.632,5.28,2.73,8.364,4.097-3.773.871-9.468-.737-9.895-4.168-1.422-.117-3.356,2.723-1.885,4.073,9.376,8.615,24.137,4.868,25.091.078.165-.827-.659-2.689-1.131-2.953l-1.875,1.555-.715-2.782c1.76-.946,3.36-3.063,4.057-5.416,1.269-4.278.312-8.669-3.143-11.62-1.253-1.07-1.785-2.588-2.665-4.12-.866-1.509-4.818-.872-5.412.623-1.045,2.63,1.445,4.454,3.052,5.707l.268,3.736-2.322-3.084c-1.448-1.111-4.053-2.161-5.868-1.971-1.236.129-1.86.207-2.631-.616-2.07-2.211-5.29-3.527-8.166-2.666-.652.195-1.084,1.722-.82,2.262.946,1.932,3.408,2.115,4.854,4.689l-4.593-2.794c-.902-.549-1.302-1.85-1.871-3.142-.303-.689-2.155-.127-2.412.577-1.183,3.239,2.567,3.344,2.996,5.664l-3.416-2.812c-.586-.483-.914-2.159-1.211-2.947-.894-.196-1.978.689-2.069,1.458-.097.819.306,2.113.889,2.433l1.891,1.038ZM74.676,245.857c1.516-1.614,2.259-2.677,3.023-4.292-1.154-.756-2.446-1.544-3.373-1.773-.617-.152-1.724.954-1.873,1.554s.092,1.959.537,2.492l1.686,2.019ZM87.107,256.432l-.701-1.572,2.192.433c-1.58-3.034-2.181-6.16-1.37-9.33,1.981-1.754,3.118-3.991,3.73-6.227-3.108,1.235-4.219,3.532-5.309,6.242l.104-2.954c-2.321,1.044-2.212,3.111-2.165,5.022.077,3.138.564,7.23,3.52,8.386ZM225.658,242.481l-.398-2.436-4.641,1.076,5.039,1.36ZM311.511,247.156l1.086,2.879,2.699-1.437c-1.193-1.751-2.701-2.638-4.314-4.05l-2.509-2.195-.622,1.538c-.921-2.25-2.07-3.28-4.412-3.966l1.375,3.044c.595,1.317,1.953,2.584,3.187,3.416-1.613,1.699.502,5.064-2.286,8.865,1.132.047,1.437.138,2.296.66l3.154-5.304.346-3.45ZM37.343,262.341c3.256.416,5.106-.201,7.635-1.056,5.676-1.92,11.125-4.65,15.205-8.697-2.218.483-3.189,2.877-5.538,1.91,5.583-4.252,15.191-11.192,8.996-14.198l-2.421,3.196c-5.694,5.739-13.545,10.222-21.363,12.259l-5.715.566c-.568,1.06-.124,2.997.931,3.712.939.636,2.539.755,4.031.773l-1.76,1.537ZM321.654,241.234c-.654-1.056-4.508-1.372-5.346.115-.308.547.128,1.509.751,2.119l2.858,2.8c.596-2.234,3.055-2.905,1.737-5.034ZM351.01,264.899l-8.025-3.032c-.277-.105-.502-1.205-.237-1.142l1.005.241c3.673,1.27,7.654,3.349,11.889,2.698l-10.137-3.317c-1.911-.625-3.493-2.017-5.128-3.254l4.28,1.662c4.987,1.937,11.28,5.051,14.451,2.477.829-.673,1.229-2.39.904-3.305l-4.563-.455c-4.905-.998-9.269-3.065-13.58-5.485-4.466-2.507-10.246-6.792-11.576-11.091-.925.404-2.217,1.485-2.309,2.281-.097.835.72,2.073.976,2.829l1.071,3.151-.979-.341c-.833-.291.201,2.462,3.375,4.091l.007-1.357c0-.165.902.138,1.091.275l7.075,5.155c-2.898-.066-4.642-2.424-7.131-3.188l5.993,5.793c-4.639-1.704-8.089-5.215-11.296-8.648l-2.247,3.229c7.114,8.021,16.767,13.655,27.417,15.323,1.11.174,2.588-.747,2.954-1.475.401-.798.323-2.17.035-2.932-1.921.198-3.273.591-5.316-.181ZM216.44,390.823l-.309-3.186c1.006-3.698,4.652-5.333,8.302-4.632,2.643.508,5.451.318,7.76-.23-1.277-.682-2.521-1.439-2.918-2.273-.527-1.107-.35-2.529-.077-3.803-4.155-2.518-7.872-5.374-10.597-9.315-5.646-8.167-5.088-18.908,2.279-25.697,4.38-4.036,10.292-5.311,16.155-4.523,3.89-1.575,7.84-.672,11.173,1.695,2.567-1.197,5.163-.811,7.393.352,1.062-1.031,2.062-1.627,3.409-2.1-.389-2.138,1.335-3.496,2.843-4.125-.008-3.08.506-6.466,1.175-9.368l-1.665-5.37c-2.494-2.906-4.672-5.683-5.549-9.891l-2.869,1.868c-.919.598-1.366.871-2.452,1.336-9.436,4.044-19.788,5.555-29.634,2.496-5.919-1.839-10.442-5.479-13.044-11.115-4.427-9.588-1.489-20.388,2.429-30.056-1.261-1.204-2.065-2.603-1.738-4.313.213-1.114,1.268-2.371,2.505-3.348-1.303-2.635-.732-5.534,2.311-7.104l-3.152-3.94c-4.706-.987-7.114-2.649-7.168-7.283-.653-.483-1.856-1.277-1.818-1.905l.149-2.43-2.501-.003c1.281,2.21-.804,3.716-2.339,4.665-.81,3.926-3.612,6.994-7.907,7.466l-4.425,4.11c2.149,1.611,2.967,4.494,1.021,6.728,2.58,2.167,2.268,5.798-.074,8.15,3.102,9.639,4.898,19.149.871,28.574-3.323,7.778-10.558,12.153-18.787,13.197s-16.448.133-23.864-3.62c-1.764.847-3.73,1.014-5.286-.377l-4.324,6.671-1.728,5.704,1.499,9.312c1.541.753,3.069,2.335,2.689,4.315,1.341.389,2.225.882,3.153,1.815,2.574-1.193,5.515-1.387,8.287-.414,3.202-2.348,6.851-3.089,10.351-1.455,8.247-1.598,16.945,2.477,20.375,10.332,2.764,6.331,1.446,13.267-2.301,18.901-2.708,4.072-6.656,7.314-10.238,10.466.263,2.196.045,4.469-2.785,5.627l6.385.063c1.915-.703,3.899-.858,5.844.029,1.751-.014,3.199.823,3.768,2.623.487,1.541-.016,3.694-.434,5.278,1.129,2.005,1.923,3.941.746,6.466l37.109.035c-1.341-2.29-1.253-4.073,0-6.397ZM131.202,248.997c-1.734-.404-2.617-1.049-2.658-2.161-.029-.789.945-1.811,1.651-1.903,1.223-.159,1.748.379,2.138,1.713l.128-1.325c.059-.61-1.757-1.771-3.986-.322-.635.413-1.354,2.106-1.015,2.774.763,1.504,2.769,1.733,3.742,1.225ZM264.052,248.571c.901.487,2.322.208,3.006-.814.594-.887.451-2.272-.371-3.007-.878-.785-2.309-.961-3.037.173l2.133-.229c.446.365,1.041,1.868.661,2.375-.422.562-1.355,1.007-2.392,1.502ZM82.504,250.007l.069-4.919-2.927,2.981,2.858,1.938ZM39.976,268.012l6.861-1.566c7.909-2.702,14.865-7.039,20.761-12.982l-2.084-3.508-6.671,5.749c-4.72,4.068-14.723,8.307-21.416,8.235-.461.565-.487,2.15-.078,2.867.33.578,1.805,1.393,2.626,1.205ZM264.731,254.671c.894-.716,1.663-2.208,1.511-3.264-1.441-.11-2.652.954-2.865,1.81-.359,1.441.06,2.724,1.525,3.122l-.17-1.669ZM129.363,256.419c2.363-.662,1.942-2.108,1.79-3.253-.151-1.137-1.402-2.033-3.071-1.493-.17.875.716,2.444,1.536,3.225l-.255,1.521ZM158.345,283.553c-1.069,5.985,1.101,11.265,4.097,16.362-5.435-4.548-7.156-11.905-5.808-18.86-.756-.467-2.003-.954-2.882-1.263-1.794-1.939-3.646-3.53-6.151-4.591-1.433,3.1-4.404,3.7-6.892,5.07-.71,1.348-1.645,2.639-3.301,3.834l1.773,1.051-1.655,2.761-2.821,1.187c-2.334,1.426-4.588,1.924-7.246,1.669-1.778-.171-1.826,2.444-1.743,3.532l.293,3.83c.034.449-.299,1.336-.654,1.52-1.249.651-2.63-1.028-3.919-.247-2.242,1.358-4.874,1.218-6.789-.551-.065,2.208-.571,3.868-1.939,5.242l-2.681,2.693c.225.756.256,2.36-.281,2.651-1.672.907-4.036-.067-5.461-.751l-5.209,3.536c-1.706-1.442-3.071-3.087-4.257-4.983-2.175,1.03-4.872,1.229-6.522-.656,3.431-2.97-1.71-4.268-.6-9.728-1.644.426-3.605.706-4.916-.013-3.27-1.792-5.289-.177-5.716-1.573-.389-1.269,1.614-2.679.194-4.934-4.487-.529-8.184-3.343-9.452-7.146-1.417-4.25-.015-8.636,3.134-11.343-1.718-1.656-1.407-3.296-3.664-5.196-.198-.167-.618-.899-.416-1.04l.908-.634,3.03-2.428c-2.041-2.085-2.425-3.968-2.52-6.654-7.417,6.761-16.141,12.069-25.829,13.891,2.94,8.344,7.281,16.024,12.61,23.334l1.357-7.166c.848,3.226.411,6.131.323,9.26-.241,8.518,2.972,16.011,9.676,21.742-1.408.041-2.548-.913-3.673-1.768l1.175,5.354c-.256,3.594-1.037,7.25.796,10.566,4.967,8.986,12.252,16.512,22.413,19.031,1.638-1.556,3.558-1.703,5.548-.785,2.311-1.593,5.164-1.573,7.244.198,2.005-.998,4.059-.601,5.372,1.265,8.407-.854,21.491-6.234,24.532-13.773,1.638-4.059,1.105-8.267-.469-12.34l1.855-5.875-3.511,1.196c-5.964,4.042-14.218,4.383-19.461-1.233,6.078,3.344,11.918,3.593,18.038.962,4.119-1.771,6.985-5.263,8.955-9.392,1.907-3.997,2.345-7.933,3.526-12.774l.644,4.836,3.213-5.953.494.312-4.526,9.932,5.231,2.536c13.92,6.748,37.035,6.086,41.012-10.222,2.294-9.407.413-16.104-2.284-25.065-7.067,4.768-15.276,4.958-22.8,1.771l-1.395,7.812ZM234.64,276.131c-7.764,2.908-15.435,1.979-22.147-2.723l-3.856,12.446c-1.015,4.773-.84,9.553.385,14.201,1.196,4.538,4.081,8.019,8.301,10.046,10.45,5.021,22.615,3.169,33.094-1.502l5.087-2.268c-1.374-3.536-3.667-5.896-3.972-9.791l3.255,5.477.732-3.159c1.085,4.897,1.904,9.43,4.594,13.58,6.202,9.573,18.216,11.406,27.42,4.267-2.909,4.751-8.903,6.398-14.213,5.824-3.673-.397-6.713-2.138-10.022-3.781l1.695,5.83c-1.727,6.664-1.574,12.489,3.605,16.901,5.842,4.977,13.074,7.815,20.733,8.966,1.423-1.799,3.48-2.102,5.538-1.189,2.053-1.85,4.827-1.71,6.943.039,1.899-1.407,4.062-.898,5.503.676,8.926-2.041,15.781-7.857,20.652-15.383,6.081-9.396.735-12.082,3.495-19.883-1.255.888-2.346,1.788-3.69,1.902,6.231-6.112,9.027-13.804,8.57-22.205-.147-2.702-.224-5.154.161-7.971l1.725,6.915,7.352-11.693,5.189-10.299c-10.025-2.2-18.142-7.43-25.468-14.62-.216,3.518-1.761,5.262-4.139,7.15,2.106-.085,4.745,1.136,4.649,3.153-.089,1.879-2.202,3.654-3.276,5.292,3.018,3.18,3.819,7.323,2.221,11.36-1.36,3.436-4.56,5.918-8.954,6.467-.428,2.461,1.434,5.396.278,5.371l-1.317-.028c-3.403-.073-4.17,2.285-8.88,1.155,1.398,3.743-1.475,5.503-1.794,8.295.344.455,1.206,1.703.792,2.1-1.19,1.142-4.076.937-5.516-.243-1.107,1.943-2.319,3.678-4.067,5.096-2.145-1.039-3.763-2.266-5.458-3.843-1.517,1.324-4.412,1.942-5.842.515.028-.849.175-2.79-.492-3.251-2.152-1.489-4.107-3.88-3.609-6.676-5.334,2.925-6.39.067-10.304.665-.491.075-1.372-.831-1.204-1.24,1.31-3.18-.794-3.166.644-5.112-.488-1.671-2.175-2.841-4.16-2.108-3.177-.764-8.245-4.129-8.234-4.193l.326-1.963c-.495-.462-1.81-1.43-2.167-2.194-.309-.662.576-2.241.997-3.035-3.583-.278-6.802-1.524-8.697-4.736-2.758.948-4.824,2.681-6.464,4.886l-3.05,1.242c.549,5.367.004,10.462-2.697,15.037-1.038,1.758-2.085,3.542-4.18,4.28,3.89-5.447,5.795-11.656,4.811-18.203l-.878-5.843ZM135.922,261.785l-.176-2.996c-.019-.323-.757-1.263-.999-1.042l-1.02.93-.576,2.869c.994,1.442,1.949,2.52,3.46,2.77.53.088,1.79-1.374,1.344-1.582l-2.032-.949ZM159.862,269.314l-.996-1.451c-.976.708-1.66,1.822-1.564,3.109.064.869,1.029,1.925,2.037,2.375,7.971,3.559,17.023,3.222,24.23-1.729.777-.534,1.342-2.162,1.13-2.95-.196-.727-1.369-1.81-1.953-1.888-1.302.814-2.36,1.31-3.645,1.628-4.105.881-8.24,1.828-12.371.601,5.927.333,11.366-.785,16.129-4.405.58-.441,1.232-1.951.963-2.578-.239-.557-1.056-1.451-1.656-2.04-.543,1.317-1.337,2.279-2.743,2.945-5.871,2.783-12.451,2.683-18.479.115-.945-.403-1.571-1.607-1.935-2.635-1.673,1.02-2.549,4.082-.614,5.225l4.921,2.906c-.978-.067-1.626-.188-2.031.5l9.557,2.682c-3.822.532-7.578-.158-10.978-2.411ZM256.758,274.596c-1.583.307-3.359.582-4.521-.319-2.712-2.102-3.214-6.738-.976-9.242,1.113-1.245,1.821-1.948,1.515-4.205-4.624,2.226-6.894,8.197-4.287,13.045,1.716,3.191,5.424,4.615,8.84,3.314l-.571-2.594ZM136.531,274.532c-.475,1.357-.623,2.244-.441,2.936,2.524,1.279,5.325,1.035,7.618-.564,1.88-1.312,3.197-3.46,3.436-6.142.376-4.223-1.643-7.96-5.816-9.575l.598,3.031c3.315,2.097,3.67,6.413,1.315,9.383-1.698,2.142-4.087,2.664-6.709.931ZM106.959,265.373c.611-.54,1.277-1.692.995-2.154l-1.033-1.687c-.786,1.565-.696,2.709.038,3.84ZM107.697,270.447l2.177-3.237,2.597-.326c-.045-.84-.533-2.532-1.405-3.299-.339-.298-1.737-.578-1.844-.177l-.439,1.629-2.508,3.902c-.18.28-.227,1.085-.208,1.385.019.303,1.448.393,1.63.123ZM71.851,270.821l3.165-1.03-2.857-6.011-3.128,2.104,2.82,4.938ZM321.742,271.25c1.218-1.287,2.216-3.095,2.373-4.409l-2.748-1.948-3.408,5.242,3.784,1.115ZM253.723,268.938l-.987-3.396c-.927,1.416-1.236,2.189-1.601,4.085l2.588-.689ZM143.157,271.2c.327-2.564-.071-3.846-1.395-5.2l-1.333,3.965,2.728,1.235ZM220.726,270.893c3.377-.057,6.318.339,9.128-.767-5.362-.225-9.945-.83-14.803-2.716l1.73,2.188c-1.599-.722-2.697-1.68-4.029-2.962-.887.084-2.018,1.591-1.921,2.636.122,1.306,1.068,1.981,2.255,2.674,7.028,4.101,15.472,5.141,22.713,1.26.801-.429,1.781-1.385,1.982-2.046.23-.756-.378-2.122-.937-2.607-4.267,3.585-11.353,4.225-16.117,2.34ZM84.812,275.824c1.143,2.501.548,4.945-.859,6.789-1.337,1.752-3.431,2.655-5.859,2.594-3.259-.082-5.808-2.548-5.953-5.519-.16-3.268,1.678-5.877,5.129-6.368l-.876-2.097c-3.864.416-6.419,3.423-7.108,6.753-.736,3.564.632,6.9,3.831,9.068,4.655,3.155,11.602,1.46,14.222-3.689s-1.315-11.305-2.22-10.179l-1.009,1.256c-.221.274.349.879.702,1.391ZM307.646,273.486c-3.018,2.936-3.408,6.242-1.937,9.725,1.695,3.411,5.382,5.57,9.24,5.359,3.444-.189,7.048-2.444,8.301-5.916,1.567-4.344-.354-9.168-4.398-10.959-.404-.179-1.962-.422-2.043.011l-.378,2.008c3.421.602,4.986,3.516,4.313,6.684-.559,2.632-2.292,4.256-4.979,4.694-2.744.447-5.543-.556-6.947-2.824-1.425-2.301-1.382-5.215.503-7.661l-1.674-1.122ZM141.492,272.674c-.121-.478-1.651-.997-2.015-.663-.304.279-.785,1.186-.634,1.616.271.773,3.019.512,2.649-.952ZM81.157,278.785l1.342,2.818,1.452-2.469c-2.074-1.725-4.618-.361-7.747-3.944l-.388,3.689,1.301,3.619c.152.421,1.173,1.341,1.389.971l.973-1.665,1.699,1.235-.022-4.255ZM312.415,283.026l2.385.453,1.818-3.032c.858-1.43.722-3.599-.826-4.119-1.447,1.171-3.005,1.469-4.854,1.5-.502.704-1.228,1.703-1.286,2.275s.804,1.659,1.195,2.078l1.796-1.655-.228,2.5ZM317.299,282.351c2.625-.943,3.046-4.258,1.248-5.878.666,2.359.018,4.033-1.248,5.878ZM74.588,277.944l-.481-1.012c-1.244,2.185-.269,4.379,1.53,5.669l-1.049-4.657ZM260.259,280.922l-2.401-2.324-1.065,1.797c1.272.668,2.18.856,3.466.527ZM299.787,284.037c1.829-1.236,3.399-3.047,3.588-5.172-5.321,4.379-11.277,6.731-17.839,6.149l-8.868-1.562c7.271,5.076,16.116,5.316,23.119.584ZM112.373,284.401c-8.006,2.288-15.843-.046-22.549-5.255.473,2.573,2.663,4.441,4.933,5.663,6.767,3.644,14.878,3.654,21.37-.419-1.286-.623-2.543-.335-3.755.011ZM127.56,288.947c2.707,1.517,4.135-.172,5.912-1.253,1.044-.317,2.31-.381,2.634-1.735l.367-1.535c.067-.278-.767-.828-1.006-1.007l3.761-2.738c.041-.588-1.592-1.253-1.965-.922s-.68,1.22-.94,1.838c-1.178.255-2.564.768-3.266,1.622l-.901,1.095c-.128.155,1.875,1.969.785,1.631l-.636-.197c-.282-.087-1.388-.282-1.46.006l-.264,1.054-3.02,2.142ZM274.37,283.932c-3.489.677-6.407-.381-9.43-2.616l1.671,3.49c-1.981-.82-1.529-3.046-3.718-3.455,1.883,4.011,4.703,7.58,8.458,9.942,12.563,7.902,26.693,8.18,38.121-2.003-2.701-1.37-4.608-3.371-5.804-6.314-8.215,7.993-20.354,7.567-29.298.955ZM83.733,289.378c5.488,4.772,11.71,7.264,18.399,8.129,12.994-.395,22.444-4.639,29.698-15.487l-5.504.923c-2.507.42-4.624,2.542-7.553,1.791-9.145,6.31-21.194,5.606-29.343-1.723-1.173,3.096-3.208,4.742-5.697,6.368ZM262.943,286.737c.424-.612.783-.988.685-1.181l-.515-1.013c-.318-.626-.83-2.048-1.45-2.196l-5.346-.365,2.643,2.004c-.553,1.795.919,3.352,2.899,3.607,1.101,1.437,2.621,2.369,4.758,1.475-.788-1.374-2.124-2.214-3.672-2.33ZM88.365,294.769l-2.918-2.02c-1.867,1.283.36-1.142-3.15-2.667l-3.295.454-.007,3.926c1.402-.369,3.153-.351,3.769,1.145,1.992.46,3.621.365,5.6-.839ZM314.743,293.942l-.597-3.469-3.342-.524c-1.711,1.775-3.008,2.897-5.239,4.39.502.538,1.871,1.276,2.81,1.405.983.135,2.052-.778,2.958-1.463l3.41-.339ZM121.994,297.615l2.469.364-.214-2.236c.417-1.096.667-2.599-.352-3.551l-2.089,1.92c-1.302.509-2.629,1.21-3.647,1.939l-3.533.743c1.115,1.509,2.455,2.206,3.928,2.275.965.045,2.49-1.031,3.437-1.454ZM273.894,298.284c1.874.987,4.592.007,5.568-1.612-1.072-.181-2.236-.437-2.98-.891l-5.547-3.386c-1.469.897-.964,2.431-.857,3.725l.162,1.946c1.624-.528,2.384-.45,3.654.219ZM95.575,304.84c-1.09-1.93-1.719-3.546-1.7-5.259l1.298-2.151-4.88-1.686c-3.928,3.568,1.991,6.111.245,10.343,1.641.862,3.956.083,5.038-1.246ZM295.051,310.287l2.836-3.784-1.067-2.17,2.448-3.72c.429.475.483,1.691.095,2.281l-1.069,1.626c1.57.998,3,1.611,4.918,2-.824-2.334-.681-4.085.86-5.839,1.336-1.52.694-4.66-1.018-4.982l-4.811,1.582c-.018.348-.094,1.381-.25,1.253l-.857-.703-1.366,2.066-2.13,2.92-5.028-4.253c-1.206,1.894-.31,3.309.852,4.553l2.313,2.477c-.185.68-.215,2.238.316,2.611l2.959,2.083ZM290.371,305.531c-.206-.099-1.069-.499-1.166-.704l-2.304-4.898c-.115-.244.174-1.345-.065-1.437l-1.067-.409c-.357-.137-1.56-.431-1.729-.089l-.811,1.64-.799-2.523c-2.018,1.77-1.134,4.092.469,5.542,1.392,1.259,2.114,2.227,3.234,3.877l-.272-3.358c.348-.295,1.721,1.059,1.783,1.903.079,1.067-.894,1.553-2.253,2.301,1.748,1.355,5.233-1.724,4.98-1.846ZM105.02,303.13c.824-.795,1.78-2.603,1.841-3.693-.07-.315-1.256-.742-1.483-.488l-.949,1.065-3.973,3.048-2.664-3.853c-.23-.333-.483-1.317-.848-1.393s-1.049.415-1.415.881c-.731.932-.51,3.133.321,4.021,1.342,1.434,1.51,2.614.714,4.516l2.737,3.086c1.127-.649,2.873-1.86,3.556-2.662.281-.33-.433-1.79-.595-1.868l2.756-2.659ZM108.377,308.283c.121-2.565,1.107-3.275,2.372-4.476,2.247-1.345,2.998-4.167,1.556-6.115l-4.424.777c.1,3.332-2.435,4.31-3.53,7.803.794,1.253,2.769,2.231,4.025,2.012ZM293.309,301.369l2.184-3.099-4.775.494,2.591,2.605ZM103.754,298.893l-4.767-.37,2.042,2.85,2.725-2.479ZM328.731,338.878c.535-.997,1.428-1.929,2.285-2.537-1.18,3.844-3.596,6.726-6.322,9.554-2.919,3.027-6.389,5.149-9.715,7.669-1.94,1.469-4.062,2.057-6.749,2.541l-.077,3.19,6.137-1.395c8.882-2.019,14.892-8.811,18.232-17.095,2.251-5.583,5.796-10.388,10.836-13.904-1.733-.282-3.934.475-5.396,1.89l-4.988,4.826c.621-1.752,1.167-2.407,2.279-4.174-.379-.081-1.671-.13-2.125.087-.378.181-.571.993-.837,1.544-4.696,9.748-13.632,18.728-24.581,20.776.087.771.358,1.882.66,2.521,8.102-1.866,16.489-8.28,20.36-15.492ZM327.973,371.478c-1.131-1.867-1.357-3.338-.63-4.844.551-1.142,1.828-1.879,3.452-2.252-.027-5.641,2.284-10.568,4.777-15.459.943-1.849.706-4.455,2.937-5.596l-1.577,6.132c-1.878,4.982-4.118,9.618-3.994,15.186,10.036-1.253,16.365,5.672,25.882,7.481l5.244-8.495c6.177-10.007,7.852-23.57-.881-32.081-3.604-3.512-8.402-5.129-13.538-4.557-4.366.486-8.522,3.201-11.345,7.183l-6.156,10.904c-5.237,9.277-12.321,14.168-22.91,15.569,2.82,2.728,6.832,3.286,10.388,2.179l6.692-3.276c-4.318,5.188-11.9,7.082-17.904,2.501.257,8.474,3.35,18.465,9.973,23.574,4.37-1.642,8.771-2.888,8.24-6.541-1.328-1.216-2.142-2.762-1.722-4.514.311-1.295,1.739-2.336,3.072-3.094ZM66.601,371.933c1.126.959,2.248,2.035,2.38,2.959.411,2.89-1.527,3.829-2.067,5.232-.762,1.978,5.065,4.451,8.642,5.552,1.731.014,2.313-2.194,3.053-3.043,1.212-1.392,2.409-2.607,3.341-4.277,2.723-4.882,3.865-10.439,4.371-15.907-6.37,4.517-14.005,2.297-18.355-3.162l4.991,2.914c3.698,2.16,8.586,1.878,12.127-1.064-10.236-1.631-18.503-7.703-22.708-16.916-1.901-4.165-3.888-8.034-6.765-11.512-3.872-4.679-9.695-6.586-15.586-4.883-3.99,1.154-7.49,3.68-9.664,7.302-6.058,10.091-3.037,21.477,2.499,31.438l2.949,5.305c4.663-.57,8.845-2.047,12.953-4.232,4.144-2.205,8.664-2.989,13.183-2.811-.415-8.405-3.711-15.171-7.754-22.265,2.258,1.453,3.082,3.604,4.719,5.552l-.242-3.502c2.049,1.801,1.095,4.395,1.878,6.399,1.775,4.541,3.642,8.866,3.599,13.741,1.68.426,2.978,1.368,3.403,2.784.386,1.285-.432,3.126-.944,4.396ZM86.717,354.776l.164-2.754c-10.318-2.113-19.727-10.756-24.084-20.236-.666-1.45-.907-2.958-2.934-2.199l2.509,4.279-4.314-4.07c-1.568-1.479-3.431-2.81-5.841-2.52l4.082,3.45c5.572,6.029,6.928,13.559,10.98,18.539,4.641,5.704,11.409,9.247,18.754,10.242.556-.712.723-2.173.498-2.856l-4.658-1.145c-.889-1.571-1.99-2.152-3.519-3.469l8.364,2.738ZM288.509,359.406l.061-3.026c-4.569-.054-8.557-1.477-12.14-4.251,4.242,1.326,7.821,2.456,12.139,2.585.182-.88.293-1.72.289-2.325-8.211-1.196-15.742-4.347-21.936-9.649-2.403-2.056-3.968-4.532-4.66-7.61-3.875,2.523,2.671,7.116,6.066,11.745-5.819-2.571-7.575-10.325-10.572-6.553,5.514,3.328,7.595,8.545,12.115,12.289,5.282,4.375,11.875,6.475,18.638,6.795ZM129.869,347.473c2.083-2.862,4.303-4.944,7.318-6.961-2.805-3.678-5,3.731-10.173,6.101l5.804-6.597c1.185-1.347,1.526-3.352-.082-4.754-2.862,10.079-16.484,16.188-26.873,17.404-.027.833.125,1.961.372,2.721l8.612-1.289c-2.826,1.923-5.401,2.596-8.816,2.74l.063,3.099c10.179-1.032,17.737-4.168,23.774-12.463ZM269.821,361.695c6.266,2.61,11.893,4.238,17.396-.466-9.849-1.449-16.974-4.726-22.956-12.547-3.614-4.724-9.155-9.253-14.853-8.015,1.258,1.591,1.988,2.472,2.753,4.029l-3.856-3.331c-2.229-1.926-5.068-3.278-8.175-2.589,4.358,1.916,7.306,4.749,9.831,8.443l4.835,9.727,3.234,6.751c1.317.452,3.213,1.156,3.968,2.082,1.045,1.282.867,3.113.91,4.615,1.065.685,2.704,1.768,3.191,2.856.675,1.508.164,2.892-.388,4.555l4.447,4.037c2.378,2.159,5.474,3.868,8.924,3.944,6.867-5.776,9.121-14.63,9.422-23.484-5.877,4.637-13.444,3.805-18.681-.607ZM115.077,386.523c5.797-1.246,10.829-4.354,14.465-8.829-.879-1.322-1.166-3.265-.469-4.529.514-.933,2.063-1.917,3.202-2.525-.18-1.61-.412-3.542.763-4.842.935-1.035,2.686-1.676,4.124-2.027l3.768-7.291,3.257-7.168c2.189-4.818,6.08-8.201,10.968-10.496-4.958-.504-8.543,2.256-12.143,5.536.504-1.243,1.407-2.258,2.549-3.526-5.328-1.225-11.275,3.062-14.453,7.463-5.423,8.172-14.093,11.977-23.841,13.274,4.924,3.888,10.584,3.552,16.226,1.322-5.095,4.108-11.85,3.598-17.358-.171-.138,8.916,2.386,17.719,8.945,23.809ZM151.954,369.429l10.44,6.715c4.458-3.157,8.279-6.227,11.378-10.557,3.764-5.26,5.023-12.223,1.948-18.114-3.928-7.524-13.2-10.249-20.843-6.492-5.157,2.535-8.603,7.39-10.74,12.472,1.614-.964,2.579-1.722,3.834-1.589-3.894,3.966-7.168,7.615-8.736,12.824,4.509.448,8.672,2.138,12.719,4.742ZM256.189,364.719c-1.873-6.018-5.625-9.666-9.659-13.881,1.741.427,3.023,1.382,4.693,2.471-3.992-10.206-13.893-17.416-24.751-12.644-6.001,2.638-9.424,8.592-9.149,15.228.382,9.253,7.778,15.046,15.263,20.117,3.08-1.035,5.712-2.47,8.22-4.426,4.585-3.577,9.621-6.101,15.383-6.865ZM306.867,383.774c-.833-2.827-1.634-5.141-1.942-8.098l3.128,6.967c.77.827,3.439.343,4.291-.762-3.529-5.654-5.143-11.859-5.691-18.613l-.927-11.417c-.042-.522-.862-1.324-1.269-1.478-.326-.123-1.205.167-1.511.363.194,2.15.386,4.217-.179,6.59l-1.227-5.362c-.259-1.132-1.791-2.082-2.864-2.249-.864-.134-2.897.442-3.092,1.459l-1.469,7.65-.372-8.083c-.937-.697-2.749.364-2.853,1.679l-.735,9.265c-.102,7.167-1.349,13.982-5.239,20.163,1.032,1.211,3.132,2,4.915,1.278l2.75-7.5c-.002,2.944-.841,5.371-1.645,8.122,3.967,3.981,12.926,3.791,15.93.027ZM103.601,384.686c-.888-3.6-1.809-6.299-1.732-9.821l2.643,8.563c1.66.364,3.398.023,4.717-1.067-3.251-5.846-4.662-12.217-4.871-19.011l-.299-9.724c-.051-1.642-1.604-3.327-3.18-2.687.084,2.393.472,4.912-.081,7.107-.573-2.431-.622-4.578-1.734-6.605-1.019-1.857-5.253-2.079-5.701.028l-1.479,6.954-.33-6.868c-.025-.515-1.04-1.25-1.487-1.077-.372.144-1.119.885-1.162,1.378l-1.025,11.716c-.587,6.709-2.209,12.911-6.116,18.53.518.656,1.536,1.004,2.308,1.033l2.474.095,3.1-7.938c-.036,3.004-1.064,5.685-1.979,8.64,3.361,3.916,11.139,3.924,15.933.754ZM149.654,381.744l9.031.167-5.976-2.504,2.72-.66c1.781,1.065,3.887,2.136,6.043,2.136,1.777,0,3.089-1.956,2.371-3.323-1.529-.102-3.644-.404-5.1-1.386l-8.229-5.555c-6.308-4.258-17.476-7.203-16.295-.67,4.74-.282,10.185,1.55,13.856,4.518-1.491-.109-2.274-.351-3.586-.718l2.28,2.079c-1.043-.068-1.839-.233-2.49-.609-3.52-2.03-7.278-3.349-11.291-2.785-1.702.239-2.864,2.275-1.863,3.529,7.014-.989,12.451,2.552,18.529,5.78ZM264.34,375.659c.435-5.315-6.935-3.64-12.182-1.039l-5.209,2.583,3.116-3.006-4.331,1.207c4.092-3.335,10.071-5.637,15.229-5.66.692-7.301-12.111-1.983-18.179,2.586-3.429,2.582-8.529,6.144-11.825,5.266-.684,1.262.283,3.204,2.053,3.263,3.726.124,5.786-1.914,8.389-.831l-3.565,1.42c2.695-.078,5.13.16,7.65.523l9.912-4.923c2.8-1.391,5.866-1.42,8.943-1.388ZM347.373,380.499c2.357.727,4.999-1.433,7.499.236.561.374,2.335-.703,2.153-1.49-3.404.012-6.99-.448-9.58-3.056l7.904,2.211c1.454-2.221,3.859-.528,5.144-2.343.338-.477.327-1.886.089-2.295l-2.574-.07c-4.844-.784-8.995-2.809-13.248-5.015-5.061-2.625-14.784-3.56-15.658-.552-.186.639.346,2.306.963,2.267,4.069-.259,7.914.314,11.575,1.692,1.838.692,3.332,1.043,4.871,2.49l-4.421-.848,3.499,2.407-8.516-2.729c-3.289-1.054-8.845-.84-9.823,1.182-.27.557-.018,2.133.301,2.566,2.881-.715,5.25-.655,8.063-.284l11.759,3.63ZM50.252,375.203l-.317-1.472c-.032-.148.572-.487.728-.535l7.901-2.411,5.854-.146c1.156-.029,1.31-3.262.048-3.574-5.975-1.478-11.503.439-16.768,3.224-3.373,1.784-10.079,3.906-13.6,3.246-.553.193-.592,2.013-.147,2.527,1.522,1.755,3.723.262,5.236,2.273,3.796-.281,7.698-1.624,11.065-3.132ZM47.936,380.735c6.142-2.532,11.889-4.717,18.14-3.261.622-.412.904-2.081.476-2.711-1.918-2.83-9.292-1.673-13.437.188l-6.823,3.064c-2.991,1.343-6.097,1.415-9.16.675-.409,2.876,4.712-.328,10.803,2.045ZM228.864,391.87c-.201.6-.642,1.656-1.092,1.566-.411-.083-1.484-.298-1.481-.297l2.217-1.139-3.85-.991c-1.619,1.015-1.676,3.057-.914,4.61.626,1.277,2.569,2.069,4.2,1.892l3.901-.423c1.459-.158,2.049-.071,3.462-.036l10.121.25,7.87-.309,14.975.368c3.099.076,5.597-1.712,5.649-5.031.049-3.094-1.546-5.868-3.987-7.847l-5.013-4.065-1.997-2.96c-5.285-.011-9.62,2.241-13.87,4.905l2.715.718c-2.852,1.694-5.398.878-8.265.431-7.109-1.109-12.997,2.528-18.033,1.688l-2.982-.497c-2.267-.378-4.483,1.703-4.487,4.035,2.493-.85,5.041-1.289,7.634-.347l-6.283,1.07-1.758,2.953c-.12.283,1.253,1.122,1.42.771l.677-1.419c.321-.672,1.986-.779,2.676-1.123,1.892-.942,3.183-1.568,5.062.019l4.451-.785-3.02,1.991ZM171.829,397.342c1.798.349,3.293-1.073,3.286-2.706l-1.692-1.945c.886-.488,2.644.294,2.699,1.301.072,1.333-.252,2.266-.695,3.446.6-.103,1.79-.734,2.16-1.307.374-.579-.086-1.9-.536-2.442l.601-1.099c.282-.515-1.587-1.127-.878-3.22l-6.735-1.264,7.062-.341c.276-.141.329-1.797-.083-2.218-1.791-1.831-5.359-1.075-7.628-.912l-4.964.356c-6.428-1.561-12.853-2.214-19.412-.847-.055-.463-.09-1.119.144-1.216l1.487-.614c-4.912-3.216-14.379-7.649-16.229-1.822l-4.617,3.542c-2.569,1.971-4.257,4.694-4.602,7.975-.185,1.755.743,5.045,2.829,5.042l14.29-.023c2.706-.004,4.942.118,7.662.13l12.971.054c1.279.005,2.28-.004,3.534.065l4.95.273c1.517.084,2.973-.983,3.607-2.114.694-1.237.796-3.218-.467-4.201-3.172-.434-4.598,1.019-3.955,1.318l1.321.616-1.508.078c-.531.027-.411-1.54-2.398-2.8,3.461.446,5.366-1.451,7.39-.265,2.248,1.317,2.089,4.287.408,7.16ZM367.143,392.032c.832.231,1.964,1.059,2.299,1.746.408.837.14,2.218-.307,3.43.598.147,2.243.208,3.015-.162.576-.276,1.061-2.052.698-2.568l-1.705-2.426c.901.347,2.063,1.213,2.551,1.988.581.922.276,2.167.006,3.29,1.331.241,2.603-.595,2.719-1.824.214-2.258-2.794-2.772-2.432-3.268l.564-.774c.794-1.089,1.322-3.516-.457-3.904-1.525-.332-2.994-.623-4.2-1.684,2.12-1.383,3.344-.246,4.781,1.377.428-.458,1.06-1.476,1.059-2.016s-.847-1.53-1.397-1.761c-1.592-.668-3.284-.169-4.934.727-4.894-7.755-11.801-.709-15.03-1.819-6.02-2.069-8.846,2.355-12.397.82l2.415-1.496c-3.989-1.92-8.406-3.321-12.998-3.486-3.995-.144-1.614,3.393-4.879,6.84-3.348,3.534-5.132,9.275-1.674,12.189l11.928-.189,4.606-.031c3.482-.024,7.163.524,10.528-.027,1.447-.237,1.838-.563,3.444.163.952.431,2.997.412,4.243.402,2.144-.017,3.503-1.444,3.54-3.299.033-1.636-1.17-3.422-3.061-3.162-.397.055-1.107.443-1.337.683s.276,1.204.602,1.14l1.581-.311c.279.625-.73,1.347-1.526,1.345-.558-.002-1.59-.534-1.63-1.081l-.197-2.679,3.543-.478c1.191-.161,2.789,1.482,3.235,2.511.598,1.379.368,3.385-.452,4.646.992.53,3.039.689,3.76-.012,1.67-1.625.661-3.035-.504-4.842ZM28.327,396.952c-1.429-1.767-1.059-3.505.104-5.193,1.467-2.13,4.008-3.291,6.392-1.611l-.082,2.988c-.026.54-1.466.923-1.959.709-.607-.264-1.391-1.167-1.378-1.735l2.282.85c.31.115.679-1.332.388-1.52-.218-.141-.686-.39-.982-.467-1.791-.466-3.224.863-3.712,2.398-.377,1.186.112,3.266,1.539,3.816,2.611,1.007,5.414.29,7.701-.995.229.2,1.232,1.06,1.636,1.055l9.657-.115c2.028-.024,3.094-.193,4.965-.16l12.599.225c1.552.028,3.51-4.444.207-9.784-.923-1.492-2.287-3.339-2.57-4.939l-.664-3.75c-5.207-.483-9.461,1.041-13.854,3.014l1.841,1.007c-1.245.926-2.269.807-3.484.288-3.841-1.64-7.627-1.886-11.599-.621l-3.839-1.85c-3.347-1.613-7.006-.835-9.306,2.098l-5.534-.365c-1.714,1.04-1.407,3.116-.3,4.665-1.198,1.528-1.146,3.094.292,4.706l-1.954,1.789c-.672.616-.9,2.211-.491,2.892.557.926,2.199,1.29,2.891.887-.577-1.319-.864-2.301-.391-3.295.295-.621,1.515-1.48,2.07-1.487-.996,1.579-1.709,2.581-1.143,3.783.467.992,1.961,1.267,3.491,1.055-.709-1.249-1.005-2.854.016-4.153l2.239-1.909c-.986,1.983-2.536,3.237-1.376,5.058.822,1.29,2.911,1.448,4.309.668ZM84.709,387.444l1.009-2.648-4.883-1.366-2.483,2.714c1.762,1.95,4.253,2.496,6.356,1.301ZM288.466,387.584l.647-2.898c-2.045-.105-3.013-.385-4.935-1.406l-2.456,2.911c1.888,2.089,4.185,2.288,6.744,1.394ZM313.111,388.161l3.089-1.884-2.948-3.152c-1.794.824-2.835,1.053-4.78,1.207l1.362,3.16,3.278.67ZM96.571,392.658l6.824-1.908c1.189-.332,1.806-1.667,1.797-2.922l1.643.607,3.023.016,2.721-1.566-2.416-3.063-4.993,1.274c.36.487.703,2.184.298,2.186l-1.937-1.116c-5.096,3.072-11.262,2.717-16.535-.391-.231.16-1.151,1.905-1.037,2.543.562,3.139,8.944,4.807,10.612,4.34ZM300.67,392.254l5.876-1.465,2.436-1.921-1.384-3.558c-5.132,3.358-11.203,3.526-16.625.504-.838-.467-1.776,1.521-1.49,2.219.796,1.943,1.796,2.68,3.708,3.236,2.325.676,4.942,1.618,7.479.986ZM81.48,393.825c-2.91.445-5.637-.463-7.466-2.777-.808-1.021-.962-2.18-.577-3.535l-4.21-1.729c2.214,3.515,3.558,7.298,1.728,11.273l13.02-.044-2.495-3.189ZM312.656,393.869l-2.54,3.212,11.453-.085c-1.339-3.682-.865-7.351,1.479-10.396l-2.543.848c1.645,3.51-2.086,5.067-6.195,6.641l-1.653-.219ZM82.884,391.214l.622-2.125c-2.313,1.003-4.123.015-5.725-1.413-.681-.22-2.24.632-2.346,1.372,1.236,2.72,4.789,3.884,7.449,2.165ZM285.176,393.552c-2.759.559-5.164-.18-6.966-1.995-.975-.983-1.285-2.164-.984-3.604l-2.351-.564c1.852,3.165,2.037,6.544-.056,9.657l13.018.03c-1.101-1.075-1.815-2.148-2.661-3.523ZM286.897,389.383c-2.63.414-4.386-.358-5.924-1.939-.453.083-1.368.703-1.538,1.15-.418,1.095,1.832,3.887,4.779,3.511,1.374-.175,2.895-.756,2.683-2.722ZM312.171,391.849c2.51.768,5.438-.847,6.269-2.711.19-.427-.391-1.455-.763-1.544-1.657-.396-2.374,2.413-6.685,1.455l1.18,2.8ZM115.11,389.535l-1.82-1.679c-1.896,1.691-2.899,2.285-5.661,2.021l.408,1.877c.258,1.186,4.798,1.611,7.073-2.218ZM107.199,397.029l12.94-.012c-1.91-3.047-1.729-6.024-.436-9.116l-2.617.725c.202,2.059-.519,3.213-1.953,4.298-1.793,1.359-3.931,1.846-5.982,1.278l-1.952,2.825ZM310.464,393.693c.469-1.503.254-2.696-1.038-3.85-1.076,2.633-3.106,2.213-4.828,2.813-3.964,1.379-7.416,1.662-11.379.106-1.679-.659-3.447-.807-4.529-2.931-.906.646-1.717,2.444-1.41,3.567.405,1.478,1.812,2.113,3.412,2.097l2.463-.024c3.02,2.165,8.305,2.017,11.256.098.906-.589,5.192.888,6.055-1.876ZM107.234,393.82c.257-1.099-.628-2.492-1.54-3.079-1.134,1.508-2.548,1.49-3.962,2.053-4.107,1.634-7.925,1.626-12.015.072-1.736-.659-3.194-1.019-4.702-2.566-.965.8-1.747,2.614-1.207,3.628,1.568,2.945,3.797.955,7.288,2.475,2.928,1.275,6.237,1.121,9.172-.081,3.276-1.341,6.283.411,6.965-2.501ZM222.943,397.482c-1.038-2.458-1.088-3.146-1.327-5.722-2.019,1.901-1.854,4.512-.74,5.089.451.234,1.612.545,2.068.633ZM218.83,393.665c-.466-.051-1.449,1.357-1.171,2.176.254.748,1.554,1.551,2.278,1.648l-1.107-3.823ZM386.041,405.612l.428-2.805c-.237-2.183-1.439-3.303-3.726-3.303l-372.213-.004c-1.711,0-3.39.852-3.369,2.531l.045,3.606,104.555-.058,274.28.032ZM206.961,435.694l33.466.004,25.761.047,24.902-.024,22.495.013,78.366-.063.112-4.315c.015-.566-1.177-1.473-1.664-1.53l-4.025-.169-.089-22.059H7.348s-.56,22.211-.56,22.211c-1.168-.119-3.456-.084-3.794.744-.677,1.661-.494,3.55-.291,5.28l24.777-.106,63.009.017,13.541-.019,15.575.009,12.003-.01,43.62-.037,31.733.005Z"/>
        <path d="M85.956,318.215c-2.854,2.187-6.032,2.184-9.136,1.738l2.894-.24,6.242-1.497Z"/>
        <path d="M324.731,315.224c-4.592,4.975-11.759,5.702-17.198,2.032,6.075,1.637,11.869,1.805,16.501-2.444l.697.412Z"/>
        <path d="M201.23,233.481c-30.706.111-56.982-9.915-79.533-30.039-10.591-9.45-19.039-20.77-25.511-33.413-16.522-32.276-14.583-72.008,2.585-103.627,13.513-24.888,35.638-43.729,62.372-53.088,12.088-4.232,24.476-6.395,37.316-6.774,8.046-.237,15.713.498,23.596,1.934,31.658,5.768,59.243,24.239,76.534,51.377,12.973,20.363,19.914,46.601,16.705,70.679-1.628,12.215-4.623,23.944-9.626,35.259-18.335,41.471-58.791,67.526-104.438,67.691ZM280.282,198.478c12.593-12.575,21.889-28.03,27.207-44.948,2.655-8.446,4.58-16.556,5.358-25.325,3.501-39.452-16.112-78.062-48.856-99.8-21.908-14.543-48.041-21.094-74.2-18.508-15.59,1.541-30.345,5.933-44.028,13.33-27.112,14.657-46.667,39.943-54.469,69.77-4.809,18.387-5.196,37.67-.339,56.114,8.615,32.714,33.717,60.17,64.777,73.031,42.279,17.507,92.193,8.644,124.55-23.665Z"/>
        <path d="M282.949,248.482c2.112-1.952,5.441-1.503,7.232.796l2.877,3.695c-3.151-.595-2.775-6.111-8.75-4.421,1.668.305,3.072.844,3.683,1.88.793,1.344.216,2.761-1.058,3.943l1.862.875-3.698.365c1.45,1.143,3.114,1.611,5.247,2.06-2.749.865-5.425-.242-7.245-2.641-2.133-2.813-4.81-2.578-4.802-4.438.003-.613.821-1.54,1.191-2.032l.747-2.518c-.987-1.822-.634-4.505,1.669-5.354l-.438,1.605c-.086.314.716,1.006,1.004.858,1.034-.533,3.183-1.69,4.384-1.784l4.061-.318c-1.133,1.697-2.364,1.951-4.114,1.493-1.187.353-2.905,1.431-4.209,2.341l-1.787-1.548c-.16.645.061,1.785.672,2.373,1.881,1.811,5.965-3.372,9.672,1.059-2.25-.749-3.926-1.374-6.04-.151-2.158,1.249-4.644-.703-4.464,1.106.038.378.479,1.094.83,1.239s1.136-.17,1.474-.482ZM284.927,254.076c1.161.073,2.257-.692,2.463-1.841.18-1-.578-2.083-1.662-2.482-.855-.314-2.059.365-2.139,1.379.694-.374,1.585-.835,2.073-.602s1.13,1.541.762,1.937l-1.498,1.609Z"/>
        <path d="M300.026,248.215l1.512-1.713c-2.861.291-5.712.043-7.175-1.822-1.024-1.305-2.216-1.781-3.859-2.142.779-.94,2.985-1.188,3.641-.325,2.294,3.017,5.476,4.238,9.21,2.281-.318,2.919-2.996,6.699-5.263,5.912l1.934-2.192Z"/>
        <path d="M273.009,269.872c-3.383,1.149-6.19-.86-9.356-1.631-1.353-.33-2.952-.19-2.9-2.061.945.556,1.796.845,2.859,1.021l9.397,2.671Z"/>
        <path d="M273.815,260.888l1.059-.751c2.08-1.475-1.507-.322-4.188-.536l4.08-2.006c.461-.226,1.298-.365,1.757-.293s1.176,1.432.872,1.811c-.689.857-2.551,1.797-3.579,1.776Z"/>
        <path d="M293.65,237.776c-2.83-.675-5.424-.825-8.339.25l.603-.961c.153-.244-.076-.773-.226-1.219l4.178.334c1.341-.035,2.904-.147,3.784,1.596Z"/>
        <path d="M301.753,267.055l-2.032-2c2.376-.901,2.998-2.789,2.677-5.446,1.747,1.16.983,4.004-.677,5.2l.032,2.246Z"/>
        <path d="M270.805,273.089l-4.833-1.076c-1.148-.256-2.237-1.696-4.192-.817,1.353-2.267,3.195-.294,4.546,0,1.86.404,3.432.513,4.479,1.894Z"/>
        <path d="M269.877,247.229c-.576-2.321-1.212-3.937-3.038-5.438,2.613.123,4.008,3.015,3.038,5.438Z"/>
        <path d="M110.098,247.249c-1.936-1.144-4.228-1.645-6.663-1.092,3.943-3.569,6.891,1.821,9.827-.291,1.346-.968,1.428-2.03,1.547-3.847.64,1.184.587,2.305-.04,3.709l.014,3.143,1.467,1.081-1.055,2.779c.741.15,2.01.506,2.656.79-2.246.442-3.491.288-4.551,1.848-.641.943-.748,2.553-.227,3.426.605,1.013,1.843,1.419,3.247,1.825-1.289.452-2.753.211-3.985-.974l-2.905.983c.439-.706,1.17-1.281,2.126-1.82-.493-2.028.235-3.818,1.793-5.565-.958.128-1.905.806-2.506,1.648-1.532,2.148-4.006,3.93-6.77,2.928,1.835-.493,3.173-.789,4.545-1.838l-3.654-.292c.163-.11.983-.626.824-.843l-.843-1.15c-.539-.735-.303-2.773.509-3.495.877-.78,2.288-1.17,3.944-1.642-5.759-1.604-5.951,5.142-9.318,4.717,3.52-2.727,4.238-7.09,9.538-5.733l.48-.295ZM110.018,247.724c1.734.957,2.783,1.76,2.774,4.411l2.413-1.509-2.158-1.133.468-2.252-2.918.48-.579.004ZM108.445,250.08c-1.505-.489-3.143.88-3.195,2.452-.02.613.599,1.777,1.188,1.888.757.143,2.093.156,2.483.089-1.237-.809-2.063-1.401-2.163-2.289-.105-.926.907-1.816,1.687-2.14Z"/>
        <path d="M93.426,246.731c.769.857,1.406,1.748,1.745,2.721l.391,1.122c.081.233-1.146.222-1.342.047-1.02-.91-2.255-3.123-3.025-4.523l-.534-.97c-.807-1.467,4.165,1.17,5.47.248l5.706-4.029c1.487-.052,4.272-.631,5.587-.068l5.977,2.559-1.228,1.164-3.569-2.318-6.097-.022-5.04,3.909-4.04.159Z"/>
        <path d="M123.339,259.6c-1.341.631-3.161-.089-4.512-.85-.261.981-.625,1.458-1.155,1.385-.874-.121-1.848-1.251-1.545-1.724,1.84-2.869,3.989-.02,7.212,1.189Z"/>
        <path d="M126.057,272.95l-5.377.843c1.152-1.574,3.208-1.133,4.704-1.58l6.202-1.85.368.589c-1.678.618-3.871,1.681-5.897,1.998Z"/>
        <path d="M91.266,267.045l.319-1.808c-2.266-1.337-3.145-4.342-1.091-6.163-.072,1.407-.227,2.662.189,3.786.395,1.066,1.608,1.768,2.985,2.46l-2.402,1.726Z"/>
        <path d="M286.428,290.553c-4.798.064-10.252-1.692-13.646-5.789,4.322,2.724,8.242,4.753,13.646,5.789Z"/>
        <path d="M78.852,244.346c2.64-3.883,6.51-6.704,10.675-8.316l-10.675,8.316Z"/>
        <path d="M71.035,347.884c-2.603-2.414-4.586-5.534-5.658-9.302,2.346,2.708,3.958,5.762,5.658,9.302Z"/>
        <path d="M93.225,302.876l.228,1.687c.058.427-1.281.785-1.474.577l-.069-3.205c-.006-.257.83-.804.903-.544l.414,1.485Z"/>
        <path d="M224.988,116.459c.015,13.849-11.185,24.144-24.196,24.245-13.027.101-24.425-10.091-24.664-23.574-.268-15.104,13.28-26.552,28.221-24.378,11.472,1.669,20.626,11.628,20.638,23.707Z"/>
      </g>
    </g>
  </g>
</svg>