<?xml version="1.0" encoding="UTF-8"?>
<svg id="b" data-name="Layer 2" xmlns="http://www.w3.org/2000/svg" width="376.724" height="352.529" viewBox="0 0 376.724 352.529">
  <g id="c" data-name="Layer 1">
    <g id="d" data-name="N1Awgd">
      <g>
        <path d="M236.016,308.932l-47.205,43.597-36.937-34.228-39.892-37.301L0,175.022c18.418-18.434,36.965-36.507,56.214-54.181l73.131-67.15L188.548,0l42.4,37.899c19.626,17.543,38.938,35.338,57.954,53.58l60.037,57.442,27.786,26.754-15.887,15.545-101.458,95.928-23.363,21.784ZM221.828,315.04l52.943-49.65,94.592-89.76-43.89-42.145-37.109-35.168-58.824-54.436-28.85-25.864-12.017-10.709-24.779,22.367-60.592,55.129-35.46,32.607c-20.506,18.857-40.316,37.701-60.291,57.484l147.57,139.07,33.954,31.763,32.752-30.689Z"/>
        <path d="M139.489,257.603c6.219-13.98,8.672-29.042,10.934-44.11-15.22,3.289-32.771,7.416-45.784,15.394-2.446,1.499-3.907,3.596-4.557,6.419-.48,2.88-.213,5.799.504,8.703,1.125,4.922,3.554,9.012,5.712,13.823l-67.707-63.686-20.472-19.293,58.585-55.205,21.259-19.797,9.397-8.555c-1.847,3.518-3.777,6.639-5.197,10.279-2.904,7.442-4.338,16.467,2.988,20.376,4.971,3.02,10.123,5.175,15.648,7.182,9.584,3.482,19.208,5.986,29.516,7.987-2.079-15.356-4.522-31.436-11.093-44.984-1.368-2.389-3.118-4.103-5.791-4.848-3.587-.987-7.279-1.13-11.013-.602-4.986.551-9.249,2.326-14.284,3.916l43.062-39.624,37.332-34.12,9.146,8.416,70.888,65.282c-4.787-1.604-9.032-3.246-13.847-3.885-3.867-.509-7.669-.463-11.34.661-2.673.724-4.432,2.437-5.83,4.814-6.51,13.58-8.982,29.601-11.048,44.978,13.525-2.685,26.342-6.238,38.674-11.771,3.303-1.482,6.366-3.062,9.061-5.397,4.323-3.745,2.667-13.892-.041-19.378l-4.425-8.966,43.658,41.305,45.037,42.682-25.752,24.278-40.838,38.783-40.653,38.275-62.129,58.641-42.62-39.915-37.903-35.656c8.959,3.298,19.339,6.278,27.673,1.913,1.23-1.175,2.469-2.554,3.252-4.314ZM215.294,266.189c1.256-.769,1.704-1.857,1.174-2.951l-8.838-18.234c-6.037-11.833-12.218-23.209-19.091-34.747,12.545.175,24.452,1.132,36.71,2.249-1.345-12.659-2.442-24.781-2.436-37.279l45.365,28.131c2.594,1.609,5.011,2.65,7.938,3.641,2.263-1.933,3.595-3.994,5.024-6.43,10.005-17.057,9.344-38.165-2.143-54.289-.743-1.043-1.838-2.139-2.862-2.807-2.372.558-4.187,1.318-6.296,2.272l-19.726,11.508-27.37,17.81c.218-12.616,1.056-24.493,2.55-36.956-12.152,1.065-24.129,2.148-36.794,2.346,8.317-14.085,15.705-27.992,22.589-42.541l4.746-11.216c-.454-.877-1.16-1.705-2.049-2.232-15.868-9.409-35.692-9.156-51.433.404-1.294.786-1.601,1.993-1.046,3.299,3.022,7.122,6.294,13.813,9.835,20.731,5.304,10.806,10.989,20.981,17.148,31.558-12.623-.24-24.515-1.215-36.743-2.311,1.252,12.461,2.343,24.347,2.506,36.819-14.054-9.763-27.885-18.858-42.664-26.968-3.08-1.69-5.895-3.094-9.154-4.238-1.297-.455-2.564-.027-3.475,1.123-11.076,13.977-13.474,33.041-6.432,49.462,1.812,4.224,3.83,8.018,6.81,11.467.753.872,1.718,1.133,2.826.87l7.331-3.662,44.791-27.897c-.2,12.678-1.256,24.969-2.509,37.423,12.507-1.147,24.24-2.181,36.671-2.289-7.122,11.772-13.476,23.453-19.668,35.597l-8.366,17.277c-.511,1.056-.17,2.225.848,2.85,16.643,10.223,37.471,10.472,54.233.207ZM269.203,259.327c5.525-8.989,12.603-24.302,2.94-30.434-5.043-3.198-10.325-5.46-16.02-7.503-9.724-3.489-19.518-5.884-29.683-7.908,1.42,10.978,3.313,21.175,6.148,31.43,1.763,5.23,4.387,14.821,8.213,17.047,7.5,4.364,20.185,1.353,28.402-2.631Z"/>
        <path d="M188.397,207.962l-32.959-32.827,26.694-26.524,6.377-6.087,32.883,32.633-32.996,32.805ZM188.483,189.302c7.025-4.625,13.226-9.366,19.413-14.826-6.221-5.609-12.545-10.4-19.505-14.857-6.982,4.399-13.291,9.222-19.399,14.848,6.189,5.51,12.464,10.343,19.491,14.835Z"/>
      </g>
    </g>
  </g>
</svg>