<?xml version="1.0" encoding="UTF-8"?>
<svg id="b" data-name="Layer 2" xmlns="http://www.w3.org/2000/svg" width="450.655" height="452.318" viewBox="0 0 450.655 452.318">
  <g id="c" data-name="Layer 1">
    <g id="d" data-name="qrL4VN">
      <g>
        <path d="M287.832,389.554l-35.939,36.225-26.239,26.538-21.811-22.021-96.038-96.175L0,226.268l30.039-30.234,109.485-109.859L225.385,0l20.177,20.681,96.098,96.098,89.83,89.789,19.165,19.219-27.126,27.259-63.241,63.729-72.457,72.78ZM244.343,112.152l20.874-21.019,19.146-19.483-47.357-47.527-11.628-11.877-25.42,25.842-33.465,33.502,58.953,59.763,18.896-19.202ZM75.592,162.899l88.779-.468-.281-88.437-40.716,40.837-47.782,48.068ZM375.206,162.389l-88.357-88.179-.016,88.115,88.374.064ZM225.439,317.935l30.307-30.586,30.481.452-.004-32.018,30.453-30.658-30.473-30.311.02-31.998-30.614.187-14.58-14.791-15.636-15.707-29.814,30.514-30.692-.136.097,31.976-30.437,30.555,30.277,30.275-.006,32.197,30.767-.365,3.526,3.734,26.331,26.682ZM378.305,286.029l60.152-60.349-60.602-60.607-60.037,60.183,50.378,50.515,10.108,10.258ZM72.727,286.49l60.562-61.29-60.06-59.95-38.355,38.402-22.507,22.599,60.359,60.239ZM164.249,288.493l-89.555.03,89.717,89.673-.162-89.703ZM375.971,288.527l-89.135-.028-.003,89.7,89.139-89.672ZM237.325,428.089l47.746-48.097-19.306-19.798-19.132-19.425-21.223-21.533-19.463,19.754-32.389,33.201-7.352,7.812,59.518,59.753,11.601-11.668Z"/>
        <polygon points="243.379 268.027 225.731 285.906 165.176 225.237 225.582 164.596 265.382 204.438 286.075 225.174 243.379 268.027"/>
      </g>
    </g>
  </g>
</svg>