<?xml version="1.0" encoding="UTF-8"?>
<svg id="b" data-name="Layer 2" xmlns="http://www.w3.org/2000/svg" width="608.668" height="154.278" viewBox="0 0 608.668 154.278">
  <g id="c" data-name="Layer 1">
    <g id="d" data-name="RTxBG9">
      <g>
        <path d="M463.943,14.359c-.107,1.417-.982,1.214-1.073-.003l-462.725-.002.125-4.34,607.974-.002.144,4.338-144.444.008Z"/>
        <polygon points="608.253 144.147 .256 144.146 .191 139.841 608.306 139.84 608.253 144.147"/>
        <polygon points="608.394 154.278 .282 154.273 .161 149.979 608.34 149.977 608.394 154.278"/>
        <path d="M608.668,3.763c-.204.157-.792.498-1.073.498L.259,4.257C.056,2.902.045,1.521.156.004l607.942-.004.57,3.763Z"/>
        <path d="M362.436,70.046l-2.463.061.004-25.876-2.248-3.648-7.378-9.787c-1.457-1.933-2.505-3.93-3.475-6.509l28.806-.036c-.588,3.167-2.384,5.796-4.415,8.346l-8.815,11.069-.016,26.38Z"/>
        <path d="M482.07,43.753l-.013,26.378-2.488-.01v-26.452s-7.862-10.486-7.862-10.486c-2.139-2.716-3.928-5.397-5.503-8.908l29.037-.004c-.715,2.707-1.745,4.787-3.281,6.726l-6.45,8.14-3.44,4.616Z"/>
        <path d="M124.93,70.032l-2.496.165-.006-26.588-7.865-10.628c-2.007-2.713-3.886-5.22-5.316-8.705l29.03-.003c-.917,3.015-2.257,5.284-4.003,7.482l-6.302,7.93-3.06,4.259.019,26.089Z"/>
        <path d="M240.598,70.023l-2.436.117.009-25.965c-.48-1.165-1.488-2.625-2.271-3.673l-8.117-10.87c-1.169-1.566-1.925-3.206-2.717-5.358l28.67-.009c-.351,1.761-1.009,3.58-2.149,5.065l-6.028,7.85-4.956,6.777-.005,26.065Z"/>
        <path d="M493.162,125.245c1.001,1.289,1.476,2.68,2.014,4.731l-28.835.031c.973-2.752,2.411-5.056,4.152-7.329l9.06-11.828.022-26.038,2.5-.007-.012,26.149,4.72,6.074,6.381,8.217Z"/>
        <path d="M138.145,129.954l-28.777.057c1.032-3.022,2.75-5.462,4.632-7.947l8.424-11.125.012-26.122,2.483-.034.011,26.075,9.155,11.704c1.623,2.218,3.118,3.922,4.059,7.392Z"/>
        <path d="M375.62,129.97l-28.668.042c.519-2.171,1.548-3.981,2.874-5.725l10.148-13.346v-26.11s2.473-.06,2.473-.06l-.007,26.139,9.058,11.504c1.767,2.283,3.312,4.316,4.121,7.555Z"/>
        <path d="M251.682,125.267c1.118,1.45,1.731,3.008,2.034,4.721l-28.596.008c.733-2.153,1.71-4.023,3.051-5.804l9.964-13.237.048-26.074,2.431-.103-.028,25.833,5.292,7.129,5.804,7.527Z"/>
        <path d="M600.486,70.019l-2.429.18-.009-26.014c-.261-.932-1.255-2.516-1.855-3.321l-7.507-10.056c-1.477-1.978-2.633-3.908-3.727-6.519l23.419-.045-.161,5.908c-.111,4.068-7.617,8.955-7.635,13.734l-.096,26.132Z"/>
        <path d="M604.274,117.39c3.818,4.485,4.513,5.76,4.05,12.59l-23.327.022c1.066-3.007,2.822-5.384,4.684-7.871l8.365-11.175.009-26.098,2.418-.071.05,25.504c.006,2.84,2.061,5.113,3.751,7.098Z"/>
        <path d="M310.355,35.216l-9.473-8.693-1.663,1.511-1.935-1.733-33.812,30.947-18.256,16.596-1.411-1.556,43.248-39.543,10.072-8.997,2.005,1.77,2.03-1.59,17.352,15.747,37.13,33.381c-.313.693-.713,1.32-1.208,1.916l-29.807-26.455-14.272-13.299Z"/>
        <polygon points="419.839 26.421 400.065 44.238 366.93 73.961 365.543 72.326 378.984 60.338 406.544 35.4 419.786 23.732 436.248 38.011 475.713 72.765 474.501 74.668 453.148 56.108 433.742 38.666 419.839 26.421"/>
        <path d="M243.895,82.945c.156-.559.552-1.085,1.212-1.736l31.154,28.402,21.142,18.865,1.915-1.49,1.639,1.407,18.102-16.283,35.587-31.789,1.207,1.781-29.148,25.995-25.568,22.825-1.966-1.463-1.816,1.634-28.347-25.146-25.112-23.002Z"/>
        <path d="M9.464,70.061l-2.314.067-.038-26.124c-.004-2.959-1.88-5.441-3.651-7.588C-.126,32.465-.204,29.481.125,24.282l19.843-.031c.108,3.664-1.361,6.821-3.616,9.669-2.479,3.13-4.734,6.225-6.866,9.661l-.021,26.481Z"/>
        <polygon points="383.818 99.318 365.417 82.787 366.929 81.308 397.679 109.013 420.043 128.577 443.851 108.078 474.802 80.894 476.095 82.608 465.742 91.658 449.87 105.744 420.015 131.144 393.691 108.319 383.818 99.318"/>
        <path d="M579.551,61.606l-39.9-35.341-52.809,47.53c-.643-.124-1.173-.771-1.483-1.559l40.702-36.66,13.678-11.978,39.151,34.476,16.138,14.282-1.452,1.61-14.024-12.36Z"/>
        <path d="M64.511,27.615l-1.716-.968L24.151,62.457l-11.573,10.557-1.511-1.455,14.417-13.212,27.618-25.598,9.852-9.017,1.196,1.293c.235.254,1.039-.64,1.487-1.206l9.958,9.124,43.396,39.433-1.292,1.699-40.813-36.947-11.208-10.437-1.167.923Z"/>
        <path d="M19.982,129.98l-19.902.019c-.006-2.395-.089-4.641.325-6.933.678-3.758,6.692-7.874,6.698-12.55l.037-25.638,2.304-.161.041,26.21c2.142,3.762,4.644,7.005,7.228,10.378,1.939,2.51,3.213,5.004,3.269,8.674Z"/>
        <polygon points="595.134 82.928 574.146 101.532 539.76 131.179 521.373 115.288 503.639 99.428 485.157 82.715 486.646 81.247 524.966 115.661 539.771 128.586 571.821 100.66 593.774 81.24 595.134 82.928"/>
        <path d="M44.189,114.094l-33.228-30.655,1.674-1.34,38.281,35.282,12.286,11.004c.39-.593.964-1.479,1.18-1.267l1.194,1.171,11.485-10.357,40.635-36.804,1.454,1.606-15.76,14.156-26.008,23.58-11.723,10.492-1.368-1.178c-.268-.231-.86.665-1.278,1.191l-18.825-16.879Z"/>
        <path d="M195.286,38.8l-13.746-12.566-34.144,31.372-17.833,16.231c-.538-.429-1.027-.95-1.423-1.543l43.029-39.36,10.413-9.347,11.002,9.862,20.712,19.053,21.81,19.849-1.444,1.56-38.376-35.111Z"/>
        <path d="M235.16,82.911l-29.464,26.826-24.05,21.356-17.218-15.156-36.298-33.078,1.309-1.675,39.726,36.205,12.504,11.154,24.222-21.897,27.819-25.265c.597.175,1.216.859,1.45,1.531Z"/>
        <path d="M297.673,70.293l-3.802-7.126c-1.659-3.779-2.311-7.69-1.62-11.818.911-4.506,2.703-8.634,5.475-12.312,4.465,6.683,7.172,13.846,4.728,21.401-1.276,3.478-2.701,6.437-4.78,9.854Z"/>
        <path d="M297.744,115.961c-5.616-7.844-7.863-16.592-3.192-25.392l3.169-5.949c3.744,6.283,6.738,12.425,5.273,19.444-1.016,4.187-2.459,7.918-5.25,11.897Z"/>
        <path d="M63.433,115.981c-2.074-2.702-3.429-5.77-4.584-9.018-1.702-4.787-1.372-9.665.475-14.371l4.067-8.004c3.739,6.644,6.776,12.389,5.209,19.791-1.021,4.062-2.483,7.684-5.166,11.602Z"/>
        <path d="M539.458,116.058c-4.952-7.291-7.492-15.198-4.143-23.416l4.126-8.063,4.13,8.133c1.772,4.492,1.905,9.156.523,13.794-1.147,3.26-2.442,6.132-4.637,9.551Z"/>
        <path d="M63.374,70.308c-1.787-2.996-3.178-5.84-4.518-9.036-1.144-3.419-1.484-6.875-.764-10.445.953-4.326,2.655-8.242,5.31-11.786,2.244,3.398,3.866,6.808,4.966,10.554,1.052,4.064.817,8.039-.635,11.943-1.284,3.012-2.591,5.671-4.36,8.769Z"/>
        <path d="M539.416,70.271l-4.015-7.74c-1.665-3.905-2.052-8.02-1.159-12.219.988-4.104,2.677-7.817,5.182-11.316,4.913,7.471,7.406,15.134,4.018,23.38l-4.026,7.896Z"/>
        <path d="M185.512,62.023l-4.068,8.356c-1.943-3.411-3.411-6.378-4.764-9.787-2.303-7.692.21-14.916,4.762-21.657,4.539,6.638,7.643,15.751,4.071,23.088Z"/>
        <path d="M419.753,115.994c-2.944-3.824-4.732-8.217-5.538-12.952-.6-4.005.221-7.814,1.753-11.491l3.693-7.009,3.509,7.037c1.351,2.71,1.847,5.794,2.072,8.842-.389,5.574-2.166,10.523-5.489,15.573Z"/>
        <path d="M419.718,70.31l-4.322-8.23c-1.551-3.824-1.779-7.758-.924-11.843.971-4.068,2.763-7.734,5.215-11.221,2.179,3.357,3.775,6.672,4.791,10.369,1.248,4.587.732,9.073-1.04,13.436l-3.721,7.49Z"/>
        <path d="M181.474,116.073c-2.44-3.517-3.943-7.08-5.094-10.961-.914-4.054-.684-7.996.77-11.843l4.37-8.706,3.925,7.859c1.699,4.33,2.121,8.767.85,13.268-1.141,3.577-2.508,6.793-4.821,10.383Z"/>
        <path d="M281.323,81.351c-5.321,1.798-10.741,1.764-16.012-.179l-7.746-3.64c3.343-2.079,6.483-3.353,10.04-4.481,4.857-1.343,9.867-1.106,14.607.695l8.006,3.727-8.896,3.879Z"/>
        <path d="M402.9,81.538c-7.128,3.035-16.598.104-23.183-4.007,8.349-4.956,17.314-7.083,25.945-3.147l6.78,3.092-9.542,4.062Z"/>
        <path d="M521.911,81.713c-7.966,2.446-15.238-.06-22.541-4.226,7.953-4.595,15.435-6.964,23.956-3.962l8.594,3.979-10.009,4.208Z"/>
        <path d="M48.027,81.095c-4.722,2.101-9.63,2.042-14.446.733-3.454-1.077-6.469-2.422-9.817-4.377l7.136-3.443c8.024-3.871,17.371-1.144,25.276,3.46l-8.149,3.626Z"/>
        <path d="M165.519,81.273c-8.537,3.088-15.947.699-23.826-3.789,7.52-4.437,14.565-6.724,22.806-4.302,3.319,1.181,6.215,2.483,9.607,4.292l-8.587,3.799Z"/>
        <path d="M93.546,81.723c-4.673,1.319-9.31,1.575-13.645-.265l-9.241-3.924,8.675-4.025c8.445-2.91,16.104-.704,23.7,4.017-3.135,1.695-6.043,3.043-9.488,4.198Z"/>
        <path d="M329.652,81.313c-4.982,1.737-9.866,1.833-14.709.245l-9.55-4.004c11.924-6.85,20.587-7.372,32.342-.014l-8.082,3.773Z"/>
        <path d="M459.257,77.56c-7.272,4.216-16.075,7.077-23.914,3.628l-8.318-3.66,8.085-3.776c8.58-3.186,16.372-.971,24.147,3.808Z"/>
        <path d="M579.05,77.513c-7.82,4.386-14.993,6.864-23.649,3.772l-8.594-3.78,5.97-2.864c9.041-4.338,17.773-2.529,26.272,2.873Z"/>
        <path d="M212.472,81.304c-5.581,2.057-11.272,1.865-16.503-.527l-7.214-3.298,8.766-4.014c6.868-3.145,16.414-.266,23.2,3.996l-8.248,3.842Z"/>
        <path d="M323.693,54.013c.666,12.208-9.351,15.571-20.043,18.259,1.472-4.394,2.858-8.783,5.89-12.377,3.476-4.12,8.906-5.965,14.154-5.882Z"/>
        <path d="M323.746,101.284c-5.504.232-11.333-1.954-14.694-6.531-2.598-3.538-3.885-7.541-5.277-11.669l10.871,3.427c5.576,2.742,9.579,7.82,9.1,14.773Z"/>
        <path d="M288.971,90.85c-2.533,6.658-9.636,10.672-16.994,10.58-.512-6.439,3.175-12.173,9.103-14.897,3.499-1.608,6.97-2.517,10.874-3.525l-2.984,7.842Z"/>
        <path d="M88.887,53.943c.812,11.999-9.124,15.749-19.872,18.307,1.536-4.255,2.799-8.575,5.665-12.152,3.352-4.182,8.715-6.031,14.207-6.155Z"/>
        <path d="M445.278,54.088c.187,12.432-9.138,15.549-20.098,18.262l3.693-9.144c3.475-6.246,9.286-9.146,16.405-9.118Z"/>
        <path d="M168.491,97.159c-3.694,2.924-7.89,4.245-12.533,4.237-.173-11.991,8.711-15.909,19.847-18.327l-2.93,7.754c-.899,2.38-2.508,4.438-4.383,6.336Z"/>
        <path d="M530.434,91.388c-2.481,6.451-9.687,10.097-16.679,10.036-.363-6.266,2.942-11.805,8.512-14.576l11.352-3.742-3.185,8.282Z"/>
        <path d="M411.368,65.589l2.615,6.725c-10.904-2.62-20.718-5.887-20.059-18.228,8.382.194,13.884,3.746,17.444,11.502Z"/>
        <path d="M565.042,53.998c.519,12.192-9.376,15.711-19.908,18.232l2.853-7.475c2.658-6.964,9.513-10.884,17.055-10.757Z"/>
        <path d="M88.954,101.358c-5.409.052-10.905-1.931-14.238-6.26-2.76-3.585-4.135-7.858-5.508-12.083,10.637,2.655,20.198,6.081,19.745,18.343Z"/>
        <path d="M531.617,66.518l2.022,5.759c-3.932-1.091-7.584-2.038-11.131-3.726-5.675-2.7-9.36-8.098-8.816-14.546,4.912.032,9.866,1.549,13.469,5.118,2.03,2.011,3.211,4.708,4.456,7.395Z"/>
        <path d="M291.785,72.137c-10.372-2.286-20.482-6.025-19.894-18.096,5.97-.065,11.501,2.264,15.037,6.947,2.089,3.381,3.548,6.681,4.857,11.149Z"/>
        <path d="M445.228,101.355c-8.671.088-14.739-4.383-17.643-12.334l-2.184-5.979,10.546,3.376c5.971,2.6,9.69,8.099,9.28,14.937Z"/>
        <path d="M155.869,53.971c12.287.516,16.397,6.786,19.811,18.235-10.345-2.463-20.313-6.074-19.811-18.235Z"/>
        <path d="M206.897,54.021c.558,12.167-9.317,15.666-19.792,18.179,3.443-11.289,7.702-17.94,19.792-18.179Z"/>
        <path d="M206.924,101.276c-5.696.323-11.634-2.147-14.89-7.038-2.261-3.396-3.429-7.068-4.792-11.092,3.789.888,7.199,1.822,10.612,3.36,5.672,2.676,9.472,7.793,9.07,14.771Z"/>
        <path d="M413.85,83.154c-3.409,11.067-7.233,17.727-19.779,18.332-.192-12.062,8.677-15.927,19.779-18.332Z"/>
        <path d="M57.75,72.248c-10.559-2.448-20.371-6.274-19.797-18.263,12.48.425,16.332,7.31,19.797,18.263Z"/>
        <path d="M565.052,101.407c-12.365-.43-16.509-7.54-19.65-18.23,10.893,2.358,20.029,6.244,19.65,18.23Z"/>
        <path d="M51.641,96.055c-3.787,3.562-8.475,5.293-13.616,5.358-.114-11.947,8.714-15.954,19.729-18.296l-2.415,6.56c-.834,2.266-2.157,4.275-3.698,6.377Z"/>
        <path d="M466.266,59.315l-17.397-14.199c2.136.269,4.074.756,6.275.489,1.537-.187,3.39-1.397,4.141-2.707l2.685-4.675c1.25,3.892,2.718,7.815,3.203,11.903l1.092,9.188Z"/>
        <path d="M391.344,45.036l-16.751,14.132.801-8.381c.427-4.47,1.833-8.793,3.261-12.955,1.145,2.722,2.078,4.972,4.231,6.394,2.518,1.661,5.097,1.294,8.457.811Z"/>
        <path d="M585.784,58.996l-16.921-14.025c3.047.399,5.706,1.093,8.183-.427,2.377-1.457,3.433-3.898,4.59-6.692l3.458,12.263.69,8.881Z"/>
        <path d="M109.837,59.134l-16.634-14.114c2.795.26,5.173.965,7.447-.149,2.739-1.341,3.952-3.968,5.164-6.995,1.234,3.803,2.699,7.82,3.1,11.887l.923,9.371Z"/>
        <path d="M345.548,59.029l-16.587-13.858c2.89.223,5.518,1.047,7.988-.546,2.301-1.485,3.489-3.936,4.526-6.703,1.43,4.157,2.777,8.408,3.539,12.817l.535,8.291Z"/>
        <path d="M462.638,117.442c-1.017-2.808-1.754-5.386-3.964-6.981-2.57-1.855-5.564-1.241-8.875-.659l16.715-13.864c-.684,3.536-.713,6.543-.751,9.99-.044,3.997-1.684,7.86-3.125,11.513Z"/>
        <path d="M582.222,117.524c-1.063-3.077-1.977-6.043-4.797-7.532-2.376-1.255-4.967-.59-7.912-.254l16.41-13.747-.588,9.924c-.233,3.932-1.865,7.694-3.113,11.609Z"/>
        <path d="M507.22,48.297l-12.95,10.807.754-9.071c.346-4.167,1.819-8.178,3.102-12.17,1.219,2.837,2.223,5.409,4.732,6.863,2.459,1.425,5.06.88,7.93.288l-3.568,3.283Z"/>
        <path d="M381.914,110.629c-1.726,1.913-2.603,4.103-3.633,6.772-1.354-3.609-2.937-7.48-3.032-11.466-.081-3.433-.099-6.471-.73-10.041l15.973,13.644c-3.305-.326-5.828-.612-8.579,1.092Z"/>
        <path d="M106.251,117.556c-1.028-3.253-1.978-6.326-5.038-7.729-2.179-.999-4.554-.389-7.289-.291l16.008-13.599c-.502,3.533-.545,6.578-.617,9.987-.083,3.931-1.672,7.758-3.064,11.633Z"/>
        <path d="M226.089,59.064l-16.701-14.108c2.881.351,5.434,1.109,7.822-.326s3.514-3.845,4.819-6.604c1.261,4.064,2.751,7.947,3.157,12.005l.903,9.032Z"/>
        <path d="M501.952,110.563c-2.166,1.642-2.921,4.133-3.958,6.849-1.36-3.399-2.794-7.23-3.052-11.103l-.69-10.364,16.298,13.768c-3.061-.43-5.955-1.153-8.597.85Z"/>
        <path d="M153.434,45.136l-16.445,13.976.8-9.044c.361-4.08,1.657-8.028,3.019-12.069,1.229,2.667,2.173,4.886,4.222,6.461,2.541,1.641,5.003,1.153,8.404.676Z"/>
        <path d="M35.511,45l-16.398,14.101c.462-3.067.596-5.504.776-8.325.285-4.468,1.853-8.793,3.239-12.893,1.054,2.669,2.15,4.861,4.137,6.452,2.478,1.621,4.877,1.035,8.246.666Z"/>
        <path d="M341.966,117.385c-.927-3.241-2.021-5.81-4.689-7.456-2.497-1.017-4.972-.731-7.924-.152l16.368-13.845c-.575,3.41-.661,6.293-.656,9.548.007,4.072-1.522,7.958-3.099,11.905Z"/>
        <path d="M222.335,117.548c-.928-3.106-1.843-5.923-4.547-7.475-2.341-1.344-4.891-.873-7.753-.298l4.716-4.134,11.519-9.795c-.772,3.519-.755,6.396-.767,9.738-.015,4.077-1.682,7.993-3.167,11.964Z"/>
        <path d="M269.06,45.09l-16.489,14.114.816-8.435c.425-4.394,1.729-8.61,3.278-12.91.899,2.718,2.072,5.09,4.292,6.766,2.493,1.409,4.882.996,8.103.465Z"/>
        <path d="M145.03,110.227c-2.495,1.607-3.248,4.284-4.303,7.2-1.315-3.464-2.82-7.256-2.989-11.118-.156-3.57-.185-6.724-.758-10.402l15.852,13.666c-2.895-.118-5.416-.883-7.802.654Z"/>
        <path d="M26.92,110.423c-2.417,1.674-2.981,4.462-4.117,6.972-1.306-3.89-2.762-7.604-2.969-11.444l-.535-9.908,12.367,10.673,3.248,3.013c-2.793-.412-5.469-1.056-7.994.694Z"/>
        <path d="M260.744,110.219c-2.528,1.621-3.407,4.239-4.374,7.2-1.433-3.539-2.8-7.464-3.073-11.473l-.682-10.003,15.863,13.641c-2.841-.242-5.349-.894-7.734.635Z"/>
        <path d="M360.643,72.52c3.045-.283,5.177,1.986,5.413,4.516.272,2.919-1.883,5.296-4.551,5.541-2.81.259-5.221-1.682-5.549-4.287-.358-2.847,1.536-5.477,4.687-5.77Z"/>
        <path d="M7.434,72.51c2.796-.181,4.928,2.08,5.225,4.543.349,2.891-1.935,5.245-4.501,5.517-2.926.311-5.306-1.957-5.573-4.615-.288-2.868,1.899-5.254,4.849-5.445Z"/>
        <path d="M597.701,72.846c2.662-.988,5.63.367,6.564,3.067.844,2.439-.357,5.278-3.094,6.356-2.332.919-5.327-.117-6.4-2.86-.935-2.392.096-5.513,2.929-6.564Z"/>
        <path d="M480.338,72.552c2.977-.284,5.134,1.999,5.387,4.483.286,2.812-1.868,5.249-4.488,5.512-2.727.274-5.12-1.705-5.492-4.32s1.626-5.392,4.594-5.675Z"/>
        <path d="M123.321,72.541c3.047-.188,5.161,2.154,5.262,4.735.112,2.862-1.901,5.093-4.677,5.291-2.712.194-5.088-1.901-5.265-4.59-.177-2.703,1.644-5.248,4.68-5.436Z"/>
        <path d="M238.27,82.436c-2.797-.639-4.101-3.477-3.707-5.716.476-2.704,2.877-4.552,5.635-4.14,2.894.432,4.449,3.075,4.064,5.766-.377,2.64-2.884,4.8-5.993,4.09Z"/>
        <path d="M296.431,72.864c2.69-.827,5.326.953,5.952,3.481.582,2.351-.885,4.844-3.419,5.63-2.328.722-4.967-.668-5.817-3.264-.708-2.161.538-5.003,3.284-5.847Z"/>
        <path d="M418.648,72.839c2.845-.649,5.123,1.09,5.666,3.544.561,2.535-1.043,4.923-3.54,5.583-2.443.646-4.872-.866-5.577-3.106-.812-2.579.604-5.372,3.451-6.022Z"/>
        <path d="M62.085,72.899c2.708-.851,5.187.939,5.836,3.293.68,2.464-.73,4.945-3.286,5.758-2.225.708-4.862-.719-5.619-3.062-.753-2.331.372-5.142,3.069-5.99Z"/>
        <path d="M538.375,72.845c2.755-.624,5.101,1.137,5.627,3.535.534,2.435-1.028,4.921-3.496,5.587-2.307.622-4.785-.954-5.487-3.173-.772-2.441.575-5.32,3.356-5.949Z"/>
        <path d="M182.431,81.965c-2.006.522-3.804-.629-4.684-1.858-1.187-1.658-1.114-3.689-.092-5.37,1.128-1.854,3.423-2.461,5.41-1.756,1.832.65,3.133,2.448,3.063,4.609-.061,1.876-1.419,3.783-3.697,4.376Z"/>
        <path d="M456.936,22.91c2.774,3.519,2.257,7.8-1.027,10.777-3.407-2.978-3.685-7.495-.902-10.832l.783-.641c.233-.191.892.375,1.146.697Z"/>
        <path d="M519.511,131.575c-3.753-3.144-3.776-8.507.045-11.762,3.547,3.051,3.656,8.402-.045,11.762Z"/>
        <path d="M439.92,131.558c-3.932-3.078-3.732-8.596-.118-11.849,3.493,3.173,3.806,8.435.118,11.849Z"/>
        <path d="M569.51,131.564c-3.718-3.194-3.697-8.465-.045-11.764,3.645,3.178,3.833,8.374.045,11.764Z"/>
        <path d="M210.044,131.502c-1.891-1.428-2.846-3.641-2.884-5.747-.039-2.198,1.042-4.638,3.016-5.9,3.435,3.832,3.487,8.002-.133,11.647Z"/>
        <path d="M456.515,131.447c-1.781-1.15-2.849-3.353-2.98-5.41-.144-2.263.909-4.511,2.827-6.22,3.447,3.077,3.806,8.195.153,11.63Z"/>
        <path d="M209.591,21.974c3.657,3.284,3.746,7.746.145,11.596-3.763-2.84-4.062-8.426-.145-11.596Z"/>
        <path d="M577.684,120.009c.801-.687,5.821,6.293.133,11.525-3.442-2.855-3.706-7.481-.904-10.865l.77-.66Z"/>
        <path d="M398.996,131.514c-3.877-3.27-3.627-8.083-.159-11.781,3.652,3.152,3.873,8.381.159,11.781Z"/>
        <path d="M330.514,131.489c-3.841-3.195-3.507-8.603.043-11.706,3.589,3.225,3.724,8.573-.043,11.706Z"/>
        <path d="M322.521,131.52c-3.754-2.853-3.893-8.42-.08-11.698,3.436,3.015,3.773,8.189.08,11.698Z"/>
        <path d="M503.092,131.501c-3.584-3.065-3.672-8.405,0-11.678,3.694,3.058,3.869,8.453,0,11.678Z"/>
        <path d="M561.334,131.502c-3.791-3.016-3.687-8.517-.034-11.667,3.692,3.244,3.755,8.273.034,11.667Z"/>
        <path d="M448.027,131.485c-3.897-3.123-3.548-8.663.049-11.703,3.552,3.299,3.64,8.455-.049,11.703Z"/>
        <path d="M338.881,131.521c-3.733-3.121-3.803-8.4-.03-11.7,3.563,3.106,3.643,8.37.03,11.7Z"/>
        <path d="M382.472,131.497c-3.545-2.923-3.617-8.195-.131-11.634,3.684,2.824,4.037,8.343.131,11.634Z"/>
        <path d="M391.183,120.176c3.464,3.48,2.888,8.288-.309,11.349-3.145-2.612-3.713-6.668-1.529-10.087.331-.518,1.336-1.767,1.838-1.262Z"/>
        <path d="M561.448,33.532c-2.084-1.166-2.933-3.528-3.03-5.564-.107-2.245.868-4.639,2.915-5.936,3.487,3.623,3.589,7.496.115,11.5Z"/>
        <path d="M202.736,120.715c2.691,3.418,2.265,8.154-1.01,10.795-3.307-2.954-3.55-7.322-.936-10.655l.902-.885c.212-.208.91.512,1.044.745Z"/>
        <path d="M578.211,22.309c3.138,3.577,2.929,8.06-.491,11.254-3.347-2.903-3.824-7.417-.881-10.836l1.372-.418Z"/>
        <path d="M390.846,33.549c-3.657-3.052-3.856-8.434-.098-11.579,3.573,2.91,3.728,8.208.098,11.579Z"/>
        <path d="M268.562,131.462c-3.661-2.974-3.723-8.558.009-11.631,3.527,3.223,3.679,8.339-.009,11.631Z"/>
        <path d="M162.336,131.47c-3.753-2.915-3.77-8.584.024-11.665,3.439,3.28,3.598,8.327-.024,11.665Z"/>
        <path d="M94.348,131.503c-3.654-2.917-3.813-8.304-.059-11.681,3.593,3.113,3.71,8.36.059,11.681Z"/>
        <path d="M569.462,21.962c3.738,3.527,3.634,7.962,0,11.622-3.648-3.237-3.816-8.476,0-11.622Z"/>
        <path d="M322.38,33.623c-3.658-3.31-3.616-8.565.121-11.649,3.62,2.984,3.504,8.431-.121,11.649Z"/>
        <path d="M331.446,22.591c2.836,3.495,2.336,8.09-1.053,10.994-3.296-3.071-3.471-7.498-.623-10.812.347-.403,1.352-.583,1.677-.182Z"/>
        <path d="M146.107,131.483c-3.808-3.049-3.703-8.473.002-11.668,3.356,3.095,3.698,8.23-.002,11.668Z"/>
        <path d="M154.164,131.48c-3.677-3.152-3.655-8.489.033-11.699,3.45,3.158,3.733,8.374-.033,11.699Z"/>
        <path d="M268.526,33.558c-3.518-3.051-3.687-8.399-.057-11.586,3.625,2.886,3.862,8.276.057,11.586Z"/>
        <path d="M519.289,22.209c.856-.693,5.833,5.973.19,11.307-3.374-2.882-3.724-7.389-.979-10.669l.789-.638Z"/>
        <path d="M511.288,131.492c-3.662-2.954-3.564-8.533-.017-11.67,3.576,3.32,3.76,8.305.017,11.67Z"/>
        <path d="M447.571,33.523c-3.648-3.061-3.768-8.371.064-11.477,3.565,2.929,3.725,8.136-.064,11.477Z"/>
        <path d="M34.954,131.464c-3.828-2.881-3.771-8.602-.021-11.639,3.448,3.331,3.604,8.278.021,11.639Z"/>
        <path d="M86.291,131.491c-3.574-2.891-3.815-8.319-.029-11.677,3.452,3.188,3.765,8.396.029,11.677Z"/>
        <path d="M383.291,22.755c2.984,3.496,2.518,7.78-.843,10.791-3.263-2.977-3.565-7.595-.707-11.016.342-.223,1.245-.131,1.55.225Z"/>
        <path d="M260.372,131.519c-3.64-3.072-3.622-8.364-.01-11.682,3.566,3.092,3.718,8.397.01,11.682Z"/>
        <path d="M503.162,33.58c-3.758-3.129-3.785-8.456-.086-11.533,3.632,3.365,3.859,7.81.086,11.533Z"/>
        <path d="M201.351,22.262c.913-.567,5.731,5.862.043,11.327-3.281-2.882-3.677-7.48-.877-10.809l.834-.518Z"/>
        <path d="M440.182,22.675c2.869,3.325,2.547,7.821-.742,10.958-3.348-2.96-3.738-7.468-.918-10.851l.794-.558c.183-.129.71.296.866.451Z"/>
        <path d="M398.772,33.646c-1.454-1.749-2.152-3.322-2.773-5.186.121-2.475.91-4.788,2.979-6.474,3.506,3.246,3.69,8.381-.206,11.66Z"/>
        <path d="M26.812,131.517c-3.602-2.878-3.834-8.383-.034-11.703,3.458,3.141,3.593,8.362.034,11.703Z"/>
        <path d="M95.197,22.915c2.718,3.49,2.192,7.711-1.05,10.642-3.132-2.932-3.599-7.152-1.067-10.538l.956-.803c.225-.189.935.409,1.161.699Z"/>
        <path d="M102.531,131.496c-3.781-3.292-3.688-8.203-.047-11.674,3.554,3.188,3.602,8.348.047,11.674Z"/>
        <path d="M276.595,131.484c-3.728-2.959-3.581-8.486-.022-11.642,3.587,3.302,3.746,8.282.022,11.642Z"/>
        <path d="M511.399,33.603c-3.791-3.051-3.727-8.452-.23-11.623,1.921,1.433,2.826,3.718,2.972,6.197-.483,1.94-1.132,3.518-2.742,5.425Z"/>
        <path d="M218.122,131.47c-3.608-2.917-3.687-8.187-.076-11.634,3.67,3.044,3.726,8.395.076,11.634Z"/>
        <path d="M154.137,33.476c-3.621-3.162-3.669-8.484.062-11.508,3.412,2.997,3.756,8.193-.062,11.508Z"/>
        <path d="M42.89,131.467c-3.513-2.926-3.73-8.247-.046-11.642,3.594,3.06,3.734,8.414.046,11.642Z"/>
        <path d="M162.436,33.597c-3.867-2.951-4.016-8.758-.096-11.594,3.395,3.647,3.503,7.534.096,11.594Z"/>
        <path d="M218.457,22.545c3.109,3.487,2.57,7.844-.652,11.023-3.3-2.777-3.602-7.199-1.016-10.602.325-.428,1.287-.848,1.667-.421Z"/>
        <path d="M260.457,33.422c-3.591-2.384-3.915-8.672-.119-11.186,3.575,2.317,3.71,8.307.119,11.186Z"/>
        <path d="M338.624,33.61c-3.419-3.715-3.572-7.873.237-11.588,3.684,3.036,3.613,8.374-.237,11.588Z"/>
        <path d="M145.877,22.282c.851-.586,5.847,5.928.157,11.25-3.313-2.934-3.662-7.356-.945-10.708l.788-.542Z"/>
        <path d="M277.037,22.326c3.356,3.519,2.87,7.962-.444,11.269-3.1-2.828-3.647-7.022-1.213-10.43.341-.477,1.033-.868,1.657-.839Z"/>
        <path d="M86.146,21.956c3.574,3.432,3.674,7.755.138,11.555-3.634-2.787-3.963-8.457-.138-11.555Z"/>
        <path d="M42.792,33.519c-3.404-3.282-3.683-8.348.075-11.51,3.733,2.89,3.555,8.462-.075,11.51Z"/>
        <path d="M34.921,33.555c-3.567-2.967-3.944-8.297-.107-11.53,3.562,2.978,3.658,8.152.107,11.53Z"/>
        <path d="M103.177,22.582c2.656,3.532,2.434,7.748-.782,10.923-3.527-2.852-3.821-7.886-.419-11.179l1.2.257Z"/>
        <path d="M26.753,33.507c-3.656-3.032-3.69-8.381-.055-11.462,3.573,3.031,3.642,8.094.055,11.462Z"/>
        <path d="M314.436,33.091c-1.843-1.58-2.906-3.441-2.881-5.545.023-1.933.901-4.62,3.011-5.291,3.259,3.268,3.258,7.262-.13,10.836Z"/>
        <path d="M78.316,32.742c-1.899-1.43-3.05-3.201-3.012-5.15.041-2.127.815-4.277,2.768-5.529,3.289,2.907,3.552,7.604.245,10.679Z"/>
        <path d="M553.24,32.609c-2.529-1.418-3.632-3.814-3.004-6.462.369-1.557,1.11-2.918,2.502-4.094,3.513,2.669,3.764,7.516.503,10.556Z"/>
        <path d="M53.262,29.854c-.475,1.113-1.895,2.191-2.743,2.846-3.099-3.208-2.846-7.931.565-10.647,2.181,1.918,3.404,4.929,2.178,7.801Z"/>
        <path d="M286.58,30.61c-.429.77-1.524,1.614-2.247,2.151-3.197-2.935-3.071-7.962.494-10.727,2.402,2.013,3.417,5.586,1.754,8.575Z"/>
        <path d="M529.987,29.837l-3.107,2.719c-2.899-3.223-2.584-7.967.86-10.521,2.238,2.039,3.082,4.799,2.247,7.802Z"/>
        <path d="M409.298,25.276c.997,3.092.026,5.856-2.726,7.439-3.019-3.022-2.989-7.751.487-10.641,1.091.715,1.814,1.886,2.239,3.202Z"/>
        <path d="M194.025,32.53l-3.226-3.12c-.651-2.72.141-5.408,2.439-7.368,3.218,2.63,3.745,7.334.787,10.487Z"/>
        <path d="M172.64,29.461l-3.301,2.893c-2.728-3.209-2.177-7.735,1.032-10.33,2.157,1.965,3.084,4.55,2.269,7.437Z"/>
        <path d="M314.409,131.466c-2.389-1.382-3.452-4.445-2.573-7.194l3.146-3.2c2.68,3.143,2.56,7.22-.572,10.394Z"/>
        <path d="M432.135,32.279l-3.305-2.908c-.779-2.727.034-5.426,2.39-7.308,3.056,2.586,3.609,7.085.915,10.216Z"/>
        <path d="M287.148,124.505c.7,2.636-.311,5.13-2.318,7.052-3.054-2.339-3.893-6.858-.966-10.073l3.284,3.021Z"/>
        <path d="M77.901,131.435c-1.996-1.724-2.985-4.246-2.228-6.826l3.189-3.153c2.901,3.112,2.251,7.622-.961,9.979Z"/>
        <path d="M53.624,124.854c.314,2.596-.651,4.903-2.534,6.667-3.068-2.578-3.703-6.883-1.073-9.98l3.607,3.313Z"/>
        <path d="M552.89,131.511c-2.143-1.717-3.075-4.402-2.322-6.847l3.291-2.968c2.702,2.795,2.302,7.253-.968,9.815Z"/>
        <path d="M409.678,124.73c.242,2.467-.44,4.85-2.47,6.705-3.245-2.159-3.733-6.776-1.169-9.771l3.639,3.066Z"/>
        <path d="M529.939,124.869c.913,2.381-.323,5.002-2.255,6.556-2.909-2.236-3.826-6.502-1.217-9.476l3.472,2.921Z"/>
        <path d="M193.608,131.498c-2.06-1.447-3.02-4.001-2.431-6.338l3.592-3.185c2.507,2.922,1.827,7.045-1.162,9.523Z"/>
        <path d="M172.893,125.295c.173,2.476-.735,4.805-2.645,6.148-2.77-2.397-3.636-6.427-1.347-9.293l3.992,3.145Z"/>
        <path d="M431.793,131.473c-2.058-1.087-2.819-3.419-2.744-5.558l4.152-3.324c1.939,2.918,1.101,6.377-1.408,8.882Z"/>
      </g>
    </g>
  </g>
</svg>