<?xml version="1.0" encoding="UTF-8"?>
<svg id="b" data-name="Layer 2" xmlns="http://www.w3.org/2000/svg" width="442.22" height="443.16" viewBox="0 0 442.22 443.16">
  <g id="c" data-name="Layer 1">
    <g id="d" data-name="3AC8Nb">
      <g>
        <path d="M442.183,277.825c-1.191,1.367-2.439,2.685-3.777,3.908-.628.574-1.284,1.125-1.954,1.661l-.002.146c-.06,3.78-3.1,7.57-7.05,7.68l-9.21.27c-.31.01-.72,1.12-.49,1.22l1.01.39c.06.03.52.07.64.07l6.64.061c2.41.02,4.64-.17,6.63-1.521l.92-.62.6-.4c.17-.12.36.43.36.67l-.01,2.28c0,.14-.29.6-.42.54l-1.01-.47-.95-.43c-1.85-.85,2.22,4.44,2.32,7.21l.29,8.5c.16,4.48-.65,9-4.97,10.88l-.58.25-.49.19-.57.21-10.1.22-.28,1.06c.42.17.91.37.99.37l6.83.1c2.8.05,5.1.15,6.84,2.49,1.43,1.93,2.29,4.5,2.33,7.04l.12,8.63c.08,4.61-2.49,8.62-7.04,9.65l-.67.02-.73.02-8.38.23-.1.89,5.85.35c1.7.1,3.77-.24,5.39.29,3.27,1.07,5.24,4.55,5.5,7.97.32,4.29.45,8.52-.05,12.75-.44,3.69-3.53,6.85-7.22,6.96l-8.59.27c-.16,0-.79.22-.91.28-.17.09.11.55.3.59l1.02.19c3.35.64,6.93-.14,10.17.72,3.35.89,5.09,4.69,5.48,7.9.51,4.29.57,8.49.15,12.69-.45,4.48-4.36,7.45-8.58,7.46l-8.49.02c.16.38.45,1.02.55,1.03l5.89.49.89-.12c3.35.35,6.63-.53,9.23-2.8.09.19.33.65.33.73l-.03,3.04v.59c-.24.22-.39.36-.39.37l-.45-.46-.38-.4-.43-.35-.65-.36c-.1-.06-.02.49.03.62l.87,2.17c1.15,2.85,1.94,5.72,1.91,8.87l-.07,7.85c-.03,4.29-3.54,7.49-7.72,7.43l-10.67-.15c-2.34-.04-4.77-.771-6.77-1.79-2.34-1.18-3.71-3.3-3.78-6.09l-.16-6.53c-.02-.78-.16-1.41-.74-1.99l-.2,8.42c-.1,4.02-2.66,7.78-6.94,7.75l-11.83-.11c-2.95-.02-6.08-1.24-7.98-3.52-2.52-3.02-.52-8.76-2.04-12.6-.57,2.85-.54,5.5-.46,8.47.11,4.03-2.65,7.75-6.89,7.74l-11.87-.03c-2.71-.01-5.54-1.07-7.49-2.89-3.29-3.08-.89-9.39-2.55-13.32-.55,2.91-.56,5.39-.43,8.13.2,4.13-2.45,8.06-6.87,8.06h-11.82c-4.04,0-9.21-2.36-9.42-6.97l-.39-8.19-.71-.84-.01,7.97c-.01,4.02-2.56,7.57-6.96,7.98l-12.03-.01c-2.98,0-6.29-1.33-8.08-3.72-2.53-3.4-.37-8.77-1.97-12.23l-.33,7.93c-.18,4.21-2.62,8.04-7.07,8.05l-11.03.04c-2.13.01-4.36-.66-6.21-1.521-5.88-2.74-3.03-9.1-4.5-14.64-.69,2.75-.65,5.07-.51,7.74.2,3.86-2.16,7.72-6.4,8.21-4.89.57-10.02.439-14.92-.42-3.63-.64-6.82-3.47-6.97-7.08l-.31-7.021c-.04-.91-1.15-1.72-1.9-1.4l.52,6.93c.3,3.97-2.01,7.39-5.96,8.67-2.61.84-5.64.89-8.38.41-4.66-.82-7.5-4.91-7.13-9.48l.53-6.51-1.41.04c-.36.02-.7,1.07-.71,1.44l-.11,6.52c-.04,2.76-1.02,4.95-3.58,6.26-1.93.99-4.37,1.79-6.68,1.79l-10.62.03c-1.686.004-3.244-.638-4.478-1.676-.234.731-.515,1.455-.87,2.164-.878,1.754-2.095,3.32-3.456,4.762h256.494c4.78,0,7.75-4.42,7.75-9.7l-.037-155.635ZM433.3,321.75l3.08-1.93.11,3.77-3.19-1.84ZM436.42,352.65l-2.97-1.61,3-1.97-.03,3.58ZM436.54,382.49l-3.23-1.95,3.3-1.95-.07,3.9ZM206.31,437.67l1.57-3.11,1.56,3.11h-3.13ZM230.77,437.74l1.33-3.14,1.53,3.01-2.86.13ZM260.27,437.74l1.64-3.06,1.58,2.93-3.22.13ZM289.49,437.69l1.68-3.09,1.64,3.08-3.32.01ZM318.79,437.66l1.71-3.04,1.84,3.12-3.55-.08ZM348.03,437.73l1.92-3.13,1.78,3.12-3.7.01ZM377.3,437.64l1.92-3.12,1.84,3.21-3.76-.09ZM406.56,437.74l1.75-3.17,2.16,3.16-3.91.01Z"/>
        <path d="M167.193,438.022c.041-.036.081-.073.121-.108l-9.404.097c-4.62.04-7.56-4.09-7.41-8.52.09-2.57.16-4.84-.43-7.52-1.55,4.23.44,10.31-1.94,12.65-2.29,2.25-5.36,3.37-8.57,3.38l-10.44.05c-4.78.02-7.73-3.96-7.78-8.4l-.08-7.18c-.13-.25-.07-.34-.84-.09l-.22,7.49c-.05,1.69.05,3.59-1.22,4.82-2.26,2.19-5.38,3.35-8.58,3.36l-10.5.02c-4.37.01-7.56-3.58-7.73-7.86l-.34-8.59c-2.43,5.12,1.32,11.34-3.51,14.23-2.88,1.72-5.99,2.3-9.36,2.32l-7.88.04c-4.1.021-7.84-2.9-7.99-7.1l-.32-8.48c-.1-.47-.65-.68-.84-.17l-.21,8.17c-.04,1.67-.36,3.46-1.74,4.57-1.88,1.53-4.32,2.77-6.83,2.82l-11.24.21c-4.39.08-8-3.271-8.09-7.73l-.17-8.34-.75.02-.21,8.42c-.05,2.16-.82,4.09-2.7,5.31-2.14,1.38-4.78,2.3-7.43,2.3l-10.79.021c-3.81,0-7.09-3.07-7.12-6.92l-.07-9.36c-.01-2.65.95-5.48,2.4-7.5,1.82-2.55,4.21-3.18,7.33-3.34l6.76-.33c.2,0,.31-1.03.25-1.2l-11.6-.18c-3.21-1.23-5.36-4.35-5.36-7.86l.02-11.51c0-3.61,2.28-7.15,5.71-8.43,3.12-1.18,8.56.49,11.54-1.49-2.75-.5-5.2-.63-7.8-.42-4.45.37-8.46-2.16-9.13-6.95-.57-4.14-.47-8.52-.21-12.84.24-4.09,3.11-7.63,7.1-8.26,3.46-.54,6.7.13,10-1.02-2.98-.56-5.65-.54-8.51-.44-4.11.16-7.61-2.33-8.29-6.73-.66-4.27-.69-9.05-.27-13.39.52-5.28,4.73-8.23,9.72-7.84l6.83-.14c.2,0,.66-.8.51-.89-.26-.15-1.13-.62-1.5-.63l-9.52-.16c-3.04-.05-5.34-3.52-5.76-6.4-.67-4.64-.68-9.2-.1-13.89.37-3.01,2.77-6.54,5.86-6.64l10.11-.34c.31-.01.99-.59,1-.86,0-1.67-6.22-.49-11.05-1.14-3.17-.42-5.51-3.87-5.88-6.96-.56-4.71-.71-9.53.11-14.04.79-4.38,4.56-6.69,8.6-6.47,2.84.16,5.51.31,8.33-.75-3.69-1.24-7.19-.2-10.94-.78-3.39-.54-5.86-4.01-6.15-7.48-.34-4.14-.47-8.4.02-12.42.65-5.18,5-8.08,9.9-7.61,6.25.59,8.23-1.94,6.28-1.92-7.24.09-13.27,1.27-15.68-6.67-.085-.283-.134-.568-.2-.853-1.732,1.178-3.399,2.408-5.005,3.718l-.005,206.094c.41,4.25,3.48,7.65,7.93,8.17h152.69c2.268-1.595,4.468-3.295,6.573-5.138ZM4.88,408.38l3.13,1.99-3.13,2.36v-4.35ZM7.79,350.82l-2.84,1.71-.02-3.56,2.86,1.85ZM7.51,321.55l-2.49,1.44-.07-2.75,2.56,1.31ZM5.08,232.64l2.54,1.32-2.57,1.63.03-2.95ZM30.78,437.73l1.97-3.49,1.75,3.48-3.72.01ZM60.07,437.7l1.67-3.36,1.95,3.36h-3.62ZM89.23,437.68l1.69-3.63,1.92,3.67-3.61-.04ZM118.44,437.68l1.84-3.47,1.73,3.45-3.57.02ZM147.88,437.59l1.47-3.14,1.87,3.26-3.34-.12Z"/>
        <path d="M436.409,54.679c-.576,2.441-1.907,5.438-3.449,6.361-.16.1.45.45.62.34l1.63-1.03.52-.46c.11-.09.56.22.57.36l.13,2.57c.01.26.02.81-.06.93-.11.15-.31.45-.36.52l-.67-.53c-1.67-1.3-3.55-1.95-5.59-1.87l-4.41.18-3.85.17-.69.13-.73.15c-.11.03-.32.4-.2.42l.79.1,8.52.15c3.5.061,6.82,3.38,7.16,6.95.44,4.62.49,9.21-.05,13.79-.45,3.85-3.68,7.27-7.52,7.42l-8.32.31c-.13,0-.84.62-.72.65l.83.14,9.63.17c3.4.06,6.19,4.09,6.2,7.41v12.48c0,3.55-2.96,7.83-6.63,8.04l-9.45.54c-.54.09-.7.91-.02.82l9.86.27c3.63.1,6.33,4.45,6.36,7.99l.08,10.18c.02,2.24-.89,4.61-2.13,6.36-1.84,2.59-4.49,3.229-7.65,3.39l-6.42.33c-.18.01-.94.57-.8.61.21.06.98.32,1.23.33h6.41c4.73,0,8.6,2.63,9.12,7.58.43,4.06.4,8.36,0,12.56-.35,3.76-3.14,7.36-6.85,7.98-3.46.58-6.87-.41-10.36,1.03,3.86,1.23,7.61-.05,11.4.72,3.35.67,5.83,4.12,5.86,7.48l.09,11.38c.05,5.24-4.45,8.86-9.64,8.69-3.38-.11-7.64.28-7.36,2.11.32,2.07,11.13-2.95,15.45,4.76,2.27,4.04,2.21,8.94-.28,12.86-1.54,2.43-4.23,4.07-7.11,4.03l-6.32-.08-1.46-.04c-.28-.01-.31.76-.21,1.02.1.27.71.75,1.03.77l6.66.34c4.65-.22,8.7,2.87,9.14,7.7l.05,11.74c.02,3.729-2.9,7.439-6.76,8.05l-9.24.32c-.24,0-.76.36-.9.43-.15.08.56.73.77.73l7.61.18c2.83.07,4.95.66,6.59,3,1.51,2.15,2.12,5.11,2.08,7.88l-.049,3.122c1.832-1.799,3.522-3.747,5.097-5.768.186-.242.36-.494.544-.737l-.049-209.435c-1.69-2.577-3.581-4.955-5.723-7.074ZM436.3,93.78l-3.2-1.88,3.24-2.14-.04,4.02ZM436.21,122.98l-3.26-1.771,3.34-1.91-.08,3.68ZM436.2,152.41l-3.21-1.62,3.23-2.25-.02,3.87ZM436.13,181.87l-3.34-1.65,3.38-1.93-.04,3.58ZM436.18,211.23l-2.24-1.48,2.24-1.75v3.23ZM436.25,264.86l-2.88-1.87,3.02-1.76-.14,3.63Z"/>
        <path d="M442.12,8.37c0-4.26-3.62-7.56-7.48-8.37l-109.9.08-78.496.007c2.436,1.262,4.8,2.688,7.071,4.334.728.528,1.461,1.084,2.189,1.667,2.042.649,3.628,2.169,4.484,4.138.892.971,1.714,1.996,2.444,3.07l-.01-1.825c-.13-3.79,5.09-6.03,9.05-6.01l11.14.03c4.09.01,7.27,3.45,7.37,7.65l.22,8.65c.06,2.5,2.29,1.13,1.44-8.62-.21-2.42.2-4.479,2.4-5.78,1.8-1.07,4.19-2.03,6.4-2.01l11.42.07c3.97.03,7.2,3.25,7.3,7.32l.2,8.8c0,.2.22.81.28.94.1.2.63.52.74.32l.57-.99.08-9.15c-.75-4.84,4.97-7.42,9.67-7.38l10.47.1c3.88.03,7.17,3.26,7.25,7.18l.2,9.3c.01.39.81,1.27.99,1.04.18-.24.67-.99.66-1.32l-.06-8.48c-.02-2.47.5-4.66,2.74-5.94,1.85-1.07,4.31-1.88,6.57-1.88l10.82.03c3.83.01,7.22,2.95,7.31,6.8l.18,7.36.23,2.96c.01.16,1.06.29,1.06.13l.09-7.2c.03-2.2.04-4.4,1.11-6.24,1.29-2.23,4.17-3.63,6.75-3.64l13.1-.08c3.66-.03,6.68,3.25,6.77,6.96l.23,9.27.19.75c.04.18.68-.27.68-.44l.13-6.97c.06-2.86.51-5.9,2.8-7.74,1.86-1.49,4.83-2,7.26-1.99l11.62.03c3.85.01,6.93,2.99,6.93,6.83l-.01,10.54c0,2.87-1.14,5.71-2.92,7.82-1.56,1.83-3.54,1.97-5.93,2.06l-7.52.27c-.16.01-.71.62-.84.72-.12.1.43.28.54.27l11.63-.26c4.673,2.179,5.765,7.952,5.563,13.687,1.553,1.239,3.023,2.583,4.384,4.023.157.167.299.344.454.512l-.01-43.402ZM262.01,9.14l-1.65-3.37,3.66.02-2.01,3.35ZM291.22,9.15l-1.7-3.45,3.87.08-2.17,3.37ZM320.53,9.11l-1.82-3.31,3.97-.11-2.15,3.42ZM349.89,9.41l-1.67-3.61,4.04-.13-2.37,3.74ZM379.1,9.4l-1.8-3.68,4.07-.02-2.27,3.7ZM408.32,9.41l-1.77-3.74,4.86.021-3.09,3.72ZM432.49,33.18l3.97-2.32.02,4.25-3.99-1.93Z"/>
        <path d="M238.784,3.26c-3.865-1.475-7.903-2.433-11.969-3.171h-9.714c-1.95,0-3.14.431-4.66,1.421-2.38,1.56-6.18-.71-9.38-.71l-145.05.16-50.46.17C2.9,1.15.01,5.51.01,9.83v5.95c.292.317.598.638.932.965,1.027,1.005,2.123,1.94,3.238,2.846.191.155.379.315.57.472-.122-2.923-.085-5.86.18-8.782.29-3.13,2.82-5.88,5.92-5.99,4.58-.17,8.95-.17,13.479-.04,2.72.08,5.04.96,7.12,2.53l-.5-1.28-.28-.7c-.06-.15.62-.31.81-.3l4.09.19c-1.69,2.05-2.71,4.09-2.88,6.84-.37,5.6-.8,11.87,2.53,10.21l.11-10.27c.04-3.84,2.771-6.99,6.63-7.14,3.87-.16,7.68-.16,11.52,0,3.09.13,5.62,1.29,8.06,3.47l.08-.62-1.07-1.76-.37-.63c-.09-.14.64-.26.82-.25l3.53.1-2.02,3.51c-.2-.01-.62-.02-.62-.06.02.06.04.27.06.53l.1,2.37c.18,4.11-.76,10.83,1.03,11.13.31.06.97-.8.97-1.18l.05-9.17c.02-3.76,2.88-7.13,6.66-7.37,4.32-.27,8.49-.28,12.77.12,3.1.28,6.51,1.73,7.62,4.75.82,2.25.28,4.88.35,7.33l.14,4.63c.01.15.51.6.62.7.12.1.78-.43.78-.58l.02-6.21c.01-2.58.07-4.97,1.3-7.14,1.29-2.28,4.01-3.71,6.63-3.7l9.79.06c2.18.01,4.65.63,6.51,1.49,2.79,1.3,3.67,3.68,3.44,6.63-.27,3.34-.51,8.29.72,9.55.22.23,1.1-.52,1.1-.9v-9.2c0-4.2,3.18-7.4,7.34-7.54,4.1-.13,7.95-.11,12.1.13,2.87.17,6.72,1.66,7.55,4.7,1.24,4.57-.88,11.88,1.45,12.8.28.11.79-.79.79-1.14l.01-9.23c.01-4.67,4.06-7.28,8.33-7.16l10.69.31c3.13.09,5.59,1.28,7.77,3.59l-1.14-3.36,2.16-.2.77.03c.15.01.76.19.69.32l-.34.61c-.71,1.27-1.48,2.69-1.86,3.93l.05,11.38c.5.42.95.9,1.24.82.3-.07.58-.89.58-1.35l.09-8.44c.04-3.95,3.13-7.36,7.07-7.34l9.75.05c5.01.03,10.62,2.13,10.76,7.31l.23,9.06c.01.32.89.86,1.14.84.33-.02.91-.56.91-.99l-.04-9.34c-.01-3.04,2.01-6.03,4.95-6.98,2.98-.95,6.43-.88,9.39.16,6.52,2.27,5.9,10.16,5.25,16.89l1.35-.07c.39-.02.78-.99.78-1.39l.19-7.72c.11-4.89,4.89-7.88,9.91-7.87h1.51c-1.677-.941-3.4-1.798-5.187-2.48ZM91.55,9.96l-2.29-4.36,4.61.1-2.32,4.26ZM120.94,9.71l-2.28-4.01,4.51-.07-2.23,4.08ZM150.05,9.65l-2.01-3.92,4.15.05-2.14,3.87ZM208.81,9.26l-1.95-3.27,3.12-.01-1.17,3.28ZM231.95,8.66l-1.13-2.76,3.13-.04-2,2.8Z"/>
        <path d="M11.74,92.56c2.93-.32,12.05-.18,9.69-.74l-.89-.2-7.38-.35c-3.17-.15-5.81.15-8.19,2.38l.01-4.26,2.09,1.15c.15.08,1.05-.01.94-.15l-.53-.64c-1.7-2.12-2.83-4.94-2.88-7.83l-.16-9.31c-.1-5.65,3.96-9.6,9.47-9.69l6.84-.1c.59-.05.68-.2-.01-.51l-8.39-.45c-2.8-.15-5.14.84-7.4,2.5l.01-4.7c1.41.96,2.11,1.47,3.31,1.72-2-2.25-3.22-4.66-3.52-7.77-.118-1.196-.196-2.413-.252-3.635-.044-.069-.095-.124-.136-.199-1.61-2.931-3.038-5.959-4.353-9.036l-.004,180.456c1.821-1.303,3.688-2.537,5.589-3.703.565-1.35,1.364-2.614,2.436-3.713,1.95-2,4.58-2.75,7.33-2.55l5.98.439.21-1.43c.05-.34-.9-.89-1.29-.92l-6.4-.41c-4.69.13-8.63-2.96-9.15-7.87-.42-4.06-.38-8.24-.08-12.47.24-3.49,3.14-7.25,6.58-7.41l10.46-.47c-2.39-1.53-5.13-.97-7.79-1.11-3.31-.18-6.2.42-8.88,2.4l-.02-4.39c1.32.97,1.99,1.55,3.44,1.44-1.93-2.2-3.38-4.53-3.66-7.62-.38-4.07-.47-8.15-.03-12.27.37-3.45,3.01-7.1,6.51-7.52,3.39-.41,6.41-.15,9.86-.26l.54-.84c-5.43-.66-12.34-1.59-15.93,1.52l-.77.11.04-3.9,3.43,1.31c-2.18-2.84-3.84-5.62-3.85-9.28l-.04-9.79c-.02-3.78,2.84-7.81,6.84-8.35,3.26-.43,11.66-.05,10.03-.73-.14-.06-.75-.34-.96-.35l-7.62-.43c-2.98-.17-5.17.71-7.81,2.57l-.05-4.18,2.55,1.14c.14-.02.82-.15.75-.24l-.58-.74c-1.97-2.49-3.1-5.55-3.12-8.8l-.07-8.67c-.04-4.28,2.68-8.66,7.26-9.15Z"/>
        <path d="M299.41,48.53c-4.92-3.18-10.02-5.23-15.49-7.4-10.01-3.97-19.94-7.03-30.39-9.65l101.86.05,16.25.148c3.792-1.301,7.621-2.49,11.49-3.54.562-.153,1.129-.288,1.693-.436l-32.423.057-108.76.02-18.67.07-1.92.61.1,3.16c10.03,1.04,19.57,2.08,29.44,4.27,14.45,3.21,28.26,7.95,41.43,14.62l11.74,6.66c6.83,4.35,12.84,9.35,19.43,14.34l1.88-4.11c-6.66-5.02-12.79-10.05-19.7-14.45l-7.96-4.42Z"/>
        <path d="M411.45,61.75l-.24,45.84-.058,26.914c1.214,1.031,2.403,2.091,3.547,3.195l.261-75.918.28-34.13-9.887.017c-1.777.285-3.55.589-5.319.918-4.832.899-9.632,1.97-14.384,3.221l25.51.233.29,29.71Z"/>
        <path d="M412.194,141.107c-.345-.339-.701-.667-1.054-.997l-.12,56.13c-5.85-27.71-16.01-52.6-32.62-75.02l-3.85,2.27c6.25,8.93,12.01,17.82,16.76,27.67,10.6,21.99,16.17,43.25,18.36,67.62l4.01-.02c.25-.73.6-1.79.61-2.52l.23-26.27.158-46.166c-.791-.933-1.613-1.838-2.484-2.697Z"/>
        <path d="M216.67,27.9l-13.26-.06-57.555.018c-1.335,1.194-2.652,2.41-3.941,3.654l46.016-.022c-9.46,2.53-18.65,4.92-27.83,8.49-8.25,3.21-15.7,7.07-23.45,11.37-8.25,4.76-15.74,10.25-23.2,16.14l1.84,3.92c22.1-18.25,46.93-30.18,75.11-35.88,8.93-1.81,17.46-2.84,26.55-3.93.14-1.13.07-2.34-.28-3.7Z"/>
        <path d="M34.62,174.16c-2.12,6.42-3.34,12.56-4.9,19.37l.047-84.208c-.254.942-.516,1.883-.758,2.829-.963,3.752-1.818,7.534-2.56,11.336l-.029,76.943.31,18.46,3.64.19c.82-9.48,1.97-18.55,4-28.01,5.29-24.56,16.02-47.47,31.05-67.56l-3.47-2.32c-12.18,15.47-21.12,34.18-27.33,52.97Z"/>
        <path d="M74.88,27.88l-48.44-.17.03,39.68-.014,38.13c1.012-3.606,2.093-7.193,3.221-10.764.119-.376.245-.75.365-1.126l.289-10.62.09-50.96,73.98-.52,31.556-.015c1.217-1.24,2.458-2.457,3.717-3.655l-64.793.02Z"/>
        <path d="M390.64,306.76c9.89-18.68,16.66-38.46,20.31-59.27l.32,24.51.49,50.08.018,7.509c.217-.543.439-1.084.652-1.629.833-2.133,1.631-4.28,2.395-6.439l-.024-9.151-.32-79.22-.67-8-4.17.02c-2.71,34.51-13.68,68.86-34.25,97.03l3.76,2.2c4.37-5.61,8.12-11.27,11.49-17.64Z"/>
        <path d="M344.252,414.002c-.848,1.062-1.728,2.099-2.625,3.121l73.503.008-.14-32.22-.136-51.831c-.996,2.44-2.015,4.871-3.052,7.294l.027,11.657-.04,27.7-.42,33.56-64.21.71-2.908.002Z"/>
        <path d="M338.802,414.006l-84.062.064c9.71-2.4,18.69-4.97,27.67-8.99,8.21-3.31,15.4-7.76,23.27-11.93l21.18-15.12-2.16-3.96c-11.01,9.04-22.48,16.77-35.18,23.19-20.66,10.46-43.31,15.85-66.44,16.96-.14.91-.1,1.77.18,2.89l112.696.012c.973-1.017,1.922-2.055,2.846-3.116Z"/>
        <path d="M128.266,416.641c1.204-.511,2.4-1.041,3.583-1.599.642-.303,1.273-.63,1.909-.948l-5.039.006-51.63-.31-46.95-.56-.29-13.35-.24-44.45-.17-28.84.08-20.95-.03-22.09.33-30.82c1.75,9.17,3.49,17.5,6.9,25.88l7.38,18.13c4.59,9.92,10.12,18.99,16.92,27.58l3.45-2.17c-5.82-7.36-10.53-14.7-14.62-22.99-5.19-10.52-9.57-21.14-12.67-32.5-2.28-8.33-3.63-16.49-5.01-24.98-.91-5.58-1.37-10.77-1.8-16.36l-3.53.2-.39,13.23-.15,62.42-.09,115.95,100.894-.011c.387-.157.777-.307,1.163-.468Z"/>
        <path d="M216.77,414.27c-38.93-1.66-71.61-15.5-101.44-40.18-.87,1.19-1.479,2.36-2.09,3.84,6.6,5.26,13.08,10.14,20.19,14.63l7.8,4.24c13.73,8.23,28.45,13.79,44.11,17.23l-43.023.053c-1.705,1.085-3.461,2.09-5.252,3.025l79.666-.008c.22-1.08.23-1.9.04-2.83Z"/>
        <path d="M337.16,350.45l-13.55,12.07c-8.21,6.75-16.24,13.18-25.31,18.83-13.94,8.7-28.7,15.33-44.7,19.22-9.3,2.18-18.29,3.69-28.56,4.17,5.5-7.11,13.14-12.37,21.58-15.12,5.03-1.64,9.62-3.25,13.67-6.65,6.42-5.39,10.15-12.64,10.64-21.56,6.89,7.84,17.65,6.89,25.67,1.03,2.42-1.92,4.31-4.26,5.01-7.57-8.98-1.27-16.75-5.71-22.22-12.85l-5.83-8.44-12.55-21.22c-.02-.5,1.08-1.18,1.69-1.16l13.56,22.7c2.23,3.75,4.74,7.07,7.87,10.14,7.03,6.9,16.89,10.39,26.69,9.37,8.89-.93,15.7-7.9,26.34-2.96Z"/>
        <path d="M214.64,404.78c-38.26-1.9-69.42-17.32-97.54-41.83l-3.03-2.25-11.15-10.17c5.88-2.97,11.74-1.95,17.4.51,15.49,6.73,32.64-.83,41.17-14.57l15.6-25.11c.29-.41,1.81.51,1.72,1.02l-11.27,18.61c-7.28,12.03-14.68,21.55-29.51,23.68,1.25,8.21,12.11,12.98,20.12,12.19,4.03-.42,7.07-2.14,10.12-5.52.48,8.97,4.4,16.45,11.2,21.85,4.32,3.44,9.04,5.05,14.44,6.82,8.27,2.71,15.23,8.05,20.73,14.77Z"/>
        <path d="M127.95,264.48l-15.43,9.62-12.51,8.79c-8.5,6.55-12.47,16.64-11.03,27.26.96,7.01,4.05,12.71,7.46,18.74,2.95,5.24,2.98,11.66,2.4,17.63l-7.57-7.61c-5.43-5.46-10.5-11.09-15.19-17.25l-2.78-3.64c-5.95-6.84-10.45-14.39-14.63-22.45-11.35-21.9-17.28-44.39-18.41-69.15,5.42,4.21,9.18,9.86,10.71,16.21.78,3.23,1.19,6.28,2.3,9.36,3.84,10.71,12.54,18.18,23.97,20.35-3.09,1.29-4.75,4.12-5,7.58-.54,7.3,2.42,14.76,7.53,19.96,1.98,2.02,4.32,3.35,7.09,3.68.38-8.34,4-15.46,10.13-20.66l6.76-5.25,23.32-14.7.88,1.53Z"/>
        <path d="M399.8,225.97l-1.66,14.66c-3.03,26.82-16.5,57.98-33.14,79.43l-16.09,18.7-7.8,7.88c-.88-6.1-.53-12.3,2.19-17.62l4.79-9.39c4.39-11.4,3.97-24.19-4.68-33.07-3.18-3.27-6.66-6.04-10.62-8.46l-21.82-13.35c-.08-.52.3-1.28.81-1.74l24.45,15.02c3.94,2.42,7.31,5.32,10.27,8.84,4.01,4.77,5.89,10.66,6.29,16.85,3.09-.43,5.57-2.08,7.65-4.35,4.98-5.44,7.62-13,6.72-20.32-.38-3.08-1.94-5.43-4.81-6.7,6.85-1.51,12.84-4.26,17.42-9.31,4.39-4.82,7.24-10.56,8.38-17.07,1.36-7.78,4.84-14.97,11.65-20Z"/>
        <path d="M129.04,181.13c-.13.55-.6,1.23-1.14,1.6l-24.49-15.22-6.22-4.68c-6.27-4.71-9.71-11.9-10.13-20.07-2.32.34-4.12,1.17-5.72,2.59-5.83,5.16-8.88,13.07-7.73,20.79.41,2.74,1.54,4.82,3.77,6.87-15.11,1.92-24.09,13.51-25.87,28.15-1.9,6.53-5.5,12.45-11.36,16.87,2.15-35.87,14.46-65.01,36.04-93.2l13.63-15.95c3.06-3.66,6.18-6.9,9.85-10.44.9,6.15-.2,12.01-2.18,17.68-3.46,4.74-6.01,9.67-7.53,15.34-3.1,12.46.41,23.9,10.77,31.58,4.83,3.59,9.65,6.77,14.8,9.89l13.51,8.2Z"/>
        <path d="M335.85,93.99c-4.24,2.43-10.82,1.27-15.47-.58-8.89-3.54-18.31-2.85-26.86,1.46-5.9,2.98-10.6,7.44-14.38,12.93l-8.69,14.28-6.59,11.99c-.19.35-1.02.74-1.37.59-.53-.23-.73-1.02-.4-1.61l11.02-19.69c6.67-11.93,15.04-21.16,29.29-23.23-1.96-9.37-14.17-14.03-23.23-11.55-3.08.96-5.32,2.53-7.76,5.17-.21-11.32-6.41-20.87-16.49-25.54-2.97-1.38-5.88-2.04-9.05-3-7.87-2.41-14.81-7.19-20.19-13.72,13.25.94,25.52,3.32,37.85,6.99,12.54,4.01,24.36,9.07,35.88,15.37l8.76,6.61c5.52,4.17,10.88,8.11,15.97,12.78l11.71,10.75Z"/>
        <path d="M399.76,217.91c-5.26-4.05-9.31-9.42-10.85-15.6-1.09-4.39-1.75-8.46-3.64-12.54-4.31-9.27-12.64-15.66-22.83-16.68,1.97-1.72,2.97-3.59,3.41-5.98,1.32-7.14-.79-14.54-5.72-20.07-2.06-2.32-4.36-3.9-7.51-4.29-.41,8.47-4.42,15.68-10.93,20.87l-12.37,8.59-17.65,10.771c-.55-.311-1.05-1.15-.94-1.69l23.93-14.95,7.17-5.59c10.57-9.61,11.09-23.96,5.18-36.78l-4.68-8.01c-2.52-5.4-2.96-11.62-2.37-17.76l7.97,8.43,8.7,10,8.98,11.3c12.35,16.75,21.98,35.3,28,55.31,3.4,11.3,5.22,22.68,6.15,34.67Z"/>
        <path d="M214.17,41.55c-5.56,6.73-12.5,11.21-20.32,13.86-14.49,2.7-24.97,12.87-25.52,28.27-6.92-7.94-18.34-7.12-26.24-.77-2.09,2.05-3.91,4.25-4.16,7.25,8.68,1.46,16,5.77,21.39,12.41,2.24,2.75,4.26,5.46,6.07,8.55l13.1,22.35c.4.69-.88,1.67-1.48,1.46l-14.31-24.11c-2.78-4.69-6.26-8.6-10.41-12.05-2.59-2.16-5.41-3.69-8.47-5.01-7.96-3.45-16.43-3.35-24.49-.23-4.979,1.94-10.229,2.66-15.49.65l12.36-11.29c6.32-5.78,12.98-10.67,20.08-15.46,22.19-14.98,51.38-23.87,77.89-25.88Z"/>
        <path d="M282.84,151.92c-2.97.771-5.77-.29-8.51-1.26-5.27-1.85-10.73-2.38-16.05-.5-5.74,2.03-9.97,6.43-12.19,12.11l-6.62,16.91c-.47-.01-1.3-.42-1.5-.8l7.35-19.38c2.99-7.88.86-16.1-5.17-21.65l-4.91-4.1c-6.09-4.24-11.12-9.25-15.43-15.32-4.72,6.66-10.05,11.78-16.16,16.48-2.86,2.19-5.42,4.66-7.17,7.76-2.71,4.84-3.46,10.271-1.84,15.64,2,6.68,4.56,12.93,7.03,19.48.12.32.26,1,.28,1.28.02.36-1.04.64-1.43.61l-5.7-14.43c-5.18-13.13-17.37-18.34-30.53-13.6-2.53.91-5.07,1.56-7.65,1.38,3.32-3.38,7.16-4.88,11.03-7,12.39-6.78,25-12.44,38.49-16.78,3.71-2.22,6.05-5.49,8.02-9.3,1.94-4.56,2.78-9.29,3.15-14.35l2.45-33.34,2.74,34.83c.33,4.25.95,8.2,2.73,12.02,1.74,3.73,4.22,8.05,8.24,9.57l16.37,6.19c11.47,4.83,22.42,10.2,32.98,17.55Z"/>
        <path d="M282.08,294.62l-14.53,8.48c-9.77,5.12-19.85,9.15-30.33,12.62-4.38,1.45-7.7,3.95-10.16,7.89-2.7,4.3-4.01,9.04-4.43,14.24l-2.84,34.83-2.31-31.1c-.29-3.96-.7-7.66-1.84-11.4-1.54-5.09-4.45-9.83-9.02-12.61-2.61-1.59-5.51-2.18-8.43-3.22-12.42-4.42-24.22-9.83-35.71-16.22l-5.81-3.66c6.55-.7,10.99,3.01,19.13,2.14,7.5-.81,13.87-5.03,16.89-11.95l7.75-17.75,1.49,1-8.2,19.98c-2.88,7-.72,14.5,4.56,19.61l7.34,5.79c5.38,4.24,10.13,8.65,14.24,14.32,4.54-6.42,9.72-11.31,15.85-15.59,2.65-1.84,5.15-3.8,7.19-6.27,4.61-5.6,5.28-12.93,2.56-19.59l-7.28-17.81c-.17-.39.09-1.12.41-1.26.34-.15,1.15.3,1.32.7l6.25,15.04c1.76,4.23,4.33,7.97,8.19,10.49,5.79,3.79,12.7,4.28,19.27,2.36,2.73-.79,5.19-1.58,8.45-1.06Z"/>
        <path d="M369.68,222.42l-26.58,1.97-10.89,1.57c-6.55,1.7-12.47,5.48-15.73,11.51l-4.06,10.21c-4.86,12.24-10.46,25.1-18.8,35.9-.6-3.26.48-6,1.16-8.97,2.33-10.07-2.05-20.05-11.53-24.57l-18.49-7.59c.17-.68.44-1.39.71-1.86l20.38,8.13c6.97,2.78,14.34,1.66,20.06-3.09,2.6-2.17,4.61-4.8,6.56-7.64,4.02-5.85,8.46-11.06,14.5-15.42-5.39-3.97-9.65-8.27-13.47-13.42-2.11-2.84-4.11-5.52-6.64-7.93-5.84-5.4-13.67-6.86-21.13-3.75l-19.72,8.25c-.44.08-1.18-1.26-.89-1.47l17.59-7.58c9.87-4.47,14.82-15.11,11.93-25.57-.7-2.55-1.31-4.95-.91-7.88,10.83,13.73,15.59,28.3,22.07,43.72,2.64,6.31,9.15,10.28,15.49,12.01,4.35,1.18,8.45,1.48,12.93,1.78l25.46,1.689Z"/>
        <path d="M174.28,241.88c-6.54,2.49-13.13,4.62-19.37,7.93-9.53,5.06-13.99,15.4-10.96,25.68.76,2.57,1.28,5.01,1.11,7.84-6.15-7.61-10.54-16.02-14.42-24.91l-7.67-19.72c-3.48-8.96-14.17-13.19-23.83-13.89l-25.4-1.86c-1.19-.09-2.15-.13-3.02-.57l30.63-2.14c8.78-.61,18.71-5.37,22.02-13.38,4.18-10.11,7.94-19.96,13.22-29.52l4.73-7.59,4.64-6.41c.14,2.98-.36,5.38-1.09,8.09-1.93,7.16-.68,14.68,4.07,20.46,2.32,2.83,5.35,4.82,8.68,6.31,5.47,2.46,10.8,4.37,16.56,6.33l-.64,1.6c-6.25-1.96-12-4.08-17.94-6.71-9.16-4.06-17.47-4.08-24.7,3.29l-5.62,6.73c-4.01,4.81-7.91,9.4-13.17,13.22,4.27,3.26,7.95,6.79,11.07,11.06l6.19,8.43c6.16,7.94,14.88,10.01,24.14,5.99,6.45-2.92,12.61-5.3,19.59-7.63.53.28.91.77,1.18,1.37Z"/>
        <path d="M180.275,241.567c-.071-2.463-.047-4.927-.023-7.391-1.794-5.822-2.222-12.097-1.002-18.406,1.7-8.8,6.6-16.63,13.31-22.38,8.933-7.664,20.232-10.859,31.14-9.81.271-.317.627-.56,1.027-.671,2.378-.66,4.767-1.28,7.163-1.869-3.7-.991-7.564-1.53-11.51-1.57-20.22-.2-38.23,12.47-44.18,31.91-3.37,11.04-1.59,22.86,4.19,32.9.006.011.013.021.019.031-.06-.913-.108-1.827-.134-2.744Z"/>
        <path d="M257.395,241.061c-.834.708-1.675,1.409-2.524,2.1-3.215,5.366-7.784,10.084-13.681,13.58-13.54,8.03-30.51,7.87-43.69-.36-5.329-3.333-9.722-7.751-12.935-12.842.079,1.507.187,3.013.375,4.513.13.9.302,1.795.473,2.689.047.247.102.492.15.739,8.14,9.23,19.913,14.822,32.727,15.161,19.35.53,36.87-10.85,43.52-28.78.118-.318.22-.64.33-.959-1.566,1.403-3.142,2.797-4.745,4.159Z"/>
        <path d="M250.72,197.16c9.323,10.35,11.85,24.549,8.067,37.125,1.732-1.548,3.455-3.108,5.175-4.67,1.236-7.8.31-15.813-2.762-23.165-4.325-10.362-12.279-18.263-21.994-22.762-2.357.47-4.701,1.003-7.033,1.587,6.93,2.156,13.376,6.136,18.547,11.884Z"/>
        <path d="M406.77,408.75l-10.18-.9-9.53-.63c-3.65-.24-6.92-1.86-9.71-4.34-3.33,5.95-10.44,7.22-17.02,5.64-8.94-2.16-7.84-13.98-3.57-21.88,3.2-5.81,7.76-10.63,13.14-14.52l.71-.14c.12-.03.48-.021.44.09l-.34.87c-4.18,4.76-7.77,9.83-10.01,15.78-1.03,2.93-1.93,6.03-.83,9,1,2.68,3.83,4.22,6.09,4.67,3.11.62,6.22-.06,8.22-2.42,1.69-1.98,1.48-4.58,1.98-7.26l.94,3.5c1.48,5.5,9.15,7.04,15.32,5.16,1.9-.57,4.05-.76,5.93-.69l.97-6.59c.6-4.02.84-8.18-1.38-11.63-1.66-2.58-4.61-3.14-7.41-3.68l4.73-.76c3.06-.49,4.5-3.93,4.47-6.91-.03-3.71-2.02-7.3-5.61-8.41-2.96-.91-5.96-.05-8.85.84-5.08,1.56-8.79,4.9-13.67,7.79,2.83-5.38,7.65-9.11,12.76-11.64,7.72-3.83,19.61-4.09,21.52,4.4,1.33,5.93.05,13.06-5.8,15.56,5.2,4.18,5.7,12.11,6.09,18.77l.6,10.33Z"/>
        <path d="M405.36,81.7c-1.1,2.99-3.49,4.78-6.71,5.4-8.2,1.57-16.53-1.28-22.7-7.04l-4.89-5.14c-.2-.22-.35-1.05-.2-1.29.19-.29.82-.11,1.23.17l7,4.68c3.51,2.34,7.59,3.61,11.82,3.91,3.53.25,6.44-1.59,7.87-4.66,1.36-2.93,1.66-6.521-.55-9.28-1.92-2.41-5.02-2.2-7.7-2.41,2.49-.9,5.22-1.07,6.8-3.16,2.76-3.68,3.07-8.44,1.92-12.82-.51-1.96-.76-3.9-.8-6.11-1.59.17-3.6.05-5.37-.44-6.28-1.73-13.26-1.36-15.27,4.72l-1.16,3.52c-.33-2.16-.3-4.45-1.65-6.22-2.3-3.02-6.3-3.55-9.73-2.46-3.65,1.17-5.88,4.28-5.51,8.24.73,7.68,5.61,15.02,10.61,20.89.14.16.26.61.29.8.03.2-1.03.4-1.22.24l-5.91-5.01c-9.73-9.561-13.15-27.54-3.99-30.88,5.97-2.17,15.08-1.22,17.89,4.62,2.43-2.12,5.14-3.63,8.27-3.88l11.61-.94,9.36-.78-.49,7.77c-.47,7.51-.44,15.37-5.97,20.89,6.24,2.53,7.36,10.68,5.15,16.67Z"/>
        <path d="M79.93,408.42c-6.11,1.69-13.43.43-16.43-5.56-3.05,2.48-6.76,4.22-10.82,4.45l-11.1.63-7.37.88.55-7.79c.53-7.44.05-16.43,5.73-21.23-1.96-1.33-3.75-2.75-4.64-4.84-1.57-3.72-1.82-7.86-.65-11.65,2.39-7.72,13.5-7.26,20.42-3.99,5.37,2.54,10.23,6.35,13.34,11.86-4.23-2.33-7.41-5.19-11.58-6.91-5.99-2.47-12.27-3.62-15.21,2.23-1.55,3.06-1.7,6.75.45,9.52,1.76,2.27,4.38,2.19,7.42,2.76-4.33.52-7.63,2.46-8.64,6.85-1.47,6.31,1.15,9.77,1.02,15,2.1-.04,4.36.25,6.58.83,4.51,1.2,9.54.88,12.99-2.41,1.84-1.75,1.82-4.25,2.93-6.78l.97,5.05c.35,1.82,1.45,3.77,3.24,4.55,3.52,1.52,7.69.57,10.23-2.3,3.38-3.79.59-11.12-2-16.03-2.18-4.14-5.15-7.52-7.82-11.4,2.94.6,4.34,2.74,6.19,4.46,4.76,4.42,8.34,9.86,10,16.16,1.77,6.74.96,13.79-5.8,15.66Z"/>
        <path d="M85.22,54.9c-2.82,7.37-7.6,13.47-13.82,18.36l-.77-.66c3.71-4.55,6.62-9.15,8.94-14.42.97-2.96,2.03-5.97,1.55-9.12-.66-4.34-5.07-6.85-9.24-6.49-2.74.24-4.41,1.96-4.99,4.48l-1.2,5.18-1.41-4.311c-.64-1.97-2.05-3.38-4.02-4.22-6.88-2.9-11.5.77-17.22.27-.09,1.78-.3,3.51-.76,5.01-2.25,7.24-.43,15.8,6.44,16.4.41.04,1.37.54,1.47.68-2.86.05-5.85.29-7.45,2.91-2.65,4.34-.84,10.62,3.88,12.73,2.6,1.16,5.44.61,8.13-.06,5.72-1.42,10.31-4.7,15.26-8.23-.05,1.94-1.49,2.93-2.47,4.18-4,5.11-9.4,8.28-15.78,9.37-6.83,1.17-14.3.65-16.2-6.21-1.59-5.78-.46-13.06,5.25-15.68-4.62-4.34-5.18-11.87-5.53-18.3l-.56-10.35c9.82,1.54,21.95-.74,30.09,5.271,2.89-5.75,11.73-6.54,17.38-4.17,6.04,2.54,5.26,11.04,3.03,17.38Z"/>
        <path d="M396.34,221.94c-6.08,4.93-11.23,11.27-13.01,19.04-1.15,5.06-1.92,9.92-5.15,14.12-5.45,8.18-14.82,12.26-24.65,10.87-5.71-.81-11.03-2.33-16.31-4.59l-20.84-8.9c.15-.93.46-1.78.94-2.61l18.03,7.04c5.32,2.07,10.7,3.49,16.52,4.57,15.19,2.8,25.25-8.92,29.49-22.43-1.88-6.99,1.28-13.67,7.93-17.01-6.78-3.76-9.8-9.07-8.19-17.1-3.95-13.56-14.22-24.17-29-21.51-5.77,1.04-11.3,2.6-16.75,4.87l-18.34,7.65-.96-2.57,15.42-7.1c5.43-2.5,10.88-4.61,16.67-6.08,13.11-3.33,25.46-.35,31.64,12.03,2.08,3.51,2.32,7.39,3.39,11.29,2.05,7.43,7.18,13.42,13.17,18.42Z"/>
        <path d="M121.84,249.95l1.02,2.57-23.18,9.86c-4.99,2.13-10.1,3.43-15.5,3.8-8.5.6-16.5-2.9-21.64-9.57-3.46-4.75-5.24-10.02-5.89-15.86-2.24-7.32-6.86-13.37-13.1-18.43,5.94-4.95,11.04-11.17,13.15-18.91,1.06-3.89,1.31-7.79,3.39-11.26,10.28-19.22,30.69-13.98,47.91-6.08l15.67,7.19-1.24,2.52-18.64-7.75c-5.21-2.16-10.45-3.55-15.98-4.59-15.03-2.84-25.2,8.05-29.05,21.89,1.67,7.56-1.44,13.29-8.28,17.08,6.49,3.29,9.81,8.99,8.14,16.9,3.88,13.25,14.07,24.54,28.36,22.37,4.54-.69,8.88-1.62,13.18-3.3l21.68-8.43Z"/>
        <path d="M172.56,137.36c-.83.65-1.69,1.13-2.77,1.59-4.4-7.11-8.57-13.88-13.67-20.44-5.83-7.49-12.82-14.74-22.53-15.64-4.59-.19-8.97,1.15-12.69,3.87-4.22,1.33-8.32.03-12.57-2.2,1.26,4.5,1.5,8.51.36,12.77-.47,1.75-.5,3.53-.41,5.45.04.77-.26,2.41-1.04,2.95-7.11,4.89-9.56,13.69-5.82,21.32,1.35,2.76,3.08,5.24,5.27,7.44,3.52,3.56,7.12,6.84,11.24,9.69l14.95,10.33-1.29,2.48c-7.38-4.52-14.44-8.9-21.46-13.97-11.11-8.02-18.37-17.39-14.06-31.46,1.57-4.62,3.89-8.68,6.83-12.59,1.9-5.82,2.77-11.64,2.37-18.1,5.93,1.29,11.8.13,17.5-1.99,8.39-3.12,17.16-1.61,24.37,3.59,4.5,3.42,8.04,7.56,11.26,12.29,5.03,7.42,9.42,14.8,14.16,22.62Z"/>
        <path d="M339.66,153.75c-3.01,3.78-6.45,6.98-10.52,9.67l-20.86,13.76-1.48-2.46c7.58-4.99,14.79-9.85,21.62-15.75,3.68-3.18,6.86-6.46,9.2-10.65,4.57-8.16,2.12-18.05-5.82-22.98-1.17-2.53.08-5.12-1.09-8.93-1.23-3.97-.48-7.92.67-11.83-3.99,1.62-8.22,3.68-12.09,2.16-6.72-4.19-14.45-5.46-21.64-1.28-8.51,4.67-15.86,14.87-21.1,23.29l-6.3,10.11-2.6-1.48,3.84-6.6c5.86-10.08,12.71-22.68,22.23-28.98,7.19-4.93,15.93-5.88,24.16-2.86,5.21,1.91,10.63,3.05,16.32,2.03.16,6.2,0,12.54,2.86,18.05,2.07,3.99,5.09,7.24,6.22,11.68,2.94,7.93,1.65,16.42-3.62,23.05Z"/>
        <path d="M343.69,314.17c-1.12,4.76-4.07,8.5-6.1,12.82-2.42,5.15-2.39,10.81-2.29,16.53-6.07-1.76-12.04-.63-17.61,1.78-15.57,6.74-29.16-2.15-37.6-15.61l-13.04-20.78,2.61-1.42c4.35,6.87,8.44,13.33,13.43,19.57,6.71,8.38,15.05,16.51,26.2,15.07,4.02-.31,7.06-2.68,10.5-4.3,4.05-1.9,8.51-.23,12.57,1.57-1.1-3.84-1.4-7.47-.41-11.24.26-.99.33-2.39.36-3.39-.8-2.37.55-3.94,1.98-5.38,6.32-6.34,7.48-15.57,2.8-23.11-6.05-9.72-20.25-18.26-30.24-24.85l1.54-2.55,14.22,8.97,12.28,9.02c2.29,1.69,4.06,3.97,5.68,6.28,4.37,6.2,5.39,13.78,3.12,21.02Z"/>
        <path d="M172.68,308.76l-8.36,13.42c-3.25,5.22-6.59,10.15-10.64,14.76-8.31,9.46-19.89,13.51-31.69,8.32-5.37-2.49-11.79-3.45-17.61-1.76.5-6.06-.2-11.74-2.2-17.28-2.7-3.9-5-7.8-6.38-12.29-2.68-8.48-.61-17,5.27-23.65,3.18-3.59,6.77-6.65,10.83-9.33l18.36-12.11,1.5,2.49c-9.73,6.61-22.13,14.47-28.75,23.87-5.42,7.7-4.43,17.66,2.41,24.03,2.13,1.72,2.72,4.26,2.06,7.01,1.45,4.25,1.33,8.82.22,13.07,3.68-1.51,8.82-3.83,12.38-1.44,13.08,8.82,23.98,3.46,33.63-7.64,6.17-7.1,11.18-14.65,16.24-22.74l2.73,1.27Z"/>
        <path d="M371.3,363.98l-2.33,2.189-1.99-4.04-5.44-10.19c-1.07-2-3.65-2.37-5.54-1.18-4.67,2.94-9.27,9.1-5.45,11.26l5.09,2.87,9.51,4.88-2.3,2.75c-10.25-3.67-21.09-2.04-30.39,4.06l-3.14-5.97,12.2-10.75,3.65-3.88,4.57-5.521,5.53-4.25c6.47-5.85,11.78-12.58,17.01-19.62l3.86,2.44c-6.39,10.7-8.96,22.84-4.84,34.95Z"/>
        <path d="M375.37,116.32l-4.02,2.71c-5.29-7.15-10.87-13.8-17.11-20.2-3.35-1.94-5.99-4.36-8.32-7.41l-8.25-8.97-8.4-7.62,3.18-5.73,7.21,3.53c7.3,2.87,15.09,2.57,22.46-.3l2.18,2.72-13.61,7.04c-1,.52-2.21,1.69-2.48,2.59-.87,2.91,3.22,7.04,6.35,9.27,2,1.41,4.64.92,5.76-1.14l3.27-6.02,4.03-8.54,2.62,2.23c-5.24,12.02-1.65,24.979,5.13,35.84Z"/>
        <path d="M110.72,370.47l-3.07,6.02c-9.05-5.89-19.89-7.82-30.14-4.08l-2.59-2.62,13.84-7.33c2.16-1.15,2.72-3.47,1.53-5.33-2.88-4.51-8.19-9.64-11.03-5.94-1.51,1.96-2.74,4.09-3.82,6.29l-4.18,8.51-2.28-2.06c4.22-11.94,1.51-24.3-4.89-35.01l3.61-2.32c4.96,6.84,10.34,12.95,16.21,18.95,4.49,2.43,7.41,6.18,10.73,9.89l3.71,4.14,12.37,10.89Z"/>
        <path d="M111.13,74.69c-5.77,5.12-11.94,10.02-16.73,16.26-2.63,3.42-5.61,5.72-8.79,8.52-6.49,5.73-11.49,12.59-16.86,19.48l-3.61-2.62c6.54-10.92,9.88-23.8,5.25-35.81l2.53-2.09,2.55,5.52c2.28,4.94,4.93,13.34,9.77,10.22,2.52-1.61,4.72-3.92,6.12-6.5,1.16-2.16.25-4.13-1.76-5.189-4.6-2.43-8.92-4.7-13.4-7.48l2.44-2.74c9.9,4.33,20.34,2.51,29.48-3.22l3.01,5.65Z"/>
        <path d="M402.49,120.64c5.81,4.11,1.24,13.45-4.59,18.04.18-5.28-.88-10.22-4.05-14.47-5.15-.49-9.41-3.27-12.05-7.72-2.95-5.47-3.25-11.98-.39-17.54,2.73-5.32,8.06-8.06,14.05-8.02l9.79.07.84,5.92c.16,1.18-.47,2.67-1.22,3.55-2.47-2.36-4.67-4.27-7.93-4.7-4.53-.59-8.66,1.88-10.77,5.55-2.25,3.94-1.92,8.62.74,12.34,2.53,3.53,6.86,5.25,11.05,4.08,3.04-.85,4.98-3.35,4.69-6.76,1.8-.28,2.7.92,3,2.33.59,2.81-.76,5.45-3.16,7.33Z"/>
        <path d="M59.02,115.85c-2.42,4.84-6.84,7.71-12.16,8.47-3.2,3.96-4.03,9.34-3.89,14.48-5.38-4.42-10.21-12.83-4.8-17.98-1.76-2.07-3.61-4.46-2.95-7.41.33-1.48,1.44-2.74,2.99-2.46-.28,3.3,1.5,5.67,4.37,6.66,4.11,1.42,8.5-.22,11.09-3.77,2.19-2.99,3.01-6.59,1.84-10.4-.88-2.83-3.27-5.98-6.59-7.16-4.64-1.66-9.29.19-12.33,4.27-1.27-.9-1.71-2.83-1.47-4.4l.81-5.26c8.06,1,15.51-2.69,21.09,4.05,4.89,5.9,5.43,14.06,2,20.91Z"/>
        <path d="M351.3,46.24c.03,4.41-.74,8.74-3.54,11.92-3.73,4.23-9.26,5.35-14.71,4.6-7.61-1.05-13.61-6.63-14.27-14.58-1.12-1.01-2.56-1.81-4.02-2.35-.23,1.71-.89,2.53-2.39,2.28l1.13-2.69c-2.87-.85-5.32-.86-8.53-.82,4.25-5.72,11.88-9.97,16.64-4.93,1.95-2.12,4.59-3.5,7.28-2.77,1.43.39,2.69,1.31,2.41,3-3.2-.52-5.89,1.39-6.66,4.49-.95,3.83.39,7.56,3.03,10.12,2.73,2.65,6.46,3.72,10.35,2.9,6.26-1.31,9.68-7.68,7.33-13.74-.79-2.03-2.27-3.8-3.85-5.57,1.71-1.86,4.08-1.29,6.39-1.05l3.36.36.05,8.83Z"/>
        <path d="M136.19,44.64c-5.06-.38-9.84.34-13.38,3.36-.76,5.66-4.02,10.63-9.35,13.08-7.78,3.59-18.65,2.06-21.98-5.46-3.06-6.89.11-11.96-1.27-18.21l4.35-.5c1.86-.22,3.76-.32,5.12,1.23-2.32,2.14-4.05,4.54-4.56,7.51-.65,3.79.79,7.28,3.8,9.65,2.91,2.29,6.66,2.89,10.5,1.68,2.89-.91,5.82-3.38,7.01-6.78,1.03-2.96.74-6.14-1.34-8.56-1.22-1.43-3.21-1.8-5.24-1.87.17-1.9,1.87-2.9,3.64-3,2.24-.12,4.22.92,6.03,2.87,4.95-5.17,12.82-.62,16.67,5Z"/>
        <path d="M385.51,335.24c-1.2,4.47.52,8.82,4.31,11.81,4.65,3.39,10.75,2.28,14.44-1.94l.76-.59c.22-.17.9.63.95.95.26,1.72.02,3.96-.12,5.8l-.2,2.66c-2.9-.46-4.91-.46-7.6-.19-4.59.48-9.25-.48-12.68-3.61-5.38-4.9-6.6-12.53-3.9-19.17,2.28-5.62,7.11-9.03,13.15-9.52,2.92-4.2,4.09-8.85,3.79-14.12,5.55,4.42,10.27,13.22,4.3,17.46,2.47,1.83,3.93,4.27,3.4,7.19-.28,1.53-1.64,2.73-3.02,2.44-.06-.98-.13-2.55-.54-3.26-1.69-2.96-4.92-4.16-8.22-3.75-4.38.55-7.76,3.92-8.82,7.84Z"/>
        <path d="M136.21,400.61c-3.42,5.45-11.2,9.75-16.41,4.86-1.82,1.9-4.04,3.59-6.81,3.13-1.54-.26-2.9-1.05-3.22-2.94,2.73.23,5.08-.62,6.38-3.19,1.48-2.93,1.26-6.26-.45-9.07-3.79-6.23-12.73-7.56-17.99-2.51-4.99,4.78-3.41,11.44,1.63,16.61-2.77,2.22-5.78-.04-9.46.59,1.84-5.57-1.32-9.53,1.04-16.1,3.6-10,16.75-11.66,25.4-5.9,3.98,2.65,6.37,6.75,6.82,11.46,3.63,2.96,8,3.68,13.07,3.06Z"/>
        <path d="M55.37,349.76c-3.51,3.41-8.33,4.38-13.11,3.87-2.35-.24-4.54-.04-6.9.22l-.31-3.23c-.2-2.12-.99-4.23.82-6.41,2.34,2.99,5.19,4.72,8.5,4.76,3.48.04,6.63-1.56,8.73-4.47,3.67-5.12,2.64-12.04-2.62-15.63-3.01-2.05-7.14-2.19-10.09-.15-1.94,1.34-2.74,3.37-2.63,5.7-1.61.23-2.77-1.03-2.96-2.63-.34-2.86,1.03-5.36,3.49-7.08-5.17-4.5-.84-12.979,4.35-17.42-.27,5.23.81,9.83,3.52,14.11,5.41.37,9.7,3.47,12.15,8.3,3.36,6.65,2.49,14.78-2.94,20.06Z"/>
        <path d="M350.09,408.26l-3.15-.3c-2.11.66-4.25,1.22-6.36-.33,2.04-2.24,3.67-4.51,4.27-7.4.94-4.57-.99-8.98-5.2-11.16-4.59-2.36-10.29-1.28-13.85,2.71-2.77,3.1-3.48,7.44-1.62,10.85,1.23,2.25,3.23,3.42,5.99,3.12-.1,1.67-1.31,2.64-2.79,2.88-2.73.43-5.15-.88-6.86-3.15-4.75,5.05-12.54.97-16.44-4.87,4.9.65,9.43.11,13.42-2.89.65-10.01,10.29-15.9,19.93-14.68,6.72.85,11.79,6.01,12.32,12.76l-.3,7.1c-.07,1.8.18,3.33.64,5.36Z"/>
        <path d="M197.49,265.67c-2.72,5.82-5.23,11.29-8.55,16.75-4.71,7.771-13.46,11.24-22.34,8.771-5.41-1.51-10.67-2.39-16.52-1.25.5-5.5-.16-10.3-1.47-15.36-1.67-6.4-.08-12.85,4.41-17.58,2.43-2.51,5.08-4.57,8.31-5.94l14.42-6.1,1.26,1.94-14.32,7.4c-3.47,1.79-6.17,4.58-8.25,7.82-2.48,4.09-2.93,8.74-1.43,13.26,1.23,3.71,1.25,7.26.19,11.41,4.55-1.88,8.47-1.53,12.58.03,9.43,3.59,18.02-1.85,22.92-10.4l6.72-11.7c.61.2,1.4.57,2.07.95Z"/>
        <path d="M197.64,180.55l-1.91,1.28-6.51-11.51c-1.43-2.53-3.33-4.55-5.39-6.59-4.95-4.91-12.02-6.45-18.51-3.59-3.83,1.69-7.86,1.8-11.91.2,1.43,3.91,1.36,7.54.3,11.29-1.26,4.47-1.06,9.05,1.3,13.26,4.91,7.56,13.89,10.88,21.82,14.77l-1.27,2.03-8.38-3.36c-10.63-4.26-18.72-9.88-18.22-22.15l1.21-6.94c.68-3.91.67-7.65.26-11.93,5.4.84,10.46-.04,15.57-1.76,5.26-1.77,11.05-1.56,15.88,1.17,3.63,2.05,6.52,5.14,8.35,8.85l7.41,14.98Z"/>
        <path d="M283.86,190.73c-2.89,2.2-5.91,4.11-9.26,5.65l-10.87,4.99c-.49-.41-1.04-1.31-1.18-1.9l10.26-5.63c3.1-1.69,5.82-3.75,8.5-6.24,4.43-4.49,6.05-10.48,4.26-16.43-1.11-3.7-1.26-7.17.1-11.39-4.33,1.5-8.32,1.22-12.42-.51-5.46-2.31-11.69-1.38-16.23,2.32-2.16,1.76-4.17,3.68-5.49,6.14l-7.34,13.68c-.52.16-1.63-.49-1.9-1.14l3.76-9.05c1.38-3.32,2.94-6.34,4.96-9.26,4.92-7.1,13.56-9.86,21.84-7.14,5.22,1.72,10.37,2.63,15.96,1.93-.66,4.98-.36,9.63.99,14.36,2.08,7.27-.23,14.67-5.94,19.62Z"/>
        <path d="M289.79,274.89c-1.34,4.97-1.81,9.74-1.31,15.18-5.65-1.18-10.89-.35-16.21,1.15-9.01,2.54-17.74-1.33-22.07-9.46l-7.83-16.17,1.88-1.2,4.88,9.14c1.67,3.12,3.61,6,5.89,8.64,4.78,5.39,11.92,7.28,18.61,4.51,3.76-1.56,7.5-1.53,11.66.02-1.13-3.85-.96-7.38.15-10.98,1.48-4.8,1.02-9.7-1.9-13.81-2.27-2.98-4.98-5.62-8.32-7.37l-13.37-7.02,1.25-2.12,16.65,7.57c2.65,1.21,4.61,3.32,6.6,5.42,3.76,4.63,5.03,10.61,3.44,16.5Z"/>
        <path d="M241.18,159.55l-6.02,18.03c-.73-.03-1.56-.27-2.22-.6,2.08-6.73,4.25-12.99,5.39-19.82.78-4.68-.65-9.09-3.42-12.68-4.75-5.07-11.13-6.8-15.08-13.33-2.39,3.99-5.82,6.83-9.74,9.28-6.13,3.85-9.05,10.33-7.75,17.46,1.18,6.56,2.93,12.63,4.84,19.06l-2.2.74-5.25-16.8c-3.16-10.1-.48-18.24,8.29-23.98,4.51-2.96,8.62-6.3,11.78-10.51l4.19,4.28,8.46,6.14c3.12,2.25,5.97,4.83,7.84,8.22,2.49,4.53,2.52,9.66.89,14.51Z"/>
        <path d="M318.48,222.58c-2.91,2.39-5.13,5.2-7.19,8.24l-6.04,8.91c-7.46,7.67-13.81,6.85-23.2,3.52l-15.58-5.53.65-2.01,9.42,2.95,11.92,3.04c5.11,1.3,10.19-.78,13.75-4.63,4.3-4.66,6.06-11.08,12.17-14.47-2.99-1.61-5.08-3.93-6.97-6.63l-4.59-6.57c-4.2-4.53-9.81-6.22-15.86-4.77l-18.32,5.64c-.52.16-1.2.3-1.52.14-.38-.19-.46-1.65-.08-1.81l14.58-5.55c3.27-1.25,6.34-2.27,9.81-2.59,5.96-.55,11.67,1.9,14.94,6.84l4.33,6.53c2.17,3.28,4.63,6.27,7.78,8.75Z"/>
        <path d="M236.4,305.61l-7.28,5.05c-3.48,2.41-6.8,4.86-9.28,8.08-2.82-3.48-6.3-5.86-9.8-8.38l-7.61-5.47c-6.39-6.38-6.01-13.08-3.02-21.28l5.43-14.9,2.25.65-2.56,7.8c-1.37,4.17-2.61,8.37-3.26,12.74-.67,4.55.93,8.52,3.87,11.94,4.96,4.76,11.58,6.6,14.68,12.74,1.77-3.21,4.46-5.32,7.35-7.38l6.54-4.65c3.97-3.63,5.69-8.79,4.61-14.12-1.31-6.53-3.36-12.47-5.51-19,.58-.32,1.3-.59,2.22-.86l5.58,15.72c2.99,8.44,2.48,15.16-4.21,21.32Z"/>
        <path d="M172.52,237.29l-8.88,3.06-13.66,4.59c-6.87,2.31-13.75-.93-17.75-6.82l-5.27-8.19c-1.75-2.72-3.88-5.05-6.35-7.38,3.26-2.8,5.73-6.14,8.16-9.61l4.17-5.96c2.33-3.311,6.25-5.25,10.34-5.75,3.99-.48,7.66.51,11.38,1.78l17.79,6.07-.8,1.82-20.04-5.61c-6.89-1.93-13.39.81-17.5,6.65l-4.93,7c-1.15,1.64-2.89,2.55-4.76,3.66,6.44,3.52,7.68,9.92,12.35,14.75,3.07,3.18,7.28,4.9,11.95,4.3l6.97-1.42,16.04-4.75.79,1.81Z"/>
        <path d="M243.43,383.65c-9.67,4.06-17.83,10.41-23.63,18.88-5.97-8.6-14.06-14.76-23.61-18.87.07-1.39.73-2.24,1.86-3.25,2.95,1.44,6.35.5,9.36,1.53,5.8,1.979,9.8,7.2,12.46,12.479,2-4.76,5.29-8.34,9.35-11.09,1.4-.95,2.83-1.74,4.76-1.68l7.22-.92c1.06-.13,2.44,1.67,2.23,2.92Z"/>
        <path d="M242.76,61.22l-1.69,3.37-8.9-.81c-5.55-2.09-9.71-6.65-12.33-12.43-2.45,4.96-6.13,10.24-11.84,12.16-2.84.95-5.95-.04-8.89,1.27l-1.75-3.56c9.33-3.88,17.01-10.07,22.49-18.35,5.72,8.56,13.44,14.52,22.91,18.35Z"/>
        <path d="M184.63,108.49l8.72,19.31c-.61.47-1.51.83-2.52.99-4.38-8.28-8.51-16.2-11.96-24.8-2.31-5.75-3.92-11.37-4.03-17.53-.21-12.24,7.95-22.46,20.05-24.41l1.29,3.41c-11.11,4.59-17.88,15.01-16.14,26.92.82,5.58,2.2,10.8,4.59,16.11Z"/>
        <path d="M264.78,86.44c-.16,4.61-.98,8.82-2.43,13.229-2.85,8.67-6.82,16.74-10.9,24.88l-2.24,4.46-2.59-1.14,5.14-11.21c2.9-6.36,5.32-12.74,7-19.52,3.52-14.24-1.66-25.52-14.91-31.64l1.22-3.54c11.91,2.07,20.13,12.43,19.71,24.48Z"/>
        <path d="M194.98,379.36l-1.48,3.36c-10.99-2.58-18.68-12.47-18.59-24.01.05-6.02,1.59-11.63,3.91-17.229l10.4-21.271,1.69-3.32,2.45,1.11-6.41,13.71c-2.85,6.1-5.11,12.25-6.57,18.83-2.64,11.97,3.31,23.21,14.6,28.82Z"/>
        <path d="M262.99,367.34c-2.63,7.73-9.08,13.43-16.92,15.35l-1.44-3.31c11.64-5.96,17.19-17.08,14.2-29.91-1.43-6.1-3.4-11.84-6.02-17.52l-6.45-14,2.6-1.18,7.76,15.75c5.26,10.68,10.14,23.41,6.27,34.82Z"/>
        <path d="M431.92,19.28c-.94,5.69-6.15,9.96-11.89,8.46-.91-.24-.88-2.55-.42-3.07,1.58-.61,2.52-.97,4.2-2.14-2.5-1.05-3.65-2.35-3.62-4.99-2.02,1.33-3.09,2.74-2.64,5.42l-3.48-.04c-2.47-4.39-.78-9.52,3.66-11.91,4.1-2.2,8.72-1.91,13.38-.47.67,2.81,1.31,5.74.81,8.74Z"/>
        <path d="M27.67,22.82c-1.06.42-2.57.38-3.61.09.25-2.47-.61-4.17-2.74-5.09-.2,2.3-1.18,3.73-3.68,4.49.74,1.12,2.08,1.7,3.65,2.27.72.29.9,2.27.33,2.96-2.8.94-5.81.3-8.13-1.45-4.47-3.38-4.68-9.66-2.45-15.09,3.77-1.85,8.21-2.06,12.01-.4,4.86,2.11,6.99,7.51,4.62,12.22Z"/>
        <path d="M431.51,433.48c-4.89,1.46-10.29,1.33-14.52-1.53-3.44-2.32-4.79-6.36-2.89-10.1.87-.45,2.28-.46,3.63-.25-.21,2.39.74,3.98,2.74,4.91.06-2.4,1.43-4,4.02-4.59-1.07-1.6-2.63-2.12-4.83-1.92l.03-3.3c1.5-.85,3.22-1.1,4.93-.73,7.4,1.62,9.09,9.97,6.89,17.51Z"/>
        <path d="M26.63,429.1c-3.4,5.32-10.25,5.9-15.94,3.78-2.59-7.08-.93-14.81,5.89-16.8,1.68-.5,3.56-.08,5.12.59l.02,3.35c-1.92-.16-3.39.22-4.74,1.68,2.48.74,4.01,2.23,3.92,4.83,2.13-.49,3.18-2.05,3.03-4.59.51-.5,2.32-.45,3.01,0,1.22,2.32,1.04,5.04-.31,7.16Z"/>
        <path d="M57.32,20.99c-.48,1.25-1.69,2.21-2.99,2.14l-3.27-.17c1.64-1.55,2.07-3.22,1.39-4.9-.67-1.65-2.65-2.8-4.54-2.23.82.98,1.56,2.02,1.38,2.95-.19.96-1.02,1.71-2.17,2.47l.78,1.59c-1.9.36-4.88.66-7.02-.05-2.75-2.46-2.48-6.78-.42-9.71,2.61-3.69,7.42-4.48,11.58-3.01,4.58,1.61,7.03,6.35,5.28,10.92Z"/>
        <path d="M254.21,22.59c-1.76,1.09-4.36.36-6.64.38l1.15-1.83c-.99-.6-1.93-1.29-2.28-2.17-.34-.86.24-2.03,1-3.05-1.74-.689-3.71.35-4.5,1.96-.83,1.7-.29,3.45,1.28,5.08-1.84.13-3.75.24-5.38-.26-2.88-3.42-2.06-8.7,1.51-11.27,3.32-2.38,7.49-2.65,11.11-1.03,2.37,1.06,4.04,3.03,4.53,5.2.54,2.37.4,5.63-1.78,6.99Z"/>
        <path d="M342.39,22.51c-2.2.98-4.81.67-7.24.38l1.27-1.77c-1.16-.73-2-1.28-2.43-2.15-.47-.94.36-2.14,1.39-3.02-1.79-.75-3.9.23-4.65,1.81-.84,1.75-.37,3.59,1.36,5.21l-3.68.12c-.9.04-2.24-.72-2.63-1.67-1.25-3-.98-6.53,1.38-8.93,3.89-3.95,10.59-4.28,14.67-.41,2.84,2.7,2.96,7.46.56,10.43Z"/>
        <path d="M202.17,22.61c-1.33.83-3.61.51-5.18.34,1.57-1.49,2.27-3.12,1.43-4.92-.67-1.46-2.68-2.62-4.41-2.08.89,1.03,1.49,2.08,1.17,3.21-.23.8-1.35,1.48-2.58,2.01l1.29,1.85c-2.19.05-4.96.34-7.01-.32-2.08-1.79-2.24-4.84-1.42-7.49.63-2.02,2.37-3.91,4.89-4.9,4.14-1.62,9.43-.71,12.19,2.91,2.15,2.82,2.33,7.07-.37,9.39Z"/>
        <path d="M400.58,22.69c-2.21.71-4.75.479-7.07.229l1.36-1.7c-1.15-.83-1.9-1.36-2.2-2.21-.33-.92.24-2.05,1.05-3.1-1.68-.65-3.64.33-4.37,1.78-.94,1.87-.26,3.67,1.34,5.15-1.66.26-3.89.46-5.17-.11-2.12-1.78-2.19-4.53-1.56-7,.57-2.28,2.28-4.24,4.74-5.3,3.79-1.64,8.2-1.46,11.4,1.42,3.04,2.74,3.41,7.89.48,10.84Z"/>
        <path d="M114.5,22.84c-1.63.26-3.38.24-5.06.16,1.54-1.59,2.11-2.92,1.56-4.74-.44-1.45-2.07-3-4.33-2.41.52.86,1.27,2.03,1.05,2.92-.28,1.13-1.25,1.79-2.62,2.39l.99,1.84c-2.08.05-4.84.39-6.76-.28-2.17-1.71-2.2-4.8-1.52-7.29.6-2.18,2.37-4.24,4.86-5.22,3.9-1.54,8.68-.82,11.66,2.271,2.75,2.86,2.85,7.5.17,10.36Z"/>
        <path d="M143.83,22.62c-1.14.76-3.44.4-4.83.32,1.48-1.61,2.03-3.37,1.2-5.07-.76-1.57-2.71-2.47-4.33-2.03.86,1.03,1.35,2.14,1.03,3.34-.22.85-1.26,1.58-2.43,2.16l1.03,1.59c-2.33.21-4.82.35-6.97-.22-3.32-3.95-1.85-9.74,2.58-12.07,5.55-2.93,13.42-.07,14.47,5.36.44,2.29.4,5.18-1.75,6.62Z"/>
        <path d="M371.17,22.55c-1.79,1.16-4.69.5-6.77.37l1.38-1.88c-1.15-.65-2-1.16-2.32-2.01-.35-.94.21-2.09,1.06-3.12-1.69-.73-3.59.35-4.32,1.8-.95,1.88-.36,3.6,1.42,5.25-1.81.16-3.73.24-5.41-.16-2.92-3.22-2.26-8.12,1.01-10.94,3.03-2.6,7.44-3.09,11.12-1.62,2.4.96,4.16,2.94,4.65,5.05.59,2.54.55,5.72-1.82,7.26Z"/>
        <path d="M173.92,21.64c-.49.89-1.93,1.59-2.83,1.53l-3.37-.2c1.77-1.56,2.3-3.14,1.61-5.01-.59-1.61-2.61-2.62-4.3-2.1.9.97,1.43,2.13,1.07,3.32-.26.86-1.3,1.53-2.63,2.05l1.05,1.77-5.17.13c-3.15.07-4.57-5.27-2.29-9.42,2.59-4.729,10.41-5.75,15.14-1.82,2.86,2.37,3.5,6.5,1.72,9.75Z"/>
        <path d="M284.88,21.1c-.33.72-1.46,1.95-2.15,1.95h-6.03l1.44-2.1c-1.14-.48-2.1-1-2.57-1.96-.43-.87.19-2.05,1.08-3.07-1.69-.76-3.65.32-4.39,1.771-.96,1.88-.37,3.64,1.35,5.16-1.92.26-3.51.27-5.37-.05-2.99-3.7-2.01-9.19,2.12-11.74,3.64-2.26,8.5-2.25,11.95.27,3.15,2.3,4.16,6.32,2.57,9.77Z"/>
        <path d="M85.25,22.81c-1.54.34-3.37.31-5,.19,1.55-1.76,2.13-3.46,1.24-5.13-.84-1.58-2.77-2.7-4.56-1.94.84.96,1.54,2,1.37,2.9-.21,1.08-1,1.73-2.4,2.42l.83,1.66c-1.96.12-4.87.76-6.56-.31-2.16-1.36-2.22-4.61-1.67-6.92,1.37-5.7,8.62-7.96,14.26-4.9,4.41,2.4,5.76,8.11,2.49,12.03Z"/>
        <path d="M312.92,22.62c-2.08.8-4.65.51-6.92.28l1.34-1.92c-1.02-.561-2.07-1.14-2.39-1.82-.5-1.06.08-2.5,1.05-3.28-1.75-.69-3.76.27-4.51,1.84-.87,1.81-.31,3.7,1.22,5.09-1.63.31-4,.71-5.25-.37-2.03-1.76-2.01-4.87-1.14-7.47.72-2.13,2.68-3.92,5.28-4.84,3.96-1.39,8.43-.83,11.34,2.46,2.42,2.73,2.58,7.34-.02,10.03Z"/>
        <path d="M15.53,48.75c-.15.99.92,2.48,1.95,2.86,1.62.6,2.67.09,4.38-.94l.03,4.82c-3.64,2.89-8.67,2.18-11.3-1.77-2.54-3.81-2.57-9.09.5-12.78,2.64-3.18,7.96-3.35,10.91-.43,1.1,2.19.59,5.35-.01,7.49l-2.77-1.96c-1.18,1.57-1.35,2.4-3.69,2.71Z"/>
        <path d="M429.8,54.55c-2.56,2.94-6.97,3.74-10.16,1.24-.52-1.39-.35-3.66-.12-5,1.32.73,2.47,1.15,3.71.87.81-.18,1.74-1.14,2.36-2.37l-4.18-3.1-1.88,1.49c-.2-2.22-.85-5.12.41-7.14,1.41-2.28,4.83-2.23,7.21-1.54,2.41.71,4.2,2.86,4.91,5.62.88,3.45.11,7.2-2.26,9.93Z"/>
        <path d="M21.52,80.39c.46,1.1.85,3.67-.35,4.74-2.91,2.61-7.62,1.74-10-1.23-2.85-3.55-3.2-8.39-.86-12.28,2.32-3.85,7.49-4.86,11.11-1.99,1.01,2.04.76,5.1.19,7.17-1.14-.69-2.26-1.24-2.97-1.25-.8,1.54-1.27,2.17-3.18,3.02.19.81,1.14,2.12,2.01,2.43,1.02.36,2.77.04,4.05-.61Z"/>
        <path d="M21.49,109.57c.39,1.24.79,3.66-.24,4.78-1.76,1.91-4.56,2.03-7.02,1.2-4.43-1.5-6.57-7.98-4.76-12.94.87-2.37,2.64-4.26,4.82-4.87,2.26-.64,5.51-.65,6.97,1.52,1.16,1.74.44,4.9.41,6.89-.94-.6-2.25-1.28-3.27-1.56-.86,1.62-1.2,2.31-2.99,3.37.18.94,1.26,2.2,2.15,2.43,1.32.33,2.67-.08,3.93-.82Z"/>
        <path d="M21.6,168.34c.17,1.28.229,3.25-.1,4.64-2.77,2.79-7.36,2.439-9.99-.43-3.38-3.7-3.72-9.25-.79-13.34,2.41-3.37,7.52-4.18,10.55-1.26.91,2.13.64,5.02.24,7.19-.76-.72-2.44-1.75-3-1.24l-2.92,2.95c-.22.84,1.18,2.28,2.06,2.51,1.33.34,2.55-.09,3.95-1.02Z"/>
        <path d="M429.17,172.82c-2.68,2.59-6.72,2.85-9.63.58-.34-1.52-.32-3.51-.21-4.94,1.45.69,2.28,1.07,3.56,1.021.93-.04,2.07-1.09,2.47-2.34-.57-.96-1.38-2.16-2.21-2.97-1.02-.99-2.68.14-3.69,1.19-.32-2.21-.43-4.93.18-7.23,3.28-3.29,8.91-2.26,11.19,1.77,2.35,4.15,1.75,9.62-1.66,12.92Z"/>
        <path d="M21.55,197.85c.22,1.17.33,3.29-.16,4.61-2.58,2.4-6.73,2.24-9.38-.11-3.53-3.14-4.23-8.39-2.11-12.51,1.07-2.07,2.97-3.42,4.77-3.82,2.34-.53,5.45-.4,6.6,1.8.96,1.83.48,4.76.13,6.71-.68-.77-2.43-1.76-2.96-1.16-.89,1.14-1.44,1.88-2.96,2.93.01.88,1.21,2.17,2.08,2.31,1.39.22,2.58-.1,3.99-.76Z"/>
        <path d="M21.18,402.39c-2.54,3.26-7.82,2.62-10.4-.56-3.28-4.03-2.79-10.19.89-13.77,2.72-2.65,6.81-2.92,9.73-.46.46,1.57.37,3.76.17,5.35-1.33-.86-2.19-1.4-3.41-1.42-.85-.01-2.26.87-2.89,1.51,1.19,1.27,1.43,1.97,1.67,3.84.79,1.14,3.31.34,4.33-1.09.42,1.87.88,4.67-.09,6.6Z"/>
        <path d="M21.59,138.86c.16.99.62,3.45-.19,4.52-2.64,3.16-7.75,2.36-10.27-.75-3.05-3.77-3.27-9.34-.21-13.07,2.64-3.22,7.5-3.83,10.46-.88.75,2.07.49,4.79.14,6.91-.97-.84-2.57-1.68-3.18-1.15-.93,1.19-1.53,1.9-2.91,2.91.25.9,1.34,2.22,2.2,2.47,1.28.35,2.72-.14,3.96-.96Z"/>
        <path d="M430.67,82.75c-2.2,3.74-7.36,5.33-10.85,2.46-1.1-1.04-.58-3.77-.24-4.85,1.27.51,2.56.91,3.56.78.8-.1,2.08-1.26,2.21-2.13-.58-1.2-1.68-2.6-2.82-3.28-.61-.37-2.07.55-2.97,1.11-.17-1.97-.78-4.98.29-6.82,1.22-2.09,4.29-2.12,6.46-1.7,1.99.38,3.93,1.82,4.93,4.01,1.53,3.37,1.33,7.22-.57,10.42Z"/>
        <path d="M429.92,113.02c-2.4,3.09-6.86,4.03-10.06,1.69-.97-1.31-.75-3.85-.33-5.13,1.22.69,2.53,1.07,3.68.84.8-.16,1.86-1.3,2.14-2.27l-2.7-3.49c-1.07.28-2.21.88-3.26,1.51-.17-2.17-.36-4.9.36-7.01,3.05-2.74,8.07-2.21,10.49,1.07,2.81,3.83,2.54,9.11-.32,12.79Z"/>
        <path d="M429.74,201.51c-2.51,2.88-6.95,3.67-10.02,1.29-.69-1.36-.54-3.73-.25-4.95,1.35.52,2.36.85,3.39.82.85-.02,1.92-1,2.53-2.05l-2.81-3.61-3.18,1.46c-.07-1.71-.69-4.89.36-6.68,1.32-2.27,4.52-2.3,6.96-1.67,1.98.5,3.83,2.19,4.74,4.59,1.36,3.58.86,7.84-1.72,10.8Z"/>
        <path d="M430.65,141.41c-2.08,3.46-6.08,4.79-9.79,3.35-.95-.36-1.76-1.71-1.69-2.64l.22-3.22c1.29.72,2.25,1.11,3.49.99.86-.09,2.08-1.18,2.51-2.2l-2.28-3.16c-.62-.86-2.52.13-3.62,1.01-.38-2-.55-4.87.22-6.9,3.1-3.04,8.29-2.21,10.77,1.34,2.33,3.34,2.24,7.979.17,11.43Z"/>
        <path d="M426.99,404.13c-2.34.7-5.58.65-6.88-1.56-1.08-1.83-.34-4.88-.25-6.72,1.22,1.02,3.06,1.8,4.22,1.42l1.46-3.53c-.01-.87-1.45-2-2.36-2.09-1.11-.1-2.33.37-3.45,1.16-.16-1.8-.17-3.67.15-5.45,3.74-2.61,8.43-1.47,10.99,2.28,3.23,4.72,1.92,12.74-3.88,14.49Z"/>
        <path d="M431.59,369.86c-1.7,4.08-6.26,5.98-10.35,4.23-.83-.35-1.7-1.68-1.67-2.48l.21-5.17c1.48,1.01,2.59,1.74,4.28,1.06l1.28-3.22c.35-.9-1.32-2.1-2.13-2.21-1.05-.16-2.28.27-3.42,1.11-.33-1.44-.43-3.72.07-5.41,3.87-2.94,9.36-1.42,11.45,2.88,1.41,2.91,1.52,6.23.28,9.21Z"/>
        <path d="M21.48,249.18l.1,5.15c.01.7-1.02,2-1.7,2.32-3.11,1.45-6.9.87-9.06-1.82-4.07-5.1-1.78-13.55,3.52-15.19,2.5-.78,5.19-.68,7.08,1.29.55,1.18.34,3.57.02,4.88-1.21-.6-2.13-1.1-3.27-1.19-.92-.07-2.23.99-2.86,1.75,1.51,1.15,2.08,2.04,1.85,4.02,1.62.22,2.63-.09,4.32-1.21Z"/>
        <path d="M21.31,366.2c.26,2.05.42,4.35-.07,6.3-2.8,3.36-8.07,2.78-10.69-.79-2.99-4.08-2.38-10.25,1.42-13.64,2.66-2.37,6.93-2.67,9.31.03.84,1.23.43,3.78.14,5.12-1.1-.72-2.09-1.28-3.22-1.35-.85-.05-2.58,1.1-2.35,1.91l.97,3.39c1.14,1.24,3.32.44,4.49-.97Z"/>
        <path d="M431.38,252.59c-.85,2.13-2.7,3.72-4.57,4.31-2.28.73-5.38.84-6.86-1.21-1.24-1.72-.59-4.78-.31-6.79.82.76,2.97,1.92,3.46,1.16l2.3-3.59c-.47-.76-1.72-1.79-2.53-1.84-1.05-.08-2.11.49-3.35,1.24-.24-1.24-.51-3.8.16-5,1.68-1.97,4.45-1.98,6.8-1.36,4.78,1.28,7.06,7.64,4.9,13.08Z"/>
        <path d="M21.35,336.78l.25,4.73c.04.79-.85,2.33-1.61,2.74-4.14,2.23-8.81.35-10.51-3.95-1.37-3.46-.98-7.41,1.29-10.45,2.4-3.21,7.25-4.22,10.37-1.55.93,1.39.59,3.83.21,5.4-1.04-.69-2.04-1.32-3.16-1.41-.92-.08-2.35.89-2.75,1.53.95,1.28,1.17,2.19,1.55,3.72.47,1.19,2.85.78,4.36-.76Z"/>
        <path d="M21.12,307.71c.51,1.82.92,4.47-.21,6.13-1.4,2.06-4.43,2.08-6.73,1.55-2.06-.48-3.86-2.23-4.76-4.59-1.37-3.61-.81-7.86,1.77-10.8,2.58-2.94,7.07-3.53,10.11-1.04.62,1.48.44,3.7.14,5.29-1.12-.63-1.9-1.06-2.93-1.3-.81-.19-2.58.72-2.78,1.37.73,1.37,1.02,2.18,1.33,3.88.25,1.37,3.04.81,4.06-.49Z"/>
        <path d="M430.37,342.36c-3.04,4.09-9.9,3.34-10.55.61-.42-1.76-.28-3.6.01-5.98,1.28.88,3.08,1.81,4.22.61.45-.58,1.16-2.04,1.42-2.76-.1-1.21-1.28-2.15-2.2-2.31-1.32-.23-2.3.26-3.59,1.13l-.15-4.35c-.07-2.16,5.8-3.53,8.9-1.23,4.43,3.3,5.18,9.93,1.94,14.28Z"/>
        <path d="M21.19,278.49c.49,1.88.6,4.35-.13,6.28-2.78,2.54-7.56,2.32-10.05-.59-3.49-4.08-3.02-10.55.94-14.04,2.67-2.34,6.96-2.54,9.35,0,.75,1.35.38,3.71.05,5.16-1.07-.69-2.06-1.3-3.2-1.45-.89-.11-2.29.97-2.71,1.64,1.11,1.12,1.27,1.75,1.64,3.55.271,1.3,2.99.77,4.11-.55Z"/>
        <path d="M426.84,315.33c-2.28.63-5.42.83-6.8-1.39-1.01-1.64-.5-4.51-.24-6.43.79.94,3.06,2.07,3.7.99l1.8-3.07c.45-.76-1.26-2.3-2.12-2.37-1.1-.09-2.39.34-3.44,1.05-.43-1.55-.58-3.89.22-5.32,3.77-2.67,8.88-1.26,11,2.75,2.72,5.16,1.02,12.36-4.12,13.79Z"/>
        <path d="M314.48,427.49c-.38,2.14-1.64,4.04-3.83,5.14-3.89,1.94-8.8,1.63-12.16-1.15-3.15-2.6-3.51-7.061-.81-9.99l4.94-.1c-1.45,1.6-2.02,2.85-1.21,4.63.55,1.22,2.42,2.12,3.93,1.77-.68-1.75-.4-3.04,1.63-3.81l-1.2-2.46c1.9.03,4.61-.47,6.54.21,2.11.74,2.49,3.89,2.17,5.76Z"/>
        <path d="M281.67,432.45c-4.02,2.25-9.38,1.84-12.83-1.27-2.81-2.52-3.05-6.82-.51-9.53l5.09-.21c-1.45,1.45-2.06,2.87-1.39,4.41.6,1.37,2.41,2.23,4.1,1.98-.14-.61-.41-1.85-.14-2.34.28-.49,1.01-.98,1.96-1.66l-1.51-2.3,5.19-.16c1.34-.04,2.46.63,3.05,1.81,1.65,3.36.38,7.37-3.01,9.27Z"/>
        <path d="M430.71,283.01c-2.14,3.66-7.47,4.74-10.82,1.91-.74-2.01-.52-4.47-.12-6.64,1.18,1.26,2.81,1.98,4.23.81l1.21-2.9c.33-.79-1.32-2.14-2.16-2.19-1.1-.05-2.18.43-3.43,1.13-.18-1.35-.45-3.78.1-5.04,1.63-1.96,4.4-1.99,6.77-1.4,4.73,1.17,7.64,8.49,4.22,14.32Z"/>
        <path d="M340.82,432.11c-4.05,2.71-9.62,2.26-13.3-.89-2.22-1.9-2.62-4.87-1.83-7.52.43-1.43,1.64-2.52,3.12-2.43l3.32.21c-1.69,1.42-2.22,2.86-1.45,4.5.62,1.34,2.41,2.21,3.95,1.84-.89-1.91.08-3.31,1.71-3.96l-1.3-2.4,6.62.03c3.33,2.82,2.83,8.16-.84,10.62Z"/>
        <path d="M373.14,427.46c-.27,2.15-1.59,4.1-3.72,5.18-3.67,1.85-8.24,1.68-11.59-.66-2.88-2.01-3.96-5.54-2.62-8.64.64-1.49,1.99-2.2,3.54-2.07l2.88.24c-1.66,1.22-2.32,2.62-1.65,4.28.52,1.32,2.3,2.32,4.13,2.12-.72-1.6-.33-2.97,1.39-4l-.96-2.39c1.76.03,4.65-.51,6.38.24,2.11.92,2.45,3.84,2.22,5.7Z"/>
        <path d="M402.43,427.24c-.18,1.88-1.17,3.94-3.06,5.06-4.08,2.41-9.55,2.08-13.14-1.03-2.87-2.49-3.33-7.12-.4-9.58,1.24-.62,3.33-.36,4.86-.08-1.28,1.18-2,2.55-1.45,4.12.52,1.439,2.18,2.4,4.18,2.11-.21-.6-.54-1.57-.31-2.08.31-.65,1.01-1.35,1.76-2.04l-1.22-2.17c1.97-.01,4.64-.55,6.45.21,2.07.87,2.51,3.62,2.33,5.48Z"/>
        <path d="M111.94,432.17c-5.51,3.32-13.2,1.561-14.6-3.46-.63-2.26-.57-5.54,1.69-6.88,1.88-.87,4.74-.27,6.87-.25l-1.58,2.06c.93.67,1.58,1.11,1.97,1.58.36.44.13,1.67-.08,2.56,1.24.27,3.15-.45,3.75-1.54.92-1.7.53-3.14-.83-4.72l4.75-.02c2.83,3.47,1.9,8.35-1.94,10.67Z"/>
        <path d="M256.09,426.57c-.01,1.99-.94,3.95-2.76,5.27-4.24,3.09-10.56,2.61-14.18-1.24-2.42-2.57-2.43-6.48.06-8.95,1.47-.36,3.59-.3,5.12-.16-.83.92-1.4,1.54-1.71,2.4-.24.68.23,2.14.78,2.71,1.06,1.09,2.66,1.45,3.8,1.29-.28-.78-.62-1.75-.53-2.24.11-.55.92-1.13,1.88-1.78l-1.15-2.38c1.82-.02,4.34-.33,6.16.18,1.99.55,2.54,3.29,2.53,4.9Z"/>
        <path d="M200.24,431.43c-3.2,2.56-7.64,3.06-11.38,1.51-3.89-1.61-5.58-5.84-3.82-9.62.47-.99,1.76-1.96,2.77-1.94l5.35.11-1.59,2.23c.94.42,1.79.8,2.11,1.31.33.55.04,1.89-.27,2.73,1.41.39,3.09-.35,3.86-1.73.8-1.46.51-2.62-.96-4.59,1.52-.06,3.37-.09,4.9.24,2.59,2.87,2.04,7.35-.97,9.75Z"/>
        <path d="M142.17,431.39c-3.04,2.54-7.41,3.12-11.15,1.77-4.22-1.53-6-6.24-3.91-10.17.45-.83,1.77-1.61,2.61-1.59l5.21.12-1.34,2.15c.88.51,1.81,1.12,2.04,1.7.28.69-.07,1.79-.43,2.54,1.43.22,3.3-.48,3.98-1.62,1.01-1.67.52-3.18-.88-4.75l4.75-.07c2.58,3.03,2.23,7.33-.88,9.92Z"/>
        <path d="M55.09,430.79c-3.26,3.47-9.06,4.21-13.16,1.73-1.89-1.14-3-3.14-3.29-4.91-.3-1.92.05-4.78,2.24-5.78,1.88-.85,4.66-.29,6.66-.27l-1.52,2.1c.92.66,1.64,1.19,2.03,1.8.33.521-.09,1.83-.44,2.38,1.64.32,3.46-.41,4.09-1.85.69-1.59.22-3.12-1.22-4.41,1.56-.2,3.4-.27,4.84.07,2.52,2.48,2.25,6.49-.23,9.14Z"/>
        <path d="M171.05,431.48c-2.94,2.4-7.23,2.979-10.84,1.689-4.29-1.54-6.1-6.25-3.96-10.229.4-.74,1.62-1.59,2.38-1.57l5.35.14-1.26,2.08,1.95,1.62c.46.39.03,1.69-.36,2.62,1.08.2,2.51-.17,3.52-1.2.49-.5,1.1-1.9.92-2.51-.23-.74-.7-1.43-1.45-2.65l4.74.11c2.79,3.01,2.14,7.36-.99,9.9Z"/>
        <path d="M83.33,431.67c-3.25,2.561-8.06,3-11.74,1.1-1.92-1-3.25-2.9-3.62-4.59-.45-2.04-.32-5,1.85-6.24,1.86-1.06,4.82-.36,6.9-.39l-1.51,2.11,1.77,1.43c.47.38.14,1.96-.22,2.72,1.36.47,3.2-.43,3.93-1.68.95-1.61.46-2.97-.84-4.62l4.67.1c2.67,3.05,2.01,7.54-1.19,10.06Z"/>
        <path d="M224.31,21.93c-1.83,1.87-5.35,2.2-7.58.64-2.18-1.51-2.49-4.09-2.23-6.42.31-2.89,2.42-5.8,5.49-5.81,2.52,0,4.58,2.26,5.32,4.08,1.08,2.62.96,5.5-1,7.51Z"/>
        <path d="M430.79,222.02c-.05,2.55-2.25,4.52-4.04,5.19-2.44.91-4.98.72-6.89-.99-2.41-2.16-2.41-5.88-.3-8.37,1.68-1.97,4.47-2.45,6.98-1.57,2.07.72,4.31,2.83,4.25,5.74Z"/>
        <path d="M21.58,225.98c-1.7,2.02-4.35,2.4-6.64,1.76-2.12-.58-4.22-2.46-4.57-5.02-.3-2.21,1.33-4.35,2.71-5.35,2.15-1.57,4.71-1.78,6.94-.52,3.08,1.76,3.97,6.26,1.56,9.13Z"/>
        <path d="M225.43,429.03c-.88,2.07-3.16,4-5.96,3.77-2.65-.21-4.47-2.12-5.06-4.03-.7-2.26-.52-4.93,1.43-6.48,2.25-1.8,6.06-1.82,8.27.01,2.01,1.65,2.26,4.51,1.32,6.73Z"/>
        <path d="M185.58,131.16c-.43.32-1.31.06-1.6-.5l-10.51-20.9-5.23-11.63c-1.78-3.96-3.47-11.02.04-12.55.35,4.06.82,7.8,2.17,11.54,2.24,6.21,4.83,12.04,7.82,17.93l7.44,14.66c.2.39.16,1.23-.13,1.45Z"/>
        <path d="M269.93,101.95l-13.65,28.94c-.41.21-.95.42-1.23.38-.29-.04-.58-.68-.62-1.01l11.61-24.73,3.9-10.67c1.09-2.98,1.23-6.1,1.49-9.28,4.49,2.5.51,11.12-1.5,16.37Z"/>
        <path d="M359.56,272.85c-1.51,3.36-7.39,2.5-11.2.94l-9.57-3.93-23.76-10.98c-.46-.22-1.14-.55-1.16-.89-.03-.41.62-1.28.95-1.27l24.86,11.17c4.65,1.88,9.08,3.66,14.02,4.62l5.86.34Z"/>
        <path d="M186.22,315.43l-8.11,15.66-7.58,16.74c-1.63,3.61-1.95,7.28-2.27,11.59-3.05-1.29-2.1-7.49-.64-10.75l4.99-11.13,11.9-22.92,1.71.81Z"/>
        <path d="M271.07,359.39c-.45-4.01-.68-7.92-2.28-11.63l-6.78-15.68-8.44-16.75,1.72-.86,11.74,23.44c2.52,5.04,4.57,10.04,5.89,15.45.1,2.21.76,4.48-1.85,6.03Z"/>
        <path d="M126.06,187.35l-.82,1.62-12.94-6.12c-6.69-3.17-13.25-6.14-20.26-8.48-3.85-1.28-7.51-1.78-11.66-1.92,1.96-3.46,8.84-1.73,13.13.02l8.28,3.38,24.27,11.5Z"/>
        <path d="M125.18,258.26l-17.28,8.27-15.8,6.94c-3.771,1.66-10.63,3.13-12.15-.54,3.8.13,7.44-.31,11.03-1.65l9.27-3.48,24.01-11.01.92,1.47Z"/>
        <path d="M359.34,172.48c-4.24.16-8.01.39-11.73,1.95l-19.31,8.11-13.76,6.57c-.38.15-1.01-1.47-.6-1.66l15.63-7.54,16.32-7.26c3.97-1.76,11.97-3.68,13.45-.17Z"/>
        <path d="M148.28,149.62l-2.18,2.18c-3.99-4.25-7.45-8.44-10.99-13.05-3.3-4.4-6.62-8.43-9.67-13.23l17.31,17.53,5.53,6.57Z"/>
        <path d="M313.26,126.73c-5.96,9-12.51,16.89-19.49,24.97l-2.5-2.02,5.58-6.64,16.41-16.31Z"/>
        <path d="M314.71,320.12l-10.93-9.8-12.46-12.63c.38-.96,1.1-1.66,2.1-2.3,7.47,7.94,14.37,15.85,21.29,24.73Z"/>
        <path d="M147.65,297.15l-5.89,6.42-16.58,15.71c5.02-7.28,10.53-13.59,16.25-19.96l4.2-4.27,2.02,2.1Z"/>
        <path d="M220.19,175.04c-.37.21-1.22.34-1.6.31-1.37-9.47-1.17-18.85.81-28.47,1.69,9.15,1.9,18.79.79,28.16Z"/>
        <path d="M169.12,223.84c-9.54.66-18.83,1.06-28.38-.86,9.66-1.73,18.96-1.39,28.52-.57l.86.75c.21.18-.74.66-1,.68Z"/>
        <path d="M297.81,222.95c-9.62,1.9-18.89,1.64-28.56.87l-.5-1.25c9.57-1.12,19.16-1.42,29.06.38Z"/>
        <path d="M219.78,298.72c-1.64-9.06-1.78-18.26-.65-27.54l.67-.48c1.54-1.11,1.96,21-.02,28.02Z"/>
        <path d="M183.82,189.97c-6.48-5.03-12.33-10.37-17.1-17.24,6.85,4.41,12.25,9.79,17.63,15.61.19.66-.02,1.32-.53,1.63Z"/>
        <path d="M272.71,171.99c-4.58,6.65-10.21,11.89-16.27,17.23-.54.26-1.07.44-1.32.33-.32-.14-.23-1.06.01-1.32l5.42-5.91c3.62-3.94,7.82-7.12,12.16-10.33Z"/>
        <path d="M184.14,258.03c-5.44,6-10.97,11.41-17.69,15.96,4.69-6.71,10.43-11.88,16.6-16.88l1.12-.36c.26-.08.15.96-.03,1.28Z"/>
        <path d="M272.27,274.2c-6.99-4.89-12.61-10.43-17.8-16.69l.96-.81c6.34,5.28,12.15,10.82,16.84,17.5Z"/>
        <path d="M238.07,242.32c-11.04,10.14-28.24,9.43-38.27-1.42-6.72-7.28-8.81-17.4-5.36-26.93,3.05-8.44,10.58-14.97,20.08-16.76,12.35-2.33,24.96,3.75,29.92,15.57,4.2,10.04,1.83,22-6.37,29.54Z"/>
        <path d="M186.42,226.55c-2.25.26-3.73-1.33-3.88-3.06-.18-2.01,1.3-3.58,3.42-3.64,1.86-.06,3.35,1.24,3.57,3,.2,1.62-1.09,3.46-3.11,3.7Z"/>
        <path d="M252.18,213.75c-1.7.61-3.67.06-4.46-1.84-.64-1.53-.01-3.85,1.95-4.48,1.92-.62,3.87.21,4.46,2.1.5,1.58-.2,3.59-1.95,4.22Z"/>
        <path d="M191.77,211.73c-.48,1.3-1.85,2.479-3.8,2.26-1.37-.15-2.56-1.28-2.79-2.16-.36-1.37,0-2.72.96-3.62,1.22-1.13,2.99-1.26,4.27-.39,1.17.8,1.9,2.44,1.36,3.91Z"/>
        <path d="M236.14,192.49c.17,1.93-1.11,3.39-3.03,3.69-1.72.27-3.44-.94-3.7-2.66-.29-1.97,1.01-3.82,3.07-4.06,1.99-.22,3.51,1.29,3.66,3.03Z"/>
        <path d="M244.43,249.21c-2.02.43-3.84-.67-4.22-2.52-.38-1.86.7-3.76,2.72-4.06,1.91-.29,3.46.97,3.87,2.43.59,2.08-.67,3.79-2.37,4.15Z"/>
        <path d="M254.58,226.29c-1.61.65-3.58.12-4.36-1.58-.79-1.75-.27-3.89,1.67-4.63,1.81-.68,3.7.05,4.49,1.8.71,1.59.12,3.64-1.8,4.41Z"/>
        <path d="M244.65,203.24c-1.5.51-3.38-.16-4.14-1.72-.82-1.68-.14-3.78,1.94-4.61,1.89-.75,3.83.28,4.36,1.99.52,1.7-.27,3.7-2.16,4.34Z"/>
        <path d="M207.97,256.42c-1.84.65-3.82-.37-4.4-1.96-.67-1.87.45-3.81,2.35-4.4,1.85-.58,3.56.57,4.1,2.15.63,1.83-.41,3.63-2.05,4.21Z"/>
        <path d="M196.84,203.25c-1.53.56-3.51-.24-4.25-2.06-.65-1.62.12-3.62,2.11-4.33,1.7-.61,3.71.32,4.28,2,.57,1.7-.14,3.67-2.14,4.39Z"/>
        <path d="M189.9,238.67c-1.35.6-3.33.13-4.25-1.36-.99-1.59-.53-3.74,1.49-4.75,1.78-.89,3.82-.09,4.58,1.58.74,1.64.12,3.65-1.82,4.53Z"/>
        <path d="M251.98,238.65c-1.42.59-3.51.13-4.34-1.59-.77-1.61-.17-3.8,1.68-4.55,1.79-.74,3.67-.07,4.48,1.66.74,1.62.23,3.64-1.82,4.48Z"/>
        <path d="M221.24,193.37c-1.64.75-3.49.05-4.31-1.29-1.04-1.7-.41-4.02,1.54-4.88,1.91-.84,3.83.17,4.52,1.85.67,1.62-.13,3.58-1.75,4.32Z"/>
        <path d="M234.07,256.28c-1.48.65-3.38.15-4.28-1.4-.86-1.49-.42-3.78,1.48-4.71,1.86-.89,3.73.05,4.5,1.68.76,1.6.11,3.63-1.7,4.43Z"/>
        <path d="M221.22,258.84c-1.63.79-3.46.04-4.28-1.3-1.02-1.68-.42-4.03,1.52-4.83,1.93-.79,3.84.18,4.53,1.81.69,1.65-.16,3.53-1.77,4.32Z"/>
        <path d="M207.73,196.02c-2.07.48-3.72-.64-4.19-2.16-.57-1.85.53-3.93,2.59-4.35,1.99-.41,3.57,1.1,3.92,2.47.51,1.97-.96,3.72-2.32,4.04Z"/>
        <path d="M197.68,248.79c-1.72,1.01-3.66.56-4.64-.96-.97-1.5-.63-3.78,1.18-4.74,1.86-.99,3.93-.23,4.75,1.39.81,1.6.15,3.47-1.29,4.31Z"/>
      </g>
    </g>
  </g>
</svg>