<?xml version="1.0" encoding="UTF-8"?>
<svg id="b" data-name="Layer 2" xmlns="http://www.w3.org/2000/svg" width="317.691" height="320.902" viewBox="0 0 317.691 320.902">
  <g id="c" data-name="Layer 1">
    <g id="d" data-name="C2ucr3">
      <g>
        <path d="M135.977,297.436l-29.888-30.28-23.224-23.479-33.593-33.944L0,160.003l17.61-17.846,21.58-21.737,38.522-38.821,36.041-36.397,23.028-23.364L158.403,0l15.204,15.464,56.29,56.647,69.549,69.787,18.244,18.302-44.733,45.09-30.554,30.882-54.954,55.85-28.381,28.881-23.092-23.467ZM104.047,256.456l55.033,55.807,40.835-41.514,21.794-22.162,60.085-60.832,27.378-27.544-30.209-30.361-90.667-91.017-22.158-22.36-7.759-7.866-42.143,42.719-24.933,25.157-45.439,45.719-37.38,37.763,10.07,10.231,30.234,30.513,30.404,30.7,24.855,25.046Z"/>
        <path d="M162.291,124.843c-2.806,7.592-3.599,15.081-3.327,23.099-1.693-9.825-5.539-17.162-12.077-24.813.435-13.542,4.574-28.111,11.915-39.77l-25.697-18.213-10.268-6.81.005,29.05-.279,24.629c7.802,1.027,15.029,4.491,21.109,9.387.097,10.862,3.33,20.765,8.728,30.364-5.468-4.245-10.618-8.03-16.875-10.454-3.067-1.232-5.981-2.148-9.334-2.78-2.995-8.407-4.393-17.243-3.926-26.228l-52.06-1.637,43.79-43.72,17.594-17.778,26.877-26.975,11.484,11.315,18.471,18.319,3.332,4.076,4.919,4.9,8.044,7.681,42.26,42.007-51.566,1.41c.422,9.152-.724,17.963-3.784,26.631-9.344,2.517-17.34,7.617-24.752,14.329,3.892-7.373,6.859-14.69,8.152-22.782.492-3.441.741-6.599.704-10.01,5.726-4.405,12.309-7.504,19.442-8.423l-.134-32.225.239-18.937c-1.472-1.288-2.989-1.087-4.519.021l-31.554,22.845c5.158,8.254,8.822,17.039,10.886,26.361-3.241,4.807-5.805,9.609-7.798,15.131Z"/>
        <path d="M196.99,172.249l-5.176-4.049c-6.016-4.705-13.174-6.93-20.978-7.71,11.375-2.333,18.741-8.714,25.413-17.795,10.225.364,19.296,5.017,27.407,11.419l6.854-8.498c7.794-9.663,14.773-19.691,21.165-30.373l33.685,33.689,11.745,11.591-27.248,27.53-15.048,15.306c-2.321-5.86-4.949-11.079-7.953-16.517-6.44-11.656-13.923-22.458-23.062-32.44-5.895,5.676-12.232,10.42-19.241,14.4l-7.564,3.447Z"/>
        <path d="M123.42,173.445c-3.404-.898-6.466-2.11-9.551-3.75-7.388-3.927-14.044-8.769-20.074-14.408-12.885,13.76-22.3,29.631-30.174,47.145l-42.368-42.465,26.135-26.391,17.565-17.676c5.873,9.687,12.228,18.869,19.492,27.63l9.48,11.435c6.248-5.214,13.29-9.013,21.227-10.985,9.084,9.304,19.693,15.332,32.922,16.284-9.926,1.367-17.402,5.654-24.653,13.18Z"/>
        <path d="M177.68,281.503l-17.927,18.218-21.265-21.672-16.038-16.504,5.699-4.301,32.835-26.704c-5.065-7.081-8.84-14.607-11.481-22.897,3.638-5.145,6.614-10.539,8.409-16.668,1.803-5.988,2.177-11.953,2.13-18.276,1.865,10.756,6.313,18.29,14.799,25.609-1.34,11.41-7.052,22.857-13.445,32.309l5.507,4.631c10.337,8.692,20.612,17.104,31.465,25.315l-20.688,20.939Z"/>
        <path d="M214.567,244.045l-16.11,16.37-.727-56.021c-7.175-.419-13.852-2.844-19.903-6.459-.27-7.504-2.487-14.364-5.829-20.917l-5.044-8.087,8.699,5.02c5.645,2.55,11.493,3.701,17.782,3.615,3.091,8.602,4.543,17.413,4.507,26.605l56.371-.383-39.747,40.256Z"/>
        <path d="M120.575,217.158l.037,42.434-36.609-36.655-17.329-17.439,53.493-.591c-.075-9.295,1.138-18.51,4.405-27.239,7.201.077,13.822-1.582,20.219-4.402l8.288-4.631c-5.449,8.508-9.256,17.747-9.754,27.694-6.763,4.82-14.562,8.207-22.989,8.713l.238,12.116Z"/>
        <path d="M158.882,169.616c-5.023-.259-8.524-4.547-8.77-9.013-.27-4.892,3.033-9.292,7.987-10.016,5.666-.828,10.408,3.483,10.738,8.864.341,5.55-4.006,10.472-9.954,10.165Z"/>
      </g>
    </g>
  </g>
</svg>