<?xml version="1.0" encoding="UTF-8"?>
<svg id="b" data-name="Layer 2" xmlns="http://www.w3.org/2000/svg" width="241.207" height="418.81" viewBox="0 0 241.207 418.81">
  <g id="c" data-name="Layer 1">
    <g id="d" data-name="n4oDwF">
      <g>
        <path d="M85.915,382.863l-3.704-2.135c-1.126-.649-1.304-2.395-1-3.7.244-1.047,1.399-2.039,2.551-3.023-8.241,1.299-16.088,2.003-24.194.57-17.283-3.054-29.974-13.3-36.503-29.55l-5.243-13.047c-1.314-3.269-3.152-6.301-5.325-8.953-3.216-3.924-7.274-5.714-12.497-6.299,1.095-2.444,2.705-3.915,4.68-5.258,6.163-4.19,13.513-5.998,21.533-6.086-8.192-18.047-9.749-38.239-4.43-57.597,2.678-9.747,6.868-18.52,11.989-27.155,5.342-9.01,10.152-19.743,3.7-28.675-3.706-5.13-10.317-7.027-15.848-3.974-4.112,2.269-3.904-7.529,4.179-13.253,7.371-5.221,16.656-5.488,25.209-3.141,14.006-3.989,30.429,6.149,35.49,19.882,1.689-2.879,3.501-5.593,5.917-7.877-5.215-3.29-9.526-7.374-12.791-12.595-9.874-15.784-10.285-33.208-.037-48.983,6.195-9.536,16.461-16.021,27.99-16.624,17.703-.927,36.019,11.846,38.244,29.039,1.349,10.423-3.081,20.859-11.472,27.147-6.701,5.021-15.283,5.698-23.042,2.193-12.031-5.434-17.131-21.268-10.333-32.025,1.927-3.049,4.47-4.946,7.975-5.422-1.479-.357-2.79-.037-4.052.58-4.248,2.077-7.295,5.242-8.987,9.869-5.484,14.99,4.564,31.506,20.307,34.359l3.187-1.858,4.043,2.016c18.165-2.949,28.512-19.98,28.158-37.769-.209-10.509-4.781-19.847-11.798-27.458-4.478-4.857-9.908-8.208-15.846-11.089l-7.771-4.386c-4.81-3.511-8.603-10.157-5.939-15.462,1.801,2.189,3.792,3.571,6.297,3.724,2.524.154,5.142-1.071,6.801-3.008,6.183-7.224,3.253-17.062-3.919-21.913-.387-6.054-2.579-13.082-8.99-15.648-.959-1.502-.425-4.501,1.453-5.457l1.374,2.456c-3.851-13.753-.088-31.067,14.851-35.278-4.466,13.823.63,28.55,9.044,39.565l4.012,5.252c.617.807,2.428,1.408,3.057,2.913,1.892-3.267,4.277-5.484,7.581-6.979,5.492-2.486,11.881-1.543,15.939,3.017,1.171,1.316,2.155,3.429,1.809,5.007-11.079,6.558-5.816,24.58.761,34.135.739,1.074,1.729,1.66,1.077,3.361-2.676-2.673-6.182-2.517-8.828.134-4.781,4.789-3.019,13.35-.506,19.995,2.463,6.515,4.484,12.817,5.419,19.774,2.27,16.875-2.991,33.717-14.729,45.931-3.245,3.376-6.497,5.926-11.16,8.213,5.019,3.018,8.425,7.498,10.633,12.994,3.409-9.713,10.378-16.555,19.301-20.603,11.851-16.094,15.483-36.574,10.045-55.802-2.279-8.059-5.631-15.31-9.531-22.645l-4.302-8.092c1.909.571,2.744,1.149,4.118-.026,8.045,13.776,15.209,28.648,16.005,45.244.666,13.863-3.021,27.075-10.037,39.154,4.968-1.365,9.639-.016,13.964.672,8.286-1.703,16.754-1.424,23.713,3.504,3.999,2.832,6.88,6.816,6.935,11.87.047,4.351-3.65-1.654-10.509.376-10.25,3.034-12.662,14.654-8.563,24.772l6.428,12.258c14.219,24.852,17.791,53.931,5.553,80.521,9.14.311,20.326,3.056,25.857,11.088-10.356,1.547-15.362,8.406-19.194,17.55l-6.04,14.413c-7.406,15.063-21.553,24.732-38.202,26.677-7.501.876-14.653.362-22.036-.631,1.632,1.26,3.148,2.374,3.335,3.621.601,4.02-3.546,4.152-7.131,7.686-8.4,8.281-12.171,19.631-11.724,31.496-13.342,3.199-26.776,3.154-39.881.11-.095-12.938-4.133-25.542-14.42-33.661ZM134.539,177.296c19.413-9.232,29.792-32.238,25.244-53.369-1.088-5.054-2.976-9.683-4.508-14.604l-3.505-11.258c-.844-4.036-.522-8.139,1.211-11.779,2.056-4.318,6.317-6.974,11.236-6.322-3.881-8.39-6.603-17.17-3.601-26.066.853-2.749,2.956-4.96,4.998-6.843-1.525-2.928-5.219-4.368-8.473-4.012-5.835.639-10.739,4.997-11.704,10.9l.039,3.665c-1.658.306-3.195.683-4.201,1.727-6.429,6.677-8.066,18.408-6.166,27.503,1.425,6.823,4.512,12.437,8.643,17.897,4.175,5.519,7.527,11.255,9.442,17.964,3.243,11.367,1.715,23.404-4.01,33.654-4.678,8.169-11.705,13.868-20.989,16.764,2.489,1.144,4.608,2.078,6.345,4.177ZM118.773,133.306c.107,2.997-1.6,5.616-4.235,6.459-.635-1.271-1.428-2.442-2.42-2.818-1.083-.41-2.755-.276-3.832.313-3.697,2.021-4.943,6.518-3.564,10.426s4.583,6.435,8.602,7.556c6.566,1.831,13.368-.821,17.489-6.395,5.344-7.228,5.824-16.839,1.477-24.811-5.362-9.832-16.265-14.693-27.356-12.765-9.886,1.719-17.997,8.003-22.855,16.711-10.364,18.577-2.727,42.047,16.33,51.271l6.125-1.324c1.28-1.697,2.917-2.906,5.089-3.964-10.736-2.669-19.107-10.352-22.084-20.831-3.108-10.938,1.315-22.475,11.183-28.019,3.884-2.182,8.477-2.883,12.543-1.439,4.258,1.512,7.338,4.919,7.507,9.632ZM119.236,178.648c2.158,6.415,5.771,10.213,11.316,12.802,5.915,2.761,10.675,7.24,13.188,13.549.918-1.672,1.85-3.085,3.45-4.113l3.709,1.578c.428-9.05-6.519-19.359-15.217-21.721-1.713-.465-2.197-.631-3.344-2.085-1.236-1.566-3.839-2.382-5.753-3.215l-7.268-3.162-8.997,4.416c-1.691.83-3.48,2.275-4.654,3.436-10.861,1.122-19.015,12.202-19.157,22.958l2.682-1.231c1.513,1.236,2.399,2.972,3.133,4.909,2.453-7.001,7.446-12.051,13.978-14.954,3.84-1.707,7.083-3.977,9.774-7.217l3.16-5.949ZM71.849,324.08l-7.537-6.379c-7.538-7.601-12.609-16.692-15.723-26.92-8.786-28.856,2.547-58.139,25.268-77.079,3.157-6.627,1.649-15.923-4.357-19.409-3.313-1.922-5.357,1.729-5.971,1.301l-.637-.443c1.092-3.539.688-7.011-1.028-10.231-5.473-11.305-20.738-14.876-31.612-9.228-3.564,1.851-6.351,4.477-7.637,8.391,6.495-2.399,13.065-2.335,19.019.567,13.18,6.423,15.506,21.925,7.614,34.467l-6.713,10.669c-4.156,6.606-6.841,13.539-8.99,21.065-3.831,13.411-3.543,27.29.969,40.472,2.127,6.215,4.778,11.739,8.832,17.008,10.607,4.05,19.769,11.401,25.849,20.921l2.654-5.172ZM169.41,330.842c6.179-11.786,17.684-19.888,29.836-24.232,13.016-18.445,14.402-41.836,6.713-62.696-2.625-7.121-6.199-13.369-10.376-19.664-2.736-4.122-5.258-8.177-6.6-12.961-1.57-5.598-1.611-11.473.999-16.71,5.331-10.697,17.862-14.89,28.908-10.505-.954-3.032-2.892-5.162-5.374-6.946-11.413-8.201-30.892-3.969-36.002,10.661-.872,2.496-.742,4.701-.443,7.566-.686.078-1.663-.426-2.483-1.018-4.382-3.16-12.562,8.121-8.608,18.169,6.276,4.482,11.321,9.717,15.859,15.967,16.704,23.009,18.534,52.097,4.552,76.896-4.706,8.346-11.442,15.142-19.489,19.646l2.511,5.826ZM119.007,194.613c.673,8.756,1.165,17.225,7.716,22.848l11.028,2.339c2.472.149,4.055-3.604,4.146-5.821.217-5.245-1.832-9.676-5.098-13.598-5.82-6.353-13.545-6.523-17.795-14.521-2.494,4.269-6.21,6.742-10.421,8.643-6.519,2.942-11.539,7.884-13.484,14.837-1.995,7.132,2.167,12.023,4.499,11.392l11.926-3.228c7.231-6.472,4.513-14.843,7.483-22.89ZM145.322,221.612c3.526-2.41,4.598-5.319,4.796-9.149,6.247,4.618,11.896,9.069,17.056,14.531,19.83,20.951,24.136,50.184,12.39,76.347-2.725,6.07-6.236,11.163-9.876,16.78,13.624-11.509,21.123-29.453,21.966-47.047.61-12.73-2.765-24.775-9.18-35.767-5.851-10.025-13.916-18.021-22.912-25.286-3.58-2.892-6.801-5.46-11.198-7.488-1.267,2.063-1.598,4.222-1.43,6.572.332,4.644-.806,9.128-4.225,12.33,7.946,3.826,14.072,9.432,18.946,16.514,16.002,23.254,11.074,51.564-10.324,69.759l4.145,2.851c23.628-22.507,26.496-55.474,4.334-79.919-4.233-4.669-9.108-8.022-14.49-11.029ZM71.918,320.319c-11.798-15.212-17.803-33.527-16.202-52.54,1.443-17.142,9.582-32.869,22.368-44.132l9.988-8.798c.894,3.187,1.771,6.148,4.906,7.335-4.316-6.213-1.637-11.352-4.414-16.299l-6.499,6.488c-4.247,3.508-8.304,6.926-12.102,10.935-11.837,12.496-20.499,30.247-20.318,47.634.121,11.598,3.299,22.566,8.686,32.684,3.656,6.38,7.831,12.308,13.586,16.692ZM149.167,308.359c11.586-8.669,18.936-21.621,19.829-36.126,1.039-16.878-6.842-33.56-20.923-43.054-18.922-12.758-46.814-10.413-62.542,7.13-8.075,9.006-12.778,20.624-12.807,32.898-.035,14.954,7.48,28.844,18.894,37.8,19.875-9.715,38.57-9.13,57.548,1.353ZM89.078,308.261c-5.473-4.346-9.479-9.545-12.782-15.576-7.781-14.205-7.962-30.733-.975-45.294,4.604-9.595,11.442-17.453,21.039-22.726l-3.107-1.781c-19.924,11.948-31.27,36.842-25.584,59.298,2.814,11.113,8.496,21.036,16.785,28.913l4.624-2.834ZM119.257,311.715c3.221-2.316,6.727-3.274,10.606-2.931,10.469.926,19.948,6.53,26.269,14.902,11.54,15.285,5.285,38.132-12.047,46.849,6.737-1.026,12.862-4.212,16.95-9.594,11.473-15.106,8.793-34.457-6.226-45.997-9.606-7.382-21.408-11.767-33.732-12.193-15.641-.541-34.067,6.21-44.164,18.365-6.076,7.314-8.225,16.63-6.262,25.893,2.653,12.517,11.866,23.885,25.482,23.023-9.512-3.394-16.48-10.668-18.885-20.482-2.478-10.113-.125-20.4,6.869-28.211,8.304-9.273,24.537-17.008,35.141-9.624ZM194.772,323.57c10.961-8.902,24.485-12.212,38.121-9.157,1.007.226,1.996.246,3.175-.099-8.154-6.754-20.961-8.243-31.19-5.632-11.74,2.997-21.999,9.65-29.688,18.955-2.064,3.124-4.528,6.364-4.516,10.26.02,6.731-1.16,12.939-4.154,18.884l11.849-15.499c4.965-6.494,9.915-12.444,16.403-17.713ZM61.275,343.125l10.214,13.44c-3.297-7.739-5.032-15.051-3.409-22.965-10.57-16.917-30.455-28.283-50.29-24.204-4.809.989-9.277,2.688-13.125,5.995,6.918-.887,13.017-1.757,19.552-.68,8.553,1.41,15.878,5.457,22.323,11.217,5.674,5.07,10.002,10.969,14.736,17.197ZM119.332,376.679c10.724.047,20.852,1.57,31.333,4.059,2.091-.736,3.732-1.621,5.82-2.996-1.933-1.473-3.763-2.371-6.15-3.073-18.58-5.468-36.341-6.46-55.283-1.894-3.847.927-7.495,2.283-10.866,4.64,1.81,1.714,4.513,2.955,6.87,2.554,9.477-1.61,18.579-3.332,28.276-3.29Z"/>
        <path d="M70.163,127.526c-5.002,13.168-4.292,26.377.328,39.625-6.738-8.603-8.703-14.643-9.165-25.145-.8-18.191,7.178-35.936,15.303-52.102,6.49-12.912,18.186-36.161,12.549-48.81-1.237-2.775-3.365-4.069-6.64-4.028,1.967-7.813,13.176-10,19.859-4.972,2.812,2.116,3.988,5.394,3.374,8.724,5.577-.573,9.205,6.103,9.195,11.828-5.608-.751-10.626,1.44-14.485,5.557-6.203,6.618-8.365,15.97-5.889,24.872,1.547,5.561,1.309,10.847-2.681,15.275l-9.641,10.702c-5.018,5.57-9.368,11.261-12.107,18.471Z"/>
        <path d="M112.804,95.481l11.742,6.301c5.372,2.882,10.5,6.246,14.05,11.222-3.184-2.424-6.001-4.971-9.612-6.536l-11.809-5.116c-12.759-5.528-21.531-18.747-17.518-32.273.897-3.024,2.563-5.687,4.866-7.751,3.527-3.161,8.631-3.985,12.481-1.205,3.258,2.353,4.174,6.663,1.971,9.977-.875,1.316-2.417,1.881-4.11,1.888l.22-2.901c-.254-1.682-2.18-2.384-3.728-2.164-1.718.244-2.484,1.73-3,3.531-.809.669-2.249,1.752-2.677,2.863-3.175,8.241-.467,17.26,7.122,22.163Z"/>
      </g>
    </g>
  </g>
</svg>