<?xml version="1.0" encoding="UTF-8"?>
<svg id="b" data-name="Layer 2" xmlns="http://www.w3.org/2000/svg" width="545.132" height="467.49" viewBox="0 0 545.132 467.49">
  <g id="c" data-name="Layer 1">
    <g id="d" data-name="Z119W2">
      <g>
        <path d="M545.132,340.144v2.419c-.969.111-1.899-.171-2.862-.846l-31.182-21.885-.984,6.663,33.561,22.948-2.205,1.759-3.289-2.157c1.2,3.31.949,6.718-.986,9.597-1.772,2.636-4.657,4.52-8.366,4.724l8.427,5.775c.449.308.597,1.685.268,2.087-.348.425-1.371.444-2.01.01l-34.711-23.557-3.48,4.491,34.903,23.552c.403.272.434,1.669.093,2.007s-1.401.467-1.803.201l-10.268-6.794c-.03,8.982-4.565,15.634-13.624,17.328,1.583,3.886,1.414,7.791-.159,11.572-2.812,6.759-9.89,10.464-16.939,8.743-.629,4.722-3.616,8.222-7.068,10.17-4.207,2.374-8.627,2.123-12.754.265-1.329,2.315-2.605,3.816-4.758,5.499l34.162,21.845c.479.307.741,1.484.517,1.913-.26.496-1.51.852-1.994.552l-6.089-3.771-13.839,22.233h-8.417s-.58-.701-.58-.701l-48.709-31.127-41.352-26.357c-4.198-1.48-7.717-3.547-10.849-6.691l-5.181-.049c-5.876-.763-10.522-4.74-13.266-9.739-4.56,9.524-10.837,17.673-18.297,24.561-33.106,30.57-84.387,30.333-117.141-.612-7.272-6.87-13.287-14.922-17.613-24.505-3.866,7.32-10.349,11.754-18.719,10.262-2.529,3.302-6.575,4.458-10.05,6.655l-55.839,35.297-35.881,23.005h-8.355s-13.745-22.145-13.745-22.145l-6.046,3.7c-.401.246-1.543-.017-1.839-.363-.34-.396-.243-1.61.342-1.981l33.707-21.383,9.097-5.701c-3.907.282-7.301-.678-10.264-2.969-.673.91-1.46,1.829-2.288,2.261-4.346,2.267-8.954,2.521-13.429.183-3.613-1.888-6.529-5.572-7.249-10.344-7.121,1.636-13.643-1.578-16.724-7.885-1.928-3.947-2.231-8.33-.463-12.464-8.759-1.36-14.458-8.972-13.165-17.6l-7.655,4.908-5.155.715,9.908-6.972,25.125-17.009-3.562-4.623-34.799,23.842c-.424.29-1.674-.215-1.796-.659s.122-1.502.576-1.81l8.686-5.899c-3.6-.116-6.668-1.899-8.384-4.261-2.231-3.072-2.454-6.453-1.338-10.034l-3.263,2.061-2.591-1.298,33.621-23.047-.905-6.946-31.548,22.208c-.702.494-1.68.575-2.295.208l.002-2.08,33.832-23.682,1.349-10.88c2.051-10.12,6.495-19.119,11.643-27.76-.039-4.322.216-9.207,3.972-12.162-.952-6.786,3.565-12.239,9.623-14.313,1.474-3.247,3.073-6.074,5.355-9.095-4.781-1.234-8.078-5.802-7.507-10.794.214-1.875.89-3.363,2.185-4.649-2.871-3.592-1.493-7.522-.965-11.274l1.033-7.33c.452-3.206,1.356-6.348,2.7-9.307-.964-2.969-2.553-6.362-1.804-9.794l1.229-5.628c.099-.453.855-1.241,1.267-1.231,1.387.034,2.333,2.646,4.328,2.348,2.118-.317,3.78-.016,5.477.972l1.654-1.852c-4.966-3.099-6.803-8.186-4.131-12.865,1.237-2.166,3.832-3.689,6.858-4.041-4.892-7.079-5.041-15.174-1.262-22.425,2.304-4.421,5.804-7.854,8.555-11.971,1.617-2.42,1.379-6.196,3.53-8.307l.969-.951c.211-.207.838.482,1.043.704l2.411,2.6c1.297-4.005,3.651-6.427,7.871-7.064-2.758-2.703-3.045-6.451-.978-9.609,2.506-3.83,7.549-4.875,11.638-2.921.65-2.36,1.539-5.086,3.432-6.609,1.314-1.057,1.396-1.414,1.592-3.082,1.201-10.184,11.869-20.567,21.625-17.324.978-2.337,2.382-3.992,4.44-5.198.412-5.55,3.501-10.447,8.702-12.857,3.929-10.599,15.87-18.589,26.665-13.933,2.191.945,3.897,2.461,5.461,4.467,4.504-4.786,10.047-8.356,16.65-9.531,6.745-7.586,18.274-12.013,28.445-13.549,2.241-1.182,4.471-1.877,6.934-2.462,16.741-3.336,29.009-10.493,36.665-26.743,4.759,11,12.792,18.652,23.321,22.857,4.601,1.837,9.217,2.995,14.096,4.081l5.734,1.958c9.637,1.811,18.883,4.877,26.56,11.226l2.708,2.67c6.39,1.27,11.828,4.79,16.463,9.506,3.462-4.583,8.927-6.637,14.603-5.659,8.024,1.382,14.471,7.329,17.404,15.006,5.042,2.331,8.113,7.209,8.549,12.687,2.131,1.379,3.76,3.182,4.77,5.448,3.056-1.125,6.043-.816,8.981.478,7.477,3.293,12.519,10.544,13.075,18.643,3.489,1.713,4.978,4.832,5.561,8.548,3.994-2.415,8.825-2.316,12.08.868s2.646,8.123-.388,11.332c3.898.832,6.126,3.226,6.871,6.92l2.79-2.897c.185-.192.628-.816.866-.707l1.092.499c1.48,3.095,2.515,6.093,3.101,9.44l7.633,10.995c4.08,7.277,3.913,15.6-.956,22.857,3.928.144,7.007,2.567,7.813,6.442.824,3.959-1.115,8.013-4.712,10.101l1.614,1.928c1.525-.641,2.842-.977,4.509-.804,2.845.295,3.331-2.248,4.992-2.27,1.314-.017,4.024,10.699.421,16.267,1.865,2.942,2.679,6.274,2.728,9.734,1.384,2.288,1.587,4.819.831,7.32,1.871,3.667,1.598,7.773-.389,11.263,1.631,2.16,2.59,4.922,1.803,7.818-.924,3.397-3.34,5.776-6.548,7.257,2.422,2.9,3.997,6.022,5.323,9.242,6.104,2.159,9.885,7.779,9.382,14.274,3.347,3.533,4.239,8.038,3.441,12.596,7.381,11.722,11.889,24.744,12.512,38.413l29.185,20.468,4.827,3.339ZM382.164,83.973c.177-6.345-2.231-11.885-6.77-15.808-2.785-2.406-6.287-2.039-6.736-.82l-1,2.714c-.73-.752-1.314-2.576-1.097-3.823.476-2.728,5.496-4.522,9.658-2.089,6.256,3.657,9.75,10.583,9.292,17.8,5.282,1.99,9.38,5.618,11.819,10.365l1.648-1.612c.307-.3,1.468.792,1.321,1.207-1.695,2.653-1.959,7.103.789,9.293,1.996,1.591,4.221,2.493,6.586,1.209l.627-.34c.116-.063.195.826.131.987-.966,2.439-4.656,3.733-7.43,2.037-3.811,5.082-1.981,7.26-2.234,8.543-.068.344-.731.501-1.592.139.429-.642.069-.102-.274.412-.222.79-.903,3.081-.507,4.001l2.378,5.524,4.123.963,1.406.341c-.134-.032,1.606,3.314-.164,4.464-3.008-3.457-6.942-3.516-10.075-.81-2.364,2.042-.458,5.307-1.508,4.538l-1.059-.776c-2.088,3.868.392,8.052,4.573,9.632.604.228,1.753.651,2.177.305s.726-1.369.97-2.272l2.426,1.419c3.872-1.351,5.986-6.133,4.396-9.832-.24-.557-1.167-1.747-.818-2.135l1.415-1.575c1.711,2.216,2.53,4.692,2.453,7.898,1.881-1.882,1.869-4.509.893-6.987l-1.467-3.728-4.051-4.537c-.624-.699-1.864-1.416-1.628-2.467.147-.657,1.22-1.862,1.679-1.936l4.455,5.39c3.133-2.4,1.826-4.685,3.64-9.658,1.341-3.677,1.383-7.505-.168-11.011-2.112-4.774-6.689-5.173-6.982-3.64l-.373,1.952c-.912-.834-1.366-2.124-.916-3.285.308-.794,1.531-1.908,2.57-2.142,6.051-1.364,11.027,7.586,9.466,15.003l2.478,2.419,8.927,12.203c-.072-3.079.285-5.551,1.066-8.529l-.226-3.452c.707-1.587,1.674-3.318,1.728-5.01.086-2.688-2.238-4.726-4.881-5.208.337-4.752-1.22-8.775-4.091-12.372-4.094-5.128-10.878-8.464-14.839-4.973-1.167,1.028-1.575,2.504-1.512,4.456l-2.581,1.334c-1.463-2.863-.656-5.402,1.15-7.7-.381-2.508-2.706-4.567-5.147-5.462.273-5.493-2.687-10.337-7.871-12.079-1.769-6.647-6.839-11.97-13.412-14.037-4.525-1.423-9.351-.192-12.348,3.306-1.571,1.833-1.853,4.285-.474,6.249-1.806,1.362-3.161,3.406-3.892,5.614-.828,2.5-2.573,3.346-5.316,4.024l4.663,1.431c.883.271,1.935.468,2.88.488,1.223.955,2.928,2.243,4.574,2.481,2.601.376,4.154-.981,5.318-3.302.466.357,1.186,1.072,1.109,1.513-.536,3.077-3.75,4.872-7.236,4.529-2.204-.217-4.318-1.976-5.747-3.79-3.137.911-6.362.124-8.63-2.409-1.394-1.556-1.917-3.76-.707-5.576,1.104.913,2.153,1.639,3.166,1.849,3.213.667,3.271-3.463,5.748-6.576l-.386-4.074c-4.18-5.266-10.108-8.954-16.817-10.15-6.601-7.397-18.143-12.283-27.93-13.253-2.533-1.344-5.18-2.167-8.091-2.824-13.839-2.736-27.525-9.621-34.526-22.417-5.212,9.509-16.72,17.863-27.426,20.626l-11.004,2.84-4.202,1.764c-9.91,1.269-20.937,5.522-27.46,13.172-6.788,1.142-12.786,4.85-16.891,10.248l-.425,4.106c.985,1.34,1.925,2.809,2.386,4.499.367,1.347,1.747,2.338,3.197,1.881,1.404-.442,2.409-1.682,3.107-3.228,1.699,2.559.965,5.753-1.352,7.771-2.482,2.162-5.42,2.4-8.43,1.757-1.821,1.831-4.084,3.937-6.981,3.882-5.179-.098-6.707-5.02-5.774-5.449l.974-.448c.996,2.417,2.973,3.606,5.51,2.968,1.801-.453,3.386-2.02,4.592-3.309l3.205.056c1.652.029,3.078-.33,4.564-1.222-6.517-.489-5.042-5.27-8.966-8.988,1.365-2.898.597-5.988-1.978-8.098-2.875-2.355-6.759-3.108-10.559-2.028-6.683,1.9-11.904,7.315-13.808,14.061-5.495,1.853-8.469,6.716-8.201,12.443-2.162.747-4.959,2.848-4.643,5.328.217,1.701,1.7,3.557.971,5.592,2.134.741,3.39,1.856,4.726,3.967,2.608-4.531,6.372-7.942,11.377-9.617-.966-9.871,9.469-22.135,16.908-18.335,1.133.579,2.149,1.848,2.283,2.84.18,1.334-.538,2.684-1.417,3.432-.251-1.275-.492-2.269-1.153-2.98-.514-.552-2.213-.889-3.086-.654-6.449,1.739-11.14,10.697-10.02,17.869-6.483,1.405-11.157,5.933-13.763,11.851.144,2.566-.944,5.027-2.316,6.935l3.119,5.097,2.403-1.127c2.184-4.766,6.633-8.225,11.958-8.508,3.703-5.79,8.633-10.43,15.754-10.309,1.467-2.488,3.703-4.17,6.633-3.985,3.133-2.946,7.409-3.848,11.528-3.306,4.729-4.136,10.912-5.325,16.682-3.597,4.84-3.595,11.671-2.605,17.51-1.465l3.813-4.099c1.024,2.011,1.242,4.583,2.914,5.756,2.394,1.681,4.288,3.8,5.51,6.292,5.006,1.391,9.218,4.049,11.614,8.571,5.617.291,10.058,3.508,12.86,8.274l3.788-4.882,3.365,4.284c1.917-3.121,4.764-5.066,7.739-6.957l9.462-6.012,5.285-3.168c1.085-1.684,2.109-3.78,4.026-4.898,2.002-1.167,3.045-2.92,3.975-5.007l1.016-2.279c1.678,1.928,2.889,3.215,4.543,4.453,5.807-1.793,13.035-2.38,17.668,1.321,5.725-2.043,12.145-.762,16.502,3.45,4.154-.765,8.194.278,11.372,2.923,2.673.141,4.849,1.671,6.195,3.902,7.02-.394,13.478,4.885,17.482,10.463,5.718,1.022,8.497,4.012,11.632,8.629l2.825,1.43,3.105-5.65c-1.275-1.712-1.69-3.542-2.343-5.551-.683-2.106-2.179-4.293-3.507-6.079-2.655-3.57-6.192-5.726-10.559-7.051ZM309.179,87.372c1.268-1.762,2.848-3.165,4.588-4.609l-5.824-6.126c-.604,1.309-1.945,2.716-3.191,4.035l-2.948,3.121c3.052.578,5.318,1.646,7.375,3.579ZM163.76,119.855c.582-.681,1.123-1.482,1.532-1.382l1.404.343c-.564,1.582-.76,2.64-.361,3.952l8.848-7.225-1.622-3.48c-.527-1.132-1.89-2.963-2.808-3.845-1.81-1.742-4.64-1.169-6.693-.811l-.535-2.18c2.147-1.136,4.568-1.219,6.896-.488.284-3.627,2.247-6.253,4.621-7.681,3.115-1.874,6.214-2.032,9.394-.576.847-3.902,3.55-6.578,7.092-7.715,2.962-.951,5.956-.373,8.376,1.626,1.312-3.481,4.095-5.745,7.16-6.291,3.639-.648,6.924.538,9.55,3.275,3.025-5.655,9.638-7.121,14.501-3.466,1.789-.875,2.814-.378,4.402.447,1.322.687,3.623.07,5.248-.453l-2.64-3.003c-1.109-1.262-2.451-2.53-3.405-3.914l-2.575,2.385c-1.692-.793-2.921-1.338-4.593-1.339l-7.341-.003c-1.911,0-3.537,1.279-4.89,2.714-5.649-2.646-12.815-1.064-17.101,3.366-3.973-.856-7.508.517-11.011,2.318-2.425,1.247-4.958,2.023-6.214,4.86-6.467-1.127-12.902,4.279-15.344,10.045-5.442-.161-9.728,3.226-11.497,8.036-1.235.374-2.818,1.106-3.512,1.718l.904,5.175c1.664-.881,3.59-1.278,5.333-1.268-.025-2.051.461-4.023,1.944-5.351l1.823,1.244c-.773,1.658-1.455,4.187-.243,5.456l3.357,3.513ZM369.632,97.525l-2.135,1.417c-2.381-1.672-6.724-1.935-7.888.841l-1.56,3.722c1.312.532,2.322,1.381,2.646,2.483-2.282.124-3.944.191-5.975.938l11.59,6.588c.125-2.386-1.222-3.95-2.8-5.745.741-.72,2.429-1.185,2.913-.599l1.782,2.16c2.954-3.432,3.118-5.434.873-9.534l2.511-.629c1.039,1.627,1.581,3.288,1.987,5.562,3.081-1.191,6.386-.74,8.812,1.49l-.626,1.736,2.511.872c2.148.746,2.356,4.016,2.214,6.41,2.566-.536,5.184-.112,7.336,1.317l.428-4.865c-.549-.943-2.598-1.836-3.762-2.313-2.408-4.815-6.462-8.51-11.984-8.188-.893-2.801-2.638-4.788-4.817-6.57-3.393-2.775-7.292-4.585-11.78-3.778-1.1-2.934-3.637-3.638-5.951-4.878-3.495-1.874-7.195-3.172-11.108-1.723-3.674-4.993-11.2-6.308-16.582-3.196-2.872-4.233-9.923-3.686-14.861-2.446.762,1.463,1.069,2.248,1.494,3.856,4.383-1.556,8.99.388,11.405,4.59,3.056-3.339,8.189-4.503,12.03-1.865-1.201.7-2.503,1.143-3.695,1.076-3.203-.18-6.098,1.829-6.915,4.774-.537,1.936.206,3.322,1.998,4.503-1.791.858-2.975,1.436-4.035,2.982l11.231,2.101c.14.401,1.459-.836,1.203-1.236-.578-.903-1.891-2.198-3.033-3.266,1.894-1.158,2.82-.756,4.627.851l1.121-4.742c.276-1.167-1.207-3.297-1.736-4.21l2.471-.452,1.749,2.84c3.18-3.247,9.049-2.967,11.813.308.311.368-.516,1.739-.93,1.583l-1.49-.563c-2.502-.945-4.751-1.145-6.911.194-1.823,1.13-3.123,3.947-2.449,6.026.116.357,1.018,1.375.696,1.442l-1.277.263c-.673.139-1.88,1.961-1.241,2.212l10.641,3.861c-.142-1.841-1.217-3.283-2.465-4.674-.047-.489,1.753-1.536,2.233-1.048l2.798,2.837c1.491-2.249,2.074-4.738,2.025-7.188.462-.33,1.247-1.032,1.406-.755l.862,1.494c3.41-2.218,7.664-1.88,10.598,1.134ZM139.076,123.436c-3.599,2.162-5.287,7.575-4.695,8.738l1.576,3.091c.586-4.039,1.536-7.116,4.758-9.34-.135-.868.175-2.502.862-2.857.481-.248,1.705.742,2.045,1.083l3.426-.323c1.031-3.211,3.96-2.104,2.169-7.439l-1.239-3.692-1.384.088c.27-2.917-1.586-6.032-4.447-6.827-1.792-.498-3.684-.576-4.261-2.886,3.307.677,6.236-1.171,7.386-4.24,1.348-3.597-.438-7.384-3.678-9.413-1.044-.654-1.835-1.659-2.014-2.866-.425-2.868-3.26-4.547-6.168-3.907-7.842,1.724-13.905,10.554-13.296,18.821-1.027.288-1.951.563-2.415.919s-.874,1.922-.656,2.491l1.064,2.777c.594,1.551,1.721,3.416,1.195,5.037-.297.917-1.109,2.311-1.077,3.083l.275,6.758,9.409-12.625,1.224-1.309c-1.012-4.713.105-9.45,3.486-12.607,1.782-1.947,4.44-2.987,6.8-1.538.569.349,1.275,1.262,1.38,1.824s-.319,1.902-.539,2.176c-.794-.91-1.274-1.53-1.8-1.705-1.321-.439-2.17,1.408-4.11,1.671-3.014,3.541-3.343,8.467-1.964,12.858l1.394,6.873c.283,1.395,1.687,2.812,2.795,3.879l4.618-6.313c2.248,1.961.289,6.273-2.12,7.72ZM232.417,98.364l-4.374-3.757c1.195-.448,2.315-.532,3.735-.32l.537-3.241c.096-3.479-3.179-5.908-6.328-6.26-3.071-.343-6.564,1.788-7.172,5.222-.192,1.084.122,3.239.193,4.056,1.086.168,2.035.457,2.729.802-1.424,1.551-1.961,2.076-2.61,3.688l13.29-.189ZM323.911,98.391c-.626-1.47-1.609-2.465-3.11-3.421.664-.987,1.895-1.286,3.395-.645.207-1.281.488-3.063.259-4.474-.51-3.145-3.969-5.378-7.102-5.021-2.79.318-5.461,2.393-6.297,5.029l.762,4.883c1.25-.902,2.419-.808,3.301.143l-3.775,3.452,12.567.055ZM234.596,87.954l1.962-2.71-3.319.234,1.356,2.476ZM216.513,98.862l-2.616-3.158,1.898-.658-.617-3.909c-.494-3.132-4.342-4.802-7.128-4.333-2.915.491-5.356,2.625-5.703,5.999-.129,1.261.772,3.635,1.372,4.339,1.348-.189,2.15-.237,3.226-.083l-1.639,2.232c-.197.268.097,1.248.404,1.365s1.069.174,1.408.106l9.396-1.899ZM245.549,97.107c1.795-.769,2.609.524,3.097.231,2.288-1.375,2.007-4.926-.482-7.811-2.014-2.334-4.806-3.426-7.901-2.589-2.507.678-4.615,2.622-5.281,5.658-.372,1.697-.51,5.675,1.765,6.18l10.002,2.224c1.01-1.614-2.056-3.526-1.2-3.893ZM296.562,101.088l11.567-2.421.606-3.418-.852-4.252c-.475-2.372-3.405-3.837-5.236-4.158-4.582-.805-9.2,2.883-9.255,7.712l2.296,2.896,3.421-.219-2.547,3.862ZM202.293,102.01c-.397-1.963-2.082-2.267-3.735-2.173-.113-.275-.129-1.147.143-1.265l1.469-.635-1.075-3.867c-1.427-3.347-5.53-3.625-8.278-1.989-2.608,1.553-4.525,4.443-3.329,7.449l1.281,3.22c.971-.817,1.48-1.306,1.972-1.43.421-.106,1.636.648,1.509.856-.941,1.402-1.588,2.958-1.063,4.013l11.107-4.178ZM262.292,107.732l3.063-3.727c1.692-2.059-3.087-7.617-8.687-8.589-2.679-.465-4.085,1.828-5.316,3.654-.596.884-1.622,2.299-1.003,3.163,4.298,1.555,8.044,3.302,11.943,5.498ZM293.402,102.355c.141-.91.129-2.4-.3-2.924l-2.05-2.501c-2.533-2.414-6.314-1.42-8.873.486-2.019,1.504-3.482,3.198-3.877,5.747l4.323,4.584c3.566-2.2,6.801-3.763,10.778-5.393ZM188.572,107.423c-1.997-1.058-2.582-.891-4.712-1.092l1.995-2.35-1.684-3.752c-.682-1.518-3.381-2.318-4.993-1.967-3.815.832-6.444,4.336-5.533,8.201l2.557,3.771c1.376-1.619,2.701-2.61,4.484-2.842-1.133,2.279-1.86,3.55-2.155,5.818l10.041-5.788ZM272.463,111.874l4.211,4.732c1.567,1.435,2.644,3.528,2.877,5.67.304,2.799-1.271,5.015-3.77,5.892l3.783,3.796c3.575-.982,6.134-3.75,6.933-7.493,2.183-10.225-8.975-15.723-14.114-24.122l-6.518,7.541-5.68,6.917c-2.32,3.861-2.773,8.41-.613,12.37,1.408,2.582,3.761,4.374,6.706,4.426l3.049-3.468c-1.907-.373-3.238-1.525-3.728-3.329-.747-2.747.263-5.578,2.168-7.7l4.696-5.232ZM348.753,116.32c4.381,1.05,4.865,3.339,9.91,5.8,1.883.919,3.109,1.875,4.711,3.104l6.199,4.758,1.836,2.608c8.319,7.565,14.329,16.764,18.008,27.391l2.493,7.454,6.686-6.653-4.061-10.871c-14.213-28.427-43.85-47.459-75.684-48.585-11.145-.394-24.601,2.69-34.028,8.675l3.4,5.364c3.131-1.626,6.314-1.053,10.078-2.844,4.066-4.342,7.971-1.271,14.056-3.102,4.807-1.447,6.418,1.069,11.626.284,5.424-.818,7.97,2.104,12.582,2.197,2.974.06,4.578.825,6.934,2.437,1.183.81,3.649,1.599,5.253,1.983ZM220.931,109.859c1.263.248,3.89.004,5.134-.351,2.618-.747,4.394-.718,7.007.09,5.394,1.668,9.275-1.049,13.195,3.099l4.509,1.245c2.116.584,4.21.637,5.883,1.851l3.324-5.688c-13.529-7.9-30.248-10.197-45.81-7.595-24.496,4.096-46.172,18.421-59.595,39.284-3.82,5.937-6.7,12.187-8.551,18.884,2.577,2.161,4.669,4.28,6.862,6.725,1.962-5.776,3.976-11.241,6.521-16.652,4.649-8.62,10.313-16.15,17.947-22.201,1.284-2.257,3.196-3.645,5.601-4.644,1.67-1.019,4.088-2.071,5.405-3.357,2.272-2.219,3.887-3.519,7.123-4.179,5.709-1.164,8.669-5.564,13.451-4.251,5.319-.672,6.303-3.378,11.996-2.259ZM377.638,117.784c1.117.291,2.159.687,2.996,1.156,3.042-1.989,3.929-5.271,2.378-8.497-.713-1.483-1.854-2.44-3.344-3.084-3.452-1.492-6.364-.256-8.153,2.845-.63,1.092-1.121,2.034-1.235,3.106l-1.207,1.56c-.225.291.608,1.011.944,1.285l8.168,6.666c.716-1.605.431-2.762-.547-5.036ZM90.539,128.057c-.743,1.91-1.706,4.439-1.801,6.78-.182,4.488,2.462,8.073,6.668,9.323,5.015,1.491,10.825-.458,13.345-5.187l3.522-6.611c3.399-6.38,4.944-17.243-.89-21.964-2.161-1.748-4.862-1.827-6.96-.288-1.843,1.351-2.759,3.882-1.461,6.242.428.779,1.913,1.76,2.703,1.667.877-.103,1.704-.686,2.756-1.416.265,1.382-.085,2.955-.744,4.243-.797,1.558-2.068,2.463-3.877,1.922-3.272-.978-6.765.875-7.07,4.355l.971,3.266c-1.31.753-5.217-.558-7.161-2.331ZM456.081,127.914c-2.239,1.705-4.373,2.374-6.828,2.882l.357-3.315c.328-3.043-3.001-5.231-5.855-4.906-1.653.188-3.066-.106-4.116-1.169-.899-.911-1.46-2.263-1.402-3.987,2.344,1.473,4.621,1.111,6.107-.809,1.272-1.643,1.252-4.233-.433-5.906-2.491-2.473-6.494-2.151-9.221.226-3.035,2.646-4.358,6.821-3.992,11.032.25,2.869.632,6.109,1.858,8.689l3.676,7.731c2.33,4.899,8.489,7.177,13.553,5.913,5.191-1.296,8.338-5.781,7.63-11.011l-1.336-5.37ZM233.486,118.596c1.023-2.691.631-4.884-1.162-6.142-1.859-1.305-4.108-1.334-5.707-.075-1.737,1.367-1.972,3.802-1.379,5.808l8.248.409ZM319.621,118.12c.102-1.003.221-3.142-.157-4.062-1.151-2.799-4.125-3.168-6.299-2.054-2.406,1.233-2.949,4.024-1.795,6.527l8.251-.411ZM222.558,118.319c.506-3.524-1.067-5.791-3.785-6.163-2.579-.353-5.375,1.507-5.038,4.478l.355,3.13,8.467-1.445ZM370.114,149.236l1.619-1.277c.212-.167.713.621,1.042,1.082,1.201-.554,3.115-1.621,3.794-2.948.916-1.791-.014-3.898-1.144-5.466-.78-1.082-2.621-2.184-4.423-1.877l-3.697,2.908,2.147,2.674c.305.38-.108,1.829-.588,1.91-.402.068-1.174-.3-1.498-.688-10.421-12.491-21.299-19.317-36.927-23.549l-4.154-1.125,3.065-.285c2.412-1.691,2.438-5.25.694-6.993-2.108-2.107-5.669-2.084-7.232.576-.556.946-.687,2.859-.727,4.068l6.71,1.414-3.711.295.155,1.151-8.405-.608c-10.616.602-20.845,3.496-29.463,9.756l-4.714,4.377c1.507,1.468,2.862,3.001,3.971,5.214,12.045-11.288,29.006-15.094,45.013-10.448,22.896,6.645,39.547,27.297,42.746,50.894,2.62-.166,4.946-.595,7.343-1.603-1.516-10.834-5.616-20.564-11.616-29.452ZM236.042,119.099l8.841,2.052c.764-1.691,1.262-3.671.397-5.296-.709-1.332-2.072-2.564-3.858-3.003-1.842-.452-4.48.227-4.795,2.335l-.585,3.912ZM308.977,118.797l-.691-3.462c-.483-2.417-3.589-3.154-5.665-2.538-1.908.566-4.165,2.606-3.576,4.964l.824,3.299,9.109-2.263ZM107.373,163.822c.916,3.682,2.154,7.024,3.976,10.629-1.219-10.755.154-17.983,4.683-27.766.757-1.635,1.07-4.644,1.652-6.36.315-.263,1.457-.595,1.953-.702,1.071-6.102,4.304-11.791,8.071-17.253.74,3.539,1.307,6.405,3.863,8.438l1.737-5.071c.374-.765.201-2.136-.348-2.908-2.041-2.873-3.42-5.924-4.087-9.442l-5.659,8.046c-4.679,6.651-8.897,13.206-12.163,20.638-.839,1.909-2.48,3.277-4.148,4.555l-.42-1.129c-2.618,1.446-5.422,2.215-9.015,2.298,2.092,3.365,1.685,6.324.337,10.109l4.928-6.576c.614.941,1.06,1.791,1.369,2.758l1.809,5.657,1.129-1.414c.176,1.877-.065,3.899.332,5.495ZM427.693,140.873l2.862,11.265c2.617,7.601,4.109,14.753,3.348,23.147,9.173-16.873.81-36.267-9.63-50.946l-7.643-10.746c-1.138,3.142-2.232,5.925-4.091,8.366-.65.853-1.249,2.085-.944,3.106l1.763,5.917c1.619-1.184,2.665-2.735,3.165-4.623l1.176-4.441,4.428,7.841c1.884,3.336,2.996,7.177,3.066,10.731l1.625-.803c.279-.138.791.857.874,1.186ZM212.091,120.175l-1.191-3.328c-.392-1.095-2.4-2.14-3.519-2.229-1.424-.113-3.002.616-4.124,1.677-1.952,1.845-2.099,5.496.332,6.848l8.501-2.968ZM341.067,123.113c1.385-1.248,1.926-3.867,1.045-5.649s-2.855-3.107-4.974-2.79c-2.723.407-3.932,3.083-4.051,5.498l7.98,2.941ZM272.436,123.89l2.308,2.845c2.192-1.622,2.723-4.795.839-7.053l-3.192-3.825-3.186,3.899c-1.791,2.191-1.318,5.566,1.31,6.718l1.92-2.584ZM255.964,126.259c-.52-2.684-.643-4.884-.125-7.304-1.366-1.968-4.394-2.967-6.542-1.197-1.153.95-1.753,2.999-1.91,4.422l8.577,4.079ZM297.936,121.905l-1.425-2.976c-.58-1.212-2.293-2.089-3.596-2.196-1.245-.102-2.82.628-3.757,1.49.457,2.763.438,5.147-.049,7.886l8.827-4.204ZM389.495,129.198c1.292-1.19-.432-3.564-1.368-4.483-.197-.56,1.298-1.404,1.835-1.2.442.168.994.858,1.235,1.367l.721,1.519,2.987-1.853c.418-2.519-.865-4.761-2.841-5.956-1.992-1.205-4.728-1.487-6.612.18l-3.503,3.099-1.427,3.352,7.565,8.533c.464-1.366-.363-1.769-1.607-2.713.365-.65,2.371-1.253,3.014-1.845ZM156.518,133.578l6.726-7.74c.2-.903-.224-2.639-.865-3.205l-4.937-4.352c-1.655-1.459-4.232.077-5.58,1.224-1.146.975-2.814,4.015-1.466,5.37l4.054,4.077,1.661-4.079c2.007,1.937,1.772,4.859-.263,6.494l.67,2.209ZM350.872,127.797c1.116-1.194,2.208-2.864,2.072-4.419-.119-1.356-1.155-2.675-2.493-3.538-1.745-1.126-4.476-.971-5.511,1.016l-1.53,2.94,7.462,4.001ZM200.904,124.112l-1.985-3.217c-1.27-2.058-4.331-1.764-6.094-.677-1.797,1.108-3.303,3.302-2.535,5.711.289.905,1.282,2.33,1.816,2.991l8.798-4.808ZM198.305,136.301c19.501-12.592,42.61-11.891,60.199,3.571,1.248-1.842,2.65-3.472,4.509-5.012-14.651-13.629-35.599-17.589-54.326-11.108-1.423.492-2.761.374-3.979,1.368-17.408,7.282-30.863,21.252-37.737,38.828-1.86,4.754-3.203,9.203-3.904,14.375,2.274,1.258,4.655,1.902,7.223,2.05,2.756-18.159,12.552-34.087,28.016-44.073ZM358.192,133.014c1.165-1.037,2.614-2.452,3.016-3.905.441-1.595-.806-3.1-1.905-3.728-1.093-.625-3.428-.767-4.12.304l-2.251,3.483,5.26,3.846ZM189.976,130.377l-1.803-2.672c-2.193-2.36-5.714-1.402-7.468.882-1.151,1.499-1.693,3.087-1.089,4.895.403,1.208,1.767,2.614,3.023,3.06l7.337-6.164ZM146.222,150.89c2.167-4.525,4.524-8.716,7.173-13.106.811-1.343.405-3.737-.137-4.779l-2.488.968.876-3.47-3.431-3.092c-1.501-1.352-3.762-.531-5.286.271-3.488,1.835-5.004,5.239-3.972,9.032.68,2.497,2.533,4.79,5.146,5.01.848-1.525,1.388-2.557,3.044-3.295l-.01,6.521-2.376.18,1.461,5.76ZM275.501,150.364c1.733-1.652,2.077-4.347.495-5.979l-3.531-3.643-3.3,3.424c-.659.684-1.168,2.768-.891,3.651.335,1.069,1.052,1.769,2.281,2.852-.101.308-1.069,1.445-1.651,1.813-2.828-.993-4.115-4.191-3.289-7.096.568-1.995,2.024-3.543,3.44-5.087l3.311-3.611,4.787,4.902c3.025,3.097,3.733,7.573.256,10.546,1.526,1.092,3.444,1.643,5.243.777,1.393-.671,2.724-2.168,3.14-4.012,2.011-8.91-8.341-13.515-13.419-20.376-3.58,5.643-10.151,8.957-12.57,14.703-1.278,3.035-1.145,6.832,1.56,8.982l4.656,2.067c-1.546,1.798-6.042,1.047-6,3.336.044,2.361,1.779,4.047,3.424,5.889,4.331-2.097,7.252-5.421,8.984-10.391l3.144,5.874c1.773-.952,1.786-3.013,1.204-4.75l-2.644-1.135c-.651-1.383-1.021-2.697-1.302-4.565l2.672,1.833ZM417.647,138.444c1.717,1.488,2.88,3.063,3.844,5.229,1.4-2.604,1.031-5.387-.102-7.869l-2.9-6.354c-.864,2.813-2.99,3.261-5.205,4.768-1.47,1-1.924,4.067-2.024,5.664l3.285,1.75,3.103-3.187ZM131.2,141.702l2.272-1.678c.481-1.932-.125-4.845-2.037-5.899-1.946-1.073-3.62-1.917-4.767-4.249-2.324,4.06-6.004,10.672-3.075,13.747l3.853-5.328,3.754,3.407ZM247.926,176.641c3.227-.565,5.747.329,8.594,1.645-1.171-4.84.756-9.331,4.458-12.508l-3.753-5.786c-1.369-2.11-.574-4.717,1.723-6.074-3.026-3.175-3.411-7.342-1.745-11.457-16.669-15.121-39.273-15.834-57.967-3.408-14.162,9.548-23.62,24.632-25.939,41.675,5.468-2.564,11.057-2.428,16.116.127,8.168-12.344,23.196-17.497,37.459-13.628,8.024,2.246,14.994,6.786,20.781,12.598.399-.407,1.177-1.305.983-1.708l-.71-1.477ZM297.19,176.463c-.103.895-.307,1.532-.021,1.723l1.506,1.008c6.987-7.134,15.683-11.947,25.771-13.092,12.73-1.204,24.792,4.288,31.924,14.728,4.729-2.569,9.766-2.743,14.929-.819-1.431-10.545-5.72-20.036-12.085-28.326-17.283-22.444-49.245-29.86-71.102-9.417,1.46,4.137,1.107,8.349-1.795,11.565,4.131,3.314,1.104,7.756-2.399,11.797,3.837,3.109,5.976,7.777,4.767,12.706l5.548-1.653c.867-.258,2.277-.348,2.957-.219ZM365.665,139.699c1.738-1.228,3.014-2.322,3.408-4.089.315-1.411-.591-3.034-1.428-3.944-.718-.78-3.21-1.909-3.977-1.08l-3.622,3.915,5.62,5.197ZM172.533,148.191c2.571-3.47,4.988-6.306,7.93-9.473-1.239-1.51-3.21-2.389-5.443-2.309-3.161.113-7.162,4.702-6.061,8.516.378,1.31,2.074,2.864,3.574,3.266ZM90.688,165.911c-.746-3.546-2.674-6.234-5.41-8.526-1.227-1.028-.895-3.434-.208-4.872.575-1.204,2.062-2.406,3.677-2.451.485-.014,1.471.471,1.783.815.26.287.236,1.319.115,1.579l-2.43.325c-.576.077-1.111,1.768-.944,2.361.321,1.142,1.132,2.211,2.097,3.436l-1.907.389c2.064,1.456,3.731.827,5.422-.485,2.604-2.021,4.139-4.782,2.731-8.193-.422-1.022-1.58-3.141-2.615-3.616-3.892-1.783-6.386-4.457-7.394-9.003-6.663,8.617-11.082,15.081-5.702,25.624l3.253,6.374c.276.541.133,2.102-.219,2.473-.294.309-.927.524-1.621.812-.593-1.018-1.445-2.174-2.358-2.54-1.12-.449-2.838-.023-3.782.772-2.68,2.254-2.234,6.397.337,8.663,3.23,2.847,7.849,2.675,11.068-.165.609-.537,1.826-1.571,2.117-2.315l2.861-7.312-.872-4.145ZM464,181.64c3.844.553,7.536-1.916,8.056-5.792.383-2.857-1.426-5.505-4.42-5.645-.878-.041-2.435.803-2.745,1.527-.365.851-.26,2.151-.108,3.277-1.905-.579-3.039-2.708-2.477-4.916,1.811-7.114,12.899-13.918-2.138-32.068-.922,4.01-3.405,6.526-6.864,8.111-2.114.969-3.562,3.539-3.82,5.768-.415,3.592,2.109,6.249,5.46,6.592.4.551.179,2.458-.447,2.506-2.456.187-4.341-1.234-6.533-2.664l5.447,10.449c-.022.021.396-.379.709-.679.614,5.916,3.371,12.596,9.878,13.533ZM417.443,146.775l2.399-1.818-1.755-3.292-2.013,2.038,1.37,3.071ZM129.618,143.736l-2.224-1.666c-.532.923-1.016,1.925-1.166,2.8-.111.645.912,1.486,1.868,2.166l1.523-3.3ZM143.551,158.373l.855-3.004c-.528-.841-.973-1.765-.936-2.598.167-3.685-1.372-7.335-4.31-9.283-2.09-1.386-4.285-1.181-6.134.109-1.618,1.129-2.789,3.473-1.64,5.607l4.523,3.11-.486-3.655c2.799.843,3.61,3.417,3.414,5.921l4.714,3.793ZM396.255,146.958c2.036,3.545,3.414,7.359,4.929,11.604l4.404-3.45c-.088-2.903,1.241-5.339,4.235-6.228l-.96,3.563,5.422-3.856c.782-2.325-.607-4.224-2.074-5.157-1.828-1.162-4.002-1.289-5.823-.071-3.187,2.132-4.819,5.48-5.022,9.54l-1.47-3.989c-.338-.917.447-2.982.955-3.764l-5.865-1.206.417,1.653c.107.423-1.112.881-.638,2.259.074.215.55.486.678.298l.813-1.195ZM145.179,220.806c.615-.728,2-.7,2.556-.061-1.1,1.565-1.458,3.027-.531,4.444.668,1.021,2.566,1.734,4.06,1.26,6.231-1.979,5.872-12.835,1.011-19.123-2.876-.747-5.205-2.918-5.571-5.853-.314-2.52,1.14-5.113,3.913-4.842-1.065,1.353-1.841,2.921-1.406,4.477.288,1.028,1.41,2.386,2.711,2.972,3.016,1.359,6.546-.264,8.221-3.209,3.255-5.721,2.702-12.651-.408-18.415-7.077-13.113-19.864-23.702-32.196-31.895-2.699-1.793-5.042-3.437-7.634-5.741-4.966,19.275-6.364,37.362-1.209,56.726,2.056,7.722,5.517,15.843,11.822,20.55-1.271,5.592.417,11.144,4.275,15.065,3.739,3.801,9.27,5.669,14.812,4.332,14.654-3.537,19.382-24.878,12.861-38.407-2.146,2.335-3.97,3.844-6.763,4.463,4.276,6.515,4.587,16.436-1.556,20.629-2.64,1.802-6.155,1.711-8.429-.457-2.002-1.908-2.359-4.763-.539-6.917ZM400.529,221.294c1.577,2.613.488,5.676-2.041,7.136-3.969,2.292-8.671.2-10.741-3.997-2.661-5.396-1.613-11.805,1.892-17.069-2.661-.786-4.863-1.99-6.697-4.39-5.655,10.16-3.507,26.671,5.031,34.323,4.195,3.759,9.716,5.416,15.268,3.976,8.307-2.155,13.749-10.607,11.691-19.077,3.396-2.612,6.006-5.833,7.856-9.707,7.053-14.769,8.186-35.226,5.771-51.477l-3.195-16.014-6.568,4.731c-12.711,8.329-26.574,19.032-33.419,32.64-5.13,10.199-1.794,21.266,5.59,21.914,2.01.177,3.935-.853,4.727-2.42.867-1.716.393-3.445-.861-5.321,2.53-.18,3.84,1.865,3.768,4.042-.063,1.897-.943,3.356-2.397,4.44l-3.04,2.265c-4.75,5.098-5.927,15.592-.081,18.773,1.605.873,3.48.638,4.636-.639,1.093-1.208,1.105-2.834.017-4.638.416-.211,1.062-.51,1.417-.549s1.145.677,1.377,1.062ZM447.71,157.596c-1.355-3.883-1.43-6.882.575-10.065-3.546.262-6.563-.568-9.542-2.524,1.145,4.121,1.97,7.978,2.252,12.286l2.462-5.125,4.253,5.428ZM170.904,150.449l-2.737-1.701c-3.057-.517-5.935,1.581-6.377,4.564-.412,2.78,1.349,5.598,4.16,6.188l4.955-9.051ZM378.96,159.911c2.79-.723,4.981-3.268,4.464-6.152-.487-2.717-2.62-4.889-5.82-4.64l-3.171,2.096,4.527,8.697ZM284.919,159.117c.549-1.294-.461-2.858-1.742-3.248-1.206-.367-3.208-.441-4.174-.35l-1.746,4.738,4.469,3.385c1.499-1.647,2.407-2.668,3.194-4.526ZM164.141,163.759l.949-2.105c-2.472-.955-4.161-2.727-5.095-5.33-.828,1.389-1.387,4.845.505,5.73l3.641,1.705ZM96.814,176.786l3.36-8.735,1.647,1.325c1.127,3.666,2.597,7.004,3.971,10.601l3.032,7.936c.94,2.46.527,5.011-.508,7.491l2.341,2.041c1.026-1.257,2.291-2.866,2.824-4.055l-.943-7.518-4.101-9.759c-2.652-6.31-4.57-12.554-6.337-19.41-3.823,6.875-7.67,13.689-10.455,21.11l-1.725,4.596-.7-1.005-.75,4.261c-1.161,4.352-1.532,8.586.437,12.758l-1.739,1.367c-1.524,3.939-.814,8.691,2.018,11.626l5.066.901c-3.322-4.204-2.894-9.579.586-13.736-1.657-2.581-2.562-5.669-1.916-8.921.868-4.371,2.23-8.557,3.891-12.875ZM380.618,163.627l4.327-1.64c1.144-1.058,1.156-3.643-.06-5.055-.555,2.772-2.312,4.421-5.029,5.009l.761,1.686ZM452.35,187.3c1.301,3.801.448,7.48-1.311,10.772,3.317,4.075,4.051,9.609.786,13.889l4.687-.675c2.607-3.107,3.47-7.595,1.714-11.362l-1.946-1.049c2.772-5.412,1.454-11.591-.85-17.313-3.423-8.501-7.045-16.758-11.857-24.629-2.618,9.188-5.512,17.384-9.384,25.611-2.514,5.342-3.761,12.313,1.235,14.913l2.121-2.216c-1.605-3.099-.991-6.601.251-9.931l6.928-18.577c1.031,1.643,1.761,3.433,2.411,5.334l5.214,15.234ZM93.959,165.359l3.44-6.606-5.336,2.737,1.896,3.869ZM269.357,178.413l3.247-3.067,3.239,2.961c2.278-1.748,1.315-4.697-.249-6.211-.188-.389.493-1.531.912-1.461s1.253.546,1.554.861c2.417,2.53,2.636,5.916.098,8.29l3.336,2.228c2.728-.715,4.358-2.974,4.577-5.744.287-3.621-1.689-6.579-4.402-8.7l-5.255-4.108c-1.431-1.119-2.791-2.727-3.976-4.187-.84,1.28-2.044,2.721-3.353,3.751l-6.369,5.011c-2.269,1.785-3.732,4.458-3.776,7.303-.051,3.305,2.013,5.894,5.007,6.862l3.166-2.223c-3.156-2.882-2.164-7.126.913-9.515l4.465-3.467,1.878,3.637-1.722-1.221-3.248,3.261c-1.651,1.658-2.104,4.209-.041,5.74ZM160.398,177.078l2.754-10.839c-1.057-1.253-3.689-1.463-5.336-.709-1.226.562-3.384,2.905-2.29,4.49l4.872,7.058ZM384.53,177.227l4.551-6.551c1.244-1.79-.373-4.196-1.742-5.147-1.766-1.227-4.091-.611-5.76.547l2.951,11.151ZM247.534,193.771c2.988,2.821,6.203,4.853,10.146,5.955-2.587-4.556-1.687-9.681,1.771-13.692-.971-3.515-4.104-5.998-7.883-6.203l-1.398,1.17c-.238.199.466,1.191.8,1.123,1.023-.207,2.593.2,2.768,1.447.153,1.09-.581,2.426-1.784,2.356-2.343-.135-4.012-1.449-5.337-3.193-1.116-1.469-2.537-2.596-3.968-3.719-3.835-3.009-7.576-5.551-12.074-7.455-11.44-4.842-24.498-3.159-33.816,5.132-2.707,2.409-4.812,5.113-6.277,8.461-3.883-3.19-8.901-3.759-13.887-2.641l-5.879,1.319c5.614,1.083,9.39-.482,13.85,5.325l6.959.878c3.053-4.395,7.157-7.513,12.063-9.782,11.703-5.411,25.031-3.354,34.907,4.983l9.039,8.534ZM279.465,197.633l4.359,1.9c3.132-2.435,3.484-7.739,3.115-12.053,2.945,3.365,2.895,8.17.896,12.244,9.675-2.884,13.634-10.921,21.708-16.498,14.412-9.954,34.38-7.479,44.861,6.638l7.56-.823c3.519-5.807,8.191-4.011,13.32-5.178l-6.421-1.604c-4.892-1.222-9.878-.444-13.81,2.709-1.514-3.262-3.232-5.787-5.737-8.016-8.334-7.417-19.751-9.842-30.527-6.837-7.978,2.225-14.538,6.787-19.978,12.959-1.616,1.833-6.897,3.881-7.344,2.075-.546-2.207,1.153-3.498,1.607-3.256.333.178.654.559,1.183,1.165l2.458-1.362c-1.206-2.031-2.963-2.049-4.778-1.501-2.657.803-4.943,2.393-5.764,5.236-.24.831-.904,1.857-1.554,2.57-3.783-4.101-8.62-5.432-12.025-9.476-4.22,4.943-10.403,6.301-12.964,11.937-1.518,3.34-.819,7.074,2.118,9.161l4.248-1.998c-2.058-3.695.16-7.223,3.171-9.383,2.083-1.494,4.051-1.904,6.366-.301,3.746,2.592,5.727,5.309,3.93,9.693ZM111.704,211.41c2.132-1.342,3.726-2.413,5.247-3.882l-2.932-10.764-2.292,2.117c1.438,1.758,2.199,3.651,1.806,5.463l-1.183.693c-.89-2.622-2.213-5.167-4.356-6.94l-4.289-3.548c-.637-.527-.585-1.884-.134-2.446l2.528,1.697c.484-2.243.543-4.634-.369-6.84l-3.203-7.751-1.812-5.047c-2.228,6.712-7.15,15.897-4.181,22.001l3.273-3.899c.74.94.638,1.808.058,2.693l-4.019,6.129c-2.517,3.838-1.885,8.645,1.864,11.326l2.17-2.23c-2.405-2.272-2.237-5.223-.6-7.703l2.941-4.457c1.087,1.143,2.249,2.328,3.426,3.134,2.73,1.87,3.72,5.127,2.302,8.047.385.971,1.991,1.452,2.913.882l.842,1.325ZM436.228,210.453l1.967-1.307c-1.294-2.959-.213-5.584,1.956-7.693l3.722-3.619,2.699,4.74c1.467,2.576,1.792,5.138-.546,7.398l2.193,2.072c3.489-2.51,4.396-7.09,2.003-10.693l-4.684-7.052c-.674-1.015-.707-2.352,0-3.163l3.82,4.588c.593-1.847,1.184-4.306.483-6.499l-4.806-15.036-3.969,9.955c-1.094,2.745-2.124,5.505-1.542,8.439.085.428.369,1.096.647,1.023l1.086-.282c.707,3.699-6.013,4.507-7.318,11.369l-1.506-.793c.172-1.676.706-3.248,1.692-5.066l-2.861-2.076-2.398,9.538c.391,2.3,3.291,3.676,5.103,4.323l-.468-1.695c-.087-.316.489-.874.718-1.099l2.007,2.628ZM359.377,205.679c-3.222,2.849-5.225,6.195-6.97,9.894l-3.26,6.909c-3.4,7.206-9.631,12.8-17.188,15.611-7.915,2.944-16.614.424-22.44-5.583l2.997,7.562,3.11,3.155c10.933,4.31,20.159,2.452,30.284-3.372,7.696-4.427,13.01-11.763,15.844-20.216,7.946-2.36,13.273-9.788,15.806-17.529,1.123-3.434,1.317-6.806,1.714-10.452l.758-6.964c-2.457,1.49-5.111,3.008-8.057,2.811-3.497-.234-7.146,1.028-8.203,4.579-.449,1.508.202,3.39,1.253,4.227,2.536,2.019,4.16-.282,5.449-.685.307-.096.801,1.113.697,1.477-.44,1.541-2.56,3.151-4.514,2.983-4.027-.347-6.728-3.986-5.839-8.073l-8.09.71c-7.465-10.419-20.784-14.879-32.926-11.032-5.553,1.76-9.97,5.104-14.155,8.997l-7.764,7.222c-3.412,3.174-12.522,6.312-13.325,5.748-2.722-1.913-5.686-3.145-9.025-3.709-.709-.12-1.949-.975-2.658-1.464l-3.641,1.55c-2.985.761-5.74,1.973-8.275,3.626-6.492-.937-12.14-4.102-16.855-8.646l-6.619-6.379c-12.806-12.342-33.795-10.613-44.38,4.215l-7.873-.649c.625,4.128-1.783,7.463-5.536,7.972-2.269.308-4.39-.929-5.108-3.038-.116-.341-.031-1.053.194-1.275.968-.957,2.281,1.876,4.586,1.461.912-.164,2.165-1.171,2.539-2.196.997-2.725-.446-5.553-3.023-6.742-3.789-1.749-7.988.363-13.322-3.356l.606,7.874c.877,11.406,6.816,23.082,17.938,27.001,2.614,7.311,6.887,14.174,13.646,18.588l7.557,4.162c6.666,3.671,17.749,4.229,24.769.643l3.445-3.094c.765-3.014,2.117-5.609,3.747-8.467-7.027,8.144-18.272,9.989-27.496,4.413-6.939-4.195-11.954-10.643-14.989-18.202-2.078-5.176-4.912-9.144-8.765-13.543l5.793,1.111c4.152.796,7.923-1.042,11.152-3.515,4.095-3.136,8.479-5.57,13.678-6.176,6.582-.767,12.819,1.705,17.81,6.005l8.701,7.495c4.19,3.609,9.613,5.124,15.154,4.736,7.735-8.865,21.504-8.685,29.165.012,9.656.698,15.669-4.803,22.128-10.909,10.196-9.638,22.61-10.062,33.741-1.551,4.416,3.764,9.891,4.903,15.346,2.692l1.159.152c.264.035-.265,1.046-.471,1.228ZM64.47,191.121c-.152,4.604,2.755,8.659,6.992,9.782,5.393,1.429,10.554-1.864,12.339-6.917.912-2.584.847-5.175-.953-7.287-1.156-1.356-2.811-2.058-4.565-1.359-3.932,1.569-1,5.836-4.223,7.701-.349-1.668-.609-3.187-1.313-4.125-1.712-2.281-4.84-.57-7.777-2.152l-.498,4.357ZM480.244,186.542c-3.146,1.957-7.137-.437-8.053,3.604l-.642,2.831-2.061-2.801c.639-1.716.493-2.946-.353-3.897-.956-1.075-2.483-1.535-3.893-1.212-3.137.72-4.405,3.598-4.42,6.612-.007,1.424.705,1.995,1.267,3.071,2.495,4.773,7.513,7.922,12.978,5.846,5.773-2.193,6.595-8,5.177-14.054ZM272.564,194.916c1.419.991,2.864,1.986,4.135,1.866,1.481-1.846.605-4.05-1.05-5.377l-3.162-2.534-2.997,2.612c-1.457,1.269-2.286,3.586-.692,5.243.986.494,2.954-1.063,3.766-1.811ZM201.039,223.81c-1.545-11.629,4.564-21.183,14.247-24.333-8.262.965-12.635,9.704-22.235,9.186l3.687,6.932,4.301,8.216ZM349.91,214.064c.958-1.965,1.799-3.634,3.029-5.444-9.459-.152-13.399-8.312-21.629-9.163,6.315,2.171,11.358,6.69,13.124,13.236,1.62,3.463,1.392,6.85.871,10.811l4.605-9.44ZM67.94,215.55l4.965.396c2.791.223,6.074-.268,7.309-3.226.547-1.311.112-3.414-1.12-3.907-.704-.282-1.368-.981-1.292-1.458.063-.396,1.492-1.022,1.836-.816l4.369,2.616c-.73-3.18-.852-6.057-.227-9.183-2.769,2.358-5.342,3.831-8.574,4.295l-1.616,3.611c-.703,1.57,1.338,2.283,2.969,2.496-.238.629-1.761,1.335-2.512,1.183-1.197-.243-1.57-1.252-2.039-2.295-.778-1.732-1.099-3.313.29-4.985-2.595-.604-4.584-1.484-6.549-3.015-3.651,5.671-.927,14.04,2.191,14.289ZM467.412,221.778c-.671,2.488-.092,5.304-1.768,7.452l4.306,2.561c.642.382,2.146-.523,2.479-1.194.361-.726.231-2.468-.63-2.9-.507-.254-1.801-.109-2.512-.007.262-1.395,1.669-3.081,3.339-2.474,1.714.623,2.637,2.581,2.607,4.33-.027,1.585-1.214,3.316-2.616,4.078l6.012,5.663c1.77-.697,3.631-2.008,4.569-3.61,1.81-3.093.937-6.516-1.967-8.571,2.616-2.969,3.305-6.435,1.839-9.97-.321-.775-.256-2.217-.102-3.149l-3.093,2.237.856-3.748c1.256-3.834,1.178-7.951-.961-11.516-1.834,1.845-4.081,2.643-6.776,3.16,1.582,2.173,1.778,4.661.272,6.533-1.438,1.147-3.148,1.21-4.815-.215l1.952-1.036,1.212-.643c.291-.154.165-1.277-.002-1.585l-1.647-3.039-5.296-1.884c-.548.066-2.172,1.282-2.292,2.015l-.741,4.523,2.223-.521c.255,1.544.466,2.036.996,3.079.623,1.228.999,2.76,2.295,3.556,1.881,1.157,4.038,1.021,6.174.918l4.854-.234c.072.311-.344,1.817-.769,2.341-.739.913-8.842-.448-10.001,3.849ZM208.296,231.456c2.339,2.3,5.653,3.638,8.712,4.391,9.686,2.383,19.5-3.62,21.233-13.521,1.625-9.286-4.434-18.296-13.542-20.484-7.362-1.769-14.438,1.764-18.503,7.812-4.306,6.405-3.523,16.273,2.1,21.803ZM342.672,224.518c.911-2.2,1.14-4.922,1.372-7.211.26-2.57-.887-3.931-2.224-5.62-2.124-2.685-3.889-5.545-6.853-7.396-4.757-2.971-10.158-3.885-15.882-1.845-4.325,1.541-8.121,5.202-10.204,10.248-2.208,5.349-1.562,11.358,1.842,16.328,6.423,9.38,20.418,9.524,28.596,1.039,1.418-1.471,2.576-3.667,3.353-5.544ZM105.34,208.156c1.135-.709.965-3.083-.085-4.069l-2.49-2.337-1.636,2.273c-.939,1.305-.602,3.366.495,4.325.668-.536,1.369-1.243,1.807-1.047l1.909.855ZM444.245,208.177c1.252-.546,1.261-2.99.517-4.062l-1.698-2.444-1.817,1.733c-1.323,1.261-1.856,3.282-.536,4.577.679-.45,1.429-.986,1.82-.812s1.335,1.174,1.715,1.009ZM107.488,223.356c.594-2.15-.05-3.017-1.499-4.05l.544-1.798c2.936.928,4.005,3.39,3.339,6.089l3.141.402c.74-.946,1.4-2.297,1.343-3.458-.158-3.18-2.219-5.131-4.65-6.767l-4.654-3.133c-.706-.475-1.235-2.082-1.511-2.863-.283,2.094-1.129,3.677-2.52,5.038-3.728,3.183-7.319,7.245-4.917,11.247l4.665-.593c-.879-1.99.329-4.455,1.502-5.177.348-.214,1.225-.121,1.523-.02,1.734.586-2.165,2.677-.246,4.974l3.941.109ZM438.664,223.112l3.953-.155c1.461-2.169-1.041-3.465-.396-4.527.123-.203.922-.413,1.181-.292,1.454.679,2.851,3.234,1.891,4.989l4.636.656c2.38-3.15-.517-7.197-3.903-10.072-1.66-1.41-3.065-3.127-3.725-4.959-.997,1.234-2.153,2.417-3.396,3.226l-4.4,2.863c-3.021,1.966-3.959,5.775-2.13,8.914l3.372-.575c-.24-2.318.471-3.914,2.055-4.969l2.915-1.941c1.173,3.396-3.763,3.502-2.052,6.841ZM428.808,221.225c.054-3.458,1.347-6.126,3.651-7.84l-5.009-3.485-1.792,4.425c.976,3.236-.802,5.542,3.15,6.9ZM122.346,218.723l-.67,3.881c-1.389-.358-2.508-.837-3.457-1.4l1.296-2.012c.822-3.2-.019-6.203-1.41-8.946l-4.3,3.116c2.914,2.874,4.403,7.329,2.173,11.174,3.937.914,7.532,2.037,10.883,3.482l.297-4.635-4.812-4.659ZM158.769,240.392l1.183,2.337c8.646-6.741,19.125-8.736,29.636-6.927-3.626-4.336-6.142-8.511-7.789-13.413-2.921-1.098-5.399-2.726-7.786-4.761l-6.015-7.379c.909,4.744.652,9.093.052,13.689,3.735-.95,6.889,1.066,8.452,3.951l-3.883.925c-1.575-1.134-3.788-1.701-5.658-1.307-1.707,5.12-3.837,9.512-8.191,12.885ZM292.337,224.926c6.252-.525,11.559,1.943,16.062,6.216-4.163-6.567-4.97-13.855-1.641-20.905-5.072,3.942-10.382,6.929-16.902,6.976,1.227,2.562,1.986,4.791,2.482,7.713ZM253.523,224.925c.354-2.997,1.133-4.96,2.535-7.62-6.092-.213-11.357-2.785-16.48-6.686,3.318,7.189,2.085,14.325-2.038,20.902,4.377-4.553,9.759-7.047,15.982-6.597ZM200.841,298.333c-6.044,6.188-14.433,7.517-20.687,1.978-4.041-3.579-5.982-8.608-5.228-14.079.645-4.674,3.501-9.183,8.22-11.623,4.677-2.418,10.365-2.234,14.801.58l5.007,3.176c15.574,11.294,33.457,18.216,52.627,20.76,18.903,2.509,37.847,1.187,55.948-4.81,11.449-3.793,21.857-9.307,31.673-16.126,2.618-1.819,5.17-3.417,8.137-4.445,4.771-1.653,9.863-.693,13.803,2.32,3.591,2.747,5.773,7.253,5.655,12.153-.183,7.563-5.285,13.907-12.733,15.308-5.17.973-9.935-1.254-13.513-5.386.24,1.864,1.227,3.419,2.282,5.058,1.62,2.517,3.716,5.021,6.903,5.677l6.303,1.298c4.55.937,9.283.537,13.753-.61,21.753-5.584,29.915-32.553,19.621-52.419-7.835-15.119-24.57-22.166-40.853-17.003-8.113,2.572-14.905,7.736-20.487,14.279l-6.725,7.881c-2.663,3.121-6.326,5.165-10.251,6.361-5.781,1.761-11.799.111-15.877-4.312l.819-1.002c5.059,2.075,10.426.173,13.178-4.225,3.842-6.14,1.749-13.633-3.941-17.62-.394-3.642-2.008-6.812-4.71-9.234-4.947-4.433-11.411-5.547-17.933-2.875-.483-1.902.986-2.55,2.425-3.235-.257-8.44-7.659-15.235-15.928-15.389-8.582-.159-15.939,6.617-16.493,15.217,1.701.714,3.322,1.712,2.575,3.594-5.247-2.249-10.333-2.145-15.251.79-3.766,2.247-6.563,6.406-7.403,11.228-4.115,2.841-5.941,6.341-6.506,11.217-.114.981-.925,2.578-1.532,3.875-1.594-2.819-1.1-6.241-.144-9.446l-8.922,1.158-7.891-.4,8.357,9.309,3.952,4.141c3.448,2.946,7.55,5.103,12.387,4.871-2.69-1.482-5.026-3.304-6.336-5.819.714-.437,1.146-.636,1.2-.975l.309-1.956c3.245,5.635,8.997,8.216,15.553,5.476-3.268,5.895-10.774,7.647-16.878,5.584-4.497-1.52-8.119-4.348-11.194-7.889l-6.972-8.027c-12.888-14.839-35.085-19.708-51.157-6.47-12.058,9.931-16.349,26.361-11.582,41.198,5.536,17.227,22.559,26.986,39.931,21.566,2.74.276,5.029-.273,7.615-1.283l-1.653,1.337,5.466,2.337,6.08-8.936-2.763-2.119c-1.317,2.049-2.571,3.716-4.04,5.204l-.215-3.554,1.221-3.666ZM374.828,227.849l-3.033.261c-.781.067-1.387-.009-2.463-.391.988-1.191,1.688-1.785,2.878-2.544,1.464-1.148,3.133-1.501,5.187-.643-.859-4.435-1.09-8.511-.575-13.126-3.303,4.806-7.329,8.904-12.893,10.81-1.379,5.309-4.359,9.484-7.981,13.644,10.573-2.147,20.943.271,29.299,6.438l1.238-1.872c-4.003-3.44-6.478-7.632-8.044-12.778l-3.613.201ZM72.841,225.833c.783-.491,2.25-.656,3.165-.097.614.375.952,1.712.871,2.546-1.466-.93-2.932-.862-3.544.358-.368.734-.129,2.26.894,2.772.706.353,1.93.637,2.653.693l3.732-2.567c-2.679-2.223-1.812-5.148-2.27-7.661-.967-3.075-5.409-3.447-8.143-3.394-3.249.064-5.408-2.272-7.539-4.54.055,1.044.073,2.513-.305,3.506-1.309,3.431-.541,6.788,1.932,9.629-1.728,1.376-2.922,3.074-2.965,4.986-.09,3.957,3.383,7.538,6.801,7.263l5.737-5.323c-1.309-.604-2.09-1.72-2.592-2.859-.967-2.191-.569-3.97,1.574-5.314ZM463.301,227.897c2.84-5.448-.58-8.441-1.164-13.113-3.806.208-6.33-2.263-10.719.707l2.166,4.318c1.731-.702,3.871-.517,4.997,1.003,1.076,1.452,1.277,3.424-.434,5.061l5.153,2.024ZM92.756,219.796l1.897-4.107c-5.449-3.321-8.567.48-11.313-1.227-.033,5.23-4.63,9.401-.139,13.769l5.351-2.143c-1.909-1.363-1.974-3.405-.937-5.021,1.129-1.76,3.256-2.064,5.141-1.271ZM429.534,224.313l-.825-2.751-4.375.636-.979-4.129-5.001,5.233.338,4.595,10.843-3.585ZM93.247,224.528c-.561-1.911-.945-2.76-1.947-3.051-.896-.26-2.18.677-2.148,1.912.017.661,1.264,1.802,1.926,1.779.629-.022,2.027-.435,2.169-.64ZM456.16,224.844c.955-.491,1.383-1.506,1.19-1.99-.22-.554-1.224-1.36-1.787-1.282-1.43.198-2.26,1.193-2.501,2.793.593.347,2.351.863,3.097.479ZM137.65,292.348c3.551-.246,6.693-.098,10.018.45-7.547-16.476-3.588-35.651,9.354-47.873l-1.264-2.409c-10.538,6-23.762,1.261-27.791-10.102-6.1-3.268-12.617-5.019-19.61-5.56-17.213-1.33-35.399,7.58-43.67,23.294,24.928-4.89,59.816,11.576,70.635,33.748,1.248,2.557,1.785,5.509,2.328,8.452ZM407.869,292.102c.561-5.77,2.906-10.334,6.006-14.713,4.147-5.765,9.369-10.263,15.205-14.41,15.266-10.005,34.025-15.849,52.411-13.167-12.513-23.313-41.71-29.343-64.182-17.351-2.725,8.175-11.416,13.133-19.648,12.561-3.063-.213-5.832-1.48-8.542-2.549l-1.09,2.092c13.204,12.459,16.926,31.819,9.406,48.449,3.554-.837,6.841-1.063,10.434-.912ZM334.169,247.712l-5.19.514c-2.476.245-4.275-.789-6.752-1.14l-4.897-.695c2.63,7.884-.075,15.763-7.284,19.746,7.364.202,12.085-4.715,16.396-9.625l7.727-8.8ZM126.754,288.193c2.64,4.508,3.771,9.087,3.876,14.465,3.463-2.728,4.289-7.192,3.446-11.512-2.881-14.766-19.602-26.605-33.077-32.545-11.843-5.221-27.618-8.341-39.729-4.089-4.083,1.434-6.888,4.664-7.265,8.961l5.204-2.08c6.075-2.428,13.992-2.456,20.704-1.433,14.324,2.182,27.617,8.559,38.396,18.169,3.367,3.002,5.981,6.214,8.444,10.064ZM464.367,263.103c-17.698,3.154-38.542,14.912-46.052,31.785l-2.055-.006c1.412-9.01,9.928-16.852,17.119-21.912,9.884-6.955,20.977-11.558,32.973-13.268,8.577-1.075,17.42-.822,25.279,3.059-.381-4.016-3.042-7.099-6.789-8.418-13.602-4.79-31.912-.31-44.892,6.153-8.578,4.271-16.065,9.803-22.153,17.175-6.015,7.284-9.904,18.627-2.906,24.794.642.565,1.552.636,2.481.376.163,2.734,1.263,5.354,3.57,6.863-.366-9.334,5.966-18.075,12.955-24.049,7.735-6.611,16.624-11.202,26.407-14.116,8.109-2.415,16.322-3.074,24.684-1.886,3.812.541,7.047,1.852,10.389,4.066-1.484-12.781-19.762-12.62-31.011-10.615ZM124.46,310.232c2.026-1.48,2.865-3.694,3.056-6.13,1.166-14.859-12.159-26.099-24.498-32.932-9.548-5.287-19.814-8.502-30.802-8.851-9.426-.299-20.893,1.743-21.913,11.758,4.227-2.993,9.011-4.18,14.167-4.647,16.215-1.466,33.33,5.297,45.937,15.42,7.668,6.156,14.674,15.178,14.052,25.382ZM426.608,343.708c10.578,12.445,16.807,29.303,15.023,45.516,14.505-7.025,27.825-15.532,39.887-25.848,6.64-5.679,12.284-11.838,17.218-18.905,7.687-11.012,10.463-23.955,7.828-37.182-2.227-11.181-6.443-21.722-13.323-30.871-5.928-4.65-16.709-4.893-24.387-3.57-12.632,2.177-24.422,7.71-33.897,16.251-8.223,7.412-14.865,18.932-7.104,28.036,6.31-5.179,13.185-9.372,21.016-11.119,4.103-.916,8.404-1.769,12.373.806-20.296,1.681-33.5,12.259-44.708,28.615,3.83,2.105,7.047,4.709,10.076,8.272ZM129.019,335.456c-11.71-16.171-24.505-27.227-44.92-28.641,2.542-1.776,5.285-1.684,8.016-1.506,5.982.39,11.467,2.603,16.588,5.61l8.933,6.349c7.922-9.839.635-21.204-8.048-28.784-9.633-8.409-21.474-13.597-34.12-15.639-5.46-.773-10.458-.56-15.798.453-.517-.214-1.794-.751-2.14-.446l-1.491,1.314c-1.126.993-3.277,1.654-4.284,3.003-7.866,10.53-12.969,22.975-14.311,36.174-1.087,10.692,1.989,20.979,7.763,29.847,5.112,7.851,11.239,14.485,18.407,20.569,12.083,10.255,25.296,18.583,39.931,25.647-1.92-16.977,5.575-36.305,17.337-48.012,2.435-2.423,4.941-4.252,8.135-5.94ZM361.855,278.047c-2.55-1.785-5.76-2.308-8.635-1.365,3.108.113,5.651.543,8.635,1.365ZM195.175,277.687c-3.206-1.733-7.118-1.96-10.646-.024-2.461,1.35-5.58,4.172-5.566,7.827,2.581-6.653,9.204-9.46,16.213-7.803ZM216.743,302.844c3.856,3.62,8.427,5.719,13.674,5.642-1.755-4.107-1.46-8.241.443-12.166-10.55-3.72-20.141-8.564-29.245-14.934l-1.436,5.328c-1.905-2.897-4.609-5.363-8.162-5.886-4.757-.7-8.929,2.521-10.1,6.654-1.337,4.72,1.033,9.361,5.444,11.35,4.827,2.41,10.523.318,12.993-4.396-.127-.282-.336-1.837.045-1.879l1.776-.199c1.712,4.439,5.552,7.668,10.313,8.901-.767-2.333-.569-4.5.593-6.162l3.663,7.746ZM345.041,294.961c2.194,3.864,6.812,5.544,10.844,4.738,3.898-.779,7.158-3.949,8.104-8.052.765-3.32-.058-6.584-2.371-8.757-2.37-2.227-5.579-3.092-9.005-2.094-3.483,1.015-7.452,4.228-7.499,8.153l-.072,6.012ZM336.967,299.97c3.992-1.855,5.476-6.668,6.193-10.899l1.341-7.905c-7.63,5.146-15.044,9.185-23.464,12.778,1.897,4.24,2.397,8.581.567,12.864,3.388.519,6.289-.823,9.185-2.137.557.51,1.122.955,1.48.852,1.491-.43-1.039-2.888,4.698-5.553ZM312.105,312.145c7.143-3.326,9.015-10.038,6.514-17.21-6.77,2.83-13.106,4.496-19.963,6.029,1.613,4.351,1.895,8.486.714,12.445,4.507,1.56,8.627.65,12.735-1.263ZM142.064,325.929c.926.531,1.622.911,1.871.654l1.054-1.088,4.341,1.133c4.589.67,8.895-1.809,11.429-5.359-2.589-4.029-1.797-8.734.76-12.398l-5.578-4.206c-2.084,2.956-6.528,6.233-9.295,5.529-.271-.069-.213-.952-.22-1.514,2.949-1.293,6.067-3.225,7.619-6.022l-4.274-5.711c-3.744-1.381-8.048-1.912-12.062-1.232-.365,2.468-1.364,4.906-2.366,7.119,1.18,3.544,5.064,5.181,8.726,5.597l.718,2.279-1.857.013c-2.251,2.943-2.467,6.321-2.643,9.933-.074,1.534-.874,2.946.967,4.161-3.666,3.584-8.565,4.488-13.524,3.111l4.843,6.72c3.273-.148,6.067,1.245,7.397,4.325.203.47.999.879,1.458.75-2.444-4.44-2.553-10.043.636-13.796ZM420.103,324.513c2.391-2.041,4.366-4.755,3.096-7.818l-1.255-3.027c-3.566-.726-6.03-3.537-6.697-7.062l-2.79-1.483c-1.722,2.545-4.143,4.115-6.861,5.151,2.354,3.784,3.297,8.321.744,12.143l-.961-1.973c.207-3.503-.695-6.888-2.841-9.641l-1.402-.46c.555-1.299.982-1.775,2.181-2.109,2.823-.786,5.97-2.294,7.219-5.086-1.246-2.316-2.462-4.77-2.662-7.601-4.091-.313-8.341.04-12.274,1.234l-3.677,5.45c.893,1.17.668,2.516-.531,3.536l-1.501-1.403-5.477,4.381c2.288,3.792,2.809,8.47.822,12.584,3.7,5.556,10.515,6.747,16.057,3.587.695,1.168,1.423,1.313,2.447,1.194,2.703,4.071,2.762,9.394.257,13.529.419.065,1.029.105,1.124-.13l.323-.799c1.256-3.105,4.568-4.274,7.68-4.261l4.223-6.106c.793-1.147,1.654-2.889,2.757-3.83ZM251.12,314.103c-1.604-4.436-1.002-8.592.952-12.409-6.665-1.161-12.615-2.638-19.083-4.601-1.441,4.265-1.042,9.175,2.071,12.848,4.406,3.609,10.281,5.199,16.06,4.162ZM345.013,311.458l4.311-2.056c-3.41-2.467-6.294-5.191-7.612-8.977l-2.277,2.258,5.578,8.776ZM274.712,306.23c2.618,4.845.089,8.652,4.425,10.325,4.782,1.844,9.846,1.423,14.403-.859,4.238-3.261,4.01-8.907,2.677-14.398-14.029,2.537-28.025,2.762-42.316.636-1.051,6.535-1.584,12.32,4.494,14.692,4.991,2.022,14.213.851,14.484-2.005.286-3.016.623-5.428,1.832-8.39ZM135.134,383.567l-1.433,10.512c-.338,2.48.311,4.865.958,7.386,8.041,4.821,17.22,7.193,26.569,5.806,9.956-1.477,17.874-8.48,19.752-18.368.398-2.097.845-3.956,2.088-5.963,1.294,3.109,1.645,6.481.281,9.585l-3.019,6.87c6.674.391,12.509-5.147,14.027-11.458l-1.36-4.042,3.49-1.284c4.112,12.666,11.376,23.942,21.429,32.89,28.374,25.258,69.398,28.063,101.123,6.794,14.098-9.451,24.653-23.005,30.18-38.97-5.601-4.159-6.627-11.515-3.58-17.497-4.855-5.634-5.256-13.397-.799-19.27-.502-3.491-2.539-6.121-5.695-7.76-2.225-3.121-2.516-7.184-1.137-10.93-1.139-5.209.442-10.074,4.264-13.99l-6.271-9.726c-4.477,3.94-10.419,6.726-15.99,5.566-5.631,6.218-14.27,9.284-22.297,6.43-5.748,5.421-16.927,6.342-22.719,1.289-5.536,4.688-16.349,4.311-21.955-.5-7.108,1.495-16.023-.012-20.767-5.591-6.589.698-13.684-1.651-17.845-6.691l-4.464-.619-6.663,10.008c3.731,3.813,4.938,8.678,3.473,13.505,1.564,4.253,1.553,9.475-1.599,11.536l-1.009-3.083c-.744-2.272-1.565-4.264-3.483-5.975-5.55-4.951-13.628-5.74-20.281-1.913l-1.073-2.246c6.974-5.21,17.571-4.281,24.066,2.287,1.449-3.778.722-7.936-1.883-11.065-2.88-3.459-7.089-5.509-11.662-4.86-6.741.957-11.257,6.854-11.048,13.568l-2.138,1.733-.567-1.156c-.261-.533-4.937,2.544-9.743,0l-3.075,6.471c-1.88-2.499-1.258-5.413,1-7.43l-1.861-1.824c-5.209,5.392-12.194,7.609-18.628,3.619-3.03,5.091-1.56,11.112,3.06,14.541l2.774,2.059-.873.622c2.218.469,3.602,1.36,4.912,3.138l9.955-5.256c.886-.468,1.805-1.207,2.538-1.877l7.045-6.449c.607-.555,2.152-1.218,2.877-1.464-1.101,3.953-2.174,7.389-1.003,10.998l.372,1.145c.173.532,2.11-1.694,2.711-.479.158.32.064,1.243-.218,1.473-2.692,2.188-4.203,5.263-4.771,8.7l.249,8.392c-1.573,6.771-4.601,13.047-9.92,17.569-7.982,6.787-18.967,7.525-28.366,3.245ZM132.067,326.529c3.052-.639,5.126-1.627,7.581-3.192-2.667-4.039-2.36-8.816.527-12.976-2.771-1.198-4.961-2.716-6.779-5.08l-2.791,1.454c-.794,3.981-3.747,5.962-6.871,7.481-1.934,1.43-1.816,4.633-1.072,6.725.729,2.05,2.367,3.858,4.9,4.481l4.505,1.107ZM180.455,313.868c-2.226-.127-4.161-.095-5.736-.82-1.417-.652-3.201-1.836-4.706-1.664-2.272.26-3.894.098-6.072-1.457-2.007,2.764-2.757,6.63-1.062,9.848,1.46,2.772,4.701,5.162,8.312,5.016,2.652-.107,5.078-1.591,7.11-3.181l-1.272-2.229c.932-2.012,2.141-3.829,3.426-5.513ZM369.402,323.222c5.035,3.263,11.113,1.384,13.647-3.633,1.175-3.295.611-6.719-1.289-9.601-5.281,2.774-10.638,4.06-16.504,3.946,2.639,2.82,3.794,5.772,4.146,9.287ZM366.645,325.663c.213-6.513-4.289-12.238-10.56-13.495-4.422-.886-8.878,1.208-11.561,4.106-3.231,3.49-4.293,8-2.982,12.63,6.039-7.08,17.27-8.543,25.104-3.241ZM383.891,364.071c-1.698-3.818-2.525-7.728-1.155-11.506,2.258,3.684,1.96,7.613,4.785,12.108,3.768,5.995,11.361,8.043,17.526,4.309-2.507-5.493-5.326-10.558-9.334-14.908-1.916-2.079-4.721-3.189-7.062-4.66l-6.487-4.074,1.506-.106c-.241-.535-.461-1.097-.655-1.355l-1.02-1.355,9.211,4.534,2.974-1.729c.259-.151.646-.342.648-.524l.01-.885c4.826-1.556,8.725-6.083,8.438-11.522-.09-1.71-.894-3.52-1.597-5.036-6.36,3.348-13.397,1.612-17.897-3.656l-2.345,2.035c2.224,2.448,2.592,5.314.7,7.663-.856-2.631-1.705-4.72-3.303-6.705-3.272,1.279-6.019.849-9.229-.785l-.364,2.607c3.581,2.157,2.634,8.36,3.728,7.531l1.072-.813,7.413,6.608-.427,2.896c-2.961-1.603-5.091-3.481-6.969-5.876.094,3.044-.441,5.743-1.478,8.642,2.522,4.134,3.326,8.915,2.203,13.672,1.065,5.229,2.991,9.913,6.187,14.155,7.007,8.167,18.636,10.244,28.365,5.288l-3.082-8.934c-8.61,4.568-18.46,1.154-22.361-7.617ZM347.642,343.82c6.935-5.305,16.085-4.908,22.43.924,2.01-6.434-.069-13.875-6.193-17.206-5.775-3.141-12.73-2.093-18.017,1.464-2.504,1.946-4.141,4.505-4.187,7.665,2.981,1.574,4.954,3.91,5.968,7.154ZM513.141,331.809l-3.623-2.554-1.233,3.958,4.856-1.405ZM36.498,333.082l-1.204-3.557-3.315,2.269,4.519,1.288ZM39.718,342.793c.133-5.142-4.097-9.007-8.888-8.377-4.199.552-6.785,4.388-6.566,8.342.206,3.723,3.235,7.313,7.398,7.458,4.068.142,7.944-3.083,8.056-7.423ZM519.435,337.618c-2.666-4.016-7.801-4.22-11.316-1.14-2.469,2.163-3.212,5.636-1.856,8.931,1.002,2.436,3.643,4.702,6.826,4.767,3.052.062,5.568-1.831,6.786-4.019,1.544-2.774,1.351-5.842-.44-8.539ZM129.881,349.802c-7.725,9.76-12.755,21.034-14.318,33.269-.592,4.631-.451,8.977,1.006,13.281.934,2.758,3.48,4.602,6.431,5.078-1.152-4.13-1.724-7.995-1.318-12.283,1.109-11.705,5.155-22.748,11.598-32.494,2.873-4.347,6.359-7.645,10.741-10.374-.771-2.85-3.504-3.423-6.017-3.737-.567-1.454-1.38-3.318-2.451-3.936-4.259-2.455-9.859,2.269-13.624,6.283-9.857,10.506-16.575,27.934-15.313,42.27.389,4.42,2.382,9.087,6.629,9.444-3.644-15.274,3.378-34.365,12.742-46.405,2.008-2.582,4.047-4.76,7.359-6.127-.69,2.104-1.885,3.735-3.465,5.731ZM414.229,348.404c-1.185-1.389-1.805-2.623-2.136-4.292,3.201,1.793,5.641,3.997,7.839,6.902,7.467,9.871,12.017,21.668,13.01,34.046.334,4.164-.022,7.957-1.367,11.876,7.013-1.36,7.782-10.397,7.009-17.528-1.412-13.023-6.828-25.408-15.728-34.938-3.665-3.925-9.474-8.545-13.191-5.819-1.178.864-1.783,2.514-2.11,4.268-2.388-.425-5.016.3-5.898,2.646,1.832,1.303,3.65,2.808,5.283,4.62,9.745,10.816,15.309,24.865,16.623,39.388.371,4.103-.161,7.895-1.28,11.669,8.904-.556,8.335-13.659,6.795-22.159-2.071-11.431-7.242-21.764-14.849-30.679ZM21.741,343.719l.716-5.36-5.607,3.839,4.891,1.521ZM528.452,342.303l-5.66-3.862c.499,2,.782,3.871.576,5.647,1.534-.83,3.339-1.406,5.084-1.785ZM153.72,372.189c-5.025,2.282-9.967,1.978-14.771-.554l-3.008,8.957c9.326,4.858,20.659,3.206,27.754-4.504,2.885-3.135,4.478-6.965,5.709-10.946l1.177-3.806c-.983-4.812-.559-9.814,2.328-13.937-1.083-2.669-1.446-5.137-1.462-8.404-3.73,4.423-8.752,7.648-14.204,10.312-2.482,1.213-5.169,2.328-7.138,4.226-4.486,4.327-7.27,9.728-9.884,15.381,5.498,3.295,12.074,2.257,16.314-2.49,2.043-2.288,3.106-5.153,3.983-8.118l1.349-4.562c3.391,5.745-1.68,15.508-8.148,18.446ZM383.5,407.104c9.419,1.604,18.752-.728,26.882-5.404,1.881-5.552.95-12.262-.295-18.159-14.398,6.532-30.398.691-35.819-14.092-.847-2.309-2.115-4.053-4.047-5.865.059.012,1.253-.644,1.328-.936,1.846-7.207.119-15.398-6.971-18.396-6.847-2.895-16.292-.095-18.764,7.857-1.258,4.047-.44,7.743,1.989,11.196,5.155-6.102,16.459-7.627,21.917-1.599-1.158.767-2.444.736-3.794.271-5.422-1.87-11.532-.919-15.524,3.196-4.312,4.445-4.042,11.415.568,15.345.914.78,2.77,1.276,3.485.729,1.331-1.188,2.272-2.368,3.592-2.663,1.3-.291,3.878.258,4.243,1.391l1.323,6.109c1.448,10.679,8.724,19.119,19.887,21.021ZM504.457,347.127l-.972-3.759-1.402,2.301,2.374,1.458ZM15.832,360.549c4.685.57,8.244-3.159,8.556-7.265.329-4.332-2.684-7.994-7.238-8.415-4.204-.388-7.653,3.085-8.05,7.025-.411,4.085,2.181,8.102,6.731,8.655ZM529.389,360.597c4.139-.403,6.805-4.05,6.785-7.678-.02-3.715-2.5-7.35-6.493-7.873-4.748-.621-8.62,3.259-8.637,7.83-.016,4.19,3.526,8.19,8.345,7.721ZM131.016,388.372c1.879-11.712,6.239-22.72,12.812-32.51,1.836-2.734,3.836-4.758,6.456-6.807-2.572-2.804-6.581-.864-9.325,2.332-8.733,10.173-14.322,22.748-16.033,36.139-.953,7.461.031,17.494,7.477,16.916-2.262-4.72-2.189-11.066-1.387-16.07ZM412.869,404.465c6.372.685,8.093-7.006,7.689-13.292-.887-13.809-5.856-26.957-14.437-37.694-3.237-4.05-7.684-7.817-11.18-4.414,2.181,1.799,4.069,3.516,5.702,5.83,6.47,9.168,10.876,19.558,13.089,30.621,1.255,6.271,1.505,13.37-.864,18.95ZM31.656,353.031l-5.183-1.95c.039,2.02-.27,4.078-.819,6.146l6.002-4.196ZM519.284,356.936c-.401-2.4-.524-4.156-.324-5.902l-5.588,1.859,5.912,4.043ZM56.213,372.69c1.24-2.643,2.781-4.678,4.782-6.602-4.287-3.705-8.165-7.61-11.671-11.649l-5.407,4.023c-2.61,2.671-2.483,7.058-.491,10.037,2.752,4.115,8.054,5.826,12.786,4.19ZM495.925,373.09c3.297-.97,6.093-2.665,7.709-5.482,1.563-2.337,1.734-5.009.428-7.496l-8.617-5.743-10.002,10.337c2.569,2.073,4.208,4.597,4.508,7.908,1.829.821,3.823.96,5.974.475ZM44.631,373.547c-2.243-1.651-3.412-3.46-4.399-5.469-1.983-.933-3.473-2.054-5.008-3.852l-6.264,4.067c-1.903,4.145-.937,8.689,1.632,12.301,2.371,3.332,6.327,5.425,10.806,5.498-1.683-4.841.168-9.191,3.233-12.544ZM490.17,375.419c-.091,3.48-1.656,6.198-4.291,8.243,2.091,2.193,3.601,4.742,3.456,8.013,4.597,1.168,9.324-.961,12.178-4.714l3.589-.8c8.548-1.294,13.968-9.005,11.879-17.348l-6.31-4.05-4.617,3.292c-1.3,1.749-2.364,3.982-4.413,5.531,2.788,3.33,4.456,7.544,2.711,11.743l-1.855.049c.475-2.603.395-4.658-.827-6.623l-2.428-3.902c-3.103,1.145-5.686,1.311-9.073.566ZM486.503,379.154c2.809-4.438.708-10.244-3.198-12.764l-13.909,10.676c1.742,1.942,2.925,4.092,3.36,6.628,4.998,1.694,10.86.022,13.747-4.54ZM73.497,383.434c.325-2.329,1.354-4.126,2.551-5.829l-13.961-10.425c-1.666.769-2.624,2.278-3.18,3.876-1.867,5.366.672,10.519,5.954,12.564,2.809,1.087,5.909,1.435,8.636-.185ZM56.352,394.048c-5.791,1.956-12.903-2.361-12.464-4.843.072-.409.882-1.112,1.21-1.036,2.89,2.891,7.357,5.068,11.2,3.337.632-2.729,1.561-5.821,3.794-7.79-2.883-2.188-4.28-5.102-4.238-8.434-3.312.849-5.844.659-8.855-.514-3.212,3.299-4.736,7.562-2.779,11.69.325.686.265,1.366-.372,1.815-.525.371-.935.276-1.959-.371-2.721,3.997-1.968,9.513.824,13.521,2.739,3.934,7.69,5.89,12.68,4.963-.182-2.864.647-5.445,2.362-7.894l-1.403-4.444ZM469.028,407.699c1.77,2.806,2.492,5.703,1.347,9.031,4.853,2.299,10.169,1.09,13.549-2.562,3.356-3.627,4.235-8.912,1.6-13.485-2.928,2.385-6.169,4.073-9.929,3.647-2.483-.281-6.087-1.243-7.066-3.654l-1.983-4.879c-5.074,2.873-10.543,2.715-15.191-.605l2.122-1.405c4.117,2.12,8.311,1.854,12.107-.601,2.426-1.569,4.109-4.139,4.48-6.735.428-2.991-.79-6.025-2.935-7.79l-14.449,8.906-.893,1.482c-.189.314-1.144.018-1.626-.18l-8.668,4.191c2.047.625,3.867.112,5.551-.606l1.758,2.999c2.014,3.437,2.701,7.063.815,10.889,1.629,1.484,3.433,2.473,5.504,3.137,4.783,1.534,9.809-.246,12.32-4.43,1.414.404,1.161,1.974,1.588,2.651ZM87.493,390.726l5.025-3.007-14.198-8.58c-2.764,2.609-3.285,7.299-.545,10.09,2.662,2.711,6.612,3.357,9.718,1.498ZM365.16,399.473c-3.615-5.307-5.188-11.058-3.381-17.035-1.002-.893-2.289-1.207-3.44-.906-1.19,2.5-3.181,3.496-5.719,3.186l-1.335,3.78c1.613,6.216,7.203,10.894,13.876,10.975ZM95.705,402.524c-2.437,1.354-4.826,2.359-7.714,2.073.473-.963,1.211-1.941,2.163-2.297,3.611-1.35,6.807-3.926,7.793-7.634.261-.981,1.125-2.307,2.332-1.903,1.005.337,1.723.597,2.9.314l-8.726-4.358c-4.094,4.366-9.792,6.731-15.438,4.087l-.621,3.734c-.049.295-.797.949-1.071,1.148-1.679-1.782-1.601-4.122-1.037-6.413-1.156-1.493-2.208-3.161-2.8-5.249-3.586,1.266-7.53.865-10.979-.701-2.869,2.469-4.273,7.275-2.615,10.877,2.693,5.851,9.642,7.611,15.243,4.801.621-.311,1.795-.468,2.205-.119.414.352.45,1.507.181,2.13-1.799,4.176-.218,8.844,3.285,11.711,2.814,2.303,6.602,2.925,10.286,1.865,3.042-.876,5.63-3.156,7.462-6.491l.542-3.425,5.214,3.338,12.191-7.909-2.083-2.139c-3.787.243-6.932-1.775-8.837-4.774-1.693.653-3.437.835-5.011.69-2.472,2.341-2.966,6.153-1.864,9.555.187.579-.824,1.996-1.229,1.583-1.105-1.128-1.54-2.841-1.773-4.494ZM470.79,400.402c5.205,2.498,10.164,1.175,13.677-2.557,3.462-4.132,2.697-8.594-.802-12.659-3.635,1.721-7.188,2.164-10.919.83-.13,3.246-1.9,5.644-3.548,8.047.855,2.016,1.482,4.371,1.593,6.34ZM487.686,398.442c1.44,2.658,2.093,5.213,2.132,7.857,4.983,1.02,9.711-.963,12.484-4.648,2.935-3.9,3.546-9.16,1.254-13.409-3.083,5.199-8.899,7.109-14.248,5.699l-1.622,4.502ZM441.853,410.088c3.2-1.474,5.407-3.722,6.102-6.955.532-2.474-.399-5.759-2.109-7.399-2.176.239-4.193.086-6.157-.826-3.784,6.347-9.127,3.582-10.524,7.01l12.688,8.17ZM76.844,414.462c-2.855-3.255-2.818-7.248-1.811-10.995-5.479,2.774-11.256,1.55-15.495-2.795-2.197,4.178-1.635,8.946.972,12.571,2.504,3.482,7.012,5.382,11.435,4.553,2.174-.407,3.928-1.403,4.899-3.334ZM128.745,407.517l-4.161-2.675-5.802-.778,15.136,22.941,5.572-3.715-10.744-15.774ZM406.044,423.217l5.617,3.696,15.499-23.146-6.42,1.074-4.111,2.68-10.585,15.696ZM481.022,446.598l-10.91,17.462,4.443,2.866,14.561-23.211-4.367-2.673c-.56.128-1.618.385-1.82.013l-.954-1.764-4.501-2.962c-1.024.439-1.665.58-3.036.66l.682-2.157-45.82-29.293-4.315,6.721-10.938,16.128,46.774,29.852,12.284-19.931c.843.27,1.537,1.037,1.859,1.809l-5.312,9.067-6.512,10.485,4.686,2.99,11.909-19.236c.748.272,1.546.787,1.723,1.24.147.377-.118,1.432-.433,1.938ZM65.236,443.462l12.346,19.17,4.635-2.903-12.512-19.879c.686-.806,1.372-1.285,2.347-1.503l12.5,19.871,46.851-29.738-14.984-22.815-46.437,29.421c.416,1.052.574,1.809.298,2.168-.229.299-1.183.863-1.45.593l-1.275-1.291-5.799,3.79-5.557,3.439,14.587,23.219,4.401-2.894-10.609-16.605c-.213-.445-1.007-1.619-.734-2.016l1.393-2.028ZM403.715,421.795l9.193-13.889-4.217-1.587c-6.684,3.333-13.921,4.717-21.76,4.695l16.784,10.782ZM158.989,410.949c-8.175.264-15.365-1.247-22.233-4.425l-4.23,1.481,9.411,13.869,17.052-10.926ZM462.163,422.894c5.674-2.158,7.446-7.761,4.561-13.081-6.042,4.62-12.128,2.998-18.651-.75l-3.336,2.771,2.904,1.558,2.267,1.682,12.255,7.82Z"/>
        <path d="M178.78,359.687c6.412-3.338,13.744-1.727,18.536,3.505,3.198-4.329,2.12-7.325.351-12.27-.53-1.48-1.054-3.611-2.214-4.578-4.234-3.531-9.286-3.633-14.671-2.464l1.328-1.778c2.652-3.692,10.787-1.763,15.109,1.259,1.069-2.919,2.41-5.4,5.482-6.01-.143,1.166-.329,2.775-.672,3.627l-2.029,5.042c4.872,5.752,4.35,13.876-.445,19.678,2.175,4.651,2.466,10.114-.611,14.222l.523-3.414-3.03,1.796c2.991-6.189.748-12.784-5.161-15.714-4.221-2.093-8.626-1.903-13.187-.432l.692-2.469Z"/>
        <path d="M191.944,383.127l.691,1.08c-2.497,1.123-4.621-.311-5.732-2.83-1.061-.184-2.387.312-3.565.904l-.339-2.371c2.381-2.375,5.852-1.345,7.752,1.172.493.582,2.127.281,3.263.185l-2.07,1.861Z"/>
        <path d="M349.438,258.188c-4.281,1.815-7.586,4.3-10.955,7.098l-7.345,6.098c-24.514,20.352-59.427,24.914-89.395,15.237-8.43-2.722-15.862-6.708-22.984-11.946l-14.351-11.571c-10.004-8.066-23.227-9.688-33.035-.582-7.664,7.116-9.607,18.071-6.023,27.843,4.447,12.127,16.738,18.781,29.512,14.932-6.783,4.466-15.107,4.057-21.846-.288-12.314-7.939-16.259-25.717-8.553-38.839,6.903-11.754,20.868-16.138,33.362-10.62,4.679,2.066,8.738,4.96,12.659,8.358l8.71,7.546c10.222,8.03,22.161,12.962,35.011,15.284,16.715,3.02,33.598,2.117,49.697-3.265,11.029-3.688,20.479-9.895,29.1-17.54,3.785-3.356,7.404-6.427,11.76-8.933,6.954-4,15.047-5.087,22.661-2.355,8.277,2.97,14.236,9.815,16.528,18.338,4.074,15.151-4.936,32.59-20.089,35.176-4.487.766-9,.049-12.665-2.503,10.468,2.597,20.988-1.74,26.538-10.855,5.328-8.749,5.497-19.81-.226-28.335-6.188-9.218-17.76-12.65-28.072-8.278Z"/>
        <path d="M302.093,260.9c-.164-.964-.4-2.554-.938-3.084-2.236-2.2-7.124-.512-9.327,3.806-4.22,8.273-12.744,12.765-21.964,11.484-6.918-.962-12.44-4.966-15.659-11.17-2.431-4.685-7.405-6.091-9.359-4.003-.561.599-.726,1.92-.887,3.08-.391.016-1.423-.34-1.717-.727-.343-.452-.58-1.831-.413-2.396.826-2.785,3.516-4.1,6.325-3.934,6.955.412,9.069,8.222,12.421,11.357,5.195,4.86,12.781,6.023,19.257,3.471,4.4-1.734,7.172-4.933,9.412-8.901,1.956-3.465,5.286-6.011,9.214-6.033,2.747-.016,5.078,1.423,5.712,3.971.365,1.466-.416,3.293-2.078,3.079Z"/>
        <path d="M272.018,89.098c-4.362-5.086-11.527-5.232-12.469-12.392-1.479-.018-3.034-.3-4.063-1.177-.945-.805-1.249-2.415-1.326-3.841-2.565-.901-4.919-2.856-4.923-5.659.929.017,1.956.164,2.316.565,2.138,2.38,5.717,2.587,7.858.47l-.697-3.301c-1.469-.21-3.721-1.457-3.597-3.535.106-1.76,1.913-3.215,3.755-3.587l.678-2.331c-2.6-2.721-5.986-1.726-8.417.77l-.919.944c-.247.253-1.046-.108-1.564-.363.444-2.911,2.726-5.09,5.598-6.044-.414-1.725-.337-3.387.734-4.661,1.018-1.21,2.443-1.989,4.302-1.951,2.077.043,1.979-2.553,3.338-2.57.51-.006,1.758.598,1.86.859-2.117,2.612-1.836,6.091.697,7.675l3.214-.293c.529-1.115,1.894-2.886,3.399-2.963,1.522-.078,2.778,1.795,3.279,3.055l3.57.168c2.279-1.978,1.902-5.167.044-7.415l-2.147-2.598c2.441-.697,4.334.592,5.537,2.528,1.705,2.744,4.217.86,6.467,3.508,1.101,1.296,1.088,3.004.959,4.68,3.533,1.692,6.576,5.904,4.746,8.236l-3.159-3.504c-1.994-2.212-4.893-2.431-7.225-.423l.488,2.609c1.375.536,3.222,1.535,3.5,2.968.406,2.091-1.708,3.88-3.407,4.441l-.868,2.917c2.154,2.358,5.568,2.036,7.983-.217l2.811-2.624c.462,3.858-2.042,6.553-5.255,7.568.072,1.622-.157,3.107-1.051,4-1.032,1.031-2.741,1.072-4.091,1.042l-2.02,1.897-2.124,1.92.82,1.642c-2.269,2.593-6.157,2.64-8.633,6.983ZM281.063,54.961c-.783-1.007,1.904-4.448,5.182-5.489.669-.466.436-2.382-.136-2.953-.617-.617-2.092-1.014-2.572-.665-.394,2.584-2.467,5.244-4.373,6.39-2.529-1.677-5.164-.555-6.582,1.998,3.469.866,5.965,3.984,5.146,7.553-.64,2.79-3.197,4.508-5.791,4.556-2.485.047-5.149-1.42-5.927-3.968-1.181-3.869,1.461-7.309,5.466-8.144l-1.835-1.6c-1.788-1.56-3.95-1.512-5.946-.039l-.859-2.008c-1.448-1.129-2.255-2.674-2.721-4.483-.499-.719-2.456-.267-2.949.59-.506.88-.287,2.543.726,3.053,2.062,1.04,3.79,2.613,4.34,4.817l-.856,3.503c-1.134.227-2.919,1.139-3.507,2.032,1.086,2.886,5.735-.26,5.334.738l-.442,1.101c-.346.862-1.539,2.595-1.112,3.37l1.873,2.923c.72,1.123,3.889,1.836,5.012,1.075l3.581-2.425c1.262,1.427,2.427,2.564,3.896,2.55,2.435-.023,5.547-3.042,5.685-5.435-.44-1.112-1.5-2.324-2.313-3.423,1.149-2.035,3.59-3.158,1.68-5.616ZM272.112,51.697c.465-.156,1.401-1.566,1.074-2.023l-1.241-1.736c-.649.846-1.135,1.472-1.25,1.943s.782,1.459,1.417,1.817ZM270.916,57.208c-2.127.526-2.863,2.467-2.288,4.356.438,1.441,2.404,2.505,3.877,2.078,1.832-.531,2.913-2.259,2.6-3.997-.307-1.702-2.141-2.943-4.189-2.437ZM285.138,60.485c.316-.541-1.131-1.797-1.757-1.745s-1.61.954-1.829,1.451l1.861,1.267c.37.252,1.448-.498,1.725-.972ZM259.852,73.7l2.552-3.228-.877-1.55-4.617,3.042c.02.494.436,1.488.82,1.892.344.362,1.763.299,2.122-.155ZM283.688,73.742c.387.6,1.75.77,2.218.412.502-.384.834-1.992.317-2.315l-4.304-2.689c-.118.107-.876.764-.763.666l2.532,3.925ZM272.365,70.358c-.324-.388-1.455.084-1.671.54-.185.391.015,1.445.315,1.763l.916.97c-.034-.037,1.628-1.85.44-3.273ZM272.034,86.24c2.363-4.866,7.359-4.461,9.015-8.669-.034-2.239-.493-4.453-1.693-6.23l-3.745.802-3.654,4.15c-1.855-1.096-3.258-2.398-4.192-4.216l-3.007-.32c-1.619,1.238-2.55,3.44-2.162,5.536.874,4.719,7.021,4.14,9.438,8.948Z"/>
        <path d="M294.928,72.519c6.335-1.56,5.247-8.258,9.978-12.397-4.832-3.151-4.135-8.961-9.553-12.215.036-5.957-5.405-10.717-11.376-9.643-2.551-5.73-8.769-5.993-11.928-11.554-3.577,5.371-9.788,6.75-12.115,11.562-5.958-.915-11.734,3.155-11.748,9.392-.779-.257-1.485-.523-1.825-.895s-.395-1.845-.261-2.386c1.433-5.78,7.146-9.144,12.886-8.944,1.023-1.791,2.347-3.13,3.997-4.221,3.756-2.482,6.659-5.245,9.233-9.495,2.122,4,4.588,6.712,8.236,8.756,2.041,1.144,3.722,2.864,4.852,4.964,6.664-.211,12.978,5.03,12.434,11.788,2.441.817,4.169,2.475,4.885,4.872,1,3.348,3.074,5.867,5.986,8.1-6.283,4.711-4.441,12.277-11.285,13.627,1.156,5.912-4.625,11.738-9.693,11.937-1.398.055-2.28.138-3.222.764l-.145-2.87c6.316.16,11.529-4.857,10.666-11.145Z"/>
        <path d="M259.354,83.814l.25,3.248c-1.226-.99-1.822-1.231-3.279-1.309-5.719-.305-11.425-5.692-10.446-11.817-2.589-.73-4.593-2.797-5.468-5.455-1.041-3.163-2.842-5.851-5.447-8.241,2.321-2.047,4.664-3.932,5.681-6.73.802-2.205,1.64-4.53,3.752-5.453l1.711,1.005c-3.162,3.459-3.129,7.946-7.509,11.279,4.753,4.33,3.489,10.299,9.627,12.253-.474,6.633,4.184,10.706,11.128,11.22Z"/>
        <path d="M321.238,49.802c.516,2.751,2.795,3.396,1.852,4.859-2.418.139-3.298-1.874-4.555-3.041-1.679-1.558-3.988-2.556-4.144-5.212-.151-2.57-1.582-4.401-3.553-6.663,4.232.38,7.469,2.159,8.307,5.926l-2.02-.432c-.358,2.613,1.688,4.214,4.113,4.563Z"/>
        <path d="M222.74,53.161c.044-1.24.227-2.293.52-3.187,2.706-.47,3.975-2.552,3.874-5.157l-2.329.933c.248-3.47,4.474-5.814,8.566-5.883-2.36,2.241-2.982,4.377-3.804,7.129-.907,3.035-4.02,4.872-6.827,6.166Z"/>
        <path d="M336.192,54.194l-6.777-2.404-.196,2.524c-2.767-2.151-5.053-5.006-5.239-8.732,1.897.807,3.203,2.184,4.509,3.358,3.058.868,6.331,1.889,7.702,5.255Z"/>
        <path d="M214.813,51.558l-6.769,2.725c1.373-3.124,4.085-4.23,7.122-5.294,1.178-.413,2.471-2.042,3.584-2.749l.824-.524c1.227-.78.005,5.376-4.267,8.15l-.494-2.308Z"/>
        <path d="M408.171,213.969l3.729-7.84c4.145-8.715,4.875-18.036,2.548-27.348-1.144-4.58-.949-8.909.698-13.226.751-1.97,1.49-3.566,3.536-4.741l-.846,3.726c-1.75,4.82-1.715,9.61-.475,14.576,2.244,8.988,1.606,18.084-2.291,26.472-1.701,3.14-3.244,6.215-6.899,8.381Z"/>
        <path d="M393.159,196.667l-1.783,1.98c-1.548-4.476,1.791-11.12,4.648-15.362,4.166-6.184,9.26-11.445,15.172-16.099.132,2.229-.864,3.727-2.261,5.126-6.807,6.822-13.984,14.898-15.777,24.355Z"/>
        <path d="M136.296,213.238c-2.392-1.483-3.921-3.718-5.251-6.2-4.604-8.59-5.473-18.322-3.141-27.816,1.164-4.74,1.333-9.176-.247-13.856-.433-1.282-.608-2.639-.703-4.134,1.677.759,2.435,1.884,3.068,3.5,1.735,4.431,2.049,9.107.82,13.82-2.435,9.336-1.602,18.671,2.549,27.431,1.003,2.329,2.406,4.191,2.905,7.255Z"/>
        <path d="M152.038,196.907c-1.77-9.776-9-17.161-15.441-24.247l-.675-3.415c4.958,4.076,9.121,8.491,12.783,13.66,2.764,3.902,6.653,11.999,5.069,12.955l-1.736,1.048Z"/>
        <path d="M415.131,326.39c-3.506,2.805-6.857,1.599-10.321-1.345l1.329-1.942c2.639,1.893,5.427,2.815,8.991,3.288Z"/>
        <path d="M399.463,310.464c-2.097-.08-4.114-.92-6.112-2.5.344-.476.92-1.155,1.281-1.422s1.434.313,1.863.504l3.102,1.377-.768.793c-.131.135.185.506.633,1.249Z"/>
        <path d="M455.802,158.575c.484-1.223,3.617-2.511,2.185-5.081-.214-.385-.836-1.121-1.212-1.074l-2.172.269c-.076-.538.313-1.932.798-2.217.554-.325,1.922-.563,2.605-.301,3.041,1.167,3.741,4.968,2.01,7.53l-3.366,1.755c-.273.142-.96-.596-.847-.882Z"/>
        <path d="M447.941,133.512c-.062.932.236,2.264.997,2.907.666.563,1.981.437,3.118.295-.644,1.881-2.213,2.683-3.676,2.733-1.755.06-3.333-.525-4.591-1.727-2.131-2.038-3.139-5.203-.908-7.523.538,2.187,1.109,3.962,2.256,5.251.377-1.419.87-2.953,1.413-3.652.181-.234,1.503.025,1.483.321l-.092,1.395Z"/>
        <path d="M97.114,136.616c1.862-.767.611-3.992,1.788-4.465.921-.37,1.658.281,1.731,1.007l.231,2.286,2.569-4.947c1.518,2.27.885,4.434-.525,6.445-1.064,1.519-3.09,2.716-5.327,2.627-1.701-.068-3.25-1.298-3.37-2.682,1.166-.013,2.284-.015,2.902-.27Z"/>
        <path d="M321.344,232.671c-7.146-2.059-10.885-9.175-9.473-16.009,1.425-6.894,7.75-11.831,15.109-10.872,7.952,1.036,13.05,8.772,11.486,16.329s-9.175,12.842-17.122,10.552ZM334.559,224.287c1.898-3.874,1.472-7.88-.851-11.178-2.071-2.941-5.681-4.798-9.633-4.386-3.608.377-6.586,2.769-8.021,5.336-1.913,3.421-1.937,7.098-.344,10.271,1.887,3.756,5.413,5.927,9.389,5.95,3.91.023,7.584-2.168,9.459-5.993Z"/>
        <path d="M234.523,218.211c.853,8.494-5.767,15.169-13.623,15.068-8.149-.105-14.446-7.343-13.211-15.615,1.022-6.846,6.734-12.057,13.79-11.885,6.806.166,12.345,5.469,13.044,12.431ZM221.683,230.288c6.115-.294,10.189-5.625,9.943-11.195-.238-5.397-4.395-10.065-10.199-10.288-6.202-.239-10.798,4.851-10.848,10.694-.051,5.903,4.609,11.101,11.104,10.789Z"/>
        <path d="M31.221,338.735c2.195-.439,3.829,1.303,4.114,2.878.384,2.12-.9,3.81-2.745,4.174-1.919.379-3.747-.871-4.162-2.673-.419-1.819.62-3.945,2.793-4.38Z"/>
        <path d="M16.204,349.269c2.066-.268,3.589,1.421,3.858,3.043.324,1.959-1.133,3.765-2.896,3.964-1.961.221-3.581-.978-3.958-2.773-.387-1.84.738-3.941,2.997-4.234Z"/>
        <path d="M512.688,338.732c2.204-.42,3.639,1.249,3.942,2.952.351,1.979-1.077,3.807-2.975,4.08-1.833.264-3.552-.905-3.982-2.791-.392-1.721.826-3.825,3.015-4.242Z"/>
        <path d="M526.201,355.425c-.746-.593-1.165-2.254-.981-3.25.161-.875,1.063-2.216,2.072-2.668,1.681-.753,3.473.117,4.22,1.246.993,1.501.757,3.356-.321,4.454-1.26,1.284-3.161,1.672-4.99.218Z"/>
      </g>
    </g>
  </g>
</svg>