<?xml version="1.0" encoding="UTF-8"?>
<svg id="b" data-name="Layer 2" xmlns="http://www.w3.org/2000/svg" width="461.952" height="440.786" viewBox="0 0 461.952 440.786">
  <g id="c" data-name="Layer 1">
    <g>
      <path d="M164.943,316.042c.026-.059.051-.119.075-.179-.026.06-.048.12-.075.179Z"/>
      <path d="M204.906,340.009c-.085.005-.171.005-.256.007.085-.001.171-.003.256-.007Z"/>
      <path d="M461.73,238.675c-.131-.718-.27-1.522-.763-2.132-.103-.123-.361-.267-.464-.285l-.808-.265c.042-.099.085-.196.156-.305.036-.071.068-.115.113-.238l.058-.208c1.556-5.111,1.706-10.598.699-15.82-.54-3.099-1.463-6.174-2.357-9.18-.418-.677-1.009-.824-1.724-.885-.161-.002-.41.05-.564.223l-.297.31-.7.731c.173-2.193.243-4.404.121-6.599-.263-5.008-1.321-9.985-3.232-14.627-.008-.018-2.937-6.888-2.944-6.905-.008-.015-1.08-1.745-1.088-1.762,0-.033-.183-.267-.344-.279-.337-.062-.637.078-.908.203-.323.195-.68.334-.903.827-1.199,5.438-3.748,10.682-7.801,14.553-1.988,2.023-4.514,3.307-6.697,5.105-2.167,1.767-4.063,3.957-5.221,6.545-3.804,1.043-7.471,2.688-10.664,5.036-3.234,2.366-5.94,5.479-7.753,9.062,0,0-1.449,3.914-1.511,4.082-.553.324-4.026,2.361-4.042,2.37-2.516,2.085-4.712,4.57-6.399,7.378-1.777,2.76-2.555,5.974-3.431,9.082-3.072,5.721-4.521,12.12-4.909,18.574-.011-.026-.026-.052-.036-.078-1.755-6.692-4.335-13.113-5.787-19.87-2.286-11.262-3.505-22.774-3.362-34.267.209-12.635,2.907-38.362,18.545-40.418,1.982-.17,4.172.876,4.575,2.87-1.365-.663-3.084-.546-4.337.307-4.38,2.981-3.972,9.646-.672,13.284,4.675,4.936,12.476,4.698,18.398,2.5,11.692-4.187,17.801-17.113,16.728-29.013l-.017-.303c-.004-.089-.006-.208-.047-.358-.178-.511-.522-.795-.854-1.067-.266-.2-.554-.364-.863-.501,2.83-6.954,2.088-14.71.511-21.875,0,0-.403-1.821-.403-1.821,0,0-.211-.908-.211-.908-.1-.607-.363-1.325-.845-1.792-.216-.204-.459-.462-.83-.423-.531.134-.941.43-1.338.735.703-4.476.72-9.189-.822-13.499-1.545-5.07-3.977-13.102-5.553-18.163l-.351-1.134c-.132-.414-.319-.793-.597-1.146-.152-.17-.292-.355-.619-.457-.364-.061-.557.063-.769.15-.397.217-.739.439-1.018.897-1.048,3.111-1.686,5.863-2.897,9.069-2.232,6.129-7.995,9.493-12.413,13.944-2.21,2.22-3.873,5.089-4.459,8.212-8.257,2.501-15.872,9.051-17.551,17.789-6.129,3.834-10.195,10.429-11.589,17.453-.032.065-1.872,3.767-1.872,3.767l-.011.023-.008.025c-1.583,5.237-2.554,10.858-2.847,16.227-.921-2.894-13.853-50.896-14.272-51.808-1.806-5.948-2.038-12.238-1.784-18.419.67-10.865,3.295-27.262,13.929-32.664,2.989-1.476,7.619-1.727,9.078,1.846v.002c-4.833-1.675-8.442,2.868-8.77,7.334-.841,9.554,9.528,14.434,17.803,13.214,4.19-.51,8.191-2.261,11.487-4.868,6.664-5.191,10.434-13.732,10.011-22.139l-.009-.179-.15-.085c-.45-.255-.86-.704-.802-1.053.012-.119.2-.472.307-.726,3.139-6.909,1.873-14.851.036-21.936,0,0-.233-.858-.233-.858l-.116-.429c0-.03-.083-.259-.173-.331-.09-.094-.18-.149-.266-.196-.51-.215-.972-.286-1.468-.238.544-2.599.919-5.27.731-7.959-.165-2.627-1.171-5.642-1.626-8.289-.417-2.323-1.512-5.907-1.537-8.207-.202-1.737.1-3.574-.36-5.32-.141-.381-.417-.822-1.014-.909-.627.064-1.065.235-1.442.716l-.136.224s-.273.449-.273.449c-2.924,4.696-5.442,9.875-9.977,13.236-4.571,3.05-9.529,6.458-11.419,11.903-6.939,1.33-13.864,5.004-17.211,11.474-4.241,1.475-7.916,4.397-10.51,8.019-4.383,5.805-7.085,12.787-8.007,19.988-6.849-20.422-15.723-40.81-30.719-56.643C285.03,8.045,255.344-.876,227.755.068c-40.077,1.464-71.788,20.989-89.914,56.906-5.456,10.54-9.596,21.669-13.582,32.802-1.203-12.233-9.572-28.516-21.214-32.634,0,0-.167-.059-.167-.059,0,0-.152.094-.152.094l-3.028,1.872s-.17.105-.17.105l-.007.2-.099,3-.025.75c-.006.611.208,1.132.532,1.626.178.234.336.476.744.635.696.121,1.166-.037,1.74-.339.229-.132.495-.351.551-.669.083-.672.355-2.333.503-3.377,4.058,2.04,7.513,5.277,9.685,9.27.559,1.048,1.126,2.079,1.199,3.192.111,1.252-.273,2.54-.953,3.613-.058.072-.22.383-.219.555-.052.58.064,1.052.339,1.539.106.156.224.343.518.456.458.112.748.037,1.087-.025.462-.126,1.101-.322,1.339-.834l.249-.373s.341-.511.635-.951c4.262,8.846,4.751,19.285,1.637,28.574-.223-12.285-5.05-24.866-14.146-33.28-3.137-2.799-6.944-4.957-11.108-5.815-8.435-2.053-18.122,2.405-19.855,11.391-1.449,6.305,3.378,14.396,10.498,12.469,1.441-.406,2.719-1.186,3.031-2.758-.024-.875-.591-1.453-1.094-2.053.175-.347.537-1.068.755-1.503,4.469,2.669,5.864,7.617,2.754,12.018-2.895,4.04-8.619,4.977-13.254,4.156-9.613-1.869-16.711-11.094-17.297-20.701,1.108.608,2.305,1.137,3.577,1.347.802.192,1.366-.506,1.792-1.056.103-.174.209-.358.229-.649-.026-.306-.076-.426-.204-.665-.627-.977-1.802-1.166-2.608-1.85-5.118-4.519-4.781-14.071-3.351-20.372,1.06,1.167,2.309,2.181,3.807,2.783,1.157.549,3.577.749,3.737-1.105.021-.621-.302-1.073-.635-1.426-.636-.651-1.565-.885-2.254-1.436-2.039-1.575-3.016-4.124-3.414-6.625-.907-6.578.605-13.508,3.48-19.473.852,2.253,2.04,4.39,3.61,6.229,1.735,2.047,3.898,3.712,6.263,4.953,4.926,2.356,8.626,6.974,5.736,12.345.184,1.611,1.221,2.714,2.371,3.642.196.165.619.424.9.415.651.088,1.531-.042,1.84-.68.321-.696.067-1.341-.078-1.871-.524-1.427-.927-2.891-.661-4.384,4.452,1.026,9.067,2.217,12.411,5.45l3.42,3.304.24.232.226-.233c.395-.407.63-.85.839-1.324.24-.647.531-1.445-.104-2.02-1.821-2.136-4.092-3.887-6.571-5.187-3.406-1.791-7.122-2.789-10.799-3.692-1.067-3.945-4.3-6.824-7.797-8.664-5.678-2.898-8.571-7.682-10.204-13.709-.239-.631-.401-1.294-.955-1.899-.275-.279-.808-.548-1.295-.241-.352.234-.588.472-.801.854-.246.734-.388,1.295-.599,1.948-.77,2.547-1.717,4.976-2.721,7.449-2.387,6.195-3.111,13.092-1.575,19.59-2.269,3.5-2.458,7.947-2.651,12.013-.049,4.12.755,8.267,2.44,12.044-1.8,2.766-.809,6.198-.12,9.193,1.621,6.114,5.404,11.691,10.695,15.206,7.53,5.378,20.252,5.712,25.618-2.834,3.433-5.192,1.509-14.87-5.621-15.382-.693-.022-1.363.216-1.955.54.818-1.623,2.806-2.49,4.626-2.355,6.352.388,11.111,5.458,13.988,10.779,7.004,13.315,7.807,30.965,5.554,45.642.031-.136-10.877,40.13-13.112,48.37-.632-5.025-1.243-10.135-3.11-14.887-.653-1.734-1.622-3.39-2.491-4.997-.765-1.646-.989-3.586-1.809-5.244-.772-1.716-1.747-3.329-2.845-4.846-1.662-2.263-3.584-4.326-5.695-6.172-.6-.687-1.636-.879-2.499-1.034-1.024-4.264-4.206-7.652-7.753-10.032-3.574-2.391-7.593-4.021-11.723-5.114-.189-2.993-1.421-5.888-3.375-8.141-1.904-2.381-4.75-3.694-6.966-5.714-3.388-2.93-5.741-6.866-6.775-11.221l-1.22-4.328-.305-1.082-.041-.141c-.138-.385-.466-.65-.786-.866-.187-.108-.36-.222-.664-.247-.38.021-.519.199-.689.327-.306.299-.574.58-.712,1.078-.313,1.457-.664,2.906-1.084,4.339-1.663,5.752-4.012,11.373-4.699,17.381-.35,2.906-.299,5.864.16,8.758-.498.088-1.018.252-1.418.661-.472.489-.619,1.116-.748,1.663-1.775,7.638-2.491,15.905.595,23.311-1.361,2.833-1.135,6.117-.712,9.166.867,6.196,3.749,12.114,8.19,16.533,4.413,4.457,10.745,7.066,17.047,6.512,3.45-.345,7.195-1.891,8.963-5.094,2.674-4.105,1.858-12.047-3.995-12.639-.607-.023-1.211.064-1.787.231,1.896-4.096,8.348-1.918,11.283.522,10.49,9.253,12.954,25.008,13.494,38.347.199,11.621-1.108,23.344-4.142,34.577-1.097,4.096-3.926,13.713-5.341,18.897-.812-6.741-1.793-13.727-5.567-19.533-.514-.888-.719-1.841-.989-2.873-1.065-4.056-3.147-7.817-5.91-10.955-1.378-1.574-2.921-3.001-4.591-4.259-1.645-1.222-3.445-2.573-5.606-2.245-.757-1.913-1.924-3.644-3.322-5.13-4.35-4.543-10.328-7.098-16.201-9.012-1.977-10.854-14.268-10.462-16.265-22.377,0,0-1.126-3.929-1.126-3.929-.175-.673-.595-1.669-1.462-1.692-.666.182-1.021.517-1.384,1.033-.099.203-.141.327-.215.494,0,0-1.588,3.766-1.588,3.766-3.43,7.262-5.681,15.415-4.064,23.46-.471-.173-1.272-.466-1.272-.466l-.105-.039c-.395-.11-.698.266-.891.521-.203.281-.401.555-.532.87L0,225.318c-.022,4.306.44,8.69,1.96,12.771-.95.808-1.475,2.097-1.417,3.326-.117,2.074-.055,4.165.239,6.223,1.063,8.241,5.429,16.117,12.219,20.987,4.085,2.896,9.245,4.344,14.234,3.647,6.976-.644,12.994-6.582,10.949-13.87-.883-3.165-4.254-5.764-7.422-4.227.22-.555.539-1.062.972-1.472,1.908-1.633,4.648-1.415,6.951-.766,9.615,3.318,14.052,14.419,16.547,23.498,3.125,12.954,4.553,26.499,3.453,39.806-.524,5.284-2.164,10.289,2.547,14.238,1.495,1.494,4.245,4.319,5.742,5.808l.228.228c.137.12.257.153.375.189.474.1.896.143,1.409-.085.105-.045.241-.224.258-.347l.108-.306.214-.613c.156-.412.238-.81.358-1.216,0,0,.667-2.423.666-2.423,16.873-63.151,41.091-139.952,58.34-202.859,3.59-12.91,7.093-25.849,12.002-38.335,4.768-12.487,9.897-24.976,17.545-36.011,19.72-29.264,53.567-41.188,87.814-35.932,18.125,2.822,35.666,11.306,47.714,25.343,18.808,21.006,28.558,48.601,27.025,75.898-.068.808-.147,1.615-.239,2.421-17.348-10.599-37.131-21.227-56.512-25.386-.554-.138-1.104-.285-1.661-.416.065-.097,3.965-5.892,4.015-5.967,10.242-4.612,20.234-9.768,29.99-15.331,2.133-1.247,6.467-3.72,8.492-4.971,2.052-1.616.281-3.018-1.239-2.664-6.549.519-13.025,1.812-19.335,3.625-7.055,2.023-13.903,4.677-20.671,7.483,6.257-9.413,12.128-19.17,16.276-29.719,1.423-3.574,2.731-7.212,3.747-10.921-.05-.341-.064-.714-.181-1.053-.049-.107-.087-.295-.345-.349,0,0-1.383-.097-1.383-.097,0,0-.044-.003-.044-.003,0,0-.039.021-.039.021-10.381,5.596-19.866,12.808-28.073,21.271-2.652,2.684-5.205,5.463-7.692,8.299.91-7.225,1.572-14.479,2.064-21.742.468-6.654.808-15.44,1.14-22.27-.054-.226-.19-.441-.303-.648-.12-.187-.225-.383-.475-.528-.057-.036-.173-.05-.232-.038l-.158.018-.316.037s-.632.074-.632.074l-.059.007-.036.047-6.665,8.531c-6.597,8.411-12.595,17.329-17.412,26.886-1.75-12.412-7.857-23.699-14.083-34.379-.321-.319-.655-.63-1.167-.726-1.057.209-1.418,1.265-1.604,2.057-1.889,6.679-3.698,13.386-5.185,20.171-.526,2.241-1.105,5.474-1.533,7.664-.137.858-.208,1.723-.315,2.585l-1.15,10.041c-3.467-4.45-7.221-8.661-10.937-12.893,0,0-11.285-12.995-11.285-12.995l-.045-.052s-.065.01-.065.01c-.531.109-1.278.172-1.555.748-.198,1.242.087,2.46.208,3.679l.643,5.264,1.286,10.528s1.286,10.528,1.286,10.528c.241,2.499,1.391,7.714,1.821,10.214-1.273-.595-8.536-4.021-8.546-4.014l-18.318-5.67c-.294-.005-.592.05-.879.115-.273.076-.559.133-.802.384-.312.555-.192,1.176-.159,1.749,0,0,4.717,9.322,4.717,9.322,4.427,9.476,10.865,18.111,19.43,24.223-3.377,3.866-6.203,10.079-7.732,15.488-1.585,5.63-2.187,11.523-1.883,17.359.293,5.843,1.536,11.609,3.38,17.148.911,2.773,1.991,5.497,3.105,8.184.991,2.736,1.159,5.685,1.333,8.585,1.007,13.898-1.17,52.591-20.785,51.447-2.765-.292-5.534-2.396-5.478-5.335,2.371,2.332,6.208,2.048,8.708.036,5.257-4.145,4.866-12.686.574-17.395-4.357-5.057-12.036-5.53-17.81-2.806-8.798,4.128-14.275,13.64-15.259,23.104-1.23.747-2.778,2.622-3.485,4.159-2.461,4.929-2.66,10.965-2.151,16.191-1.027,2.598-1.53,5.438-1.228,8.232-.002-.034.084,4.293.084,4.286.014.632.049,2.645.063,3.22l.01.537c-.018.166.037.411.15.552.295.407.83,1.021,1.377.838l.509-.172,2.034-.686s3.649-1.231,3.922-1.323c-.176.718-.943,3.852-.943,3.852-4.755.5-7.747,3.505-9.395,7.381-.009.021-.021.039-.03.06-.007.018-.012.037-.019.056-1.432,3.439-1.822,7.544-1.41,11.216-1.997,4.12-2.09,8.883-2.363,13.375-.145,2.123-.457,8.223-.592,10.226.062.541.051,1.352.722,1.532.622.01,1.166-.242,1.62-.659,1.385-2.957,3.075-5.774,5.088-8.345,2.007-2.57,4.335-4.886,6.901-6.898,1.084-1.117,2.339-2.885,2.739-4.186,3.059-1.53,5.712-3.82,8.101-6.25,1.835-1.95,3.784-4.657,4.343-7.103,4.171-2.222,8.116-5.151,10.797-9.099,1.627-2.458,2.711-5.466,2.299-8.438-.098-2.156-1.333-3.311-3.571-3.052-1.128-2.75.351-6.141,2.047-8.664.76-1.024.821-2.374,1.39-3.477.252-.496.647-.903,1.111-1.208-1.204,4.614.057,9.615,3.195,13.189.637.777,1.862,2.372,2.918,1.312l.829-.85s3.313-3.399,3.313-3.399c3.306-3.264,6.411-7.541,7.02-12.106,3.888-3.74,6.948-8.302,9.104-13.236,2.087-4.834,3.489-10.604,2.946-15.677.02-.014,1.493-1.049,1.512-1.062.727-3.041,1.516-6.147,1.213-9.306-.048-2.122-.549-12.808-.609-15.492,11.256,11.106,25.467,19.712,40.589,23.912,3.198,5.645,3.868,12.306,4.312,18.672.347,6.441.298,12.901.192,19.349-.286,12.861-1.419,25.899-4.645,38.322-2.123,3.017-4.912,7.808-7.491,10.37-5.902,6.09-15.782,8.707-23.434,4.425-3.726-1.938-6.49-6.306-5.168-10.528.021.067.048.129.07.195.306,1.47,1.534,3.287,2.943,4.119.159.087.323.153.485.23.008.004.017.008.025.012.245.114.492.219.743.31.103.037.206.074.312.107,4.641,1.5,10.126-.764,12.955-4.654,2.54-3.441,3.469-7.745,3.01-11.906-.027-.253-.054-.506-.091-.758-.032-.208-.069-.414-.108-.621-.061-.33-.131-.657-.211-.982-.043-.176-.084-.351-.132-.526-.093-.336-.199-.668-.312-.999-1.131-3.359-3.215-6.39-6.17-8.468-2.947-2.132-6.542-3.312-10.173-3.414-1.818-.087-3.607.339-5.421.33-2.484-.216-4.926.057-7.265.707-.257.07-.514.139-.767.219-.047.015-.093.032-.14.047-.37.119-.738.247-1.101.386-.105.04-.207.085-.311.126-.272.109-.543.219-.81.338-.287.126-.57.262-.852.4-.051.025-.103.049-.154.074-2.97,1.471-5.671,3.539-7.929,5.977.006-.005-3.163,3.857-3.131,3.825l-4.95,3.191c-3.939,3.508-7.584,7.447-10.173,12.079-.158.292-.28.602-.446.882-.556.83-1.697.98-2.483,1.538-3.424,2.039-5.935,5.436-7.127,9.216-1.075.224-2.402.659-3.454,1.335-.004.003-.008.006-.012.008-.205.132-.418.259-.596.411-1.069,1.049-2.066,2.158-3.102,3.234-1.751,1.801-4.461,4.77-6.075,6.582-4.06,4.376-8.546,8.364-13.432,11.797l-.008.006-.002.009-.24,1.038c-.005.048-.03.075-.019.143.209.25.587.248.881.343,2.405-.168,4.808-.375,7.207-.625-.895.092-1.789.171-2.682.236,2.293-.206,4.573-.448,6.843-.742-1.063.149-2.128.287-3.193.406,4.609-.505,9.197-1.192,13.735-2.151.07-.084.147-.149.224-.215.043-.036.087-.078.13-.11.767-.548,1.789-.348,2.68-.081.119.015.247.023.368.036.017.002.033.006.051.008.033.004.067.003.1.007.613.064,1.249.109,1.913.127.108.003.216.005.324.007.501.008,1.014,0,1.535-.019.298-.01.595-.025.892-.045.532-.034,1.069-.08,1.612-.142.033-.004.067-.005.1-.01,3.519-.411,7.184-1.407,10.143-3.059.03-.015.062-.027.092-.042,1.164-.572,2.248-1.406,3.171-2.363.002-.002.004-.004.006-.006.191-.198.37-.403.546-.611.107-.123.226-.238.326-.365.655-.8,1.329-1.941,1.715-3.119.005-.014.009-.027.013-.041.409-1.271.468-2.575-.21-3.545-.004-.006-.008-.011-.012-.016-.121-.17-.265-.33-.434-.477-.013-.011-.025-.024-.038-.035-.174-.146-.365-.283-.593-.4.208-1.491,1.333-2.661,2.511-3.507,3.09-2.184,7.359-1.037,9.602,1.762.028.036.058.071.085.108.085.11.159.227.238.342.23.345.442.709.623,1.1.101.227.193.46.268.7-1.702.454-3.098,1.284-4.218,2.366-1.321,1.236-2.231,2.796-2.766,4.561-.029.091-.053.184-.08.276.006-.02.013-.04.02-.06-.04.141-.083.28-.118.424.031-.122.064-.243.099-.364-.046.155-.086.313-.127.47.005-.022.012-.044.018-.066-.06.245-.11.495-.157.747.033-.19.067-.38.11-.567-.254,1.011-.407,2.066-.45,3.14-.073.385-.183.746-.32,1.091.038-.089.078-.176.112-.267-.103.29-.23.569-.374.84.047-.089.087-.183.13-.275-.228.472-.509.92-.829,1.344.128-.162.249-.328.363-.5-.232.353-.491.692-.777,1.012.145-.166.282-.337.414-.512-1.012,1.283-2.441,2.272-3.82,3.208-.042.025-.084.052-.126.076-.409.242-.744.455-1.018.709-.031.022-.063.044-.094.066-.374.379-.604.877-.677,1.377-.003.015-.008.027-.011.042,0,0,.001,0,.002,0,0,.005-.002.01-.003.014,6.627.302,13.531.042,19.683-2.683,1.713.745,3.483,1.381,5.29,1.877.032.009.063.017.095.026.98.266,1.971.486,2.971.656.181.031.361.061.542.088.252.038.505.074.759.105.289.035.578.063.867.089.279.025.559.045.839.061.31.018.621.031.932.037.1.002.2.011.3.012.863.054,1.715-.021,2.562-.139.726-.079,1.45-.196,2.171-.353.573-.094,1.146-.178,1.721-.225.729.163,1.461.335,2.197.479.472.106.948.183,1.426.229.926.113,1.86.146,2.806.008.164-.021.326-.052.49-.075.831-.104,1.659-.254,2.482-.449,2.035-.449,4.031-1.089,5.944-1.916.23-.097.457-.198.683-.301.485-.224.964-.459,1.436-.708.2-.107.397-.216.593-.328.212-.118.427-.229.636-.352.32-.194.63-.406.941-.616.045-.03.091-.058.135-.089.6-.41,1.183-.845,1.746-1.307.067-.055.131-.114.197-.17.466-.391.918-.799,1.357-1.221.125-.12.25-.24.373-.363,1.032-1.032,1.98-2.145,2.838-3.315.053-.072.106-.145.158-.219.421-.586.826-1.181,1.2-1.79.026-.042.056-.08.082-.122.018.019,2.669,4.064,2.662,4.028-.717.646-1.295,1.379-1.793,2.16-.776,1.153-1.328,2.38-1.8,3.774-.36.951-.698,1.912-1.058,2.851-.042.101-.086.201-.129.301-.279.656-.579,1.303-.898,1.941-.051.103-.101.206-.154.308-.321.626-.664,1.241-1.021,1.848.059-.101.12-.202.178-.302-.297.517-.607,1.027-.928,1.53.169-.265.334-.53.494-.794-.39.644-.796,1.278-1.223,1.898.198-.29.391-.58.578-.871-.241.371-.484.739-.738,1.102.027-.039.054-.078.081-.117-.448.646-.916,1.277-1.401,1.896-.271.345-.541.691-.822,1.029-.177.212-.366.425-.553.638-.104.12-.21.24-.315.359-1.299,1.435-2.815,2.838-4.461,3.979-1.646,1.107-3.439,1.971-5.224,2.363-.243.048-.487.087-.731.116.033-.004.066-.004.099-.008-1.822.285-3.613.062-5.198-.931.106.056.213.09.318.141-.11-.051-.219-.092-.329-.148,0,0,0,0-.001,0,0,0-.001,0-.002-.001,0,0,0,0,0,0,0,0,.002,0,.002.001.804-.47,1.384-1.089,1.78-1.78.522-.847.722-1.786.636-2.844-.051-.632-.242-1.274-.545-1.882-.443-.935-1.156-1.76-2.093-2.35-.05-.033-.095-.071-.146-.102-.058-.036-.119-.065-.178-.099-.007-.004-.013-.008-.02-.012-.015-.009-.031-.016-.047-.025-.165-.094-.332-.184-.501-.265-.092-.044-.185-.084-.278-.124-.111-.048-.221-.096-.334-.139-.111-.042-.223-.08-.335-.117-.109-.036-.217-.073-.327-.104-.096-.027-.193-.051-.29-.075-.136-.034-.273-.067-.411-.094-.062-.012-.125-.022-.188-.033-.179-.031-.358-.058-.538-.078-.017-.002-.033-.003-.05-.005-1.558-.164-3.173.078-4.726.644-.01.004-.02.008-.03.011-.192.071-.384.144-.574.224-.141.059-.278.123-.416.186-.064.03-.128.057-.192.087-.439.211-.865.443-1.271.697-.001,0-.003.001-.004.002,0,0-.001,0-.002.001-.829.5-1.564,1.1-2.249,1.748.686-.648,1.421-1.248,2.249-1.748-1.034.639-1.932,1.378-2.727,2.19.151-.156.32-.293.477-.442-.158.149-.328.287-.479.443-1.448,1.48-2.536,3.213-3.449,5.045-.631,1.253-1.185,2.545-1.673,3.831-.069.044-.134.095-.203.14-.257.169-.513.342-.764.528,0,0-.001,0-.002.001-.307.227-.608.467-.904.718-.042.036-.083.075-.125.111-.246.212-.49.43-.729.657-.08.077-.157.157-.236.235-.196.193-.391.386-.581.589-.09.095-.175.195-.263.292-.176.194-.352.388-.522.59-.077.091-.149.184-.224.276-.177.216-.353.432-.524.656-.056.073-.108.148-.163.222-.181.242-.36.486-.533.736-.069.099-.133.201-.2.3-.146.216-.292.432-.431.653-.01.016-.022.032-.032.049-.017.028-.031.058-.049.086-.389.626-.757,1.268-1.096,1.924-.022.043-.042.088-.064.131-.317.621-.609,1.253-.877,1.892-.038.09-.076.18-.113.271-.265.651-.502,1.307-.711,1.964-.018.056-.038.111-.055.167-.217.698-.4,1.396-.55,2.09-.01.045-.025.088-.035.133-.95.713-1.768,1.585-2.462,2.552-.002.003-.005.006-.007.009-.722,1.007-1.309,2.116-1.764,3.258-.07.227-.155.448-.23.673-.007.021-.015.042-.022.063-.179.536-.362,1.071-.565,1.599.02-.051.043-.101.063-.153-.049.129-.095.259-.145.386.03-.077.053-.157.083-.234-.129.336-.27.666-.409.998-.005.013-.011.025-.016.037-.179.425-.367.847-.562,1.265.059-.126.124-.249.181-.375-.125.275-.249.551-.379.823.071-.147.13-.299.198-.447-.156.332-.312.664-.478.991-.058.115-.117.229-.176.342-.128.248-.265.491-.398.736.088-.16.181-.318.266-.479-.217.411-.436.82-.668,1.221.14-.244.267-.495.401-.742-.179.326-.354.655-.542.976-.088.15-.179.298-.27.447-.209.346-.428.685-.648,1.024.152-.233.307-.464.453-.7-.238.383-.479.764-.73,1.138.096-.144.183-.293.278-.439-.121.186-.237.375-.361.558-.065.096-.134.19-.2.286-.33.479-.663.955-1.014,1.419-.061.08-.128.157-.189.237-.307.399-.623.791-.945,1.178.019-.023.039-.045.059-.068-.541.653-1.105,1.293-1.691,1.92.216-.229.419-.469.629-.703-.5.545-1.009,1.083-1.517,1.619-.046.046-.093.091-.139.137-.365.336-.732.67-1.049,1.038-.023.022-.045.045-.068.067-.14.131-.396.492-.496.761-.005.01-.012.019-.017.029-.024.059-.037.148-.014.216.002.005.003.009.005.013.017.037.044.068.098.074.005,0,1.376.416,1.381.412,0,0,7.006-3.39,7.006-3.39.337-.17.677-.334,1.016-.5l1.015-.491c1.641-.776,3.306-1.5,4.998-2.158.062-.024.123-.047.185-.071.8-.308,1.607-.597,2.418-.875.456-.155.912-.312,1.372-.457.325-.103.652-.201.978-.299.565-.169,1.135-.33,1.71-.486.271-.073.541-.152.814-.221,2.475-.649,4.946-2.011,6.459-4.072.111.021.222.034.334.053,2.526.555,5.235.473,7.97-.085,4.467-.824,8.771-2.861,12.672-5.554-1.897,1.289-3.892,2.41-5.976,3.33,2.561-1.162,5.017-2.62,7.223-4.222-.196.146-.392.291-.591.434.664-.471,1.317-.96,1.956-1.469.139-.11.273-.221.41-.332.239-.195.477-.393.712-.593.096-.082.199-.163.294-.245.045-.039.085-.081.13-.12.72-.628,1.422-1.278,2.106-1.95.183-.178.36-.36.54-.541.035-.036.07-.072.105-.108-.019.02-.039.039-.058.058.459-.463.905-.937,1.345-1.415-.247.271-.496.541-.749.807.386-.4.764-.804,1.134-1.211.1-.111.2-.22.299-.331,1.027-1.153,1.987-2.327,2.866-3.504.24-.323.455-.663.687-.99.256-.361.509-.724.757-1.091.392-.58.774-1.166,1.145-1.76.229-.368.452-.74.673-1.114.375-.632.743-1.266,1.094-1.911.174-.319.34-.644.508-.967.374-.715.741-1.431,1.087-2.16.121-.254.233-.514.351-.771.282-.615.578-1.224.841-1.847.17-.356.245-.817.677-.925.084-.03.213-.067.256.013.025.09.041.195.061.292.022.195.075.382.128.568l.01.051s.004.014.005.018c.023.077.047.152.074.228.06.172.135.372.16.418l.046.084c.227.484.502.949.748,1.404l2.315,4.251c.422.749.009,1.587-.362,2.268-.628,1.003-1.142,2.066-1.569,3.163-.036.091-.068.182-.102.273-.123.33-.241.662-.345.998-.046.145-.085.293-.127.439-.093.323-.182.646-.258.974-.017.073-.03.147-.046.221-.398,1.799-.564,3.652-.474,5.498-.733,1.85-1.794,3.754-3.102,5.531-.091.118-.176.24-.269.356-.065.085-.132.167-.198.251-1.101,1.348-2.339,2.599-3.657,3.771-2.349,1.925-5.046,3.297-7.908,3.62-.07-.761-.37-1.404-.803-1.917-.033-.042-.064-.086-.099-.126-.055-.059-.115-.112-.174-.167-.137-.134-.284-.254-.443-.356-.022-.014-.044-.027-.066-.04-.161-.098-.33-.182-.51-.249-.096-.039-.193-.072-.294-.102-.05-.013-.101-.025-.153-.037-.648-.167-1.363-.18-2.1.035-.114.02-.223.051-.334.075-.035.008-.07.015-.105.024-4.05.937-6.7,4.832-7.982,8.569-.259.764-.462,1.544-.637,2.331-.004.018-.008.036-.012.054-.276,1.256-.459,2.533-.521,3.818-1.169,1.591-2.219,3.505-2.893,5.41-.06.195-.119.406-.178.609-.034.108-.063.217-.095.326-.977,3.397-1.878,7.646-2.759,11.011-.108.437-.84,3.405-.919,3.743,0,.314-.037.698.139.962.023.045.049.077.079.099.015.015.021.035.038.048.141.006.26-.012.391-.017.011,0,.77-.048.78-.048,1.611-1.964,3.327-3.854,5.266-5.5,1.931-1.645,4.101-3.02,6.446-3.992,1.28-.92,2.409-2.033,3.432-3.227,8.741-2.257,15.664-8.899,21.16-15.846.075-.232.523-.939.605-.383-.075,1.641,0,3.293.333,4.907.393,2.647,2.692,7.431,3.15,11.352.09.938.088,1.829-.042,2.619-.013.066-.022.134-.036.199-.001.007-.003.014-.005.021-.266,1.146-.88,2.089-2.004,2.7-.003-.027-.01-.05-.013-.077-.045-1.523-.821-2.81-1.953-3.693-.026-.02-.053-.038-.08-.058-.152-.115-.307-.225-.471-.324-.003-.002-.006-.003-.01-.005-1.786-1.084-4.188-1.26-6.072.02-3.355,2.024-4.88,6.066-5.046,9.828-.189,4.093,1,8.429,3.585,11.628.049.062.097.124.147.185.255.305.521.6.802.882.075.076.14.163.216.237.088.085.181.157.274.223.303.274.615.54.946.785.258.96.556,1.929.923,2.873,0,.001,0,.002.001.003.498,1.281,1.127,2.514,1.989,3.606.165.216.35.414.52.625.274.348.557.689.85,1.022,2.03,2.349,4.282,4.505,6.161,6.993,1.48,1.885,2.865,3.793,4.088,5.873.135.196.213.428.419.595.658.351,1.535.003,1.949-.584,0,0,.844-1.159.844-1.159,0,0,6.751-9.269,6.751-9.269,2.231-3.092,4.638-6.156,6.065-9.732-.109-.598-.069-1.27.319-1.752.402-.499,1.098-.61,1.702-.572,3.944-4.096,5.851-10.094,4.87-15.71-.578-2.744-2.101-5.507-4.703-6.785-3.063-1.858-7.863-.443-8.668,3.282-.098.336-.193.687-.381.97-.103.16-.233.171-.398.06-.161-.069-.314-.151-.452-.26-1.656-1.318-2.028-3.822-1.497-5.793l.701-2.008s1.402-4.016,1.402-4.016c1.901-4.87,3.496-11.169,1.226-15.958-.066-.167-.131-.334-.205-.501.079.036.546.245.567.254,3.075,4.326,6.897,8.112,11.218,11.19,4.325,3.068,9.189,5.45,14.38,6.627.903.949,2.221,2.141,3.438,2.877,5.071,2.088,9.458,5.626,12.843,9.915l1.08.657c.153.069.267-.03.349-.09.244-.213.483-.513.602-.8-1.539-4.798-3.715-12.992-5.538-17.84-.769-1.825-1.873-3.957-2.949-5.445.046-4.995-2.35-10.911-6.793-13.553-.067-.041-.135-.078-.202-.117-.164-.092-.325-.188-.495-.271-.298-.151-.601-.284-.909-.396-.023-.009-.046-.019-.069-.027-.219-.077-.44-.142-.662-.198-.151-.043-.296-.099-.451-.135-1.035-.241-2.104-.08-3.122.171-.995.428-1.567,1.413-2.152,2.263-1.63-.333-3.802-1.007-5.358-2.151-6.461-4.449-10.766-11.691-12.82-19.171-.733-2.842-.99-5.858-.13-8.699,0,0,.755-2.849.755-2.849.37-1.506,1.128-4.437.979-5.675.002-.022.005-.044.006-.066.03.008.523.137.523.137-.148-.117,4.243,5.196,4.212,5.186,4.313,5.152,9.463,9.615,15.103,13.262,3.761,2.442,7.791,4.463,11.964,6.096,2.632.887,5.271,2.126,8.055,2.356.288-.005.624.028.845-.198.208-.222.319-.493.406-.766.096-.275.091-.578.093-.85l.015-.84.03-1.679c-.169-.379-.543-.458-.854-.577-.222-.056-.61-.137-.751.119l-.144.196s-1.156,1.571-1.156,1.571c-3.558-1.2-7.885-2.64-11.457-4.569-7.387-3.744-13.994-8.961-19.509-15.127-2.608-3.213-5.107-6.522-7.666-9.778-.218-2.614-2.175-6.072-3.972-7.688l2.439-3.682.61-.921c.246-.301.304-.698.393-1.049,1.109,1.244,5.229,7.325,6.297,8.742.003.002,6.393,6.664,6.396,6.666,4.896,4.124,11.053,7.697,17.671,7.174,1.626-.186,3.216-.652,4.642-1.493.327-.254.63-.54.861-.897.277-.387.113-.874-.003-1.242-.236-.73-.801-1.484-.378-2.258,1.479-3.029,6.027-2.594,8.653-1.523,4.09,1.813,7.773,5.939,8.699,10.305-.013.009-.09.016-.132.024,0,0-.301.046-.301.046-1.034.169-2.988.41-2.914,1.804.007.401.117.898.51,1.139.75.44,1.617.236,2.428.357.801.067,1.582.296,2.283.687,1.402.801,2.472,2.066,3.285,3.461,1.709,2.733,2.944,5.872,3.924,8.849,0,0,.035.77.035.77,0,0,.009.193.009.193-.009.048.006.045-.04.063-.084.029-.22.027-.343.02-.758-.053-1.629-.069-2.285.417-.395.455-.332,1.038-.207,1.57.089.295.379.432.597.555.962.411,1.961.656,2.792,1.254,1.789,1.143,2.327,3.298,2.905,5.209.938,2.851,2.327,6.127,4.12,8.158,0,0-.192.309-.25.402-.81-.262-1.608-.561-2.396-.889l-2.444-.975-4.888-1.949c-.812-.293-1.612-.746-1.872-1.594-.311-.802-.222-1.697-.302-2.578-.045-.43-.138-.939-.546-1.236-.398-.281-.936-.269-1.347-.063-.866.353-1.147,1.284-1.385,2.091-2.831-1.192-5.812-2.798-7.335-5.569-.78-1.377-.923-3.037-.578-4.567.046-.483-.203-.824-.4-1.178-.115-.17-.224-.342-.411-.479,0,0-.306-.137-.306-.137-.111-.007-.227-.004-.339,0-.845.274-1.163,1.189-1.393,1.942-.861,3.222.868,6.483,3.207,8.613,2.335,2.22,5.322,3.623,8.39,4.479,1.143,1.165,2.948,2.67,4.57,3.492.012.008,9.38,3.272,9.394,3.278l4.69,1.636s1.173.409,1.173.409c.639.2,1.315.168,1.903-.164.05-.044.103-.12.1-.209-.01-.1-.036-.134-.054-.183,0,0-.117-.288-.117-.288l-.469-1.15-.009-.023s-.019-.016-.019-.016c-4.077-3.365-7.12-8.015-8.266-13.197-.66-1.794-1.67-3.443-2.841-4.941.008-.191.085-1.977.085-1.99-1.014-4.194-2.721-8.2-4.864-11.935,0-.011-3.946-3.909-3.95-3.912-.41-2.701-1.749-5.853-3.454-8.29-2.619-3.672-6.552-6.739-11.15-7.238-4.616-.544-10.198,2.014-8.789,7.506-4.247,1.57-9.863.065-13.894-2.621-4.376-2.789-8.384-6.471-11.348-10.684,0,0-.01-.016-.017-.028.161.006.387.042.475.067,4.22,1.744,8.778,3.381,13.418,2.626,2.308.665,5.308,1.079,7.893.859,2.669-.183,5.314-.929,7.64-2.269.527-.519,1.139-.959,1.833-1.22.695-.278,1.449-.36,2.194-.383,3.354-1.496,7.17-2.352,10.765-1.244l.038.011.034-.013c.454-.185,1.014-.383,1.144-.938.057-.594-.361-.968-.649-1.331-.649-.709-1.352-1.344-1.957-2.068-1.394-1.415-1.537-3.381-2.349-5.105-1.462-3.501-5.4-6.162-8.902-6.345,0,0-.48-.405-.63-.531,1.286-1.347,3.098-1.872,4.831-2.413,4.933-1.761,12.665-1.732,14.771,3.536-1.763,1.211-2.218,3.377-1.253,5.279,1.157,3.073,3.917,5.263,6.798,6.639,4.62,2.173,10.225,2.852,15.039,2.904,1.953,1.288,4.145,2.357,6.481,2.644,6.892,1.295,14.137,2.448,21.041,2.403.413-.944-.344-1.898-1.111-2.341l-2.173-1.558-4.346-3.116c.08.074-10.158-10.407-10.142-10.393-1.712-1.722-2.542-4.093-3.924-6.068-1.321-2.038-2.77-4.006-4.468-5.755-1.268-1.311-2.691-2.515-4.326-3.35-.559-.267-1.044-.549-1.301-1.097-3.297-6.358-7.657-12.906-14.37-15.991-2.653-6.225-8.969-12.245-16.116-13.612-2.306-.489-5.116-.481-7.244-.031-10.052-1.786-21.174,4.291-23.374,14.62-.835,3.704-.466,7.695,1.152,11.14,2.123,4.453,7.884,7.955,12.669,5.551,1.199-.591,2.081-1.703,2.784-2.74.04.099.05.25.048.388-.443,4.616-4.548,7.998-8.905,8.917-7.133,1.595-14.898-1.391-19.124-7.358-3.086-3.841-4.372-8.606-5.116-13.387-2.407-11.938-2.535-24.115-2.532-36.246-.008-4.276-.176-10.35-.039-14.559.235-4.803,1.197-9.548,2.541-14.163,14.937-.444,29.666-4.799,42.596-12.257-.294,2.528-.617,5.061-.722,7.617-.089,2.367-.029,6.318,1.725,7.511-.977,10.672,4.296,21.055,11.524,28.601.415,2.272,1.671,5.465,3.212,7.628,1.489,2.047,3.949,4.237,5.673,6.156.915.853,1.605,1.846,2.486,2.713.835.584,1.802-.812,2.252-1.311,1.79-2.375,3.163-5.127,3.752-8.054.034-.15.1-.379.186-.533.02.017.041.035.041.035-.008-.008.434.373.386.33,1.132,1.126,2.941,2.836,3.515,4.334.747,1.643.945,3.579.323,5.273-.229-.023-1.52-.15-1.52-.15-.111-.022-.347-.005-.492.062-.417.216-.672.626-.87,1.017-3.347,7.684,3.127,15.644,9.412,19.488.096,3.817,3.34,8.563,6.418,11.411,1.292,1.359,4.211,4.362,5.583,5.807,4.717,3.885,8.786,8.605,12.18,13.578l1.342.053.084.003c.154.031.32-.12.359-.213.181-.345.201-.697.244-1.071-.002-.015-2.134-17.354-2.136-17.37.005-.023-1.366-4.799-1.364-4.823.248-3.235.001-7.251-1.305-10.543-1.209-3.35-3.99-6.261-7.569-6.947-.031-.222-.401-2.908-.401-2.908-.012-.11-.039-.22-.065-.326,1.331.599,3.047,1.355,4.37,1.948.485.121.727.144,1.265.115.769-.607.515-1.539.65-2.334l.437-6.095s.22-3.049.22-3.049c.313-2.047-.746-4.038-.537-6.055,0,0,.197-1.515.197-1.515.388-6.305-.326-14.139-5.12-18.757.154-1.956-.602-5.576-1.645-7.881-1.041-2.544-2.46-4.914-4.099-7.108-4.863-6.814-15.018-9.18-22.11-4.465-4.644,2.874-6.947,10.252-2.613,14.373,1.977,2.023,4.881,2.672,7.285,1.126-.263,2.146-2.506,3.51-4.581,3.538-2.292.044-4.528-.941-6.292-2.403-9.138-7.792-10.585-28.663-7.225-39.501,3.49-3.145,7.447-7.554,10.491-11.603,6.703-8.936,11.68-19.134,14.704-29.885.865-3.636,2.033-9.718,2.873-13.485,17.114,60.823,38.886,135.401,58.351,197.686l2.025,6.56.506,1.64.253.82.064.206c.662,1.576,3.24-.058,3.821-.765l5.225-4.453c.84-.756,1.82-1.412,2.508-2.414,1.388-1.975,1.307-4.543.896-6.795-.581-3.319-.917-6.859-1.351-10.195-1.425-14.668-1.874-29.945,2.83-44.09,1.892-5.189,4.706-10.674,9.313-13.92,3.293-2.323,9.205-4.478,11.946-.373.164.257.302.546.406.839-4.444-1.639-7.896,2.333-8.134,6.638-.653,7.667,6.877,12.5,13.829,12.609,14.691.487,25.344-13.085,26.766-26.774.276-2.285.377-4.607.029-6.914ZM167.316,362.912c.209-.513.441-1.019.703-1.51-.257.483-.49.989-.703,1.51ZM170.26,358.311c.368-.375.759-.727,1.178-1.047-.418.32-.809.672-1.178,1.047ZM185.916,360.414c-.698.44-1.189,1.073-1.511,1.811-.4.855-.578,1.832-.478,2.783-.133.487-.316.923-.535,1.321-.021.037-.04.074-.061.11-.108.186-.223.364-.348.532-.005.008-.011.015-.017.022-1.798,2.39-5.247,3.005-8.119,3.829-3.485,1.071-6.885,2.41-10.19,3.954,2.436-3.525,4.105-7.55,5.557-11.54,1.047-2.711,3.331-4.276,6.109-4.857.273-.092.548-.237.795-.461.258-.361.211-.649.221-.953-.026-.427-.138-1.151-.738-1.169-.253-.045-1.243-.25-1.776-.354,1.876-4.206,3.877-9.128,8.318-11.098,1-.363,2.065-.505,3.127-.377.482.056.866-.348,1.109-.678.269-.403.571-.942.352-1.443-.527-.955-1.625-1.18-2.613-1.304,1.617-4.399,5.356-8.68,10.316-8.778,2.218-.187,5.299,1.327,4.236,3.903-.184.916-2.391.998-2.401,2.788.192,4.381,6.133,5.087,9.48,4.194,7.258-1.799,12.496-7.687,16.244-13.831.242,1.167.812,3.913.851,4.101-1.819,4.013-4.475,7.644-7.629,10.721-3.187,3.063-7.014,5.653-11.34,6.597-4.983,1.166-12.39-.836-12.487-6.919-.059-1.354-.497-3.165-2.238-1.992-1.951,1.409-.892,4.506-.045,6.385-4.93,3-9.86,7.15-11.049,13.088,0,0,.508-.23.508-.23,2.669-1.153,4.188-3.756,6.108-5.742,1.879-1.945,4.148-3.496,6.626-4.58,3.684,3.367,9.098,4.124,13.824,2.953,4.487-1.01,8.229-3.788,11.773-6.587-5.021,8.02-12.341,14.965-21.338,18.178-3.061,1.113-6.629,1.521-9.718,1.311,0,0,.211-3.341.211-3.34-.043.058,1.577-1.295,1.57-1.282.116-.151.036-.342-.015-.495-.014-.032-.032-.064-.048-.096-.007-.015-.016-.031-.023-.046-.121-.248-.269-.487-.452-.694-.025-.03-.049-.059-.074-.086-.018-.019-.036-.037-.055-.055-.1-.102-.196-.185-.272-.217h0c-.661.094-1.22.303-1.697.591.488-.318,1.056-.529,1.697-.591-.67.059-1.259.287-1.766.625ZM188.659,361.238s0-.006,0-.009c0,.003,0,.006,0,.009ZM188.226,360.326c-.008-.01-.016-.019-.023-.029.007.01.016.019.023.029ZM187.977,360.029s-.002-.002-.003-.003c0,0,.002.002.003.003ZM207.858,390.797c-.01-.11-.024-.223-.039-.336-.001-.009-.002-.017-.003-.026-.005-.04-.01-.079-.016-.119-.079-.631-.22-1.375-.582-1.91.024.036.04.078.062.116-.034-.066-.073-.12-.11-.178.012.017.029.03.04.047-.013-.019-.03-.034-.043-.052-.164-.253-.353-.438-.574-.491h0c-.191-.058-.37-.064-.542-.048-.018.001-.034.007-.052.009-.118.016-.232.042-.34.087-.077.029-.146.068-.214.11-.036.023-.072.046-.107.072-.084.062-.161.13-.23.208-.028.031-.053.063-.079.096-.051.066-.101.131-.144.204-.24.389-.369.864-.33,1.314.04.378.135.741.133,1.118.104,1.577-1.098,2.8-2.387,3.511l-7.58,4.543c.308-1.184,2.139-8.229,2.14-8.229.448-3.033,2.329-5.294,5.473-5.654.34-.162.598-.922.666-1.289.38-1.65-1.712-1.649-2.909-1.581.683-4.383,3.151-9.984,8.166-10.151l.329,2.273.021.144c1.848.761,3.942.729,5.821.185,5.256-1.649,9.306-5.788,12.446-10.177l.508,1.54c-2.433,3.708-5.486,7.094-9.087,9.705-2.659,1.88-6.054,3.623-9.228,2.137l-.792-.321c-.835-.499-1.311.186-1.619.842-.415.952.481,1.976,1.234,2.409,1.547.961,3.441.957,5.153.573,6.836-1.391,11.878-6.79,15.874-12.149.767,1.074.266,2.319-.494,3.298-5.128,7.651-11.672,15.008-20.562,18.189,0,.005.002.01.003.015,0,0-.001,0-.002,0,0-.005-.001-.01-.002-.015,0,0,0,0,.001,0-.001-.006-.002-.013-.004-.019ZM207.583,389.307c-.08-.275-.174-.533-.285-.753.125.23.218.484.285.753ZM204.675,389.091c.004-.014.007-.029.012-.043-.004.014-.008.029-.012.043ZM204.591,389.493c0-.009.001-.018.003-.027-.001.009-.001.018-.003.027ZM206.593,387.848c-.191-.046-.364-.057-.526-.046.167-.015.342-.009.526.046ZM205.94,387.825c-.087.013-.168.035-.246.063.078-.031.161-.047.246-.063ZM158.323,247.226c-2.65-2.891-3.812-7.246-2.471-11.126.307-.866.73-1.709,1.281-2.506.002-.003.003-.005.005-.008,0,0,0,.001-.001.002,0,0,0-.001.001-.002,0,0,.001,0,.002,0,0,0-.002,0-.002,0,6.879-1.789,12.268-7.348,15.045-13.754.944-2.1,2.119-4.471,1.194-6.802l-.107-.293s-.157.27-.157.27c-2.185,3.542-4.824,8.997-7.634,12.024-3.107,3.465-7.478,6.219-12.255,6.114-4.634-.089-9.435-2.624-11.29-7.012-1.333-3.092-1.228-7.257,1.12-9.813.647-.651,1.535-.962,2.431-.922-4.432,4.003.366,10.972,5.51,11.625,5.41,1.107,10.848-1.635,14.391-5.624,7.113-8.149,8.961-19.305,10.277-29.688.728-6.687.771-13.426.425-20.129,1.483,1.904,5.097,6.543,5.097,6.543.534,5.619,1.192,13.086,1.046,19.357.013-.131-.577,4.262-.803,5.941-.862-1.187-1.862-2.478-3.38-2.686-.697.057-1.107.649-1.395,1.227-.04.123-.106.271-.021.504.56,1.076,1.547,1.894,2.067,2.93.764,1.504,1.001,3.235.984,4.939-.177,5.18-2.142,10.141-4.512,14.699-1.632,3.014-3.528,5.924-5.912,8.382-.637.064-1.277.13-1.872.406-.218.07-.452.413-.424.639.633,4.631-1.633,8.162-4.945,11.185,0,0-3.623,3.615-3.643,3.635-.017-.018-.033-.037-.05-.055ZM119.153,254.578s-.006.002-.009.003v-.007c-.056-2.078-.217-7.26-.262-9.283-.047-2.805,1.929-5.514,4.601-6.345.68-.339.918-1.128.89-1.829-.209-.648-1.121-1.011-1.797-1.011-.944.333-1.777.674-2.65,1.017.28-5.453.396-12.645,5.753-15.556,1.209-.429,3.142.639,4.434-.442.555-.597.373-1.355.18-2.01-.072-.159-.151-.334-.357-.479-1.176-.589-2.472-.754-3.715-.986,1.026-4.757,3.221-9.283,6.396-12.958,4.526-5.508,13.228-9.036,19.559-4.536,4.894,3.351,5.88,12.353,0,15.184-.974.389-2.299.303-2.958-.435.335-.775.767-1.657.505-2.548-.236-.537-.623-.951-1.036-1.34-1.092-1.048-2.785-1.136-4.204-.892-2.923.545-5.046,3.053-5.89,5.776-1.908,5.355.358,11.499,4.721,14.951-2.544,1.256-4.851,3.006-6.678,5.179-1.781,2.095-3.602,5.415-4.004,7.664,0,0-2.089.717-2.09.717-1.276,5.313-5.056,8.077-9.903,9.703-.487.161-.981.316-1.486.461ZM119.146,254.58s-.002,0-.002,0h0s.002,0,.002,0ZM118.858,288.346c-2.132,2.04-4.181,4.261-5.746,6.527-.153.201-.306.397-.458.602.087-.997,1.127-12.943,1.127-12.943.158-2.236,1.85-3.872,3.643-5.021.474-.359.947-.553,1.295-1.094.082-.335-.008-.605-.082-.88-.164-.392-.305-.955-.82-1.025-.421.004-.837.087-1.24.189-.469.121-.925.278-1.375.446-.146-5.263,2.049-12.01,7.99-12.676-.065.915.045,1.866.627,2.666,2.085,2.127,3.465-2.078,4.08-3.52.265-.39-.149-.964-.433-1.189-.339-.309-.705-.553-1.08-.785.114-1.798.776-3.533,1.74-5.06.899-1.426,2.047-2.688,3.312-3.812.237,1.553.532,3.099,1,4.616.416,1.534,1.746,4.618,3.732,2.98.915-.605.782-1.912.319-2.745-3.256-5.201-1.501-12.036,1.884-16.744,1.897-2.769,5.496-4.989,7.94-5.966,0,0,3.997,1.012,4.635,1.173-1.573,2.843-3.986,6.371-5.051,9.354-1.044,3.008-1.232,9.129,3.157,9.034.525,2.994-.806,5.978-2.698,8.261-1.915,2.324-4.354,4.191-6.97,5.696-.284-1.317-1.072-3.922-2.702-3.439-.518.302-1.239.754-1.216,1.456.112.354.282.996.399,1.358,2.114,6.123-4.42,10.585-8.528,13.998-.129-.334-.683-1.773-.683-1.773-.272-.801-.943-2.342-1.997-1.62-.331.164-.557.379-.709.628-.061.082-.11.162-.126.235-.003.015-.004.03-.007.045-.392,1.06.223,2.571.259,3.656.16,1.494-.554,2.807-1.517,3.899-.067.075-.133.149-.206.225-.091.097-.183.191-.276.284-.205.202-.419.406-.664.618-.902.782-1.749,1.56-2.558,2.347ZM124.053,282.124c-.009.05-.017.1-.027.151.011-.05.018-.101.027-.151ZM123.933,282.619c-.037.122-.084.247-.135.373.051-.122.095-.247.135-.373ZM123.703,283.217c-.061.131-.135.265-.213.401.075-.132.149-.264.213-.401ZM123.345,283.867c-.054.084-.117.17-.177.256.06-.085.122-.169.177-.256ZM122.844,284.556c-.025.03-.052.061-.077.091.026-.031.052-.06.077-.091ZM371.789,79.259c-.195-.221-.404-.428-.629-.621-.061-.053-.122-.105-.184-.156-.163-.13-.331-.253-.506-.369-.12-.081-.239-.161-.364-.236-.139-.082-.284-.155-.429-.23-.143-.073-.284-.149-.432-.214-2.327-1.031-5.24-1.132-7.567-.319-2.419.742-4.629,2.101-6.465,3.834-5.528,5.256-8.28,12.781-9.871,20.088-.905,4.369-1.295,8.819-1.485,13.264-4.011-14.123-.665-31.022,10.553-40.915,2.867-2.544,6.573-4.151,10.391-4.536,3.79-.351,7.89.46,10.756,3.096,4.326,3.591,5.424,11.691.406,15.158-1.565,1.132-3.919,1.294-5.234-.302.023-.011.045-.024.068-.035.571-.209,1.12-.604,1.562-1.11.331-.355.597-.769.754-1.27.14-.406.207-.834.164-1.268.031.43-.027.839-.153,1.221.108-.363.168-.764.153-1.221-.012-.375-.056-.735-.126-1.081.069.344.115.703.126,1.081-.032-1.574-.598-2.849-1.481-3.852-.002-.002-.004-.005-.006-.007ZM372.696,80.693c-.069-.149-.138-.297-.218-.437.081.14.148.289.218.437ZM372.068,79.638c-.014-.019-.027-.038-.041-.056.014.018.027.038.041.056ZM373.095,81.833c-.062-.26-.133-.515-.225-.757.093.241.163.496.225.757ZM377.602,89.273c-.999.684-2.149,1.134-3.432,1.269,1.226-.153,2.395-.592,3.432-1.269ZM377.97,89.01c-.054.042-.11.08-.165.12.056-.039.11-.08.165-.12ZM381.816,77.858c.007.042.013.085.02.127-.007-.042-.013-.085-.02-.127ZM373.553,90.591c.089-.002.176-.006.264-.01.061-.005.122-.008.182-.014,1.936-.149,3.581-1.003,4.87-2.298.996-.949,1.798-2.141,2.302-3.499.098-.264.164-.53.245-.795.057-.175.113-.352.163-.53.027-.105.056-.21.081-.315.601-2.377.549-4.989-.287-7.308-1.154-3.539-3.789-6.541-7.103-8.218-10.845-5.139-22.694,1.45-28.421,11.05-3.862,5.993-5.952,12.979-6.718,20.034-.373-1.332-1.023-3.655-1.023-3.655-.366-3.089-.392-6.552.05-9.748,1.352-8.92,5.921-19.604,14.214-24.048.088,1.122.166,2.268.644,3.386.338.993,1.748.741,2.495.341.521-.22.594-1.022.582-1.536-.096-1.297-.49-2.431-.104-3.679.325-1.159,1.006-2.221,1.763-3.201,2.98-3.92,7.554-6.267,12.309-7.304.182.985.088,2.023-.059,3.079-.171,1.203-.38,2.819.827,3.641,1.878.555,3.779-1.488,3.819-3.284-.001-.24-.085-.538-.17-.73-.538-1.244-1.012-2.615-.861-3.974.479-3.103,2.824-5.794,5.18-7.79,2.532-2.019,5.551-3.586,7.815-5.994,2.18-2.136,3.957-4.644,5.426-7.302.452,1.969,1.612,7.029,1.612,7.029,1.727,7.076,3.709,17.476-4.08,21.586-.109.755-.312,1.466.147,2.199.619.528,1.288.567,2.042.521.68-.174,1.194-.564,1.816-.837.684-.327.405-1.325.343-1.942l2.806-3.654c.367,1.869,1.732,8.807,1.732,8.807.966,4.565.107,9.516-2.154,13.578-.403.656-.935,1.226-1.564,1.664-.937.732-2.23.879-3.115,1.728-.302.348-.396.761-.363,1.24.327.733,1.299,1.476,2.084,1.168,0,0,3.892-1.32,4.269-1.448-.522,4.79-2.115,9.536-5.086,13.367-4.442,5.828-12.139,9.329-19.441,7.799-2.407-.431-4.755-1.479-6.427-3.294-2.545-2.607-3.233-7.127-1.007-10.136.544-.703,1.402-1.253,2.288-1.279.024,0,.048-.002.072-.001.124,0,.248.013.372.035.073.014.146.039.219.06.092.027.184.048.274.089-.259.663-.585,1.513-.592,2.318-.011.249.009.473.074.649,0,.002.002.004.003.006.003.01.003.022.006.032.01.021.027.038.037.059.076.17.191.352.34.539.035.045.072.087.108.131.114.13.239.26.379.385.071.064.143.124.218.182.156.125.322.241.497.347.018.011.037.02.055.031.213.125.435.236.665.317.968.341,1.941.467,2.89.427ZM365.064,87.129c.021-.041.04-.082.062-.123-.022.04-.041.082-.062.123ZM365.474,86.453s.006-.008.009-.013c-.003.004-.006.008-.009.013ZM368.349,86.934c-.007.039-.014.078-.02.116.006-.039.013-.077.02-.116ZM369.283,89.333c.035.03.071.06.107.09-.036-.03-.072-.059-.107-.09ZM368.127,84.981c.061.004.121.008.182.018-.062-.01-.122-.013-.182-.018ZM370.632,99.073c-.825-.309-1.591-.701-2.283-1.168.705.459,1.473.848,2.283,1.168ZM372.961,168.886c.018-.638-.168-1.274-.626-1.761-1.587-1.684-1.17-4.316-.534-6.362,1.422-4.173,4.042-8.123,7.524-10.852.49,1.17.932,2.388,1.74,3.381.674.448,1.508.146,2.118-.23,1.345-1.298-.583-3.351-.646-4.821-.2-4.913,3.363-9.476,6.927-12.549,2.109-1.723,4.524-3.053,7.072-4.015.148.586.845,3.354.871,3.461-.052.418-.377,3.045-.377,3.045-.199.725.367,1.223.925,1.562.141.073.28.149.509.173.331-.003.371-.093.533-.133,1.289-.601,2.184-1.822,2.635-3.136.227-.52.168-1.273-.177-1.766-.809-1.308-1.481-2.653-1.466-4.209.029-3.046,1.51-5.949,3.489-8.221,2.723-3.141,6.638-5.113,9.199-8.458,2.528-3.01,4.306-6.579,5.469-10.306,1.376,3.35,2.614,6.758,3.606,10.237,1.734,6.839,4.316,16.804-2.245,21.797-.349.311-.367.245-.761.659-.228.51.049,1.032.263,1.482.15.219.244.497.661.639,1.089.171,2.068-.16,3.017-.634.812-.515,1.555-1.322,2.295-1.93,0,0,1.458-1.285,1.91-1.683,1.586,7.528,3.856,20.716-4.214,24.898-.697.378-1.31,1.547-.575,2.193.614.582,1.51.938,2.283.456,0,0,3.612-1.523,4.022-1.696.412,9.661-4.196,19.908-13.288,24.063-4.386,2.079-9.711,2.67-14.224.664-3.362-1.529-5.223-5.84-3.469-9.212.411-1.03,1.695-2.07,2.782-1.406-.816,1.159-.673,2.723.539,3.545,2.121,1.832,5.284,1.446,7.564.12,2.86-1.731,4.386-4.644,4.804-7.792.013-.09.028-.181.039-.271.016-.139.03-.279.041-.419.147-1.599,0-3.212-.417-4.773-.018-.069-.04-.136-.058-.205-.064-.227-.133-.453-.209-.677-.433-1.327-1.043-2.584-1.835-3.685.283.408.536.836.775,1.273-.238-.434-.493-.86-.775-1.273-.347-.508-.72-.978-1.113-1.418.392.438.765.908,1.113,1.418-.344-.522-.729-.995-1.134-1.445-.013-.014-.025-.028-.038-.042-.01-.011-.02-.021-.029-.032.008.009.017.019.025.028-.357-.394-.738-.752-1.129-1.092.156.134.313.268.464.411-.33-.311-.675-.601-1.034-.872.101.077.203.151.302.232-.312-.256-.639-.485-.969-.708.087.058.175.112.261.172-.096-.067-.195-.131-.293-.195-.249-.167-.504-.32-.762-.469-.063-.035-.126-.069-.19-.103.007.004.013.008.02.011-.01-.006-.021-.011-.031-.017.004.002.008.004.011.006-.093-.051-.185-.103-.279-.151-1.483-.776-3.102-1.267-4.804-1.492-.219-.031-.438-.064-.658-.086-.158-.014-.315-.027-.474-.037-2.202-.166-4.451.078-6.546.72-6.264,1.705-11.508,6.111-15.142,11.393-7.317,10.405-10.032,23.367-9.496,35.943-.983-2.493-1.806-5.05-2.005-7.729-1.005-8.673-.551-17.621,2.187-25.946.366.347,1.012.96,1.012.96.276.216.352.429.717.61.909.281,2.333-.147,2.295-1.241ZM412.125,162.723c-.011-.026-.022-.052-.033-.079.011.026.022.052.033.079ZM411.799,162.003c-.057-.118-.112-.237-.173-.354.06.117.116.235.173.354ZM385.689,171.62c-.083.092-.161.188-.243.281-.285.325-.568.653-.839.994-.256.319-.499.647-.74.976-.066.091-.134.179-.199.27-4.498,6.276-6.499,14.292-7.585,21.857-1.267,9.344-1.15,18.807-.535,28.197-.759-2.589-1.983-6.749-1.951-6.673-2.7-14.991-2.995-31.254,4.381-44.99,3.002-5.757,7.35-11.184,13.367-13.931,8.527-3.986,19.032-.569,19.113,9.929.077,4.012-3.719,9.512-8.058,6.957,1.729-1.207,2.36-3.341,1.677-5.342-.222-.591-.517-1.093-.841-1.554-.015-.021-.029-.041-.044-.061-1.768-2.447-4.859-3.083-7.937-2.6-.143.021-.284.044-.426.07-.254.048-.506.107-.758.17-.197.049-.393.092-.588.15-1.936.569-3.751,1.535-5.081,2.718.683-.598,1.501-1.132,2.389-1.593-.835.454-1.638.987-2.389,1.593-.973.785-1.871,1.653-2.712,2.583ZM391.45,167.121c-.142.068-.287.128-.428.201.141-.07.284-.135.428-.201ZM432.24,253.503c0,.015.004.031.004.046,0-.016-.003-.031-.004-.046ZM220.469,111.324c0-.011.003-.019.004-.03,0,.018-.002.036-.003.054,0-.008,0-.016-.001-.024ZM221.054,110.301c.037-.007.074-.016.114-.017-.042.002-.077.01-.114.017ZM209.499,40.764c.033,0,.062,0,.095,0-.037,0-.064,0-.095,0ZM227.497,92.165c-.548.014-4.689.123-4.718.124.001-.013,0-.028.002-.041.224-1.208-.227-2.911-.808-4.316-.117-.292-.241-.576-.375-.841,0-.003,0-.005.002-.008,2.523-9.798-2.652-20.138-10.341-26.18-5.206,5.952-8.495,14.065-7.492,22.041.138,2.185,2.018,5.118-.168,6.627-1.209-2.679-1.659-5.659-1.586-8.601.389-9.187,4.426-17.884,9.559-25.396,1.3,1.306,7.348,7.385,7.349,7.385,5.958,7.286,13.285,19.721,8.577,29.206ZM207.284,84.303c-1.474-6.57.762-13.377,4.449-18.861,4.695,5.174,8.483,11.831,7.733,19.026-3.514-2.699-8.612-2.838-12.182-.165ZM211.332,51.522c.108.293-.939-7.48-1.257-9.985l-.09-.768-.448-.011c-.131.011-.342-.047-.404.126-.001.006-.305.843-.304.85l-.205,12.802c-2.756,3.6-5.186,8.554-7.125,13.074-.985-6.964.575-13.994,1.796-20.848,1.356-6.927,3.143-13.763,5.073-20.556,5.946,10.31,11.386,21.42,11.904,33.487-1.799-1.644-8.941-8.17-8.941-8.17ZM218.848,87.871c.873,1.094,1.156,2.18,1.175,3.187-.087-1.198-.527-2.299-1.208-3.224.011.013.023.024.034.038ZM220.027,91.276c-.001-.034.003-.069.001-.102,0,.034,0,.068-.001.102ZM220.342,95.892c-.013,0-.024,0-.037,0,.012,0,.024,0,.037,0ZM222.424,95.325c-.139.052-.279.099-.418.152.139-.055.278-.104.418-.152ZM224.523,94.877c-.132.012-.264.027-.396.045.132-.018.264-.033.396-.045ZM228.059,95.238c-.204-.061-.41-.114-.617-.161.208.047.413.101.617.161ZM226.918,94.972c-.204-.035-.409-.063-.615-.085.206.021.411.05.615.085ZM225.833,94.849c-.194-.01-.388-.01-.582-.009.194-.002.389-.001.582.009ZM260.518,98.083c10.684,2.297,21.008,6.081,30.9,10.715,9.879,4.626,19.351,10.081,28.625,15.834-.233,1.324-.656,3.922-.868,5.083-3.889,18.812-14.62,36.031-30.248,47.285-2.979,2.111-5.979,3.903-9.166,5.638-1.035.494-3.797,1.796-4.869,2.3-1.896.716-4.81,1.915-6.73,2.498-27.524,9.287-59.777-1.833-76.62-25.287-2.767-3.877-5.407-7.945-6.939-12.482-1.517-4.523-2.265-9.313-2.201-14.088.051-9.111,3.43-19.109,11.581-23.934-2.312,6.426-2.939,13.307-3.041,20.088-.21,9.685.609,19.366,1.806,28.967.026.45.235.973.557,1.326.161.172.329.408.709.452.656-.028,1.249-.232,1.71-.696l.206-.258.824-1.032c5.832-7.351,11.169-15.115,15.892-23.224-.161,14.945,1.21,29.936,4.539,44.521l.043.044.953.976c.085.108.344.204.495.153.603-.124,1.21-.524,1.517-1.044l.364-.578c3.183-4.994,5.942-10.264,8.231-15.726,2.733-6.51,4.795-13.3,6.159-20.227,5.353,14.73,11.796,29.116,20.048,42.463.361.402.722.982,1.293,1.051.613.023,1.143-.165,1.678-.357l.018-.074c1.997-7.965,3.097-16.179,2.96-24.399-.208-7.531-1.349-15.913-4.414-22.633-.164-.405-.315-.815-.489-1.217,5.494,3.815,11.342,7.008,17.356,9.872.51.245,1.027.481,1.542.721,4.93,2.292,9.958,4.39,14.998,6.42,0,0,11.733,4.873,11.733,4.871l.669-.029.334-.015c.006,0,.012-.003.018-.003l.071-.003c.015,0,.027-.012.041-.016.017-.006.033-.01.048-.019.028-.017.055-.043.08-.074.008-.01.021-.014.027-.025.003-.004.004-.009.006-.014.047-.071.086-.164.121-.269.008-.021.014-.043.021-.064.017-.057.033-.117.047-.178.018-.077.035-.155.048-.233.012-.067.022-.133.031-.198,0-.002,0-.003,0-.005.016-.119.029-.234.037-.329-4.877-7.722-10.145-15.238-16.305-22.005-6.108-6.681-13.302-12.237-20.427-17.778,5.494,1.045,11.029,1.909,16.608,2.367,5.665.361,11.472.934,17.041-.5,0,0,.327-.087.327-.087-4.103-1.961-8.781-1.427-13.174-2.073,0,0-12.977-1.216-12.976-1.216-6.106-1.046-12.291-2.646-18.133-4.785-.351.083-.951.209-1.3.293-.022-.003-.234.054-.286.197-.078.237-.013.366.017.506.144.406.314.774.615,1.103,9.312,6.192,18.312,12.909,26.417,20.623,5.901,6.062,11.274,12.662,15.794,19.82-2.624-1.08-12.465-5.13-12.466-5.13-13.016-5.163-26.147-11.504-35.781-21.921l-.236-8.616c2.175,1.663,12.298,9.407,12.299,9.407,3.659,2.888,9.035,6.75,12.975,9.371,0,0,.88.607.88.607-1.407-3.084-3.877-5.515-6.385-7.644-6.663-5.881-13.743-11.28-21.024-16.368-.369-2.513-2.54-6.607-4.679-9.143,2.677-.476,6.335-1.531,8.006-2.523,8.178,1.897,17.03,4.723,25.083,7.248,3.071,1.011,6.263,1.923,9.544,2.12-4.471-3.755-10.202-5.327-15.57-7.304-4.925-1.663-9.933-3.055-14.964-4.332l5.346-4.79ZM224.967,115.67c3.526,1.06,7.485-.062,10.067-2.664,3.607,4.93,3.793,11.453,3.158,17.351,0,0,0,0,0,0-6.245-2.726-11.857-7.843-13.224-14.687ZM238.193,130.356s0,.001,0,.002h0s0-.001,0-.002ZM230.435,93.206l1.096-3.009c6.298-5.459,15.432-5.671,22.987-2.882-1.853,2.459-3.701,4.921-5.521,7.404-3.04,2.94-7.268,5.535-11.775,5.826,0,0,0,0,0,0-1.204-3.197-3.564-6.035-6.786-7.338ZM237.687,103.27c.008.218.055.398.116.564-.064-.168-.11-.35-.116-.564ZM237.864,103.982c.052.105.119.195.191.279-.074-.084-.138-.177-.191-.279ZM241.272,102.591c-1.14.337-2.333.569-3.585.678,1.267-.134,2.458-.364,3.585-.678ZM237.221,100.545h0s0-.002-.001-.003c0,0,.001.002.001.003ZM243.395,144.572c.116.05.281.073.466.081.025.002.051,0,.077,0,.065,0,.13.002.198,0,.323-.004.641-.046.933-.109.071-.014.132-.027.185-.04.014-.003.031-.006.045-.01,0,0,2.517,8.411,2.517,8.411.799,2.934,1.839,5.826,3.498,8.399.334-6.439-2.771-14.876-4.355-21.099l1.659-6.746c5.194,6.976,8.133,15.619,8.853,24.247.683,8.651.455,17.425-1.507,25.903-3.848-6.546-7.381-13.278-10.553-20.181-3.257-7.082-6.139-14.336-8.707-21.699l6.69,2.842c-.005-.002-.065-.028-.146-.063l.147.063h0,0ZM222.186,132.447c-.279,6.549-1.668,15.552-.378,21.964.914-1.605,1.643-3.371,1.797-5.236l.502-4.848s.908-9.281.935-9.559c.237.151,7.653,4.879,7.653,4.879l-.003-.002.003.002v.005s0-.005,0-.005c0,0-1.746,10.372-1.746,10.372-2.52,9.594-6.446,18.907-11.644,27.396-2.183-11.914-3.282-24.04-3.503-36.141-.049-3.991.353-8.53.995-12.176l1.033-2.381,4.357,5.729ZM195.618,156.765c-1.475-12.322-3.548-36.858,2.828-46.668,1.486-1.062,4.335-.829,6.337-.132-2.777,7.505,4.138,12.881,11.348,11.776-1.078.138-2.146.129-3.174-.007,1.002.092,2.056.088,3.174.007-4.091,13.081-12.336,24.214-20.512,35.023ZM302.822,162.034c.007-.003.014-.005.021-.008-.007.004-.014.005-.021.008ZM302.953,161.924s.003-.003.004-.005c0,0,0,.001,0,.002,0,.001-.003.002-.004.003ZM303.174,161.322c.005-.023.009-.045.014-.068-.004.023-.009.045-.014.068ZM238.78,104.746s.006.002.01.003c-.003-.001-.007-.002-.01-.003ZM238.355,104.526c.035.023.067.048.104.069-.037-.021-.069-.046-.104-.069ZM237.835,103.912s-.002-.006-.004-.009c-.079-.179-.13-.388-.144-.633,0,0,0,0,0,0,0,0,0,0,0,0,10.153-.647,16.725-9.414,21.542-17.44-4.298-2.165-9.053-3.568-13.915-3.618-4.554-.08-9.122,1.126-13.064,3.422l-.062-2.199c2.49-1.521,5.237-2.606,8.089-3.218,2.919-.633,5.936-.782,8.922-.562,5.873.441,11.591,2.228,16.958,4.667-4.623,8.108-10.469,16.685-19.807,19.559-1.537.46-3.121.789-4.725.908-1.22.109-3.225.38-3.79-.875ZM230.005,96.053c-.107-.058-.214-.116-.323-.171.109.055.217.112.323.171ZM231.737,97.255c-.052-.045-.103-.092-.156-.137.053.044.104.091.156.137ZM231.061,96.716c-.037-.026-.074-.05-.111-.076.037.026.075.05.111.076ZM234.574,108.303c-.087.208-.193.408-.298.607,1.096-2.17,1.259-4.826.488-7.221.725,2.104.729,4.426-.19,6.614ZM234.607,101.256c-.012-.033-.027-.065-.04-.098.013.032.027.065.04.098ZM229.807,112.791c.36-.121.704-.261,1.028-.421-.343.176-.687.324-1.028.421ZM230.922,112.325c.224-.115.427-.25.634-.382-.209.141-.42.269-.634.382ZM225.296,112.601c.892.36,1.855.524,2.817.483-1.103.063-2.027-.148-2.817-.483ZM222.416,117.63c.029.115.069.226.1.34.68,3.695,3.51,7.563,6.468,10.144,3.269,2.837,7.175,4.879,11.282,6.211,1.082-4.121,1.6-8.424,1.207-12.698-.372-4.099-1.676-8.223-4.314-11.45.09-.268.612-1.825.797-2.375,1.252.587,2.341,1.481,3.132,2.607,2.921,3.631,4.359,8.231,4.778,12.839.547,6.085-.498,12.277-2.663,17.993-2.767-1.296-8.672-3.832-11.104-5.052-5.937-3.307-11.405-8.573-13.471-15.192.353,1.219.823,2.397,1.386,3.53-.632-1.191-1.112-2.38-1.386-3.53l.003-.002-.003.002s3.572-3.176,3.789-3.369ZM219.227,117.043c.026-.031.057-.058.082-.089-.026.03-.056.059-.082.089ZM215.055,119.096c.158-.021.314-.05.47-.08-.156.032-.313.058-.47.08ZM215.994,118.906c.037-.01.074-.021.11-.031-.037.011-.073.021-.11.031ZM209.619,117.896c1.516,1.004,3.437,1.431,5.276,1.222-1.853.231-3.746-.189-5.276-1.222ZM208.55,117.009c.036.037.074.071.111.107-.037-.036-.075-.071-.111-.107ZM209.079,117.493c.033.027.069.051.103.078-.034-.027-.069-.05-.103-.078ZM208.125,116.544c-.052-.063-.089-.125-.137-.187.08.107.164.209.249.31-.036-.042-.076-.08-.112-.123ZM207.167,114.858c.175.466.401.897.67,1.291-.31-.44-.53-.871-.67-1.291ZM206.949,113.507c-.002.092.006.185.011.277-.005-.093-.011-.186-.011-.277ZM207.04,114.378c.026.123.045.246.085.37-.038-.125-.06-.247-.085-.37ZM206.954,107.695c.018.01.036.018.053.028-.018-.009-.035-.019-.053-.028ZM207.657,110.873c-.346.773-.634,1.57-.697,2.388.056-.899.372-1.709.697-2.388ZM198.912,106.908c.125-.021.251-.039.377-.057-.125.018-.25.036-.377.057ZM200.603,106.708c.04-.003.079-.007.119-.009-.039.002-.079.007-.119.009ZM197.419,107.222c.128-.033.258-.058.386-.088-.129.03-.256.055-.386.088ZM193.057,108.953c.091-.05.186-.092.278-.141-.092.048-.187.092-.278.141ZM182.886,119.892c.167-.342.338-.682.521-1.019-.183.334-.35.677-.521,1.019ZM183.684,118.381c.244-.428.501-.849.771-1.264-.266.414-.525.835-.771,1.264ZM184.811,116.565c.157-.23.325-.452.49-.677-.163.226-.333.445-.49.677ZM179.483,136.264c0,.019,0,.037,0,.056,0-.019,0-.037,0-.056ZM179.483,136.214c-.011-1.306.039-2.611.144-3.909-.097,1.288-.142,2.591-.144,3.909ZM179.648,132.046c.033-.38.071-.759.115-1.137-.041.378-.084.756-.115,1.137ZM249.858,76.658c-6.062-.442-13.326.437-18.193,3.705-.094.055-.19.107-.283.163-.055-.18-1.335-4.354-1.421-4.636.017-.054,4.755-14.874,4.755-14.874,1.676-4.927,3.711-9.835,4.096-15.089l.047-.621c-2.783,4.087-4.643,8.709-6.225,13.352l-4.421,12.893c-1.021-1.697-4.898-8.144-4.898-8.144.29-1.222.631-3.452,1.606-5.075,0,0,2.701-4.898,2.701-4.897,4.941-9.689,11.274-18.456,18.247-26.779-.182,5.386-.452,10.768-.78,16.145-.352,5.677-.84,11.53-1.421,17.097-.466,2.607-1.681,9.415-2.125,11.933-.01.457.113.78.291,1.135.103.156.192.385.54.489.654.081,1.156-.188,1.65-.582,3.472-4.553,7.045-9.003,11.027-13.123,7.273-7.663,15.594-14.33,24.71-19.677-2.135,6.859-5.053,13.462-8.462,19.787-3.358,6.392-7.79,12.951-11.546,18.702l-6.945-1.539,7.072-9.786c2.375-3.278,4.829-6.584,6.295-10.397-.01.008-.021.017-.031.024.004-.011.009-.021.013-.031-.093.077-.176.155-.268.232-1.411,1.099-2.934,2.593-4.273,4.142-.032.037-.066.074-.098.112-.475.554-.927,1.113-1.339,1.66.028-.039-10.455,13.813-10.322,13.678ZM266.14,56.874c.01-.008.019-.017.029-.025-.104.249-.221.494-.333.741.102-.238.208-.472.304-.716ZM229.207,95.655c-.243-.106-.491-.202-.742-.289.251.087.498.182.742.289ZM201.486,92.257c-.052,0-.105,0-.157,0,.051,0,.107-.002.157,0ZM165.255,80.626c.335.175.663.373.991.573-.314-.179-.628-.358-.963-.523-.008-.017-.019-.033-.027-.05ZM182.635,96.146c.147.066-4.934-4.748-7.2-6.904.062.06.117.114.184.178l-.376-.361c.06.057.127.121.192.183-.639-.62-1.067-1.032-1.074-1.03,0,0,.003.003.003.003l-.003-.003c-.835-.786-1.621-1.583-2.406-2.366.245.237.489.474.731.712-2.285-2.292-4.581-4.609-7.548-5.997,1.754,3.51,4.452,6.422,7.193,9.176l8.052,8.054-3.834,3.711c-5.032-3.658-9.294-8.29-12.815-13.4-3.407-4.968-6.163-10.357-8.617-15.868,3.735,1.191,14.906,4.605,17.118,5.44,3.451,1.323,6.73,3.509,9.499,5.774,0,0,7.399,8.824,7.492,8.934-.636.363-6.592,3.765-6.592,3.765ZM180.271,101.767c-.422.414-.832.838-1.232,1.271.4-.435.812-.857,1.232-1.271ZM178.084,104.122c-.257.302-.506.61-.753.92.247-.31.496-.618.753-.92ZM182.731,99.561c-.585.475-1.153.967-1.702,1.475.55-.511,1.12-1,1.702-1.475ZM185.393,97.596c-.735.488-1.445,1.001-2.131,1.536.688-.539,1.4-1.049,2.131-1.536ZM190.4,94.845c-1.611.732-3.163,1.582-4.637,2.504,1.462-.945,3.008-1.784,4.637-2.504ZM183.35,59.897c-.006-.03-.012-.059-.017-.089.005.029.011.059.017.089ZM183.31,59.406c.002-.055.005-.11.014-.163-.009.052-.011.108-.014.163ZM183.366,59.06c.033-.104.083-.199.15-.283-.066.082-.114.178-.15.283ZM199.925,89.472l-1.574.026c-3.27-7.308-6.509-14.918-10.031-22.283l-.013-.03-.018-.035c-1.404-2.934-2.848-5.831-4.364-8.649l-.002-.003h0c-.138.041-.241.117-.332.203.088-.085.192-.159.332-.203-.154.045-.266.126-.36.22-.011.011-.024.021-.034.033-.09.102-.152.224-.19.358-.003.009-.004.018-.007.027-.1.39-.022.868.115,1.224l.652,2.058c3.062,9.522,7.316,18.596,11.374,27.717-.745.211-3.026.857-3.651,1.033-2.182-3.341-5.084-7.09-7.799-9.509-2.936-5.892-3.015-12.636-4.086-19.023-.824-6.105-1.531-12.226-2.128-18.356,6.09,6.708,14.606,15.589,19.42,22.824.938,1.852,2.4,4.061,2.571,6.296-1.101,4.9-1.686,10.965.122,16.071ZM200.52,92.269c-.207.008-.413.023-.619.037.209-.014.421-.03.619-.037ZM199.319,92.35c-.137.013-.274.03-.411.046.139-.016.276-.033.411-.046ZM176.183,106.554c-.235.328-.463.66-.688.994.225-.335.453-.667.688-.994ZM444.6,267.166c-5.784,2.848-14.49,3.375-18.954-2.014-1.653-2.174-2.061-5.198-.901-7.691.496-1.16,1.8-2.066,3.062-1.653-1.228,1.976-.287,4.418,1.944,5.123,3.373,1.402,7.369-.048,9.583-2.805,3.682-4.519,3.242-11.182.253-15.939-2.731-4.343-6.971-6.45-11.575-6.918-.003,0-.005-.001-.008-.001-.007,0-.013,0-.02-.001-.778-.078-1.565-.109-2.358-.096-.06,0-.119,0-.179.002-.219.005-.439.016-.659.028-2.368.114-4.679.598-6.901,1.409-.048.017-.095.036-.143.053-.216.08-.432.159-.647.245-2.767,1.081-5.335,2.613-7.429,4.466.615-.509,1.255-.991,1.914-1.449-.651.455-1.29.937-1.914,1.449-2.455,2.015-4.461,4.279-6.189,6.741-7.329,10.119-9.924,23.441-9.761,35.818-.618-2.101-2.749-9.343-2.749-9.343-1.276-8.146-.851-16.848,2.202-24.619.246.307,1.088,1.358,1.088,1.358l.312.39s.16.197.16.197c.636.531,1.614.581,2.331.131.309-.314.344-.695.348-1.05-.003-.707-.37-1.414-.83-1.882-2.982-4.351.812-10.732,3.508-14.417,1.575-2.018,3.412-3.876,5.593-5.201.332.822.927,2.344,1.196,2.992.143.282.167.599.413.862.604.427,1.519.647,2.166.206,1.092-.619.555-1.987.266-2.884-1.292-2.976-.238-5.983,1.348-8.604,1.518-2.654,3.617-4.962,6.074-6.779,2.357-1.779,5.062-3.06,7.878-3.933.066.557.423,3.574.423,3.574.152,1.293.091,2.546-.181,3.84-.051.323-.109.737.078,1.137.624,1.319,2.237.664,2.939-.087,1.032-.996,1.658-2.367,1.741-3.801-3.497-3.8-.773-9.208,2.688-11.993,3.756-2.795,7.897-5.386,10.675-9.311,1.746-2.293,3.111-4.865,4.097-7.574,1.378,3.05,2.521,6.206,3.308,9.456.858,3.536,1.299,7.172,1.293,10.812.026,1.812-.211,3.597-1.005,5.2-.754,1.799-2.251,2.759-3.05,4.624-.155.568.097,1.222.575,1.559,2.445,1.08,5.983-2.637,7.592-4.73,1.817,6.577,3.321,13.776.67,20.299-.545,1.434-1.419,2.79-2.734,3.634-.98.752-3.505,1.55-2.323,3.231.56.506,1.34,1.051,2.147.803.188-.094.618-.265.817-.368l4.035-1.815c.53,10.722-4.335,22.298-14.209,27.318ZM430.506,235.732c.087.021.172.048.258.071-.086-.024-.171-.049-.258-.071ZM412.01,239.634c-.094.063-.19.123-.283.187.093-.064.189-.124.283-.187ZM401.194,251.758c-.64,1.137-1.246,2.304-1.819,3.505-.205.43-.397.863-.589,1.295.712-1.649,1.516-3.25,2.408-4.8ZM402.097,250.23c-.166.271-.333.541-.494.816.164-.273.325-.547.494-.816ZM96.038,78.921c-.01-.005-.02-.009-.03-.014-4.732-2.168-10.445-2.417-13.302,2.409-1.239,2.106-.592,4.873,1.562,6.058-1.753,1.016-3.85.37-5.242-.995-4.533-4.532-1.492-12.637,3.809-15.172,5.482-2.755,12.266-1.446,17.158,1.977,11.526,8.617,16.563,23.79,15.693,37.819-.314,3.715-.273,7.647-1.675,11.146-.432-11.287-1.834-23.592-7.809-33.322-1.416-2.378-3.067-4.541-5.009-6.382-.269-.255-.548-.486-.826-.722.282.235.559.475.826.722-1.352-1.358-3.166-2.609-5.154-3.523ZM85.114,225.053s0-.002,0-.003c0,.001,0,.002,0,.003h0ZM80.321,184.879c-3.436-8.188-10.178-18.136-20.28-16.918-4.418.49-8.043,6.058-4.347,9.443-1.787.894-4.016-.217-5.089-1.803-2.522-3.676-1.691-8.988,1.189-12.236,2.19-2.54,5.652-3.659,8.95-3.622,8.093.172,14.742,6.027,18.89,12.592,7.62,11.486,9.396,25.811,7.885,39.294-.381,3.938-.786,7.898-1.868,11.708-.167.567-.34,1.133-.531,1.695-.003.007-.005.015-.007.022,0-.003,0-.006,0-.008.752-13.493.535-27.513-4.792-40.166ZM93.683,187.604c.151,5.94-.661,11.938-2.687,17.524.019-4.059-.117-8.129-.641-12.165-2.122-15.956-12.534-36.837-31.044-36.418-6.708.194-12.659,5.672-13.457,12.331-.515,4.293,1.022,9.412,5.176,11.386,2.058.993,4.551.95,6.604-.014l.047-.063.651-.88.325-.44s.163-.22.163-.22c.592-.739-.066-1.582-.532-2.266.368-.219.91-.438,1.097-.311.503.238.933.609,1.272,1.05,1.984,2.816.755,7.285-2.121,9.055-6.31,3.539-14.55.273-19.225-4.638-4.877-4.975-7.241-12.023-7.103-18.933,1.089.615,2.247,1.181,3.563,1.345.416.045,1.019.125,1.32-.203.523-.578,1-1.355.72-2.134-.293-.42-.802-.68-1.201-.94-7.048-3.546-6.005-16.052-4.449-22.842,1.599,1.663,4.386,4.525,6.497,2.952.982-.951.687-1.887-.365-2.619-7.428-5.275-2.665-21.119.4-28.591,1.759,6.203,6.076,11.442,11.58,14.74,5.389,4.008,6.613,9.016,3.543,14.96-.192,1.88,2.299,5.006,4.283,4.789.985-.251,1.228-1.544.884-2.383-.545-.86-1.495-1.703-1.418-2.75l.875-2.953c6.699,2,14.96,5.726,16.806,13.074.224,1.553-.613,2.884-.789,4.411-.067.886.44,1.684,1.401,1.663.392.007.798.043,1.193-.24.796-1.548,1.001-3.262,1.215-4.959.618,2.365,2.958,3.512,4.402,5.412,1.649,1.938,2.973,4.145,3.99,6.479,1.037,2.01,1.413,4.308.581,6.391-.004.009-.008.019-.011.028-.119.293-.26.582-.428.865-.236.507-.537.999-.668,1.552-.003.01-.005.021-.007.031-.014.063-.036.123-.045.188-.003.035.009.06.009.093,0,.041.008.078.012.117.041.331.228.564.502.7.002.001.003.003.006.005.059.035.134.061.217.084.484.145,1.093.079,1.486-.151.01-.01.021-.024.031-.035.053-.038.1-.078.134-.125l.137-.192c.464-.584,1.067-1.502,1.4-1.958.666,1.629,1.237,3.336,1.733,5.088-.497-1.726-1.069-3.427-1.733-5.088,2.316,5.781,3.497,11.986,3.669,18.196ZM87.554,164.092c.099.373.173.735.203,1.078-.056-.362-.118-.722-.203-1.078ZM88.766,171.153l.552-.772c-.184.266-.372.534-.552.772ZM32.541,258.49c-.183-.524-.444-.957-.686-1.392.941-.642,2.121.119,2.655,1.018,1.99,3.289.364,7.79-2.923,9.575-4.486,2.317-10.145,1.898-14.587-.376-8.835-4.802-13.696-15.287-13.315-25.152,1.745,1.005,4.832,2.535,6.225.858.26-.458.235-.986.031-1.42-.21-.424-.542-.727-.891-.958-2.973-1.06-4.319-3.93-5.01-6.803-1.226-5.595-.884-11.61.573-17.146,1.558,1.688,3.542,3.393,5.994,3.096,1.118-.241,1.323-1.747.687-2.552-.487-.719-1.248-1.086-1.775-1.716-.485-.581-.853-1.277-1.13-2.011-1.545-4.52-1.214-9.626-.134-14.223.771-2.858,1.918-5.61,3.216-8.286,1.729,5.358,5.282,10.16,10.132,13.052,2.341,1.624,4.524,3.698,5.517,6.371,1.055,2.716.356,5.737-1.175,8.138-.572,2.244,2.467,6.19,4.823,5.169.568-.558.753-1.399.489-2.159-.62-.903-1.195-1.667-1.792-2.497l1.293-3.994c2.766.684,5.418,1.843,7.908,3.245,3.664,2.19,7.633,4.952,8.976,9.182.506,1.475-.043,2.81-.173,4.317-.017.382-.01.765.06,1.158.131.499.551.676.95.858.462.162,1.078.348,1.557.02.223-.213.318-.547.443-.824.524-1.341.619-2.759.734-4.135,5.966,2.418,15.306,14.275,11.725,20.521-.441.688-1.034,1.422-1.107,2.288.172.634.841,1.257,1.54,1.31,1.453-.358,2.175-1.738,2.737-2.996,3.981,8.977,4.672,19.257,3.106,28.888.003-.011-1.994,7.208-1.994,7.208,0-.003,0-.005,0-.008-.504-13.813-3.559-28.254-12.758-39.011-2.918-3.62-6.695-6.63-11.051-8.367-8.645-3.618-20.394-1.5-23.852,8.176-1.608,4.383-1.051,9.929,2.645,13.116,2.574,2.416,7.211,3.118,9.792.294.388-.458.75-1.116.545-1.832ZM67.215,286.02c-.039-.853-.087-1.702-.143-2.547.058.851.105,1.7.143,2.547ZM67.226,286.105l-.005.017h0s.004-.015.005-.017ZM32.455,248.891c-4.024.94-6.976,6.809-2.975,9.462-4.374,2.51-8.333-3.565-7.645-7.622.635-7.397,8.182-11.521,15.079-10.394,11.849,1.553,19.521,12.765,23.384,23.223,3.229,8.762,4.138,18.188,3.707,27.478-.226,4.428-.36,8.96-1.931,13.128-.508-10.864-1.671-21.791-4.903-32.212-3.211-10.898-11.23-25.834-24.717-23.064ZM67.189,331.382c.028-.1.058-.201.086-.302-.883-.87-4.246-4.186-4.246-4.186-2.539-2.13-2.399-5.526-1.348-8.397,7.064-25.695,15.299-55.803,23.061-81.32,9.519-31.471,18.672-64.702,27.239-96.411,4.509-16.072,9.402-32.037,14.835-47.818,5.036-14.781,10.654-29.47,18.832-42.826,13.192-22.541,36.013-38.862,61.612-44.035,24.379-5.237,50.649-2.855,72.922,8.706,30.669,15.269,45.209,49.166,54.441,80.373,8.475,27.913,19.429,67.848,27.731,96.273,11.075,36.967,24.927,82.875,36.883,119.681.605,1.81,2.338,7.243,2.909,8.932.301.99.706,1.991.879,2.964.349,2.074-.994,3.915-2.503,5.213-1.468,1.311-3.122,2.424-4.718,3.619-1.272-4.166-16.745-54.824-16.745-54.824-9.465-30.622-19.849-65.898-28.828-96.619-5.623-19.847-12.836-46.102-18.529-65.865-.226-.66-.32-1.58-1.007-1.959-.027-.013-.072-.027-.14-.01-.05.004-.121.097-.114.095l-.232.386-.464.772-.022.036c.632,8.157-.112,16.413-2.166,24.332-1.857,6.872-4.318,13.676-7.615,20-4.232,8.149-9.876,15.571-16.502,21.926-17.704,16.877-43.138,25.821-67.492,22.534-16.218-2.206-31.456-9.835-43.978-20.231-12.608-10.381-21.77-25.243-23.559-41.634-2.059-16.008,3.194-34.093,17.201-43.27,5.107-3.23,11.183-5.632,17.315-5.151.887-.004,2.243.452,3.126.15.026-.008.052-.018.077-.027.087-.035.167-.081.243-.134.018-.014.036-.028.053-.043.233-.186.403-.468.47-.902.134-.498.119-1.021.202-1.521.3-2.059,2.02-3.63,3.904-4.327,4.58-1.71,9.254,1.854,8.983,6.325-.082.704-.262,1.349-.421,1.909-.036.096-.057.19-.098.286-.14.409-.198.749-.184,1.03-.001.052.006.098.01.145.004.023.005.048.01.07.031.177.116.315.269.413.028.021.056.041.088.058.008.004.012.01.021.014.008.003.022.003.03.006.253.118.614.149,1.118.067.521-.047.969-.332,1.449-.494,3.39-1.25,7.366-.225,9.91,2.292.217.195.411.41.605.623.431.494.815,1.02,1.142,1.576.026.046.052.093.078.139.102.181.202.363.292.549,1.283,2.751,1.232,6.076-.185,8.634-.076.13-.161.255-.243.38-.069.11-.138.219-.213.325-.541.746-1.195,1.389-1.892,1.894-.602.416-1.277.762-2.039,1.008-.151.044-.305.073-.458.107-.111.024-.226.055-.333.073-1.457.244-2.961.003-4.265-.689-.095-.052-.188-.105-.28-.159-.17-.101-.339-.203-.5-.319-.025-.013-.052-.03-.078-.046-.056-.038-.108-.076-.162-.114-.224-.164-.49-.368-.773-.571.099.076.196.151.29.224-.267-.197-.516-.38-.751-.539.156.1.31.207.461.316-.531-.406-1.118-.808-1.618-.815-.006,0-.012-.003-.018-.003-.006,0-.01.002-.016.002-.066.001-.131.011-.193.028-.169.035-.295.115-.38.244-.011.012-.023.02-.034.033-.009.02-.009.042-.017.063-.062.13-.106.283-.126.471-.052.363-.029.74-.01,1.114.001.044.003.088.004.132.007.156.013.312.009.466,0,.025,0,.05,0,.076.006.099,0,.199.002.298,0,.064-.005.132-.006.197-.056.9-.216,1.786-.566,2.571.231-.486.396-1.007.488-1.546-.111.753-.368,1.52-.874,2.228.01-.016.018-.033.029-.049-.103.155-.216.305-.337.447-.332.371-.743.72-1.268,1.032-.573.34-1.179.596-1.799.779-.071.02-.141.041-.213.06-.124.033-.249.06-.374.087-.208.042-.416.082-.626.107-.002,0-.005,0-.007.001-2.104.249-4.316-.339-5.91-1.669-.074-.062-.145-.13-.217-.196-.114-.104-.227-.21-.333-.323-.053-.056-.105-.114-.157-.172-.499-.566-.906-1.224-1.177-1.978-.075-.223-.122-.444-.153-.664-.007-.053-.008-.105-.013-.158-.018-.182-.028-.363-.021-.543,0-.02.002-.039.003-.059.055-.981.45-1.931.882-2.847.191-.378.362-.705.463-.973.013-.028.027-.056.04-.083.002-.01,0-.019,0-.029.023-.074.042-.144.05-.207.005-.041-.013-.085-.016-.127-.002-.023-.005-.043-.008-.065-.018-.101-.058-.202-.121-.306-.006-.009-.005-.02-.011-.028-.004-.004-.008-.007-.012-.011-.04-.061-.083-.122-.137-.184-.433-.571-1.336-.987-2.325-1.278.282.086.554.189.819.308-.378-.161-.802-.309-1.28-.434.155.039.308.081.46.126-.168-.051-.336-.099-.508-.14-.039-.01-.083-.018-.123-.028-.008-.002-.016-.004-.024-.006l.01.002c-.157-.039-.324-.072-.491-.105.012.002.024.003.036.006-.069-.014-.138-.029-.206-.042-.095-.018-.19-.034-.288-.05-.765-.129-1.449-.19-1.847-.192-.199-.007-.393.008-.591.007-.239,0-.476-.002-.723.009-.347.014-.691.046-1.033.081-.073.008-.146.015-.22.024-2.499.29-4.865,1.112-7.029,2.34-.187.104-.368.216-.551.326-.327.199-.649.407-.966.624-.266.18-.533.358-.791.55-.131.098-.255.206-.384.307-.572.446-1.12.917-1.647,1.417-.226.212-.449.426-.667.647-.185.19-.368.38-.547.576-1.94,2.095-3.541,4.517-4.686,7.072-.258.569-.492,1.146-.714,1.727-.073.188-.137.378-.206.566-.124.342-.245.685-.356,1.031-.093.285-.181.572-.265.859-.103.35-.198.703-.289,1.056-.047.185-.099.37-.143.556-1.28,5.29-1.338,10.887-.587,16.287.028.203.062.404.093.607.128.848.27,1.691.435,2.526,1.24,5.86,3.782,11.414,7.329,16.234,6.987,9.878,15.91,17.683,25.945,23.066.515.283,1.034.558,1.555.827.034.017.068.035.102.052,4.571,2.344,9.372,4.141,14.301,5.396.057.015.114.031.171.045.626.158,1.255.303,1.886.443,10.628,2.427,21.839,2.417,32.897-.347,7.431-1.798,14.596-4.757,21.131-8.864,12.045-7.237,21.294-17.308,27.69-28.94.11-.198.221-.396.329-.595.189-.35.376-.701.56-1.054,2.77-5.262,4.97-10.868,6.531-16.733,3.686-13.474,4.199-27.973,1.432-42.06-4.353-21.166-14.747-41.682-30.388-56.771,0,0,0,0-.001-.001-2.826-2.727-5.804-5.297-8.97-7.64-24.682-17.322-58.217-19.737-86.209-9.56-20.245,7.478-36.687,23.252-46.712,42.187-4.136,7.515-7.546,15.406-10.587,23.413-6.128,16.009-11.048,32.447-15.55,48.97-16.056,62.412-38.02,125.741-53.852,187.268l-.835,3.128c-.646,2.256-1.295,4.516-1.935,6.765.042.042.072.07.102.1l-.082.306-.106-.105ZM168.274,127.8c.085-.759.184-1.515.303-2.266-.123.752-.213,1.509-.303,2.266ZM168.596,125.421c.644-3.997,1.779-7.87,3.379-11.48-1.601,3.64-2.723,7.518-3.379,11.48ZM172.119,113.608c.327-.721.677-1.429,1.041-2.127-.363.7-.717,1.406-1.041,2.127ZM173.624,110.606c.297-.539.609-1.068.928-1.59-.319.524-.633,1.052-.928,1.59ZM268.252,82.066c-1.067-.544-3.265-1.681-3.555-1.763l-.008-.004c3.924-1.552,8.287-3.212,12.252-4.719,4.038-1.268,8.521-2.68,12.607-3.664,2.253-.556,4.533-.968,6.825-1.287-8.558,5.106-17.432,9.925-26.302,14.265-.189.09-.376.182-.565.271.011-.071.256-1.583.256-1.583,0-.01-.005-.018-.005-.028l.003-.021c.016-.094-.01-.201-.06-.311-.02-.051-.052-.095-.081-.143-.015-.024-.03-.047-.047-.071-.067-.095-.139-.183-.228-.265-.169-.169-.359-.313-.513-.389l-.579-.287ZM269.483,82.895c-.022-.026-.044-.05-.067-.076.024.025.045.049.067.076ZM237.392,333.047c-.974-1.589-2.387-3.634-3.191-5.128-.802-1.833-.539-3.956.128-5.819.975.814,1.944,1.635,2.93,2.437l.101-.087,2.909-2.516h0c1.577,3.937-.586,7.915-2.878,11.114ZM232.014,319.838c-.806,1.377-1.304,2.944-1.39,4.538-.227,3.377,1.239,6.57,3.116,9.27,1.008,1.313,1.909,2.865,3.49,3.56.243.099.542-.003.727-.1,1.31-.736,1.869-2.223,2.69-3.406,2.693-4.031,4.386-9.443,1.485-13.82,0,0,0,0,0,0l.003-.003c.031-.034,3.207-3.48,3.255-3.533.05.051.089.107.138.159,1.961,2.238,3.18,5.698,3.071,8.892-.045,5.497-1.852,10.912-4.446,15.709.057-.079-5.302,7.907-6.532,9.751-1.949-2.424-3.822-4.906-5.464-7.534-3.374-5.464-6.032-11.676-6.109-18.174-.057-3.083.854-6.214,2.894-8.501l3.073,3.193ZM243.255,322.527c-.026-.094-.049-.188-.078-.282.026.094.055.188.078.282ZM243.087,321.957c-.234-.679-.546-1.37-.955-2.077.424.674.731,1.37.955,2.077ZM245.552,364.185c-1.482,5.255-4.382,9.978-7.538,14.398-6.291-8.309-11.949-19.834-6.174-29.746.423.555,1.542,2.025,1.732,2.274-3.323,5.857-.905,13.533,4.398,17.345,4.388-4.431,7.008-11.772,3.119-17.317v-.002s0,0,0,0c.007-.01,2.045-2.793,2.153-2.94.104.145.198.292.297.438,2.867,4.521,3.652,10.215,2.014,15.551ZM239.455,353.438c1.328,3.487.372,7.376-1.756,10.308-1.058-1.431-1.873-3.047-2.238-4.783-.362-1.778-.263-3.661.382-5.38.41.38.96.879,1.295,1.176.084.086.252.151.375.131.85-.241,1.32-.904,1.942-1.452,0,0,0,0,0,0ZM241.093,351.147c.413.62.735,1.262.993,1.915-.266-.645-.588-1.285-.993-1.915ZM239.455,353.437h0s0,0,0,0c0,0,0,0,0,0ZM240.27,321.933h0s0,0,0,0c0,0,0,0,0,0ZM229.762,426.79h0s0-.002-.001-.003c-.558-.733-1.171-1.464-1.767-2.211-.62-.802-1.201-1.607-1.741-2.433-.763-1.273-1.298-2.643-1.322-4.191-.042-1.141.274-2.247.681-3.308.315-.738.511-2.053-.637-2.117-.557-.056-1.263-.06-1.638.438-.309.447-1.043,1.477-1.411,2.007-1.451-1.989-2.347-4.369-2.649-6.813-.517-3.95.135-9.733,4.638-10.963,1.027-.076,2.666.339,2.927,1.478.135.586.134,1.221.255,1.859.402,2.236,3.41,2.284,4.944,1.189,3.842-2.918,3.011-8.42,1.898-12.484-1.324-4.494-3.543-9.258-1.917-13.921.764,1.184,2.668,4.133,2.668,4.133.214.344,1.485,2.284,1.683,2.605.473.546.938.953,1.718,1.012.792-.239,1.297-.819,1.777-1.468.513-.757,1.756-2.634,2.295-3.427,0,0,1.922-2.87,2.593-3.872.489,2.237.602,4.579-.059,6.749,0,0-2.636,7.386-2.636,7.386-1.246,3.596-2.545,8.162-.262,11.643,1.416,2.205,5.532,3.479,7.106.817.312-.655.386-1.347.431-2.007-.015-1.33,1.558-1.76,2.661-1.714,1.882.109,3.451,1.678,4.268,3.303,2.081,4.67.491,10.421-2.646,14.283-.33-.567-.939-1.672-1.198-2.058-.546-.468-1.487-.733-2.118-.317-.531.276-.667,1.003-.523,1.511.64,1.995,1.007,4.02.024,5.975-1.46,3.754-4.522,7.042-6.852,10.296,0,0-4.893,6.48-4.962,6.571l-7.697-9.311c.146.179.319.391.513.629l-1.034-1.26.522.631c-.326-.399-.522-.637-.53-.641ZM229.759,426.787c-.429-.522-.84-1.031-1.241-1.535.424.515.846,1.024,1.241,1.535ZM225.852,421.523c-.055-.089-.116-.175-.17-.265-.067-.157-.115-.302-.172-.452.105.243.218.482.342.717ZM271.907,382.769c-.063.896-.227,3.036-.182,3.04v.002c-9.957-2.887-18.205-10.199-23.789-18.764.046-.153.689-2.29.881-2.927,2.508,3.731,5.567,7.207,9.471,9.567,3.307,1.991,8.422,3.919,11.705.912.705-1.152.702-3.467-1.181-2.764-1.556.643-3.056,1.76-4.744.955-6.639-2.115-11.469-7.786-14.606-13.812.255-1.473-.211-4.996-.877-7.029-.708-2.246-1.858-4.349-3.332-6.18.135-.261.721-1.391,1.185-2.284,2.24,10.279,9.414,22.529,20.05,25.188.853.185,1.751.379,2.653.217.322-.047.931-.166,1.114-.595.076-.129.246-.42.326-.557.218-.327.612-1.151.857-1.368,1.19-.531,2.548.529,3.557,1.241,2.562,2.042,4.338,5.111,4.721,8.375-.51-.026-1.41-.066-1.678-.084-.752-.016-1.388.56-1.77,1.17-.763,2.326,2.884,2.243,4.092,3.18.868.506,1.541,1.303,1.844,2.268l3.756,11.599c-1.363-.788-6.68-3.863-6.68-3.863-1.008-.638-2.54-1.317-3.393-2.152-1.031-.908-1.419-2.365-.964-3.657,0,0-.926-1.963-.925-1.963-.021-.021-.046-.033-.067-.052-.036-.041-.081-.076-.137-.106-.01-.006-.021-.01-.032-.016-.039-.018-.076-.038-.122-.052-.333-.129-.735-.11-1.114-.034-.225.034-.437.087-.597.156l-.023.389ZM273.338,382.201c-.165-.018-.343-.022-.523-.009.178-.017.355-.016.523.009ZM272.758,382.196c-.026.002-.051.006-.077.009.026-.004.051-.006.077-.009ZM247.351,281.619c1.007,1.747,1.798,3.465,2.407,5.157,4.556,12.867-2.172,24.576-12.374,33.953-3.744-3.387-7.154-7.2-9.709-11.568-3.918-6.505-5.452-14.628-2.764-21.878.892-2.35,2.167-4.611,2.95-7.076,1.509-4.922,2.196-10.004,2.978-15.071,2.195-16.482,2.51-33.238.936-49.79-.593-3.657-1.28-7.292-2.576-10.775,4.944.934,9.946,1.54,14.967,1.824-1.208,4.524-2.11,9.156-2.322,13.844-.127,14.288-.198,28.615,1.46,42.831.601,4.406,1.033,8.949,2.178,13.272.043.176.088.343.132.513.029.105.052.211.082.316.492,1.849,1.039,3.378,1.648,4.433,0,0,0,0,0,0,0,0,0,0,0,0,0,0,0,0,0,0,0,.001.002.003.002.004,0-.001-.002-.003-.002-.004.002.004.004.008.007.012ZM251.209,297.111c-.018.227-.032.455-.057.681.025-.226.038-.454.057-.681ZM251.145,297.849c-.093.84-.23,1.673-.41,2.499.178-.826.315-1.659.41-2.499ZM250.668,300.625c-.07.306-.141.612-.222.916.081-.304.152-.61.222-.916ZM314.336,250.305l-.028-.026c-2.496-2.295-5.044-4.565-6.912-7.42-.969-1.382-1.769-2.951-1.594-4.682.012-.868.317-1.707.073-2.578-.35-.908-1.438-.94-2.259-1.006-5.337-5.638-8.932-12.987-9.764-20.727-.539-3.551.405-5.827,3.113-8.144.286-.317.596-.808.454-1.256-.168-.624-.636-1.424-1.411-1.273-.64.099-1.316.226-1.851.626l-1.996,3.01c.038-2.433.041-4.87.177-7.286.031-2.522.829-5.958,1.442-7.762l6.489-4.775c-1.563,10.51-.597,21.651,3.924,31.353,1.817,3.672,4.565,7.144,8.381,8.892,3.766,1.741,8.856,1.709,11.586-1.852,1.815-2.238,1.951-5.042.238-7.223,4.11.443,4.63,6.198,3.026,9.372-4.109,8.883-15.339,7.279-20.522.269-2.854-3.337-3.943-7.821-7.014-11.026-.745,2.268-.163,4.721.939,6.759,1.066,1.912,1.867,3.933,3.177,5.687,1.329,1.742,3.013,3.185,4.85,4.343,1.831,1.178,3.787,2.123,5.731,3.071.986.661,1.783,1.808,2.162,2.986.963,3.147.317,6.786-1.527,9.527.318-.469.607-.969.863-1.497-.472,1.024-1.061,1.94-1.746,2.638h0c.302-.332.58-.702.846-1.088-.26.381-.541.746-.846,1.088ZM344.365,289.528c-1.009-1.193-1.653-2.719-1.286-4.297.144-.964.761-2.712.021-3.554-.057-.083-.146-.152-.261-.205-.038-.024-.06-.059-.102-.08-.44-.124-.976-.168-1.379.099,0,0-1.235,3.188-1.317,3.399-.12-.109-.236-.22-.355-.33-3.167-3.194-7.421-7.888-5.467-12.913.177-.646.584-1.154.793-1.789.063-.419-.073-.827-.241-1.199-.221-.509-.695-1.054-1.32-.825-1.596.446-1.935,2.265-2.601,3.559-3.073-2.76-6.206-5.88-7.104-10.032-.272-1.29-.292-2.622-.122-3.93,2.068.591,3.44-1.129,3.834-3.021,1.593-6.154-3.3-10.752-7.369-13.527,0,0-1.127-3.384-1.322-3.969,1.025-.173,3.929-.662,3.929-.662,8.526,2.384,14.635,11.869,11.607,21.073-.337,1.482-1.538,2.89-1.389,4.463.063.971,1.269,1.012,1.963.892.331-.034.836-.299.977-.649,1.14-1.81,1.731-3.908,2.163-5.978,1.842,2.461,3.268,5.275,3.674,8.341l-1.583.905s-.089.051-.089.051c-.82,3.451,3.338,7.739,4.456,2.573,1.073.199,2.071.721,2.862,1.477,2.473,2.464,3.184,6.174,3.252,9.568-.766-.155-1.534-.325-2.326-.15-.211.042-.461.225-.534.443-.242.626-.207,1.325.096,1.934,2.206.938,3.896,2.976,4.032,5.416l.308,2.372s1.184,9.117,1.216,9.363l-8.474-8.232c-.204-.2-.378-.393-.544-.585ZM344.307,289.466c-.047-.055-.087-.109-.131-.163.043.055.086.109.131.163ZM343.917,288.957c-.424-.596-.677-1.151-.811-1.674.166.594.453,1.157.811,1.674ZM343.088,287.208c-.032-.134-.06-.267-.078-.397.022.133.043.267.078.397ZM347.741,259.914v.009c-.014-.005-.026-.011-.039-.016,0,0,0-.005,0-.006-.021-.006-.042-.014-.064-.02-.157-.056-.3-.128-.454-.187-1.849-.822-3.962-2.009-5.346-3.649-1.615-1.761-2.671-3.983-3.173-6.305l-1.055-1.805c-.619-2.941-2.14-6.088-4.193-8.476-1.991-2.35-4.57-4.2-7.441-5.337,3.434-2.509,5.678-6.688,5.431-10.987-.012-4.459-3.707-9.083-8.502-8.097-.868.488-1.732.872-2.362,1.743-.359.939-.179,1.711.017,2.574-1.723.565-3.526-.804-4.078-2.443-.601-1.815-.384-3.91.623-5.57,3.333-5.13,11.057-5.615,16.022-2.656,5.175,3.152,8.024,8.966,9.464,14.703-.798.19-3.611.803-3.765.913-.802.616-1.073,2.326.303,2.88,1.185.505,2.398-.257,3.562.058,1.114.303,1.769,1.494,2.433,2.374,2.598,4.011,2.792,8.988,2.991,13.634-.556-.241-1.112-.483-1.677-.703-.615-.193-1.228-.552-1.877-.491-.313.152-.516.419-.702.684-.149.262-.387.6-.205.933.309.584.799,1.035,1.319,1.415,2.083.797,3.251,2.994,3.395,5.16.011.188.003.379,0,.569-.002.118.008.237,0,.354,0-.002,0-.005,0-.007,0,.002,0,.005,0,.007v.014s0-.014,0-.014c0,0-.648,8.532-.664,8.734.013.004.025.009.038.012ZM426.16,247.305c-.189-.037-.381-.053-.571-.079-.212-.028-.423-.061-.637-.077-.241-.018-.482-.019-.723-.021-.169-.001-.338-.005-.508.002-.234.009-.468.028-.702.051-.205.02-.409.043-.613.073-.175.026-.35.054-.525.088-.346.065-.688.143-1.029.234-.025.007-.05.012-.075.019-.896.244-1.772.564-2.603.962-.354.177-.679.388-1.019.582-.115.065-.229.128-.343.196-10.416,6.194-14.127,20.256-15.396,31.586-.957,8.742-.672,17.561-.231,26.327-.926-2.89-2.537-7.901-2.502-7.831-2.888-13.518-2.764-28.142,2.504-41.063,3.486-8.42,9.589-16.616,18.615-19.396,4.355-1.312,9.406-1.603,13.405.886,4.977,2.907,7.52,9.742,4.941,15.048-1.337,2.917-5.938,5.491-8.342,2.395.942-.288,1.598-.895,2.003-1.652.061-.107.114-.219.163-.333.03-.072.064-.141.089-.215.071-.201.128-.408.162-.627.15-.829.072-1.723-.235-2.544-.438-1.383-1.396-2.512-2.583-3.315-.052-.036-.107-.068-.161-.102-.238-.153-.483-.291-.736-.417-.056-.028-.11-.056-.166-.083-.314-.147-.634-.281-.963-.384.301.098.596.219.885.354-.286-.131-.579-.254-.885-.354-.402-.132-.809-.232-1.22-.31ZM419.02,248.227c-.158.066-.315.133-.472.205.157-.071.314-.139.472-.205ZM417.856,248.766c-.194.099-.387.202-.58.309.191-.108.385-.209.58-.309ZM431.248,250.467c-.003-.005-.007-.01-.01-.015.003.005.007.01.01.015ZM429.025,248.375c-.118-.07-.237-.139-.359-.203.122.065.241.132.359.203ZM429.567,248.727c-.005-.004-.01-.008-.015-.011.005.004.01.008.015.011ZM154.288,222.357c.588-.052,1.159-.141,1.713-.266-.563.138-1.134.225-1.713.266ZM175.602,302.601c.394.396.868.714,1.33,1.041-.408-.257-.894-.572-1.33-1.041ZM177.687,304.976c-.102.173-.254.334-.426.481.183-.168.328-.333.426-.481ZM177.257,305.461c-.016.014-.032.028-.049.042.016-.014.033-.028.049-.042ZM168.234,313.784c-.044-2.151.812-4.321,2.385-5.805,1.554-1.503,3.799-2.216,5.942-1.946.055-.048.12-.099.188-.152.056-.043.11-.082.167-.128.322-.244.678-.528.828-.857.002-.005.008-.01.011-.015.005-.009.005-.016.01-.025.01-.025.021-.05.028-.076.07-.192.047-.35-.047-.494-.003-.007-.003-.014-.006-.021-.005-.005-.011-.009-.016-.013-.133-.18-.372-.342-.664-.527-.513-.367-1.052-.711-1.488-1.157-.227-.25-.44-.539-.619-.892,0,0,0-.001-.001-.002-.642-1.355-1.58-2.457-2.682-3.322-.05-.04-.101-.076-.152-.115-.267-.201-.54-.39-.825-.562-.169-.104-.341-.201-.515-.295-.159-.084-.32-.162-.483-.237-.272-.128-.547-.245-.829-.347-.059-.021-.119-.039-.178-.059-1.116-.381-2.293-.586-3.49-.564-.643.011-1.271.113-1.888.253-.256.054-.51.11-.761.186-.035.011-.07.025-.105.037-1.863.583-3.562,1.732-4.778,3.521-.598.931-1.234,1.931-1.293,3.068-.049,1.157.657,2.197,1.526,2.885-.408,3.723-4.184,6.17-7.602,7.24-3.494,1.15-7.195,1.606-10.868,1.618.317-.599,1.865-3.52,1.865-3.52,1.029-1.752.731-2.765-1.516-2.478-1.499.283-2.193,1.741-2.483,3.083-.311,1.347-1.561,2.179-2.764,2.731-2.221,1.019-5.588,1.126-8.02,1.542,0,0-6.981.967-7.731,1.071,3.898-3.403,7.655-6.984,11.08-10.869,4.344-4.816,8.217-10.878,15.581-8.169.387.057.578-.192.74-.349.306-.372.557-.776.575-1.32-.111-.59-.486-.879-.843-1.18-1.033-.753-2.288-1.113-3.549-1.233,1.653-3.249,4.801-6.318,8.505-6.755,1.43-.047,2.9.943,4.4.556.265-.074.568-.15.774-.342.542-.658.709-1.781-.117-2.268-1.11-.867-2.494-1.251-3.809-1.653,3.657-4.784,7.433-10.279,13.442-12.075,1.399-.352,3.107-.751,4.481-.33.686.252,1.267.766,1.935,1.227,1.619,1.187,3.359.247,2.927-1.815-.027-.222-.243-.508-.396-.622-1.644-1.543-3.895-2.266-6.106-2.419,3.104-3.831,7.648-6.549,12.399-7.767,2.719-.688,6.615-.692,7.661,2.443.352.526.758.827,1.414.99.553.005.755-.269,1.102-.56.282-.292.609-.645.537-1.105-.126-.852-.439-1.624-.783-2.39,11.081-.153,18.502,11.152,13.701,21.253-1.905,4.437-8.439,7.694-12.458,4.167-.59-.661-.753-1.581-.493-2.426l2.403-.229s.13-.012.13-.012c.743-.808,1.239-1.849,1.367-2.938.61-5.833-6.684-8.33-11.289-6.423-5.824,2.073-9.204,8.356-9.403,14.309-.415,18.239,20.861,25.109,35.733,20.123,3.706-1.178,7.216-3.031,10.188-5.559l1.886,5.166c-3.832,8.389-12.845,13.809-22.018,13.674.332-.683,1.466-3.014,1.466-3.014.187-.336.026-.692-.087-.958-.204-.582-.899-1.105-1.55-.82-1.348.706-1.915,2.332-3.132,3.178-.9.746-2.002,1.233-3.166,1.392-4.652.717-9.475.029-13.816-1.776.09-.157.868-1.518.868-1.518.288-.552.62-1.052,1.171-1.335.513-.311,1.156-.434,1.629-.901.526-.508.484-1.286-.055-1.726-.436-.508-1.134-.637-1.756-.494-1.901.309-3.253,1.927-4.082,3.547-2.653,3.698-9.355,4.021-13.583,4.313.07-.075.13-.148.197-.223,1.617-1.495,2.856-4.065,3.057-6.393ZM174.952,301.673c-.462-.911-1.031-1.714-1.682-2.404.665.693,1.244,1.487,1.682,2.404ZM173.24,299.239c-.273-.287-.567-.547-.867-.794.305.245.593.511.867.794ZM161.332,297.438c-.125.072-.252.141-.374.219.123-.077.248-.148.374-.219ZM160.351,298.084c-.152.115-.303.232-.448.357.146-.126.296-.242.448-.357ZM159.29,299.021c-.08.082-.158.165-.235.25.076-.086.156-.168.235-.25ZM220.7,298.112c-9.125,9.448-26.048,10.161-36.277,2.126-2.498-2.086-4.393-4.91-5.283-8.044-1.797-6.017.352-14.093,6.719-16.324,2.745-1.073,6.769-.217,6.846,3.127-2.315-.667-4.876.59-5.961,2.714-3.906,6.977,2.332,14.929,9.225,16.66,9.293,2.978,19.669-1.18,25.28-8.917-.491.648-1.027,1.259-1.581,1.852.546-.591,1.079-1.202,1.581-1.852-.416,2.775-.759,6.088-.548,8.658ZM197.17,295.746c.149.047.297.095.447.138-.15-.043-.298-.091-.447-.138ZM195.582,295.166c.069.029.139.059.209.087-.07-.029-.139-.057-.209-.087ZM205.579,285.108c-.047.053-.096.104-.144.156.048-.051.096-.103.144-.156ZM202.539,260.061c.279.212.55.432.813.66-.267-.225-.534-.453-.813-.66ZM199.159,258.095c1.11.472,2.146,1.059,3.097,1.75-.972-.692-2.014-1.27-3.097-1.75ZM195.799,256.995c.216.048.432.097.647.156-.214-.057-.43-.108-.647-.156ZM187.642,256.826c.304-.023.608-.045.912-.068-.31.031-.616.054-.912.068ZM171.879,298.073c-.133-.096-.27-.188-.407-.277.139.087.272.183.407.277ZM172.625,322.046c-.335.076-.671.147-1.008.213.338-.066.674-.138,1.008-.213ZM170.018,322.535c-.246.037-.492.073-.739.106.247-.033.493-.069.739-.106ZM177.594,320.459c-.436.186-.876.359-1.319.52.445-.163.887-.334,1.319-.52ZM175.057,321.392c-.348.109-.697.212-1.049.308.353-.096.702-.2,1.049-.308ZM198.364,322.822c-.409-.091-.818-.183-1.227-.273.383.036.751.137,1.227.273ZM229.649,346.886c.04-.091.077-.183.113-.276-.032.087-.069.179-.113.276ZM228.479,377.389c-.008-.003-.017-.004-.026-.006.009,0,.018.003.026.006ZM229.634,397.981c.014.039.023.082.037.122-.013-.04-.023-.083-.037-.122ZM216.494,403.62c0-.007.002-.013.003-.02,0,.007-.002.013-.003.02ZM249.086,341.483c.016.142.027.283.045.426-.019-.144-.03-.284-.045-.426ZM333.613,300.35c1.188.421,2.496.699,3.426,1.61,0,0,.001.001.002.002l2.493,2.51c3.288,3.359,8.756,8.971,9.6,9.668l.065.066c-5.14-.417-10.287-1.081-15.239-2.54-1.224-.339-2.486-.81-3.274-1.847-.827-.987-1.104-2.288-1.441-3.53-.169-.622-.355-1.274-.78-1.809-.852-1.099-2.63-.968-3.22.321-.036.124.054.259.081.304l.964,1.666c.007.032.586,2.528.658,2.841-5.09-.623-10.578-1.44-14.693-4.694-1.295-1.092-2.236-2.64-2.306-4.338.92-.601,1.761-1.568,1.678-2.741-1.918-8.338-12.365-8.919-19.141-6.444,1.321-3.281,1.936-6.921,1.288-10.45-.648-3.687-2.635-7.312-6.025-9.136-4.058-2.321-10.568-1.421-12.199,3.469-.278.941-.559,1.987-.226,2.951.47,1.107,1.74,1.295,2.128,1.82,1.047,1.411-1.211,3.06-2.545,3.056-6.898.097-9.624-8.462-7.908-14.136.462-1.743,1.219-3.414,2.248-4.901,2.953-4.475,8.227-6.927,13.508-7.182-.188.466-.499,1.235-.499,1.235-.12.332-.38.894-.5,1.239-.248.698.342,1.406.861,1.829.851.541,1.763-.354,2.122-1.065,1.159-2.554,2.681-3.362,5.422-3.323,4.687-.187,9.439,1.874,12.683,5.09,0,0,3.233,3.974,3.703,4.552-3.417-.097-7.457.804-9.352,3.859-.693,1.429.567,2.363,1.937,2.237.715.015,1.158-.803,1.675-1.214,1.36-1.136,3.153-1.661,4.92-1.603,4.479.201,8.601,3.037,11.014,6.731.985,1.396,3.517,4.979,4.601,6.516-.636.185-3.567,1.038-3.566,1.038-.628.144-1.317.369-1.65.971-.179.276-.374.536-.412.912.052.376.294.619.519.855.245.208.497.468.899.443l.935-.226s1.87-.451,1.87-.451c2.535-.805,5.084.498,6.976,2.15,2.926,2.508,5.143,5.715,7.246,8.916-.419.322-.937.887-1.296,1.379-.136.195-.184.372-.177.533,0,.034.009.063.013.095.005.024.004.049.011.072.032.117.102.218.203.308.174.172.425.305.698.387ZM332.75,299.222c.005-.013.015-.026.02-.039-.005.013-.016.027-.02.039ZM298.14,309.578c-1.971.087-3.85.718-5.693,1.366-.229.091-.458.168-.685.235-.028.008-.057.018-.084.026-1.302.366-2.553.291-3.523-.535-.285-.262-.564-.585-.837-1.014-.065-.101-.185-.179-.324-.246-.031-.016-.062-.031-.094-.044-.062-.024-.128-.043-.197-.061-.161-.045-.327-.072-.499-.078-.035-.002-.069-.007-.104-.008-.067,0-.13.004-.196.008-.066.003-.132.005-.195.013-.031.003-.066.003-.096.006-.035.004-.052.023-.085.029-.119.026-.225.062-.315.108-.013.008-.032.011-.044.019-.088.051-.16.11-.199.183-.015.027-.022.064-.033.095-.012.025-.018.053-.028.08-.009.034-.017.067-.024.104-.101.389-.012.89.166,1.362.067.2.146.377.232.517.117.222.24.422.354.554,0,0,.52.75.521.75.066.256-.382.446-.575.575-3.798,1.776-8.433,2.082-12.399.711-.539-.247-.993-.646-1.324-1.139-.583-.913-1.284-2.803-2.708-2.063-.455.185-.977.598-.82,1.162.086.677.265,1.336.435,1.991-6.366-.623-12.71-3.714-16.438-8.99l1.489-5.23c4.677,3.179,10.308,4.857,15.945,4.986,5.778.198,11.748-1.515,16.188-5.292,1.647-.333,4.398-.184,6.201.839,1.931.965,3.481,2.683,4.206,4.736.412,1.326.964,3.122,1.725,4.135.02.036.038.076.058.112ZM286.608,309.28c-.037-.008-.07-.02-.108-.026.037.006.071.019.108.026ZM286.982,309.404c-.02-.009-.038-.019-.059-.028.02.009.04.018.059.028ZM290.623,311.42c-.124.015-.247.023-.367.028.12,0,.245-.018.367-.028ZM290.253,311.447c-.641.023-1.233-.123-1.794-.529.538.358,1.144.526,1.794.529ZM335.218,300.884c.01.004.021.008.031.012-.01-.004-.021-.008-.031-.012ZM335.537,301.011c.066.028.132.057.197.087-.065-.03-.131-.059-.197-.087ZM335.923,301.187c.088.043.173.09.258.138-.085-.048-.17-.095-.258-.138ZM336.311,301.4c.108.065.211.136.313.211-.102-.075-.206-.146-.313-.211ZM336.685,301.653c.124.094.242.195.353.306-.112-.111-.23-.212-.353-.306ZM279.816,290.906c2.782-2.629,4.675-6.766,3.188-10.554-.585-1.889-2.516-3.131-4.47-2.814-.348-2.89,3.194-4.253,5.641-3.541,5.97,1.403,7.705,8.818,6.09,14.077-.788,2.781-2.339,5.336-4.29,7.47-7.993,8.73-23.264,7.969-31.985.684l-.314-6.193c7.014,6.173,19.039,7.678,26.14.872ZM147.904,316.885c2.254-.509,4.445-1.262,6.526-2.222-1.99,1.014-4.241,1.744-6.526,2.222ZM170.769,300.507c.116.101.23.203.34.311-.112-.106-.223-.212-.34-.311ZM167.186,298.789c.172.03.342.068.511.11-.169-.045-.34-.077-.511-.11ZM167.774,298.919c1.055.274,2.042.784,2.893,1.501-.852-.694-1.845-1.211-2.893-1.501ZM171.045,304.642c-.104.053-.206.106-.306.161.1-.057.204-.108.306-.161ZM172.453,304.049c-.094.033-.193.06-.286.095.094-.034.19-.064.286-.095ZM172.024,304.201c-.228.089-.45.182-.666.283.217-.103.439-.196.666-.283ZM165.656,312.314c-.012.071-.02.144-.031.215.01-.072.02-.143.031-.215ZM164.715,316.514c-.078.143-.162.284-.251.422.089-.137.172-.278.251-.422ZM158.417,322.582s-.002.009-.003.013c.001-.004.002-.009.003-.013ZM158.326,322.984c.431.021.87.031,1.305.046-.437-.012-.873-.027-1.306-.044,0,0,0-.002,0-.002ZM191.254,323.255c.33-.007.661-.024.991-.046-.329.029-.66.043-.991.046ZM195.767,322.679c.492-.119.863-.158,1.204-.143-.43.038-.858.095-1.285.161.027-.006.054-.011.081-.017ZM201.729,323.331c.422.006.846-.008,1.27-.037-.426.04-.849.054-1.27.037ZM207.822,322.385c.892-.252,1.771-.531,2.627-.817-.864.308-1.74.582-2.627.817ZM210.567,321.526c.436-.147.852-.323,1.274-.49-.421.173-.845.335-1.274.49ZM215.727,319.123c-.103.06-.21.114-.313.173.267-.157.531-.319.791-.485-.16.103-.314.214-.477.312ZM217.014,318.282c.425-.296.838-.609,1.245-.932-.405.323-.819.635-1.245.932ZM219.259,316.503c.188-.166.375-.332.559-.503-.183.171-.371.337-.559.503ZM220.712,315.129c.136-.139.266-.285.399-.428-.133.143-.263.288-.399.428ZM222.521,313.073c.185-.231.371-.459.55-.697-.179.236-.365.466-.55.697ZM223.691,311.526c.255-.364.504-.737.748-1.116-.242.377-.49.75-.748,1.116ZM226.109,315.453c-.137.178-.265.359-.39.54.121-.186.258-.361.39-.54ZM227.338,314.054c-.433.436-.822.873-1.167,1.317.349-.465.73-.909,1.167-1.317ZM223.714,320.228c-.252.779-.541,1.541-.848,2.294.286-.758.562-1.527.848-2.294ZM222.244,323.977c-.019.042-.039.083-.058.125.02-.042.039-.083.058-.125ZM221.51,325.456c-.211.406-.432.805-.658,1.202.232-.406.45-.807.658-1.202ZM215.435,334.058c-.024.026-.047.054-.071.081-.536.582-1.128,1.152-1.757,1.699.628-.559,1.239-1.154,1.828-1.779ZM200.441,338.982c.68-.463,1.205-.958,1.585-1.493-.381.571-.905,1.081-1.585,1.493ZM201.949,331.944c-.335-.52-.759-.997-1.25-1.403.5.406.922.879,1.25,1.403ZM202.241,332.456c-.004-.008-.009-.015-.013-.023.004.008.009.015.013.023ZM200.552,330.42c-.09-.069-.186-.131-.28-.196.095.064.19.127.28.196ZM199.266,329.648c-.07-.034-.142-.064-.213-.095.071.032.143.061.213.095ZM198.663,329.389c-.1-.038-.202-.072-.304-.106.102.034.203.068.304.106ZM198.01,329.171c-.094-.027-.189-.05-.283-.073.095.023.189.046.283.073ZM197.311,329.003c-.059-.012-.119-.021-.179-.031.06.01.12.02.179.031ZM196.58,328.893c-.01-.001-.02-.002-.03-.003.01,0,.02.002.03.003ZM191.199,329.771c-.119.05-.237.105-.354.159.118-.054.235-.108.354-.159ZM190.593,330.044c-.43.208-.853.439-1.265.693.404-.252.828-.483,1.265-.693ZM181.622,341.44c.408-1.053.857-2.107,1.36-3.138-.497,1.026-.943,2.079-1.36,3.138ZM170.113,358.457c-.348.366-.668.76-.972,1.171.302-.409.623-.802.972-1.171ZM168.141,361.186c.251-.453.522-.895.82-1.318-.295.418-.567.86-.82,1.318ZM161.723,373.97c-.107.145-.213.29-.322.434.109-.144.216-.288.322-.434ZM155.952,380.915s.009.008.014.012c-.005-.004-.01-.007-.014-.012ZM167.428,376.528c.039-.018.078-.033.117-.051-.094.043-.187.087-.281.13l.164-.08ZM170,375.411c.178-.074.358-.144.536-.216-.178.072-.358.142-.536.216ZM207.903,361.666c.019-.014.036-.028.054-.041-.018.014-.036.028-.054.041ZM210.875,359.228c.52-.464,1.031-.935,1.529-1.415-.499.48-1.008.953-1.529,1.415ZM223.171,343.129c-.006.012-.013.024-.019.035.017-.034.034-.068.051-.102-.011.022-.021.044-.032.066ZM225.505,338.106c.009-.018.04-.041.059-.061-.026.034-.055.065-.077.102.006-.014.012-.027.018-.041ZM217.882,370.042c-.361.216-.723.421-1.085.619.628-.376,1.234-.791,1.817-1.244-.244.209-.483.422-.731.625ZM210.717,370.915c-.005-.009-.012-.017-.017-.025.005.009.011.016.017.025ZM211.079,371.668c-.012-.034-.028-.062-.041-.095.013.033.029.061.041.095ZM206.894,369.546c-.026.004-.052.008-.078.013.026-.005.052-.008.078-.013ZM201.948,372.118c-.069.067-.136.136-.203.205.066-.069.133-.137.203-.205ZM228.032,377.793c.092-.17.191-.291.282-.357-.093.119-.189.238-.282.357ZM232.006,396.52c-.008.049-.016.097-.026.145.009-.048.018-.097.026-.145ZM230.91,398.854c.026-.025.053-.05.078-.076-.025.026-.052.051-.078.076ZM229.839,398.702s0,.005.001.008c0-.003,0-.005-.001-.008ZM344.137,261.19s0-.002,0,0c0,0,0,0,0,0Z"/>
      <path d="M200.728,339.163c.193.09.387.182.58.257-.194-.077-.387-.164-.58-.257Z"/>
      <path d="M220.317,327.569c.087-.144.171-.289.256-.434-.085.145-.168.289-.256.434Z"/>
      <path d="M165.789,311.633c.01-.038.019-.076.029-.114-.009.038-.02.075-.029.114Z"/>
      <path d="M219.015,329.581c.026-.038.053-.076.079-.114-.026.038-.053.076-.079.114Z"/>
      <path d="M204.65,340.015c-1.109.018-2.226-.165-3.341-.595,1.113.443,2.232.623,3.341.595Z"/>
      <path d="M164.887,316.162c.019-.04.038-.08.057-.12-.018.041-.038.08-.057.12Z"/>
      <path d="M121.29,320.007c-.322.035-.645.066-.968.099.323-.033.645-.063.968-.099Z"/>
      <path d="M204.906,340.009c.201-.011.402-.023.603-.047-.201.022-.401.039-.603.047Z"/>
      <path d="M207.013,362.32c-.073.051-.144.103-.217.154.072-.051.145-.102.217-.154Z"/>
      <path d="M213.72,356.499c-.15.156-.303.309-.454.464.153-.154.304-.309.454-.464Z"/>
      <path d="M213.803,356.413c-.028.029-.055.058-.083.086.028-.029.056-.058.083-.086Z"/>
      <path d="M159.384,376.84c.286-.321.57-.643.845-.973-.28.326-.556.655-.845.973Z"/>
      <path d="M206.796,362.474c-.146.103-.293.203-.439.304.147-.1.293-.202.439-.304Z"/>
      <path d="M159.226,377.017c.053-.058.105-.118.158-.177-.052.059-.105.118-.158.177Z"/>
      <path d="M219.916,115.968c-.045.094-.098.184-.148.276.049-.093.105-.18.148-.276Z"/>
      <path d="M204.66,106.944c.052.01.103.021.155.032-.052-.01-.103-.022-.155-.032Z"/>
      <path d="M219.559,116.601c.077-.115.142-.236.209-.357-.064.122-.134.241-.209.357Z"/>
      <path d="M205.105,107.041c-.097-.023-.193-.045-.29-.066.097.019.193.044.29.066Z"/>
      <path d="M174.361,88.211c-.55-.543-1.109-1.098-1.675-1.654.556.557,1.111,1.114,1.675,1.654Z"/>
      <path d="M408.85,157.898c.214.204.423.418.627.641-.203-.222-.411-.436-.627-.641Z"/>
      <path d="M407.804,157.014c-.135-.103-.268-.208-.406-.305.139.096.271.202.406.305Z"/>
      <path d="M408.838,157.887s.009.008.013.012c-.004-.004-.009-.008-.013-.012Z"/>
      <path d="M315.182,249.217c.012-.018.025-.036.037-.054-.012.018-.025.036-.037.054Z"/>
      <path d="M207.218,388.406s-.005-.01-.008-.015c.003.005.005.01.008.015Z"/>
      <path d="M292.157,336.168s0,0,0,0c.001-.002.002-.004.004-.006-.001.002-.002.004-.004.006.054-.086.109-.185.164-.289.085-.155.162-.317.233-.487.005-.012.011-.024.016-.036.027-.066.054-.131.079-.199.364-.938.574-2.088.095-2.752-.005-.009-.008-.022-.013-.031-.008-.014-.029-.027-.041-.04-.198-.234-.49-.4-.916-.453-.452-.084-.994-.126-1.067.455-.394,1.186-.677,2.464-1.611,3.354-2.219,2.224-5.633,2.476-8.603,2.175-11.797-1.884-19.685-12.25-26.919-20.851-.576.46-.935,1.171-.895,1.884-.064.447.394,1.231.567,1.561.486.901,1.011,1.78,1.574,2.634,3.387,5.115,7.906,9.435,12.979,12.866,5.049,3.307,11.232,6.011,17.398,4.837,1.964-.384,3.827-1.225,5.449-2.398,5.515,3.087,10.166,7.749,12.919,13.465.186.391.462.955.819,1.202.417.342.917.66,1.583.58,0,0,0-.198,0-.198-.303-6.342-5.027-11.718-10.313-15.243-1.185-.822-2.372-1.512-3.496-2.035,0,0,0,0-.001,0,0,0,0,0,0,0Z"/>
      <path d="M155.079,290.669c-2.585,2.637-4.466,6.029-5.028,9.696,0,0-.082.454-.082.454-.126.668.353,1.385.875,1.78,1.65.716,2.186-3.008,2.725-4.001.433-1.126.912-2.24,1.545-3.27,1.242-2.074,3.016-3.824,5.12-5.033-.467.259-.913.555-1.348.866.419-.302.866-.592,1.348-.866,0,0,0,0,.001,0,0,0,0,0-.001,0,.005-.003.01-.005.015-.007.278-.157.546-.285.814-.413,1.92-.883,4.064-1.251,6.161-.881.91.102,1.785.457,2.718.396,1.242-.167,1.02-1.677.346-2.369-5.074-2.77-11.404-.172-15.21,3.648ZM162.504,289.291c-.076.025-.152.052-.228.078.076-.026.153-.054.228-.078ZM157.7,292.122c.1-.09.211-.176.315-.265-.105.088-.213.174-.315.265ZM161.476,289.679c-.067.029-.135.057-.202.088.068-.031.135-.059.202-.088Z"/>
      <path d="M241.483,296.476c-1.416.063-1.862,1.88-2.821,2.832-.092.088-.187.167-.286.238-.057.039-.112.08-.171.113.018-.01.037-.017.055-.027-.019.012-.04.02-.06.031.002,0,.003-.002.005-.003-.031.017-.063.032-.095.048,0,0,.002,0,.003,0-.022.011-.044.023-.066.033.022-.009.042-.021.063-.032-.097.047-.2.083-.306.111.059-.015.12-.025.176-.046-.074.03-.153.048-.232.066.02-.004.037-.015.056-.02-.035.009-.068.02-.104.027.009-.002.02,0,.029-.002-.15.032-.305.05-.472.033-.179-.018-.342-.064-.499-.121.156.055.318.103.499.121-.209-.025-.397-.078-.571-.15-.01-.004-.02-.008-.03-.012-1.241-.532-1.704-2.12-2.762-2.937-.279-.191-.609-.27-.982-.208-.353.153-.543.431-.724.705-.158.289-.342.571-.286,1.009.286,1.258.943,2.433,1.885,3.348,3.181,3.192,7.797.871,8.833-3.071.319-.76-.394-1.819-1.136-2.085ZM236.285,299.519c.099.064.201.123.31.172-.108-.05-.211-.107-.31-.172ZM235.898,299.215c.033.03.067.059.1.087-.034-.029-.068-.057-.1-.087Z"/>
      <path d="M237.256,299.876c.159.01.305-.005.443-.031-.14.027-.286.042-.443.031Z"/>
      <path d="M314.027,286.143c-3.391-3.551-9.279-5.8-14.066-4.007-.506.29-1.104.578-1.343,1.353-.11.769.318,1.508,1.05,1.676.681.141,1.248-.044,1.785-.15,2.114-.432,4.375-.153,6.415.626,3.841,1.471,6.809,4.967,7.552,9.02.056.323.11.647.139.979.023.262.027.555.039.847-.019-.295-.026-.59-.039-.847.019.495.012,1.114.128,1.633.046.227.114.436.23.599.229.337.611.514,1.264.366.031-.035.051-.075.08-.111.245-.193.437-.536.576-.965,1.384-3.329-1.567-8.821-3.812-11.019Z"/>
      <path d="M231.947,410.88s0,0,0,0c0,0,0,0,0,0,.484,3.061,2.913,6.022,6.11,6.383,2.827-.915,4.908-3.506,5.561-6.359-.456-.715-.738-1.536-1.727-1.762-.591-.035-.93.362-1.16.633-1.001,1.178-1.417,3.328-3.033,3.71-2.521.089-2.943-6.807-5.751-2.606,0,0,0,0,0,0h0Z"/>
    </g>
  </g>
</svg>