<?xml version="1.0" encoding="UTF-8"?>
<svg id="b" xmlns="http://www.w3.org/2000/svg" version="1.1" viewBox="0 0 541.4 159.8">
  <!-- Generator: Adobe Illustrator 30.4.0, SVG Export Plug-In . SVG Version: 2.1.4 Build 226)  -->
  <g id="c">
    <g>
      <path d="M286.8,2.6c0,1.9-.4,3.6-1,5.3-.6,1.7-1.6,3.2-2.8,4.5-2.7,3-6.6,4.9-10.9,4.9s-8-1.8-10.7-4.7c-1.3-1.4-2.3-3-3-4.7-.6-1.6-1-3.4-1-5.3s0-.6,0-1h0c0-.6.1-1.1.2-1.6h3.5c1,4.9,5.4,8.6,10.7,8.6s9.6-3.7,10.7-8.6h4c.1.5.2,1.1.2,1.6h0c0,.3,0,.6,0,1Z"/>
      <path d="M4.7,69.4c1.1,0,2.2,0,3.2.3V7.9h246.4c-.5-1.7-.8-3.4-.8-5.3s0-1.8.2-2.6H0v70c1.5-.4,3.1-.6,4.7-.6Z"/>
      <path d="M254.4,151.8H7.9s0-45.3,0-45.3c-1.1.2-2.1.3-3.2.3-1.6,0-3.2-.2-4.6-.6v53.7s254.6,0,254.6,0c-.4-1.4-.6-3-.6-4.5s.1-2.4.3-3.5h0Z"/>
      <path d="M4.7,102.7c1.1,0,2.2-.1,3.2-.4v-28.5c-1.1-.2-2.1-.4-3.2-.4-1.6,0-3.2.3-4.7.8v27.8c1.5.5,3,.8,4.7.8Z"/>
      <path d="M533.6,74.5v27.2c1.7.7,3.5,1.1,5.4,1.1s1.6,0,2.4-.2v-28.9c-.8-.1-1.6-.2-2.4-.2-1.9,0-3.8.4-5.4,1Z"/>
      <path d="M533.6,105.9v45.8s-243.6,0-243.6,0c.2,1.1.3,2.3.3,3.5s-.2,3.1-.6,4.5h251.6s0-53.2,0-53.2c-.8.1-1.6.2-2.4.2-1.9,0-3.7-.3-5.4-.8h0Z"/>
      <path d="M290.6,0c.1.9.2,1.7.2,2.6,0,1.8-.3,3.6-.8,5.3h242.9c.6,0,.8.5.6,1.1v61.3c1.7-.5,3.5-.8,5.4-.8s1.6,0,2.4.2V0S290.7,0,290.7,0h0Z"/>
      <path d="M286.4,151.8c.1-.2.2-.4.3-.6-.3-1.2-.8-2.4-1.5-3.5-2.6-4.5-7.5-7.6-13.1-7.6s-10.5,3-13.1,7.6c-.6,1.1-1.1,2.3-1.5,3.5h0c.1.2.2.4.3.6h-.5c-.3,1.1-.4,2.3-.4,3.5s.2,3.1.7,4.5h2.9c0-1.4.3-2.8.8-4,.6-1.5,1.5-2.9,2.7-4,2-1.9,4.7-3.1,7.7-3.1s5.7,1.2,7.7,3.1c1.3,1.2,2.3,2.8,2.9,4.6.4,1.1.5,2.2.5,3.4h3.7c.5-1.4.7-2.9.7-4.5s-.1-2.4-.4-3.5h-.5,0Z"/>
      <path d="M276.5,151.8c-1.4-.8-3-1.3-4.7-1.3s-3.3.5-4.7,1.3c-2,1.1-3.5,3-4.2,5.2-.3.9-.4,1.8-.4,2.8h9.3c.1,0,.3,0,.4,0s.3,0,.4,0h8.5c0-.8-.1-1.6-.3-2.4-.6-2.4-2.2-4.4-4.3-5.6h0Z"/>
      <path d="M254.8,18.1c-5.2,0-9.4,3.2-10.6,8.2-1.3,5.5,1,11.8,6.2,13.2,2.4.7,4.9-.1,6.3-2.3,1.2,1.3,1.3,2.8.6,4.2-1.7,3.2-5.1,1.7-6.3,5.1-.5,1.5-.2,2.9.7,4.2-4.1,1.6-7.2,4.2-10.1,7.5-2.6,3.1-4.4,6.7-6.2,10.4-.9,1.8-2.2,3.4-4.3,4,1.6-6.9,4.9-12.9,9.4-18.1,2-2.3,4.5-4.2,6.9-5.9l.4-3.5c-13.3,3.5-21.5,13.5-23.4,26.8-6.9-.6-12,3-18.9-.2-4.4-2.1-7.3-6.4-7.1-11.3.2-4.1,2.8-7.7,6.7-8.8,2-.5,4.1-.3,5.6,1,1.1,1,1.8,2.3,1.1,3.8-1.2-1.3-2.9-1.8-4.6-1.3-1.3.4-2.6,1.7-2.9,3.3-.7,3.1,1.1,5.9,3.9,7.1,2.5,1,5.3.7,7.7-.7,3.3-2,5.3-5.5,5.3-9.4,0-4.8-2.5-8.9-6.6-11.3-5.4-3.1-12.1-2.9-17.4.5-5.9,3.7-9.2,10.3-8.8,17.4.6,8.8,6.2,16.6,14.4,19.8,10.6-3.3,18.7-2.9,28.9.9,3.8.5,7.7-2.2,10.3-4.8,3-3,4.4-6.6,6.1-10.4l2-4.8c1.6-2.9,4.1-3.9,7-5,3-1.1,5-4.2,6.4-7,3.5-7,3.4-16.6-3-19.8-2.4-1.2-4.9-.7-6.7,1.2-.7-.4-1.3-1.2-1.3-1.9,0-2.5,2.9-4.2,5.9-4.2,4.1,0,7.7,2.3,9.7,5.9,3.3,5.7,2.5,13.4.2,19.6-1,2.8-2.7,5.2-4.5,7.6,3.1-.7,5.6-1.9,8.4-2,3.1,0,5.9,1.3,8.9,2.1-6.8-7.6-9.8-21.3-3.3-29.1,4-4.8,11.2-5.3,13.6-1.7.9,1.3.8,3-.6,3.9-1.6-2-4.2-2.4-6.5-1.4-7.4,3.3-7.1,16.3-.6,23.9,1.1,1.3,2.6,2.7,4.2,3.2,2.9.9,5.1,2.3,6.6,5l2.1,5.1c2.5,7.5,7.8,14.2,16,14.9,9-4.1,19-4.3,28.5-1,8.2-3.4,13.9-11.2,14.4-20.2.4-7.5-3.4-14.5-10-17.9-6-3.1-13.3-2.3-18.4,2.1-4.7,4-5.8,10.9-2.3,16,2,2.9,5.4,4.5,8.8,4.1,3.9-.5,6.6-3.6,6-7.3-.3-1.8-1.5-3.2-2.9-3.6-1.7-.6-3.3,0-4.6,1.3-.5-1.6,0-3,1.3-4,1.7-1.3,4-1.5,6-.7,3.5,1.3,5.8,4.5,6,8.4.4,5.7-3.5,10.7-9.1,12.3-6.2,1.8-10.6-1.1-16.7-.5-2-13.5-10-23.4-23.1-26.9l.3,3.6c8.2,4.9,14.1,14.2,16.3,24-2.1-.6-3.3-2.4-4.2-4.3-3.7-7.8-7.7-14.1-16-17.7.8-1.4,1.1-2.7.7-4.2-.3-1-1.2-2.3-2.5-2.5-2.1-.4-3.7-1.6-4.1-3.7-.2-1.1.2-2.3,1.2-3.2.5,1.4,1.5,2.2,3,2.5,2.3.5,4.6-.3,6.3-2,2.9-2.8,3.8-7,2.9-11-1.1-5.1-5.3-8.5-10.6-8.4-.5-1.1-1-2-1.8-2.8h0c.5-1.3.8-2.7.9-4.1-.6,1.1-1.2,2.1-2,3.1-3.4,4.3-8.7,7-14.6,7s-11.2-2.8-14.6-7.1c-.8-.9-1.4-2-2-3.1.1,1.5.5,2.9.9,4.2h0c-.7.9-1.3,1.9-1.7,2.8h0Z"/>
      <path d="M223.4,143.3c4.9-2.4,9.2-5.5,13.4-9.3-2.9-1.4-5.4-3.1-7.7-5.5-7.5,6.5-16.7,9.9-26.4,9.6-15.5-.9-26.3-11.3-28.8-26.4-6.6,4.5-13.7,6-21.1,5.3-14.2-1.4-24.2-11.1-27.9-24.7-13.4,3.8-25.7-3.8-34.6-13.7-7.5-8.3-14.2-19.4-15.9-30.4,9.4,6.5,17.1,7.1,27.5,4.2l8.6-2.4c12-2.3,21.7.8,30.6,9.5,1.6-5.4,4-10.2,7.6-14.3,10.1-11,26.1-12.9,37.4-2.7,2.7-8.6,8.6-15.4,16.7-18.8,9.1-3.7,19.3-1.9,26.3,5,4.6,4.5,7.5,10.3,9,16.5l5.3-2.7c-2.1-5.3-3.3-10.6-2.9-16.1-4.2-5.7-9.7-10-16.5-12.1-15.6-4.7-33.5,1.1-41.3,15.8-1.9-1-3.7-1.9-5.7-2.5-15.9-4.3-32.6,3.6-39.4,18.5-10.2-7.6-23-7.4-34.6-3.4-4.1,1.4-8.1,2.4-12.4,2.4-11.5-.2-22.3-8-26.2-19.1-5.4,23.2,4.3,45.9,20.8,61.9,9.3,8.6,21.3,15.8,34.5,14.5,2.3,8.1,7.6,14.7,14.9,19,10.3,6,22.9,6.6,34,1.7,4.3,13.9,16.8,23.3,31.3,24.7,8.2.7,16-.7,23.4-4.4h0Z"/>
      <path d="M306.1,45.1c1.2-5.4,3.6-10.3,7.1-14.5,7.8-9.3,21.4-11.6,31.8-5.1,6.2,3.9,10.4,9.9,12.8,16.9,10-8.9,24.9-8.7,34.8.3,4.9,4.5,8,10.4,10,16.9,11.2-10.9,22.2-12.4,36.6-7.7,10.9,3.5,19.6,3.5,29.5-3.5-2,13-10.5,26.8-20.2,35.7-7.6,7-19.6,11.7-29.6,8.4-3.6,13.4-12.8,22.8-26.5,24.6-8,1-15.8-.5-22.5-5.1l-1.5,6c-3.6,11-13,18.7-24.5,20.2-10.5,1.2-21-2.1-29-9.3-2.2,2.3-4.5,4.2-7.6,5.5,10.5,10.8,25.5,15.8,40.4,13.1,12.9-2.6,23.4-11.6,27.4-24.1,19.1,8.4,42.9.1,48.7-20.7,12.2,1.1,23.5-4.6,32.5-12.6,17.2-16.3,27.2-39.4,22.3-63.5-2,5.3-5,9.4-9.3,12.8-6.8,5.4-15.2,7.3-23.7,5.2l-7-2.1c-11.2-3.5-23.1-3.1-32.6,4-4.4-11.7-15.4-19.3-27.8-19.7-5.9-.2-11.7.7-16.9,3.8-7.3-14.4-23.5-20-38.7-16.5-7.8,1.8-14.3,6.4-18.8,12.8.4,5.6-.6,11-2.9,16l5.3,2.6h0Z"/>
      <path d="M50.2,142.3l2.4,2.7c.9-1.9,2.7-2.8,4.7-2.3,4.3,1.1,8.5,2,13,2,10.8,0,20.9-3,30.3-8.2,6.1-3.4,11.6-7.5,16.4-12.8,10,14.9,29.1,20.5,45.7,13.9,1.8,3.8,4.5,7.5,8.4,9.3,4.4.4,8.8,0,13.5,0-8.3-4.1-14.8-10.6-18-19.3-14.1,5.8-29.9,4.5-40.6-6.7-3.7-3.9-6.7-8-8.8-13-2.1,3-3.9,5.7-6.4,8.2-11.7,12.3-31.2,17.1-44.8,6.2-7.5-6-9.5-17-2.9-22.6,2-1.7,4.6-2.4,7-1.4,1.5.6,2.6,1.8,2.7,3.3-2.5-1-5.1.1-6,2.6-.9,2.3.2,4.9,2.4,6.3,2.3,1.4,4.9,1.5,7.5.4,2-.8,3.8-2.7,4.6-5.2,2.1-6.7-1.9-13.7-8.7-15.6-6.2-1.7-12.7.2-16.9,5-8.3,9.3-6.2,22.8,2.2,31.9,4.7,5.1,10.9,8.2,17.7,9.7-10.1,3.1-21-4-25.5-12.8-.3-.7-1.3-1.2-2-1.4-.6,2.2-2.2,2.8-4.1,2.3-1.8-.5-3.3-2.7-2.1-4.3,1.4,0,3.1,0,3.9-1.6,1.8-3.4-1.3-4.8-1.2-8,0-1.8-.7-4.2-2.7-4.6-2.6-.5-5,1.2-6.6,3-1.7.4-2.8,1.5-3.8,2.9-2.8,3.8-3.3,8.9-.6,12.8,1.6,2.5,4.7,3.3,7.3,1.6,3,0,5.9,1.5,7.5,4.5-5-.9-9.9-.3-14.7,1.8-.3-1.5-1.4-2.6-2.9-3-3.6-1-7.4.8-8.9,4.2-.5,1.2,0,2.7.7,3.5-3.1,2.2-3.6,5.5-6.9,8.2,5.9.8,11.7.8,17-1.5l1.6,1.3c3.1,1.9,7.2,1,9.5-1.9,1.8-2.2-1.2-3.6-.2-5.9,1.2-2.8,6.4-2.6,9,.2-.3,1.4-.7,3.2.4,4.5h0Z"/>
      <path d="M472.1,89.6c-7.9,1.2-12.7,9.1-10.1,16.6.9,2.5,2.9,4.3,5.1,5,2.6.8,5.3.3,7.3-1.3,1.5-1.2,2.2-2.9,1.9-4.9-.2-1.3-1.1-2.6-2-3.1-1.3-.8-2.6-.8-4.2-.3,0-1.7,1.2-3,2.9-3.5,2.5-.8,5.1.2,7.1,2,6,5.6,3.9,16.2-3.2,22.1-12.8,10.4-31,6.8-42.5-4.3-3.2-3-5.6-6.3-8.2-10.1-2.1,4.8-4.8,8.9-8.3,12.7-10.7,11.6-26.4,12.9-40.8,7.1-3.2,8.8-9.6,15.1-17.7,19.3h13.3c3.9-1.7,6.5-5.6,8.4-9.3,16.7,6.5,35.1,1.2,45.3-13.9,9.7,10.6,22.8,17.8,37,20.3,7.5,1.3,14.7.8,21.9-1.3,2-.6,4,.4,4.9,2.4,2.4-2.4,3.6-4.2,2.6-7.3,2.9-3.1,8.3-2.7,9.3,0,.8,2.3-2.1,3.2-.3,5.7,2.4,3.4,8.2,3.9,11,.4,5.2,2.4,11.2,2.3,16.8,1.6-2.9-2.4-3.6-5.6-6.6-8.3.7-1.1,1.2-2.5.6-3.8-1.6-3.2-5.3-4.8-8.6-3.8-1.5.4-2.5,1.4-2.9,2.9-4.8-2-9.8-2.9-14.9-1.7,1.5-2.9,4.5-4.6,7.6-4.6,2.8,1.7,6.1.9,7.8-1.9,2.6-4.3,1.9-9.8-1.5-13.5-.9-1-2-1.5-3-2.2-1.8-1.2-3.6-2.9-6-2.7-2,.2-3.2,2.2-3.1,4.2,0,1.3-.2,2.4-.8,3.5-1.3,2.3-1.4,4.7.4,6,.8.6,2,.6,2.9.6.6,1.1.2,2.4-.5,3.2-.7.7-1.8,1.3-2.8,1.3-1.7,0-2.7-.8-3.1-2.5-.9.5-1.8,1-2.2,1.8-4.8,8.5-15.4,15.5-25.3,12.4,6.3-1.4,11.9-4.2,16.5-8.5,8.4-7.8,11.4-20.5,5.5-30.2-3.6-6-10.2-9.2-17.1-8.2h0Z"/>
      <path d="M226.5,100.5c2,3.5,3.9,6.8,6.4,10,3.4,4.2,7.6,7.6,12.6,9.4,1.2-1.2,2.5-2,4-2.8-3.8-2.3-5.7-5.8-6.2-10.1-1-5.8-3.2-11.3-7.7-15.3-11.5-10.4-30.7-10-41.9,0-6.2,5.6-9.1,14-7,22.1,2,7.6,9,12.5,16.7,11.6,6.9-.8,11.5-6.5,11.1-13.3-.2-3.1-1.3-6-3.8-7.9-3.2-2.4-7.8-2.2-10.3,1.1-1.3,1.8-1.4,4.2-.1,5.9,1.5,2,4.2,2.3,6.1.4.9,1.6.4,3.4-.9,4.6-1.7,1.5-4.2,1.8-6.3.8-3.5-1.5-5.5-5-5.5-8.9,0-7.1,5.3-13.4,12.3-14.6,4.8-.8,7.8,2.3,9.6,6.5l3.9,8.9c2.1,4.9,5.1,8.9,8.5,12.9l4,4.7c2.4,2.5,5.5,4.1,8.9,5.4-.4-3.4.2-6.3,2.2-9-3.6-1.9-6.9-4.2-9.9-7.1-3.9-4-7.1-8.4-9.4-13.6l-3-7c2.9.9,4.5,3,5.8,5.3h0Z"/>
      <path d="M312.5,126.2c.6-1.1,1.4-2.1,2.4-3.1,3.7-3.6,6.8-7.4,8.8-12.1l4.9-11.1c1.8-4.1,4.2-7.1,8.7-6.5,8.1,1,14,8.8,12.7,16.8-.6,3.4-2.8,6-5.9,7.1-2.3.8-4.8.2-6.3-1.7-.9-1.2-1.1-2.6-.4-3.9,1.1.9,2.2,1.3,3.5,1.1.9-.1,2-.9,2.6-1.8,1.7-2.6.5-6-2.2-7.4-2.8-1.6-6.1-1.1-8.7.9-2.7,2.2-3.8,5.6-3.6,9.1.3,6.2,4.6,10.9,10.7,11.8,7.7,1.2,14.9-3.6,17-11.2,3-10.5-2.8-21.4-12.5-26.5-9.6-5-20.9-4.9-30.5.2-8.2,4.3-12.1,11.6-13.3,20.7-.6,3.6-2.5,6.7-5.9,8.5,1.6.9,2.8,1.7,4.1,2.9,5.1-1.9,9.3-5.4,12.6-9.7l6.5-10.2c1.3-2.1,2.9-4,5.4-4.9-1.5,4.1-3.1,7.7-5.1,11.4-4,6.9-9.6,12.5-17,16.3,1.7,2.7,2.4,5.5,1.9,9,3.6-1.2,6.9-2.9,9.4-5.6h0Z"/>
      <path d="M351.1,82.7l-4.2,1.9c6.1,3.5,10.3,8.5,13.1,14.9,4.1,5.2,14,4.8,20.5,2.2-2.4-.8-4.3-2.3-5.6-4.5-.9-1.5-2-2.7-3.5-3.9,1.4-1.4,3.6-2.1,5.7-1.7,5,.9,4,7.1,10.1,8.3,2.7.5,5.1-.7,6.3-3.1,5.5,1.2,10.6-1.7,14.7-5.4-2.6-.5-4.7-1.3-6.6-3.1-2.2-2-4.7-3.3-7.8-3.6,3.3-2.9,8-3.1,11.8-.7,2.6,1.7,5.3,2.5,8.4,1.6,3-.9,5.5-2.7,7.5-5-1.7-.6-3.2-1.6-4.1-3.3,3.8,1,7.5.8,10.5-1.7,4-3.3,6.7-8,7.7-13.2-2.6,1.5-5.3,1.7-8.2,1.1-8.8-1.9-16.9-2-22.7,5.7-1,1.3-2.7,2.3-4.2,1.7l-.9-1.4c-2-.6-4.1.2-5,2.1-1,1.4-2,2.8-3.4,3.8-10.1,8.2-24.4,10.2-37.1,7.6-.9-.2-2.3-.5-3.1-.1Z"/>
      <path d="M168.8,97.1c-1.2,2.2-3,3.6-5.5,4.5,6.2,2.5,15.5,3.1,20.2-1.9,2.7-6.4,7.2-11.5,13.5-15.2l-4.3-1.8c-.7-.3-2.2,0-3.1.1-12.6,2.5-26.6.7-36.9-7.1-1.6-1.2-2.9-2.7-3.9-4.5-1-1.9-3.3-2.7-5.1-1.6l-.8,1.3c-1.4.3-2.9-.3-3.8-1.5-5.7-7.8-13.6-8-22.6-6-3,.6-5.8.4-8.7-1.1,1,4.6,3.2,8.6,6.4,11.9,3.2,3.4,7.4,4.3,12,3-.8,1.8-2.2,2.6-4,3.4,1.8,2.3,4.5,4.1,7.4,5,3,1,5.8,0,8.4-1.6,3.7-2.4,8.5-2.2,11.8.7-2.9.3-5.4,1.5-7.4,3.4-2,1.8-4.2,2.8-7,3.2,4.6,4,9,6.3,14.8,5.6,1,1.6,2.5,3,4.7,3,3.2,0,5.8-1.8,7.3-4.6,1-1.9,2.5-3.3,4.3-3.7,2.2-.5,4.2.2,6,1.7-1.5.9-2.7,2.2-3.6,3.8h0Z"/>
      <path d="M262.5,140c-2.2.3-4.4,0-6.3-1.1-.7-.4-1.4-.9-2.1-1.5-2.2-2.2-2.9-5.6-1.1-8.1,1-1.4,3-2.4,4.5-1.3-.5,1-1.1,2.3-.7,3.6.3.8.9,1.6,1.8,2.1h0s0,0,0,0c.2.1.4.2.7.3,2.5.8,5-.6,6-3.1.4-1,.5-2,.5-3h0c0-2.3-1.1-4.5-2.9-6.1-2.6-2.3-6-3-9.4-2.4-6.7,1.3-10.8,7.7-9.1,14.3-2,1.3-3.2,3.2-3.1,5.4,0,2.1,1.4,3.9,3.4,5,2,1,4.1.6,6.2.2,1.3,1.2,2.9,2.9,4.8,3.5h.6c0-.2-.1-.4-.2-.6,1.5-2.9,3.7-5.3,6.4-7.1h0Z"/>
      <path d="M272.1,133.2c-1.1,1.8-2.4,3.2-3.9,4.4,1.3-.3,2.6-.5,4-.5s2.5.1,3.6.4c-1.5-1.1-2.7-2.6-3.8-4.3Z"/>
      <path d="M300.3,143.3c1.6-1.3,2.5-3,2.4-5-.1-1.9-1.1-3.5-2.9-4.6,1.6-6.1-1.6-12.2-7.6-14-3.3-1-6.8-.7-9.7,1.2-2.4,1.6-3.9,4.2-4,6.9h0c0,.9,0,1.7.3,2.6.5,1.6,1.6,2.8,2.7,3.3,1.5.6,3,.6,4.2-.1,0,0,0,0,0,0h0c0,0,.2-.1.3-.2,1.8-1.3,2.1-3.7.6-5.4,1.7-1,3.2-.2,4.2,1,1.6,2.1,1.5,4.9,0,7.2-.7,1.1-1.6,1.9-2.7,2.6-1.4.8-3,1.2-4.7,1.3-.5,0-1.1,0-1.6,0,2.7,1.7,4.9,4.2,6.4,7.1,0,.2-.1.4-.2.6h.1c0,0,.2,0,.3-.1,1.8-.9,3.3-2.1,4.8-3.4,2.4.8,4.9.8,6.9-.8h0Z"/>
      <path d="M28.5,41.7c-1-4-5.1-5.2-8.9-5.3l-6.1-.3c.7,1.4,1,2.3,1.2,3.6l.5,3.4c-.6,1.8-1,3.5.1,5.3,1.7,2.6,4.7,2.5,7.7,1.4,1.8,1.3,3.5,2.8,5.4,3.8,6.6,3.5,14.5,2.5,20-2.7.9-.9,1.7-1.1,3.1-.6,2.1.7,4.2,0,5.4-1.5,1.3-1.6,1.4-3.6.5-5.5l.3-2.2c.3-2,.5-3.3,1.5-5l-5,.5c-3.2-.7-6.2-.2-8.7,1.9-1.5,1.3-2,2.9-2.5,4.8-.8,2.8-4.5,5.1-7.2,4-3-3.8-.3-12.3,4.2-14.5,3.2.8,6.2,0,8.1-2.8.8-1.2,1.5-2.5.5-4-.7-1.1-2-1.8-3.3-2.3-.4-2.2-2.2-3.9-4.5-3.3-2.4.6-4,2.4-5.2,4.9-1.3-3.3-2.8-6.2-5.6-8.2-1.8-1.5-3.9-2.1-6.3-1.7-2.3-.9-4.6-1.6-7-1.8,1,2.1,1.1,3.7,1.3,5.7l.2,2.5c-2,2.1-2.1,5-.3,7.2,1.6,2,4.1,2.7,6.4,1.8,1.3-.5,1.9-1.8,2.2-2.9,1.5-.7,3.4.3,4.4,1.5,2,2.5,2.2,5.7,1,8.7-1,2.3-1.5,4.7-1.3,7.3-1.8-.7-2-2.3-2.4-3.8Z"/>
      <path d="M499.6,43.4c-.5-1.9-1.1-3.4-2.6-4.7-2.6-2.3-6.2-2.8-9.6-1.8l-3.7-.8c.6,1.7.8,2.8,1,4.3l.4,2.9c-.8,1.8-.8,3.8.5,5.4,1.1,1.3,2.9,2,4.7,1.7l2.7-.5c5.7,6.2,14.4,7.5,21.5,3.4l4.9-3.5,3.1.7c1.8.4,3.7-.8,4.5-2.1,1.1-1.6.9-3.4.2-5.2l.5-3.5c.2-1.3.5-2.2,1.1-3.6l-5.5.3c-3.8,0-8.1,1.2-9.2,5.3-.4,1.6-.7,3.3-2.6,4,.5-2.4,0-4.8-1-7-1.3-3.1-1.3-6.5.9-9.1,1-1.2,2.8-2.2,4.3-1.5.2,1.5,1.1,2.7,2.7,3.1,1.9.5,3.8,0,5.2-1.3,2.4-2.1,2.7-5.4.4-8.1l.2-3.6c.1-1.5.6-2.8,1.2-4.5-2.3.2-4.2.9-6.3,1.8h-3.3c-4.3.9-7.5,5.8-8.9,10-1.8-3.5-4.5-6.1-7.6-4.7-1,.5-1.7,1.8-2.2,3-1.6.8-4,2.1-3.5,4.4.8,3.9,5.1,5.9,8.7,4.6,2.8,1.6,4.2,4.1,5,7,.7,2.5,1,5.6-.8,7.7-2.8.8-6.3-1.3-7.1-4.1h0Z"/>
      <path d="M181.1,71.7c-1.2-3.6-3.8-6.1-7.2-7.7-4.3-1.9-9-2-13.5-.8-2.9.8-5.6.6-8.3-1.1.4,4.4,3.5,8.8,6.9,11.6,7.2,6,19.5,8.9,29,6.2-3.4-1.8-5.6-4.7-6.8-8.2h0Z"/>
      <path d="M386.9,71.2c2.4-2.6,4.1-5.6,4.5-9.1-2.6,1.7-5.2,1.9-8,1.1-4.3-1.2-8.8-1.2-13,.3-3.9,1.4-6.7,4.2-8,8.1-1,3.6-3.3,6.3-6.5,8.3,4.9,1.5,9.4,1.1,14,.3,6.6-1.2,12.6-4.1,17.1-9Z"/>
      <path d="M528.1,112.7c-1.5.5-2.7.7-4.1.5l-2.9-.3,2-2.6c2.4-2.7,3.5-5.4,3.7-8-3.5-3-5.9-7.4-6.4-12.3l-4.3,5c-3.3.9-5.9,3.6-5.9,7.1,0,.9.5,2.1,1.1,2.6.5.4,1.7.5,2.5.5.7,1.2.2,3-.8,4.2,4.5,4.1,5.2,10.6,2.2,15.7,7,.2,11.4-5.6,12.8-12.3h0Z"/>
      <path d="M31.6,104.8c.3,0,.8.2,1.3.4l-.2-3.4c-.9-.4-1-.9-.9-1.6l.2-2.1c-1.4-1.7-3-2.8-5.1-3.3-1.3-1.5-2.6-2.9-3.8-4.5-.6,4.9-3.1,9.3-6.8,12.3.3,2.7,1.3,5.2,3.1,7.4l2.4,2.9-3.1.3c-1.3.1-2.5,0-4.1-.5,1.5,6.4,5.7,12.8,12.7,12.2-3-5.6-2.1-11.6,2.6-15.6-1.2-1.3-1.5-2.8-.8-4.2,0,0,2.4-.2,2.4-.2Z"/>
      <path d="M274.9,73.3l1.1-8.3c.2-1.9-2.2-3.1-3.8-3-1.5,0-3.8,1.2-3.6,3l1.2,8.4h5.1Z"/>
      <path d="M274.9,101.2c-1.9.2-3.5.2-5.5,0l-1,6.8c0,.6,0,1.8.3,2.3,1,1.5,2.6,2.2,4.2,1.8,1.2-.3,3.3-1.4,3.1-3.2l-1.1-7.6h0Z"/>
      <path d="M264.6,65.9c-1.6-1.2-3.5-1.3-5.1,0-1,1-2.3,3-1.1,4.4l4.9,6.1,4.5-2.6s-3.3-7.9-3.3-7.9Z"/>
      <path d="M251.8,79.2l7.4,3.2,2.5-4.3-6.1-5.2c-1.9-.6-3.7,0-4.7,1.6-.8,1.3-.9,4.1.8,4.8Z"/>
      <path d="M250.5,90.5l7.9-.8c-.2-1.9-.1-3.5.2-5.3l-7.8-1.2c-1.9-.3-3.3,2-3.3,3.5,0,1.6,1.1,4,3,3.8h0Z"/>
      <path d="M284.8,65.5c-1.3-.8-4-.9-4.8.8l-3.2,7.6c1.6.6,2.9,1.3,4.4,2.4l5.1-6.2c.6-1.8,0-3.7-1.6-4.7Z"/>
      <path d="M285.5,82.3l7.6-3.2c1.6-.7,1.3-3.5.6-4.7-1-1.5-2.6-2.2-4.5-1.7l-6.4,5.4c1.3,1.6,1.9,2.7,2.6,4.3h0Z"/>
      <path d="M297.1,86.7c0-1.6-1.3-3.8-3.2-3.5l-7.7,1.1c.3,1.8.3,3.5,0,5.3l7.9.8c2,.2,3-2.3,3-3.8Z"/>
      <path d="M285.4,108.1c1.1-.8,2.3-3.1,1.2-4.4l-5-5.9c-1.4,1.2-2.7,2-4.5,2.8l3.3,7.7c1.7,1.1,3.4.9,5,0h0Z"/>
      <path d="M255.3,100.8l6-4.6c-1.1-1.8-1.7-2.9-2.3-4.5l-7.3,2.7c-1.9.7-1.9,3.5-.9,5.1.8,1.3,3.1,2.6,4.6,1.4h0Z"/>
      <path d="M294,99.1c.8-1.4.8-4.1-.9-4.7l-7.4-2.7c-.6,1.7-1.3,3-2.4,4.4,2.1,1.4,4,3.4,6.2,4.7,1.8,1,3.9-.5,4.5-1.8Z"/>
      <path d="M259.4,108.3c1.1.7,4,1.1,4.8-.7l3.2-7.2c-1.6-.6-3.1-1.6-4.5-2.7l-5,5.7c-.7,1.8-.2,3.8,1.5,4.9Z"/>
      <circle cx="272.3" cy="86.9" r="9.5"/>
    </g>
  </g>
</svg>