<?xml version="1.0" encoding="UTF-8"?>
<svg id="b" data-name="Layer 2" xmlns="http://www.w3.org/2000/svg" width="541.43" height="159.78" viewBox="0 0 541.43 159.78">
  <g id="c" data-name="Layer 1">
    <g>
      <path d="M261.53,12.61c2.66,2.86,6.46,4.65,10.67,4.65,4.31,0,8.19-1.87,10.87-4.85,1.19-1.31,2.13-2.84,2.78-4.51.64-1.64.99-3.42.99-5.28,0-.33-.01-.65-.04-.97v-.01c-.03-.56-.1-1.1-.2-1.64h-.83l-27.13.01h-.83c-.1.54-.17,1.08-.2,1.64v.01c-.03.32-.04.64-.04.96,0,1.86.35,3.64.99,5.28.68,1.76,1.69,3.35,2.97,4.71Z"/>
      <path d="M4.66,69.45c1.1,0,2.19.1,3.24.29V7.89l246.44.01c-.5-1.67-.77-3.45-.77-5.28,0-.89.06-1.76.19-2.61H0l.01,70.03c1.49-.39,3.05-.59,4.65-.59Z"/>
      <path d="M254.41,151.75l-246.5.01v-45.33c-1.06.19-2.14.29-3.25.29-1.6,0-3.15-.2-4.64-.59l.01,53.65,254.61-.01c-.37-1.45-.57-2.96-.57-4.52,0-1.2.12-2.37.34-3.5Z"/>
      <path d="M4.66,102.72c1.12,0,2.21-.13,3.25-.37l-.01-28.53c-1.04-.24-2.13-.37-3.24-.37-1.62,0-3.19.27-4.65.76l.01,27.75c1.46.49,3.02.76,4.64.76Z"/>
      <path d="M533.59,74.5l.01,27.17c1.68.68,3.51,1.05,5.42,1.05.82,0,1.62-.07,2.39-.2l.01-28.87c-.78-.13-1.58-.2-2.4-.2-1.92,0-3.75.37-5.43,1.05Z"/>
      <path d="M533.6,105.91l.01,45.83-243.61.01c.22,1.13.34,2.3.34,3.5,0,1.56-.2,3.07-.57,4.52l251.63-.01.01-53.2c-.78.11-1.58.16-2.39.16-1.88,0-3.7-.28-5.42-.81Z"/>
      <path d="M290.65,0c.13.86.19,1.73.19,2.62,0,1.83-.27,3.61-.77,5.28l242.93.01c.61-.04.75.44.58,1.06l.01,61.29c1.72-.53,3.54-.81,5.43-.81.81,0,1.62.05,2.4.16l.01-69.61h-250.78Z"/>
      <path d="M286.44,151.75c.12-.19.23-.39.33-.59-.34-1.23-.84-2.39-1.47-3.47-2.61-4.52-7.51-7.57-13.1-7.57s-10.46,3.04-13.08,7.55c-.64,1.08-1.14,2.26-1.48,3.49v.01c.1.2.21.39.33.58h-.48c-.28,1.12-.42,2.3-.42,3.5,0,1.57.24,3.09.69,4.52h2.86c0-1.42.26-2.77.75-4.01.59-1.53,1.51-2.9,2.67-4.01,2-1.94,4.72-3.13,7.73-3.13s5.73,1.19,7.73,3.13c1.3,1.25,2.3,2.81,2.87,4.57.36,1.08.55,2.24.55,3.45h3.73c.45-1.43.69-2.95.69-4.52,0-1.2-.14-2.38-.42-3.5h-.48Z"/>
      <path d="M276.47,151.75c-1.38-.82-2.99-1.28-4.7-1.28s-3.32.46-4.7,1.28c-1.96,1.15-3.46,2.99-4.17,5.19-.28.89-.44,1.84-.44,2.83h9.31c.14.01.29.01.43.01s.29,0,.43-.01h8.45c0-.82-.11-1.61-.3-2.37-.64-2.4-2.21-4.42-4.31-5.65Z"/>
      <path d="M254.83,18.08c-5.2.04-9.4,3.17-10.63,8.17-1.34,5.5.96,11.78,6.22,13.22,2.44.67,4.93-.11,6.32-2.27,1.16,1.28,1.3,2.8.59,4.16-1.7,3.23-5.15,1.71-6.34,5.07-.54,1.52-.22,2.87.72,4.22-4.08,1.62-7.25,4.22-10.06,7.54-2.63,3.12-4.44,6.73-6.23,10.42-.88,1.8-2.23,3.43-4.26,3.98,1.57-6.94,4.93-12.9,9.42-18.09,2.02-2.34,4.5-4.18,6.91-5.92l.4-3.5c-13.33,3.54-21.5,13.51-23.41,26.85-6.88-.57-11.98,3.01-18.92-.22-4.42-2.06-7.28-6.42-7.07-11.3.18-4.13,2.77-7.69,6.66-8.76,1.99-.55,4.13-.27,5.59,1,1.15.99,1.78,2.28,1.12,3.78-1.25-1.3-2.86-1.84-4.63-1.26-1.34.44-2.59,1.66-2.95,3.31-.68,3.08,1.05,5.93,3.95,7.12,2.53,1.04,5.3.73,7.7-.7,3.28-1.96,5.26-5.49,5.27-9.4.01-4.75-2.5-8.9-6.62-11.26-5.43-3.12-12.1-2.89-17.45.47-5.94,3.72-9.21,10.34-8.77,17.43.55,8.83,6.2,16.59,14.37,19.77,10.64-3.28,18.66-2.92,28.91.88,3.82.49,7.7-2.17,10.29-4.75,2.97-2.96,4.45-6.58,6.05-10.37l2.03-4.82c1.58-2.86,4.1-3.93,6.97-4.99,3.05-1.13,5-4.19,6.41-7.01,3.5-6.97,3.4-16.6-3.01-19.83-2.35-1.18-4.95-.73-6.71,1.23-.73-.44-1.29-1.24-1.27-1.91.08-2.49,2.85-4.19,5.88-4.22,4.13-.04,7.67,2.31,9.74,5.86,3.32,5.7,2.46,13.36.16,19.63-1.03,2.82-2.72,5.19-4.49,7.57,3.1-.65,5.63-1.92,8.42-2.01,3.06-.1,5.88,1.29,8.94,2.08-6.83-7.59-9.77-21.31-3.33-29.12,3.99-4.84,11.18-5.28,13.62-1.7.89,1.3.75,2.96-.61,3.87-1.6-1.96-4.19-2.4-6.5-1.36-7.4,3.34-7.12,16.34-.64,23.93,1.14,1.34,2.62,2.73,4.22,3.21,2.9.86,5.15,2.28,6.65,4.98l2.11,5.05c2.49,7.5,7.81,14.23,15.99,14.9,9.03-4.13,19.04-4.31,28.52-1.01,8.21-3.39,13.86-11.22,14.35-20.15.41-7.49-3.35-14.46-9.97-17.9-6.04-3.14-13.31-2.29-18.44,2.08-4.74,4.03-5.77,10.89-2.26,16,1.97,2.87,5.4,4.52,8.75,4.11,3.85-.47,6.6-3.63,6.04-7.34-.27-1.8-1.48-3.15-2.94-3.63-1.74-.58-3.27,0-4.64,1.33-.47-1.63.05-3.02,1.29-3.97,1.66-1.29,3.98-1.46,6-.69,3.53,1.35,5.76,4.52,6.01,8.37.38,5.74-3.54,10.7-9.06,12.29-6.18,1.79-10.62-1.08-16.74-.54-1.98-13.52-10.03-23.43-23.14-26.91l.26,3.6c8.25,4.94,14.14,14.22,16.26,23.96-2.06-.58-3.27-2.39-4.17-4.27-3.73-7.83-7.67-14.07-16.04-17.71.78-1.4,1.13-2.69.73-4.17-.27-.97-1.23-2.29-2.49-2.54-2.06-.42-3.67-1.57-4.12-3.74-.23-1.12.19-2.33,1.22-3.17.48,1.41,1.48,2.22,2.95,2.54,2.28.5,4.6-.34,6.34-2.02,2.92-2.82,3.78-7.03,2.93-10.99-1.09-5.08-5.32-8.48-10.59-8.4-.46-1.07-1.05-2.01-1.77-2.83v-.01c.48-1.31.8-2.7.93-4.14-.56,1.1-1.23,2.11-2,3.07-3.42,4.28-8.68,7.03-14.57,7.03s-11.18-2.77-14.6-7.08c-.75-.94-1.41-1.96-1.97-3.05.14,1.46.45,2.87.94,4.2v.01c-.71.91-1.28,1.9-1.74,2.74Z"/>
      <path d="M223.35,143.343c4.91-2.4,9.16-5.52,13.38-9.27-2.87-1.38-5.39-3.12-7.68-5.46-7.53,6.46-16.68,9.87-26.38,9.55-15.46-.87-26.32-11.34-28.79-26.43-6.59,4.5-13.71,5.97-21.14,5.29-14.2-1.38-24.25-11.08-27.95-24.72-13.45,3.83-25.68-3.82-34.58-13.67-7.51-8.32-14.23-19.36-15.87-30.44,9.38,6.46,17.08,7.09,27.51,4.17l8.59-2.4c12.02-2.35,21.74.75,30.61,9.48,1.55-5.4,3.99-10.16,7.61-14.34,10.05-10.95,26.07-12.93,37.39-2.7,2.73-8.57,8.6-15.44,16.74-18.75,9.09-3.71,19.28-1.87,26.34,4.96,4.62,4.47,7.52,10.31,8.96,16.51l5.3-2.74c-2.08-5.31-3.3-10.58-2.92-16.13-4.21-5.74-9.69-10.01-16.5-12.07-15.63-4.71-33.47,1.07-41.26,15.8-1.93-.96-3.69-1.92-5.68-2.46-15.95-4.33-32.65,3.6-39.37,18.479-10.2-7.56-23-7.37-34.61-3.39-4.08,1.4-8.07,2.39-12.41,2.44-11.47-.2-22.32-7.96-26.18-19.08-5.41,23.21,4.35,45.93,20.85,61.88,9.33,8.61,21.3,15.81,34.46,14.46,2.29,8.09,7.63,14.73,14.93,18.99,10.32,6.02,22.85,6.58,33.98,1.74,4.3,13.92,16.76,23.27,31.27,24.65,8.19.67,16.04-.74,23.4-4.35Z"/>
      <path d="M306.11,45.073c1.22-5.44,3.61-10.27,7.15-14.5,7.84-9.27,21.36-11.59,31.76-5.14,6.2,3.85,10.42,9.91,12.75,16.91,9.95-8.91,24.94-8.73,34.79.26,4.9,4.48,8.03,10.35,9.97,16.86,11.16-10.92,22.18-12.39,36.62-7.729,10.93,3.52,19.57,3.53,29.49-3.55-2.05,12.99-10.49,26.81-20.16,35.67-7.59,6.96-19.65,11.72-29.64,8.42-3.58,13.36-12.79,22.79-26.52,24.58-7.95,1.04-15.83-.47-22.49-5.09l-1.49,5.98c-3.58,11.05-13.03,18.73-24.49,20.2-10.51,1.22-20.98-2.13-29.01-9.33-2.22,2.3-4.46,4.17-7.62,5.46,10.51,10.78,25.53,15.76,40.37,13.09,12.87-2.56,23.43-11.58,27.39-24.12,19.11,8.37,42.85.13,48.67-20.69,12.18,1.14,23.49-4.58,32.49-12.62,17.17-16.29,27.23-39.38,22.34-63.51-2.03,5.3-5.04,9.37-9.32,12.76-6.77,5.37-15.2,7.34-23.68,5.22l-7.02-2.13c-11.17-3.53-23.1-3.11-32.59,3.95-4.39-11.73-15.44-19.28-27.83-19.72-5.92-.21-11.67.71-16.86,3.8-7.271-14.37-23.47-20.04-38.67-16.47-7.77,1.82-14.27,6.35-18.79,12.84.44,5.59-.65,10.96-2.88,15.99l5.27,2.61Z"/>
      <path d="M50.16,142.273l2.42,2.74c.91-1.89,2.74-2.79,4.67-2.3,4.31,1.08,8.46,1.99,12.99,1.97,10.78-.03,20.94-3,30.3-8.25,6.11-3.43,11.59-7.51,16.4-12.84,10,14.92,29.12,20.52,45.71,13.9,1.8,3.8,4.52,7.46,8.35,9.26,4.37.35,8.84.09,13.54.08-8.27-4.13-14.79-10.56-17.97-19.35-14.12,5.83-29.86,4.51-40.55-6.73-3.69-3.87-6.7-8.03-8.85-13.04-2.11,3.03-3.95,5.67-6.38,8.23-11.74,12.34-31.2,17.15-44.77,6.21-7.47-6.02-9.46-16.95-2.94-22.57,2-1.72,4.64-2.38,7.02-1.44,1.49.59,2.55,1.75,2.66,3.35-2.49-1-5.05.11-5.99,2.63-.87,2.32.18,4.95,2.36,6.27,2.26,1.37,4.92,1.49,7.53.4,1.98-.83,3.8-2.73,4.59-5.25,2.08-6.65-1.9-13.72-8.69-15.58-6.17-1.68-12.67.22-16.92,5.01-8.27,9.3-6.23,22.8,2.23,31.86,4.73,5.08,10.89,8.17,17.71,9.68-10.08,3.12-21.03-3.98-25.5-12.83-.33-.65-1.29-1.18-1.96-1.37-.56,2.19-2.22,2.81-4.14,2.26-1.8-.52-3.26-2.65-2.13-4.33,1.41.01,3.09-.09,3.89-1.57,1.84-3.42-1.3-4.79-1.17-8,.08-1.81-.73-4.22-2.69-4.63-2.57-.53-5.02,1.19-6.64,3-1.66.43-2.79,1.5-3.77,2.87-2.81,3.81-3.27,8.9-.58,12.78,1.65,2.54,4.71,3.29,7.26,1.59,3.03-.04,5.94,1.47,7.49,4.46-5-.9-9.88-.27-14.68,1.83-.27-1.53-1.36-2.55-2.9-2.99-3.6-1.03-7.41.75-8.93,4.21-.55,1.25.04,2.68.71,3.54-3.14,2.17-3.57,5.52-6.92,8.19,5.9.75,11.71.8,17.05-1.49l1.56,1.33c3.14,1.88,7.21,1.02,9.49-1.85,1.75-2.2-1.22-3.64-.22-5.91,1.22-2.75,6.39-2.61,8.98.19-.34,1.43-.72,3.24.38,4.48Z"/>
      <path d="M472.07,89.593c-7.9,1.22-12.69,9.12-10.06,16.59.9,2.54,2.94,4.32,5.09,4.96,2.64.79,5.32.32,7.28-1.33,1.49-1.25,2.18-2.94,1.88-4.88-.21-1.34-1.07-2.58-1.99-3.14-1.32-.81-2.6-.77-4.2-.31-.09-1.68,1.24-3,2.9-3.51,2.51-.76,5.15.16,7.12,1.99,5.98,5.6,3.93,16.25-3.21,22.08-12.75,10.42-30.99,6.75-42.54-4.26-3.17-3.03-5.65-6.32-8.24-10.05-2.1,4.8-4.84,8.92-8.32,12.69-10.69,11.57-26.37,12.88-40.76,7.1-3.16,8.76-9.62,15.12-17.73,19.31l13.33-.11c3.85-1.57,6.46-5.46,8.38-9.18,16.67,6.46,35.11,1.21,45.28-13.86,9.74,10.55,22.78,17.81,37.01,20.28,7.5,1.3,14.66.8,21.85-1.26,2.04-.59,4.03.41,4.85,2.38,2.37-2.39,3.6-4.17,2.63-7.26,2.91-3.05,8.29-2.72,9.27-.01.82,2.27-2.11,3.18-.3,5.73,2.43,3.42,8.17,3.86,11.02.41,5.16,2.43,11.23,2.29,16.81,1.58-2.87-2.44-3.59-5.65-6.64-8.3.69-1.09,1.2-2.53.56-3.81-1.59-3.16-5.26-4.84-8.64-3.8-1.47.45-2.53,1.41-2.9,2.95-4.78-1.99-9.75-2.86-14.91-1.67,1.54-2.95,4.48-4.62,7.64-4.63,2.83,1.72,6.1.9,7.81-1.89,2.62-4.33,1.91-9.76-1.5-13.53-.87-.96-1.96-1.49-3-2.21-1.81-1.25-3.57-2.9-6.02-2.66-1.95.19-3.18,2.21-3.14,4.15.03,1.34-.19,2.42-.83,3.54-1.28,2.26-1.38,4.71.37,6,.79.58,1.95.57,2.87.6.6,1.05.22,2.38-.5,3.18-.66.73-1.75,1.31-2.79,1.34-1.7.06-2.69-.85-3.13-2.54-.91.46-1.78,1.04-2.23,1.84-4.8,8.54-15.35,15.5-25.31,12.4,6.3-1.42,11.85-4.19,16.52-8.54,8.35-7.78,11.38-20.46,5.54-30.2-3.62-6.04-10.23-9.229-17.12-8.16Z"/>
      <path d="M226.5,100.523c2.01,3.46,3.88,6.82,6.38,9.97,3.35,4.21,7.56,7.6,12.55,9.38,1.25-1.25,2.46-2.04,4.03-2.78-3.76-2.26-5.74-5.84-6.24-10.06-1.02-5.81-3.25-11.29-7.68-15.3-11.51-10.41-30.71-10.03-41.87.07-6.19,5.61-9.1,13.99-7.01,22.06,1.96,7.58,9.04,12.5,16.68,11.59,6.89-.81,11.52-6.46,11.15-13.32-.17-3.13-1.33-5.96-3.83-7.86-3.24-2.45-7.82-2.15-10.32,1.09-1.34,1.75-1.42,4.19-.15,5.86,1.54,2.01,4.18,2.31,6.09.43.9,1.59.39,3.39-.92,4.55-1.71,1.54-4.16,1.75-6.31.79-3.49-1.54-5.5-4.96-5.5-8.92.02-7.12,5.33-13.42,12.32-14.63,4.77-.82,7.82,2.3,9.65,6.53l3.86,8.94c2.13,4.92,5.14,8.92,8.52,12.88l3.98,4.67c2.43,2.521,5.5,4.1,8.9,5.39-.37-3.39.19-6.34,2.22-8.98-3.63-1.87-6.89-4.18-9.91-7.13-3.95-3.97-7.15-8.42-9.39-13.57l-3.04-7c2.87.88,4.48,3.02,5.84,5.35Z"/>
      <path d="M312.55,126.193c.65-1.14,1.44-2.14,2.41-3.06,3.71-3.55,6.79-7.42,8.84-12.14l4.85-11.12c1.77-4.07,4.25-7.07,8.74-6.49,8.09,1.04,14.05,8.78,12.67,16.8-.58,3.37-2.76,6.03-5.86,7.08-2.3.78-4.81.18-6.26-1.66-.91-1.15-1.11-2.63-.37-3.88,1.1.89,2.2,1.35,3.49,1.14.87-.14,2.05-.89,2.65-1.82,1.7-2.61.51-5.96-2.17-7.44-2.82-1.57-6.15-1.13-8.7.93-2.69,2.17-3.83,5.57-3.64,9.05.32,6.15,4.63,10.9,10.74,11.82,7.72,1.17,14.9-3.61,17.05-11.16,2.99-10.49-2.75-21.43-12.53-26.48-9.62-4.98-20.92-4.87-30.47.15-8.19,4.3-12.12,11.63-13.29,20.66-.63,3.56-2.53,6.65-5.85,8.46,1.57.91,2.75,1.7,4.06,2.86,5.06-1.92,9.28-5.37,12.6-9.71l6.47-10.17c1.34-2.11,2.85-3.98,5.35-4.89-1.51,4.08-3.09,7.73-5.12,11.43-4.05,6.93-9.65,12.53-17,16.33,1.73,2.65,2.4,5.55,1.91,8.95,3.6-1.16,6.9-2.88,9.43-5.64Z"/>
      <path d="M351.13,82.743l-4.16,1.89c6.12,3.46,10.28,8.54,13.11,14.88,4.08,5.24,14.04,4.85,20.48,2.2-2.39-.82-4.31-2.28-5.57-4.53-.85-1.51-1.99-2.71-3.49-3.86,1.41-1.45,3.57-2.1,5.68-1.71,4.95.93,4.02,7.13,10.07,8.26,2.68.51,5.13-.67,6.3-3.06,5.45,1.19,10.65-1.66,14.73-5.44-2.58-.46-4.71-1.35-6.59-3.05-2.18-1.99-4.68-3.31-7.77-3.56,3.33-2.86,8.04-3.13,11.75-.67,2.56,1.7,5.34,2.51,8.4,1.56,2.95-.91,5.51-2.68,7.47-5.04-1.72-.62-3.23-1.59-4.12-3.35,3.8,1.04,7.47.77,10.47-1.67,4.05-3.31,6.72-7.96,7.74-13.24-2.64,1.46-5.33,1.72-8.21,1.11-8.83-1.89-16.91-1.99-22.67,5.7-.99,1.33-2.68,2.32-4.23,1.65l-.86-1.45c-2.05-.64-4.08.16-5.02,2.06-.97,1.38-2.01,2.75-3.35,3.84-10.11,8.24-24.39,10.22-37.06,7.61-.94-.19-2.33-.47-3.1-.13Z"/>
      <path d="M168.79,97.143c-1.2,2.17-3.01,3.61-5.49,4.54,6.19,2.54,15.49,3.13,20.21-1.93,2.73-6.43,7.19-11.53,13.48-15.229l-4.3-1.771c-.74-.31-2.18-.06-3.11.13-12.63,2.51-26.62.72-36.92-7.14-1.64-1.25-2.93-2.68-3.89-4.47-1-1.88-3.28-2.69-5.14-1.6l-.75,1.31c-1.39.3-2.95-.3-3.83-1.51-5.68-7.82-13.63-8-22.63-6.02-2.99.65-5.78.41-8.66-1.13,1.04,4.63,3.25,8.63,6.36,11.94,3.15,3.36,7.42,4.33,12.02,2.98-.81,1.76-2.19,2.62-4.03,3.42,1.83,2.32,4.47,4.05,7.38,4.99,3.02.97,5.84.08,8.39-1.56,3.73-2.4,8.48-2.23,11.77.66-2.93.33-5.36,1.46-7.41,3.38-1.97,1.84-4.18,2.84-6.97,3.22,4.57,3.99,9.01,6.34,14.84,5.61,1.01,1.6,2.54,3,4.71,3.03,3.18.05,5.83-1.77,7.31-4.63.97-1.87,2.48-3.33,4.28-3.71,2.16-.46,4.2.17,5.98,1.65-1.49.94-2.71,2.22-3.6,3.84Z"/>
      <path d="M262.45,139.98c-2.21.31-4.44-.03-6.34-1.06-.74-.4-1.43-.91-2.05-1.53-2.21-2.22-2.86-5.56-1.12-8.09,1-1.45,3.03-2.41,4.47-1.29-.55.99-1.09,2.34-.67,3.57.26.76.93,1.59,1.81,2.06,0,0,0,0,.001,0,0,0,0,.002-.001.002.21.12.43.21.66.28,2.54.76,5.03-.62,6-3.1.38-.98.54-1.99.5-2.99v-.003c-.07-2.29-1.14-4.52-2.92-6.14-2.56-2.34-5.99-3.03-9.39-2.37-6.68,1.29-10.83,7.69-9.15,14.34-1.97,1.29-3.16,3.19-3.1,5.36.06,2.13,1.4,3.92,3.41,4.96,1.97,1.02,4.12.62,6.17.21,1.33,1.25,2.92,2.85,4.84,3.48h.63c-.06-.21-.12-.42-.16-.63,1.47-2.89,3.69-5.33,6.41-7.06Z"/>
      <path d="M272.08,133.2c-1.1,1.76-2.39,3.24-3.91,4.38,1.3-.3,2.65-.46,4.03-.46,1.25,0,2.47.13,3.65.37-1.47-1.13-2.74-2.59-3.77-4.29Z"/>
      <path d="M300.32,143.31c1.65-1.31,2.54-3.04,2.38-5.01-.15-1.85-1.11-3.5-2.92-4.61,1.62-6.08-1.65-12.21-7.62-14.04-3.3-1.02-6.79-.73-9.68,1.19-2.39,1.59-3.86,4.18-3.97,6.92v.003c-.03.86.06,1.73.31,2.59.45,1.57,1.64,2.82,2.73,3.3,1.49.65,3.03.62,4.23-.12,0,0,0-.001-.001-.002,0,0,0,0,.001,0,.09-.061.18-.12.26-.18,1.82-1.32,2.06-3.66.62-5.37,1.7-.96,3.22-.22,4.23,1.04,1.64,2.05,1.48,4.94.04,7.2-.69,1.08-1.61,1.94-2.67,2.57-1.38.82-3,1.25-4.71,1.28-.54.01-1.07-.01-1.58-.08,2.71,1.729,4.93,4.17,6.4,7.06-.04.21-.1.43-.16.64h.14c.09-.04.18-.09.27-.14,1.77-.89,3.31-2.11,4.8-3.42,2.35.81,4.92.76,6.9-.82Z"/>
      <path d="M28.51,41.733c-1.05-4.01-5.12-5.17-8.89-5.35l-6.08-.28c.66,1.36,1.02,2.29,1.2,3.58l.46,3.43c-.58,1.75-1.02,3.51.12,5.27,1.67,2.56,4.65,2.49,7.7,1.39,1.79,1.35,3.46,2.75,5.41,3.8,6.65,3.55,14.52,2.55,19.96-2.68.93-.89,1.67-1.08,3.07-.62,2.09.67,4.25-.08,5.37-1.45,1.32-1.61,1.42-3.63.54-5.51l.35-2.17c.32-1.96.46-3.31,1.53-4.98l-5.02.55c-3.15-.67-6.21-.189-8.65,1.9-1.5,1.29-1.99,2.87-2.53,4.78-.79,2.81-4.47,5.06-7.15,4-2.98-3.85-.26-12.3,4.21-14.54,3.19.82,6.25,0,8.14-2.8.83-1.24,1.45-2.47.45-3.99-.71-1.08-2.04-1.81-3.29-2.32-.4-2.17-2.2-3.87-4.51-3.31-2.43.58-4.04,2.44-5.16,4.85-1.29-3.32-2.85-6.19-5.58-8.17-1.82-1.46-3.91-2.07-6.26-1.72-2.3-.92-4.57-1.58-6.95-1.81,1.04,2.09,1.12,3.68,1.31,5.73l.24,2.54c-2,2.07-2.11,5-.33,7.22,1.58,1.96,4.05,2.73,6.45,1.82,1.26-.48,1.87-1.76,2.23-2.89,1.54-.72,3.37.32,4.36,1.54,2.03,2.49,2.22,5.73,1.02,8.68-.95,2.32-1.52,4.65-1.31,7.34-1.8-.7-2.02-2.33-2.41-3.83Z"/>
      <path d="M499.61,43.403c-.55-1.92-1.07-3.39-2.61-4.72-2.64-2.27-6.16-2.75-9.6-1.77l-3.69-.78c.57,1.67.81,2.8,1.01,4.31l.39,2.94c-.82,1.82-.76,3.84.52,5.38,1.06,1.27,2.85,2.04,4.74,1.65l2.68-.54c5.7,6.25,14.36,7.53,21.49,3.4l4.87-3.49,3.1.74c1.84.43,3.65-.78,4.55-2.1,1.07-1.58.87-3.43.21-5.21l.45-3.52c.16-1.28.51-2.24,1.1-3.57l-5.49.26c-3.83-.08-8.06,1.24-9.17,5.35-.43,1.61-.71,3.28-2.59,3.96.46-2.42-.05-4.77-1-7.03-1.31-3.1-1.27-6.49.9-9.12,1.02-1.23,2.78-2.17,4.34-1.55.24,1.46,1.06,2.73,2.66,3.12,1.87.46,3.79-.09,5.19-1.31,2.44-2.13,2.7-5.37.42-8.05l.24-3.6c.11-1.55.58-2.81,1.22-4.54-2.27.21-4.25.86-6.33,1.83l-3.3.1c-4.28.76-7.51,5.65-8.88,9.87-1.77-3.46-4.53-6.09-7.59-4.66-.99.46-1.68,1.81-2.16,3.04-1.64.76-4.01,2.08-3.53,4.4.8,3.92,5.15,5.9,8.72,4.55,2.81,1.59,4.18,4.09,4.98,7.04.67,2.48,1.05,5.64-.76,7.69-2.78.8-6.28-1.31-7.08-4.07Z"/>
      <path d="M181.15,71.653c-1.2-3.59-3.81-6.14-7.24-7.73-4.28-1.87-8.97-1.99-13.51-.76-2.91.78-5.6.63-8.29-1.07.39,4.45,3.54,8.77,6.91,11.6,7.22,6.04,19.51,8.9,28.97,6.21-3.38-1.79-5.65-4.68-6.84-8.25Z"/>
      <path d="M386.91,71.203c2.37-2.63,4.07-5.55,4.5-9.13-2.56,1.68-5.21,1.89-8.01,1.12-4.34-1.18-8.81-1.18-12.99.35-3.89,1.4-6.66,4.23-8.03,8.12-1.05,3.55-3.28,6.28-6.53,8.28,4.88,1.46,9.37,1.1,13.98.3,6.57-1.23,12.61-4.11,17.08-9.04Z"/>
      <path d="M528.12,112.67c-1.51.48-2.73.66-4.06.52l-2.88-.32,2.01-2.61c2.38-2.7,3.49-5.36,3.71-8.04-3.55-3.04-5.94-7.39-6.42-12.31l-4.3,5.03c-3.32.89-5.85,3.64-5.9,7.13-.01.92.46,2.06,1.15,2.56.55.39,1.72.49,2.51.51.73,1.24.18,2.98-.85,4.17,4.45,4.14,5.18,10.56,2.21,15.7,6.99.18,11.43-5.62,12.82-12.34Z"/>
      <path d="M31.6,104.83c.32-.03.83.18,1.33.37l-.21-3.36c-.85-.44-.96-.87-.9-1.62l.19-2.09c-1.37-1.73-2.96-2.77-5.09-3.33-1.34-1.47-2.56-2.91-3.77-4.51-.58,4.95-3.1,9.31-6.79,12.29.27,2.66,1.33,5.2,3.14,7.39l2.43,2.92-3.06.27c-1.33.12-2.48-.03-4.1-.53,1.46,6.43,5.66,12.85,12.67,12.25-3.03-5.55-2.14-11.61,2.61-15.63-1.17-1.32-1.52-2.83-.82-4.18l2.37-.24Z"/>
      <path d="M274.92,73.333l1.09-8.32c.25-1.91-2.21-3.08-3.8-3.01-1.45.06-3.81,1.16-3.56,2.97l1.16,8.42,5.11-.06Z"/>
      <path d="M274.93,101.213c-1.92.19-3.53.17-5.48-.05l-1.04,6.77c-.09.61,0,1.85.31,2.32.96,1.47,2.6,2.17,4.25,1.78,1.17-.28,3.32-1.39,3.06-3.19l-1.1-7.63Z"/>
      <path d="M264.61,65.893c-1.56-1.2-3.53-1.29-5.06-.08-.97.98-2.26,3-1.1,4.44l4.94,6.13,4.48-2.58-3.26-7.91Z"/>
      <path d="M251.79,79.163l7.44,3.16,2.54-4.35-6.08-5.24c-1.85-.63-3.73.02-4.7,1.6-.82,1.33-.92,4.1.8,4.83Z"/>
      <path d="M250.51,90.513l7.93-.84c-.18-1.88-.1-3.5.17-5.33l-7.82-1.18c-1.89-.28-3.26,1.98-3.29,3.54-.04,1.59,1.09,4.01,3.01,3.81Z"/>
      <path d="M284.84,65.543c-1.33-.78-4.05-.94-4.78.82l-3.16,7.6c1.62.561,2.92,1.34,4.44,2.39l5.13-6.15c.61-1.83-.03-3.73-1.63-4.66Z"/>
      <path d="M285.47,82.273l7.59-3.24c1.56-.66,1.34-3.51.62-4.65-.98-1.54-2.65-2.22-4.48-1.74l-6.37,5.36c1.27,1.58,1.9,2.71,2.64,4.271Z"/>
      <path d="M297.06,86.733c-.07-1.6-1.28-3.81-3.18-3.53l-7.74,1.13c.29,1.83.32,3.48.05,5.35l7.87.85c1.96.21,3.05-2.33,3-3.8Z"/>
      <path d="M285.42,108.063c1.08-.79,2.33-3.08,1.17-4.45l-4.95-5.89c-1.42,1.21-2.71,2.01-4.46,2.75l3.29,7.67c1.68,1.12,3.42.93,4.95-.08Z"/>
      <path d="M255.28,100.803l5.95-4.64c-1.15-1.77-1.72-2.93-2.34-4.53l-7.28,2.69c-1.87.69-1.91,3.54-.93,5.08.8,1.26,3.08,2.59,4.6,1.4Z"/>
      <path d="M293.97,99.093c.75-1.41.82-4.12-.91-4.74l-7.42-2.65c-.62,1.7-1.3,2.99-2.44,4.45,2.1,1.39,3.96,3.44,6.23,4.72,1.79,1,3.85-.49,4.54-1.78Z"/>
      <path d="M259.38,108.303c1.11.71,4.03,1.08,4.81-.66l3.19-7.17c-1.64-.62-3.12-1.57-4.51-2.69l-4.99,5.67c-.74,1.78-.18,3.76,1.5,4.85Z"/>
    </g>
  </g>
</svg>