<?xml version="1.0" encoding="UTF-8"?>
<svg id="b" data-name="Layer 2" xmlns="http://www.w3.org/2000/svg" width="494.29" height="142.69" viewBox="0 0 494.29 142.69">
  <g id="c" data-name="Layer 1">
    <g id="d" data-name="BNLgVs">
      <g>
        <path d="M494.29,139.63l-.31,2.22-213.32-.02-8.35-.23c2.37-1.18,4.3-2.62,5.73-4.9l6.5.01,10.05.04c.47-.03.25-.22-.3-.37-8.27-1.67-15.51-6.74-19.59-14.03,2.63-1.36,4.7-2.75,6.75-4.4l.58-.15c1.31,1.99,2.72,3.48,4.58,4.87,13,9.7,31.38,6.07,42.91-4.85,3.68-3.49,6.32-7.6,8.39-12.37,13.87,6.97,30.95.57,40.67-10.75,3.09-3.6,5.6-7.4,7.43-11.77l.33-.37c5.43,4.44,13.6.13,19.04-3.66,5.47-3.81,9.78-8.6,13.47-14.16,4.41-6.63,8.04-13.51,10.45-21.09l.19-.59c.04-.11-.35-.02-.51.08-2.18,1.38-4.72,3.02-7.35,3.8-4.8,1.42-9.71,1.67-14.69,1.1l-9.88-1.11c-7.69-.87-16.04,1.17-22.25,6.6-3.25-13.45-15.33-23.84-29.54-20.33-4.51,1.09-8.42,3.39-11.45,6.88l-.36.33c-.07.06-.26-.29-.29-.38-1.09-2.6-2.83-4.66-4.96-6.51,1.83-2.87,4.04-5.36,6.87-7.06,11.8-7.1,27.63-4.6,37.11,5.58,2.69,2.88,4.77,6.1,5.83,9.84,6.65-5.9,15.5-6.41,23.95-5.24l9.48,1.31c15.18,2.1,23.85-8.64,28.62-22.12.41,1.35.88,2.87.88,4.4l-.01,8.33c-1.15,11.95-4.49,23.44-10.07,34.09-6.77,12.91-18.22,26.05-32.49,30.05-2.91.82-5.75.96-8.76.06-3.2,8.1-8.88,14.68-16.29,19.21-9.16,5.6-20.78,7.88-30.82,3.05-1.38,3.52-3.58,6.31-6.28,8.95-7.36,7.2-16.64,11.23-27.05,12.61l11.18.2,20.85-.04,13.31-.01,7.09-.04,126.53-.02-.13-31.21-.17-51.73-.13-7.16-.2-34.29-.16-6.77-185.26-.01c-2.64,0-5,.56-7.4,1.14-3.9.93-7.3,2.89-10.17,5.72-.77-6.061-4.89-9.7-10.38-11.771-.04-.1-.07-.42-.02-.44l96.4-.06,31.61.01,24.82-.01,3.73.04,62.8-.01.63.32.09,38.03.01,43.4.02,40.22.06,17.54Z"/>
        <path d="M222.01,141.84l-221.73-.01-.28-3.09.06-52.56v-31.54l.03-33.92L.24.42l63.12-.09,36.69.02,17.56-.15,98.6.03,6.99.24c-5.6,1.95-9.75,6.06-10.79,11.95-2.69-2.47-5.43-4.26-8.78-5.28-2.8-.85-5.72-1.63-8.86-1.63l-131.06-.01-56.63.06-.27,38.29-.16,38.55-.18,4.27-.2,25.15-.13,24.88,22.58.03h26.27l103.42.05,26.7-.09c-11.03-1.69-20.81-5.97-28.32-13.97-2.14-2.28-3.85-4.72-5.13-7.64-5.27,2.38-10.93,3.09-16.68,2.09-13.49-2.35-24.69-11.64-29.74-24.36-5.35,1.45-10.47-.24-15.14-2.69-22.68-11.88-34.87-38.83-36.73-63.58-.28-3.71.02-7.2.91-10.78,4.11,11.72,11.65,22.37,24.65,22.41,4.979.01,9.71-.68,14.65-1.37,8.9-1.25,17.7-1.33,24.7,5.14,5.86-16.96,27.41-25.07,42.99-15.55,2.72,1.78,4.89,4.13,6.67,7.04-2.43,2.01-4.08,4.35-5.39,7.08-7.97-9.53-21.79-10.75-31.24-2.91-5.01,4.15-8.45,9.64-10.25,15.96-4.58-4.3-10.17-6.31-16.18-6.74l-5.66.05-11.26,1.26-7.47.06c-5.76.04-10.88-2.05-15.7-5.5,2.91,9.33,7.37,17.39,12.76,25.01,3.91,5.31,8.5,9.67,14.23,12.87,5.27,2.95,11.82,5.94,16.88,1.97,6.01,13.7,16.71,23.2,31.69,25.58,5.71.51,11.05.11,16.25-2.64,6.36,16.12,24.48,25.99,41.33,21.75,3.46-.87,6.46-2.48,9.4-4.39,1.92-1.53,3.5-3.21,4.97-5.27,2.3,1.71,4.43,3.229,7.22,4.52-4.18,7.86-11.83,12.73-20.64,14.58l17.34.1c1.32,2.43,3.47,3.48,5.79,5.07Z"/>
        <path d="M329.52,40.58c1.84,3.53,2.86,7.36,2.55,11.5-.66,8.7-5.09,16.12-12.13,20.91l-4.34,2.67c-8.64-4-18.08-4.69-26.98-2.05-11.14-1.72-19.53-9.96-21.42-20.82-3.5-1.8-6.5-3.96-8.94-6.97-4.38-5.41-5.33-13.771-.56-18.62,1.84-1.87,4.43-2.91,6.95-2.41,2.78.56,4.95,2.72,5.22,5.46.2,2.12-.65,3.98-2.16,5.07-1.76,1.28-3.57,1.41-5.86.49.78,1.66,1.87,2.84,3.32,3.7l5.3,3.13c4.55,2.69,8.63,5.62,11.84,9.9l7.34,9.8c-.12-5.09-2.4-9.3-4.98-13.31-2.77-4.3-6.43-7.54-11.2-9.72l2.54-6.31,4.77,2.66c-.31-2.44-1.86-3.64-3.67-4.91,2.62-5.57,5.96-10.66,10.62-14.74,7.08-6.18,16.6-8.37,25.82-6.53,8.56,1.56,15.9,6.79,19.92,14.51-3.13,2.32-5.64,4.84-7.37,8.05-2.41-4.61-5.98-7.86-10.65-9.8-13.9-5.82-25.89,2.69-30.63,16.26,6.63,6.51,11.19,14.77,12.19,24.1,9.35,2.95,21.35-.37,24.24-9.96,1.08-3.58.46-7.41-2.1-10.14-3.27-3.5-8.87-3.29-11.77.45-1.28,1.63-1.41,3.92-.03,5.56.42-2.22,1.69-3.52,3.38-4.1,1.84-.62,3.8-.1,5.21,1.32,1.72,1.75,2.08,4.52.97,6.78-2.54,5.15-8.89,6.56-13.58,3.21-3.25-2.33-4.98-6.11-4.7-10.25.47-6.72,5.25-12.12,11.86-13.79,7.57-1.91,15.41,1.98,19.03,8.9Z"/>
        <path d="M227.84,52.83c-2.37,10.72-10.98,19.57-22.02,20.61-8.92-2.3-18.01-1.97-26.69,2.14-3.34-1.85-6.21-3.83-8.71-6.53-8.45-9.17-10.07-24.229-.45-33.189,3.38-3.14,8.02-4.99,12.63-4.58,6.95.61,12.55,5.55,13.9,12.25,1.44,7.11-3.62,14.04-10.84,13.98-4.59-.04-8.12-3.86-7.69-8.24.32-3.13,2.97-5.41,5.94-5.01,2.23.31,3.82,1.87,3.98,4.08.82-.7,1.22-1.92,1-3.11-.52-2.93-3-5.02-6.06-5.21-4.81-.28-8.69,3.6-9.05,8.46-.42,5.64,2.86,10.75,8.03,13.18,5,2.35,10.68,2.53,15.9.91,1.88-9.41,5.85-17.73,13.09-24.13-2.91-11.11-10.84-18.9-22.77-18.04-7.42.64-13.88,4.89-17.89,11.37-2.01-2.89-4.27-5.52-7.19-7.72,4.78-8.55,13.33-13.97,23.02-15.01,15.85-1.58,27.27,7.22,32.71,21.75-1.67,1.31-3.08,2.43-3.87,4.42l4.73-2.31,2.06,6.36c-5.04,2.26-8.94,5.79-11.85,10.45-2.41,3.85-4.11,7.85-4.69,12.5,4.73-4.36,6.85-9.98,11.74-14.48,2.75-2.54,6-4.14,9.17-6.09l2.24-1.37c1.85-1.14,3.59-2.3,4.49-4.44-2.13.71-4.02.59-5.58-.71-1.45-1.22-2.25-2.99-1.81-5.17.84-4.19,5.54-6.44,9.47-4.58,3.21,1.52,5.11,4.61,5.62,8.17,1.2,8.34-5.45,15.33-12.56,19.29Z"/>
        <path d="M329.27,102.29c-.39,5.6-3.22,10.26-7.29,13.12-4.85,3.41-10.71,4.02-16.02,2.04-5.3-1.99-8.77-6.42-9.47-12.05-.42-3.44.74-7.03,3.04-9.63,3.01-3.41,7.82-4.46,11.77-2.36,2.64,1.41,4.23,3.99,3.86,6.95-.2,1.59-1.2,2.939-2.27,3.59-1.48.89-3.09,1.03-4.57.39-1.59-.68-2.27-2.09-2.53-3.79-1.53,1.65-1.36,3.94-.07,5.58,2.79,3.54,8.04,3.4,11.08.07,2.23-2.46,2.91-5.79,2.1-9.09-2.28-9.2-13.29-13.84-22.15-10.7-2.44,10.35-8.37,20.58-17.02,26.69l.95,2.52c-2.15,1.73-4.42,3.24-7.25,4.45l-2.56-7.43c3.39-1.48,5.93-3.37,8.4-5.89,5.01-5.12,8.81-11.36,9.94-18.6-2.28,1.86-3.54,4.12-4.98,6.39-3.94,6.22-8.03,11.41-14.92,14.66-2.58-12.91,4.68-25.63,16.64-30.98,9.72-4.34,21.63-4.14,30.94,1.23,8.06,4.65,13.01,13.62,12.38,22.84Z"/>
        <path d="M204.91,88.19c2.15,10.17,8.89,20.08,18.34,24.4l-2.6,7.46-7.23-4.439.95-2.46c-8.52-6.33-14.18-16.21-16.69-26.7-5.74-1.97-11.89-1.17-16.58,2.52-3.14,2.46-5.33,5.81-5.73,9.78-.38,3.71,1.23,7.33,4.44,9.08,2.92,1.59,6.42,1,8.53-1.41,1.51-1.74,1.87-4.27-.08-5.94-.13,1.51-.45,2.68-1.56,3.41-1.42.95-3.09,1.12-4.69.29-1.21-.62-2.39-2.11-2.55-3.87-.38-4.1,2.83-7.51,7.03-7.93,4.35-.44,8.41,2.18,10.24,6.24,2.8,6.23.45,13.6-5.37,17.27-6.05,3.81-13.85,3.53-19.53-.9-3.89-3.03-6.21-7.6-6.48-12.69-.48-9.12,4.51-18.09,12.37-22.82,9.49-5.7,21.76-5.61,31.64-.85,8.57,4.14,14.28,12.13,15.67,21.53l.45,4.54-.42,4.49c-7.46-3.13-11.04-8.37-15.22-14.96-1.39-2.2-2.63-4.51-4.93-6.04Z"/>
        <path d="M280.1,16.53c-.51,4.53-3.76,8.07-8.26,8.72-1.72-4.29-3.5-7.43-8.27-7.15-4.63.28-8.8,3.01-11.26,7.08-2.47,4.1-3.27,8.75-3.06,13.59.18,3.94,1.68,7.27,3.2,11.1-1-.48-1.79-1.17-2.58-1.97l-2.47-2.49-4.91,4.2c3.42-7.12,4.22-14.69,1.42-21.82-1.34-3.43-3.39-6.28-6.57-8.11-3.97-2.28-9.2-2.06-10.75.88l-2.46,4.65c-3.92-.53-6.79-3.57-7.43-7.51-.74-4.59,1.55-9.17,5.42-11.69,2.36-1.54,4.92-1.79,7.65-2.39,1.38-.96,2.78-3.61,4.97-3.61l27.74-.01c2.09,0,3.79,2.37,4.89,3.69,2.15.32,4.06.55,5.97,1.42,4.5,2.03,7.32,6.51,6.76,11.42Z"/>
        <path d="M383.73,70.29l5.72,2.57c-2.67,2.08-5.54,3.06-8.54,4.18-1.58.59-3.12,1.39-4.9,1.03-1.19-.25-1.83-1.31-2.61-2.18-3.04-3.37-8.6-1.63-12.11,1.68,3.48.53,6.3,1.08,8.83,3.05,1.77,1.38,3.57,2.35,5.6,3.4l-8.48,3.86c-1.99.91-3.77.72-6.14-.14l1.17,2.38c-2.58,1.05-5.22.62-7.71-.1-1.88-.53-2.67-1.52-3.35-3.45-.74-2.13-3.3-3.51-5.43-3.51-2.05.01-3.62,1.08-5.03,2.48,2.7.9,4.44,2.3,6.26,4.06l3.52,3.41-5.42,1.53c-1.93.55-3.92.35-5.84-.41l.16,1.74c-1.34.11-2.71.19-3.88-.12l-3.68-1c-1.33-6.71-5.04-12.69-10.78-16.9l4.4-2.58c1.6-.94,3.86.04,5.63.03l9.99-.03c8.75-.85,16.69-3.16,21.97-10.4,1.58-2.16,3.93-3.49,6.63-2.06l-.27,2.87,7.02-4.66c5.53-3.27,11.77-4.01,17.88-2.04,3.33,1.07,6.36,1.38,10.11,1.11l-8.62,7.31c-2.9,2.45-6.32,3.62-10.17,2.4-.479-.16-1.38.11-1.93.49Z"/>
        <path d="M173.97,77.74c-5.65,3.61-9.56,10.07-11.08,16.82-2.38,1.05-4.93,1.79-7.72,1.19l.4-1.72c-1.33.27-2.79.9-4.11.74-2.48-.31-4.83-1.02-7.22-1.88l4.76-4.41c1.48-1.38,3.36-2.03,5.33-3.01-1.04-.75-2.11-1.61-3.48-2.09-2.3-.82-5.18.18-6.58,2.05-.67.89-.94,2.37-1.51,3.23-2.84,2.31-7.36,2.44-10.52,1.4l1.23-2.3c-1.66.19-3.13,1.01-4.58.52-3.34-1.12-6.42-2.66-9.69-4.26,2.23-.98,4.24-2.12,6.22-3.58,2.51-1.84,5.31-2.23,8.53-2.99-3.77-3.24-9.71-4.87-12.14-1.53-.87,1.21-1.44,2.22-3.22,2.26-1.38.04-2.84-.49-4.22-.98-3.01-1.09-5.83-2.41-8.52-4.24l5.82-2.76c-.52-.41-1.14-.57-1.73-.39-2.57.81-5.87.93-8.18-1l-10.45-8.74c3.65.25,6.61-.021,9.86-1.04,10.05-3.17,16.8.49,24.96,6.64-.03-.72-.23-2.01.03-2.55.93-1.71,4.67-.56,5.26.37,3.21,5.09,7.89,8.71,13.76,10.22,6.49,1.67,11.68,1.95,18.34,1.59,2.24-.11,4.42-.42,6.64-.05l3.81,2.49Z"/>
        <path d="M272.85,136.7c-2.16,2.29-4.99,3.05-8.11,3.54-1.04.61-2.23,2.42-3.72,2.42l-28.04.03c-1.34,0-2.47-1.69-3.3-2.29-2.28-.53-4.46-.87-6.41-2.06-3.35-2.05-4.8-5.77-3.67-9.33,1.14-3.58,4.61-5.91,8.48-5.4l2.45-1.45c-2.19-.88-3.66-2.34-3.99-4.65-.56-3.91,2.45-7.57,6.6-7.82,4.75-.29,8.79,3.44,9.49,8.1.93,6.28-3.34,11.78-9.84,12.29,2.12,2.5,5.42,2.88,8.24,1.29,2.91-1.64,4.77-4.3,6.08-7.66,1.18,3.49,3.47,6.38,6.76,7.93,2.73,1.28,5.56.67,7.57-1.56-4.63-.25-8.33-3.22-9.61-7.3-1.36-4.31.15-9.05,3.84-11.63,3.31-2.32,7.75-1.97,10.37,1.01,1.44,1.64,1.98,3.74,1.4,5.96-.44,1.7-1.85,3.21-4,4.01l2.44,1.51c3.36-.53,6.54,1.22,8.06,3.93,1.67,2.95,1.25,6.65-1.09,9.13Z"/>
        <path d="M444.07,107.16c-1.45,14.85-14.47,25.61-29.24,24.91-5.33-.26-10.01-1.55-14.82-3.83-7.91-3.76-14.92-9.06-20.49-16.04,2.56-1.87,4.72-4.02,6.48-6.74,4.48,6.33,10.46,10.85,17.25,14.21,4.05,2,8.12,3.5,12.72,3.53,9.38.07,19.01-6.52,20.69-16.16.82-4.71-1.31-9.76-5.32-12.26-2.32-1.44-4.86-1.66-7.26-.54-2.09.98-3.91,3-4.14,5.71-.11,1.28.62,2.79,1.53,3.53.12-1.78.37-3.11,1.38-4.15,1.02-1.04,2.5-1.62,4.11-1.36,2.83.44,4.8,2.79,4.98,5.7.2,3.18-1.81,5.97-4.22,7.42-2.98,1.79-6.39,1.64-9.34-.1-2.8-1.64-5.19-4.37-5.66-7.8-1.17-8.39,5.2-16.31,13.69-16.95,11.23-.85,18.66,10.66,17.66,20.92Z"/>
        <path d="M114.75,112.27c-5.96,7.14-13.24,12.56-21.44,16.38-5.73,2.36-11.51,4.02-17.7,3.53-12.52-.99-22.99-10.34-25.15-22.66-1.12-6.35.54-12.56,4.54-17.42,5.54-6.73,15.45-7.66,21.99-1.76,3.17,2.85,5.02,7.15,4.87,11.43-.19,5.5-4.34,9.92-9.66,10.61-5.1.66-9.64-2.85-9.89-7.96-.09-1.99.97-3.93,2.43-5.13,1.52-1.24,3.61-1.41,5.33-.71,2.1.84,3.04,2.73,2.59,5.13,1.93-1.31,2.35-3.45,1.43-5.51-1.85-4.11-6.92-5.68-10.94-3.26-3.66,2.19-6.17,6.45-5.86,10.88.66,9.46,10.17,17.16,19.92,17.44,7.15.22,14.56-3.47,20.42-7.47,4.2-2.87,7.75-6.26,10.72-10.31,1.76,2.79,3.82,4.81,6.4,6.79Z"/>
        <path d="M61.34,129.86l-5.2,1.99c-2.01.77-4.21-.14-5.96-1.32-.64.89-1.46,1.59-2.49,1.62-3.29.09-6.09-1.92-6.84-5.42-1.65,1.65-3.06,3.22-4.95,4.28-3.54,1.99-7.71,1.57-10.61-1.4-3.23,2.41-6.23,3.58-9.67,1.439-1.2-.02-2.65-.09-3.82-.37l-1.99-.46,2.72-3.96c-.2-1.32-.42-2.83,1.2-3.83.83-.51,2.25-.79,3.34-1-.09-.89-.23-1.94.13-2.69.76-1.61,3.55-2.27,5.45-1.82l3.88.93c-.42,2.01.25,3.62,1.58,4.79,1.34,1.17,3.25,1.42,5.06.92,2.8-.78,4.51-3.35,3.47-6.15l4.61-2.25c1.36-5.03.92-9.93-1.65-14.31-1.83-3.11-5.46-4.82-8.99-4.13-2.84.56-4.86,2.49-5.97,5.05-.87,2.01-.5,4.4,1.59,5.55-.47-1.53-.38-2.79.46-3.91.78-1.05,1.98-1.58,3.41-1.63,1.9-.06,3.34.74,4.37,2.28,1.48,2.24,1.32,4.99-.32,7.25-2.03,2.78-5.5,4.06-9.06,3.37-4.71-.9-8.17-5.11-8.37-10.11-.2-5.14,2.41-10.37,6.72-13.28,6.54-4.42,17.02-3.19,22.11,3.95,1.18,1.65,2.69,3.99,2.78,6.02-.19,2.7-.7,5.14-.31,7.8,1.26,8.64,5.81,15.86,13.32,20.8Z"/>
        <path d="M484.22,130.13l-3.66.74c-1.35.27-2.39.4-3.63.87-2.87,1.09-5.84-.2-8.05-2.29-3.37,3.1-8.04,3.61-11.87,1-1.48-1-2.63-2.31-4.01-3.84-.66,3.37-3.54,5.85-7.13,5.38-.66-.09-1.47-.91-2-1.54-2.62,1.89-5.47,1.86-8.3.63l-2.77-1.19c9.81-6.91,14.61-16.39,13.13-28.35.49-3.27,2.63-6.59,5.11-8.86,5.45-4.99,13.78-5.59,19.94-1.52,4.43,2.92,6.95,8.18,6.6,13.38-.36,5.21-4.2,9.48-9.2,10.15-3.52.47-6.85-.94-8.61-3.83-1.41-2.32-1.48-4.98-.01-7.22.91-1.39,2.46-2.19,4.02-2.22,1.54-.02,3.2.73,4.06,2.16.68,1.14.35,2.47-.31,3.81,2.52-.95,3.12-3.6,2.16-5.93-1.04-2.53-3.27-4.3-5.59-4.82-3.04-.69-5.88.13-8.04,2.25-2.88,2.83-3.98,6.87-4.17,11.01-.08,1.74.54,3.69.82,5.4l4.5,2.03c-.08,1.02-.29,2.28-.01,3.09.78,2.28,3.19,3.46,5.38,3.34,2.2-.12,4.36-1.53,4.93-3.91l.11-2.1,2.56-.63c2.03-.51,4.229-.71,6.11.77,1.04.81.92,2.27.5,3.48,1.76.17,3.65.53,4.47,2.09.29.56.17,1.93.19,2.62l2.77,4.05Z"/>
        <path d="M50.02,38.41l-.67,2.08c-1.04,1.1-2.66,1.6-4.15,1.5-2.07-.13-3.95.76-5.26,2.33-3.75,4.46-9.52,4.4-14.79,1.65-2.09-1.09-4.73-1.85-7.14-1.79-2.05.06-4.24.53-5.83-1.04-1.12-1.09.08-2.81.31-3.81-.35-1.19-1.84-2.43-.91-3.96,1.09-1.78-.07-3.39.19-5.98,2.24.27,4.18.71,5.69,2.44,1.55-.78,3.33-.14,4.16,1.4l.1,2.87,2.96.65c.31-2,.88-3.77,1.92-5.46.6-.98.61-2.11-.04-3.07-.8-1.18-1.61-2.32-2.83-3.13-2.82-1.88-7.34,2.84-10.9-3.13-1.04-1.74-.03-2.66.09-4.1.17-2.13-1.54-4.67-.79-7.1,1.44.69,3.05,1.04,4.7.98l2.25.89c3.63-1.66,8.19,2.28,8.67,5.96.05.42-.33,1.36-.08,1.55l1.46,1.09c.34-1.88,1.1-2.67,2.79-3.33,2.67-1.05,6.37-.34,7.85,2.42.54,1,.69,1.39,1.91,1.89,1.28.54,2.09,2.2,2.6,3.59-1.74.7-3.66,1.01-5.2,1.91-1.93,1.11-3.73,2-6.01,1.1-.46.91-.87,1.55-1.5,2.11-1.84,1.67-3.49,4.09-3.14,6.72l.52,4.01c.61.02,1.26-.32,1.68-.83,2.93.479,5.72-1.47,6.03-4.521-.91-1.07-.72-2.34.31-3.09.97-1.02,1.98-.98,3.34-.19.18-1.74,1.74-3.21,3.28-2.81.72.19.97.24,1.72.09l4.85-.91-.17,2.75c-.23,3.71,2.08,4.09.03,6.27Z"/>
        <path d="M481.68,39.37c.81,1.07,1.33,2.83.229,3.8-1.77,1.56-4,1.06-6.18,1.01-2.22-.06-4.75.6-6.69,1.68-4.12,2.31-9.07,2.79-13.05-.07l-3.22-3.01c-1.7-1.58-5.78.16-7.99-2.44l-.09-2.08c-2.16-1.88-.04-2.7-.31-6.02l-.23-2.89,4.89.89c.45.08,1.23.59,1.62.45,1.03-.4,1.84-.28,2.66.2.72.41,1.02,1.36,1.1,2.21l1.2-.56c.3-.13.96.36,1.29.55,1.11.63,1.1,1.65.84,2.92-.53,2.6,2.27,4.58,4.69,4.74l2.06.13c2.68-2.52,1-7.38-1.82-9.95-.51-.46-1.04-1.34-1.36-1.92l-3.83-.04-.79-1.65c-1.3.14-2.47.14-3.65-.271l-2.88-1.03c-.04-2.46,2.26-3.43,3.57-4.76,1.25-1.26,1.49-2.96,3.68-3.5,2.18-.54,4.56-.7,6.48,1.05.62.57.86,1.45,1,2.54l1.78-1.09-.07-1.86c.58-3.16,3.11-5.55,6.35-6.16.76-.14,1.43.08,1.96.64,1.18-.97,2.39-1.24,4.01-1.17,1.06.04,2.31-.67,3.479-1.12.24,2.59-.76,4.93-1.29,7.22,1.06,1.08,1.34,2.12.68,3.56-1.4,3.09-4.43,4.76-7.81,3.23l-3.46.14c-1.89,1.28-3.01,3.09-3.54,5.25l1.82,3.62c.43.86.65,2.13.81,3.2l2.02-.53c1.81-.47.18-2.55,2.11-4.2.79-.67,1.74-.73,2.93-.37.4-.34,1.26-1.31,1.82-1.44l4.05-.96-.35,4.44.85,2.48c-.15,1.11-.75,2.13-1.37,3.14Z"/>
        <path d="M362.52,55.73c-1.06,4.32-5.27,9.91-8.82,11.56-.8.37-2.16.18-3.46.27l1.56,1.72c-6.26,3.17-14.94,3.95-21.86,3.08l-3.13-.4c3.62-3.62,6.3-7.63,7.71-12.55.28-.99.93-1.04,1.67-1.51,2.76-1.73,5.84-2.72,9.15-2.11l-1.02,3.2c2.89-2.39,6.06-3.33,9.61-2.48,2.91.69,5.67.14,8.59-.78Z"/>
        <path d="M167.86,71.96c-5.7,1.17-11.49.92-17.27-.22-2.46-.49-4.87-.98-6.94-2.44l2.04-1.65c-1.82-.67-3.53.39-4.86-.59-3.72-2.71-6.29-6.71-7.88-11.26l4.69.94c3.5.7,7.7-2.82,13.25,2.42l-.95-3.4c3.23-.47,6.56.28,9.21,2.3,1.04.2,1.55.91,1.87,1.98,1.33,4.51,3.77,8.16,6.84,11.92Z"/>
        <path d="M249.93,106.11c-.16,2.2-.87,3.8-2.7,5.02l1.16.3-1.31,3.21-1.31-2.97,1.12-.52c-.77-.72-2.12-1.81-2.24-2.83-.25-1.97-.66-3.46-1.98-4.92-1.05-1.15-1.3-2.69-.45-4.09,1.51-2.49,2.19-5.35,2.34-8.31l4.91.15c.49,2.48.73,5.29,2.15,7.5,2.45,3.82-1.53,5.32-1.69,7.46Z"/>
        <path d="M279.29,78.35c-1.55,1.1-3.06,1.97-4.83,2.77-3.27,1.49-4.23,4.09-7.16,2.38-.84-.5-1.88-1.05-2.88-1.25l-5.26-1.1c.61-1.87.521-3.36.19-5.25,2.47-.47,5.09-.9,7.12-2.14,2.06-1.27,3.93-1.11,5.67.55,1.21,1.15,3.21,1.52,4.74,2.28l2.41,1.76Z"/>
        <path d="M234.95,81.09l-5.34,1.19-3.11,1.36c-1.95.86-3.16-.02-4.21-1.28l-2.97-1.5-4.11-2.39c.87-.74,1.64-1.51,2.47-1.86l3.05-1.3c1-.42,2.01-1.21,2.81-1.88,1.56-1.3,3.14-.2,4.62.49,2.11.98,4.48,1.39,6.78,2-.38,1.82-.4,3.31.01,5.17Z"/>
        <path d="M251.64,58.63c-1.04,2.38-1.66,4.78-2.15,7.82-1.45-.2-3.12-.26-4.72.09-.31-2.45-.68-5.04-1.88-7.31-2-3.77.8-4.09,1.58-6.93.5-1.82,1.32-3.189,2.82-4.46,2.72,2.12,2.28,4.771,4.26,6.92,1.07,1.15,1.13,2.68.09,3.87Z"/>
        <path d="M268.69,90.28c-.52,1.23-1,2.72-2.35,3.21-2.03.74-3.22-.7-4.49-1.92l-4.65-4.43c-1.01-.96.71-1.7,1.49-4.13,2.2.87,4.57,1.85,6.96,2.15,1.43.19,2.53.29,3.21,1.55.64,1.16.38,2.3-.17,3.57Z"/>
        <path d="M237.53,86.46l-5.22,5.06c-1.52,1.47-2.91,2.9-5.1,1.86-1.03-.5-1.18-2.1-1.57-3.1-.48-1.23-.9-2.32-.35-3.44.6-1.21,1.68-1.26,3.02-1.47,2.49-.39,4.9-1.5,7.18-2.36.48,1.45,1.05,2.38,2.04,3.45Z"/>
        <path d="M261.92,97.68c-.25.92-1.25,1.34-2.31,1.81-1.22.53-2.08,1.21-3.4,1.02-.83-.12-2.2-.82-2.46-1.93-.63-2.79-1.32-5.47-2.79-7.98l4.06-2.29,6.17,6.72c.61.66.94,1.83.73,2.65Z"/>
        <path d="M243.07,90.46c-1.2,2.32-2.03,4.92-2.43,7.6-.17,1.09-1.04,2.06-1.81,2.29-1.24.36-2.28.15-3.26-.79l-2.21-.37c-1.66-.95-1.47-3.08-.19-4.43l6.06-6.39c1.24.84,2.48,1.52,3.84,2.09Z"/>
        <path d="M259.04,64.47c-1.56,1.34-2.89,2.97-4.11,4.55-1.21-.82-2.42-1.47-3.93-2.08,1.25-2.68,2.3-5.46,3.14-8.4.28-.99,1.57-1.61,2.34-1.77,1.24-.25,1.82.7,2.85,1.24.72.37,2.04.24,2.48,1.05,1.25,2.31-.7,3.64-2.77,5.41Z"/>
        <path d="M237.61,70.58l-2.19,3.55-3.1-1.48-5.41-1.18c-1.43-.31-2.06-2.25-1.45-3.63l1.25-2.85c.93-2.1,3.93-1.28,5.26.02l5.64,5.57Z"/>
        <path d="M267.45,71.59c-2.96.07-5.7.94-8.54,2.51l-2.19-3.43,3.11-3.03,3.56-3.24c.76-.7,2.29-.89,3.28-.43.81.38,1.52,1.4,1.67,2.5,1.23,1.71,1.07,4.13-.89,5.12Z"/>
        <path d="M243.24,66.73l-3.86,2.2c-1.3-1.63-2.76-3.28-4.38-4.62-2.07-1.71-3.7-3.44-2.11-5.41.46-.56,1.74-.58,2.37-.89,1.29-.63,2.16-1.52,3.47-1.01,1.31.51,1.84,1.45,2.07,2.94.36,2.29,1.39,4.55,2.44,6.79Z"/>
        <path d="M247.807,83.609c-3.136.309-5.613-1.445-6.087-3.817-.536-2.827.866-5.509,3.797-6.376,3.136-.928,6.086.805,6.912,3.88.701,2.682-1.012,5.942-4.622,6.314Z"/>
      </g>
    </g>
  </g>
</svg>