<?xml version="1.0" encoding="UTF-8"?>
<svg id="b" data-name="Layer 2" xmlns="http://www.w3.org/2000/svg" width="345.55" height="346.834" viewBox="0 0 345.55 346.834">
  <g id="c" data-name="Layer 1">
    <g id="d" data-name="XXMmHt">
      <g>
        <path d="M303.123,216.462l-130.108,130.372L0,173.86l36.887-37.211L142.072,30.947,172.962,0l31.349,31.491,71.667,72.166,37.605,37.911,31.967,32.392-42.427,42.502ZM173.067,338.614l13.24-13.359,53.942-54.241,67.697-68.036,28.775-28.877-14.179-14.329-85.087-85.289L173.045,9.838l-26.213,26.155-29.87,30.107-40.599,40.725L9.187,174.306l24.115,24.32,92.062,92.262,47.703,47.725Z"/>
        <path d="M178.551,151.265c-3.985-.675-7.729-.992-11.682.243-.56-9.631,1.417-19.159,5.415-28.183-3.532-6.409-7.336-12.373-12.055-17.978-6.451-7.822-13.466-14.744-21.456-20.984-6.023-4.635-12.175-8.447-19.068-11.757l35.005-35.197,18.407-18.38,41.457,41.652,11.689,11.772c-10.051,4.731-18.766,10.784-26.871,18.023-10.444,9.689-19.565,20.115-26.138,32.936,3.739,8.782,5.725,17.857,5.298,27.851Z"/>
        <path d="M191.719,310.782l-18.616,18.782-51.552-51.646c8.418-4.498,15.914-9.854,22.923-16.122l11.975-12.369c6.254-7.169,11.496-14.813,15.962-23.319-3.799-8.516-5.853-17.482-5.532-27.025,3.872.792,7.691.898,11.685-.008.354,9.546-1.657,18.44-5.309,27.027,2.693,5.431,5.772,10.231,9.304,15.079,5.204,6.84,10.721,13.072,16.973,18.995,7.544,6.99,15.605,12.953,24.855,17.758l-32.667,32.847Z"/>
        <path d="M228.786,176.732c-10.42,4.151-21.312,5.697-32.182,4.57.876-3.5.981-6.582.378-10.091,10.945-.962,21.846.791,31.896,5.09,21.69-10.785,40.017-28.767,50.763-50.452l48.142,48.278-10.731,10.744-39.971,40.104c-5.349-10.551-12.156-19.646-20.401-27.785-8.187-8.195-17.237-15.042-27.894-20.458Z"/>
        <path d="M149.025,181.29c-10.951,1.015-21.643-.361-31.801-4.573-4.428,2.138-8.284,4.544-12.319,7.28-15.014,10.789-27.76,24.365-36.025,41.201l-50.576-50.751,48.24-48.489c4.408,9.128,9.98,17.282,16.872,24.75l7.144,7.176c7.967,7.427,16.746,13.673,26.583,18.414,9.994-4.478,20.657-6.04,31.559-5.147-.561,3.297-.452,6.518.322,10.139Z"/>
        <path d="M194.816,164.314c-1.849-3.481-3.967-6.182-7.164-8.601,2.876-3.047,5.903-5.646,9.219-8.124,4.266-2.88,8.494-5.317,13.191-7.611,5.402-11.686,9.331-23.784,12.056-36.431,2.244-10.221,3.417-20.221,4.318-30.952l52.79,52.862c-17.978.819-34.933,3.869-51.579,9.452-5.722,1.919-11.042,4.03-16.337,6.609-1.899,4.094-3.826,7.715-6.232,11.373-2.9,4.236-6.127,7.98-10.262,11.423Z"/>
        <path d="M150.994,164.324c-4.425-3.544-7.845-7.647-10.945-12.221-2.211-3.615-4.034-7.134-5.813-11.08-20.529-9.862-44.28-14.669-67.201-15.535l52.46-52.635c.705,13.566,2.748,26.267,6.036,38.992,2.542,9.709,5.771,18.883,9.921,27.99,5.49,2.544,10.448,5.471,15.273,9.025l7.369,6.771c-2.949,2.359-5.284,4.977-7.101,8.692Z"/>
        <path d="M120.264,276.6l-49.244-49.241c17.344-1.216,33.809-4.496,49.846-10.22l13.257-5.588c2.75-6.419,6.138-12.247,10.556-17.597,2.111-2.43,4.263-4.635,6.761-6.565,1.872,2.779,3.646,4.912,5.998,6.871-6.191,7.513-13.697,13.303-22.426,17.57l-4.828,12.058c-5.663,16.943-8.88,34.25-9.919,52.711Z"/>
        <path d="M245.356,256.836l-19.637,19.742c-1.419-22.472-5.824-44.754-14.938-64.798-8.686-4.345-16.209-9.985-22.465-17.525,2.281-1.954,4.196-4.038,5.889-6.818,4.322,3.474,7.929,7.603,11.051,12.236l6.249,11.671c8.738,4.428,17.837,7.574,27.382,10.129,11.742,3.144,23.27,5.132,35.8,5.894l-29.331,29.469Z"/>
        <path d="M190.512,179.317c-1.443,6.304-6.181,10.95-11.45,12.804-10.669,3.754-22.084-2.573-24.023-13.793-1.957-11.321,6.944-21.283,18.113-21.082,11.298.203,19.978,10.632,17.36,22.072Z"/>
      </g>
    </g>
  </g>
</svg>