<?xml version="1.0" encoding="UTF-8"?>
<svg id="b" data-name="Layer 2" xmlns="http://www.w3.org/2000/svg" width="369.164" height="369.164" viewBox="0 0 369.164 369.164">
  <g id="c" data-name="Layer 1">
    <g id="d" data-name="Ruz8gN">
      <g>
        <path d="M184.829,337.056l-17.882-18.003-58.642-58.752-18.661-18.787-57.852-57.491,30.786-31.092,55.712-56.105,23.781-23.95,42.63-42.942,67.291,67.522,80.815,80.992,5.361,5.519-19.905,19.492-22.743,22.621-49.131,49.166-61.56,61.81ZM203.377,307.759l14.455-14.628,52.916-53,56.367-56.254-29.758-29.964-72.897-73.025-12.051-12.191-27.67-27.824-14.189,14.341-76.541,77.048-51.336,51.685,49.288,49.108,54.188,54.41,38.679,38.915,18.548-18.622Z"/>
        <path d="M172.104,255.588c3.538-7.107,5.443-14.33,7.083-21.965,1.448-7.629,2.612-15.011,3.15-22.779l1.734-25.044-15.926.675c-12.669.537-25.032,1.821-37.487,4.21-6.729,1.409-12.997,3.116-19.279,5.778-9.464,4.055-18.308,10.106-24.166,19.231l-22.859-23.013-8.737-8.65,18.54-18.596,12.147-12.248c8.035,13.239,19.714,20.046,34.219,24.222,6.909,1.989,13.694,3.199,20.891,4.133,14.185,1.841,28.194,2.602,42.715,2.8l-1.239-20.965c-.575-9.736-1.801-19.084-3.46-28.66-1.283-6.206-2.757-12.023-5.157-17.837-2.351-5.427-5.183-10.326-9.105-14.758-4.403-4.986-9.547-8.908-15.566-12.477l35.222-35.337,34.992,35.236c-3.996,2.296-7.454,4.852-10.838,7.88-6.261,5.89-10.791,13.011-13.972,21.036-3.198,8.015-4.96,16.162-6.188,24.754-1.942,13.585-2.814,26.982-3.392,40.911l25.331-1.105c10.575-.461,20.76-1.976,31.096-4.142,6.649-1.561,12.894-3.349,18.969-6.39,9.224-4.225,16.587-10.832,22.156-19.583l31.119,31.133-31.725,31.827c-4.013-6.292-9.184-11.145-15.371-15.091-5.94-3.815-12.286-6.32-19.094-8.281-7.649-2.054-15.129-3.364-23.054-4.309-13.151-1.569-26.112-2.272-39.384-2.558.559,13.356,1.467,26.192,3.298,39.217.924,6.569,2.159,12.701,3.929,19.022,1.722,5.636,3.82,10.82,6.8,15.899,4.814,8.151,11.43,14.733,19.693,19.544l-34.402,34.525-34.438-34.674c9.56-5.65,16.86-13.631,21.755-23.573Z"/>
        <path d="M235.637,156.207c-7.943-1.599-15.569-4.979-18.403-12.834-.92-2.552-1.479-5.065-1.946-7.794-1.117-8.509-.968-16.875.292-25.4.977-6.608,2.813-12.879,6.05-18.831l59.093,59.209c-13.64,6.083-30.338,7.835-45.086,5.65Z"/>
        <path d="M142.112,153.481c-4.053,1.889-8.094,2.863-12.484,3.259-13.423,1.209-28.343-.446-40.876-5.986l43.863-44.006,15.158-15.13c6.408,12.878,7.607,27.593,6.332,41.561-1.205,8.692-3.561,16.375-11.993,20.304Z"/>
        <path d="M221.123,277.273c-6.304-12.867-7.997-31.237-5.457-44.817,1.587-8.487,5.248-14.102,13.368-17.264,3.782-1.434,7.486-2.124,11.598-2.554,13.137-.916,26.319.887,39.028,5.95l-58.537,58.686Z"/>
        <path d="M154.059,235.645c1.381,13.709.091,28.91-5.91,41.307l-24.862-24.903-33.334-33.608c13.212-5.162,27.321-7.103,41.175-5.471,4.714.555,8.954,1.847,12.936,4.15,6.693,4.008,8.902,10.757,9.995,18.525Z"/>
      </g>
    </g>
  </g>
</svg>