<?xml version="1.0" encoding="UTF-8"?>
<svg id="b" data-name="Layer 2" xmlns="http://www.w3.org/2000/svg" width="376.206" height="471.027" viewBox="0 0 376.206 471.027">
  <g id="c" data-name="Layer 1">
    <g>
      <path d="M168.212,357.926c10.748.448,20.522,6.352,24.726,16.301,3.186,7.54,3.463,15.421,2.228,23.512-2.985,19.551-12.8,36.457-27.674,49.555-9.871,8.693-20.516,15.909-31.686,23.733-1.133-8.811-2.789-16.284-5.315-24.194-4.326-13.549-6.894-27.206-7.351-41.461-.614-24.402,7.996-44.158,33.608-47.563-2.769,6.438-4.434,12.528-3.982,19.126l1.456,21.279c-.011,8.866-1.746,17.241-4.08,25.698l-2.539,9.197c10.917-9.498,15.932-23.118,15.024-37.456-.467-12.839.629-24.913,5.585-37.726Z"/>
      <path d="M77.68,242.781c11.882-16.826,21.628-30.137,42.793-30.292-8.182,15.364-18.167,27.942-30.014,40.83,17.934-7.695,33.747-24.858,43.185-42.793,8.11,20.646,4.457,41.367-14.819,53.853-20.832,13.495-43.776,13.99-68.653,8.45,10.709-8.69,19.411-18.582,27.509-30.049Z"/>
      <path d="M188.472,286.132l-8.257,14.879-16.869,23.804c-4.218,5.952-7.965,11.751-11.052,18.218-9.546-6.325-11.74-17.931-5.794-27.302,3.477-5.479,7.976-9.845,12.982-14.117,15.958-13.616,24.831-28.166,23.998-50.473,5.749,4.09,9.507,9.437,12.537,15.453,7.466,14.824,10.504,31.551,8.287,48.014-1.009,7.49-3.285,14.278-7.829,20.08-6.673,8.522-18.002,11.48-22.108,6.488-3.724-4.528,2.522-16.967,5.855-24.51,4.776-9.434,8.526-19.311,8.249-30.535Z"/>
      <path d="M234.972,375.431c-16.244-12.08-26.086-33.327-20.105-53.897,9.392,17.124,23.782,34.749,42.135,42.842-8.94-10.97-17.202-20.965-24.341-32.512l-8.702-16.039c21.215-1.406,39.978,12.331,45.673,32.823,4.717,16.971-1.279,27.096,3.613,38.821-14.253.559-27.243-3.835-38.274-12.038Z"/>
      <path d="M109.543,339.188c-15.816,8.457-33.859,6.408-47.267-4.907-5.427-4.579-10.829-7.925-17.958-11.16l18.545-12.24c12.963-7.643,26.868-11.72,41.734-13.932,7.988-1.189,15.331-2.517,23.342-5.361l1.555,8.909c-16.618,8.769-33.058,15.435-51.36,21.289,5.971,1.655,11.761,1.26,17.722.545,12.57-1.508,24.246-5.057,35.476-11.009-2.705,12.495-10.735,21.954-21.79,27.865Z"/>
      <path d="M264.1,167.471c-11.35-.649-25.15-5.113-23.196-16.112,7.481-5.813,16.845-7.693,26.186-7.523,7.09.129,13.571,1.691,21.016,2.438-13.395-9.823-30.215-12.585-46.078-9.537.731-3.279.669-6.133-.345-9.657,13.916-10.284,33.062-11.324,48.184-2.335l11.114,6.335c5.099,2.907,10.464,3.97,16.969,4.737-11.661,19.848-31.022,32.96-53.851,31.655Z"/>
      <path d="M134.341,46.603c5.621,25.875-12.58,42.395-36.998,46.377-6.827,1.113-13.831,1.61-20.804,1.196l-16.518-.98c7.373-8.622,12.612-17.877,16.171-28.535,1.357-4.065,3.204-7.884,5.152-11.651,5.553-9.269,15.277-13.639,26.026-13.165,6.882.304,13.367-.378,20.62-2.209-6.369,10.486-15.493,17.904-25.505,24.182-5.896,3.697-11.258,7.444-15.302,13.466,19.613-3.932,36.041-12.842,47.159-28.681Z"/>
      <path d="M190.175,73.193c7.177-13.031,23.019-15.561,37.634-13.829-12.892-8.937-33.13-6.046-44.988,3.426l-4.032-5.692c9.739-17.632,30.926-24.844,49.232-16.526l12.456,5.66c4.68,2.127,9.731,3.212,15.12,3.964-3.073,2.836-5.82,5.873-7.73,9.711-6.893,13.85-20.045,23.464-35.626,24.611-9.06.667-17.187-3.182-22.067-11.325Z"/>
      <path d="M196.418,173.616c-12.706,9.479-30.08,9.914-42.842,1.031-4.803-3.343-8.451-8.272-8.551-14.165-.099-5.852,3.332-11.135,8.081-14.541,12.021-8.622,28.549-9.688,41.081-1.863,5.304,3.311,9.374,8.263,9.868,14.471.472,5.928-2.675,11.366-7.637,15.067Z"/>
      <path d="M173.665,95.887c-8.071,5.233-17.998,3.299-23.177-4.185l12.063-9.052c-13.032-18.246-24.617-43.035-17.604-64.143,4.753-14.306,19.347-21.638,33.288-17.234-13.116,5.342-17.632,17.423-17.607,30.799.968,19.746,9.517,38.222,23.629,51.852-1.905,5.762-5.881,8.909-10.592,11.964Z"/>
      <path d="M132.801,191.635c-5.878,8.115-23.182,7.85-33.662,5.872-4.924-.929-7.996-4.451-8.419-9.396-1.032-12.07,1.949-26.302,13.229-31.9,8.802-4.369,24.297-9.246,31.768-3.586-7.888,8.265-5.928,19.755,2.604,27.429-1.387,4.053-2.981,8.073-5.521,11.581Z"/>
      <path d="M215.819,211.693c-14.294,4.007-26.372-5.93-28.693-20.446,13.813-3.357,25.222-11.631,28.868-25.793,4.851.032,10.299.984,13.548,4.824,3.863,4.566,6.68,10.047,9.027,15.549,5.043,11.824-10.311,22.379-22.751,25.866Z"/>
      <path d="M347.581,293.598c-2.563,8.491-9.968,13.89-17.784,14.703-8.657.901-16.479-3.327-20.845-10.748-5.181-8.807-2.954-19.247,5.163-25.476,7.322-5.619,17.092-6.521,24.889-1.26,6.976,4.707,11.333,13.646,8.576,22.781Z"/>
      <path d="M40.313,224.965C24.069,235.324-.445,227.006.006,214.135c.156-4.447,3.126-8.045,6.848-10.355,15.937-9.895,39.368-3.888,39.826,9.427.154,4.48-2,8.974-6.367,11.758Z"/>
      <path d="M281.553,276.619c-17.894,5.132-41.149.073-46.615-17.885,2.863-2.653,5.083-5.068,7.271-8.585,5.801,8.086,14.54,14.356,25.138,16.297-9.15-7.27-15.572-15.659-19.193-26.575l9.167-1.75c8.074-.641,14.5,3.995,17.189,11.398l2.254,12.536c.945,5.258,1.909,10.117,4.789,14.563Z"/>
      <path d="M196.862,131.845c-13.106-5.328-26.594-5.181-39.912-.833-4.127-4.869-3.271-12.44,2.394-16.309,5.324-3.636,10.912-6.693,16.771-9.689,10.065-5.147,19.512-3.089,27.729,4.246,2.854,3.338,3.457,7.053,1.668,10.959-2.171,4.191-4.851,7.815-8.648,11.626Z"/>
      <path d="M53.742,147.303c-6.354,4.936-10.075,12.502-11.714,20.668l-4.766-3.288c-3.685-17.228,6.262-27.246,21.926-34.001,4.17,3.705,7.488,7.803,9.759,12.884,6.384,14.288-.441,30.269-14.83,35.92-2.743-3.445-3.338-7.065-3.438-11.268.562-6.826,1.743-13.01,3.064-20.915Z"/>
      <path d="M148.049,134.78c-14.085.678-26.226,4.434-37.908,11.294-2.446-1.54-4.931-3.49-6.124-6.003-6.533-13.757,14.851-23.861,27.874-28.311,5.056-.984,9.013.931,11.468,5.286,2.441,5.31,3.896,10.842,4.689,17.735Z"/>
      <path d="M279.267,206.429l-3.955,8.243c-1.146,2.388-4.051,5.125-6.955,4.894-5.197-.414-8.574-5.511-8.358-10.72.444-10.712,8.707-19.334,19.152-21.518,8.26-1.727,16.172,1.822,21.202,8.355,6.767,8.787,5.815,20.679-2.185,28.368-2.376-8.399-6.502-20.695-13.337-20.841-1.629-.035-4.712,1.443-5.564,3.219Z"/>
      <path d="M332.749,257.968c-13.893-1.7-28.648,6.735-34.159,20.48-5.69-2.925-8.132-9.532-6.478-15.979,2.659-10.365,10.725-18.979,20.711-22.573,6.327-2.277,12.781-1.805,17.844,2.303,4.917,3.989,5.845,10.587,2.082,15.769Z"/>
      <path d="M234.345,241.969c-1.561,5.896-6.212,10.481-10.929,12.533-6.423,2.794-12.59,2.277-18.521-.898-15.892-8.506-27.799-29.153-21.41-46.301,10.297,20.796,25.741,40.45,50.86,34.665Z"/>
      <path d="M350.937,335.061c-4.738,2.159-9.75,2.413-14.103.564-6.846-2.907-10.032-10.666-6.713-17.147,11.812-1.217,21.732-8.124,26.699-18.81,5.468,1.809,8.935,6.87,9.021,12.82.14,9.585-5.975,18.504-14.905,22.573Z"/>
      <path d="M322.021,318.259c-.346,6.566-5.51,11.801-12.468,12.19-12.47.698-23.955-8.684-25.221-21.32-.776-7.752,4.309-17.821,12.424-20l.549,5.433c2.905,12.086,12.427,21.06,24.715,23.697Z"/>
      <path d="M370.023,289.52c-3.295,2.731-7.034,3.786-11.108,2.267,1.13-13.342-5.917-26.248-18.633-31.569,2.267-4.869,6.938-7.268,12.189-7.301,10.784-.07,20.373,7.686,23.089,18.117,1.77,6.801-.111,13.99-5.537,18.486Z"/>
      <path d="M167.72,213.891c-4.776,3.66-10.911,3.452-15.454.034-8.708-6.552-14.323-20.262-7.779-28.799,9.293,6.368,19.938,8.119,30.837,8.051,1.59,7.951-1.216,15.818-7.604,20.714Z"/>
      <path d="M234.278,133.443c1.429,12.251-4.81,26.551-17.649,25.232-.558-9.628-5.538-17.631-13.621-23.08,4.674-6.133,11.984-10.686,20.067-11.357,5.814-.483,10.246,3.687,11.203,9.205Z"/>
      <path d="M4.15,245.496c-1.31-2.751-1.514-5.354-1.165-8.499,15.9,4.337,32.642,4.462,46.426-5.538-.763,11.279-7.725,21.207-18.159,25.267-10.541,4.102-22.226-.993-27.102-11.23Z"/>
      <path d="M339.072,215.591c-10.016-.206-18.873,2.689-27.473,7.33-.959-6.777,1.932-12.26,6.307-16.863,12.662-10.728,30.516-10.399,41.765,3.189-5.786,4.265-12.682,6.506-20.599,6.343Z"/>
      <path d="M46.107,194.17c-14.274-5.099-28.879-4.353-43.243.456-.985-3.437-.523-6.099.57-8.956,4.246-8.286,12.579-13.295,22.097-13.196,10.921,1.313,19.915,9.852,20.576,21.696Z"/>
      <path d="M235.136,305.588c-6.688-.385-12.21-1.419-18.408-3.031-.534-4.032-.187-7.519.861-10.981,13.198,3.508,26.069,1.312,37.825-4.452,4.711,1.756,9.045,2.353,14.898,2.603-9.117,9.876-21.442,15.275-35.176,15.861Z"/>
      <path d="M167.421,272.317c-12.259-8.182-22.186-29.794-15.482-42.166,1.407-2.597,4.322-3.993,7.221-4.425-.605,12.977,3.547,24.976,11.839,34.951l-3.577,11.639Z"/>
      <path d="M86.406,207.893c-7.883,7.275-18.351,13.368-29.587,11.387,1.815-5.73,1.492-11.108-1.933-16.403,9.906-5.094,22.139-1.831,31.52,5.016Z"/>
      <path d="M151.861,278.774l-10.184,14.169c-2.485-7.767-.408-15.161,3.554-22.346l6.63,8.177Z"/>
    </g>
  </g>
</svg>