<?xml version="1.0" encoding="UTF-8"?>
<svg id="b" data-name="Layer 2" xmlns="http://www.w3.org/2000/svg" width="269.524" height="457.526" viewBox="0 0 269.524 457.526">
  <g id="c" data-name="Layer 1">
    <g id="d" data-name="InliqP">
      <g>
        <path d="M171.047,456.014c-27.878,2.317-55.416,2.001-82.99-1.149-12.383-1.414-58.798-8.511-49.332-24.731,1.181-2.024,2.934-3.655,4.83-5.405-2.181-2.94-2.223-6.809.289-9.594,1.77-1.963,3.993-3.186,6.52-4.246-1.269-5.57-2.905-10.778-5.329-15.879l-10.206-21.473c-13.18-27.728-24.493-51.167-30.556-81.953C.816,274.031-.621,256.567.247,238.681c.582-11.995,2.07-23.52,5.328-35.037,5.04-17.815,15.377-34.313,31.878-43.26.539-.688.079-2.164-.533-2.731-3.154-2.923-3.134-7.529-.208-10.665,2.279-2.442,5.369-3.794,8.542-5.041l3.563-6.878c.583-1.125,2.061-2.122,3.135-2.11,1.332.015,2.427.872,3.372,2.398,12.345-11.663,27.732-17.211,44.775-20.281-1.016-2.588-.128-5.336,2.289-6.599,1.116-.584,2.127-.859,3.62-1.266l.093-5.437c-3.385-1.486-5.39-3.596-4.767-6.937.272-1.457,1.494-2.841,3.128-3.785-8.108-6.796-11.906-16.838-10.757-27.13l1.997-12.808c1.042-6.686-.981-8.408-.798-9.854.147-1.159,3.308-.725,5.895,1.284,2.777-9.97,10.467-16.319,15.897-25.053,2.097-3.373.85-6.396,1.956-6.886,1.209-.536,2.768,1.016,4.078,2.659l3.904-3.459c3.07-2.563,5.664-5.387,6.907-9.238l1.095-.55c.242-.122.888.443,1.004.765,1.329,3.701,4.328,6.792,7.336,9.394l3.562,3.08c1.533-2.099,3.78-3.455,4.36-2.522.643,1.035-.289,4.434,2.013,7.533l8.418,11.331c2.945,3.964,5.593,8.048,6.961,12.936,2.218-1.441,5.046-2.62,5.833-1.437.653.982-1.819,2.875-.824,9.262l2.028,13.018c1.624,10.423-2.567,20.44-10.524,27.621,1.687.764,2.864,1.978,3.269,3.316,1.024,3.382-.96,5.961-4.686,7.39l.036,5.542c2.266.24,4.069.85,5.488,2.494,1.258,1.457,1.405,3.481.676,5.293,16.532,3.068,32.667,8.692,44.52,20.382.923-1.433,2.011-2.313,3.25-2.437,1.382-.138,2.787.771,3.514,2.102l3.783,6.927c3.367,1.234,6.418,2.736,8.691,5.282,2.579,3.356,2.493,7.429-.566,10.456-.653.245-1.294,2.217-.551,2.625,19.71,10.805,30.421,32.158,34.274,53.839,4.212,23.706,3.903,47.745-.181,71.475-1.818,10.561-3.984,20.659-7.356,30.817-5.789,17.439-12.803,34.108-20.9,50.55l-7.02,14.255-8.402,18.537-3.404,11.174c2.537.993,4.437,2.133,6.134,3.869,2.629,2.689,2.827,6.541.684,9.736,1.719,1.74,3.426,3.392,4.649,5.398,2.171,3.562,1.464,7.714-1.603,10.475-11.096,9.992-41.962,14.181-58.054,15.518ZM129.653,16.569c1.855-1.834,3.324-3.773,4.857-6.02,1.757,2.421,3.457,4.626,5.489,6.575l5.883,5.642c-.078-.927-.124-1.543.093-2.251,1.165,2.826,1.959,4.636,3.82,6.61,5.825,6.177,11.078,14.42,12.989,22.716,1.189-2.121,2.34-3.783,3.95-5.421-1.049-4.672-3.481-8.858-6.384-12.766l-8.731-11.754c-1.561-2.102-2.368-4.52-2.267-7.159-2.369,1.791-2.833,4.342-3.169,7.128-.852-1.171-.802-2.471-.349-4.193-3.723-4.421-8.73-6.49-11.241-12.487-1.549,3.259-3.693,5.661-6.348,7.878-1.667,1.391-3.567,2.748-4.775,4.565-.038.844-.006,2.201-.459,2.953-.767-2.298-1.324-4.175-2.975-5.666-.294,2.775-.92,4.907-2.422,6.905l-6.48,8.616c-3.607,4.797-7.667,9.77-8.627,15.773l3.819,5.527c2.248-9.428,7.488-16.638,13.782-23.456,2.387-2.586,2.018-4.478,3.442-5.879l-.149,2.348,6.254-6.183ZM134.533,17.906l9.407,9.315c8.296,8.287,14.298,16.974,16.25,28.971l1.781-4.74c-2.718-12.899-12.075-23.169-21.398-31.99-2.223-2.103-4.205-4.349-6.041-6.655l-4.091,4.749-10.159,10.316c-5.554,5.64-12.081,15.947-13.052,23.837l1.602,4.492c1.404-7.996,4.648-15.034,9.505-21.296,2.886-3.722,6.189-6.906,9.485-10.23l6.711-6.768ZM107.583,73.845c.956,7.028,4.964,15.961,11.259,18.739.738.326,2.064.338,3.168.392l-2.918-2.588c.243-.144.703-.433.612-.596l-.339-.616c-5.197-9.431-.011-20.932,6.67-28.938l5.57-6.674c1.696-2.032,1.691-4.856,3.023-4.751,1.087.085,1.379,3.356,4.731,7.087,3.184,3.542,6.214,7.035,8.551,11.197,4.129,7.355,5.493,15.521,1.626,23.126,6.753-5.03,8.19-14.046,8.856-22.296.224-2.773,1.021-5.545,1.02-8.304-.007-13.713-8.939-24.882-18.441-34.087l-6.441-6.239-6.543,6.234c-9.648,9.192-17.563,19.846-18.502,33.526l1.518,11.866c.51,4.808,1.77,9.189,3.613,13.633l3.994,5.481c-3.752-2.663-5.666-6.974-7.091-11.361-3.24-9.98-1.183-19.545-7.354-29.618-1.673-2.731-3.687-5.064-6.771-6.257,2.556,3.376,5.079,6.579,5.798,10.854l-5.129-8.494c.186,6.866-1.981,12.953-2.503,20.658-.669,9.859,3.728,19.265,11.736,24.959,2.872.87,5.837,1.275,8.926,1.616-7.01-5.719-9.364-14.141-10.076-23.006-.377-4.702-1.225-9.023-2.176-13.715,1.314,2.513,1.861,5.292,2.254,8.182l1.359,9.992ZM164.225,58.303l-1.238,10.058c-1.181,9.595-1.947,17.363-10.264,24.132l9.343-1.632c7.264-5.684,11.748-14.278,11.524-23.603-.121-5.034-1.053-9.676-1.957-14.535l-.583-7.605c-2.444,3.326-4.045,6.749-5.945,10.381.621-2.533,1.34-4.965,2.746-7.048l3.803-5.635c-7.617,3.357-10.83,13.936-11.645,21.911-.923,9.028-2.196,19.763-9.437,25.402l-3.585,2.792c5.872.87,11.017-6.91,13.003-12.755,2.618-7.707,1.762-15.049,4.235-21.862ZM139.698,67.398l-5.094-6.254-4.468,5.349c-1.846,2.21-3.623,4.395-4.854,6.993-3.247,6.853-1.799,14.949,3.775,19.915l11.099-.012c5.971-5.395,6.772-13.363,3.583-20.844,4.463,6.066,3.102,14.58-1.792,20.415,1.489.692,3.234.084,4.496-1.21,5.652-6.366,4.585-15.279.673-22.781-3.752-7.194-9.141-10.822-12.533-17.215-3.607,6.498-8.519,9.749-12.38,16.892-4.009,7.417-5.191,16.597.468,22.937,1.228,1.376,2.787,2.083,4.698,1.487-5.19-5.705-6.105-13.814-2.41-20.589,1.598-2.931,3.764-5.267,5.742-7.943l3.875-5.243,2.965,4.145,4.937,5.94c.481.579.792,1.692.846,2.603l-3.622-4.583ZM162.279,99.889c1.725-.296,3.299-1.568,3.917-3.052.577-1.386-.418-2.855-1.21-3.488-1.407-1.125-2.347-.381-3.884-.1-15.964,2.925-32.271,3.019-48.355.819l-6.39-1.287c-1.704-.343-3.462,1.824-3.109,3.51.316,1.51,1.66,2.915,3.14,3.326,12.688,3.524,33.052,3.342,46.47,1.889l9.42-1.616ZM161.172,102.515l-8.116,1.267c-11.237,1.257-22.306,1.305-33.574.336l-11.332-1.662c.046,2.246.036,4.338-.522,6.476,7.132,1.397,14.276,2.152,21.678,2.352,11.065.3,22.041-.249,32.602-2.347-.732-2.256-.733-4.032-.736-6.422ZM168.012,112.727c-.083-1.112-1.03-2.254-2.089-2.861-1.226-.703-2.342-.733-3.451.239-13.395,2.584-26.898,3.076-40.563,2.018-5.205-.403-10.088-.891-15.024-2.238-1.181-.322-1.826-.752-3.137.019-.993.584-1.99,1.739-2.081,2.835-.285,3.428,5.508,4.452,9.994,5.069,14.899,2.047,29.853,2.042,44.792.264,4.944-.588,11.835-1.632,11.559-5.346ZM95.157,139.142c5.49-7.385,11.615-13.64,19.394-18.728l-4.133-.638-8.669,6.803c-5.303,4.709-9.824,9.92-14.646,15.134-2.66,2.877-5.448,5.38-8.841,7.325-9.221,5.284-21.043,2.007-20.874-4.151.186-6.749,9.322-13.333,15.44-16.722,9.382-5.198,19.355-8.251,30.102-10.246l-1.627-1.038c-16.632,2.802-33.468,8.685-45.436,20.884.379,2.541-.575,4.9-2.614,6.48-1.324,3.879.549,7.853,4.454,9.532,5.09,2.188,10.753,2.68,16.265,1.81,3.848-.607,6.905-2.372,10.225-4.179.842-.458,1.763-.559,2.222-1.788.537-1.437,1.625-3.178,3.157-3.638.639-.192,1.931.598,2.633,1.099l1.353-4.396-2.705,2.242,4.3-5.785ZM178.447,144.807l-2.303-1.704,1.188,3.684c.7-.283,1.993-.73,2.793-.668.676.053,1.568,1.06,2.018,1.755l2.457,3.797,1.311-.048c4.342,3.087,9.364,4.391,14.713,4.388,4.086-.159,8.214-.715,11.75-2.526s5.128-5.445,3.867-9.087c-2.034-1.591-2.936-3.986-2.466-6.517-12.133-12.348-26.716-17.271-43.3-20.696-1.476-.305-2.68-.397-3.698.715,10.486,1.895,20.301,5.043,29.508,10.089,6.306,3.456,17.081,11.04,15.705,17.903-1.23,6.132-14.615,8.684-23.609,1.21l-1.792-1.49c-2.255-1.873-4.221-3.822-6.205-6.041-6.502-7.273-13.252-14.014-21.111-19.745l-4.118.684c5.919,4.174,11.323,8.502,15.682,14.254l7.61,10.044ZM80.368,146.601c5.887-4.394,11.82-12.833,19.054-19.165l6.315-5.528,3.076-2.329-3.83-.861c-9.334,1.474-18.292,3.878-26.809,7.956-7.059,3.379-15.778,8.478-19.115,15.339-1.426,2.932-.341,6.021,2.762,7.315,6.043,2.52,13.019,1.399,18.547-2.727ZM207.877,149.216c3.048-1.346,3.904-4.427,2.645-7.084-1.411-2.976-3.634-5.349-6.184-7.448-10.813-8.902-25.834-13.759-39.635-16l-3.865.968c6.73,4.985,12.311,10.323,17.77,16.317,3.365,3.695,6.483,7.383,10.349,10.44,5.389,4.261,12.699,5.555,18.919,2.807ZM133.549,121.554l-2.767.078c.932,8.448,1.117,20.995-2.802,28.274-4.079,7.575-14.737,8.994-22.594,5.736-2.899-1.202-5.274-3.59-5.97-6.601-.782-3.387.426-6.549,2.259-9.233l4.547-6.659c3.962-4.875,8.685-8.84,13.995-12.148l-3.72-.421c-7.626,4.812-14.304,10.982-19.564,18.361-1.989,2.79-3.271,5.751-3.853,9.036,1.663,1.933,2.44,4.001,2.406,6.473,4.02,6.097,10.816,6.645,17.782,7.029,3.871.214,7.57-.006,11.147-1.495,4.453-1.854,8.102-5.463,8.776-10.284l.821-5.868.031-14.764-.493-7.515ZM139.671,145.634c-1.895-8.018-2.007-16.071-1.024-24.055l-3.126.046-.275,17.146c-.142,8.831.46,17.271,9.41,21.076,3.775,1.605,7.652,1.88,11.745,1.624,3.698-.232,7.197-.18,10.675-1.679,8.9-3.836,5.494-6.132,8.974-11.813.304-2.672-1.469-5.911-3.035-8.2-5.294-7.734-12.016-13.932-19.834-19.085l-3.836.367c5.206,3.332,9.518,6.911,13.331,11.435,1.436,1.921,3.254,3.549,3.699,6.147-5.223-7.149-11.073-13.009-18.788-17.394l-7.981.353c-.851,8.045-.715,15.859.964,23.62,1.117,5.162,4.793,9.067,9.859,10.317,4.789,1.182,9.836.848,14.183-1.308,4.155-2.061,5.728-6.541,3.94-10.75l-2.172-5.111c2.675,2.218,3.741,5.701,3.769,9.042.068,8.15-11.233,11.265-19.79,9.252-5.409-1.273-9.352-5.377-10.687-11.03ZM104.84,154.265c8.608,4.093,20.986,1.994,23.654-7.824,2.181-8.024,1.958-16.411,1.237-24.815l-7.806-.497c-3.726,2.31-7.401,4.483-10.429,7.663l-4.354,4.575-4.691,6.515c-.845,1.173-1.339,3.098-1.835,4.562-1.323,3.903.27,7.941,4.225,9.821ZM51.26,144.353c2.062-1.548,3.632-3.839,3.254-6.489-.199-1.394-1.474-3.217-3.011-2.946-1.803,2.125-2.821,4.903-4.132,7.445-.848,1.643-2.523,3.217-2.235,5.293.177,1.279,1.766,2.412,3.098,2.75,1.254-1.757.566-4.206,3.026-6.053ZM224.485,147.84c.053-2.169-.917-4.069-2.371-5.427-.976-2.57-2.047-5.457-4.007-7.412-1.213-.586-2.57,1.204-2.863,2.242-.794,2.814.538,5.468,2.874,7.04,2.761,1.857,1.688,5.073,2.966,5.918.89.589,3.373-1.209,3.401-2.361ZM231.414,148.406c-1.793-1.816-3.864-3.041-6.13-3.845.968,2.317,1.214,4.068-.433,5.589-4.224,3.901-16.531,6.641-23.331,7.905-13.802,2.566-27.417,4.134-41.546,4.827-18.15.89-35.938.822-54.026-.246-14.262-.842-51.86-4.574-60.98-12.27-1.82-1.536-1.751-3.436-.547-5.787-2.406.815-4.539,2.095-6.234,3.943-2.034,2.217-2.039,5.494.283,7.606,5.846,5.315,18.225,8.05,26.684,9.583,33.773,6.119,72.566,6.587,106.825,4.157,15.418-1.094,36.092-3.653,50.293-8.727,3.214-1.148,6.225-2.683,8.773-4.819,2.477-2.078,2.693-5.562.368-7.915ZM51.668,148.906l-.066-3.44c-1.155,1.612-1.512,2.993-1.984,4.78l2.05-1.34ZM219.576,149.934c-.16-1.432-.653-2.973-1.517-3.939-.415,1.887-.166,3.214,1.517,3.939ZM94.147,160.228c.015-1.082-.268-1.759-.798-2.498,1.808-3.775.455-8.358-3.309-10.364-2.431,2.171-3.817,5.136-4.172,8.327-.112,1.005.662,3.496,1.642,3.63l6.636.905ZM182.233,159.276c3.12-3.278.301-8.792-2.852-12.1-3.855,2.502-5.241,6.778-3.211,10.797-.683.574-1.032,1.719-.559,2.236l6.622-.932ZM146.078,161.923c-6.387-2.352-10.342-6.662-11.442-12.894-1.154,6.488-5.305,10.783-11.497,12.911l22.939-.017ZM219.789,151.551l-2.085-2.311-1.998,3.708,4.083-1.397ZM54.202,153.205l-2.395-3.428-2.187,1.675,4.582,1.753ZM85.324,159.23c-1.317-2.415-.988-4.599-.031-7.338-4.068,3.178-8.366,4.553-13.553,5.416l13.584,1.922ZM197.397,157.312c-5.244-.993-9.336-2.331-12.987-5.253.877,2.853.996,4.827-.14,7.192l13.127-1.939ZM101.442,160.929c-2.379-1.224-4.49-2.54-6.012-4.464-1.112.739-.697,3.664.446,3.887l5.565.577ZM174.201,160.368c.867-1.93.762-2.834-.15-4.081-1.593,2.162-3.325,3.112-5.619,4.501l5.769-.421ZM229.827,160.342l-7.777,3.463-12.983,3.59c-12.719,2.631-25.361,4.134-38.399,5.042-27.568,1.92-54.997,1.785-82.531-.944-12.28-1.217-24.113-3.053-35.893-6.177-4.456-1.182-8.275-2.836-12.456-5.026.64,1.907,2.234,3.222,4.009,4.135,4.44,2.282,9.041,3.849,13.988,5.039,32.625,7.844,76.015,8.358,109.696,6.233,16.593-1.047,36.976-3.345,52.438-8.596,3.55-1.206,9.315-3.694,9.907-6.758ZM63.461,172.738c-6.859-1.592-12.702-3.035-18.487-5.524-2.653-1.241-4.925-2.638-6.739-4.896-9.682,5.407-17.096,13.155-22.41,22.547,10.776,5.01,23.358,7.04,34.906,9.048,3.252-7.867,7.462-14.778,12.729-21.176ZM218.587,193.944l19.568-3.898c5.375-1.441,10.488-3.005,15.474-5.479-5.449-9.429-12.745-16.978-22.208-22.222-1.861,2.305-4.193,3.799-6.975,4.982-5.973,2.542-12.185,4.07-18.495,5.42,5.432,6.514,9.373,13.456,12.636,21.197ZM74.183,424.014c-.905-12.409-3.23-23.849-6.425-35.606l-7.136-26.261-7.404-32.128c-4.407-21.877-7.227-43.775-7.856-66.125-.476-16.909.57-33.399,4.062-49.869,2.975-14.033,8.937-29.351,18.365-40.482l-2.795-.579c-7.757,9.048-13.115,19.676-16.544,31.147-1.313,4.392-2.4,8.425-3.232,12.978-2.939,16.088-3.844,32.14-3.095,48.597,1.449,31.853,7.324,65.886,15.904,96.592l8.703,31.144c2.798,10.012,4.336,19.893,4.948,30.197l2.506.397ZM197.687,423.702c.735-11.049,2.644-21.663,5.665-32.356l6.652-23.544c3.927-13.898,7.168-27.67,9.905-41.898,4.213-21.9,6.729-43.713,7.194-65.993.189-9.041-.178-17.577-.938-26.613-1.054-12.539-3.594-24.593-7.843-36.366-3.191-8.843-7.778-16.553-13.696-23.794l-2.897.486c10.076,12.358,15.654,28.047,18.586,43.622,2.684,14.256,3.843,28.491,3.446,42.979l-.366,13.393c-1.069,18.134-3.275,35.915-6.721,53.784-3.544,18.375-7.923,36.175-13.025,54.141-3.046,10.727-5.592,21.234-7.286,32.203l-1.202,10.419,2.525-.462ZM85.401,425.94l-2.357-20.793c-.995-8.775-3.435-16.919-5.321-25.575l-9.455-43.404c-3.131-16.598-5.248-32.975-6.604-49.798-1.456-18.064-1.495-35.859.042-53.896,1.41-16.545,4.392-33.163,10.849-48.439,1.431-3.137,2.965-6.053,4.865-8.96l-8.758-1.384c-5.641,7.081-10.198,14.641-13.3,23.226-2.639,7.304-4.607,14.506-5.933,22.166-4.235,24.48-3.813,49.71-1.044,74.334l4.234,28.984c3.812,20.752,8.847,40.873,14.595,61.149,2.461,8.682,4.493,17.119,6.061,25.931l1.636,14.859,10.489,1.6ZM194.463,424.343c.707-10.752,2.636-20.702,5.267-30.832l2.841-10.941c6.11-21.446,11.331-42.976,14.987-65.089,6.217-37.606,9.284-86.799-4.502-122.485-3.027-7.834-7.161-14.871-12.373-21.249l-8.636,1.377c3.708,5.887,6.338,12.168,8.368,18.874,6.107,20.17,8.128,43.321,8.204,64.53.093,25.982-2.72,51.573-7.348,77.14-3.124,17.256-7.108,34.055-11.09,51.094-3.053,13.063-5.165,25.816-6.007,39.284l10.289-1.702ZM88.758,426.263c-.716-10.341-1.13-19.867-3.326-29.67l-7.553-33.711-5.952-28.971c-3.759-20.839-5.992-41.619-6.813-62.832-.593-15.321-.038-30.231,1.642-45.377,1.896-17.098,5.692-35.707,14.897-50.131l-3.098-.411c-10.698,16.352-14.597,40.587-16.073,60.302-3.072,41.022,2.555,85.116,11.817,125.177l7.235,31.292c2.615,11.311,4.033,22.403,4.448,34.031l2.777.302ZM183.805,420.715c.607-12.084,3.052-23.382,5.632-35.025l9.587-43.263c4.347-22.211,7.221-44.381,8.256-67.013,1.128-24.689-.228-53.295-6.577-76.998-2.217-8.277-5.082-15.944-9.697-23.134l-3.147.389c4.319,6.703,7.028,13.566,9.111,21.059,2.797,10.061,4.471,19.97,5.581,30.399,4.12,38.687.515,78.778-6.922,116.913l-8.938,40.341c-3.091,13.951-5.23,27.666-6.026,41.99l2.867-.245.272-5.413ZM195.693,196.637c-2.185-7.396-5.004-14.362-9.188-20.827-22.852,2.576-45.565,3.234-68.534,2.499-11.807-.34-23.125-1.129-34.951-2.499-4.248,6.353-7.012,13.451-9.402,20.834,16.032,1.845,31.563,2.75,47.513,3.139l25.961-.018c16.307-.34,32.208-1.266,48.6-3.129ZM220.723,199.934l21.216-4.344c5.21-1.067,9.71-2.959,14.683-5.464l-2.393-4.589c-10.671,5.363-23.32,7.514-35.24,9.584l1.735,4.813ZM48.487,199.887l1.821-4.819c-9.202-1.462-17.945-3.196-26.665-5.807-2.992-.896-5.432-1.948-8.483-3.382l-2.375,4.61c10.974,5.312,23.899,7.305,35.701,9.397ZM246.855,236.973c6.994-1.299,13.258-3.387,19.748-6.021l-.252-3.424c-1.562-.119-3.344-.209-4.675.311l-4.327,1.692c1.046-1.701,2.108-2.736,2.673-4.383.755-2.2.845-4.555,1.116-7.046,1.239,2.973,1.617,6.226,4.965,8.204-.923-10.146-2.997-20.298-6.739-29.909-1.477,3.649-.508,6.789-.292,10.427l-1.804-2.821c-1.588-2.483-3.5-3.83-6.592-4.939,3.306-.897,6.144-1.58,8.11-4.288l-1.762-3.672c-3.951,2.184-7.805,3.718-12.15,4.939-7.85,2.206-15.615,3.751-23.757,4.998l1.26,4.31c3.843.644,6.921-.315,10.758-1.394-2.079,1.978-3.301,3.859-3.648,6.438l-.542,4.03-2.768-5.623c-.598-1.215-2.162-2.02-3.554-2.778,2.556,9.702,4.209,19.489,5.012,29.553,2.846-2.965,3.045-6.558,3.002-10.294l2.878,5.339c.848,1.573,2.661,2.021,4.465,3.176l-5.348.727c-1.589.216-3.295,1.197-4.928,1.886l.254,4.07,18.895-3.509ZM41.088,240.25l.334-3.776c-3.047-2.046-6.373-2.528-10.345-2.781,4.507-2.113,5.545-4.113,7.369-8.431l.182,3.661c.124,2.495.928,4.835,2.837,6.751.79-10.126,2.348-19.865,5.077-29.685-3.549,1.741-4.845,5.066-6.11,8.494l-.817-5.976-3.142-4.724c3.647,1.19,6.643,2.149,10.325,1.439l1.193-4.193c-12.253-2.183-24.821-4.057-35.702-9.485l-1.46,3.129c.659.818,1.84,2.271,2.82,2.625l4.872,1.761c-2.101.718-4.033,1.35-5.14,3.036l-2.963,4.51c.138-3.744.934-6.839-.263-10.125-3.667,9.63-5.442,19.25-6.787,29.439,2.718-1.83,3.286-4.825,4.63-8.03l.629,4.677c.344,2.56,1.599,4.395,3.375,6.714l-5.277-2.024c-.751-.288-2.414-.129-3.507-.039l-.204,3.401,11.623,3.953c8.718,2.424,17.335,4.132,26.451,5.678ZM197.155,202.53l-1.134-4.785-24.695,2.323c-16.072.996-31.82,1.288-47.997,1.012-16.936-.289-33.385-1.242-50.079-3.294l-1.113,4.705c26.086,2.972,52.455,3.927,78.53,3.216,15.703-.428,30.971-1.365,46.488-3.176ZM202.388,239.823c-2.204-.397-3.815-.751-5.541-.552l-5.876.677c4.258-2.358,5.69-5.802,6.586-10.121.886,3.789,1.702,7.102,4.8,9.006-.633-10.123-1.845-19.736-3.643-29.348-1.805,2.762-1.535,5.545-1.993,8.832-1.878-4.187-2.933-6.251-7.74-8.63l3.394-.157c2.209-.102,4.262-.547,6.087-1.523l-.98-4.316-27.886,2.507c-17.718,1.006-35.123,1.225-52.875.719-15.107-.431-29.732-1.349-44.92-3.254l-1.13,4.289c2.141,1.098,4.224,1.341,6.647,1.527l3.05.234c-4.213,1.442-6.427,4.579-7.947,8.803-.497-3.35-.033-6.207-2.041-8.897-1.726,9.815-2.997,19.237-3.489,28.969,3.178-2.182,3.478-5.271,4.549-8.684l.987,3.228c.934,3.053,2.676,4.936,5.446,6.615-3.782.148-6.734-1.53-11.106-.015l-.05,3.511c45.327,4.319,90.674,4.402,135.835.08l-.163-3.498ZM40.725,247.624l.296-6.133c-7.768-1.271-15.237-2.756-22.888-4.643-5.266-1.427-10.137-2.927-15.391-5.077l-.384,6.35c5.4,2.066,10.566,3.946,16.224,5.077l22.143,4.426ZM254.527,242.528l12.627-4.221-.373-6.201-12.133,4.225c-8.828,2.31-17.56,4.007-26.666,5.305l.327,6.082c8.889-1.344,17.396-2.941,26.218-5.19ZM43.394,318.779c-.343-4.403-2.434-7.863-5.503-10.437l-1.371-.606c4.296-2.137,5.52-7.704,5.652-12.586.154-5.705-1.373-11.047-4.498-15.688-1.879-2.79-3.979-4.482-7.295-5.774l4.636-.4c.557-.048,1.602-1.155,1.33-1.636-.252-.444-1.074-.868-1.833-1.153,3.948-3.297.95-7.487,2.178-12.704-3.38,2.153-6.166-.766-7.763,2.929l-.403-1.805c2.052-2.884,4.931-.137,9.053-2.813-.217,3.309-.179,6.104.219,9.198.224,1.741-.439,3.484-1.157,4.977.613.751,1.269,1.992.549,2.836-.419.491-1.3.942-2.466,1.489l3.108,3.224c2.346,2.434,3.069,5.807,4.499,8.801-1.241-12.781-1.94-25.118-1.62-37.909-13.176-1.981-26.185-4.545-38.398-9.313-.592,14.788.258,29.163,2.632,43.637,1.478,9.014,3.213,17.505,5.742,26.272,2.728,9.457,6.074,18.344,9.867,27.763.818-2.762.391-5.327.106-8.327,1.828,2.842,2.907,5.956,3.366,9.27-.956-1.47-1.402-2.792-1.95-4.187l-.793,4.876.792,2.358c.097.288.732.689.981.764l2.247,4.384-1.345-.701,4.825,10.528c9.125,2.43,18.239,4.335,27.788,5.787-3.408-12.995-6.309-25.331-8.826-38.188l-4.329-27.266c-.795,4.48-1.211,8.615-4.648,11.392,4.528,3.679,6.582,9.508,5.613,15.048-1.201-2.028-2.009-3.707-3.472-4.837l-.972-.75c-.206-.159.335-1.094.203-1.332l-3.159-5.695c4.15,2.316,3.881,6.874,6.416,8.575ZM226.15,319.201l1.741-1.528c.474-3.047,1.928-5.812,4.423-7.342l-3.35,6.127,1.045.792c.142.108-3.266,1.635-4.684,5.187-1.079-5.504.833-10.973,5.164-14.486-1.298-1.184-2.629-2.573-3.069-4.41l-1.631-6.802c-1.717,13.73-3.559,26.683-6.735,39.824l-6.177,25.561c9.459-1.393,18.686-2.892,27.862-5.551l4.879-11.021-1.761,1.357,2.221-4.722.807.794,1.359-3.69-.977-5.099-1.658,4.357c-.134-3.729,1.518-6.486,3.157-9.44-.235,3.088-.5,5.562.123,8.603,3.966-9.878,7.611-19.592,10.417-29.928,6.031-22.22,8.87-44.87,7.942-68.139l-11.803,3.94c-8.974,2.319-17.846,3.999-27.186,5.271.351,12.766-.352,25.226-1.379,38.148l1.449-3.308c1.29-3.772,3.438-6.768,6.642-9.219-1.716.055-3.259-1.036-3.392-2.283-.047-.44.619-1.367.97-1.716-.918-1.752-1.393-3.804-1.1-5.92.385-2.778.281-5.393.027-8.353,2.026,1.125,3.706,1.456,5.824,1.313l3.361.75-.746,2.176c-1.957-2.946-4.564-.492-7.615-2.668,1.513,5.231-1.441,9.521,2.236,12.643-.958.334-1.823.969-1.753,1.474.06.431.844,1.258,1.276,1.377l4.55.441c-2.843,1.46-5.104,2.716-6.655,5.358l-3.171,5.397-1.158,4.592c-1.477,5.859-.63,15.831,5.011,18.812-3.987,2.26-6.472,6.557-6.488,11.33ZM202.688,244.424l-25.828,2.156c-26.62,1.576-52.937,1.634-79.535.239l-30.791-2.409-.199,6.099c22.359,2.434,44.512,3.398,67.062,3.452,23.292.056,46.174-.858,69.449-3.371l-.159-6.166ZM196.111,334.986c3.462-20.255,5.817-39.984,6.657-60.292l.132-22.871c-28.229,3.037-56.417,3.873-84.934,3.212-17.399-.403-34.353-1.427-51.738-3.284l-.01,17.558c.725,16.745,2.1,33.055,4.488,49.67,2.427,15.617,5.35,30.952,9.011,46.243,36.924,3.538,73.359,3.488,110.154.145l6.239-30.382ZM58.684,369.497l-1.777-6.421c-9.509-1.347-18.246-3.209-27.492-5.692l3.493,7.259,25.775,4.853ZM236.674,365.131l3.291-7.084c-9.284,2.448-17.99,4.062-27.356,5.258l-1.762,6.525,25.827-4.699ZM62.729,383.461l-3.696-12.797c-8.641-1.139-16.709-2.67-25.542-4.732l6.618,13.481,22.62,4.048ZM189.54,366.557l-19.51,1.634-39.877.939c-16.945-.209-33.396-.909-50.157-2.72l1.318,5.609c35.752,3.324,71.306,3.287,106.97.128l1.255-5.59ZM206.779,383.815l22.686-4.046,6.594-13.335-25.649,4.567-3.63,12.814ZM181.956,385.935c1.263.112,2.419-.023,3.253-.438l2.785-12.148c-35.261,3.234-70.768,3.273-106.421-.129l2.77,12.296c17.753,1.528,34.967,2.057,52.637,2.068,15.153.022,29.846-.577,44.975-1.649ZM64.223,388.947l-1.18-4.393-22.415-3.92,2.281,4.713,21.313,3.6ZM226.564,385.818l2.219-4.768-22.376,3.936-1.213,4.419,21.369-3.586ZM184.932,386.353l-3.182.66c-19.126,1.669-38.05,1.937-57.322,1.654-13.472-.198-26.392-.782-39.842-2.07l1.109,4.416c32.677,2.805,65.723,2.811,98.216.151l1.022-4.811ZM52.155,394.171l1.435-.375c.279-.073.288-.816.305-1.196l1.511-3.678-11.771-2.217,5.518,12.81c2.447,5.681,3.633,11.49,4.194,17.65,2.406,1.553,4.719,2.723,7.498,3.593-1.452-4.892-3.423-8.91-5.801-13.108-2.797-4.076-6.077-12.646-2.889-13.479ZM209.16,395.335c.533-1.117,1.222-2.162,1.938-3.014l2.394-2.851-8.592,1.106c-3.172,10.726-5.229,21.558-6.082,32.907l9.239-2.36-2.097-7.718c-.178-.654-.103-1.396.308-1.973l2.117,6.738c.945-2.383,1.513-4.69,3.512-6.325l-3.189,8.729c2.794-.366,5.174-1.759,7.494-3.413.423-4.57.989-8.892,2.734-13.122l6.988-16.936-11.852,2.28,1.899,5.034c4.009-.592,2.777,6.02.47,10.008l-4.237,7.326c-.151-.841-.052-1.754.257-2.283,2.41-4.136,6.415-10.883,4.264-14.033-.89.343-1.637.841-2.542,1.462.739-1.924.644-3.865-.776-5.447l-2.462,2.853c-.492.57-.797,2.067-1.013,2.938-.465-.352-1.382-.964-1.864-.837-2.721.716-4.206,6.271-2.952,11.111.297,1.147.484,2.185-.037,3.138-2.942-5.819-1.778-15.559,4.083-15.318ZM54.899,396.07c-.484-.532-2.128-1.317-2.424-.771-.847,1.568-.506,3.765.25,5.309l3.559,7.269,4.788,9.984,1.875-5.947.63.298-2.094,8.872,9.188,2.375c-.995-11.553-2.815-22.297-6.122-33.306l-8.566-1.211,2.315,2.909c.745.936,1.345,1.961,1.914,3.172,5.929-.899,7.231,10.342,3.683,16.347-.216-1.051-.105-2.182.205-3.263,1.341-4.674.574-10.764-2.549-11.986-.455-.178-1.514.28-2.048.672-.29-1.582-1.135-3.22-2.321-4.542l-1.28-1.427c-.901,1.724-1.258,3.455-1.004,5.246ZM133.481,428.715c-2.118-3.849-4.405-6.386-6.937-9.183-3.46-3.69-6.482-8.491-4.415-13.033,1.275-2.801,4.422-3.904,7.039-2.466.255-1.763.94-2.885,1.979-4.016l3.558-3.873,3.457,3.865c1.075,1.202,1.84,2.369,2.116,4.073,2.117-1.07,4.818-.802,6.313,1.158,3.187,4.176.66,9.47-2.911,13.428-2.881,3.193-5.748,6.196-7.585,10.118l28.668-.935c-3.66-7.645-14.123-13.371-10.717-21.39,1.294-3.048,4.613-4.459,7.519-2.771.034-2.048.875-3.273,2.064-4.647l3.235-3.736c1.734,3.277,4.84,3.89,4.886,7.635,1.335-.43,2.854-.766,4.066-.202,3.259,1.515,3.502,6.498,1.479,10.354-2.422,4.615-7.412,8.894-9.912,14.596l12.079-1.101c.533-11.646,2.085-23.091,4.158-34.292l-27.26,1.726c-23.583.729-46.819.327-70.479-1.879,2.221,11.535,3.433,22.821,4.09,34.377l12.139,1.079c-.464-1.156-.671-1.532-.467-2.678l1.881,2.736c1.541-2.85,3.296-5.237,5.208-7.632l4.781-5.989c1.567-1.962,1.681-4.767.818-7.052-.663-1.757-2.309-2.994-4.116-2.948-1.574.04-2.799,1.28-4.278,2.644,1.175-2.768.823-4.794-1.032-6.887l-2.238-2.524-2.497,2.677c-1.572,1.686-1.641,3.664-.846,6.025-1.053-.91-2.045-2.037-3.157-2.375-2.096-.637-3.649,1.253-3.939,3.213-.434,2.929.691,5.858,2.524,8.204l5.38,6.888c.509.651.687,1.793.315,2.44l-6.351-8.275c-3.762-4.902-4.467-11.412-.614-13.338,1.394-.697,2.865-.424,4.231.244.039-1.615.779-2.862,1.782-4.06l3.057-3.653,3.227,3.687c1.152,1.316,1.986,2.572,2.174,4.511,1.96-.771,4.307-.769,5.924.73,2.18,2.021,2.7,5.173,1.762,8.014-1.841,5.572-7.903,9.331-10.843,15.572l28.685.941ZM168.264,424.028l2.13-3.443,4.97-6.551c1.577-2.078,2.344-4.843,1.84-7.341-.355-1.761-1.657-3.418-3.6-3.117-1.392.216-2.405,1.373-3.645,2.454,1.125-2.894.481-4.937-1.468-6.915l-1.775-1.801-2.059,2.374c-2.091,1.891-2.394,4.207-1.339,6.991-1.251-1.18-2.354-2.431-3.542-2.603-1.583-.229-3.132.61-4.038,1.871-3.005,4.177.33,8.951,3.727,12.671,2.541,2.783,4.696,5.66,6.596,9.095l2.205-3.686ZM134.701,428.537l4.583-6.707,5.986-7.326c1.609-1.97,1.933-4.833,1.082-7.196-.617-1.714-2.32-2.872-4.055-2.729-1.514.125-2.629,1.374-3.965,2.802,2.06-5.539-.822-5.714-3.634-9.306l-2.305,2.415c-2.298,1.79-2.342,4.14-1.107,6.862-1.333-1.176-2.434-2.616-4.019-2.785-2.301-.246-4.022,1.554-4.451,3.679-.858,4.25,2.491,8.235,5.625,11.564,2.509,2.665,4.617,5.575,6.261,8.726ZM223.948,416.477c-1.447-1.575-3.016-2.44-5.178-3.414l-.431,4.51c-1.259,1.862-3.637,3.229-5.889,4.08-13.691,5.173-32.136,7.215-47.1,8.185-24.168,1.566-48.065,1.393-72.178-.987-11.872-1.171-28.185-3.315-38.443-8.36-1.069-.526-3.348-1.942-3.485-3.103l-.501-4.3c-2.306.876-4.551,2.211-5.994,4.411-1.139,1.738-.772,4.093.495,5.71,4.088,5.22,13.708,8.092,20.582,9.62,30.756,6.838,72.929,7.138,104.557,4.753,13.58-1.024,46.842-4.51,53.952-14.427,1.474-2.055,1.407-4.727-.387-6.679ZM228.329,438.112c1.91-2.032,2.21-4.972.517-6.962l-4.107-4.824c-3.068,2.526-6.209,4.313-9.916,5.641-19.439,6.966-49.455,8.92-70.634,9.256-23.818.377-51.277-.469-74.402-5.144-8.378-1.694-18.542-4.148-24.93-9.762l-4.004,4.545c-4.569,6.613,5.366,11.54,12.191,14.049,22.465,8.26,55.637,10.149,79.988,10.274,25.726.132,66.203-1.761,88.902-12.526,2.372-1.125,4.558-2.591,6.396-4.546Z"/>
        <path d="M198.309,258.745c-1.962,1.268-3.954,2.309-6.021,2.521-3.757.386-6.235,2.828-6.822,6.579-.48,3.066-1.561,6.058-3.864,8.301.066-2.474.249-4.78-.659-7.001-2.974-7.275-11.472-10.495-18.559-7.254-1.913.875-3.348,2.479-4.058,4.508-5.779,2.043-10.091,6.865-11.501,13.113-2.154-4.624-4.79-8.22-7.677-12.051l-4.567-6.061-5.475,7.157-6.483,10.086c-.462.718-.661,1.395-.927,2.322-1.715,5.974-2.368,11.805.103,18.065-8.554-2.954-17.211-6.722-21.944-14.53-2.892-4.771-3.393-11.053,1.27-13.381,7.009-3.499,16.638,2.794,19.405,10.195l1.425-2.859c-1.191-5.576-5.709-9.819-10.955-11.986-2.673-6.395-11.227-7.281-17.054-3.967-4.812,2.737-7.092,7.677-6.452,13.452-2.435-2.048-3.204-5.124-3.733-8.033-.666-3.66-2.987-6.184-6.75-6.67-2.144-.277-4.31-1.303-6.205-2.515l1,8.058c.393,3.165,1.999,5.345,5.335,6.073l-3.97.626c1.171,2.333,3.078,2.014,5.39,2.269-3.677,1.727-5.828,4.843-6.925,8.784-2.567,9.223.427,21.911,9.526,26.437l-2.819,1.991c-2.934,4.271-4.247,9.036-3.492,14.167.2,1.358.233,2.804.055,4.103-2.849-6.818-1.431-15.717,4.238-20.133-2.13-1.243-3.826-2.817-5.107-4.789-3.721-5.723-4.883-12.325-4.049-19.101.51-4.143,1.982-8.053,5.35-10.777-1.325-.563-2.503-1.405-3.215-2.52l1.147-1.611c-1.516-1.277-2.401-3.409-2.673-5.608l-1.324-10.712c2.805,2.442,5.27,3.751,8.512,4.203,3.673.513,6.032,3.217,6.964,6.688l1.363,5.073c.734-3.08,1.585-5.492,3.564-7.623,7.189-7.739,18.916-5.09,20.836-.728.702,1.596.915,1.865,2.442,2.467,4.474,1.765,7.728,5.753,9.645,10.22,2.024-3.716,4.459-6.877,6.901-10.214l5.051-6.902,6.741,9.007c2.029,2.711,3.852,5.324,5.385,8.454,1.63-4.69,4.876-8.727,9.411-10.506,1.225-.48,1.437-.897,2.047-1.998,3.158-5.7,15.104-7.156,21.763.727,1.794,2.124,2.546,4.566,3.047,7.429l1.664-5.754c2.496-8.634,9.057-4.53,14.164-9.801,2.169-2.239-.269,3.687-.204,8.874.034,2.717-.903,4.929-2.573,6.775.339.214,1.146,1.201.986,1.554-.362.798-1.757,1.934-2.661,2.528,2.157,2.538,4.177,5.544,4.521,8.945.459,4.543.578,8.987-.313,13.409-.933,4.631-4.287,10.133-8.288,12.258,6.46,5.565,6.887,13.771,4.029,21.551-1.951,5.311-5.652,9.705-10.704,12.367,1.415.56,2.324.877,3.115,2.037l-7.039-1.616c6.274-2.007,10.633-6.631,13.456-12.523,3.256-6.796,2.036-17.448-4.869-21.93,7.858-4.06,10.78-13.755,10.2-22.335-.308-4.562-2.857-10.256-6.889-12.521,1.925-.383,3.807-.42,4.554-2.662l-3.917-.427,2.763-1.182c3.546-3.026,1.799-8.038,3.372-13.094ZM119.997,297.152c-1.274-4.549-1.399-8.904-.088-13.637-1.624-6.207-6.947-11.229-13.395-12.092-2.489-.333-5.057.295-6.459,2.217-1.475,2.023-1.366,4.611-.631,6.921,1.42,4.157,4.176,7.352,7.653,10.02,3.897,2.77,8.04,4.773,12.92,6.571Z"/>
        <path d="M143.104,351.085c7.135,5.134,16.861,5.276,21.722-2.055-7.148,1.401-14.006-1.736-17.478-8.171-1.181,2.633-1.919,5.313-3.536,7.498-.598.808-.877,1.383-1.434,2.246l-1.437,2.226c6.526,9.67,20.66,11.233,29.109,3.122,2.329-2.236,3.432-4.729,4.211-7.736.321,1.301.484,2.537.491,3.725.019,3.269,2.454,5.718,5.757,5.742,2.2.016,4.35.67,6.095,1.712-.739-3.993.72-6.942-.816-9.963l1.408-1.851c1.219,4.607-.324,8.527.912,12.859.057.2-.61.784-.771.674-5.349-3.89-12.095-.069-13.599-7.999-6.655,11.041-22.056,12.267-31.06,3.586l-2.371-3.004c-2.221,2.864-3.885,5.789-5.632,9.255-1.711-3.295-3.421-6.334-5.694-9.266-1.242,1.924-2.553,3.479-4.487,4.859-9.19,6.558-22.804,4.635-28.772-5.374-.631,3.994-3.697,5.737-7.293,5.695-2.474-.029-4.739,1.391-7.205,2.295.585-2.825.937-4.904.392-7.435-.268-1.247.115-2.932.576-4.032-.054-.416-.358-1.629-.185-2.105.394-1.089,2.149-2.158,3.71-2.609-4.403-2.524-7.852-6.184-9.99-10.891-.252-.556-.21-1.524-.018-2.407l1.904,3.446c2.68,4.85,6.797,8.547,12.099,10.231l-5.52,1.458c-.318.084-1.059.855-1.015,1.168.052.376.327.939.556,1.448-1.984,2.976-.105,5.822-.933,9.897,5.326-3.053,10.915.12,11.808-7.031l.47-3.766c.966,2.257,1.516,4.15,2.837,5.803,3.861,4.829,9.646,7.107,15.796,6.759,6.058-.343,11.606-3.419,14.639-8.536-.844-.886-1.258-1.701-1.489-2.782l-1.148-.959c-1.559-2.504-2.663-5.029-3.784-7.914-3.317,6.505-10.305,9.441-17.48,8.136,3.998,5.939,12.05,7.267,18.18,4.017,1.089-.577,2.097-1.079,3.239-1.406-4.282,4.808-11.475,5.43-17.158,2.718-3.038-1.45-5.327-3.835-6.282-7.198,8.325,3.181,17.426-1.427,19.66-9.736,1.572,5.735,4.122,10.529,7.54,15.031l4.998,7.673,5.801-8.716,1.929-2.621,2.831-5.231,2.087-6.471c2.111,8.741,11.36,13.228,19.67,10.078-2.749,8.559-13.761,11.136-21.318,6.542-1.004-.61-1.892-1.523-2.525-2.631Z"/>
        <path d="M105.991,333.791c-.41-2.257-2.575-3.494-4.654-3.614-2.393-.137-4.4,1.185-5.432,2.871-1.31,2.141-1.23,4.354-.206,6.623-7.009-.248-12.984-4.852-14.64-11.55-1.206-4.876,1.068-9.728,5.483-11.731,1.321,2.272,3.524,3.451,6.025,4.222,10.374,3.196,20.257-1.73,29.969-6.857-2.497,5.601-3.012,11.558-1.986,17.641l.703,4.163-.32.226-1.285-4.071c-1.603,6.197-6.967,10.181-13.133,8.961-1.647-.326-3.098-1.485-3.606-3.148,2.197-.199,3.474-1.579,3.082-3.737ZM93.915,338.285c-.552-3.632.566-6.477,3.137-8.128,2.463-1.582,5.842-1.681,8.241.218,1.361,1.235,2.118,2.725,2.02,4.502-.08,1.448-1.152,2.709-2.495,3.642,2.153,1.602,4.583,1.501,6.907.672,4.35-1.68,7.075-5.922,7.07-10.755-.004-4.259.09-8.338,1.774-12.472-4.766,2.774-9.358,4.784-14.503,6.164-7.149,1.417-15.014,1.131-20.08-4.119-3.476,2.343-4.772,6.534-3.549,10.53,1.575,5.146,6.029,8.91,11.478,9.747Z"/>
        <path d="M149.224,315.622c5.072,1.494,9.084,4.07,13.898,5.162,5.193,1.178,10.36,1.322,15.26-.744,1.84-.776,3.386-1.881,4.346-3.676,4.774,2.046,6.84,7.355,5.418,12.383-1.83,6.47-7.682,10.775-14.49,10.918,1.035-2.366,1.111-4.813-.35-6.88-1.267-1.793-3.666-2.974-6.141-2.501-2.238.428-3.942,2.071-3.854,4.374.067,1.745,1.366,2.827,3.311,2.847-1.186,2.799-3.889,3.602-6.69,3.388-5.062-.386-8.882-4.113-10.172-8.893-.419,1.162-.617,1.784-1.211,2.775l.615-7.26c.407-4.804-.411-9.333-2.385-13.675.594.165,1.571.706,1.794,1.082.138.847.297,1.436.582,2.217,1.204,3.303,1.418,6.853,1.284,10.394-.172,4.519,1.81,8.711,5.695,10.969,2.619,1.522,5.698,1.819,8.451.088-1.427-1.017-2.462-2.246-2.547-3.727-.098-1.693.594-3.324,1.984-4.476,2.358-1.954,5.823-1.778,8.251-.245,2.714,1.714,3.811,4.832,3.091,8.236,5.849-.93,10.569-5.045,11.744-10.684.786-3.772-.522-7.631-3.781-9.714-4.438,5.029-13.3,5.758-19.789,4.147-5.027-1.247-10.334-2.921-14.316-6.508Z"/>
        <path d="M97.948,312.15c-3.426-.888-6.91-2.538-7.945-5.873,1.259-5.133,7.352-6.317,12.983-5.785-4.699-2.632-8.957-5.529-12.378-9.633-2.251-2.701-5.053-6.678-3.037-7.932.668,2.241,1.489,4.125,2.909,5.916,7.075,8.922,18.366,13.658,28.963,17.354-6.764,3.609-13.705,7.125-21.495,5.952ZM109.762,309.431l7.572-2.985-7.359-2.618c-3.837-1.365-7.684-2.627-11.743-2.151-3.111.365-5.797,1.797-7.145,4.499,3.678,6.028,11.997,5.888,18.676,3.255Z"/>
        <path d="M179.231,306.161c-.487,2.923-3.726,4.673-6.31,5.511-7.426,2.411-15.829-1.563-22.994-5.4,11.082-4.268,21.26-8.076,28.709-17.259,1.468-1.81,2.424-3.71,2.873-6.104,2.294.894-.417,5.104-2.812,7.956-3.432,4.086-7.708,7.026-12.388,9.634,3.35-.218,6.168-.16,9.086,1.209,1.513.787,3.838,2.29,3.835,4.451ZM178.267,306.231c-1.278-2.601-3.776-3.934-6.636-4.423-4.043-.69-7.909.47-11.794,1.819l-8.233,2.858,5.478,1.974c7.407,3.296,16.439,4.677,21.184-2.228Z"/>
        <path d="M147.518,299.085l.633-1.743c1.304-4.614,1.178-9.392-.062-14.023-.373-1.395-.543-2.483-.588-4.118.546.795.76,1.291,1.227,2.388,2.299-6.604,9.363-12.091,16.624-11.329,4.024.422,6.517,3.664,6.182,7.683-.597,7.17-6.73,13.081-12.999,16.444l-11.017,4.698ZM169.406,281.548c.866-2.186,1.22-4.76.323-6.904-1.075-2.569-3.822-3.429-6.576-3.275-6.665.764-12.049,5.741-13.789,12.199,1.232,4.603,1.373,8.932-.206,13.657,7.823-2.878,17.011-7.507,20.248-15.678Z"/>
        <path d="M137.146,318.424c5.53,4.421,5.416,12.8,2.8,19.205-1.396,3.418-3.264,6.378-5.345,9.439l-4.899-8.678c-2.983-5.284-3.18-16.276,2.769-20.297-6.19,9.649-3.745,17.485,2.125,26.668,5.945-8.519,8.393-16.79,2.55-26.337Z"/>
        <path d="M134.589,274.326c-5.442,7.129-8.519,14.695-3.128,23.091-2.164-.996-2.847-3.081-3.538-5.103-1.041-4.243-.322-8.516,1.714-12.424l4.924-7.808,4.043,5.988c3.843,5.692,5.022,15.184-.695,19.352,2.76-4.749,3.595-9.618,1.707-14.576-1.269-2.991-2.795-5.501-5.028-8.52Z"/>
        <path d="M135.367,313.836c-4.187.429-7.366-2.527-7.733-6.316-.37-3.824,2.843-7.191,6.85-7.292,3.749-.095,6.957,2.682,7.204,6.247.251,3.617-2.368,6.957-6.322,7.362ZM134.295,312.544c3.432.211,6.067-2.319,6.132-5.379.064-2.988-2.354-5.525-5.6-5.627-3.209-.101-5.802,2.253-5.917,5.288-.109,2.865,2.04,5.513,5.385,5.718Z"/>
        <path d="M191.728,305.272c3.927-5.545,4.79-12.832.936-18.681-1.412-2.143-3.518-3.98-6.089-4.405l-5.868-.055c2.664-2.148,6.282-1.588,9.164.08,7.432,4.302,8.968,17.322,1.857,23.062Z"/>
        <path d="M76.63,286.451c-3.838,5.845-3.017,12.998.759,18.795-6.746-5.928-5.52-19.203,2.283-23.199,2.743-1.405,6.341-2.195,8.723.15-4.933-.828-9.061.137-11.764,4.253Z"/>
        <path d="M79.392,306.332c1.34-.112,2.892-.39,3.336-1.423.419-.975-.135-2.248-.953-2.519-.938-.311-1.718.369-2.357,1.556-.654-.954-.285-2.158.633-2.666.805-.446,2.149-.297,2.913.38,1.331,1.179,1.547,3.047.633,4.265-1.001,1.334-2.949,1.659-4.204.407Z"/>
        <path d="M186.551,303.484c-.372,2.145.964,2.681,2.823,2.974-.247.441-1.282.818-1.916.721-.544-.083-1.573-.759-1.873-1.314-.543-1.007-.441-2.198.028-3.201.392-.838,1.525-1.639,2.767-1.645.436-.002,1.295.465,1.572.802.323.392.294,1.717.076,2.078-.687-.809-1.052-1.327-1.495-1.576-.523-.294-1.882.582-1.982,1.161Z"/>
        <path d="M235.38,319.313c-1.657-.345-3.829,3.32-2.508,5.49,2.529,4.153,15.496-2.27,17.792-16.685.21-1.319-.11-2.762-.686-3.738.057,2.613-1.112,4.997-3.654,5.608-2.18.524-4.245-1.268-4.558-3.601-.854-6.347,4.134-13.841,10.975-13.234l-2.014-1.384c-3.823-2.627-6.704-5.92-7.882-10.465-7.655,1.055-11.554,9.722-9.586,16.764.38,1.359,1.483,2.732,2.51,3.108l.839-.831c.137-.136.519.05.615.217.128.223-.06.971-.27,1.163l-2.181,1.996.435-1.451c-1.804-1.027-2.977-2.781-3.392-4.965-1.453-7.639,3.243-16.7,11.167-16.973l-.314-3.966c.544.498.688.871.734,1.509.409,5.666,3.556,10.399,8.452,13.134,2.034,1.136,4.681,3.135,4.354,4.197-.323,1.051-3.143-2.642-7.377-.365-4.015,2.159-6.662,6.621-5.955,11.198.198,1.286,1.235,2.497,2.225,2.744,1.208.301,2.542-.476,3.21-1.482.792-1.191.869-2.331-.44-3.371.19-.316,1.017-1.008,1.471-1.097,1.551-.307,2.926,2.117,2.46,5.312-2.231,15.301-16.53,22.436-19.704,17.743-1.967-2.908-.303-6.658,3.088-7.894-1.385-1.289-3.254-.53-3.623-1.912,2.247-.615,4.7.519,5.362,2.875.106.377-.989.471-1.544.356Z"/>
        <path d="M260.657,296.012c-.001,1.381.325,2.745-.652,3.753.377-5.768-1.689-10.433-6.224-13.545-3.987-2.736-6.123-7.346-5.505-12.054.514-3.913,2.968-6.891,6.301-6.251.97.186,2.263,1.372,2.672,2.536.892,2.541.199,4.944-1.708,6.836,2.13.53,3.643-.944,4.349-2.729.878-2.221.722-4.642,1.2-7.314,1.306,3.298.222,6.984-1.602,9.806-1.098,1.698-3.651,2.046-4.958.985-.25-.203-.61-.874-.637-1.128-.035-.317.669-.563,1.073-.822,1.606-1.025,1.905-3.414,1.159-5.196-.319-.761-1.221-1.588-1.86-1.733-.765-.174-2.304.265-2.876.875-4,4.266-2.164,11.646,3.612,15.668,3.425,2.385,5.66,5.831,5.655,10.312Z"/>
        <path d="M226.388,348.971c.589,1.697-.72,3.189-2.32,3.821-4.298,1.697-5.599,3.335-7.074,3.889-.192.072-.439-.6-.316-.837,3.049-5.858.446-11.757,5.489-18.34.902-1.177,2.388-2.012,3.824-2.836-4.009-1.916-3.838-7.432-2.041-11.424.146-.324,1.18-.755,1.206-.566-.922,2.844-1.616,5.48-.924,8.142.664,2.556,2.764,3.221,5.408,3.069-3.501,1.885-7.033,3.401-8.193,7.067l-.65,2.054c-.585,1.849-.802,3.723-1.217,5.658l-1.315,6.134c.998-.768,2.284-1.915,3.36-2.257,2.132-.677,3.444-1.515,4.765-3.573Z"/>
        <path d="M253.545,256.202c-6.699,2.302-9.241,9.846-10.243,16.754-3.56-6.615-1.581-16.067,4.275-20.779,2.089-1.681,5.863-2.754,5.863-.869-7.689.309-11.874,9.788-10.629,17.382,1.801-5.287,4.876-13.308,10.733-12.489Z"/>
        <path d="M244.468,340.402c-.718,2.927-3.026,5.4-5.83,6.325-3.005.99-5.907-.585-6.46-3.753-.488-2.795.237-6.438,2.396-8.424,7.022-1.192,11.488-5.656,15.962-11.077-1.565,5.437-9.584,11.649-15.337,11.82-2.447,3.105-2.827,8.69-.128,10.152,3.495,1.894,6.489-1.614,9.396-5.044Z"/>
        <path d="M259.12,261.035c2.941-.271,4.073-3.665,4.218-6.218l.451-7.946c-1.158,1.256-2.568,2.789-4.186,3.303-2.015.64-3.433,1.437-4.214,3.468l-.74-2.321c.736-.171,1.475-.628,1.963-1.282,3.695-.753,5.902-3.085,8.524-6.406l-.754,11.51c-.164,2.503-1.198,5.253-3.399,6.501l-2.703,1.08-3.266-1.311,4.108-.379Z"/>
        <path d="M252.381,322.763c2.151-5.653,4.6-10.43,5.33-16.144.334-2.691.406-5.462-.534-7.964-.399-1.062-.696-2.012-.09-3.067,4.408,7.036.022,20.693-4.707,27.176Z"/>
        <path d="M228.675,351.427c-.848-.834-1.171-1.652-.622-3.023,1.548,3.258,5.159,4.844,8.874,3.487,2.269-.829,3.913-2.618,5.75-4.376-.182,2.349-2.163,3.645-3.974,4.742-3.203,1.941-7.248,1.904-10.029-.83Z"/>
        <path d="M19.603,311.497c2.182,6.435,7.089,12.968,13.868,13.978.704.105,2.082-.222,2.557-.624.564-.479.86-1.849.738-2.667-.353-2.357-1.89-3.721-4.389-3.399.465-2.35,3.504-3.723,5.306-2.956.19.081-.334.541-.547.629l-2.729,1.137c2.859,1.563,4.292,4.066,3.298,7.027-1.215,3.616-7.726,2.207-12.183-1.793-8.308-7.456-9.88-19.843-5.848-20.234.556-.054,1.632.577,1.887.929-.579.622-.896.902-1.057,1.229-.193.393.128,1.519.357,1.906.709,1.197,2.081,2.004,3.347,1.741,1.189-.247,2.231-1.466,2.361-2.946.375-4.283-2.01-8.476-5.649-10.653-2.468-1.439-5.221-1.303-7.322.625l-.508-.247c-.837-.406,1.991-2.981,4.463-4.406,5.458-3.145,8.226-8.394,8.693-14.862.787,1.334.453,2.889-.352,4.319,8.275-.132,13.388,9.564,11.415,17.624-.47,1.92-1.644,3.371-3.183,4.369l1.199,1.688-.316.275-2.036-2.095-.914-.749c-.218-.179.096-1.137.233-1.19l1.655.804c.937-.829,1.901-2.098,2.222-3.447,1.666-6.994-2.201-15.245-9.764-16.37-1.018,3.903-3.227,7.275-6.681,9.603l-3.213,2.165c6.726-.789,11.876,6.711,11.104,12.919-.269,2.16-1.893,4.115-4.117,3.851-2.656-.316-4.102-2.897-4.223-5.334-1.107,2.458-.441,4.886.328,7.154Z"/>
        <path d="M15.511,286.008c-3.147,2.158-5.458,5.043-5.792,8.785l-.455,5.09c-1.882-6.032.748-11.637,5.873-15.13,4.045-2.756,5.831-7.745,4.317-12.21-.648-1.911-2.164-3.713-4.18-3.483-1.914.218-2.715,2.274-2.62,3.883.109,1.838.955,3.017,3.053,3.748-.634,1.201-1.616,1.92-2.592,1.904s-2.028-.539-3.039-1.145c-2.704-3.758-3.25-8.765-1.303-13.036l.486-.375c.103-.08.617-.099.565.022l-.336.781c-1.671,3.881-1.448,8.586,1.149,11.411.795.865,1.946,1.458,3.095.832-2.64-1.999-3.096-6.058-.582-8.364,1.885-1.73,4.983-.888,6.286,1.307,3.254,5.479,1.446,12.296-3.926,15.98Z"/>
        <path d="M15.524,256.275c5.959-1.329,9.006,6.795,10.757,12.446,1.102-4.992-.581-10.045-3.488-13.911-1.773-2.358-4.138-3.234-7.024-4.078,2.135-1.172,4.442.1,6.034,1.497,5.73,5.031,7.498,13.574,4.185,20.418-.839-4.569-2.111-8.561-4.482-12.256-1.38-2.152-3.344-3.291-5.983-4.115Z"/>
        <path d="M24.953,339.744c2.569,3.132,5.95,6.966,9.48,5.081,2.713-1.449,2.328-6.872-.185-9.844-3.931-.653-7.196-2.461-10.13-4.973-2.054-1.758-4.201-3.49-5.035-6.263,4.77,4.872,8.911,8.878,15.767,10.374,3.237,3.277,3.68,9.936-.033,11.873-3.372,1.759-8.693-1.835-9.864-6.248Z"/>
        <path d="M6.019,254.564c.175,2.563.96,5.399,3.532,6.261,1.298.435,2.972.174,4.693.35-2.653,2.112-6.089,1.371-7.7-1.241-1.653-2.681-1.539-5.621-1.77-8.645l-.588-7.719c2.512,3.361,4.764,5.331,8.41,6.285.609.581,1.473,1.198,2.189,1.397l-.716,2.062c-.923-1.409-1.754-2.41-3.178-2.806-2.232-.621-3.929-1.914-5.4-3.702l.528,7.757Z"/>
        <path d="M49.634,346.358c-.402-1.802-.895-3.436-1.663-4.836.226-.229.585-1.251.371-1.553-2.171-3.059-5.313-4.763-8.6-6.587,2.614.263,4.727-.413,5.361-2.89,1.12-4.377-1.596-6.974.137-7.642,2.028,4.099,2.21,9.669-1.978,11.513,5.638,2.061,8.357,10.108,7.23,15.836l-.857-3.842Z"/>
        <path d="M12.66,295.622c-3.311,10.528.514,17.607,4.654,27.134-4.142-5.463-6.534-12.538-6.873-19.643-.128-2.698.113-5.703,2.219-7.492Z"/>
        <path d="M26.637,346.872c1.921,1.75,3.727,3.435,6.045,4.36,3.332,1.329,6.883.089,8.421-3.142l1.264-2.656-.569,4.007c-1.981,3.327-5.976,4.287-9.409,2.855-2.543-1.06-5.097-2.627-5.752-5.423Z"/>
        <path d="M51.304,352.194c.75,1.331,1.184,2.384,1.639,4.305l-5.327-3.226c-1.575-.953-5.272-1.599-4.327-4.649,1.963,3.454,5.152,2.78,7.997,5.808l.018-2.239Z"/>
        <path d="M54.385,229.36c-.85-.168-1.544-1.521-1.4-2.246.181-.911.987-1.816,2.021-1.774,1.171.048,1.863,1.13,1.812,2.033-.059,1.044-.684,2.333-2.433,1.987Z"/>
        <path d="M56.24,215.64c-1.209-.606-1.261-2.059-.775-2.932.632-1.137,2.397-1.338,3.187-.27.398.538.38,1.935.111,2.485-.353.721-1.718,1.121-2.523.718Z"/>
        <path d="M52.499,266.932c1.159-.566,2.256.059,2.657.979.368.847.008,2.151-.858,2.611-.854.453-2.048.062-2.518-.683-.53-.84-.4-2.361.72-2.908Z"/>
        <path d="M55.735,283.624c-.265.703-1.777,1.02-2.499.635-.585-.312-1.082-1.325-1.054-2.178.025-.77,1.136-1.813,2.007-1.677,1.531.24,2.185,1.527,1.546,3.22Z"/>
        <path d="M52.672,252.86c1.023-.29,2.187.425,2.403,1.209.305,1.103-.172,2.283-1.023,2.614-1.026.399-2.215-.132-2.572-.966-.479-1.121-.153-2.474,1.192-2.856Z"/>
        <path d="M59.22,202.134c-.654-.447-.754-2.042-.27-2.796.434-.675,1.656-1.083,2.609-.563.846.462,1.043,1.798.736,2.455-.483,1.032-1.604,1.911-3.075.904Z"/>
        <path d="M52.577,239.313c1-.712,2.317-.289,2.811.663.382.735.19,2.17-.555,2.688-.823.572-2.058.347-2.596-.275-.705-.815-.679-2.349.341-3.076Z"/>
        <path d="M56.084,298.012c-1.081.436-2.163-.132-2.603-1.133-.287-.654-.046-2.028.775-2.452,1.095-.564,2.294.006,2.691.818.454.93.164,2.352-.863,2.767Z"/>
        <path d="M57.5,311.55c-.984.304-2.11-.53-2.349-1.295-.275-.88.031-2.162.976-2.524,1.018-.39,2.156.216,2.443.958.384.994.367,2.417-1.071,2.861Z"/>
        <path d="M62.358,338.438c-.644.292-1.847-.276-2.197-.831-.438-.695-.431-2.017.191-2.535,1.054-.877,2.342-.493,2.903.528.42.764.596,2.162-.897,2.838Z"/>
        <path d="M60.209,324.739c-1.57.794-2.488-.112-2.851-1.173-.306-.894.043-2.195,1.395-2.476.686-.143,1.719.471,1.985,1.015.351.716.13,2.301-.53,2.635Z"/>
        <path d="M68.781,364.635c-1.32.825-2.387.05-2.824-.821-.411-.819-.248-2.185.853-2.645.687-.287,1.881.204,2.236.728.449.661.46,2.285-.266,2.738Z"/>
        <path d="M63.469,189.348c-.356-.489-.146-1.998.276-2.41.41-.401,1.584-.729,2.118-.492,1.292.573,1.285,1.937.706,2.847-.589.925-2.099,1.428-3.1.055Z"/>
        <path d="M64.449,351.786c-.553-.045-1.387-.651-1.618-1.073-.274-.5-.215-1.725.207-2.29.394-.528,1.8-.623,2.378-.274.501.302.919,1.36.899,2.099-.018.658-1.03,1.606-1.867,1.538Z"/>
        <path d="M71.95,377.852c-.854.515-2.1.047-2.49-.6-.573-.951-.579-2.176.595-2.809.719-.387,1.924.065,2.284.645.519.836.491,2.233-.389,2.764Z"/>
        <path d="M75.14,391.218c-.681.323-1.846-.151-2.179-.684-.407-.652-.443-2.059.091-2.472,1.061-.819,2.291-.513,2.792.396.492.892.5,2.188-.704,2.759Z"/>
        <path d="M77.842,404.623c-.687.266-1.852-.418-2.114-.989-.389-.845-.21-2.139.741-2.57.916-.415,2.018.188,2.35.982.355.849.152,2.141-.976,2.577Z"/>
        <path d="M214.326,239.322c1.039-.708,2.321-.259,2.823.662.421.773.19,2.159-.539,2.716-.815.623-2.122.354-2.638-.28-.681-.836-.672-2.399.354-3.098Z"/>
        <path d="M215.511,252.835c1.028-.236,2.047.518,2.253,1.333.285,1.126-.398,2.256-1.231,2.543-1.264.435-2.319-.262-2.582-1.363-.247-1.035.293-2.221,1.559-2.512Z"/>
        <path d="M210.315,201.711c-1.043,1.47-2.538.869-3.239-.156-.611-.893-.427-2.417.928-2.954.56-.222,1.785.124,2.139.557.399.489.557,2.01.172,2.553Z"/>
        <path d="M213.81,214.757c-.356,1.075-1.892,1.332-2.734.822-.605-.367-1.1-1.532-.926-2.314.239-1.071,1.418-1.817,2.57-1.393.999.367,1.5,1.648,1.09,2.885Z"/>
        <path d="M213.869,284.078c-.498-.332-.734-1.708-.558-2.25.208-.639,1.254-1.46,1.952-1.412,1.623.111,1.916,1.583,1.685,2.536-.314,1.295-1.698,2.048-3.079,1.126Z"/>
        <path d="M213.374,229.249c-.544-.211-1.115-1.353-1.096-1.871s.511-1.553,1.038-1.841c.692-.377,2.004-.065,2.349.458.357.541.467,1.65.285,2.3-.233.833-1.321,1.44-2.575.953Z"/>
        <path d="M215.161,266.874c1.007-.41,2.115.154,2.453,1.111.301.851-.172,2.191-.872,2.536-1.115.549-2.395.027-2.722-.873-.395-1.088-.023-2.3,1.141-2.774Z"/>
        <path d="M209.493,324.925c-1.085-.448-1.277-1.883-.791-2.786.353-.655,1.495-1.28,2.503-.873.858.347,1.104,1.603.919,2.433-.196.879-1.412,1.728-2.632,1.225Z"/>
        <path d="M203.841,362.871c-.044.97-.651,1.943-1.197,2.108-.716.215-1.696.065-2.087-.351-.407-.434-.516-2.004-.165-2.454.419-.537,1.324-.987,1.844-1.031.673-.057,1.65.779,1.606,1.729Z"/>
        <path d="M214.318,309.25c.116,1.64-1.012,2.492-2.007,2.418-1.171-.087-2.006-1.107-1.635-2.562.144-.564,1.083-1.339,1.642-1.422.869-.129,1.928.55,2,1.566Z"/>
        <path d="M209.654,336.31c.015.928-.632,1.955-1.177,2.149-.612.218-1.755.014-2.116-.431-.372-.458-.503-1.906-.164-2.374.41-.565,1.281-1.002,1.776-1.025.725-.034,1.664.624,1.681,1.682Z"/>
        <path d="M206.016,351.511c-.393.352-1.642.403-2.018.113s-.803-1.21-.774-1.8c.039-.815.901-1.752,1.547-1.87.814-.149,1.721.338,2.085,1.18.244.566-.045,1.665-.84,2.377Z"/>
        <path d="M214.474,298.15c-.665.308-1.853-.205-2.099-.734-.316-.68-.226-1.967.172-2.485.464-.604,1.954-.89,2.64-.332.349.284.732,1.343.712,1.791-.024.523-.59,1.374-1.424,1.76Z"/>
        <path d="M205.415,189.885c-.958.66-2.185.225-2.678-.544-.594-.926-.578-2.257.74-2.88.611-.288,1.869.146,2.228.667.509.738.428,2.262-.29,2.757Z"/>
        <path d="M197.104,377.495c-.401-.479-.302-1.785.024-2.214.365-.48,1.521-1.039,2.122-.838,1.332.447,1.459,1.92.922,2.762-.648,1.018-2.139,1.399-3.068.289Z"/>
        <path d="M196.837,390.203c-.329.838-1.402,1.477-2.11,1.322-1.058-.232-1.562-1.317-1.197-2.488.273-.877,1.309-1.432,2.213-1.247.866.176,1.503,1.37,1.094,2.414Z"/>
        <path d="M193.251,404.541c-.339.321-1.616.375-1.992.124-.439-.293-.8-1.263-.663-2.006.125-.675,1.049-1.485,1.604-1.538.699-.068,1.624.464,1.838,1.104.21.628-.046,1.613-.787,2.315Z"/>
        <path d="M185.728,233.323c-.48,4.542-4.168,7.653-8.298,7.788-4.276.139-7.856-2.724-8.655-6.908-4.631-.221-7.793-3.79-7.897-7.963-.105-4.209,2.833-7.998,7.343-8.433.278-4.363,3.737-7.683,7.787-7.926,4.231-.254,8.244,2.45,8.892,6.929,4.67-.064,8.129,3.274,8.387,7.756.251,4.352-2.779,8.169-7.558,8.758ZM183.492,231.038c4.712.517,7.659-2.914,7.218-6.686-.419-3.583-3.892-6.142-7.894-5.014.061-4.061-2.703-7.247-6.767-6.919-3.429.277-6.026,3.656-5.33,7.551-2.701-.24-5.066.758-6.368,2.791-1.312,2.046-1.266,4.701.123,6.628,1.482,2.056,3.882,2.686,6.517,2.453-.132,4.17,3.027,7.011,6.77,6.647s5.831-3.608,5.732-7.45Z"/>
        <path d="M133.258,241.911c-3.867-.594-6.603-3.352-7.106-7.083-4.486-.31-7.766-3.95-7.749-8.166.018-4.339,3.165-8.036,7.768-8.242.577-4.405,4.228-7.333,8.488-7.318s7.895,3.01,8.357,7.326c4.673.2,7.745,3.969,7.709,8.214s-3.064,7.765-7.595,8.198c-.762,4.722-4.95,7.829-9.871,7.072ZM140.774,232.445c3.196.373,5.364-.846,6.531-2.722,1.329-2.137,1.168-4.817-.253-6.638-1.524-1.952-3.839-2.706-6.45-2.279.579-3.957-2.305-7.154-5.964-7.174-3.635-.02-6.662,3.06-6.019,7.076-2.743-.343-5.127.389-6.589,2.483-1.37,1.962-1.516,4.602-.101,6.655,1.377,1.998,3.772,2.905,6.546,2.602-.411,4.066,2.593,7.055,6.184,7.014,3.807-.044,6.38-3.118,6.115-7.016Z"/>
        <path d="M100.326,234.187c-.93,4.265-4.554,7.033-8.777,6.888-4.173-.143-7.752-3.348-8.195-7.821-4.47-.502-7.625-4.103-7.511-8.397.121-4.516,3.525-8.051,8.346-8.125.838-4.335,4.526-7.148,8.777-6.877,4.107.262,7.569,3.547,7.8,7.924,4.377.373,7.536,4.026,7.504,8.179-.033,4.187-3.063,8.056-7.944,8.228ZM91.499,238.457c4.048.287,6.653-2.918,6.488-6.684,2.881.424,5.277-.496,6.677-2.566,1.378-2.038,1.372-4.711-.104-6.762-1.356-1.885-3.71-2.652-6.236-2.536.649-4.16-2.074-7.387-5.729-7.52-3.796-.139-6.544,2.913-6.234,6.933-2.715-.771-5.318.06-6.777,2.056-1.474,2.018-1.659,4.772-.169,7.035,1.238,1.881,3.725,2.852,6.33,2.54-.44,3.852,1.848,7.228,5.755,7.505Z"/>
        <path d="M155.628,221.623c-1.137-4.758-3.21-7.692-7.538-9.595l7.569.152,6.822-.638c-2.082,1.453-3.507,2.569-4.921,4.302l-1.931,5.779Z"/>
        <path d="M156.503,241.019l-8.259.601c4.553-2.143,6.599-5.524,7.592-10.419.927,5.093,3.169,8.179,7.623,10.023l-6.956-.204ZM157.396,239.345l-1.554-2.368-1.542,2.42,3.096-.051Z"/>
        <path d="M113.409,240.961l-7.884.243c4.575-1.795,6.693-5.113,7.693-10.04,1.058,4.915,2.958,8.105,7.449,10.3-2.38.142-4.656-.177-7.258-.504ZM114.736,239.385l-1.479-2.65-1.536,2.554,3.015.095Z"/>
        <path d="M120.555,212.229c-4.023,1.72-6.122,5.057-7.037,9.438l-1.585-4.633c-.893-2.612-3.021-3.83-5.468-5.474l7.532.701c2.023.188,3.923-.614,6.557-.031ZM115.052,213.985l-2.83-.113,1.292,2.24,1.538-2.126Z"/>
        <path d="M146.353,383.425c-1.097.313-2.165-.447-2.379-1.265-.253-.966.456-2.089,1.677-2.231.911-.107,1.9.561,2.095,1.365.181.744-.377,1.841-1.393,2.131Z"/>
        <path d="M122.384,380.155c.877-.523,2.145-.219,2.734.682.378.578.231,1.754-.554,2.345-.631.475-1.888.329-2.488-.287-.698-.716-.706-2.135.309-2.74Z"/>
        <path d="M111.595,379.73c.933-.427,2.102.015,2.553,1.002.286.625-.066,1.825-.876,2.291-.673.387-1.945.057-2.47-.691-.549-.78-.316-2.094.793-2.601Z"/>
        <path d="M156.187,379.761c.957-.417,2.079.08,2.483,1.032.275.648-.174,1.9-.837,2.246-.872.454-2.028.137-2.555-.685-.492-.769-.152-2.131.908-2.592Z"/>
        <path d="M133.929,380.148c.773-.323,1.976.064,2.381.694.515.8.179,2.049-.554,2.462-.845.475-2.163.144-2.564-.458-.606-.912-.327-2.253.736-2.697Z"/>
        <path d="M90.733,378.389c.775-.281,1.976.393,2.236,1.025.323.785-.083,2.185-.818,2.406-.961.29-2.037-.087-2.399-.755-.473-.874-.371-2.185.981-2.676Z"/>
        <path d="M101.146,379.089c.758-.269,2.001.405,2.217,1.03.286.828-.152,2.188-.835,2.394-.892.27-2.096-.147-2.401-.724-.479-.909-.349-2.215,1.018-2.7Z"/>
        <path d="M166.797,379.477c1.093-.606,2.169-.236,2.589.677.318.692-.149,2.156-.932,2.486-.638.268-1.666.057-2.322-.645-.494-.529-.26-2.005.665-2.518Z"/>
        <path d="M177.381,378.673c.877-.363,1.968-.047,2.412.764.371.677.017,1.931-.642,2.309-.87.5-2.091.216-2.482-.382-.566-.865-.258-2.29.712-2.691Z"/>
        <path d="M251.11,229.336c-1.819,2.485-4.813,3.295-7.476,1.901-1.97-1.032-3.271-2.891-3.859-5.226-3.789-.042-6.544-2.987-7.091-6.737-.559-3.835,1.163-7.323,4.73-8.901-.388-3.424.992-6.967,4.119-8.352,3.96-1.754,8.083,1.132,8.905,5.321,2.15.13,3.966.767,5.327,2.522,3.236,4.173,2.403,11.129-2.829,13.282.126,2.155-.427,4.28-1.825,6.191ZM249.454,227.657c1.369-1.809,1.505-3.971,1.189-6.156.722-.267,2.004-.662,2.488-1.048,2.654-2.112,2.87-5.774,1.223-8.478-1.213-1.992-3.231-2.619-5.591-1.9-.096-2.378-.993-4.374-2.852-5.528-1.893-1.176-4.234-.397-5.406,1.455-1.149,1.816-1.199,3.876-.637,6.174-2.946.251-4.691,2.452-4.893,5.34-.126,1.801.504,3.573,1.65,4.786,1.202,1.272,3.201,1.302,4.879,1.276.362,1.69.847,3.694,2.134,4.741,1.895,1.541,4.286,1.359,5.816-.663Z"/>
        <path d="M27.566,229.715c-2.418,2.537-6.011,2.536-8.408.276-1.917-1.808-2.723-4.38-2.597-7.103-1.849-.805-3.262-2.027-4.04-3.899-1.326-3.191-.847-6.888,1.368-9.517,1.315-1.561,3.079-2.312,5.147-2.156.775-3.872,4.401-6.956,8.364-5.638,3.5,1.164,5.238,4.997,4.662,8.622,4.667,1.802,5.989,7.241,3.762,11.673-1.209,2.405-3.469,3.85-6.125,3.89-.496,1.393-1.117,2.786-2.133,3.853ZM25.71,228.166c1.399-1.105,1.998-3.007,2.232-4.808,1.151.095,2.797.191,3.741-.388,2.486-1.524,3.249-4.341,2.63-7-.533-2.291-2.38-3.615-4.616-4.019.321-1.915.412-3.633-.18-5.2-.786-2.082-3.068-3.426-5.162-2.674-2.382.856-3.485,3.221-3.673,5.834-1.744-.651-3.505-.519-4.781.829-2.032,2.146-2.42,5.388-.894,7.948.81,1.359,2.139,2.1,3.827,2.434-.444,2.43-.141,4.829,1.506,6.601,1.425,1.533,3.488,1.931,5.37.444Z"/>
        <path d="M213.869,376.1c.237,1.617-.906,2.678-2.068,2.401-1.119-.267-1.431-1.834-.643-2.779.26-.312,1.066-.737,1.47-.771s1.182.746,1.241,1.148Z"/>
        <path d="M221.389,375.376c-.011,1.542-1.495,2.381-2.518,1.77-1.165-.696-.613-2.762.511-3.169.308-.111,1.113-.123,1.38-.007.333.145.63.936.627,1.407Z"/>
        <path d="M228.335,372.667c.463.275.505,1.752.249,2.238-.274.521-1.29,1.215-1.924,1.017-1.077-.336-1.044-1.626-.759-2.438.268-.762,1.385-1.44,2.434-.817Z"/>
        <path d="M57.58,378.112c-.791.219-1.788-.646-1.886-1.218-.121-.707.166-1.963.859-2.183.807-.255,1.75.397,1.958.929.306.783.246,2.147-.93,2.472Z"/>
        <path d="M43.205,375.352c-1.213.564-1.962-.247-2.231-.932-.31-.788-.291-2.102.858-2.404.533-.14,1.587.674,1.829,1.2.23.501.056,1.898-.456,2.136Z"/>
        <path d="M50.374,376.826c-.541.305-1.764-.359-1.981-.847-.255-.574-.236-1.947.263-2.325.76-.576,1.966-.033,2.385.781.309.6.521,1.72-.667,2.39Z"/>
      </g>
    </g>
  </g>
</svg>