<?xml version="1.0" encoding="UTF-8"?>
<svg id="b" data-name="Layer 2" xmlns="http://www.w3.org/2000/svg" width="339.17" height="347.192" viewBox="0 0 339.17 347.192">
  <g id="c" data-name="Layer 1">
    <g>
      <path d="M180.685,263.617c.015-.016.031-.03.046-.046-.015.015-.031.03-.046.046Z"/>
      <path d="M180.201,264.141c.159-.177.316-.355.484-.524-.167.171-.326.346-.484.524Z"/>
      <path d="M180.731,263.572c.508-.508,1.052-.981,1.626-1.411-.582.431-1.125.903-1.626,1.411Z"/>
      <path d="M182.357,262.16c.045-.033.091-.065.136-.097-.045.033-.091.064-.136.097Z"/>
      <path d="M322.398,261.581c-8.331-.446-15.947,5.934-14.43,14.697,1.038,7.284,10.068,11.226,16.091,6.956,2.71-1.572,3.772-4.578,4.261-7.506-.035-2.535-1.313-4.782-2.51-6.94,3.188.557,5.604,3.301,6.562,6.293,1.168,3.145.233,6.511-1.279,9.366-2.245,4.347-6.409,7.655-11.195,8.726-1.556.364-3.286.593-4.803.913.023-.028-49.567.041-49.291.074-.062-.287-.124-.618-.046-.878.02-.086.239-.121.361-.186l.431-.172s.012-.005.012-.005c.008-.009,4.888-4.94,4.897-4.949,3.171-3.619,4.85-8.241,4.891-12.73v-.006c.005-.533-.01-1.063-.052-1.59-.006-.085-.018-.168-.026-.253-.04-.428-.096-.854-.167-1.276-.015-.088-.026-.177-.042-.265-.091-.49-.209-.972-.344-1.449-.014-.05-.028-.101-.043-.151-1.219-4.181-4.104-7.811-8.824-9.782-3.905-1.598-7.921-1.466-11.36-.111-.213.08-.419.171-.626.26-.039.018-.079.033-.118.051-1.451.64-2.757,1.508-3.889,2.574-.095.087-.188.175-.281.264-.074.074-.149.146-.222.222-3.312,3.329-5.021,8.229-3.631,13.643.657,2.66,2.15,4.95,4.124,6.683.209.189.426.368.648.542.043.033.084.068.128.101.548.421,1.134.795,1.752,1.121,2.209,1.206,4.74,1.815,7.303,1.658.054,0,.108.007.162.006.199-.002.397-.034.595-.074.316-.038.632-.076.947-.138.423-.057.854.034,1.213.261-1.826,1.88-3.977,3.455-6.373,4.524-2.05,1.038-5.447,1.562-7.635,2.022,0,0-53.153.052-53.207.052-.053-.228-.065-.472.026-.688.09-.225.263-.407.449-.564,0,0,1.155-.939,1.155-.939,4.118-3.438,7.321-8.314,8.328-13.619.026-.132.052-.263.075-.395.031-.183.058-.367.084-.552.034-.242.062-.485.087-.727.012-.124.027-.248.037-.373.03-.377.049-.754.055-1.131.002-.106-.003-.212-.003-.317,0-.254-.006-.508-.018-.762-.004-.098-.001-.196-.007-.294-.006-.117-.027-.232-.036-.349-.008-.088-.018-.176-.027-.264-.227-2.451-1.084-4.779-2.409-6.808-.129-.2-.265-.399-.406-.596-.089-.124-.175-.25-.268-.371-.036-.047-.067-.096-.103-.143-.122-.158-.258-.296-.385-.448-.158-.188-.312-.378-.479-.558-.283-.311-.578-.603-.881-.887-.032-.03-.063-.06-.095-.089-1.069-.986-2.246-1.809-3.529-2.429-2.229-1.115-4.733-1.676-7.32-1.47-2.72-.059-5.346.8-7.588,2.271.143-.092.291-.177.438-.264-1.445.871-2.729,1.984-3.791,3.274.137-.17.284-.332.429-.496-.151.167-.298.337-.441.51-.02.024-.038.048-.057.072-.257.315-.499.641-.729.976-.008.011-.015.023-.023.034-.742,1.088-1.347,2.266-1.762,3.513-.415,1.19-.615,2.418-.664,3.649-.004.077-.007.153-.009.23-.007.336-.004.671.014,1.006.008.159.021.318.035.478.027.301.059.601.105.9.009.054.01.107.019.16.018.103.046.202.065.304.058.305.118.609.196.91.024.096.051.19.077.284.379,1.469,1.008,2.899,1.911,4.233.664,1.006,1.444,1.907,2.319,2.692.042.039.085.078.128.117.254.222.517.431.786.633.144.11.285.223.433.328.041.028.084.052.126.08,1.274.873,2.703,1.514,4.247,1.869.151.036.305.064.458.095.176.033.346.084.524.109,1.298.236,2.671.187,4,.091-.254.013-.509.025-.764.029l1.971-.123c-.396.031-.8.064-1.207.094.506-.025,1.01-.062,1.511-.113l.409-.026c-.135.174-.279.341-.421.509-.101.119-.201.238-.303.353-.616.686-1.289,1.32-2.014,1.889-.032.025-.065.05-.097.075-.475.367-.971.706-1.486,1.016-.037.022-.072.046-.109.068-.247.146-.499.284-.754.417-.115.06-.233.115-.35.172-.21.102-.419.206-.633.299-.178.08-.359.147-.54.219-.187.074-.375.147-.565.214-2.116.737-4.374.988-6.58,1.324l-27.569-.076-13.785-.034c-.259-.002-.519.002-.778,0l-1.589-.004-.877.007c-2.365.017-4.729.05-7.092,0l-.462-.019c-.994-.026-1.989-.06-2.982-.126h0s0,0,0,0h0c.024-.05.057-.096.083-.145-.026.049-.059.094-.083.144.025-.074.128-.247.243-.422-.059.09-.109.184-.16.278.053-.097.104-.194.166-.286.012-.018.024-.034.037-.053.09-.131.185-.258.29-.377,0,0,0-.001.001-.002l.002-.002c.834-.709,1.639-1.472,2.413-2.275l.302-.285c2.652-2.876,4.853-6.151,5.993-9.873.075-.239.147-.479.214-.721.047-.177.094-.354.135-.533.407-1.664.594-3.38.509-5.132-.013-.332-.037-.662-.071-.99-.005-.044-.004-.088-.01-.133-.009-.078-.027-.153-.037-.231-.037-.288-.083-.574-.138-.858-.025-.132-.048-.265-.077-.397-.032-.142-.073-.28-.11-.42-.429-1.689-1.154-3.278-2.12-4.709-1.622-2.47-3.887-4.431-6.63-5.62-1.566-.715-3.251-1.165-4.993-1.304-.111-.01-.223-.025-.332-.03-.066-.004-.131-.015-.197-.018-.135.009-.283.027-.422.039-.089.006-.187-.003-.272.009l-.34.047c-1.229.133-2.562.345-3.739.511-.051.013-.099.031-.15.045-.954.183-1.863.578-2.728,1.09-2.148,1.145-3.929,2.839-5.23,4.841-1.724,2.591-2.611,5.728-2.388,8.844.004.068.007.136.012.203.008.094.019.187.029.28.201,2.059.874,4.095,2.104,5.947.962,1.509,2.229,2.816,3.682,3.856.119.086.24.168.361.25.202.135.407.264.615.389.158.095.314.193.476.282.266.146.537.28.811.409.229.107.461.204.695.298.186.075.372.149.561.216.178.063.357.122.537.178.27.083.542.156.816.223.103.024.203.055.307.077.421.091.847.159,1.275.208.016.002.032.003.049.004.445.049.892.072,1.341.074.005,0,.01,0,.014,0,.819.002,1.641-.068,2.456-.237.2-.021.396-.11.579-.01.125.059.281.123.346.25.01.032-.041.07-.069.109,0,0-.388.459-.388.459-.329.385-.673.735-1.023,1.07-.845.77-1.853,1.511-2.855,2.115-3.444,1.935-7.49,2.371-11.594,2.424l-4.015-.027c-1.427-.026-2.84-.054-4.212-.035.031.033-36.687-.108-38.408-.02h-.066c.102-.552.322-1.024.772-1.376l1.161-1.167s2.305-2.351,2.305-2.351c8.086-8.371,24.034-24.573,32.259-32.926,10.863-11.101,26.35-26.58,36.886-37.564,54.535.323,128.827.155,183.739.228,3.535.202,7.007-.767,10.15-2.341,4.858-2.093,8.901-5.973,10.894-10.906,4.686-11.143-1.915-22.035-14.032-22.473-7.037-.782-14.607,4.564-14.476,12.02-.048,3.543,1.67,7.087,4.717,8.981,9.045,5.331,19.276-4.277,13.268-13.363-.222-.328-.606-.85-.107-.79,1.237.213,2.37,1.104,3.286,1.93,5.478,5.144,2.028,14.226-3.519,17.925-2.084,1.585-4.521,2.69-7.146,2.893l-2.605.317c-13.529-.015-35.318-.006-48.756-.022h-1.626c-.256-.01-.575.021-.779-.023-.102-.026-.232-.075-.291-.113,0,0,0-.004,0-.004l.015-.1s.016-.101.024-.156c.345-.294,3.626-3.082,3.626-3.082,2.308-2.584,4.525-5.439,5.49-8.853,3.364-11.348-6.148-21.649-17.671-18.972-7.021,1.576-11.729,9.144-10.143,16.148,1.268,7.094,8.931,11.435,15.775,9.992-.781,1.24-1.979,2.172-3.305,2.804-4.368,2.139-9.22,2.436-14.023,2.274-9.572-.041-28.885-.107-38.456-.042l-4.807.012-1.202.003c-.42-.005-.863.04-1.164-.173,0-.005,0-.017.004-.04.137-.729.895-.908,1.376-1.355,2.504-2.016,4.544-4.635,6.129-7.415,7.355-13.362-5.892-27.978-19.647-20.855-5.836,3.031-8.419,10.74-6.093,16.81,1.307,2.94,3.685,5.476,6.552,6.95,2.544,1.353,5.513,1.317,8.277,1.2l-.09.191s-.208.439-.24.505c-4.43,3.493-10.129,4.474-15.656,4.005,0,0-5.998-.006-5.998-.006-9.869-.032-23.169.008-32.987-.032h-1.499c-.139.002-.206-.005-.312-.039-.085-.025-.177-.088-.194-.113.006-.026.015-.066.015-.066l.041-.183s.055-.242.072-.316c17.074-17.323,51.449-52.123,68.543-69.383,24.189.221,71.081-.014,95.383.206,3.929-.033,9.835.205,13.663-.228,9.073-.707,17.983-7.571,19.279-16.871.919-4.527-.289-9.456-3.351-12.942-3.122-3.544-7.975-4.75-12.53-4.868-4.606-.14-9.381,2.443-11.293,6.734-1.957,4.171-1.385,9.774,2.432,12.719,3.648,2.882,9.57,2.712,12.797-.747,2.775-3.048,3.104-8.016.669-11.348,0,0-.49-.698-.49-.699.005-.004.009-.009.013-.011.044-.033.096-.065.147-.092.015-.012.046-.023.068-.031,3.163,1.124,5.49,4.054,5.795,7.404.655,6.886-5.234,12.89-11.554,14.648-2.527.795-7.628.431-10.147.512,0,0-20.514.036-20.514.036-6.053.072-14.628-.097-20.478.005,0,0-1.582-.245-2.115-.328.801-1.485,1.987-2.81,3.136-4.011,1.321-1.284,3.28-1.663,4.709-2.846,1.518-1.113,2.832-2.559,3.645-4.285,1.906-4.67,1.486-10.478-1.725-14.49-3.961-5.093-11.542-6.968-17.356-4.095-9.284,4.179-10.485,18.659-1.28,23.607,2.059,1.191,4.54,1.564,6.891,1.827l.395.045c-.023.1-.055.201-.084.275l-.029.02-.245.165s-.489.33-.489.33c-1.258.78-2.571,1.889-3.939,2.505-1.332.617-3.101.885-4.469,1.029l-40.545-.014c-.077-.149-.168-.328-.257-.499,17.31-17.026,42.134-42.638,59.499-60.089,9.375-.009,23.003.339,32.164.449,2.517-.02,9.737.064,12.113.032,2.823-.04,5.268-1.57,7.572-3.003,2.238-1.634,3.856-3.964,4.963-6.477,1.901-5.053,1.42-11.466-2.499-15.463-7.512-8.089-21.338-3.702-20.376,7.904.405,5.748,7.136,9.724,12.408,7.565,2.633-.998,4.591-3.79,5.009-6.205,0,0,.158-.335.202-.427.006.018.014.037.018.053,1.451,5.052-3.573,9.997-8.099,10.696-6.18.049-12.905.141-19.058-.368.078.044-19.393-.167-18.688-.034-.081-.046-.157-.095-.215-.14-.007-.003-.01-.008-.015-.012.003-.008.052-.138.052-.138,0,0,.053-.141.083-.219,5.655-5.65,13.167-13.358,18.873-19.182,0,0,.11-.113.11-.113,0,0-.016-.158-.016-.158-.246-1.911-1.423-4.087-3.404-4.612-1.075-.258-2.077.551-2.719,1.233-.683.645-1.379,1.276-2.043,1.939l-4.026,3.938-2.01,1.971s-1.009.991-1.009.991c-.127.137-.185.235-.263.329-.092-.03-.168-.055-.31-.101.025-2.664.252-26.865.252-26.865-.673-6.634,4.623-13.436,11.487-13.396,1.078.038,2.139.333,3.141.78.738.333,1.68.658,1.911,1.403-5.855-2.087-11.748,2.44-11.055,8.708.364,5.093,5.518,8.528,10.401,7.784,9.705-1.231,12.15-13.736,5.935-20.284-5.261-5.922-14.97-5.4-20.849-.672-2.999,2.362-5.177,5.738-6.084,9.45,0,0-.64,3.893-.64,3.893.002.037-.063,35.355-.046,35.391.778-1.22-59.192,59.143-66.201,66.045,0-9.769-.006-32.803-.005-41.338.005-1.981-.128-5.003.592-6.859.681-2.117,1.91-4.368,3.051-6.147l.152.149c.306,2.772,1.448,5.458,3.283,7.568,7.66,8.919,22.503,4.606,24.313-7.01,2.02-11.155-9.402-20.225-19.762-15.532-2.319,1.023-4.333,2.778-5.61,4.986-2.107,1.179-4.125,2.714-5.506,4.785-.13.249-.314.406-.548.521.002-1.142.062-35.718.062-35.718,0,0,.016-9.077.016-9.077-.014-3.01-.155-5.969,1.08-8.773,1.129-2.68,2.724-5.344,5.108-7.074,5.714-4.106,13.569-3.563,16.363,3.478-.676-.321-1.373-.976-2.115-1.26-3.323-1.771-7.668-.453-10.054,2.32-2.41,2.747-3.252,7.032-1.411,10.304,1.901,3.243,5.19,5.471,9.013,5.242,14.548-.249,15.302-20.591,4.287-26.852-4.175-2.479-9.335-2.714-13.921-1.293-7.036,1.937-12.178,8.119-14.129,14.98-.681,2.269-.834,4.733-.78,7.066.118-.349-.33,113.616.048,111.884-10.374,10.318-43.06,43.225-52.907,53.019-5.333,5.422-13.821,13.963-19.186,19.353-.731.735-2.922,2.936-3.604,3.622-.301.308-.584.639-.87.967v-.062c-.006-4.571.029-12.391.015-17l.014-18.133s.014-18.133.014-18.134c.013-2.894,1.217-5.806,2.539-8.356.338-.547.649-1.108,1.066-1.498.284,1.892.604,3.839,1.552,5.554,6.935,13.047,26.028,8.435,27.05-6.064.526-6.259-3.282-12.667-9.242-14.846-5.861-2.429-13.619-.115-16.735,4.41-2.491,1.135-4.479,3.067-6.29,5.071-.002-7.998-.014-52.065-.014-52.065.404-2.837,1.59-6.357,3.747-8.708.044.006.048.006.097.012.661,6.694,6.623,12.307,13.391,12.371,19.037.192,19.749-28.251.652-28.926-1.669-.042-3.384.168-4.979.732-3.179,1.081-5.819,3.438-7.497,6.292-2.099,1.154-3.796,2.864-5.412,4.594-.005-7.767-.037-53.278-.037-53.278.378-2.279.635-5.441,2.153-7.587,2.719-4.449,8.859-6.963,13.692-4.551,1.766.848,3.189,2.344,4.097,4.066,0,0,.015.065.031.144-.249-.086-.506-.174-.506-.174-5.254-3.409-12.756-.057-13.599,6.565-1.081,6.289,5.479,11.525,11.438,10.609,13.718-2.19,13.131-21.76,1.76-27.012-11.893-5.5-24.293,3.333-25.694,15.714-.128,1.179-.084,2.342-.095,3.481,0,0-.006,3.444-.006,3.444-.075,50.777-.369,141.069-.315,190.85-12.331,11.969-26.565,26.626-39.427,39.527-10.943,11.071-23.627,23.712-34.633,34.785-.933.947-3.085,3.047-3.958,4.064-.009-.002-.015-.002-.024-.005,0-.008-.002-.023-.002-.023,0,0-.035-.437-.035-.437.003.141.061-32.685.062-32.657l.031-16.343c.111-2.617-.279-5.433.374-8.064.49-2.471,2.168-5.323,3.275-7.253l1.408-1.467.283-.298c.018-.003.038-.005.051.001.031.002.06.011.091.017-.004.04-.007.073-.007.073-1.244,11.072,10.444,18.884,20.296,14.216,9.643-4.342,11.723-17.594,4.017-24.776-5.748-5.91-15.363-4.951-21.725-.58-3.052,1.973-5.688,4.476-8.153,7.095.03-11.869.015-39.973.054-50.747,0,0,.005-4.296.005-4.296-.287-4.305,1.408-8.339,3.793-11.862.028-.033,1.273-1.48,1.273-1.48l.647-.745s.041-.044.081-.088c-1.748,12.927,13.12,21.99,24.037,12.292,5.981-5.476,6.128-15.716.315-21.366-9.461-9.371-22.72-2.52-30.239,5.883-.003-6.526-.024-53.143-.024-53.143.649-3.421,2.275-7.352,5.113-9.824.169-.209.532-.318.848-.297-.219,1.777-.07,3.606.501,5.309,1.808,5.406,7.458,9.057,13.094,8.943,7.777.094,14.123-7.339,13.525-14.961-.492-10.102-11.457-16.72-20.482-11.773-.832.441-1.657.966-2.289,1.666-.626.697-1.156,1.324-2.013,1.747,0,0-2.391,1.384-2.391,1.384-2.305,1.13-4.196,2.988-5.905,4.859l.017-40.959.002-5.204s0-2.602,0-2.602c.024-4.205,1.826-8.575,5.025-11.363,5.273-4.684,14.457-4.471,17.341,2.168-.003.13-.061.368-.146.531-1.184-.846-2.545-1.501-4.009-1.66-6.018-.845-10.699,4.83-9.995,10.567.684,3.623,3.388,7.028,7.059,7.872,13.508,2.495,18.517-13.091,11.386-22.765-6.867-9.453-22.197-7.589-28.634,1.404-2.206,2.923-3.717,6.37-4.338,9.981-.574,2.931-.21,7.993-.321,10.899.09,39.327-.556,215.321-.334,257.595-3.639,3.685-24.648,24.933-27.701,28.03,0,0-2.77,2.804-2.77,2.804-1.706,1.999-4.279,3.384-5.019,6.069-.438,3.517,4.053,6.507,7.045,4.539,13.684-13.688,32.52-32.735,45.556-46.285,12.683-.008,206.411.262,212.468.101,13.851.138,33.112.017,47.215,0,7.871.462,16.073-2.252,21.303-8.339,10.201-11.99,5.766-29.951-11.22-30.461ZM202.299,218.274l1.702.027c-2.333-.001-4.658-.003-6.977-.005l5.275-.023ZM106.958,280.603c-.115-.187-.225-.376-.329-.566.103.193.217.379.329.566ZM106.49,279.774c-.41-.796-.731-1.616-.962-2.452.243.855.569,1.674.962,2.452ZM105.501,277.232c-.091-.339-.166-.68-.229-1.023.068.344.136.688.229,1.023ZM256.063,286.859c.889.246,1.8.422,2.719.517-.924-.079-1.835-.25-2.719-.517ZM193.383,259.476c.419.051.832.126,1.242.215-.41-.083-.82-.165-1.242-.215ZM193.286,259.467c-.499-.055-1.009-.081-1.524-.087.513,0,1.021.029,1.524.087ZM184.259,260.981c-.166.088-.336.17-.499.264.163-.092.331-.178.499-.264ZM176.856,276.442c.024.107.043.217.07.323-.024-.108-.048-.215-.07-.323ZM177.123,277.477c.065.22.128.441.202.656-.077-.216-.136-.437-.202-.656ZM183.746,285.87c.056.031.116.056.173.086-.057-.03-.116-.055-.173-.086ZM184.539,293.105c.087-.019.174-.036.261-.056-.086.021-.174.037-.261.056ZM131.754,293.751l-2.343.017-1.026-.043c1.123.024,2.246.029,3.369.026ZM125.184,293.088c.107-.157.218-.306.285-.37-.102.117-.196.242-.285.37ZM125.472,292.714l2.378-2.242c-.762.79-1.556,1.542-2.378,2.242ZM134.238,280.083c.035-.119.073-.237.106-.357-.034.12-.07.238-.106.357ZM135.042,274.957c-.018,1.342-.186,2.66-.49,3.946.109-.483.213-.968.284-1.465.118-.824.188-1.654.206-2.481ZM135.047,274.594c0-.179-.002-.357-.008-.535.007.179.007.356.008.535ZM134.734,271.449c-.003-.014-.005-.028-.008-.042.003.014.005.028.008.042ZM132.757,266.601c-.059-.096-.122-.189-.183-.284.062.094.123.189.183.284ZM134.451,270.353c-.373-1.196-.872-2.327-1.478-3.382.626,1.06,1.129,2.191,1.478,3.382ZM124.737,260.11c-.401-.137-.809-.265-1.228-.37-.58-.145-1.244-.308-1.908-.418,1.077.144,2.125.417,3.136.787ZM120.32,259.205c.02,0,.04.005.06.005-.057-.001-.109.005-.165.005.035-.003.069-.008.105-.011ZM112.342,261.127c-.697.44-1.366.941-2.003,1.452-.67.537-1.282,1.14-1.84,1.789,1.073-1.29,2.366-2.399,3.843-3.242ZM116.932,291.749c-.043.023-.092.04-.136.062.106-.05.209-.109.314-.161-.059.032-.119.068-.178.099ZM107.999,293.676c2.956-.139,5.843-.565,8.45-1.706-2.428,1.13-5.596,1.616-8.45,1.706ZM64.824,31.309s0,0,0,0c.009.004.012.005,0,0Z"/>
      <path d="M182.492,262.063c.207-.151.418-.295.632-.435-.216.138-.425.286-.632.435Z"/>
    </g>
  </g>
</svg>