<?xml version="1.0" encoding="UTF-8"?>
<svg id="b" data-name="Layer 2" xmlns="http://www.w3.org/2000/svg" width="593.341" height="431.095" viewBox="0 0 593.341 431.095">
  <g id="c" data-name="Layer 1">
    <g id="d" data-name="OEDqnL">
      <g>
        <path d="M579.626,106.965c3.867-2.218,6.737-5.523,8.882-9.453,5.048-9.243,5.732-18.406,3.923-28.762-.641-3.668-3.724,1.021-8.833,1.095-4.12.06-8.021.247-11.519,2.551l-.519.342c-.126.083-.735.376-.695.314.039-.059-.086-.551-.129-.867l-.363-2.652c-.01-.074-.327-.466-.577-.796l-6.081.919c-6.191.937-11.477,4.374-14.781,9.696l-.779,1.255c-.218.351-.737-1.567-3.265-1.208l-9.396,1.335c-3.178.452-6.501,2.501-8.857,4.583l-.811.717c-.103.091-.741.093-.672-.026l.474-.825c1.221-2.125,2.425-4.518,4.103-6.272,1.819-1.902,3.18-3.63,3.828-6.458,9.062,2.655,18.334-1.01,22.883-9.183,1.874-3.366,2.864-7.12,3.376-10.991l1.375-10.404c.829-6.277,3.855-11.695,8.462-15.964.312-.29.765-1.191.432-1.291l-1.245-.372c-7.604-1.067-15.139-.323-22.226,2.758l-.838-.241.014-9.75c-1.818-1.321-6.842-.124-9.776.814l-.918.294c-.158.05-.386-.482-.446-.678-1.312-4.257-4.248-7.328-7.592-10.312L519.074.017c-.341-.085-1.332.172-1.572.393l-5.201,4.767c-4.627,3.627-8.127,8.001-9.166,13.799-3.759-1.375-7.34-1.807-11.238-.986l1.195,9.229c.03.234-.112.918-.265.861l-.737-.275c-5.896-1.3-11.558-1.292-17.485-.179l-1.12.874c-.183.142.145.839.367,1.047,6.407,5.988,9.143,12.289,10.57,21.127.823,5.098,2.142,9.913,5.025,14.174,4.394,6.492,11.873,9.467,19.396,7.872.179,3.081-.499,5.212-1.681,7.571-10.066,20.089-31.943,30.361-54.324,27.568-.238-.099-.364-.174-.225-.264l.723-.467c8.724-2.138,16.356-6.742,22.345-13.417,5.017-5.638,7.573-12.396,8.583-19.99l-4.623-1.401-.051-.806c2.062-4.026,3.316-8.663,2.271-13.083l-2.494-10.556c-.139-.587-1.232-1.334-1.767-1.168l-3.724,1.151c-.144.045-.339-.346-.301-.491l.215-.812c1.354-5.125.926-10.158-.631-15.134-5.033-13.63-18.881-21.834-33.26-19.359l-.677,1.645c2.793,4.543,3.159,9.336,2.323,14.412-.74,2.779-1.677,5.447-2.971,8.021-3.929,7.813-5.331,16.305-1.059,24.499-7.881,1.108-13.111,8.503-10.939,16.067.533,1.857,1.679,3.659,3.285,4.562,2.093,1.175,2.375-2.746,4.468-2.617,2.97.183,4.404,3.896,3.436,7.638-2.561,6.744-9.617,10.556-16.613,8.611l-14.277-11.121-15.595-10.955c11.96-4.014,22.439-10.546,30.38-19.978,7.866-9.343,6.905-22.152,5.207-22.528-.441-.097-1.494.199-1.912.481-5.165,3.492-10.661,6.228-15.223,10.5-10.988,10.291-21.231,14.8-36.317,17.448-.764-.063-.876-.309-.128-.661,6.045-4.851,9.905-11.942,10.443-19.688l.563-8.103c-2.14-.76-4.778-.761-7.286-.463,1.78-9.855-2.494-16.705,6.08-26.156-8.13-2.994-16.842-2.098-24.147,1.63-9.56,4.878-11.725,14.316-11.847,14.24l-.668-.415-5.68-3.53-3.027,4.739c-3.054,5.579-4.132,11.857-2.85,18.221.968,4.806.538,9.486-2.423,13.555-2.522,3.466-5.843,6.339-9.945,7.906l-6.575,2.511c-.139.053-.735.059-.69-.062l.281-.75c2.297-6.125,4.215-12.143,5.935-18.982-20.312-1.546-40.05-8.041-55.779-21.104-11.364,8.372-21.765,18.172-29.494,30.638,5.653,4.598,10.904,8.807,15.424,13.979-17.298,33.892-50.291,53.614-88.399,51.64-1.168,12.505-5.667,24.136-14.124,33.377-7.957,8.695-18.253,15.34-29.908,18.039-7.375-9.274-19.231-14.735-31.173-11.906-3.729-5.08-8.86-8.413-14.714-10.388-18.71-6.312-40.007-.012-52.902,14.567-7.038,7.957-11.745,19.262-8.773,29.691-13.411,8.514-14.93,28.48-5.978,41.23,5.078,7.232,14.878,11.924,23.409,9.413,7.101,8.953,21.882,8.845,31.225,2.371,8.004-5.546,12.232-14.816,10.864-24.422-.848-5.949-4.354-10.979-9.809-13.31-4.725-2.019-10.067-1.234-13.485,2.602l-.715.803c-.102.114-.285-.664-.302-.8-.023-7.371,3.582-13.564,9.759-17.489,10.654-6.593,26.476-4.029,30.848,7.886,1.083,2.952,1.285,5.942.048,9.13-1.322-3.327-3.76-4.485-6.918-3.784-3.501.778-5.874,3.839-6.489,6.858-.767,3.762.473,7.217,3.309,9.74,5.073,4.512,12.671,4.448,18.144.453,11.448-8.356,11.742-25.28,3.224-37.199-5.901-8.256-14.901-13.305-25.201-14.512-14.962-1.752-29.769,5.261-37.994,17.851-8.031,12.294-7.834,29.704,3.848,37.213,4.105,2.639,9.306,3.101,13.211.497,2.78-1.854,4.056-5.031,2.702-8.006-.464-1.02-1.591-2.033-2.562-2.21-1.577-.288-5.333,3.49-4.423.92l1.542-4.358c2.984-3.332,7.406-3.554,11.176-1.318,3.939,2.335,5.969,6.732,6.299,11.482.5,7.205-3.35,14.024-8.75,18.065-5.885,4.404-13.45,5.588-20.272,3.208-3.544-1.237-6.176-3.399-7.757-6.836-5.789,3.944-14.22.695-18.76-3.867-8.695-8.737-9.89-22.607-3.323-32.941,2.027-3.19,4.797-5.32,8.38-6.629-4.279-8.801-.928-18.811,4.884-26.446,9.195-12.082,23.938-18.847,39.153-18.062,9.314.48,20.838,4.581,24.993,13.492,5.952-2.343,12.063-2.054,17.969.411,12.344,5.151,19.209,18.009,17.388,31.292-.864,6.303-3.472,11.987-8.66,15.901l.169.941c19.302-.28,37.59-6.354,53.239-17.342,14.698-10.32,25.519-23.147,31.955-39.899,22.692-4.165,43.847-16.149,60.69-31.442,19.323-17.545,33.499-42.074,39.264-67.966-7.184-1.488-13.917-3.331-20.55-6.133l-10.443-5.492-8.727,8.726,10.234,10.045,3.878,3.66c-16.541,39.423-52.301,67.908-95.635,68.758-5.415,25.777-26.768,44.248-51.52,50.286-.753-4.068-1.97-7.424-3.568-10.788,14.689-3.982,27.292-12.736,35.77-25.054,5.348-7.771,8.329-16.495,9.902-25.807,30.41.765,58.964-12.996,77.566-36.762,4.965-6.343,8.905-13.011,12.527-20.343-4.827-4.958-9.389-9.344-14.72-13.542l-.023-.929c2.697-3.708,5.332-7.076,8.459-10.371,4.544-4.668,9.092-8.811,14.19-12.899l.96.229c7.281,5.59,15.206,9.658,23.839,12.842,8.308,3.022,16.587,4.944,25.724,5.849-3.563,13.737-9.121,26.253-16.458,38.451,5.455-1.943,10.672-3.065,16.231-2.324,8.39,1.118,15.526,6.184,19.16,12.85,4.375,8.027,4.144,17.073-.124,24.481-3.495,6.067-9.876,9.736-16.64,8.388-4.727-.942-8.501-5.13-7.551-9.926,2.807,1.29,6.044.81,8.191-1.778,2.159-2.602,2.663-6.184,1.228-9.502-4.194-9.701-16.374-10.729-26.4-5.549-5.15,2.66-9.699,6.037-13.878,10.082l-11.105,10.752c-10.051,9.731-20.392,18.673-32.366,26.009-9.524,5.835-19.234,10.624-29.901,13.515-2.756,6.616-6.004,12.307-10.166,17.976-14.114,19.229-33.828,33.46-56.376,41.235-8.874,3.06-17.939,4.137-26.935,4.902-3.929,7.637-11.681,12.098-19.656,12.49-.417.098-.837.186-1.26.265-3.7.694-7.31,1.249-11.082,1.305,4.126,2.008,8.747,2.796,13.526,2.354,8.73-.601,16.556-5.069,20.85-12.682,11.012-.387,21.369-2.775,31.61-6.836,26.565-10.536,50.765-31.34,62.68-57.698,12.51-3.934,23.926-9.678,34.754-17.09,11.52-7.885,21.271-17.426,31.449-26.908l9.717-9.053c6.984-6.507,18.487-12.915,26.996-7.944,3.163,1.847,5.169,5.203,4.017,8.863-.268.851-1.375,1.894-2.076,2.177-2.554,1.032-2.921-1.975-4.114-2.243-2.183-.491-5.708,5.397-3.02,11.314,2.465,5.424,8.032,8.551,14.108,8.313,7.453-.292,13.792-4.744,17.351-11.286,7.939-14.592,2.049-32.66-13.227-40.168,14.71-1.719,31.91,1.429,43.088,11.392,1.85,1.649,3.236,3.905,3.633,6.262.342,2.037-.768,3.458-2.228,4.518-5.414,3.925-7.873,10.158-7.238,16.861.408,4.308,1.943,8.069,3.527,12.172l5.116-.497.351.543c-.959,4.303.338,8.282,2.87,11.733,1.857,2.532,4.356,4.196,7.05,6.101.523.37,1.576.176,2.537-.394.932,5.891,3.82,11.284,8.49,15.43l5.969,4.442c.342.255,1.64-.33,1.749-.82.656-2.935,2.312-6.149,4.102-8.742,7.268-10.52,4.341-19.819,4.564-19.982l1.207-.877c3.144-9.046,1.948-18.512-1.833-27.637l7.111,7.187c10.826,13.047,22.525,30.208,21.948,47.474-.141,4.218-.959,8.231-3.463,11.491-1.954,2.542-5.272,4.168-7.467,2.104-.232-.218.147-1.087.442-1.169l2.26-.625c1.325-.367,1.941-6.998-4.729-9.504-5.649-2.122-11.945.212-15.428,5.312-3.724,5.454-4.072,12.463-1.412,18.619,3.432,7.941,11.375,12.73,20.063,12.596,7.865-.121,14.553-3.709,19.776-9.479,4.191-4.629,6.474-10.253,8.157-16.59,6.634,13.687,14.496,41.253,3.137,51.01-2.484,2.134-6.023,2.688-8.621.577-.806-.655-1.191-2.297-.871-3.286.266-.821,1.759-1.369,2.648-1.935,1.586-1.009.089-3.248-1.211-4.124-4.648-3.13-10.42-2.256-14.975,1.147-5.858,4.58-7.812,12.652-5.088,19.449.446-.743.966-1.442,1.552-2.068.496-.529,1.036-1.026,1.599-1.498-.473-2.885-.265-5.8,1.084-8.547,2.267-4.617,7.185-7.538,12.46-6.064-2.782,3.026-2.69,6.769-.07,9.434,2.882,2.931,7.194,3.403,11.062,1.713,3.441-1.503,6.196-4.37,7.677-7.97,7.489-18.206-3.27-44.902-13.151-61.889-.695-.524-.743-.166-.452.546.797,11.644-2.454,23.695-11.659,30.832-5.492,4.258-12.326,5.969-19.001,3.833-9.104-2.914-14.101-12.771-10.668-21.638,1.489-3.847,4.844-6.638,8.79-6.819,2.803-.129,5.478.95,6.284,3.724-2.881.511-4.12,3.069-3.217,5.669.895,2.578,3.701,3.908,6.567,3.563,8.157-.98,11.839-10.363,12.044-18.834.422-17.434-11.071-35.248-22.371-48.1l-7.197-8.186c-9.248-10.519-30.197-27.673-44.174-31.286,10.757,6.03,20.518,12.851,28.485,22.168,8.016,9.375,13.505,21.517,11.119,33.793-.391,2.009-1.259,3.811-2.549,5.556,1.37,6.347.001,12.542-3.658,17.93-1.429,2.103-2.508,4.148-3.557,6.568l-4.15-3.845c-4.792-5.093-6.392-11.423-5.496-18.417l-5.03,4.229c-6.45-3.398-9.733-12.303-6.465-15.856,1.643-1.786,4.015-3.263,2.958-6.302-3.344,2.325-6.424,3.61-10.394,4.082-3.619-7.946-3.588-17.103,3.607-22.154,3.304-2.319,4.42-6.282,2.89-10.252-1.531-3.971-4.742-6.919-8.391-9.42-15.207-10.422-33.685-11.127-51.644-8.336l-9.493,1.475c-.467-.953-.517-2.889-.057-3.832l3.468-1.417c1.794-3.057,3.911-6.075,7.152-7.683,6.756-3.351,16.977-.16,27.285-7.204,7.83-5.35,13.421-13.051,15.695-22.222l2.974-11.993c.104-.51-.034-.571-.651-.097l-4.212,11.124c-4.827,12.746-15.497,25.536-29.711,25.697,8.032-5.521,13.265-13.699,11.136-22.828-1.474-6.324-.488-12.608,3.061-18.216l7.612,5.374.537.454c.113.095.38-.387.52-.602-.485-6.404,2.348-12.066,7.605-15.812,5.19-3.615,11.343-4.995,18.026-4.278-2.696,4.633-3.501,9.783-2.876,15.15.562,4.833-.216,9.217-2.97,13.526,3.639-.85,6.371-1.27,9.299-1.017.62,14.233-8.724,24.702-22.193,27.56-1.343.285-2.95,1.111-4.438,1.956,12.641,1.118,24.907-.333,36.709-4.646,8.442-3.084,15.584-7.666,21.994-13.827,3.518-3.381,7.634-5.74,11.949-8.66-.315,7.24-3.729,13.421-9.041,18.136-2.307,2.048-5.151,3.573-7.716,5.29l-6.803,4.553c-5.823,3.898-12.56,5.831-19.47,7.166-.848.08-.885.406-.118.656,7.075,3.268,13.218,7.15,19.381,11.7l18.797,14.868c9.019,2.853,18.565-1.33,22.361-9.989,1.902-5.608.179-11.937-4.874-13.188-2.077-.514-3.783.374-5.526,1.422-1.705-4.216.048-8.354,3.103-10.646,3.58-2.685,7.445-2.134,11.834-.151-2.561-4.015-5.217-7.02-6.302-11.234-1.289-5.009-.302-9.986,1.72-14.655l3.163-7.301c2.383-5.501,2.135-11.473.055-17.232,7.574.205,14.342,3.003,19.359,8.351,6.25,6.661,8.621,16.352,5.326,24.91-.809,2.1-1.893,3.762-2.352,6.257,3.409-1.699,5.945-3.042,9.392-3.736l1.646,7.406c1.136,5.112-.55,9.881-3.548,13.994.352,2.302,2.703,3.484,5.298,3.573-2.511,16.777-18.8,26.671-35.114,28.692,12.084-9.251,16.536-24.467,15.475-39.272-.596-8.32-1.912-16.345-4.704-24.146l2.038,23.699c.545,18.079-5.57,35.429-24.011,41.567,22.638,9.369,47.781,7.126,65.909-9.247,5.863-5.295,10.421-11.681,13.126-19.145.711-1.962.642-4.394.687-6.601.028-1.39-1.866-3.315-3.122-3.378-6.677,2.057-13.132-.263-17.165-6.021-2.722-3.886-3.768-8.765-4.589-13.604-1.119-6.591-3.188-12.65-7.333-17.924,18.086-.993,35.04,11.457,39.226,29.183l-4.458,2.747c-3.711-7.889-9.781-14.686-18.238-17.657,6.594,5.162,12.231,11.062,15.253,18.854.593,1.528,1.09,2.988,2.759,3.641,2.08-1.753,4.236-3.604,6.735-3.938,3.465,1.036,7.037,3.953,7.311,7.529.21,2.749-2.591,4.806-3.857,6.779l-3.622,5.645c-5.131,9.353-11.969,17.042-20.862,23.685,5.332-1.071,10.094-3.44,14.658-6.463,8.772-5.812,13.046-17.718,28.765-17.346,1.296,4.198.608,8.279-1.513,12.333,2.935.17,4.58-2.127,5.389-4.543l2.401-7.168c2.871-6.556,8.794-10.507,16.099-11.025.657,2.962.911,5.82.64,8.945l4.388-4.747c4.273-4.623,11.451-2.596,17.242-4.727,1.249,9.559-.919,19.425-6.729,26.907-3.435,4.424-7.889,6.351-13.788,6.739,3.68,1.909,6.829,3.289,9.454,6.278-3.404,2.408-6.67,4.906-10.608,6.536-7.037,2.913-14.726,3.282-21.714.336-2.207-.93-4.053-1.958-6.704-2.316,2.899,3.532,4.734,6.536,4.755,11.307l-7.133.076c-5.11.054-9.944-1.492-14.343-3.953-5.041-2.82-10.309-4.143-16.176-4.251-5.017-.093-9.866.886-14.863,1.597l-19.126,2.722c-12.888.837-25.025-1.341-37.296-6.364l19.493,22.809c7.575,8.863,15.19,20.103,27.771,22.792,5.634,1.205,11.476-.118,15.286-4.345,3.25-3.604,3.757-9.139.388-12.454-2.255-2.218-5.376-2.464-7.967-.339-1.564-5.033,1.866-9.925,6.834-11.171,8.171-2.05,16.069,4.245,18.518,11.878,2.102,6.55,1.407,13.254-1.715,19.526.627.904,1.667,1.799,2.669,2.23l4.58-4.23,4.884-3.266c3.801,3.631,4.935,8.539,2.808,13.431,2.549,1.452,4.809-3.007,4.399-7.364-.767-8.142,3.9-15.359,11.545-18.084l5.699-2.475c1.92,4.769,2.712,10.294.409,15.28l.38.985c.072.187.831-.254.975-.432l3.413-4.218c4.606-5.693,11.593-8.914,18.821-9.106l6.112-.163,1.28.226c.146.026.009.514-.066.646l-.432.766c-2.294,4.064,1.185,13.162-6.163,21.085-2.304,2.484-5.059,4.168-8.269,5.252l-.677.229-.595.221-1.059.611c-.212.123.417.61.657.627l.909.065.802.059.756.129,2.914.866.635.28.603.31.577.302.572.307.599.313.571.291.674.545-5.604,6.771c-5.008,4.509-11.425,6.83-18.175,5.711l-.921.211c-.158.036-.579.407-.436.488l.712.405.572.325c3.857,2.193,8.387,6.573,7.016,7.435-8.297,5.216-15.518,6.716-24.766,4.612-6.099-1.387-12.032-2.198-18.737-2.245,2.319,1.316,4.948,2.571,7.803,3.188l13.212,2.854c8.388,1.209,16.196,3.157,24.174,5.923,7.557,2.62,15.306,3.533,23.137,2.139l.72-.128.672-.12c.142-.025.386.669.354.81l-1.228,5.353-.395.703-.29.625c-1.779,3.832-5.269,6.341-9.54,7.12l-1.636.299c-.238.043.419.812.59.929,4.969,3.035,8.139,7.643,10.066,13.177,1.882,7.053,1.573,14.435-.467,21.559l-2.181,7.617-.175,1.399c-5.287-1.045-10.38-3.839-13.91-8.353l-1.195-1.231c-.187-.192-.511.796-.467,1.067l2.271,5.719c3.06,7.708,2.124,16.014-1.977,23.162l-6.769,9.47c-2.624-2.345-5.13-8.148-5.395-7.515l-.395.943c-.635,3.289-2.579,7.052-4.998,9.627-7.354,7.829-12.864,16.346-13.636,27.307l-.103,1.466c-.02.277-.821.214-1.07.071-8.664-4.956-15.681-12.469-16.748-22.501-.965-6.411,1.539-12.1,6.455-16.153l.487-.717c.824-1.211-3.863,1.094-9.503.87l-1.307-.052c-1.023-11.513,3.57-17.909,14.457-23.257-7.44.436-14.574-1.621-19.095-7.594-4.183-5.528-5.434-12.697-2.436-18.869,2.139-4.405,6.355-7.384,11.122-7.318,6.821.095,8.312,6.315,7.365,6.395l-1.095.092c-1.598.133-2.975,1.401-3.45,2.808-.502,1.486-.282,3.249.726,4.581,1.623,2.144,4.251,3.047,6.931,2.741,4.979-.568,8.607-4.013,10.495-8.714,2.466-6.14,1.749-12.992-1.123-19.121-2.764-5.897-7.315-10.551-12.634-14.315-11.684-8.271-27.442-11.018-37.151-21.708l-2.077-2.287-.558-.61c-.098-.108-.447-.115-.429.03l.123.978,6.542,23.646c7.201,34.751,2.426,71.933-9.659,105.148-5.682,15.619-13.349,30.111-23.301,43.382-16.237,21.651-37.576,37.33-63.435,45.568-31.385,9.998-66.72,8.874-97.532-2.349l-15.398-5.609c-4.711-1.716-9.842-1.666-14.248.661-3.368,1.779-5.39,5.083-4.898,8.941.228,1.787,1.642,3.394,3.192,4.123l1.113.523c.542.255-1.654,4.063-6.267,4.422-4.142.322-8.013-1.529-10.417-5.084-4.345-6.425-2.492-15.304,3.777-19.814,2.762-1.987,5.66-2.85,9.268-3.25.809-.113.259-.603-.407-.775l-18.592-8.983-.676-.198-4.359-1.256c-13.375-3.853-30.03.719-32.775,14.328-.778,3.858.016,7.748,2.549,10.595,2.818,3.167,7.408,4.107,10.651,1.446,1.449-1.189,2.559-3.522,1.236-5.012l-1.89-2.13c-.287-.323-.584-1.305-.239-1.69,1.886-2.109,5.08-2.508,7.698-1.259,3.208,1.531,5.366,4.418,5.808,8.126.678,5.696-2.414,11.08-7.511,14.054-8.916,5.203-23.765,2.987-26.963-7.676-4.535,2.761-9.105-.705-11.253-5.13-4.359-8.98-2.688-19.394,3.775-26.97,9.259-10.854,24.78-12.657,38.455-9.163.234.06.647.17.781.164l.636-.031c.133-.006-.509-.424-.64-.499-5.347-4.582-10.491-9.219-14.987-14.604l-4.403-5.214c-3.044-3.653-5.877-7.132-9.962-9.737-13.089-17.424-22.885-42.985-22.522-64.839.084-5.044-1.156-9.767-4.667-13.417-3.44-3.578-8.842-4.676-13.146-2.057-5.775,3.515-10.607,2.758-16.743-.583l4.612-6.732-2.046-.466c-4.905,2.644-10.399,1.949-14.782-1.264-2.016-1.411-4.068-2.718-6.335-3.672l-1.072-.451c-.349-.147,5.651-8.75,12.574-10.075l2.301-2.82-1.042-2.93c2.987-1.029,6.066-1.468,9.203-1.394,5.63-.027,10.638,2.998,12.744,8.227l1.011.711c1.302.916.584-1.969,1.964-6.065.127-.377.413-1.048.634-.974l1.044.351c10.854,3.646,13.924,12.937,16.038,23.527l.22,1.102c.028.138.284.212.333.072l.295-.857,3.145-14.78c3.66-17.198,10.886-37.616,22.41-50.777l8.257-8.365c1.703-1.725,2.596-4.114,3.527-6.125,7.298,4.518,11.43,13.308,8.212,20.935-.183.432.165,1.451.504,1.33l1.316-.47c3.195-4.773,8.436-7.156,14.326-7.021,6.025-.219,14.324,5.671,13.529,6.329l-.645.533-6.289,4.591-.908.563c-.129.08.221.36.372.389l.916.176c2.476.477,5.188,1.603,6.993,3.482,5.663,5.897,7.165,15.411,4.399,23.239l-.238.673c-.048.135-.422.677-.527.576l-.558-.534-.459-.427c-5.025-4.682-13.384-1.829-18.502-9.356-.087-.062-.538-.39-.617-.405l-1.615-.31c-.786-.151,2.025,4.377,1.474,7.872-4.657,1.677-9.474,1.074-13.206-1.959-1.938-1.576-4.2-2.312-6.812-1.716-11.409,2.603-20.702,14.568-25.018,25.475-3.66,8.66-5.172,17.668-5.594,27.2.196.209.417.396.483.228l.333-.845c2.416-6.135,5.742-11.571,11.056-15.49,7.564-5.58,17.761-5.885,25.083.037,6.674,5.399,8.247,15.157,3.115,21.917-2.326,3.063-5.893,4.786-9.461,4.255-3.114-.464-5.519-2.19-6.033-5.501l1.216-.645c1.66-.213,2.95-1.556,3.221-3.108.191-1.092-.544-3.053-1.593-3.861-2.52-1.941-5.894-1.835-8.776-.655-4.676,1.916-7.703,5.744-9.642,10.483-6.397,15.643.149,35.831,9.686,49.417,2.83,4.031,5.711,7.491,9.393,11.268,1.071-4.04.148-7.631-1.744-11.012-3.563-6.37-3.302-13.951.633-20.119l5.949,4.394,1.008.971c.209.201.934-.557.893-.925-1.3-11.624,9.331-21.611,20.713-22.466-1.262,6.518,1.986,9.25-.056,16.462l-.405,1.428c-.09.318.93.966,1.271.948l3.906-.205c1.744,4.828,1.421,10.565-2.076,14.639-1.478,1.721-3.763,2.911-4.252,5.702,3.405-1.439,6.272-2.51,9.563-1.827,1.578,5.405-.137,10.84-4.165,14.631-6.114,5.757-2.215,14.729,3.094,20.964,5.177,6.08,11.189,10.904,18.163,15,15.16,8.902,31.486,15.48,49.095,18.773l-12.406-7.53c-4.199-3.087-7.122-7.097-9.208-11.926.055-.166.401-.795.588-.848l2.389-.669c3.645-1.022,8.008.06,6.581-1.364l-1.085-1.083c-5.522-2.218-9.03-6.94-10.37-12.742-.813-3.833-.415-7.814.691-11.686l7.357,2.802c.473.18,2.021-.038,2.021-.484v-1.567l-.307-4.182c.3-10.377,6.174-20.256,15.392-24.731l.865-.42c.127-.062.256.705.283.856l.146.815c.765,4.26,2.986,8.002,5.627,11.327l3.299,4.152c2.38,2.997,3.304,6.794,3.351,10.648l.012.974c.034,2.798-.749,6.364-2.123,8.583l-.455.734c-.559.902-.469,2.481.535,2.466,2.15-2.415,4.548-4.362,7.363-5.567l1.693-.725c.307-.131.705,1.195.75,1.388,3.073,5.197,3.327,11.124,1.463,16.81-1.955,9.286,5.852,16.346,14.843,18.827,18.146,5.006,39.923-1.817,55.956-11.937.9-.565.165-.73-.467-.457l-4.228.411c-7.944.771-15.805-.845-22.577-4.92-8.993-5.412-14.129-15.054-12.956-25.51.841-7.497,5.247-14.001,12.097-17.071,3.949-1.77,8.347-1.739,12.125.268,3.511,1.865,5.694,5.748,4.855,9.659l-.269,1.252c-.105.492-1.357-1.231-3.217-1.449-2.013-.235-4.395.359-5.923,1.718-4.927,4.38-3.586,12.565,1.269,17.467,3.492,3.526,8.273,5.386,13.289,5.843,24.346,2.218,43.719-21.747,54.254-41.693l.547-1.036c.079-.149-.343-.311-.497-.201-9.985,8.773-22.134,14.129-35.427,12.396-10.217-1.332-17.767-8.516-19.528-18.565-1.158-6.604.64-13.332,5.228-18.219,3.395-3.616,7.886-5.525,12.797-4.55,3.544.704,6.936,3.708,6.724,7.303l-.117,1.979c-.019.316-.619-.013-1.136-.329-2.158-.737-4.239-.237-5.915,1.145-1.463,1.206-2.411,3.308-2.285,5.59.239,4.333,3.403,7.767,7.609,9.139,6.564,2.142,13.596.756,19.626-2.647,28.37-16.012,37.208-65.789,31.151-95.944l-.762.798c-.853,4.94-.998,9.495-.736,14.471.419,8.608-4.063,16.195-11.474,20.374l-.745.836c-.133.149-.598-.16-.723-.323l-1.321-1.856c-.146-.204-1.026-.399-1.09-.149l-.305,1.193-.641,6.438c-.311,3.125-2.397,6.211-4.801,8.195l-5.025,4.145c-2.848,2.35-4.917,4.771-6.042,8.574-5.954-4.51-9-8.26-10.268-15.158-4.107-5.757-6.289-12.762-4.346-19.717.106-.381.237-.728.362-1.082-.004-1.229.11-2.454.303-3.616.348-2.103,1.08-4.212,1.958-6.256-8.229,7.277-9.302,17.334-5.038,27.53.594,1.42,1.062,2.422,3.093,2.363.015,8.963,6.219,16.515,14.216,20.492,4.807,2.391,1.305-4.235,6.756-8.666l6.223-5.057c4.114-3.344,6.227-8.043,6.97-13.037,3.64-2.059,7.355-4.207,10.05-7.795.451-.597.611.118.44.786-2.142,17.778-8.33,38.368-20.63,51.24-3.212,3.362-6.483,6.169-10.596,8.237-4.821,2.425-10.335,3.696-15.378,1.867-2.996-1.087-5.126-3.611-4.783-6.688.164-1.474,2.194-3.032,3.128-1.735l1.2,1.666c.671.931,4.618-1.563,5.039-5.556.571-5.407-2.782-10.207-7.878-12.011-7.255-2.569-14.615.206-19.516,6.191-6.243,7.624-7.428,18.071-3.23,27.375,3.705,8.212,11.94,14.147,21.623,15.168,7.484.938,14.826-.464,21.9-3.303l1.126-.415c.124-.045.054.319-.029.428l-.474.618-.388.508-.383.506c-5.538,7.315-11.59,14.148-19.549,18.762l-.578.335-.579.323c-7.279,4.054-15.525,6.018-23.633,3.969l-.842-.212c-1.566-.396-3.958-1.733-5.16-2.868l-.53-.501c-3.47-3.275-5.105-8.871-1.704-12.537.63-.68,2.291-.942,3.021-.782,1.872.412,1.756,4.119,3.536,3.12,3.521-1.978,4.846-6.835,3.736-11.12-1.449-5.594-6.277-9.487-12.026-10.188-6.151-.751-12,1.198-16.546,5.384-12.354,11.377-10.976,30.98,1.812,42.127,4.988,4.348,10.83,6.931,17.438,8.326.429.342.735.591.582.478l-2.02.884-.608.263-.647.226c-11.048,3.854-22.765,5.806-34.213,3.234-5.285-1.187-9.993-3.883-12.425-8.467l-.356-.671c-.784-1.478-.968-3.652-.465-5.314,2.837-9.385.851-17.066-4.943-24.479l-4.445,2.791.186-6.888c22.713-2.621,43.576-13.91,58.246-31.473,27.58-33.02,32.093-79.461,13.221-118.035-6.524-13.336-14.979-25.463-25.953-35.496-47.769-43.67-118.581-38.392-162.799,7.404l-3.157-1.538c-2.963-1.444-1.512,4.161-7.382,9.996l-7.663,7.618c-3.625,4.189-6.277,8.831-8.947,13.745-6.601,12.15-10.651,25.002-13.816,38.824-3.672-7.888-10.554-12.426-18.728-13.953-.783.99-1.124,1.652-1.725,3.042l-.66.281c-7.722-6.874-17.179-5.527-26.443-1.333l1.765,4.635c-3.358.836-6.257,2.437-8.903,4.653l-7.745,10.141.532,1.379c3.923.157,7.167,1.623,10.213,3.944,5.264,4.011,11.91,3.894,11.854,3.976l-.476.695c-.358.522-.898,2.175-.372,2.584,7.238,5.64,15.379,7.1,23.185,2.279,2.171-1.34,4.521-1.167,6.625.382,2.857,2.104,4.632,5.765,4.721,9.617.147,6.457.284,12.544,1.493,19.009,2.802,14.975,8.199,29.152,16.21,42.071l.643,1.036c.113.182-.255.476-.464.428l-.877-.202c-4.355-1.003-8.489-.68-12.631.88l-2.798.655-2.09,2.28.395-5.648c.148-14.927-2.978-29.549-10.506-42.586-9.521-16.488-24.579-29.366-42.5-35.813-28.398-10.216-60.093-3.868-82.386,16.219-20.838,18.777-30.5,47.381-24.573,74.87,10.338,47.954,61.55,76.676,107.941,58.645,19.792-7.692,35.814-22.54,44.485-41.726l.524,1.105c3.332,7.03,11.179,10.653,18.432,7.767,5.934-2.361,8.107-8.705,6.516-10.705-.487-.612-2.913.343-3.807-.879-.317-.434-.504-1.717-.304-2.294,1.64-4.713,9.019-4.177,13.329-1.478l12.393,7.763c-7.671.708-14.373,2.692-20.324,7.009-10.1,7.327-14.915,19.794-11.659,31.84,1.888,6.984,7.293,13.578,14.608,12.881,6.289,10.308,21.529,12.014,31.596,6.045,6.854-4.064,10.488-11.7,8.801-19.418-1.237-5.659-5.83-10.076-11.492-10.567-4.579-.397-8.872,1.941-10.017,6.334-.221.847.002,2.611.557,3.071.931.774,3.464-.422,3.38.682-.012.157-.188.724-.292.914-.917,1.677-3.554,1.806-5.251.39-2.398-2-3.272-5.207-2.519-8.415,2.085-8.882,12.734-13.147,22.061-11.931,7.285.776,13.751,3.444,20.206,6.812.208.07.896.629.678.754l-.729.417c-5.95,3.398-9.036,9.656-8.82,16.498.27,8.523,6.6,15.632,15.185,16.095,4.576.247,8.685-1.713,11.089-5.502,1.111-1.751,1.72-4.475.728-6.154-1.27-.015-3.07-.095-3.727-.905-.639-.789-.769-2.594-.208-3.527,2.812-4.68,9.226-4.427,14.684-2.5l21.305,7.523c27.168,8.521,56.176,9.464,83.805,2.791,29.845-7.209,55.688-24.072,74.175-48.55,11.742-15.547,20.614-33.116,26.625-51.771,11.964-37.123,15.108-74.171,4.976-112.186-.172-.729.081-.747.553-.189,4.836,3.258,9.732,5.516,15.016,7.751,11.968,5.062,24.09,12.209,27.313,25.375,1.302,5.318.473,10.923-3.201,14.823-1.958,2.079-4.852,3.226-7.409,2-.453-.217-1.015-1.003-1.031-1.438-.013-.348.428-1.218.769-1.142l1.68.379c2.014.454,3.669-3.142,2.465-6.52-1.596-4.476-5.785-7.391-10.669-7.593-6.533-.271-12.273,3.608-15.235,9.423-5.314,11.853.378,25.689,12.584,30.28l1.231.321c.219.057.056.589-.089.896-4.673,3.968-6.964,9.487-7.156,15.66l.09,7.488c.003.278.865,1.054,1.098,1.037l4.146-.298c.25-.018.919.338.8.544l-.483.839c-2.27,3.937-2.455,9.059-1.429,13.661,1.552,6.959,5.217,13.061,10.592,17.714,3.607,3.123,11.048,7.821,14.704,8.273.16.02.519-.896.516-.949-.76-5.492.113-10.739,2.009-15.924,2.026-4.715,4.784-8.916,8.022-12.865l5.859-7.145c.121.106.373.33.507.449l3.625,3.684c.553.562,1.826-1.148,2.288-1.724,2.835-3.53,5.797-6.827,7.999-10.745,3.421-6.09,5.282-12.812,4.331-19.765-.085-.624.039-1.408.336-1.284l1.19.498c2.749,1.148,5.829,2.313,8.828,2.685.576.071.777-1.809.928-2.412l2.416-9.663c3.629-11.705,3.285-26.547-5.585-35.134-.168-.163-.398-.796-.199-.923l.975-.624c5.932-3.793,8.352-10.994,8.077-18.123l-.036-.931c-.01-.263-.246-.894-.439-1.078-.762-.727-11.806,3.492-23.226-.114l-12.742-4.023,5.285-2.715,5.825-3.396c.506-.295,1.311-1.497.946-1.951l-3.433-4.278c-.272-.245-.681-.673-.46-.738l1.188-.351c4.072-1.204,8.121-2.952,10.823-6.262l7.896-9.673c.37-.453-.277-1.679-.752-1.937l-3.481-1.894-1.039-.565c-.216-.118.495-.722.696-.876,5.813-4.475,8.536-10.662,8.653-18.058-.328-3.858.637-7.44,3.06-10.355l.283-.617c.078-.169-.08-1.036-.251-1.085l-2.299-.669c-9.366-1.736-19.114-.421-26.961,4.901l-.559.378-.51.449-.836.736c-.158.139-.224-.213-.283-.699l-1.49-6.099c-.418-1.71-1.525-3.601-2.685-4.527-3.129,2.435-5.798,3.628-9.127,4.858-6.041,2.231-10.709,6.954-12.548,13.29.075.198-.604-.229-.909-.519l-2.707-2.568c-.07-.067-1.023.419-1.1.484l-3.932,3.278-.634.401c-.112.07-.649.083-.608-.052l.276-.913c.546-1.81.474-4.591.336-6.68-.522-7.958-4.404-15.106-11.215-19.261-5.53-3.373-12.473-3.567-17.863-.074-3.634,2.355-5.813,6.212-5.852,10.47-.028,3.057,1.131,5.845,3.835,7.39,1.688.965,2.049-1.642,3.299-2.458.427-.279,1.832-.002,2.179.397,1.964,2.261,1.366,5.771-.877,7.752-9.2,8.132-22.202-1.716-29.536-10.491l-5.373-6.429-10.167-12.504-.498-.609c-.085-.104-.121-.375.002-.35l.885.182c12.339,2.531,24.558,1.835,36.963-.145l13.897-2.218c5.99-.956,12.549-.412,18.031,2.358,5.937,3,11.746,5.615,18.569,5.518l11.116-.16c.309-1.998.258-4.489-.024-6.663l-.126-.968c-.023-.173.587-.278.76-.236,9.849,2.349,19.477.193,27.574-5.539l6.95-4.92c.423-.3,1.094-1.478.719-1.843l-3.835-3.748-.895-.763c-.18-.153.502-.555.785-.717ZM49.187,219.461c.631.204,2.275.083,3.007.089.066,2.549-2.271,3.96-4.7,4.127-4.248.292-8.073-2.298-10.445-6.074-3.997-6.363-4.088-14.272-1.273-21.441,6.727-17.131,25.877-26.037,43.543-20.7,16.867,5.095,26.658,23.58,18.733,38.071-2.152,3.935-5.678,6.767-10.087,7.377-3.858.533-7.77-.987-9.515-4.401-1.346-2.634-.629-5.729,1.547-7.431,1.22-.954,3.664-1.156,3.83.53.074.753-.324,2.281.094,2.841.417.557,1.861,1.196,2.681,1.116,5.16-.505,6.958-8.767,4.579-15.184-2.023-5.457-6.258-9.875-11.742-12.124-10.625-4.358-22.946-1.64-30.525,6.885-8.478,9.535-7.467,23.823.273,26.317ZM125.569,187.949c25.604-6.153,47.667-24.59,54.133-50.549,9.688-.206,18.852-1.992,28.007-5.14,21.844-7.511,40.34-21.656,53.93-40.239,5.961-8.15,10.846-16.564,14.542-25.967.234-.597.659-1.687.483-2.158-.176-.472-1.039-.96-1.514-1.424l-11.579-11.296,3.862-3.804c7.979,4.4,16.283,7.634,25.694,9.631-9.952,39.977-39.117,72.29-77.087,87.493-6.922,2.772-13.645,4.395-20.897,5.615-8.044,22.943-25.85,39.582-47.608,49.317-8.351,3.615-16.813,5.979-26.432,6.861,3.25-5.398,4.993-11.153,4.466-18.341ZM521.928,52.827c-4.863-11.008-13.461-18.822-24.485-23.245l-.996-7.922c3.469-.454,6.87,1.233,10.626,2.926-1.087-7.001,2.339-11.856,7.297-16.007l4.101-3.433,4.514,3.955,4.582,4.128c3.036,2.735,3.998,6.729,3.911,10.827,3.605-1.824,6.778-3.155,10.267-3.479l.092,8.65c-9.401,5.065-16.402,13.336-19.91,23.599ZM528.944,63.227l-4.571-2.891c2.929-18.836,18.753-32.117,38.186-32.586-2.379,4.023-4.601,7.887-5.216,12.46l-1.497,11.124c-.483,4.465-1.73,8.645-4.499,12.039-4.278,5.244-10.675,7.268-17.382,5.032-1.553.172-3.218-1.183-2.785-2.5,2.879-8.753,8.443-15.321,15.225-21.701-8.409,3.536-14.026,10.565-17.461,19.024ZM221.218,308.998c.713.379,1.403.659,1.537,1.084s-.138,1.649-.443,1.974l-1.298,1.377c-.294.312-1.178-.31-1.857-.995l-1.665,4.273-4.753-3.805c-5.284,5.356-7.053,11.963-6.445,19.499-6.936-11.221-11.855-27.212-7.912-39.838,1.224-3.92,3.262-7.614,6.663-9.854,1.981-1.305,4.356-2.175,6.441-.829-2.515.426-4.017,1.997-4.148,4.525-.264,5.082,3.984,8.993,9.071,9.678,5.733.772,11.244-1.979,14.294-6.994,5.744-9.441,2.904-21.511-6.392-27.609-9.926-6.511-22.608-4.62-31.343,3.583,2.28-8.6,5.875-16.479,11.671-22.884,4.299-4.751,12.601-11.495,16.962-8.02,4.77,3.801,10.725,4.488,16.537,2.631.683-.218,1.607-.52,2.033-.82s.567-1.614.661-2.28l5.941,1.76c-10.121,18.745-9.839,40.522-1.526,60.752-9.802.287-19.434,3.894-24.028,12.791ZM298.318,356.776l-7.406-3.28c-4.301,10.342-4.125,21.079,3.893,29.107l-5.592,1.815c1.279,4.653,3.316,8.241,6.037,12.421-10.345-3.582-19.609-8.06-28.535-13.735-5.515-3.507-10.344-7.493-14.732-12.5-4.17-4.759-7.455-12.17-3.273-15.946,5.085-4.592,6.945-11.355,5.146-17.976l-.819-3.015-3.668-.167c3.292-5.625,2.784-12.088.352-18.425l-3.371.416c1.636-6.012-2.274-10.854.11-16.716,10.639,22.457,31.403,38.077,55.615,42.605-2.462,4.76-3.799,9.502-3.755,15.396ZM325.922,338.359c-5.259-6.466-1.855-14.022-5.309-12.952-6.733,2.088-12.194,6.338-16.322,12.359-20.599-3.367-39.246-15.483-50.319-33.454-12.44-20.188-15.11-46.606-3.29-67.868,2.533.856,4.392,2.393,6.044,4.54.249.847,1.953,1.13,2.463.335,4.11-6.41,5.232-13.781,3.41-21.457,16.486-16.802,45.31-21.854,63.62-6.703,3.52,2.913,6.234,6.466,7.374,11.029-7.091-4.89-15.591-5.407-20.598,1.315-1.082-1.708-2.146-3.122-3.743-4.032-6.145-3.498-14.11-2.076-18.476,3.595-5.572-1.251-10.525.861-14.399,4.636-4.355,4.244-6.306,10.181-3.823,16.155-4.133.016-7.502,1.434-10.071,4.717-3.895,4.978-4.655,12.112-1.587,17.503l.836,1.47c.182.319-.634,1.111-.794,1.496-2.389,5.739-.896,12.678,3.423,17.066,2.681,2.724,5.958,3.872,10.072,3.384-2.341,4.84-1.283,10.324,2.313,14.404,3.297,3.742,7.813,6.022,12.681,5.422,2.318,4.102,6.588,5.828,11.035,6.155,4.556.334,8.748-1.416,11.025-5.517,2.294,3.803,6.195,5.325,10.396,5.109,4.825-.249,9.312-2.272,11.814-6.619,4.395.442,8.163-1.313,11.184-4.375,3.876-3.93,5.418-9.389,2.729-14.515,3.626.081,6.555-1.138,8.887-3.572,4.545-4.744,5.704-11.955,2.49-17.88,3.502-5.961,2.812-14.157-2.185-18.437-.536.13-1.071.272-1.584.446-.01.003-.021.009-.032.013-.495.245-.2.075,0,0,.041-.021.075-.037.128-.063-.178.089-.365.161-.545.245-.396.184-.788.36-1.181.537-.059.03-.118.06-.174.087,3.861,4.105,5.463,11.563,1.715,15.271l-4.738,1.539,4.204,1.57c4.216,3.653,2.151,12.527-3.181,15.582-2.331,1.335-5.585,1.234-7.852-.228l-9.428-6.081c3.778-7.385,4.223-15.367,1.171-23.157l10.377-4.71c.958-.435,2.129-.632,3.28-.766.77-1.139,1.787-2.087,2.878-2.905l-2.174-.667c2.481-3.961,2.488-8.972.096-12.841-2.474-4.002-6.293-6.714-11.077-7.413-1.43-12.878-10.9-21.199-22.933-25.339-19.295-6.639-39.619-.521-54.587,12.91-1.588-3.86-4.037-6.61-7.672-9.014l4.19-3.099c.542-.401,1.192-.809,1.346-1.237.636-1.774-6.711-7.293-11.296-9.065-6.525-2.521-12.932-2.14-19.101.936l3.789-4.639c17.863-17.898,41.975-28.648,67.355-29.728,17.292-.735,38.724,3.621,50.167,16.538,8.826,9.962,5.646,19.972,1.64,19.601-.169-.016-.496-.522-.339-.586l1.249-.512c1.532-2.367.077-5.586-2.521-7.305-6.316-4.18-15.012-1.238-18.292,5.977-4.199,9.236.339,20.266,9.591,24.742,10.411,5.036,22.571,1.538,29.542-7.538,3.469-4.517,5.068-9.603,5.685-15.498,6.292,8.839,14.222,28.007,5.143,33.231-9.984,5.745-12.187,13.123-12.405,24.512l4.333,1.579c-3.069,3.69-4.811,8.522-4.057,13.416l1.757,11.408c.089.582,1.559,1.062,2.145.826,2.635-1.492,5.136-2.253,8.066-2.506,5.966-.515,11.343-2.449,16.163-6.37-4.874,25.076-19.359,46.832-41.807,58.712-9.353,4.95-19.206,7.908-29.913,8.279ZM330.368,308.119c-1.309,3.182-4.687,4.632-8.022,5.032-4.854.583-8.975-2.626-9.136-7.633l-.344-10.675c7.776-.836,14.522-4.55,19.188-10.832l9.899,6.438c1.832,1.191,2.683,3.426,3.054,5.585-.021,7.64-8.789,12.428-11.566,10.01l-3.587-3.123.514,5.198ZM327.582,283.406c-6.17,7.191-15.681,9.446-24.72,6.473-7.875-2.59-14.062-9.895-15.417-18.734-1.368-8.915,2.461-17.502,9.573-22.512,7.479-5.269,17.357-5.7,25.181-.906,12.512,7.666,15.098,24.356,5.383,35.679ZM292.925,303.7l-3.684,3.454c-6.129,1.261-12.698-5.336-12.083-11.418.257-2.545,1.698-4.967,4.17-6.612l7.645-5.084c4.833,6.397,11.58,10.352,20.006,10.778l.406,10.254c.121,3.07-.9,6.113-3.768,7.51-3.902,1.901-8.724,1.053-11.799-1.879-2.827-2.694.141-4.339-.893-7.004ZM263.81,265.202c-1.403-4.268-.744-8.877,2.112-12.372,2.41-2.948,6.636-4.397,10.104-2.42l10.119,5.771c-4.031,8.112-3.507,16.891.611,24.63l-9.647,6.249c-3.543,2.296-8.585.381-10.866-3.007-2.176-3.234-2.851-6.473-2.214-9.981.658-3.625,4.056-3.631,5.385-4.607,1.241-.911-4.361-.48-5.604-4.262ZM293.723,227.81c3.012-4.431,9.482-5.595,14.017-2.626,2.479,1.624,3.133,4.642,2.88,7.36l-.759,8.159c-8.88.263-16.527,4.488-21.833,11.861l-8.878-5.13c-2.231-1.289-3.668-4.01-3.583-6.528.216-6.377,5.37-11.57,11.518-12.258,4.53-.507,4.65,3.329,6.443,4.033.298.117.757-1.053.709-1.381l-.513-3.49ZM333.405,253.902c-4.314-7.377-11.287-11.71-19.66-12.957l.887-9.563c.334-3.607,2.793-6.235,6.311-6.802,5.16-.832,11.687,1.839,12.146,7.14l5.471.257c3.36.158,10.452,5.658,8.589,12.786-.594,2.274-2.825,4.251-5.423,5.414l-8.321,3.726ZM246.731,159.872c42.339-24.519,94.204-20.358,130.718,12.691,17.342,15.696,29.231,36.98,34.235,59.791,5.827,26.564,1.134,53.919-12.902,77.002-9.882,16.251-24.226,28.95-41.871,36.186-7.393,3.032-14.895,5.077-22.761,5.585-1.218-3.25-2.792-5.738-4.973-8.892,8.445-1.031,16.43-2.827,24.139-6.382,24.096-11.111,40.241-32.222,46.903-57.721,1.929-7.383,3.133-14.61,2.756-22.127-2.038,4.534-3.763,8.495-7.138,11.591-7.166,6.575-13.139,5.062-21.191,7.769l-.701-4.326c-.642-3.958-.616-7.947,1.075-11.596,1.109-2.394,3.01-4.646,5.49-5.318l1.623-.439c.42-.114.547-1.322.466-1.849-3.228-.087-5.945-.296-9.21-1.355.553-9.271,2.668-14.221,10.537-18.766,3.672-2.121,5.441-6.203,5.655-10.407.691-13.585-8.995-29.373-18.798-39.42,1.578,5.979,2.424,11.466,1.01,17.219-1.577,6.412-5.359,11.821-11.198,14.99-5.995,3.254-13.378,3.309-19.099-.342-5.292-3.377-8.066-9.312-7.089-15.337.746-4.603,3.937-8.294,8.641-8.788,2.688-.282,5.695.945,6.79,3.557l-.572,5.98c2.93,1.434,5.884.216,7.836-2.187,6.026-7.416.86-18.7-6.43-25.646-12.383-11.798-32.856-16.08-49.874-15.681-27.918,1.167-54.293,12.853-73.562,33.442-1.111-3.518-3.154-6.525-5.981-8.984,7.515-8.265,16.03-14.63,25.477-20.241ZM206.889,363.071c-.85.355-1.999.76-2.96.858-3.856-6.479-11.368-9.55-18.613-6.602-2.794,1.137-4.666,3.793-4.821,6.531-.163,2.874,1.395,5.234,4.31,5.831-.781,2.313-2.695,3.88-5.146,4.481-3.495.857-7.32-.121-9.998-2.615-2.382-2.219-3.249-5.395-4.266-8.343-.971-.79-2.054-1.818-2.912-2.924-2.445,5.41-4.496,10.714-7.648,15.588-13.186,20.388-34.782,33.701-58.884,35.626-43.669,3.489-81.674-30.522-82.895-74.357-.606-21.78,8.837-42.862,25.053-57.468,20.401-18.376,49.131-24.595,75.385-16.245,22.385,7.12,40.312,24.474,48.415,46.489,5.375,14.602,5.796,30.016,2.04,44.974-.204.812.058,1.672.664,1.891.725.261,1.574-.239,1.909-1.062,3.065-7.545,10.044-12.086,18.261-11.404,6.133.51,11.752,3.46,15.745,8.155l11.315,13.306-4.953-2.711Z"/>
        <path d="M545.702,182.501c-17.011,13.695-38.856,17.398-57,3.355,3.792.828,7.216,1.648,10.932,1.244,4.371-.476,8.14-2.527,10.7-5.6-.044-1.362-.102-2.782-.35-4.081-.306-1.604-.69-3.188-1.141-4.75-9.569,8.792-23.231,9.672-34.952,2.276,3.753,5.738,8.42,10.389,13.704,14.255,12.362,9.048,28.23,11.15,42.457,5.558,8.773-3.449,16.345-9.064,21.577-17.029l-5.926,4.771ZM507.187,179.116c-2.145,2.865-5.796,4.418-9.733,4.188l9.733-4.188Z"/>
        <path d="M529.316,316.106c.281-6.264,2.372-11.671,4.424-17.365l8.915-18.989c7.162-15.256,11.904-29.993,4.204-46.022-2.34-4.144-5.295-7.531-8.524-11.192,5.291,2.925,9.441,7.396,12.123,12.79,7.32,14.72,2.457,30.807-4.593,44.995l-6.061,11.438c-4.197,7.92-7.652,15.819-10.488,24.345Z"/>
        <path d="M364.04,410.202c-8.601,1.216-17.237-.607-25.26-4.1-12.208-5.88-20.83-16.734-23.654-29.966-1.065-4.991-1.942-9.812-.781-15.052,2.43,18.708,8.379,33.393,25.787,42.327,7.373,3.954,15.18,5.476,23.908,6.791Z"/>
        <path d="M243.349,374.771c-4.895-2.444-8.151-6.77-11.234-11.214-6.261-11.158-7.636-24.593-2.74-36.889l-.538,13.703c.532,13.045,5.376,24.38,14.511,34.4Z"/>
        <path d="M200.779,230.157l-6.051,6.995c4.968-12.099,14.197-20.569,26.907-22.956,5.714-.737,11.432-.743,16.593,1.94-7.732-.503-14.628-.49-21.491,2.386-6.122,2.566-11.512,6.496-15.957,11.635Z"/>
        <path d="M555.913,104.827c-7.153,3.092-14.484,5-22.229,3.524,14.045-1.995,26.068-6.926,37.039-15.752-3.683,5.511-9.033,8.98-14.81,12.228Z"/>
        <path d="M164.058,256.272c-7.376-2.931-14.1-5.331-21.42-6.95,8.091-1.239,15.952,1.04,21.42,6.95Z"/>
        <path d="M108.695,398.333c-37.959,11.367-77.267-13.404-83.697-52.089-6.412-38.58,22.415-73.214,61.231-75.419,36.689-2.083,68.323,25.843,69.417,63.055.864,29.379-18.467,55.923-46.951,64.452ZM119.77,389.461c14.071-7.823,24.297-20.273,28.987-35.187,9.459-30.083-4.976-62.047-33.936-74.532-20.077-8.655-43.706-6.203-61.624,6.712-13.152,9.48-21.755,23.672-24.352,39.685-4.148,25.568,8.452,50.726,31.066,63.254,18.409,10.199,41.204,10.44,59.86.068Z"/>
        <path d="M325.847,279.839c-6.419,8.399-17.918,9.874-26.293,4.331-8.534-5.648-11.346-16.729-6.422-25.956,5.413-10.141,18.28-13.179,27.809-7.146,9.652,6.111,12.111,19.343,4.906,28.771ZM325.933,271.656c1.986-8.152-2.023-15.971-9.56-18.935-6.038-2.375-12.831-1.031-17.313,3.371-4.573,4.491-6.021,11.124-3.747,17.327,2.472,6.744,8.924,10.84,16.036,10.404,6.722-.413,12.854-5.061,14.585-12.167Z"/>
        <path d="M88.643,394.83c-2.264-4.989-5.513-8.726-9.486-12.122-2.302-1.967-3.849-4.506-4.806-7.499-5.563-.264-10.099-3.621-12.064-8.806-1.847-4.874-1.068-10.451,2.381-14.362,2.165-2.455,4.696-3.891,8.069-4.159,1.652-.131,1.187,1.798,2.08,3.248.865,1.405,5.156-1.8,5.604-7.733.307-4.072-.391-8.07-3.529-11.185-1.333,7.568-7.993,12.911-15.503,12.475-3.309-.192-6.005-1.623-8.088-3.833-4.564,1.535-9.171.602-12.931-2.252-5.005-3.799-7.906-10.012-7.39-16.422,3.923.433,7.22-.418,9.859-2.967l4.714-5.713c3.315-4.016,6.442-8.18,11.016-10.686,6.581-3.605,14.114-3.613,20.699.327,1.538-5.165,4.931-8.932,9.006-12.129.485-.381,1.202-.91,1.625-1.052s1.252.674,1.645.984c4.067,3.214,7.396,6.85,9.215,12.148,7.295-4.339,15.979-3.834,22.888,1.151,3.554,2.564,6.112,6.003,8.836,9.449l3.644,4.61c2.617,3.311,6.407,4.377,10.904,3.965.229,6.822-2.93,13.218-8.336,16.892-3.63,2.467-7.898,2.957-11.932,1.806-2.107,1.799-4.511,3.397-7.496,3.675-7.874.732-14.842-4.543-16.374-12.511-4.601,5.319-4.592,12.675-.771,17.968.797,1.104,2.849,1.764,3.363.571l1.154-2.673c4.395.006,8.131,2.435,10.199,6.249,2.95,5.441,2.012,12.214-2.136,16.768-2.372,2.604-5.312,4.142-9.063,4.14-.937,3.111-2.728,5.642-5.172,7.841-3.914,3.45-7.24,7.227-9.223,12.076l-1.333.652c-.291.142-1.111-.545-1.268-.892ZM89.945,388.866c2.439-3.498,5.129-6.427,8.139-9.119,2.607-2.331,4.165-5.035,4.318-8.854,4.763,1.544,9.112-.747,11.061-4.994,3.957-8.624-3.875-14.615-4.723-13.659l-.984,1.11c-2.129,2.403-6.484,1.925-8.587-.717-5.572-7-4.804-16.782,1.124-23.406l-3.405-4.337c-.738-3.086.856-6.209,2.938-7.787,2.655-2.011,5.838-2.139,8.781-.913,3.089,1.287,4.609,4.963,3.238,7.951-.542.339-1.882.249-2.717.043-2.249,1.892-3.027,5.458-2.118,8.421,1.623,5.294,6.717,8.802,12.175,8.07,2.842-.381,4.741-1.995,5.802-4.866,4.224,3.017,9.002,2.404,12.628-.719,2.811-2.422,4.404-5.627,5.135-9.313-4.114-.388-7.64-2.177-10.052-5.343l-4.326-5.676c-2.623-3.441-5.367-6.613-9.187-8.622-7.334-3.858-15.427-2.183-21.393,4.209-.021-7.18-2.911-11.131-7.92-15.659l-4.274,4.531c-2.849,3.021-3.26,6.819-3.216,11.25l-2.773-2.325c-5.709-4.787-13.314-5.452-19.779-1.461-3.865,2.386-6.494,6.162-9.404,9.694l-3.939,4.781c-2.322,2.818-5.675,4.265-9.414,4.664.769,4.659,3.312,8.484,7.21,10.659,3.439,1.919,7.149,1.796,10.563-.709l1.445,2.691c3.417,3.202,8.445,3.018,12.186.331,4.51-3.24,6.271-9.535,2.943-14.093-1.058.139-3.002-.186-3.3-1.029-1.066-3.026.791-6.077,3.547-7.426,2.947-1.443,6.29-1.07,8.84,1.162,1.859,1.627,3.674,4.847,2.55,7.69-1.252,1.213-2.757,2.538-3.537,4.277,6.416,6.045,6.381,17.647,1.156,23.296-2.267,2.451-6.138,3.311-8.457.816-.309-.332-.65-1.592-1.071-1.496-3.717.85-6.117,5.764-5.83,9.896.232,3.333,2.076,6.69,5.296,8.484,2.078,1.158,4.422,1.088,7.078.779-.298,7.491,8.087,10.578,12.254,17.72ZM76.71,326.477l2.524-2.68c.88-1.645-1.048-3.817-2.445-4.334-1.981-.733-3.918-.306-5.217,1.923,3.01.303,4.047,2.884,5.138,5.091ZM103.265,326.703c1.08-3.169,2.407-5.027,5.413-5.316-1.4-2.103-3.41-2.662-5.407-2.044-1.391.43-3.537,2.901-2.311,4.449l2.305,2.911Z"/>
      </g>
    </g>
  </g>
</svg>