<?xml version="1.0" encoding="UTF-8"?>
<svg id="b" data-name="Layer 2" xmlns="http://www.w3.org/2000/svg" width="455.47" height="457.31" viewBox="0 0 455.47 457.31">
  <g id="c" data-name="Layer 1">
    <g id="d" data-name="iC3Guz">
      <g>
        <path d="M173.578,11.404c17.242-4.414,34.667-6.933,52.46-7.286,46.208-.916,93.498,13.834,131.004,40.926,16.421,11.861,31.201,25.593,44.084,41.142l11.35,15.211c12.089,17.844,21.59,37.28,28.166,57.791.119.178.236.354.349.527,1.125,1.712,2.346,3.359,3.582,4.992.289.382.58.763.871,1.144.227.297.497.655.82,1.088.421.565.845,1.129,1.255,1.702.047.066.093.133.14.199-8.466-31.727-23.649-61.557-44.747-87.015-10.252-12.37-21.897-23.304-34.387-33.337-13.367-10.737-27.76-19.806-43.32-27.077C299.351,9.331,271.531,1.909,242.922.34c-42.168-2.313-84.246,7.208-121.393,27.011-8.689,4.632-16.983,9.8-24.905,15.473,4.127-1.836,8.479-3.198,12.957-3.785,19.597-12.375,41.16-21.789,63.997-27.635Z"/>
        <path d="M449.467,176.087c-.409-.684-.82-1.367-1.233-2.049-1.877-3.094-3.901-6.083-5.845-9.131,1.062,3.647,2.036,7.324,2.912,11.031,7.84,33.16,8.215,67.536.876,100.789-8.593,38.931-27.074,74.923-54.168,104.185-12.17,13.145-25.886,24.846-40.752,34.809-.776.836-1.577,1.651-2.363,2.472-2.548,2.66-5.148,5.265-7.852,7.767-.973.901-1.962,1.784-2.958,2.659,16.995-9.548,32.804-21.256,46.979-34.81,20.273-19.385,36.855-42.429,48.702-67.909,13.916-29.93,21.397-62.519,21.696-95.606.165-18.314-1.88-36.522-5.993-54.208Z"/>
        <path d="M70.75,392.917c.208.08.415.163.624.241,1.214.457,2.45.966,3.708,1.29.803.207,1.618.355,2.428.527.708.151,1.419.304,2.125.475-6.574-5.729-12.845-11.811-18.766-18.228-12.312-13.341-22.58-28.304-31.156-44.27-12.587-23.434-20.374-49.124-23.914-75.475-5.31-39.524,1.103-79.938,16.681-116.45,9.722-22.787,23.123-43.582,39.388-61.698.055-.109.109-.218.165-.327.858-1.665,1.661-3.357,2.461-5.051.624-1.322,1.243-2.63,1.98-3.895.785-1.347,1.63-2.659,2.516-3.943-10.544,10.339-20.12,21.433-28.493,33.716C16.937,134.39,2.804,174.992.371,216.92c-3.457,59.566,17.353,119.806,57.96,163.556,3.993,4.302,8.137,8.45,12.419,12.441Z"/>
        <path d="M230.105,453.28c-26.169-.1-51.734-4.723-76.06-13.663-26.091-9.588-50.323-23.801-71.507-41.678-.351-.104-.703-.203-1.054-.291-2.126-.535-4.187-.73-6.275-1.111-.213-.039-.423-.087-.634-.136,22.866,20.423,49.465,36.432,78.307,47.066,17.232,6.353,35.083,10.386,53.326,12.448,20.104,2.273,40.066,1.795,59.988-1.633,21.191-3.646,41.651-10.4,60.802-19.826,2.577-1.837,5.127-3.716,7.595-5.695,2.93-2.35,5.749-4.826,8.537-7.341.558-.503,1.11-1.013,1.661-1.523-34.168,21.277-73.881,33.538-114.686,33.383Z"/>
        <path d="M70.784,67.075c-1.275,1.777-2.52,3.618-3.539,5.556-.352.668-.7,1.339-1.047,2.01,11.617-12.229,24.578-23.139,38.613-32.503-3.318.956-6.535,2.223-9.63,3.811-4.857,2.492-9.399,5.638-13.512,9.224-4.055,3.535-7.747,7.53-10.885,11.902Z"/>
        <path d="M378.571,70.618c13.591,13.034,25.531,27.725,34.995,43.374,4.354,7.2,8.309,14.548,11.835,22.107,1.375.892,2.717,1.835,3.955,2.912.131.114.256.236.385.353-7.936-18.22-18.339-35.4-31.068-51.063-3.843-4.728-7.934-9.23-12.189-13.577-2.306-1.545-4.77-2.85-7.345-3.896-.188-.076-.377-.145-.568-.21Z"/>
        <path d="M39.23,337.609c-10.529-17.999-18.292-37.394-23.156-57.477-.918-1.667-1.794-3.357-2.605-5.079-.845-1.794-1.623-3.61-2.333-5.448,7.428,39.561,25.783,76.832,53.763,107.034,13.881,14.984,29.966,27.825,47.279,38.766,3.412,2.156,6.884,4.217,10.407,6.187.957-.08,1.901-.268,2.833-.505.324-.082.647-.172.97-.26-18.459-10.013-35.555-22.46-50.781-36.955-14.291-13.605-26.42-29.246-36.375-46.264Z"/>
        <path d="M378.667,67.053c-33.528-31.742-75.996-51.958-121.838-57.998-21.194-2.792-42.656-2.095-63.789,1.468-35.865,6.046-69.61,20.59-98.429,42.757C49.839,87.716,20.156,136.888,10.546,192.64c-3.761,21.819-4.115,43.854-1.268,65.36.302,1.175.617,2.346.977,3.507,1.042,3.362,2.362,6.62,3.877,9.791-4.237-21.392-5.224-43.437-2.799-65.303,3.254-29.344,12.314-57.402,26.598-83.19,16.964-30.627,41.853-57.249,71.083-76.579,35.6-23.542,78.529-36.275,121.309-36.221,33.239.042,65.888,8.125,95.489,23.028,18.059,9.093,35.25,21.225,50.478,35.43.59.058,1.178.132,1.762.239.903.165,1.762.505,2.617.833.341.131.678.272,1.015.413-.999-.971-2.004-1.937-3.016-2.896Z"/>
        <path d="M448.138,220.248c-1.01-26.265-6.541-51.893-16.272-75.836-.257-.312-.516-.622-.781-.928-1.087-1.256-2.276-2.445-3.548-3.515-.189-.159-.386-.31-.581-.463,2.484,5.575,4.737,11.268,6.739,17.106,7.528,21.956,11.699,44.902,12.079,68.203.631,38.676-9.047,77.054-27.847,110.861-10.691,19.225-24.422,36.729-40.315,51.823-27.284,25.913-60.386,44.545-96.86,53.874-47.856,12.24-98.843,6.273-143.344-14.924-2.85-1.357-5.67-2.772-8.461-4.242-1.149.35-2.294.715-3.47.976,45.322,24.484,98.96,33.481,149.754,22.015,38.998-8.803,74.396-28.02,103.321-55.183,22.724-21.339,41.157-47.849,52.938-76.789,11.996-29.47,17.869-61.222,16.648-92.979Z"/>
        <path d="M261.846,202.598l-7.675-6.494c-9.982-7.279-23.129-8.818-34.218-3.381-8.749,4.289-14.977,12.283-15.168,21.851-.721.656-1.446,1.308-2.161,1.968.159-.016.316-.037.475-.049.67-.05,1.351-.083,2.023-.045.231.013.46.036.689.061.313-.274.634-.548.965-.822,1.452-1.014,4.5-.526,6.634.865l-13.022,5.82c1.262-1.707,2.559-3.173,4.022-4.577-.367.096-.731.197-1.093.314-1.195.387-2.374.857-3.507,1.401-.114.055-.226.114-.34.171-1.913,2.111-3.544,4.461-4.514,7.378l7.571-2.354,8.728-1.465,10.775,6.952c3.749,2.419,6.453,6.133,8.775,9.911l5.554,9.037c4.286,6.972,10.116,12.63,16.799,17.161-1.114-2.058-2.115-4.19-3.116-6.298-.079-.166-.156-.332-.234-.499-3.707-3.33-6.997-7.12-9.728-11.404-2.113-3.314-4.197-6.773-4.91-10.6-.756-4.063-2.23-7.095-2.691-10.826-.543-4.403,2.695-9.8,2.045-15.867-.706-6.582-5.984-11.345-12.655-11.182-3.065.075-5.668,1.339-8.574,2.735,6.993-9.172,20.437-11.598,30.945-7.426,4.304,1.709,7.915,4.383,11.33,7.425l4.475,3.988c1.521-.654,3.076-1.18,4.652-1.655-.995-.622-1.944-1.324-2.852-2.093ZM216.912,207.746c1.122-1.314,2.595-1.892,4.212-1.393,1.196.369,2.67,1.672,2.549,3.404-.172,2.464-2.13,4.08-4.399,3.942-1.239-.075-2.597-1.041-3.048-2.052-.557-1.249-.224-2.835.686-3.901Z"/>
        <path d="M257.664,44.943c-3.758.562-6.21,3.31-9.082,5.045-2.6,1.57-5.177,3.1-7.692,4.698-.608.976-1.161,1.985-1.648,3.027-.127.272-.244.547-.361.824,3.538-2.459,7.235-4.547,10.911-6.19,2.944-1.315,5.93-2.23,9.272-2.409,1.924,1.432,4.042,1.776,6.45,1.593,6.622-.664,12.402-4.101,16.831-9.046,2.683-2.995,5.599-4.723,9.633-6.612l-10.027-2.2c-7.53-1.094-15.108.654-20.914,5.412-1.981,1.623-2.962,3.713-3.374,5.859ZM261.89,44.892c1.962-.206,2.009-1.95,2.466-3.932.906,2.462,1.024,4.016,3.543,4.637-1.862,2.56-3.268-1.89-6.939,1.001l-2.216,1.746c-.258-.235-1.141-.487-2.334-.595,1.216-1.514,3.23-2.621,5.479-2.857Z"/>
        <path d="M374.662,86.897c.178-4.515-4.752-6.774-9.271-6.179.283-4.754-2.331-7.193-5.942-9.803-6.189-4.473-13.026-5.87-20.078-2.571.156-4.869-1.772-8.684-5.036-11.704-3.904-3.611-9.001-5.625-14.096-4.015-.355-.678-1.054-2.193-1.664-2.715-7.487-6.402-19.815-1.506-23.784,7.759-1.434-1.098-2.983-1.422-4.925-1.132-1.181.177-2.376,1.427-3.275,2.992-4.622-4.485-10.876-5.947-16.867-4.072-1.582.496-2.806,1.926-3.696,3.2-6.919-.689-14.375,5.445-14.307,12.453-3.767-.474-8.005,1.012-9.789,4.247l-.677,1.826c-3.549,1.193-6.499,3.658-8.35,6.763.088-.062.179-.122.266-.186.693-.514,1.319-1.124,1.97-1.69.769-.67,1.559-1.336,2.45-1.838.454-.256.929-.463,1.413-.654-.263.104.28-.111.253-.1.053-.021.107-.042.16-.061.761-.276,1.579-.423,2.371-.578.774-.152,1.56-.292,2.352-.412,4.472-3.977,9.335-3.548,15.816-2.889-2.799-1.984-4.085-3.658-3.11-6.579,1.274-3.816,4.585-6.698,8.656-7.577l2.27.741,1.914-1.79c5.839-1.815,11.908-.079,16.542,3.917,7.054,6.083,8.595,17.091,7.549,26.531-1.283-2.703-2.97-5.127-4.886-7.344.202-.956.231-2.234-.246-2.757-.67-.733-2.184-1.032-3.117-.663-1.33.526-1.765,1.836-1.246,3.121.348.861,1.758,1.391,3.128,1.371,3.77,5.375,5.964,12.041,5.614,18.905l-1.917-2.887-.665.158,1.094,2.129c-10.008-5.457-21.933-2.172-30.512,5.415-4.172,2.177-8.849,2.107-12.993.386-1.971-1.239-3.664-3.083-2.914-5.65.244-.835,1.953-1.423,3.102-2.131-4.087-.174-7.655-1.375-10.139-4.55-.974-1.245-1.557-2.589-1.825-3.981-.378,1.149-.631,2.362-.713,3.578-.13,1.923.082,3.828.51,5.696,1.258.815,2.693,1.391,4.255,1.668-.502,1.943-.375,3.895.601,5.528,2.805,4.693,9.402,6.18,14.822,5.078.128,0,.258,0,.362.001-.462,1.972-1.245,2.155-2.918,2.126-.858-.015-1.927-.57-2.612-1.187-1.263.75-.865,2.772-.436,3.8-.043,1.811-2.141,1.487-3.118,1.738-2.425.624-4.189,2.014-6.247,3.537l-2.95-2.425c-3.367-2.768-6.802-4.965-10.646-7.09l-4.852-2.683c-4.964-3.802-7.146-10.222-6.931-16.398.467-13.438,9.245-25.701,20.267-34.342.206-.603.428-1.202.659-1.794.066-.169.134-.338.203-.505.042-.1.086-.201.127-.301.009-.031.034-.11.041-.129.031-.09.069-.18.103-.269.093-.239.194-.475.293-.712-2.74,1.906-5.375,3.967-7.848,6.342-5.242,5.036-9.68,10.471-12.774,17.057-4.251,9.051-5.62,20.431-.501,29.054l-6.322-1.363c-1.832-.395-2.88-1.505-3.951-3.006-3.563-4.997-6.217-10.549-6.453-16.97-.03-.826.007-1.671.096-2.517-.622-1.977-1.021-4.014-1.28-6.078-.289-2.31-.413-4.673-.2-6.995.153-1.668.416-3.339.872-4.954l-1.98-9.327c-.501-2.358.298-5.114,1.705-7.266-.647,3.414-1.134,6.278-.213,9.523l1.328,4.676c.268-.601.596-1.174,1.025-1.637l2.225-4.433c.801-1.597,1.255-3.13,1.174-4.997-.231-5.343.42-11.261,4.704-14.596-2.905,4.805-4.057,9.79-2.997,15.112l7.318-8.379,2.378-7.406c.673-2.095,2.095-3.815,3.884-4.874-2.585,3.327-4.069,6.623-4.247,10.637l8.085-7.646c.62-.586,1.229-1.169,1.842-1.735.307-.43.667-.833,1.006-1.221.875-1.005,1.826-1.93,2.74-2.897.502-.531.896-1.232,1.338-1.859.606-.859,1.231-1.705,1.837-2.564.763-1.082,1.515-2.184,2.207-3.321-2.03,1.09-4.008,1.983-6.208,2.672-9.214,2.883-15.085,4.586-23.128,10.599-.395.295-.653,1.013-1.105,2.194.632.651.011.093-.723-.569-10.551,9.22-14.92,24.24-10.015,37.622,1.112,3.034,2.368,5.714,2.877,8.948,1.363,8.65,4.272,16.998,11.159,22.853l-12.465-.187-6.962-2.875-3.127-1.705c.584-5.8-3.214-11.269-9.327-11.085-.076-1.35-.398-2.493-1.317-3.184-.8-.601-2.295-.77-3.285-.891.115-.627-.133-2.214-.662-2.219-1.563,1.61-3.512,2.897-5.424,1.648-2.948-1.926-1.143,2.646-4.438,5.459-.177.151.354,1.095.526.951l.818-.685c2.641-2.212,4.975-3.266,8.314-1.829,1.06.144,2.63-.473,3.545.508-9.413.728-19.541,8.444-23.084,16.506-1.316,2.996-1.733,6.238-2.547,9.302-1.157-6.124.71-11.852,3.495-16.925-.062-.823.051-1.593.317-2.326l-.718-.487c-.124-.084-.462.413-.533.545-3.896,7.295-5.527,14.496-2.664,22.547-.061.149-1.047.428-1.228.18l-.612-.838c-2.004-4.725-3.214-9.517-3.581-14.707-.396-12.949,7.011-28.766,20.237-30.056,4.71-.459,8.475,2.898,8.777,7.444l3.164-.535c.206-2.233-.095-4.665-1.162-6.822,3.719-1.53,5.989-4.329,7.266-7.888,2-5.574.793-11.67-3.433-15.604-5.981-5.568-16.213-5.278-20.194,1.818-1.294-1.837-2.992-3.006-5.097-3.543-5.355-1.367-10.717.899-13.797,5.733-6.776-3.49-15.08.128-17.634,7.656-3.937-2.337-8.819-1.208-11.138,2.68l-1.317,2.208,1.73,2.041c.166.196.467.941.533.748l.255-.761c.714-2.126,3.082-3.089,5.222-3.131,1.803-.035,4.527,1.008,5.134,3.062l2.369,8.009c.813-3.139-.406-5.92-.403-9.025.006-6.759,6.212-11.811,12.721-10.543l2.418,1.884c-.149,1.021-.313,1.666.294,2.435,1.487-5.606,5.81-9.665,11.528-8.879,2.055.283,5.188,1.801,5.244,4.028.089,3.513-2.216,6.507-2.601,9.955,2.506-2.449,2.531-6.39,5.616-9.412-.216-.483-.634-1.692-.511-2.101.265-.881,1.789-2.032,2.843-2.342-1.479,2.521-1.364,5.015.509,7.114,1.569,1.759,4.386,2.027,5.995.247l-1.148-2.228c1.295-.436,2.791-.701,3.504-.375,4.233,3.428,5.781,9.603,2.754,14.164-3.965-4.801-9.542-4.639-15.122-2.163l-1.072-.661-4.399,3.305c-1.491,1.12-2.255,1.829-3.287,3.364-6.943,10.321-9.821,21.36-7.797,34.109-4.277-9.445-4.531-20.339-1.324-30.203,1.417-.1,2.627-.615,3.34-1.653,1.02-1.486.704-3.076-.508-4.04-1.236-.983-2.911-.578-3.981.602-1.514,1.67-.878,3.539.535,4.943-4.367,11.005-3.218,23.616,1.697,34.32,1.038,2.261,2.732,4.021,4.26,6.216l-1.605.589c-10.128-10.306-14.706-21.983-14.276-36.586,1.569-.465,2.638-1.337,2.965-2.705.3-1.254-.142-2.763-1.3-3.455-1.962-1.172-3.931.087-4.598,1.796-.788,2.018.537,3.431,2.082,4.309-1.392,13.453,4.041,28.007,14.094,37.141l-2.502,1.592c-11.712-8.074-18.58-17.683-22.67-31.495,1.328-.848,2.149-1.861,2.2-3.207.043-1.124-.62-2.652-1.614-3.188-2.2-1.186-4.366.23-4.905,2.146-.669,2.375.983,4.105,3.275,4.48,1.33,5.769,3.594,11.593,6.992,16.541l1.903,2.771c3.664,5.337,8.551,9.698,14.097,12.775l-2.848,3.876c-10.981-4.035-20.339-11.759-26.204-21.793,1.745-1.384,1.732-3.228.54-4.805-1.046-1.384-3.15-1.868-4.769-.692-1.401,1.018-1.447,2.944-.77,4.335.724,1.489,2.42,1.99,4.191,1.902,2.425,3.816,5.006,7.797,8.324,11.033,3.056,2.98,6.389,5.291,9.75,7.861-4.101-.436-7.969-3.293-11.323-5.886-1.214-.939-1.951-2.491-3.963-2.375,2.62,3.388,5.631,6.3,9.279,8.523,1.698,1.034,4.151,1.502,6.14,1.856l8.29,1.474-.739,4.446-10.856-.041c-8.164-.502-15.989-2.573-23.617-5.149.097-1.275-.152-2.658-.817-3.274-1.571-1.456-4.591-1.148-5.703.774-.611,1.055-.459,2.664.29,3.534,1.547,1.797,3.893,1.402,5.583.116,7.805,2.905,16.136,4.702,24.659,4.913.866.021,1.839.26,2.839.575l-10.078.898c-6.413.572-9.944-2.552-11.969-.663l1.724,1.451c4.366.256,8.509.44,12.807.273l15.163-2.634.221,2.038-7.567,1.942c-6.147,1.578-12.4,2.88-18.799,2.455l-5.705-.379c-.382-1.768-1.664-3.041-3.289-2.981-1.615.06-3.025,1.41-3.121,2.945-.111,1.766,1.288,2.956,2.794,3.197,1.748.28,2.922-.73,3.55-2.277,11.576,1.384,21.191-.641,32.273-4.078l1.351,2.773-13.053,6.19c-4.298,2.038-9.168,3.413-13.718,4.156-1.168-1.664-2.934-2.684-4.744-1.409-1.344.947-1.943,3.115-.497,4.575.96.969,2.436,1.397,3.674.898,1.06-.427,1.683-1.584,1.88-2.931,9.617-1.76,18.585-5.769,26.672-11.068l2.169,2.759c-4.576,3.859-9.141,7.519-14.03,10.884l-5.07,2.935c-1.337-.776-2.742-.883-3.754-.038-1.12.933-1.344,2.481-.533,3.706.674,1.018,2.222,1.418,3.318,1.003,1.524-.577,1.88-1.926,1.6-3.588,6.941-3.878,13.458-8.583,19.017-14.421l3.614,2.096-3.639,3.741-6.022,7.878c2.92-1.595,3.99-5.169,6.357-6.886-2.855,4.419-5.312,8.214-7.391,13.187l-1.178-.287c-.864-.21-2.318.919-2.676,1.885-.372,1.006.03,2.273.534,3.158l.949-.721c.272,1.202,1.138,2.014,2.46,1.606.94-.29,1.978-1.494,2.197-2.309.307-1.139-.382-2.365-.983-3.463l3.597-6.67,7.214-10.88,4.324.311c-2.964,7.63-3.962,15.94-2.625,23.956-1.869,1.048-2.503,2.836-1.455,4.503.941,1.498,3.182,2.223,4.504.616.706-.858.988-2.358.656-3.482-.222-.75-1.263-1.368-2.427-1.765l-.546-9.299c-.215-3.658.428-7.003,1.519-10.442l1.656,6.397c.455,1.757-.32,3.862.809,5.75l-.093-4.555,3.209,4.533c2.729,3.855,5.259,9.252,10.217,10.898.196.065.838-.777.668-.893l-.813-.556c-2.486-1.699-4.51-3.944-6.154-6.568,7.022,3.32,14.071,4.773,18.983-1.459,1.51,1.534,2.604,3.352,2.717,5.717l-3.403,1.648,2.436,1.807c-.407-1.494.202-2.418,1.501-3.111l.409,3.903c-.414.122-1.279.361-1.126.462,1.498.989,1.012,2.749.144,4.886-.833,2.051-2.028,4.155-4.406,4.215.147-1.35-.289-2.448-1.41-3.303-2.083-1.587-5.433-.905-6.74,1.506-1.543,2.846-.268,5.85,2.145,7.825-1.085-.014-2.833-.423-3.464-1.087-1.075-1.131-1.13-2.823-.664-4.302-3.255-1.34-5.109-3.873-7.504-6.569,1.212,4.04,3.957,6.957,5.625,10.781.846,2.236-2.08,4.935-4.05,5.652-2.381.867-4.369.234-6.179-1.535-.594,1.321-1.637,2.274-2.926,2.948-.312.49-.242,1.712-.01,2.529,1.287-.328,2.156-.721,3.247-1.443,2.193,2.001,5.269,2.613,8.173,1.433,2.537-1.031,4.553-2.78,5.283-5.508,3.686,2.199,7.652,2.414,11.6.856,7.144-2.821,11.597-10.516,10.588-18.177-.814-6.181-4.759-11.256-10.754-13.129.252-.448.754-1.4.732-1.83l-.189-3.684.969,3.016c3.007-4.266,1.592-9.366-1.904-12.637,4.276-1.541,6.661-5.416,5.396-9.693,6.616-.482,10.958-5.439,12.167-11.523,2.15-.765,3.9-1.855,5.129-3.858l-5.276,1.645c.089-2.259-.587-4.446-2.419-5.975l-1.902,6.077c-.495,2.834-.898,5.394-3.15,7.382-3.051,2.695-7.315,3.636-11.076,2.288l.66-2.121-3.435,1.802c2.279,1.135,3.659,1.278,4.848,2.73,1.284,1.568.916,4.19-.018,5.741-.747,1.24-2.595,3.357-4.314,2.853-2.543-.746-4.743-.796-6.799,1.202-2.13-.939-.924-2.9-1.331-2.913l-1.106-.035c.139.004-1.263,2.129.194,5.377.584,1.301,1.399,3.021,3.22,2.369l-1.163-1.56c-.243-.326.167-1.333.413-1.666,1.062-1.432,2.921-1.851,4.556-1.183,3.314,1.355,5.868,5.772,4.597,9.451-1.146,3.319-3.34,5.96-7.02,6.921-8.812,2.301-17.797-4.021-18.654-13.243-.275-2.96,1.048-6.45,2.467-8.586.165-.248-.249-1.35-.459-1.204-1.474,1.025-1.756,3.213-4.845,3.173-4.952-.065-8.7-3.983-8.679-9.019.014-3.46,1.96-6.771,4.505-8.315,3.256-1.975,6.996-2.377,10.13-.726,1.666.878,2.431,2.167,2.1,4.21.543-.224,1.155-.505,1.382-.795.838-1.073-1.931-6.712-7.06-7.447-.313-2.289-.078-4.397.411-6.627,1.953-8.903,8.401-15.828,17.238-17.967,4.732-1.145,8.984.102,12.562,3.249l2.558,2.25-.983,2.243c-.353.806,2.915,3.468,3.665,7.23,1.87-.394,3.56-.822,5.73-.891l-5.732,2.134c-2.285,3.104-4.431,4.758-8.078,3.237.488,1.12,1.903,2.622,3.088,2.91l4.757-2.488c1.577.587,2.859,2.196,3.856,3.689,5.541-7.219,4.463-9.699,13.26-9.885,8.312-.177,16.095,2.32,23.317,6.124l1.389-1.726c.285.931.428,2.145.841,2.501l4.159,3.593c-9.658-2.36-19.492-2.2-28.983.795l-4.645,3.489,5.096-1.112c11.394-3.04,23.342-1.809,33.808,3.279-5.128,6.197-6.58,14.467-1.083,19.858,2.618,2.568,5.966,3.723,9.72,2.95-.575,2.313.17,4.531,2.066,5.98.951.727,2.443.842,3.611.563-1.185,2.048-1.908,4.284-2.212,6.717.329,1.371.861,2.388,1.817,3.314l1.137,5.215c.141-.528.288-1.054.437-1.578.235-.824.476-1.66.747-2.487.135-3.884-.771-8.475,3.813-15.131,1.023-1.485,1.864-2.899,2.312-4.548-1.723,1.788-2.828,3.462-5.014,4.181-1.336.439-3-.304-3.728-1.299-.802-1.097-.966-2.977-.203-4.172l2.2-3.443-3.269,1.962c-2.57,1.543-5.951,1.054-8.381-.666-5.297-3.748-4.351-11.267-.629-16.358,2.59-3.543,5.651-6.602,9.736-8.243.936-.01,2.401-.079,3.331-.383l4.1-1.339c-.789-1.432-.783-2.371-.078-3.55,5.273-8.824,17.88-12.039,27.709-9.288,2.438.683,4.628,1.767,6.264,3.459-8.895,1.183-16.571,6.299-22.467,12.327-2.551,2.607-4.713,5.455-6.164,8.988,3.232-3.504,5.915-6.904,9.415-9.946,5.546-4.819,14.202-9.844,21.616-9.272,2.464,4.168,3.509,8.797,3.001,13.601.238.441.505.871.82,1.286.196.258.405.506.615.752.05-.273.103-.545.159-.818,1.075-5.243,1.036-10.446-1.629-15.274,5.886-2.931,12.985,3.534,14.857,9.681.569-.233,1.282-.611,1.525-.459l1.168.728c-1.593-5.527-6.994-11.675-12.522-13.996,5.522-1.329,11.466-.989,16.827,1.412,1.039,2.218,2.388,3.565,4.294,2.978.513-.158,1.245-.942,1.332-1.587.146-1.085-.677-2.312-1.383-2.779-1.05-.695-2.474-.565-3.65-.265-4.204-2.493-8.554-3.341-13.866-2.988,7.085-2.79,14.622-3.919,22.535-3.667,6,.191,11.503,1.386,17.574,2.332-4.309-2.692-9.017-3.087-13.754-3.673-8.651-1.069-16.916.122-25.358,2.721,2.297-1.831,4.855-2.919,7.613-3.981,7.717-2.973,15.461-5.012,23.662-6.056.046-.463.1-.986-.125-.994l-1.198-.041c-5.697.81-11.135,1.618-16.595,3.258l-10.638,3.702c3.613-2.928,7.385-4.745,11.434-6.684,1.836-.879,3.638-1.851,5.36-2.928.038-.195.084-.391.148-.587.205-.635.462-1.258.635-1.903-1.259,1.191-2.629,2.275-4.08,3.232l-7.952,4.325-6.156,3.648-.974-2.422,6.849-5.481c1.177.803,2.442,1.068,3.605.18.8-.61,1.505-1.886.47-3.187-.417-.524-1.875-.505-2.571-.158-.823.409-1.379,1.416-1.689,2.43-2.729,1.326-5.277,3.373-7.297,5.749l-2.697-1.864c1.729-2.654,3.721-5.83,6.238-8.038,1.005-.166,2.501-.426,3.023-1.022.788-.9.916-2.04.548-3.198-2.236-.614-4.065.991-4.211,3.17-2.511,2.51-4.618,5.442-6.433,8.506-1.164-.569-2.274-.772-3.866-.767l3.336-11.949c1.365-.543,2.913-1.382,2.972-2.855l.155-3.854-1.352,1.5c-.904.241-2.206.613-2.67,1.312-.591.891-.362,2.065.177,3.008-1.706,3.761-2.779,7.978-3.575,12.054l-3.382.974c.469-3.613,1.256-6.626,2.405-9.896.512-1.456,1.8-2.893.688-4.718l-3.488,10.764-.411-5.13c-.603-7.534-.621-13.156-5.837-19.879l3.039.44c2.254.326,3.754,1.819,4.235,3.795l2.316,9.514c.652-1.938.263-3.72-.126-5.694-.385-1.954-.221-4.532-.864-6.377-1.207-3.464-.595-6.449,2.567-8.572,2.891-1.94,6.115-3.488,9.748-2.951,2.635.39,5.299,2.03,5.548,4.899l-.718,2.844c2.562-2.104,5.198-3.973,8.686-3.555,7.219.866,12.34,7.483,11.377,14.91-.57,4.399-2.49,8.399-5.254,11.762-.142.785-.316,1.563-.545,2.327-.144.481-.345.922-.578,1.35,4.415-3.122,8.129-7.058,10.247-12.146,6.751-4.919,18.972-3.161,21.581,4.238.349.991.279,2.758-.355,3.744-.511.794-2.088,1.389-3.121,2.593,6.841-1.191,12.808-.281,17.386,4.797l1.143-1.162c.42.312.886.716,1.333,1.155.135-.506.247-1.017.336-1.532-.689-.412-1.41-.771-2.157-1.072ZM171.462,59.652c1.329.472,2.518,1.16,3.672,2.041,2.747,3.642,2.632,8.879-1.463,11.8,2.194-5.708,2.187-9.562-2.209-13.841ZM138.549,77.476c.267-.537,1.245-1.063,1.769-1.119.795-.085,1.549,1.12,1.195,1.919l-.579,1.303c-.238.535-2.907-1.054-2.385-2.103ZM106.561,104.833c-.435-.45.121-2.261.76-2.133,1.699.341,2.315,2.021,1.77,3.812l-2.53-1.679ZM99.738,143.231c-.538.146-1.471-.105-1.72-.426-.25-.321-.409-1.208-.16-1.53s1.179-.801,1.586-.778c.523.03,1.422.568,1.656.957.285.474-.461,1.533-1.362,1.777ZM107.906,153.934c-.454.362-1.775-.254-2.34-1.455-.155-.33.654-1.176,1.011-1.163l1.276.046c.298.01.659.99.637,1.287-.022.29-.36,1.108-.583,1.286ZM132.897,167.778c-.718,1.429-2.229,1.273-3.228.457-.079-1.053.796-2.454,1.914-2.467.291-.004,1.001.257,1.233.424.291.208.259,1.234.081,1.587ZM172.565,184.932c-.604-.092-1.539-.506-1.719-.905-.21-.466.237-1.429.649-1.739.529-.396,1.734-.127,1.89.391l.472,1.562c.099.327-.952.742-1.292.69ZM183.644,172.579c1.308,4.206-.716,8.878-4.68,10.577,3.751-6.136,3.424-10.794.111-17.07,2.162,1.409,3.725,3.779,4.569,6.493ZM298.851,94.136c.176-.449,1.197-1.067,1.677-1.008.597.073,1.234.976,1.376,1.599l.252,1.104c.067.292,1.835-.697,2.262.32-3.039,2.435-6.342,6.246-8.29,9.858-.032-.866-.029-2.636.257-3.663l1.83-6.588.636-1.621ZM295.186,93.722c.188-.37,1.392-.399,1.588-.079.197.321.53,1.308.426,1.788l-1.222,5.645c-.89-2.089-1.872-5.226-.792-7.354Z"/>
        <path d="M236.431,30.599l1.866-9.476c-.459.281-.908.553-1.35.816-.031.066-.06.133-.092.199-.971,1.996-2.22,3.826-3.546,5.601-.642.86-1.296,1.712-1.962,2.554-.498.629-.954,1.353-1.523,1.918-.481.477-.995.921-1.514,1.359-3.235,3.767-6.576,6.832-10.092,10.645l5.79-1.597c1.666-.46,3.107-1.715,4.914-2.526-3.579,5.242-10.086,3.311-14.924,8.298-2.801,2.887-5.793,5.79-7.858,9.286l-4.42,7.482c-.515.872-.963,1.761-1.365,2.662-.026.171-.052.343-.074.514-.209,1.689-.323,3.411-.248,5.113.106,2.402.347,4.414.84,6.697,1.117-2.399,2.79-4.483,5.011-5.788l9.212-5.411c1.183-.695,2.095-2.206,2.791-3.232,7.059-2.432,12.903-10.932,15.404-17.992.647-1.825.55-3.813.181-5.638.547-.827,1.502-2.145,1.66-3.159l1.295-8.323ZM202.458,67.708c1.58-2.036,4.288-3.116,7.003-3.551,3.605-.577,6.529-1.991,9.848-3.894-3.422,5.216-10.847,3.243-16.851,7.444ZM216.8,54.606c-3.659.542-6.721,1.942-10.261,3.866,1.435-2.752,4.634-3.909,7.723-4.543,4.016-.825,7.407-2.41,10.926-4.517-2.039,2.985-5.357,4.076-8.387,5.194Z"/>
        <path d="M231.382,87.429c-.56,1.917-.734,3.96-.433,6.025.289,1.983,1.029,3.769,2.111,5.268-.079-3.499.735-6.979,2.659-9.975.21-.327.431-.646.66-.96.423-1.894,1.261-3.783,2.357-5.559-1.205.76-2.233,1.764-3.348,2.651-1.255.998-2.664,1.702-4.006,2.55Z"/>
        <path d="M265.512,181.105l-.633,3.048c2.058,4.449,7.165,5.994,11.602,4.329,3.823-1.434,6.211-4.504,8.095-8.021,1.596-2.978,2.601-5.906,2.187-9.5,4.083,1.511,6.231-1.469,8.168-4.863.48-1.205.931-2.426,1.364-3.65,1.174-3.643,1.235-7.334-.505-10.821,1.137-.11,2.238-.853,2.928-1.91l2.371,3.965c1.133-.663,1.634-1.011,2.541-1.882-4.551-6.503-6.224-13.893-5.483-21.532-.524-.627-1.013-1.28-1.455-1.964-.575,3.981-.959,7.937-.447,11.997.738,5.849-2.512,7.156-3.252,6.57l-1.515-1.198.325,2.771c3.075,5.32,2.458,11.957-1.799,16.45-.998,1.053-2.797,1.44-4.242,1.192-.835-.143-1.741-1.157-1.982-1.782l-.293-.762c-.045-.117-.389-.143-.431-.022l-.295.846c1.53,5.195.822,10.442-2.022,14.968-1.12,1.478-2.545,2.799-4.201,3.46-2.887,1.153-5.382-.414-6.253-3.243-3.27-10.622-1.856-21.814,1.563-32.404-.358-.624-.769-1.221-1.137-1.838-.516,1.524-.987,3.069-1.407,4.637.239,1.453-.008,2.69-.953,3.682-1.836,6.333-2.232,12.672-2.057,19.323.045,1.71-1.395,3.813-3.161,4.073-3.42.503-6.296-2.921-8.003-6.684-.05.291-.101.582-.147.873-.059.375-.113.75-.165,1.126-.001.008-.008.059-.012.092-.003.02-.005.041-.006.045-.01.076-.02.151-.029.227-.019.15-.038.3-.056.451-.111.926-.151,1.858-.142,2.79.004.44.027.878.059,1.315,2.573,3.64,6.943,6.423,10.877,3.847Z"/>
        <path d="M371.589,287.646c-1.192-.333-2.379-.68-3.551-1.077-2.008-.68-3.98-1.472-5.899-2.373-.155-.073-.307-.151-.461-.226,7.36,5.861,14.298,12.171,20.869,18.953l7.421,8.357c2.041,2.299,4.156,5.887,3.059,7.291-.279.357-.966.664-1.509.86-.024-.903.113-2.405-.239-2.97l-3.088-4.946-14.091-15.005c-5.572-5.934-11.721-10.897-18.239-15.773-.169-.139-.339-.273-.509-.409-1.369-.926-2.706-1.928-3.937-3.009-.272-.239-.532-.49-.793-.741-1.002-.855-1.964-1.768-2.851-2.808.219.147.434.298.652.446-.393-.472-.776-.952-1.142-1.444-.472-.636-.989-1.213-1.506-1.813-.028-.032-.057-.066-.086-.099l-14.382-1.777-27.589-2.73c-8.199-.811-15.872-2.954-23.499-5.946-2.903-1.139-6.322-1.337-7.978-4.581l4.65,2.138c1.544.71,3.855.578,5.244-.255,1.237-.742,1.366-1.997,1.08-3.447,1.205.369,2.076,1.953,1.736,3.312-.299,1.192-1.833,1.927-3.527,2.425,5.71,2.019,11.49,3.778,17.651,4.462l21.13,2.345,17.606,1.368c2.495.194,4.957.462,7.327,1.064.161-.139.456-.044.564.152.003,0,.006.002.008.002-.011-.034.004-.019.027.007,1.689.474,3.328,1.13,4.895,2.071l-2.744-.339c.605.521,1.15,1.09,1.718,1.667,1.536,1.558,3.15,3.045,4.986,4.244,3.411,2.227,6.902,4.268,10.692,5.735.392.152.788.294,1.184.437-4.654-3.926-9.444-7.705-14.372-11.329l-.414-2.276-5.191-3.849c-.849-.248-1.696-.502-2.542-.756-1.194-.018-2.388-.059-3.581-.132-1.085-.066-2.173-.129-3.258-.216-1.695.121-3.325.075-5.094-.113l-20.88-2.223c-8.174-.87-16.361-2.396-23.652-6.362,9.721,2.719,18.728,4.907,28.549,5.688l20.533,1.633c.535-.001,1.07-.004,1.605-.008-.839-.263-1.676-.534-2.501-.83-1.218-.437-2.453-.975-3.546-1.675-.482-.309-.9-.716-1.357-1.061-.071-.053-.14-.111-.21-.168-7.762-.153-15.332-1.225-22.924-3.226-4.066-1.287-8.338-1.994-11.7-4.813,10.961,3.919,21.485,6.563,32.899,6.244,2.096-.058,4.342,1.201,6.215,2.791.631.188,1.269.354,1.892.517,1.26.33,2.535.603,3.804.894.328.075.656.155.982.237l-5.655-4.379-.558-.557c-.091-.091.006-.443.137-.427l.713.09.812.066,7.977,2.604c.194.063.988.042.933-.141l-.251-.823-4.651-4.756c-2.256-.542-4.465-1.253-6.578-2.232-2.008-.931-4.041-2.105-5.668-3.642l-3.845-1.113c-5.922-1.714-11.861-3.203-16.872-6.989l12.134,4.418c2.095.763,4.047.897,6.388,1.033-.183-.284-.358-.573-.519-.867-.262-.477-.481-.981-.671-1.494-.127-.14-.257-.279-.399-.418-4.249-4.158-8.736-7.804-13.759-11.294.198,1.718.264,3.295-1.05,4.07-1.957,1.154-4.15,1.183-6.328.891,1.328,1.72,1.98,3.905.893,5.539-1.345,2.023-3.793,2.125-6.23,1.827.946,1.568,1.284,3.636-.364,4.841-1.679,1.228-4.075.91-6.1.561.401,1.2.828,2.475.662,3.485-.512,3.12-8.59,3.081-12.383-.577,3.736.726,9.054,2.472,10.404-.282.369-.753-.074-2.165-.633-2.704l-2.208-2.129,5.11,1.031c1.44.29,3.921-.293,4.337-1.823.591-2.173-1.078-3.091-2.421-4.641l3.468.695c1.351.271,3.695.067,4.476-1.4,1.254-2.356-.677-4.751-2.858-6.136,3.043.58,5.507.984,8.258-.462.889-.468,1.481-2.387.672-3.334l-3.536-4.141c.109.029.217.062.325.094-.976-1.429-1.689-3.058-2.142-4.696-.16-.579-.278-1.17-.372-1.765-9.938-6.162-19.914-10.342-32.411-12.95-1.019-.213-1.993-.509-2.93-.875-.415.094-.829.187-1.244.283-1.68.389-3.355.766-5.008,1.235.48.451.888.975,1.24,1.711,9.165.928,18.144,3.127,26.446,7.469,1.242.649,1.999,3.112,1.585,4.281-.883,2.489-3.48,3.114-5.748,2.993.52.877,1.083,1.751,1.151,2.313.303,2.513-4.027,4.646-8.521,3.124.797.923,1.651,1.763,1.725,2.591.086.968-.546,2.384-1.426,3.047-2.839,2.137-6.844,1.948-9.892.033l-7.442-4.674,2.555,3.776c-.922.633-2.205,1.257-3.109,1.376l-4.484-3.159,2.395,3.689c-.568,1.4-3.026,2.208-4.265,1.167l-3.583-3.01,1.79,3.52c.268.667-1.463,1.715-2.323,1.36-1.987-.82-3.821-2.132-4.848-3.972-3.399-6.09-3.964-12.696.636-18.554-8.567,5.303-6.541,16.067-1.404,24.315,4.544,7.296,11.148,12.939,18.787,16.822-.708-.984-1.325-2.028-1.915-3.094-.609-1.101-1.099-2.29-1.757-3.366-1.037-.816-2.06-1.689-3.108-2.658,2.418.606,4.096,2.02,6.216,3.093l3.865,1.957c.956.484,2.925-.527,2.839-1.662-.208-2.726-1.902-4.013-3.403-6.127,1.109.063,2.112.457,3.038,1.005,3.42,2.026,6.962,3.701,8.865.796.913-1.394.52-2.799-.472-4.218l-2.641-3.778c1.941.643,3.003,1.252,4.634,2.189,2.001,1.15,5.316,1.488,6.674-.686,1.915-3.065-3.609-4.954-3.234-7.048,3.677,2.006,8.576,3.672,9.815,1.136.364-.745-.173-2.155-.821-2.704l-2.555-2.163,5.54,2.36c.418-.551.439-2.042-.013-2.457l-4.18-3.832,6.087,1.208c1.364.271,3.205-.837,3.749-2.059-1.467-3.189-4.888-4.049-6.5-6.491l5.205,2.25c2.152.93,4.127,3.821,2.705,6.089-1.327,2.117-4.523,1.865-6.711,1.296.793,1.04,2.04,2.75,1.741,3.995-.145.605-1.915,1.037-2.409,1.027.124.977.226,2.364-.103,3.134-.296.693-1.802,1.635-2.561,1.553l-4.281-.465c.659,1.228,1.053,3.285.419,4.572-.946,1.921-3.234,2.501-5.118,1.981l-3.528-.973c.719,2.142,1.605,4.166.189,5.95-1.124,1.416-3.925,1.967-5.576,1.304l-3.622-1.454c.561,1.254,1.531,3.202.857,4.315-1.445,2.385-4.692,2.192-6.766.919-.712-.437-1.395-.878-2.06-1.327.162.214.323.429.484.645.965,1.297,1.986,2.536,3.18,3.631.76.697,1.563,1.34,2.399,1.94.963.032,1.916-.093,2.784-.287,3.04,2.436,6.427,4.275,10.223,5.53,9.928,3.28,19.967,4.689,30.627,5.486l-1.266,2.14c-.425.718-1.23,1.253-2.011,1.84-1.891,1.421-4.289,3.585-6.889,2.448l-3.592-1.571,1.399,2.314c1.888.791,3.779,1.575,5.716,2.24,1.397.48,2.813.876,4.244,1.218,2.757-.259,5.011-.822,4.909-1.443l-.129-.785c1.262-.1,2.483-.338,3.903-.781.63-.197,1.993.236,2.766.319,2.998.321,5.718-.28,8.709-1.005l.484-.765-8.345-3.658-3.646-1.798,6.262.325c17.143,13.005,29.803,28.625,40.233,47.36,1.91,3.431,3.918,6.644,6.58,9.454,5.763,6.083,15.743,6.6,20.71-.066,2.547-.193,5.322-.167,7.599-1.63,5.524-3.548.471-10.19-3.89-15.112-7.532-8.502-15.533-16.517-24.002-24.025ZM309.948,248.641c7.463,2.423,14.999,4.003,23.025,5.121,2.231.311,4.054.764,5.703,2.509l-20.904-4.013c-6.075-1.166-11.614-3.48-16.608-6.613,3.414.409,5.841,2.041,8.784,2.996ZM259.086,246.108c-4.349,1.806-8.684-1.489-11.367-5.922,1.497.538,2.706,1.192,3.846,1.171,1.58-.029,2.281-1.347,2.13-2.704l5.458,4.921c.319.287.809.778.934,1.093.15.378-.609,1.277-1.002,1.44ZM267.228,241.561l-4.184-1.956,2.571,3.209c-1.472.968-3.085,1.185-4.512.293l-4.934-3.082c1.626-.671,2.635-1.064,3.536-2.158l1.298-1.576c1.805.229,3.927-.011,5.072-1.401,1.372,1.79,3.386,2.511,5.361,3.364.344,1.798-2.334,4.184-4.208,3.308ZM380.703,323.099c-.697,1.898-4.047-.309-6.599-4.01l-9.212-13.356-8.342-10.056c-4.351-5.245-10.003-8.997-14.998-13.634l-10.063-9.341c2.386,1.437,4.39,2.929,6.335,4.63l10.426,9.119c9.008,7.878,16.679,16.74,23.393,26.636l5.771,7.305c.658.833,1.644,1.045,3.372,1.028.103.014.078,1.242-.083,1.68ZM380.685,318.226l-12.203-14.962-23.516-24.23c-1.181-.843-2.199-1.702-2.898-2.992,5.688,4.127,10.393,8.948,15.244,13.901l7.218,7.37c5.56,5.677,10.875,11.206,15.82,17.429l7.297,9.182c-3.136-.889-5.006-3.298-6.963-5.697ZM386.332,317.153c-6.162-8.599-12.913-16.446-20.19-24.125l-8.398-8.57c10.298,8.317,19.109,17.935,27.422,28.103l5.128,7.607c-2.238.312-2.952-1.607-3.961-3.015Z"/>
        <path d="M431.288,203.364c-1.376-2.951-2.548-5.941-4.382-8.588-1.869-2.698-3.785-5.017-6.329-7.101-13.008-10.654-29.005-8.945-40.878,2.654-1.215.984-3.657,1.435-5.26,1.631-9.058,1.107-17.394,3.648-25.464,7.786l-7.211,3.698v-.586c4.22-6.351,8.826-12.053,14.231-17.552,2.698-2.746,6.207-5.425,9.808-6.73l12.493-4.529c1.511-.548,2.286-1.897,2.853-3.426,1.574-.331,3.623-.688,5.047-1.677,3.759-2.61,6.861-5.584,9.444-9.374,1.834-2.69,3.614-5.895,3.862-9.106.104-1.347.298-1.855.762-3.082l3.249-8.601c.517-1.368,1.169-2.575,1.935-3.71-.885.173-1.769.375-2.656.604-2.038.526-3.979,1.288-5.979,1.924-1.139.363-2.271.776-3.386,1.22-3.644,2.668-7.164,5.262-10.688,8.599l2.611-.349c3.339-.446,6.225-1.353,9.542-2.569-3.852,4.204-12.181,3.203-14.785,5.639-3.502,3.277-6.787,6.567-9.405,10.525l-6.547,9.9c-1.353,2.046-2.12,4.031-3.915,5.892l2.338-5.971c1.974-5.04-.993-7.629.56-11.258l.507,3.661.507,5.262c1.64-2.746,3.92-5.697,4.084-9.076l.305-6.265c.191-3.918,1.749-7.711,4.902-10.154-1.68,3.186-3.643,5.971-3.619,9.586l.041,6.302,6.434-7.994c.883-1.097,1.366-2.47,1.823-3.889,1.169-3.63,3.76-8.478,7.182-9.761-2.908,3.046-5.241,6.199-5.801,10.523,3.264-2.96,6.512-5.616,10.078-7.906.752-.609,1.732-1.123,2.056-1.311,1.525-.887,3.116-1.663,4.746-2.337.05-.021.102-.04.152-.062.016-.009.038-.02.07-.037.226-.118.465-.219.698-.322.601-.267,1.215-.504,1.831-.733,1.237-.461,2.494-.87,3.766-1.225,1.497-.419,3.025-.767,4.568-1.016.96-1.099,2.025-2.193,3.178-3.374-16.417.082-31.918,1.657-43.811,12.811-7.354,6.898-11.308,16.387-11.585,26.514-.13,4.735-.811,8.815-3.25,12.962-2.527,4.297-5.389,8.155-8.651,12.006-5.872,6.932-10.229,14.643-14.391,22.696l-8.106,15.929-.443.577c-.091.119-.775-.254-.788-.397-.052-.547.134-1.507.3-2.291,2.28-10.761,4.185-21.415,4.756-32.479.542-10.505-1.277-20.474-3.718-30.538l-1.367-7.468-2.008-.336c1.126-.936,2.102-1.889,3.082-3.114,8.702,5.737,19.682,5.02,25.647-3.644,2.52-3.66-1.011-6.959-.303-6.842l.84.14c2.52.053,4.629-2.544,4.858-5.219.33-3.852-1.436-7.156-4.499-9.387,1.941-1.153,2.417-2.867,1.771-4.89,8.605,4.215,19.11,1.643,24.578-6.124.744-1.057,1.256-2.178,1.489-3.328-1.895-1.381-4.026-2.481-6.165-3.44.532,1.98-.351,4.375-1.803,5.981-5.919,6.549-16.81,6.339-23.141.519-1.082-.995-2.02-1.721-3.525-2.307l3.31,4.503c.616.838.838,2.448.58,3.584-.191.839-1.181,2.017-2.434,2.107-1.563.113-2.787-.728-4.35-1.742l-.604.815c6.252,2.873,11.428,10.912,8.022,16.233-.255.399-1.199,1.032-1.65,1.355.619,3.054-.828,5.9-3.44,7.75-7.991,5.66-18.918,2.804-23.434-6.311-.446,1.631.585,3.12.669,4.57-.274,2.392-2.437,4-4.681,4.458-4.999,1.02-7.572-4.084-10.373.087,2.936,3.55,7.071,5.351,11.45,5.246l3.505,7.257c1.925,5.363,2.682,10.944,3.357,16.608.643,5.399.901,10.592.039,15.914-1.42-6.476-3.543-12.388-6.468-17.711.328,4.545.594,9.132.001,13.656,1.169,4.353,1.857,8.877,2.06,13.451.271,6.126-.814,12.029-2.331,17.962-2.815-2.087-5.568-4.011-8.312-5.783.172.611.37,1.214.611,1.794.554,1.33,1.356,2.555,2.195,3.72.258.358.542.705.84,1.035.275.157.549.32.824.497,5.622,3.62,10.696,7.777,15.311,12.575-.004-.022-.007-.044-.012-.065-.083-.402.545-.565.61-.168.098.591.417,1.134.724,1.65.175.191.356.375.53.567l.812,1.326c.81.954,1.746,1.837,2.785,2.537,2.192,1.476,4.594,2.544,7.093,3.338l-5.615-5.741-7.19-7.228,4.932-10.875c1.961-3.317,5.865-5.455,9.451-6.124,4.608-.859,8.691,1.943,8.869,6.611.167,4.407.898,8.528,2.7,12.597,2.877,6.499,8.074,14.86,15.185,15.513.794,1.581,2.069,3.196,3.626,4.307,4.674,3.334,8.189,6.725,9.842,12.351.079.267.142.611.266.579l.624-.162c3.095-5.03,5.475-10.175,7.142-15.828,1.304-5.404,1.892-10.61,1.368-16.177-1.11-11.788-9.06-22.131-20.465-25.341-6.381-1.796-12.64-.955-18.176,2.308-1.441.849-3.172.956-4.747.819-4.644-.404-8.795.3-12.977,2.732-.091.157-.127-.237-.108-.589l3.955-8.075c1.215-2.481,7.282-6.893,10.651-8.832,5.983-3.443,12.254-6.035,19.059-7.315,4.994-.939,10.792-.356,12.648,3.933,2.895,6.692,9.16,13.864,16.407,13.206,5.729,4.842,15.028,5.372,21.463,1.646,1.088-.63,1.961-1.153,3.136-1.502,4.926-1.516,9.948-1.898,14.735.193.192.045.588.168.684.069l.553-.569-4.378-9.391ZM381.04,156.834c3.66-.216,6.54-1.73,9.787-3.364-2.099,3.003-5.698,4.073-9.073,4.438-3.631.393-6.574,1.469-10.351,3.166,2.03-2.889,6.009-4.027,9.637-4.241ZM375.71,167.211c2.771.256,5.087-1.267,7.686-2.3-1.456,1.47-3.663,2.883-5.814,2.956l-5.903.199-5.25,1.775c2.583-2.322,5.831-2.949,9.281-2.631ZM356.03,173.007c1.139,1.536,1.9,3.914,1.036,5.708-.961,1.994-2.796,3.512-4.668,4.91,1.602-3.365,2.98-6.629,3.633-10.618ZM359.721,222.688c6.552-1.148,13.784-.154,18.376,4.986-4.266-2.613-8.243-4.278-13.161-4.07l-3.5.148c3.831,2.706,6.756,5.647,9.539,9.327,5.704,1.384,11.337,5.04,13.009,10.753-3.351-4.576-6.906-7.984-12.211-9.41,1.71,2.653,2.817,4.937,3.987,7.756l2.277,3.682c2.009,1.162,3.637,2.571,4.078,4.722-1.328-1.476-2.294-2.673-3.758-3.696.966,4.637,2.519,8.388,1.73,12.983-1.092-4.319-1.491-8.332-3.84-12.833l-1.338,7.329c-1.257-3.211,1.156-8.075.19-10.019-2.018-4.063-4.283-7.531-7.209-11.274.193,2.64.928,5.054.523,7.533-.575,3.515-.319,6.553.829,10.013-2.026-2.291-2.215-5.061-2.149-8.134.232-10.802-1.599-13.936-11.321-19.246,1.552,2.764,2.523,5.347,2.069,8.362-.553,3.67.076,7.032,1.408,10.63-2.435-2.562-2.86-6.131-2.662-9.672.229-4.097-.837-8.493-4.467-10.838-1.719-1.111-4.04-1.404-5.935-1.969,4.88-.927,9.403.244,13.536,2.937ZM390.362,200.328c-1.051-3.095-2.74-5.445-5.798-7.306,3.622.09,5.896,3.344,6.923,6.529.905,2.809,2.238,5.066,4.417,7.401-2.886-.957-4.565-3.748-5.542-6.625ZM401.46,201.11c-1.176-3.421-3.191-5.987-6.331-8.179,3.324-.428,6.559,4.25,7.952,8.261.968,2.786,2.62,4.645,4.833,6.831-3.263-.744-5.375-3.774-6.454-6.913ZM420.773,202.971c-3.121-2.632-6.633-4.462-10.204-6.109l3.713,7.121.728,1.641c-2.861-1.497-3.768-6.536-7.1-9.812-7.954-4.722-17.258-5.714-26.163-3.482l-4.728,1.185c1.957-2.239,4.323-2.422,6.743-2.954,3.762-1.167,7.465-1.656,11.378-1.125,2.867-1.841,5.943-2.859,9.257-3.452,2.853-.179,5.607-.036,8.08,1.599l-4.692-.794c-3.684-.623-7.219,1.149-10.428,2.853,4.637.906,8.461,2.696,12.605,4.562,2.65-.465,5.946-2.117,8.646.033-2.554-.381-4.979-.375-7.59.434l9.566,6.023c1.472.927,2.549,2.165,3.28,3.472-1.754.095-2.08-.344-3.091-1.197Z"/>
        <path d="M374.744,113.568c.088.049.174.1.261.149-.134-.571-.34-1.141-.633-1.707,5.567-1.827,9.325-6.961,9.222-12.941-.07-4.077-2.138-7.6-5.161-9.987-.155.688-.344,1.367-.56,2.034.056.081.114.163.163.242l-.281.108c-.045.131-.087.265-.134.395-.199.553-.423,1.09-.67,1.614,2.22,4.536,1.281,9.812-2.522,13.139-2.493,2.181-5.31,3.026-8.621,3.319,3.105.875,6.136,2.077,8.936,3.635Z"/>
        <path d="M311.787,189.405c.023-.311.044-.623.063-.939.188-3.123.193-6.254.24-9.384-3.75-5.881-8.6-10.966-14.714-15.208-.247,1.278-.521,2.557-.945,3.781-.075.215-.161.425-.243.637,7.109,5.493,12.309,12.847,15.6,21.113Z"/>
        <path d="M298.977,279.636c-3.666.308-7.386-.219-10.563-2.236-2.407-1.528-4.354-3.228-7.37-3.938l3.667,3.233c-11.014-2.573-21.762-7.032-30.682-13.729.881,1.48,1.779,2.95,2.763,4.359.593.85,1.103,1.531,1.684,2.25,4.789,2.68,9.888,4.866,15.086,6.609l2.762,3.466c.897,1.126,3.232,2.759,2.81,4.573l-1.337,5.739c3.844-1.3,7.494-.005,7.759-1.675.521-3.286,2.059-5.72,4.657-7.638l3.975,2.906c-4.8,4.057-9.978,7.567-16.014,7.227-3.059-.173-6.3,1.171-5.989,4.817,1.59-.773,2.713-1.3,4.073-1.295-1.032.814-1.861,1.177-3.006,1.599-1.718.634-2.695,2.833-2.667,4.569.028,1.742,1.047,3.456,2.993,4.127-1.639-2.54-.534-5.259,2.109-6.73l-3.621,13.992-7.844,29.601c-1.403,4.416-2.9,8.706-4.571,12.92.067-.059.134-.117.2-.177,2.778-2.463,5.519-4.962,7.934-7.791,1.931-2.262,3.682-4.661,5.272-7.164,1.422-4.884,2.706-9.824,3.885-14.831l4.601-19.536,3.693-1.689c3.028-1.385,3.717-6.64,3.355-7.159l-2.085-2.981,11.072-6.344c3.096.192,5.445-2.101,5.389-5.061-1.355-.621-2.684-1.299-3.994-2.014ZM285.216,300.236c-.399,1.495-1.692,2.839-3.391,3.814l1.715-6.819c-1.118-1.185-3.037-1.41-4.661-.717.744-1.391,2.097-1.365,3.414-.744,1.619.763,3.489,2.352,2.924,4.467Z"/>
        <path d="M280.808,125.512c-3.715,5.312-6.77,10.974-9.077,16.988.262.715.623,1.386,1.002,2.049,1.25-3.513,2.699-6.949,4.25-10.26,2.273-4.852,5.078-8.872,8.191-13.434-1.905,1.206-3.113,2.866-4.366,4.657Z"/>
        <path d="M330.54,306.452c-3.361.117-6.633,1.055-9.778,2.215l-8.309,4.561,4.733.226c2.056.098,4.035-.32,6.2-.836-3.715,3.788-10.328.764-13.253,2.432-3.499,1.994-6.295,4.586-9.125,7.355,3.427-1.137,6.542-1.261,10.019-.686,2.654.439,5.069-.426,7.851-1.163-2.887,2.93-6.901,2.495-10.751,2.175-3.19-.265-7.006.552-9.642,2.527-1.924,1.441-3.379,3.629-4.87,5.871.094.095.125.258.062.391,2.398-.441,4.557-2.014,6.925-1.53,3.406.695,6.4.532,9.742-1.046-2.019,1.931-4.952,2.761-7.605,2.211-4.253-.883-8.171.2-11.124,2.937-.053.126-.101.249-.146.364-.808,2.068-1.153,4.211-1.258,6.389,1.755-1.386,3.77-2.398,6.039-2.791l8.919-1.544c1.287-.223,2.785-1.669,3.712-2.329,1.715-.166,3.416-.298,4.974-1.163,5.605-3.109,10.29-7.229,13.013-13.079.46-.988.527-2.536.58-3.421,2.571-2.822,3.061-6.132,5.816-9.985-.907-.083-1.817-.112-2.726-.081Z"/>
        <path d="M307.722,301.555c-1.488.54-2.6,1.78-3.376,2.915l-.6-1.137c-7.624,3.633-13.642,10.005-16.423,18.016-3.307,9.527-.024,13.249-1.219,17.511-.966,3.445-2.498,6.426-4.308,9.495-7.291,12.359-17.978,16.88-17.784,16.419l.411-.977c2.407-5.72,4.526-11.489,6.419-17.328-.831.995-1.694,1.963-2.595,2.896-2.526,2.614-5.353,4.899-8.209,7.14-.609.478-1.223.952-1.839,1.422-1.463,3.437-3.06,6.832-4.841,10.21-8.77,16.631-20.621,31.277-35.681,42.822-6.292,4.824-12.46,8.503-19.867,11.263-.157.091-.221-.39-.16-.785,6.16-10.979,8.303-23.484,6.133-35.676-.152,2.098-.449,4.182-.929,6.217-1.015,4.306-2.724,8.49-4.89,12.344-1.771,3.15-3.875,6.127-6.197,8.905-2.474,5.156-5.751,9.773-10.025,13.667l-5.561,3.935.452.462c9.097,2.971,18.65,2.302,27.415-1.566,19.476-8.596,35.707-25.549,47.807-42.916,5.789-5.572,19.832-8.899,22.655-2.722.846,1.851.314,3.087-.283,4.973-3.367,10.63,1.406,22.859,11.608,27.828l5.534,2.077c3.178,1.82,6.171,3.532,8.426,6.601l.721.981c.119.161.739-.349.858-.539l6.447-10.298c3.244-5.182,4.757-10.967,4.898-17.083.172-7.509-3.195-14.198-9.164-18.539-7.332-5.332-16.555-5.972-24.556-1.625-1.589.863-3.395,1.183-5.184.77-5.858-1.352-11.612-.444-17.187,1.706l-.914.352c-.111.043-.093-.306-.042-.408l.333-.673,4.132-6.877c3.222-3.715,7.766-5.945,12.151-8.064l14.745-7.125,12.822-6.286c2.649-1.299,6.36-2.265,9.59-2.123,1.278-.87,2.633-1.624,4.037-2.278.301-.33.59-.666.865-1.003l-6.853.813c-5.627,1.428-10.73,3.706-15.978,6.201l-16.666,7.925c-.577.08-.571-.111-.06-.466,3.931-4.197,7.214-8.452,9.989-13.454.878-1.582,1.936-3.117,3.164-4.482.105-1.915.399-3.828.892-5.637.098-.359.204-.717.32-1.073.709-2.349,2.266-4.186,2.722-6.521,0-4.9-.187-10.027,3.09-14.24-1.493,4.166-2.521,8.198-1.859,12.7l6.441-7.649,2.499-7.763c.908-2.821,2.763-5.246,5.622-6.409-3.396,3.448-5.57,7.499-5.917,12.308l9.177-6.963c1.374-2.884,2.864-5.938,6.12-7.241-1.877,1.864-3.739,3.797-4.583,6.417,4.073-1.859,7.794-3.92,11.961-4.992.399-.14.801-.275,1.208-.395,3.008-.891,6.188-1.259,9.31-.941,1.197-1.075,2.628-1.867,4.322-2.932-10.558-3.11-21.322-3.812-31.547-.103ZM284.904,384.298c.949.021,2.578-.309,3.64-.544,5.28-1.17,11.125-.109,14.381,4.195-3.981-2.49-7.402-3.868-11.819-3.491l-5.3.453c2.837,2.073,4.962,4.431,7.154,6.913,5.975.805,12.198,3.132,13.736,8.966-2.575-2.968-4.772-5.637-8.37-6.665l-4.66-1.33,5.234,9.992c1.546,1.249,4.27,2.208,4.588,4.828l-4.287-3.85c.912,4.597,2.426,8.341,1.563,12.973l-3.351-11.453c-1.246,2.704-1.516,5-1.991,7.814-1.522-3.22,1.175-6.122.952-9.161-.278-3.791-3.177-6.96-5.146-10.104-.103,3.082-.416,5.444-1.382,8.08-.957,2.613-.702,5.188-.438,8.059-3.803-5.859,2.955-13.136-.698-18.94-1.347-2.141-3.635-3.711-5.647-5.501.537,2.98.548,5.59-.578,8.249-1.389,3.279-1.429,6.501-.741,10.056-4.426-6.317,4.052-14.688-1.655-20.243l-4.308-2.584c3.356.44,6.109,1.765,9.124,3.288Z"/>
        <path d="M320.453,345.336c.294.026.539.09.77.188l.696-.251c3.975-1.434,8.219-.388,12.381.202,5.299-3.042,11.958-4.772,16.981-1.677l-6.921-.58c-2.782.278-5.342,1.362-7.991,2.58,4.201,1.228,7.758,2.53,11.319,4.526,3.755-.853,7.955-1.108,10.89,1.579-3.22-1.19-6.198-1.576-9.392-.869,1.426.953,2.778,1.873,4.078,2.81.782-.291,1.642.813,2.156,1.223.935.746,1.883,1.479,2.81,2.235.869.708,1.652,1.528,2.44,2.323.803.81,1.592,1.633,2.346,2.489,1.545,1.753,3.069,3.597,4.319,5.576.289.457.555.924.805,1.398.452.221.896.461,1.33.725l.531-1.015-3.367-12.386c-2.017-6.588-6.03-11.707-11.69-15.508-10.547-7.084-24.359-5.387-34.254,2.319-.901.702-1.911,1.591-2.98,2.241-.104.15-.208.3-.315.447.39-.149.785-.289,1.191-.372.613-.125,1.237-.258,1.865-.202Z"/>
        <path d="M361.041,363.728c-1.238-1.587-2.507-3.167-3.881-4.64l-8.918-5.821,2.042,5.797,1.302,2.768c-.995-.618-1.963-1.576-2.647-2.623-.762-2.825-2.022-5.091-3.784-7.572-3.5-1.547-6.649-2.693-10.263-3.405,2.883,2.583,4.386,5.33,4.688,8.863.235,2.753,1.766,5.004,3.616,7.097-2.646-.727-4.234-3.207-4.868-5.876-1.023-4.3-2.947-8.385-7.017-10.66-2.197-.432-4.899-.371-7.38-.342,5.904,4.045,2.945,10.008,7.489,15.683-3.066-1.686-3.984-4.818-4.616-8.057-.613-3.142-2.26-6.501-5.537-7.439-.723-.207-1.464-.222-2.218-.161-.223.131-.446.263-.669.39-1.694.967-3.42,1.874-5.07,2.911,1.359.692,2.377,1.809,2.802,3.482,1.53,6.017,4.783,11.061,10.1,14.404,7.029,4.42,15.785,5.343,23.282,1.617.675-.605,1.367-1.098,2.28-1.267l7.823-1.446c1.454-.087,2.871-.003,4.241.245-.861-1.364-1.809-2.682-2.798-3.95Z"/>
        <path d="M232.954,278.08c-9.541-5.453-20.803-6.789-31.526-4.396-5.661,1.264-10.556,3.523-14.842,7.396-6.364,5.749-10.075,14.182-8.712,22.809.491,3.111.83,5.651-.166,8.778-.231.726-.439,1.455-.637,2.184.432,1.201.89,2.394,1.376,3.575.136-.519.285-1.029.45-1.528.007-.171.013-.342.022-.513.149-2.608.687-5.183,1.592-7.63.893-3.122,2.362-5.954,4.06-8.735.186-3.881.726-7.447,1.847-11.064,1.188-2.157,2.466-4.161,4.516-5.593-1.902,3.102-3.783,5.73-4.28,9.284l-.815,5.825,8.345-8.305,3.522-6.742c1.854-2.545,3.959-4.761,7.042-5.653-3.663,2.925-7.033,5.992-8.086,10.847l10.547-5.489c1.95-1.243,3.126-4.425,5.887-4.52-1.716,1.331-2.992,2.432-4.369,4.17l7.162-1.462c2.816-.575,5.714-.937,8.645-.061-6.489,1.118-12.59,1.914-18.594,4.978,1.918-.072,3.457-.09,5.161.286l6.644,1.465c-.739.336-1.78.413-2.686.369-3.709-.767-7.153-1.199-10.899-1.325-3.828,1.767-7.218,3.893-10.401,6.74,3.43-.376,6.6-1.063,9.528.24,3.068,1.365,5.903,1.516,9.519.841-3.04,2.434-7.012,1.234-10.255.29-3.681-1.071-7.224-.576-10.921.526-2.488,2.175-4.765,4.379-6.702,7.43,4.03-1.81,7.477-2.159,11.098-.252,2.328,1.226,4.774.855,7.392.347-2.324,2.1-5.632,1.424-8.3.49-3.884-1.36-7.901-1.215-11.259,1.536-.134.11-.26.228-.382.349-.489,1.189-.927,2.397-1.261,3.646-.268,1.001-.463,2.012-.596,3.029,1.576-1.537,3.438-2.487,5.765-2.329,5.48,1.934,11.79,2.093,17.143-.207,1.157-.497,1.984-.698,3.23-1.028,5.505-1.459,9.959-5.634,12.851-10.377.567-.929.667-2.299.727-3.184,3.692-4.017,3.917-6.776,9.112-10.77,1.88-1.445,4.687-.968,7.568-.222l.934.242c.907.235-1.388-3.653-5.996-6.287Z"/>
        <path d="M194.942,364.109c-1.211-2.311-1.54-5.021-1.368-7.631-.068-.326-.138-.653-.199-.979-.26-1.386-.501-2.788-.665-4.194-.628,2.546-.877,5.191-.797,7.985.187.524.048,1.27-.453.797-3.466-5.266-7.102-9.807-9.906-15.227-3.275-6.331-4.903-15.492-3.735-23.341-.528-1.133-1.042-2.271-1.512-3.435-1.407,6.994-1.276,14.129.474,21.31-.411-.503-.827-.998-1.245-1.491-.321.387-.932.553-1.444.126-.845-.706-1.705-1.392-2.58-2.061-.92-.704-1.789-1.472-2.715-2.17-2.973-2.241-6.054-4.295-9.432-5.859,3.591,2.602,6.896,5.683,9.843,9.224-6.453-3.232-12.723-5.506-19.795-6.072-.98-.078-2.431-.709-3.3-1.299-7.107-4.827-15.753-5.956-23.932-2.839l-5.432,2.507c-6.545,3.674-10.707,10.083-12.523,17.267-1.863,7.674-1.555,15.195.159,22.893-.004.164.455.869.626.717l.551-.491c.338-.301.673-.608,1.009-.915-.002-.32-.003-.64-.008-.96-.026-1.626.007-3.247.195-4.863.197-1.694.482-3.394,1.06-5.004.484-1.347,1.136-2.6,1.84-3.841,1.306-2.302,2.735-4.522,4.453-6.542.848-.998,1.762-1.95,2.781-2.775.438-.355.893-.66,1.369-.931.56-.627,1.122-1.243,1.679-1.844-3.72-.013-6.832,1.551-10.008,4.181,2.362-4.293,7.224-4.904,11.634-6.08,3.288-1.865,6.083-4.789,9.859-6.232-2.566-.539-4.929-1.115-7.301-.997l-7.699,1.974c2.395-2.497,5.521-2.468,8.494-3.233,2.806-.157,5.53.509,8.284,1.489,3.696-.793,7.31-1.575,10.72-.805-6.901,3.592-1.96,12.545-8.226,17.03,1.678-3.076,2.838-5.717,2.742-9.015-.093-3.198,1.365-5.968,3.939-7.693-7.412,1.015-11.301,3.308-12.105,10.811-.406,3.789-1.988,9.156-5.307,10.156,2.103-2.914,3.731-5.79,3.841-9.49.073-2.442.771-4.537,1.723-7.05-3.054,1.851-5.976,3.538-8.236,6.396-2.277,2.879-1.292,8.954-4.209,11.663l1.064-4.691.859-5.22c-3.052,2.955-5.433,6.132-7.794,9.463-.247.521-.488,1.044-.721,1.571-.059.132-.117.265-.175.398-.013.029-.062.15-.084.201-.13.327-.25.658-.358.993-.241.746-.427,1.51-.583,2.277-.174.853-.232,1.275-.308,2.088-.072.782-.111,1.567-.123,2.353-.007.489-.006.979-.007,1.469.952-.665,1.971-1.221,3.108-1.571l7.029-2.162c4.209-1.294,3.77-2.825,5.173-2.539,1.801.367,3.518-.024,5.25-.8,7.463-3.345,13.149-9.835,15.609-17.683-.393-2.268.394-4.015,1.698-5.43,1.493-1.494,3.502-2.155,5.763-1.939,7.193.686,13.683,3.944,19.198,8.569,2.076,1.741,4.235,3.495,5.654,5.841l9.963,16.462.311.597c.058.11.004.592-.097.52l-.671-.477c-5.007-3.558-13.507-1.776-14.953-2.47-4.137-1.985-7.875-3.605-12.638-3.506-11.186.231-21.438,7.04-25.736,17.415-2.992,7.221-2.877,14.83-.921,22.306,1.639,5.979,4.41,11.222,7.529,16.558l.686.871c.688.875,2.091-5.674,5.975-8.458l7.371-5.283c1.306-.936,2.39-2.333,3.272-3.564,1.206-.098,2.958-.234,4.106-.899,7.324-4.244,12.493-11.361,13.839-19.809.79-4.96-1.477-9.417,2.278-12.171,4.041-2.963,11.78,1.632,14.708,9.365,3.077,8.127,3.98,16.737,2.447,25.119.494-.892.964-1.797,1.403-2.717.243-.508.476-1.02.701-1.537.025-.058.05-.116.075-.174.007-.016.07-.164.088-.209.098-.236.193-.473.287-.71.768-1.949,1.402-3.953,1.869-5.996.978-4.273,1.124-8.8.943-13.234-1.737-4.307-4.046-8.178-6.233-12.352ZM148.624,398.952c.021-.02-.08-.914-.117-1.207l-1.056-8.349c-2.586,4.784-3.649,9.77-5.323,15.103-.45-4.996,1.444-9.572,3.268-14.586-2.7,1.03-4.437,3.209-6.06,5.755.526-3.242,3.182-5.013,5.663-6.653l3.461-2.289-.058,3.149.887,7.885c.085.757-.328.876-.665,1.193ZM166.198,375.606l.339,5.407c.156,2.485-.358,5.082-2.273,7.042,1.513-3.646,1.849-7.252.936-11.084-.68-2.856-.116-5.585,1.155-8.362-7.633,3.868-10.985,7.179-9.799,16.15.485,3.667.266,7.152-1.946,10.119.969-3.088,1.43-5.866.838-8.942-.647-3.362-.472-6.443.48-9.751-2.748,2.905-4.571,5.656-7.556,8.04.975-2.633,2.322-4.473,3.975-6.865-5.499.889-10.096,3.54-13.845,8.034,1.263-3.649,4.456-5.797,7.79-7.358l7.195-2.32c2.794-2.29,5.106-4.812,8.446-6.718-5.507-1.991-10.913-.642-16.229,1.659,5.002-3.997,11.545-4.216,17.254-2.282,2.928-1.269,5.674-2.27,8.863-2.662-4.492,1.869-5.938,4.893-5.624,9.894Z"/>
        <path d="M246.895,335.124l-9.015-9.122c-2.328-1.688-4.55-3.472-7.245-4.615-8.265-3.508-17.726-2.364-24.989,2.763-6.101,4.307-9.676,10.722-9.856,18.219-.023.971-.483,2.337-.919,3.186-.041.081-.079.162-.12.242.05,1.389.195,2.773.471,4.138,1.684-2.881,4.775-4.436,6.777-2.999,4.698,3.37,11.016,5.155,15.848,2.321,6.718.431,12.234-2.221,16.034-8.036,1.332-2.039,3.874-3.311,6.178-4.426,3.69-1.786,7.166.12,6.836-1.671ZM219.081,338.306c-2.507-2.224-5.195-3.256-8.862-3.673,2.134-1.474,6.485.043,8.492,2.12,1.534,1.587,3.227,2.459,5.739,3.244-1.634.305-3.845-.339-5.368-1.691ZM229.289,335.383l-3.598-2.162-3.515-1.843c1.005-.328,2.461-.032,3.47.708l3.926,2.88-.283.416ZM231.356,330.596c-9.534-1.928-19.484.381-27.274,6.164-1.169.868-2.002,2.156-2.89,3.321,7.184-2.412,8.831,3.589,14.215,4.438-4.569,1.154-6.242-4.586-12.372-4.023-2.102.193-4.017,1.54-5.6,3.618.225-3.564,3.7-5.046,4.958-7.589,1.855-3.751,2.871-8.059,6.962-9.907-2.307,2.681-4.731,4.969-5.131,8.676l6.85-3.757c1.007-.552,2.072-1.214,2.826-2.164,2.466-3.105,6.445-5.257,10.233-5.709l.858.632c-4.195.028-7.693,2.49-10.129,5.763,7.433-1.414,14.641-1.63,21.274,1.505-1.725.107-3.124-.632-4.78-.967Z"/>
        <path d="M139.657,315.616c-8.247-1.329-18.808-5.985-21.761-14.333,10.625-1.96,19.67-7.231,24.552-16.976l-2.517-.85c-.333-.112-.667-.192-.524-.309l.617-.505c1.73-1.416,3.52-3.302,4.438-5.424l2.575-5.956c.144-.332.097-1.15-.24-1.271-1.349-.485-3.347.446-8.573-1.126-1.386-.417-3.626-.071-4.999.178l.784-6.604.597-5.459c-3.498,1.263-6.39,1.89-9.766,1.816-.606.6-1.178,1.232-1.708,1.896.963.041,1.927.264,2.869.708l5.263-.927c-.768,1.384-1.929,3.109-1.223,4.342,1.999,3.493-.785,8.146-3.889,11.24-3.295.822-5.871,2.473-8.76,4.492.53-3.111.266-5.862-1.29-8.372-.126-2.485-.589-4.682-2.115-6.762,1.79-2.089,4.202-3.833,6.766-4.47.419-.728.886-1.431,1.402-2.106-3.198.399-6.128,2.271-8.312,4.501l-2.317,2.366c-.662-3.543-3.558-5.799-7.122-4.835-1.714-2.838-5.211-3.435-7.854-1.542-2.032-2.583-5.622-3.013-8.313-1.245l-2.42.502c-1.826-2.489-7.8-1.502-8.896,1.533-2.151-.278-3.89.451-4.925,2.61-1.194-3.403-2.845-6.295-5.276-8.303.001.744-.029,1.488-.091,2.233,1.458,1.247,2.596,2.846,3.222,4.74-1.439,1.666-2.484,3.663-3.609,5.705-1.389,2.523-2.606,4.87-2.818,8.257-1.408-2.312-3.159-4.765-5.564-6.457-1.275-.897-2.009-1.814-2.569-3.24-1.268-3.224-1.663-6.436-.06-9.79l1.246.84-.136-5.56,3.4,2.773.74.651c.171.15.509-.298.789-.588,1.214.282,2.376.731,3.441,1.33.001-.767-.024-1.532-.072-2.287-.523-.278-1.075-.523-1.658-.732-3.082-1.109-5.265-3.128-7.288-5.742-2.355,3.823-3.799,11.956-3.75,11.998l-.746-.649c-2.096-1.825-6.415-.934-10.858-4.805-2.146,4.755-.344,12.097,2.306,16.722.166.29.929,1.079.656,1.156l-1.196.335c-1.319.37-2.655.136-4.57-.316,1.884,12.547,14.31,21.294,26.013,24.665,1.889-.414,3.428.107,4.795,1.465,5.443,1.494,10.927,2.472,16.601,3.107.139.037.839.225.851.222.003,0-5.397,5.735-14.26,4.081-5.35-.999-10.598-1.017-15.597,1.169-5.419,2.371-9.409,7.332-9.777,13.27-.251,4.047,1.683,7.939,5.177,9.531l.721.328c.163.075-1.755,3.716,1.13,9.014,2.434,4.469,7.042,7.718,11.855,8.754-1.548-3.305-2.302-7.105-2.419-10.708-.074-2.27.187-4.461.75-6.663.162-.634.353-1.253.567-1.865l-3.068,3.215c-.33-2.131,2.261-2.867,3.325-4.136l2.843-7.56-4.696.866c-2.253.416-3.746,1.869-5.708,3.279,1.738-4.293,6.6-5.167,11.109-5.516l5.319-5.357c-.956.028-2.731.136-3.538-.139-3.785-1.29-7.096-.478-10.679,1.329,2.861-3.09,7.254-3.206,11.102-2.274,4.934,1.195,11.786-3.072,16.635-6.117-.766,1.467-2.12,2.457-3.595,3.329l-7.195,4.254c-3.991,2.36-6.779,6.239-7.891,10.824-.62,2.556,2.642,6.106,2.087,9.284l-3.206-6.171-1.204,6.355c-.007,1.109.043,2.217.172,3.326.031.264.064.527.095.79-.047-.394.039.268.055.373.069.446.148.891.236,1.334.189.945.423,1.882.705,2.804.142.464.296.924.462,1.379.079.217.161.432.247.646.025.064.051.127.077.19.019.047.048.115.064.152.372.848.79,1.683,1.253,2.486.118.204.24.405.366.603,2.188-.167,4.297-.859,6.133-2.186,1.456-1.051,2.182-2.729,2.502-4.408,2.546.572,5.075.227,7.044-1.364,7.29-5.891,8.837-15.323,5.697-24.064-1.393-3.877-.862-7.71,1.978-10.919l.62.182c6.083,6.603,14.497,11.623,23.367,12.708-1.379-.843-2.713-1.756-3.981-2.766-.527-.42-1.033-.854-1.521-1.304-6.37-1.997-11.859-5.591-14.674-11.478,3.157.513,5.811,1.233,8.474.543,1.237-.32,2.23-.263,3.237-.114.564-.236,1.122-.491,1.683-.784.874-.456,1.712-.969,2.533-1.506-2.696.072-5.328-.206-8.061-1.169l4.061-1.213-6.064.542c3.046-1.348,5.704-2.791,8.039-4.713-.27.033-.541.068-.811.098-1.066.122-2.134.204-3.202.288-3.399,1.98-7.427,3.099-11.375,3.411,1.624-1.861,3.501-2.489,4.186-4.691-2.781,2.143-5.044,4.162-8.747,5.03-.515-2.644.274-5.26.408-7.907.163-3.204.622-5.889,2.24-8.622,2.023-3.418,4.809-5.606,8.827-6.563,1.186-.283,2.427-.114,3.345.756.572-.696,1.408-1.52,2.137-2.049l5.225-3.789.399,5.898.094,1.386c.02.293.829.44,1.227.571,1.269,2.726.533,5.946-.645,8.66-1.051,2.421-2.675,4.439-4.662,6.071.135-.03.271-.056.406-.087,1.174-.264,2.339-.56,3.492-.904.314-.352.623-.713.923-1.094,3.299-4.185,9.331-5.693,14.164-3.478l2.507,1.995-2.651,1.344,5.854-.242-3.206,3.536c-3.661,4.039-8.671,5.908-13.804,6.578-.813.653-1.625,1.327-2.449,1.963-.484.374-.978.745-1.482,1.103.305-.019.619-.046.955-.091l4.702,5.089c3.08,3.333,6.298,5.731,10.288,7.675-3.765.154-7.761-.021-11.644-.655.311.21.622.414.924.605,1.062.673,2.157,1.296,3.272,1.877.428.223.861.436,1.295.648l8.7.587c7.604.513,14.84,2.52,21.387,5.907.473.134.945.273,1.416.411,1.947.57,3.915,1.103,5.811,1.831,1.965.755,3.854,1.689,5.672,2.748,1.295.754,2.545,1.572,3.758,2.446-8.241-7.947-17.807-13.716-29.663-15.626ZM77.949,329.374l-.908.319c-.617.217,1.424-2.622-1.049-7.052-1.664-2.981-2.097-6.623.585-9.147-.785,3.106-.686,5.697.636,8.335,1.186,2.367,1.531,4.816.737,7.544ZM84.015,324.256c.495-2.744.194-4.99-1.237-7.236-1.298-2.038-1.279-4.608.212-6.427-1.284,5.428,4.33,8.819,1.025,13.663ZM59.598,272.126l2.851,4.388c.508.782.863,1.844,1.075,2.938-3.881-2.831-7.842-4.458-12.519-4.014l-2.199-3.246,1.328-1.179c-.652-.956-2.063-2.618-2.059-3.887.004-1.141,1.662-.736,2.344-.41,3.254,1.554,6.667,2.7,9.179,5.41ZM43.007,265.383c-.955-1.432-.958-2.798-.908-4.52l.099-3.377,2.946,2.957.522-2.101c2.384-.571,5.216.265,6.497,2.297l1.476,5.594-3.63-1.165-3.406-1.212c-.433,2.992,1.066,4.354.556,6.115-.081.278-1.128-.051-1.302-.312l-2.85-4.275ZM47.847,271.445l2.18,4.333c-3.913,1.288-5.877.264-9.102-2.043,2.55-.267,3.944-2.124,6.922-2.289ZM77.554,288.697c.317,2.93,2.864,4.132,4.737,6.181-4.006-1.147-7.663-3.323-10.928-6.258-.456-.41-.893-.848-1.312-1.308-.725.129-1.479.168-2.218.166,1.833,2.355,3.882,4.463,6.605,6.234l-5.283-1.469,4.889,3.058c-6.944.749-11.124-1.122-16.874-3.948-5.153-2.532-9.146-6.41-12.096-11.204l5.451,1.129c-.406-1.398-1.126-1.637-2.115-2.226l-.568-.339c-.108-.064-.012-.495.112-.475,2.072.331,3.802-1.501,6.021-1.245,4.363.504,8.582,2.833,11.036,6.512.403.604.805,1.195,1.21,1.776.395.077.79.151,1.186.224.426.078.869.141,1.324.184-3.482-4.79-4.774-11.234-.764-15.77l2.211,1.646-.266-4.071c-.035-.542.395-1.782.63-2.566,1.347,2.094,2.719,4.05,4.586,5.797l1.938.4c4.039,2.252,6.47,6.888,5.528,11.554-1.174,5.812,1.236,9.535,5.216,13.756-4.405-1.251-7.28-4.271-10.257-7.741ZM106.094,270.957l-1.145.87c-.27.205-1.184-.297-1.295-.51.434-3.685,3.207-4.141,2.328-5.589-.174-.287-1.082-.185-1.228.117-.395,1.301-1.335,3.369-2.164,4.551l-.69,1.593-5.299,2.415c.431-2.166-.9-3.19-2.214-4.217l-2.398-1.875c.252-.527.559-2.124.19-2.762-1.366.007-1.959,1.756-1.529,3.048-2.108-.634-4.41-.242-5.407,1.803,2.086.567,2.166,1.968,2.163,4.238l.983-3.847c.213-.834,1.874-1.771,2.425-.448.404.971-.407,3.211-.755,4.2-.078.222.908.539.964.308.289-1.183.924-3.333,2.294-4.118l1.1,1.856c.336.568.717,1.591.776,2.266.058.666-5.557,6.899-6.34,12.853l-.796,6.062c-2.337-2.573-3.521-5.692-3.851-9.113l-.747-7.729c-.204-2.108.338-3.66,1.132-5.812-1.013.725-1.533,1.442-2.418,2.657l-2.018-3.032c-.339-.511.946-1.739,1.424-2.166.348-.311.238-1.475-.102-1.795-.396-.374-1.733-.308-2.192.093-.409.357-.33,1.379-.145,2.001l.468,1.573-3.574-1.83c-1.429-.731-2.164-2.762-3.055-4.368,1.073-.743,2.617-1.541,3.795-1.744,1.249,1.07,1.767,2.056,2.927,3.548l-.593-4.079c.735-1.675,3.947-2.667,5.205-.74.938,1.437.879,3.94,1.087,5.711.18.052,1.014-.06.998-.292l-.097-1.432c-.089-1.305-.107-3.001.752-4.215.947-1.338,5.101-1.661,6.342-.326,1.882,2.024-.378,4.361.687,5.888.877-1.897,1.05-3.705,2.365-4.823,1.748-1.488,4.567-1.145,5.747.794l-1.883,4.592c1.711-.456,1.943-3.384,4.04-3.562,1.107-.094,2.161.525,3.223,1.076,1.247.648,2.707,1.226,3.181,2.775l-4.66,3.54ZM131.734,271.66c1.039-1.612,6.489-2.686,8.203.566l3.627-.124c-.992,1.651-1.626,2.684-1.906,4.161-.435,2.293-4.768,6.515-7.207,5.511,1.503-2.189,1.94-3.989,1.654-5.925-1.787.861-2.863-1.461-6.815-.398l2.444-3.791ZM130.081,284.97c-4.294-2.528-9.144-1.674-13.933.155,3.615-5.644,9.853-9.082,16.295-8.281l2.527,1.192-.668,2.755-3.186,4.17,3.881-1.993,4.015,2.131c-2.822,1.934-6.062,1.56-8.932-.13Z"/>
        <path d="M106.836,67.988c-3.791-1.175-7.455.601-10.103,3.476-2.762,2.998-3.996,6.62-3.168,10.785-3.938-.402-6.772,1.468-9.189,4.032-4.631,4.913-5.956,11.765-3.465,17.788.061.057.106.138.117.246.001.012.003.024.004.036.344.791.752,1.568,1.231,2.323-.271.035-.535.08-.795.134.341,1.331.841,2.614,1.478,3.858l2.672-.349c6.334,4.317,12.569,8.693,20.214,11.115l-10.832-7.511c-7.586-5.26-13.513-15.861-7.23-23.878,1.802-2.3,5.353-3.786,7.914-2.563,2.703,4.755,5.265,9.332,9.228,13.19-3.643-6.07-5.825-12.248-6.586-19.158-.36-3.27-.2-6.192,1.172-9.18,1.349-2.937,3.878-4.455,7.338-4.342Z"/>
        <path d="M77.783,131.809c-3.962,3.857-3.043,10.414.097,14.269.161.041.321.082.482.121.401.098.803.177,1.209.249.019.003.029.006.039.008.009,0,.015,0,.029,0,.095,0,.188.007.283.005.391-.01.783-.047,1.168-.115.762-.136,1.493-.351,2.197-.631-.625-.558-1.192-1.199-1.676-1.949-1.964-3.047-2.185-6.565-.274-9.682,2.067-3.373,7.008.784,10.876-.064-3.509-1.566-6.879-2.207-9.888-3.938-3.426-1.97-5.574-5.541-5.857-9.01-.271-3.335.941-6.118,2.971-8.476-.067-.164-.134-.328-.197-.493-.515-1.354-.793-2.742-.899-4.145-.745.422-1.444.937-2.106,1.548-4.874,4.502-6.281,11.574-3.1,17.467,1.109,2.055,2.825,3.608,4.644,4.837Z"/>
        <path d="M87.363,222.318c-.336-2.287-.618-4.575-1.246-6.806-.31-1.102-.697-2.179-1.169-3.222-.139-.308-.306-.6-.462-.894-.682,3.323-.704,6.17-1.021,9.349l-.507,5.09-.853-3.726c-.853-3.727-.167-7.434.065-11.366-1.951,1.602-3.284,3.548-4.44,5.832.285-3.217,2.368-5.55,4.691-7.6l3.309-11.554c-1.376.698-2.619,1.336-3.748,1.997-.911.693-1.796,1.42-2.656,2.182-.94.832-1.879,1.678-2.773,2.565-.755,1.072-1.433,2.33-2.05,3.86-.027-.62.026-1.212.142-1.782-.49.599-.951,1.223-1.365,1.882-1.556,2.473-2.518,5.192-2.984,8.09-.01.059-.018.123-.027.184.085.149.163.303.252.449.617,1.01.938,1.683,1.404,2.853,1.252,3.14,3.519,5.817,5.495,8.56l5.957,8.267c1.856,2.576.946-1.627,4.929-6.802-.22-2.474-.579-4.94-.942-7.407Z"/>
        <path d="M107.171,179.971c2.312,2.534,4.539,4.3,7.136,5.037.012-.225.03-.448.037-.674.034-1.045.031-2.093-.025-3.137-.016-.288-.035-.575-.059-.863-1.979-.651-3.696-2.095-4.91-3.92-1.169-1.757-2.118-4.619-.451-6.267.987-.976,2.339-1.802,1.921-3.421-4.297,3.375-10.032,3.458-13.942.065-1.267-1.1-2.056-2.59-2.02-4.358-3.181-.53-5.496-2.932-6.174-6.298-.345-1.712-.301-4.592,1.608-5.288,3.657-1.333,7.547-.674,11.104-2.958l-5.686.642c-3.735.422-7.605.147-10.608-1.521-1.068.509-2.206.887-3.376,1.044-.056.564-.092,1.108.055,1.403.219.44,1.249.921,1.735,1.075l1.124.356c.192.061-.235.743-.436.775l-.865.136-3.955-.323c-.276.245-.535.515-.775.8-.394.468-.708.994-.972,1.548,1.992-.858,4.41-.851,6.054.258.052,5.163,3.418,9.744,8.791,10.226-.14,3.651,1.791,6.507,4.97,8.046,2.34,1.133,5.144,1.14,7.746.865-.151,1.833.293,3.612,1.15,4.902l-5.082,1.627c-1.788.572-4.008-.795-5.867-1.237-10.984-2.612-22.269,4.03-25.709,14.68-.561,1.735-.309,3.63.047,5.106-2.275,4.185-2.476,9.76-1.012,14.498.78-2.437,1.935-4.747,3.509-6.801,1.957-2.554,4.507-4.695,7.038-6.663,1.884-1.465,4.104-2.922,6.49-3.514.228-.126.453-.253.672-.384,1.874-3.049,3.588-5.875,6.105-8.984l-6.147.928c-3.915.591-6.761,3.099-9.967,5.475,2.463-4.222,6.929-6.731,11.757-7.141l5.541-.471c2.857-2.207,5.848-3.947,9.297-4.56-1.265,1.23-2.742,2.113-3.487,3.313-1.649,2.655-.955,5.732.513,8.283,2.211,3.842,3.934,8.425,1.674,12.684.365-4.095-.29-7.766-2.502-11.121-1.669-2.531-2.623-5.183-2.047-8.371-6.239,5.853-6.999,8.319-3.898,15.869,1.745,4.249,3.102,9.06.367,13.28.418-4.175.523-7.869-1.515-11.374-1.384-2.38-1.933-4.91-2.358-7.968-2.407,4.068-3.867,8.534-4.815,13.078l2.895,6.482c.481,1.077.763,2.342.515,3.546.368,1.494.653,3.008.969,4.515.324,1.547.64,3.097.919,4.653.133-.13.264-.259.404-.389l4.49-4.156c.269-.249.345-1.414.654-1.394l1.446.096c5.051-3.825,9.002-9.485,9.405-15.866.082-1.295.1-1.931.502-2.995,2.219-5.873.292-11.99-2.834-16.921-1.507-2.376.47-5.762,2.857-5.954Z"/>
        <path d="M125.452,176.115l-1.145,2.565c-.456,1.022-1.645,2.187-2.815,2.055-1.16-.131-2.071-1.16-2.783-2.455l-1.318,2.384c-.546.063-1.082.057-1.607,0,.244,1.55.373,3.117.399,4.686,1.487.13,3.109-.046,4.934-.574l1.342,1.396c.306.318,1.668-.016,1.91-.269l-.446-4.177,1.514-1.992.015-3.618Z"/>
        <path d="M73.105,151.511c-8.401-3.914-17.847-3.485-26.022.715-2.612,1.342-4.868,2.535-7.133,4.39-2.25,1.844-4.489,3.492-6.412,5.87-4.933,6.102-7.885,13.413-8.81,21.299l-.593,9.792c3.904-1.412,7.291-1.974,11.122-2.272,5.692-.444,13.15-2.207,16.55-6.322.727.009,1.47-.046,2.212-.179.153-1.248.382-2.483.699-3.682.393-1.483.914-2.932,1.645-4.283.734-1.354,1.64-2.582,2.517-3.843.926-1.333,1.679-2.733,2.19-4.276.568-1.716.902-3.494,1.341-5.245.068-.272.14-.546.213-.821.338-2.375,1.54-4.468,2.908-6.589-9.846,4.269-11.686,6.027-13.391,15.799-.685,3.928-2.187,7.719-5.484,9.754,2.515-3.317,4.071-6.301,4.323-10.197.171-2.651,1.015-5.09,1.803-7.812-3.034,2.434-6.001,4.732-8.363,7.819-1.53,1.999-1.213,8.87-4.443,12.043l1.888-6.934.758-3.846-12.609,13.838c2.949-6.305,7.746-11.123,12.481-16.626-3.049.327-5.799,1.949-8.862,3.437,2.708-2.946,6.502-4.112,10.251-5.143l9.901-8.427c-4.32.041-8.781.385-12.457,2.84-1.13.755-2.145,1.726-3.373,1.82,3.847-4.997,11.935-6.027,18.047-5.861,5.887-3.289,12.107-5.505,18.689-5.447-2.252.879-4.648,1.036-6.47,2.279-.594.405-1.118.867-1.582,1.374-.133.281-.273.561-.433.837-.412.708-.846,1.42-1.161,2.178-.718,1.73-.959,3.7-1.22,5.541-.251,1.774-.49,3.56-1.053,5.268-.495,1.502-1.232,2.909-2.005,4.283-.726,1.29-1.546,2.532-2.168,3.879,0,0-.081.181-.109.242-.022.055-.072.175-.078.19-.066.169-.129.339-.188.51-.113.327-.207.659-.303.991-.178.615-.329,1.239-.456,1.866-.069.341-.135.682-.196,1.024,6.202-3.693,11.093-9.192,14.229-15.691,1.599-3.314,2.08-6.522,2.709-10.104.174-.99.651-1.84,1.316-2.531.199-.586.431-1.161.711-1.721.384-.769.897-1.533,1.531-2.138l-4.659.112Z"/>
        <path d="M170.23,231.948c-4.034-.299-7.436-1.34-8.81-4.978l-1.248-3.306c2.357-.418,4.752-1.962,5.815-3.688,1.435-2.329,1.598-4.76.79-7.221-1.285-3.912-5.9-6.075-9.578-3.728,1.889.033,3.498,1.126,3.571,3.31l-2.916-.625c-.536-.115-2.03-.14-2.142.397l-.514,2.458c-1.483-3-5.345-4.245-8.469-2.232-5.519-.675-10.049-4.601-11.657-9.996-.781-2.234-1.177-4.888-.667-7.022,1.409-.441,2.748-1.049,3.949-1.79,2.05,3.671,5.79,6.51,10.306,5.823l-4.014-3.891c-3.488-3.381-5.178-8.22-5.674-13.011l-1.034-9.993c-1.222,5.329-.657,10.441-.594,15.808-3.254,3.761-8.475,2.535-11.968-1.392l-2.87.892c1.291,3.799,4.745,6.286,8.839,7.337-6.647,10.272-5.56,23.532,2.651,32.422,1.597,1.729,3.672,3.375,5.93,4.577-.778-1.966-1.398-3.974-1.949-6.027-.512-1.906-1.069-3.814-1.383-5.765-.067-.419-.136-.848-.186-1.28-2.594-3.045-4.278-6.799-5.213-10.918-.792-3.488-.493-7.128,1.219-10.472-1.124,9.886,3.515,18.682,12.246,22.615.608-1.295,2.619-1.563,3.189-.586.679,1.163.463,2.4.081,3.546-.198.751.729,2.018,1.529,3.265-1.964,1.006-3.543-.769-4.79-1.96-.618-.149-1.745-.407-2.309-.707-1.509-.803-2.855-1.755-4.054-2.831.032.101.064.202.096.303.523,1.632,1.164,3.22,1.727,4.837.901,2.59,2.03,5.084,3.43,7.443,2.299.621,4.626.647,6.707-.262,3.372,6.451,10.531,9.34,17.701,9.344,6.964.004,13.769,2.697,14.908,9.515.354,2.117-.822,3.93-1.783,5.773,3.161-1.34,4.58-4.531,4.869-7.795.825-9.316-6.391-17.496-15.733-18.187Z"/>
        <path d="M168.329,123.769c-.307.264-.616.522-.736.4l-.744-.759c-1.597-3.749.435-8.537,4.419-9.841,1.44-.38,2.279-.896,3.635-1.891l1.086,3.515c-2.864.803-5.354,1.901-7.459,3.956-1.31,1.279-1.407,3.028-.203,4.62Z"/>
        <path d="M138.361,114.037c-2.107-1.635-3.117-3.917-3.988-6.215-2.284-6.024-2.982-12.236-2.828-18.679.044-1.836-.034-3.471,1.451-4.758l-.122,7.081c-.138,8.013,1.814,15.45,5.487,22.571Z"/>
        <path d="M131.019,155.481c-1.935,2.822-6.572,7.194-8.258,7.017-.269-.028-.663-.793-.671-1.075l3.613-2.385c2.873-2.663,5.243-5.218,8.601-7.291l-3.285,3.735Z"/>
        <path d="M140.271,165.415c.295.872-.279,1.529-1.206,1.29.788-5.554,2.399-10.925,5.499-15.732l-4.292,14.443Z"/>
        <path d="M154.034,173.186c1.484-.169,2.291.352,2.674,1.342.409,1.057-.97,2.506-1.958,2.184-1.976-3.736-3.757-7.708-4.322-11.847l3.606,8.321Z"/>
        <path d="M287.89,96.976l-4.576-1.568c-4.954-2.548-10.215-3.709-15.906-3.842l-.952-.674c-.214-.152.604-.738.821-.828,4.21-.369,8.228.465,12.169,1.966,3.087,1.06,5.943,2.393,8.444,4.946Z"/>
        <path d="M305.664,84.433c-.108.546-.5,1.273-.799,1.529-.358.306-1.862.25-1.964-.216-.153-.7.703-2.047,1.291-2.194l.868-.216c.225-.056.66.815.604,1.096Z"/>
        <path d="M87.103,290.396c-1.378-3.009-1.056-6.717.422-9.834.202,3.364.283,6.308-.422,9.834Z"/>
        <path d="M101.109,268.304l-3.242,3.012c-.064-.978-.228-2.272-.192-2.994.02-.404.933-1.082,1.326-1.055.553.038,1.243.383,2.108,1.038Z"/>
        <path d="M221.146,209.254c-.161-.584-.534-1.041-1.021-1.352-.054.041-.114.073-.178.101-.001,0-.002.001-.003.002.031-.013.061-.026.092-.039-.079.033-.149.084-.217.135.042-.032.083-.064.125-.097,0,0-.001,0-.002,0-.116.089-.234.174-.351.26-.111.091-.218.187-.337.268-.004.002-.007.005-.011.008.194.136.338.288.364.421.095.474-.224,1.348-.618,1.629-.338.241-1.347.018-1.606-.309-.187-.235-.13-.768.056-1.247-.034-.12-.049-.245-.032-.371.024-.179.103-.347.186-.506.137-.263.325-.497.543-.697-.23.024-.46.07-.686.144-1.576.515-2.276,1.812-1.87,3.367.315,1.206,1.63,1.923,3.104,1.788,1.841-.168,2.903-1.902,2.46-3.508Z"/>
      </g>
    </g>
  </g>
</svg>