<?xml version="1.0" encoding="UTF-8"?>
<svg id="b" data-name="Layer 2" xmlns="http://www.w3.org/2000/svg" width="422.736" height="474.316" viewBox="0 0 422.736 474.316">
  <g id="c" data-name="Layer 1">
    <g>
      <path d="M421.721,310.834c-.531-.412-1.901-.572-2.527-.297l-3.835,1.69,1.438-5.258c1.427-8.487.321-16.797-.958-23.82l1.133-4.505,4.236-15.997c.231-.875-.055-1.586-.808-2.003-2.924-1.624-12.933,1.589-18.008,6.445l-1.637-4.741c-.071-.207-.29-.558-.958-.584-.725-.034-1.972.356-2.266,1.028l-3.244,7.424c-2.106-8.843.135-19.44,5.77-26.817.397-.522.558-1.883.37-2.447-.231-.697-1.585-1.336-2.304-1.226l-3.39.52c9.882-12.417,6.979-27.691,3.125-42.304l-.071-.281c-.364-1.452-.764-2.771-1.646-2.953-1.32-.271-2.561.208-3.749.899,3.905-12.837-.325-27.877-11.001-38.703-.819-.83-2.547-1.217-3.428-.765-1.055.541-1.147,1.74-1.275,3.398-.194,2.51-.519,6.711-4.351,12.541-3.48,5.295-4.461,9.673-3.086,13.777.504,1.505.99,2.956,1.012,4.372-.925-3.381-2.657-6.666-4.2-7.712-.506-.342-.994-.458-1.45-.35-.899.214-1.357.987-1.936,1.965-.808,1.364-2.027,3.425-5.327,5.5l-6.08,3.823c11.623-13.234,17.428-30.093,16.377-47.692-.064-1.106-.221-2.164-.922-2.414l-1.099-.392c6.923-12.541.392-27.666-8.733-36.523-.546-.528-2.146-.751-2.758-.238-.877.735-1.165,2.274-1.563,4.404-.56,2.985-1.303,6.958-4.109,10.379,3.432-25.557-8.037-51.067-29.511-65.351l-5.913-4.213c-.71-.505-2.208-.873-3.218-.591-.646.18-.934.566-1.061.857l-1.168,2.691c-.395-12.508-8.383-17.532-17.546-23.294l-8.487-5.354-.277-.179c-.946-.617-2.533-1.648-3.643-.299-2.393,2.905-2.696,6.552-2.58,9.38-1.667-1.573-2.63-3.994-2.4-6.226.624-6.069-.805-11.31-4.244-15.578-8.866-10.998-22.279-13.957-26.984-12.459-1.329.423-1.646,1.13-1.679,1.649-.054.861.529,1.769,1.336,3.026,1.652,2.576,4.15,6.47,3.567,13.417-.271,3.229-1.2,6.447-2.183,9.854-1.773,6.147-3.784,13.115-2.294,21.905.476,2.806,1.453,5.222,2.488,7.779.149.369.301.742.452,1.121l-1.206-.897c-.547-.407-2.011-.936-2.739-.458-.539.355-1.174,1.467-1.272,2.069-2.827,17.201,7.723,36.754,24.018,44.515,8.035,3.827,17.569,4.526,24.293,1.782,4.162-1.699,7.223-4.673,8.896-8.63,5.094,5.869,7.936,13.148,8.261,21.158-3.991-2.815-8.59-4.498-14.745-5.414l-6.328-.942c-.78-.116-2.548.38-3.035,1.117-.419.633-.708,2.128-.447,2.971l2.099,6.791,2.839,5.313.907,4.064c.565,2.527-.33,4.771-1.883,7.323l-1.355-.639c-.688-.326-1.71.678-1.906.884-1.253,1.31-2.991,1.471-5.192,1.676-1.714.159-3.631.338-5.705,1.105.769-10.421-8.45-17.776-13.732-19.442-2.299-.726-3.967-.485-4.577.662-.45.847-.156,1.92.216,3.28.556,2.033,1.317,4.817.248,8.635-.654,2.336-1.902,5.697-4.129,8.439l-7.485,9.219c-9.023,11.114-11.573,23.28-6.995,33.38.59,1.302.764,2.805.521,4.197-1.381-4.596-4.438-8.793-6.835-9.107-.848-.112-1.538.285-1.947,1.117l-3.491,7.103c-10.52,18.232-13.377,39.365-8.263,61.116,4.689,19.944,15.85,38.762,31.474,53.102-7.634,1.151-25.914,1.935-50.173-10.104l-21.989-10.913c-13.803-6.85-26.625-10.157-38.165-9.833l-.213-.385c-.853-1.537-1.818-3.279-2.134-4.729l-1.707-7.863-.107-9.536-.144-.144c-.629-.63-.939-1.365-.9-2.123.041-.787.463-1.545,1.188-2.134l.112-.091,3.483-10.376c.415-1.233.814-2.011,1.368-3.087l5.54-10.861c.217-.426.402-.817.579-1.192.416-.88.774-1.64,1.407-2.535,2.957-4.188,5.095-9.258,6.182-14.668,1.77-3.364,3.044-6.928,3.902-10.934l.924-7.443c2.135-6.61,2.775-13.409,1.86-19.704,7.918-.361,13.914-8.927,14.946-13.584.382-1.725-.104-2.347-.58-2.565-1.108-.509-2.501-.094-3.976.347-1.394.415-2.836.845-4.112.551l-6.027-1.387c1.062-1.206,1.604-2.116,2.02-3.366,9.731,1.355,20.254-5.265,25.73-12.616l.075-.148c.441-1.402.865-2.067,1.971-3.091,4.422-4.096,7.625-10.149,8.787-16.608.035-.197.064-.381.093-.556.105-.664.182-1.143.475-1.616,2.763-4.089,4.439-8.641,5.277-14.322l.043-.292-.236-.179c-.265-.201-1.628-1.181-2.437-.64l-1.36.913c-6.867,4.61-17.363,5.286-24.21,3.963l-6.461-1.249c-1.468-.284-1.981-.404-3-1.041-3.349-2.093-7.604-2.442-11.369-2.481-.648-.896-1.74-1.614-2.886-1.34-4.525,1.088-11.007,1.067-12.266-.589l-.13-.171-.214-.024c-5.397-.597-9.942-.513-13.891.256-1.179.229-2.077.265-3.214.31l-.436.018c-9.039.379-18.769,5.039-24.282,11.616l-7.21,1.024c-1.312.186-2.801-.235-4.449-1.248l-.126-.078-3.664.09c-4.554-3.008-9.438-3.438-13.629-3.45-1.175-.304-2.024-1.185-2.775-1.964-.831-.861-1.614-1.675-2.66-1.422-.503.122-1.339.809-1.62,1.252l-2.481,3.919-3.753,4.192c-1.39-.636-3.237-.931-5.065-.803-6.16-6.868-11.719-9.498-21.135-10.024-9.382-.525-16.168-3.763-20.169-9.624-.275-.403-1.073-.805-1.575-.881-.298-.045-.542.004-.725.149-.348.276-.914,1.069-1.056,1.566-1.817,6.417-.755,14.005,2.843,20.299,3.148,5.509,7.841,9.318,13.21,10.724,5.227,1.368,8.515,7.071,11.693,12.585,1.751,3.037,3.555,6.166,5.695,8.615-11.776.591-16.21,10.487-16.414,15.076-.104,2.325.829,2.66,1.235,2.696l1.707.152.131-.069c5.196-2.748,11.305-3.495,18.157-2.221,11,2.147,18.697,7.535,27.551,15.532,4.662,4.21,9.59,7.49,15.055,10.016-1.187,14.497-9.459,24.12-18.212,34.302l-11.938,13.889-.44-.786c-.113-.202-.412-.525-1.119-.424-2.952.419-12.918,8.326-14.81,15.009-.006,0-.013,0-.019,0-2.751,0-4.547,4.068-6.069,8.572-6.971,2.63-10.479,10.029-8.417,17.754-2.327,3.267-4.895,10.43-4.216,11.854.272.57,1.062.881,1.946,1.177-2.417,5.197-1.896,9.338-1.345,13.714.292,2.314.593,4.708.466,7.368-.027.544.23,2.593,1.301,2.682.678.056,1.78-.308,2.361-.675l-.005,6.555c1.321,19.349,9.357,36.969,23.24,50.955,16.2,16.319,39.135,30.149,62.949,37.965l3.166,5.569-.061,3.016c-5.193,7.65-12.105,13.523-19.999,16.99-5.521,2.425-11.043,2.188-16.386,1.961-6.511-.277-12.661-.54-18.391,3.804-2.591.29-4.451,1.48-5.401,3.453-5.945,2.766-8.442,9.734-5.683,15.956.275.621,1.097,1.544,1.808,1.637.846.109,1.558-.669,2.371-1.573,1.398-1.55,2.976-3.301,5.694-1.91.167,3.007,1.239,5.561,2.594,6.131.521.22,1.061.126,1.48-.256l1.344-1.222.082-.097c.852-1.309,2.103-2.167,3.431-2.354,1.21-.17,2.383.202,3.389,1.075l.183.101c4.745,1.439,9.898.958,14.939-1.406,4.629-2.627,9.779-3.194,14.898-1.64l2.868.261c1.651,1.382,3.179,2.305,5.049,3.032-5.224,3.333-7.228,10.144-4.539,15.999l.128.17c1.538,1.323,2.657.25,3.844-.882,1.205-1.149,2.701-2.576,5.36-2.837l3.771,1.72c.004,2.841,1.239,4.859,2.507,5.409.217.094.432.14.634.14.308,0,.586-.107.796-.317l1.084-1.084c3.337-3.338,5.178-2.622,7.131-1.863,1.442.562,2.936,1.142,4.876.069,7.516,2.47,15.339,1.933,22.635-1.556,3.923-1.876,8.98-3.751,13.31-1.588,8.188,4.09,16.422,3.663,22.658-1.155,3.937,2.778,9.143,2.578,13.113-.532,3.625-.885,6.694.448,8.23,3.576l.116.235.259.039c1.138.172,2.618-.29,3.003-1.251,1.905-4.757,1.211-9.582-1.955-13.586-1.028-1.299-2.593-1.915-3.974-2.457-.723-.284-1.405-.553-1.912-.857-.34-.267-.674-.548-1.009-.831-1.66-1.398-3.388-2.854-5.884-2.775-1.371.03-2.536-.376-3.173-.666.175-.145.388-.316.598-.484,2.572-2.063,8.595-6.896,10.271-14.009l.032-.136c.373-1.583.498-2.117,1.708-3.169.882-.768,1.696-1.958,2.466-3.148l3.391,4.024c4.596,4.185,10.493,6.859,18.03,8.175.944.166,2.557-.079,3.219-.64.636-.536,1.497-2.273,1.293-3.177l-1.874-8.305,6.591,4.751c5.472,15.869,22.741,23.305,37.472,23.634,4.501.101,8.212.653,11.342,1.69.632.209,1.984.051,2.499-.4.443-.389,1.016-1.763.799-2.428l-1.717-5.273c11.552,4.269,24.372,4.436,38.11.498,5.489-1.573,10.101-2.792,15.203-2.979l7.168.9c1.814.225,2.399-.686,2.594-1.25.93-2.694-3.14-8.796-7.98-12.359,12.01.402,23.688-3.688,33.858-11.901,6.482-5.235,11.85-12.065,16.893-21.493,1.769-3.306,3.755-6.772,6.855-9.621.533-.49,1.294-1.529,1.316-2.302.017-.596-.242-1.147-.75-1.593-2.07-1.822-8.254-1.919-12.676-1.396,12.948-9.949,21.577-25.088,23.728-41.689.187-1.442.229-2.65-.914-3.598,1.407-1.508,4.042-6.187,5.212-10.216,1.369-4.717,3.482-17.212,1.191-18.989ZM395.338,288.94c8.002,29.611-1.397,60.898-23.949,79.929-.637-1.778-1.244-3.211-2.247-4.992,8.191-7.604,6.787-20.427,1.938-29.321,7.612-19.441,4.901-40.18-7.094-54.176-10.047-11.72-25.066-17.112-40.177-14.423-9.798,1.744-18.15,6.844-24.219,14.772-.888-2.961-2.728-6.259-4.796-7.258-.748-.361-1.49-.387-2.143-.074-1.043.497-1.719,1.847-1.847,2.923-.492,4.114-2.209,7.7-3.954,10.728-.549-1.429-1.169-2.646-1.772-3.829-.496-.972-1.009-1.978-1.467-3.077l-2.349-5.632c1.896-5.238,4.58-9.607,8.433-13.733,10.868-11.639,26.587-18.441,43.127-18.663.286-.004.572-.006.858-.006,24.907,0,47.57,14.587,57.894,37.329l3.763,9.503ZM211.542,367.705l.157-.494,4.372-2.516,11.323.583.125-.989-8.66-1.759,2.786-2.712c12.331,2.489,23.553,2.763,34.226.831-4.457,3.574-9.779,6.044-16.973,7.911l-.167.043c-5.286,1.372-10.755,2.791-16.259,2.021l-10.931-2.918ZM217.72,371.307c-4.003.36-8.267.088-13.655-.862l5.683-2.256c.09.017.216.052.348.087.395.103.8.208,1.067.089l.512.376c1.563,1.148,3.201,1.664,4.935,2.211.365.115.734.231,1.111.355ZM223.974,357.197l1.33-2.29,7.195-3.882c7.845.688,14.491.78,21.382-.978l2.742-.699-2.816-.283c-1.223-.122-2.565-.015-4.067.125-4.516.426-8.736-.008-13.937-.877l3.121-3.171c10.202.936,19.585.448,28.735-1.506l12.2-4.37c-2.562,4.232-5.731,7.463-8.542,10.094-10.907,10.211-31.502,11.294-47.344,7.837ZM265.64,332.284c-6.727,1.01-11.689,1.285-16.853.918l1.594-2.372c.359.004.714.006,1.069.006,16.541,0,30.404-4.778,41.241-14.211-.336,2.37-1.307,4.441-2.348,6.662-3.337,7.124-8.578,12.164-15.575,14.98-10.192,4.102-21.709,5.539-33.357,4.169l2.887-4.942c.534-.511,1.912-1.463,2.619-1.768,6.064.116,12.57-.109,18.971-2.48l4.544-1.684-4.792.721ZM254.019,319.966l1.492-1.058c14.063-1.268,26.982-7.871,36.402-18.618l5.355-6.595c.405,6.922-1.216,13.048-4.811,18.204-8.154,10.269-23.942,16.592-40.353,16.225,2.161-3.807,2.164-6.903,1.913-8.158ZM267.475,168.458c-4.293,2.064-7.167,5.985-8.129,11.093l-4.502,2.511c.138-4.519,1.666-8.899,4.438-12.705,2.586-3.301,5.91-5.5,9.898-6.551-1.259,1.685-1.796,3.485-1.706,5.652ZM271.592,176.145l-8.387,1.877c1.339-2.894,2.991-4.913,4.924-6.016.889,1.68,1.946,2.949,3.463,4.139ZM269.176,179.75c12.986-2.852,26.372,1.717,34.104,11.639,6.855,8.798,8.396,20.513,4.022,30.574-3.305,7.604-9.513,13.17-17.032,15.269-8.376,2.34-16.925.064-22.307-5.938-3.303-3.683-4.938-8.365-4.606-13.184.317-4.61,2.434-8.792,5.958-11.774,3.084-2.61,7.067-3.758,10.947-3.152,3.562.558,6.557,2.518,8.43,5.519,2.808,4.5,1.971,9.761-2.034,12.795-2.299,1.742-5.161,1.878-7.657.363-1.165-.707-1.931-1.721-2.215-2.932-.326-1.388.011-2.968.949-4.449l.748-1.184-1.328.441c-3.23,1.072-2.924,4.52-2.823,5.653.133,1.493,1.284,3.697,3.157,4.843,4.709,2.881,10.92,1.552,14.141-3.026,4.554-6.47,3.451-15.17-2.623-20.688-3.849-3.496-8.982-5.1-14.853-4.639-7.423.585-14.321,4.479-19.95,11.263-4.978,5.999-8.568,13.773-10.111,21.891-1.918,10.084-.915,20.921,2.979,32.21.574,1.664.686,3.572.804,5.591.246,4.218.525,8.998,5.323,12.64l.562.426.217-.67c.35-1.082-.147-2.263-.628-3.405-.11-.262-.221-.523-.319-.781-1.463-3.841-.295-8.198,2.971-11.302,2.561,9.73,6.263,17.114,11.616,23.188l1.493,1.694-.639-2.167c-2.374-8.053-2.302-19.136,5.435-24.527.007,3.527,1.102,6.998,3.482,11.106l3.167,5.467c.789,1.362,1.846,3.607,2.248,5.007l1.853,6.457c-3.693,5.563-9.921,10.125-18.521,13.566l.402-3.227c.063-.502-.172-1.58-.434-1.988-.292-.457-1.193-.795-1.9-.795-.226,0-.432.034-.591.11l-3.081,1.461c-14.053-12.297-23.951-28.118-28.635-45.771-5.644-21.276-.725-43.529,13.158-59.528,6.137-7.073,14.478-11.931,24.122-14.048ZM318.874,231.166l-1.737-2.837c2.792-1.699,5.137-3.881,7.408-5.995l7.678-7.142c.606-.565,1.02-1.504,1.026-2.339.006-.625-.208-1.164-.617-1.557-1.043-1.004-2.364-1.566-3.708-2.034,5.095-1.921,9.297-4.164,13.159-7.039-4.032,6.31-5.509,12.383-4.511,18.484,1.272,7.785,6.362,13.757,13.283,15.585,5.77,1.523,11.45-.072,15.431-4.269.297,4.52-1.287,8.648-4.623,12.016-13.052-5.917-27.972-7.43-43.178-4.377l-.654.13c-1.319.259-2.361.464-3.586.917-5.785,2.143-11.928,4.697-17.65,8.847-7.852,5.694-13.419,12.314-16.993,20.213-2.235-3.43-2.252-6.385-2.265-8.582-.008-1.485-.015-2.658-.781-3.352-.424-.383-1.03-.568-1.88-.568-.014,0-.027,0-.041,0,.679-3.23,2.946-6.259,6.911-9.24.718-.54,1.094-1.599.937-2.634-.146-.959-.724-1.687-1.588-1.997l-4.188-1.5c1.498-.243,2.996-.136,4.664-.017,8.617.614,16.676-2.195,22.076-7.711l.181-.185c1.137-1.165,2.312-2.368,3.663-2.754l7.54-2.156c.709.39,1.306,2.096,1.43,3.58l.152.358.316.052c.541.087,1.756-.62,2.092-1.119.25-.372.12-.668.053-.779ZM252.032,249.942l-2.972,7.482c-4.135-13.565-3.775-25.598,1.109-37.756,4.963-12.353,14.132-20.142,24.526-20.834.454-.03.904-.045,1.35-.045,3.292,0,6.315.819,8.733,2.321-5.244-2.358-10.8-2.093-15.758.871-5.166,3.088-8.54,8.548-9.275,14.995-6.548,7.917-9.001,18.4-7.714,32.966ZM259.331,244.813c.529-.665-.027-1.978-.53-2.437-.38-.348-.784-.278-1.016-.057l-2.229,2.131c-.433-7.771,1.071-14.903,4.375-20.771,1.628,7.229,6.13,12.693,13.103,15.896-.841.621-1.902,1.282-2.683,1.577l-2.012.763c-.247.094-.434.305-.553.625-.224.6-.199,1.568.05,2.031l.214.395,3.441-1.406,7.009,2.171c-4.036,3.257-7.57,7.256-7.469,13.826-5.097,3.026-6.239,8.191-7.302,14.203-2.26-4.118-3.724-8.838-4.355-14.049l-.035-.292-.271-.111c-.229-.093-.471-.135-.72-.135-.899,0-1.877.547-2.521,1.177-2.597,2.541-4.242,4.937-5.284,7.751-1.033-7.136,4.279-17.629,8.787-23.29ZM263.792,308.397c15.882-4.539,26.977-15.477,30.626-30.136,4.653,7.408,2.181,13.155-3.079,19.365l-.607-.467c-.144-.11-.322-.153-.498-.125-.393.064-.676.446-1.033.979l-.074.111c-5.722,8.396-16.762,14.709-29.709,17.039,1.915-2.305,3.262-4.394,4.375-6.768ZM329.111,346.467c1.426,1.331,1.413,3.004-.043,5.427-1.862,3.099-4.765,4.134-8.181,2.914l-1.739-.056c-.03-.327.104-.969.219-1.087,1.056-.396,3.222-1.472,4.377-2.381l1.84-1.446-6.799,1.701-1.135-2.183,4.036-4.431-1.155.018c-1.549.024-2.565.716-3.445,1.671l.198-1.185-.923.542c-.453.267-1.506.892-1.812.755-.344-.156-.534-.999-.431-1.537,1.027-5.392,5.481-5.516,8.045-5.11,2.488.393,5.419-.893,7.781-1.925l.11-.048c.499,3.057.156,5.599-1.041,7.754l-.189.342.286.267ZM317.515,371.589l1.321,1.588c-1.288.277-2.948.06-4.22-.59-.738-.378-1.678-1.074-1.958-2.25l-1.207-5.069,1.18-.419c.115.105.303.344.447.526.727.92,1.925,2.459,4.104,2.278l.975-.083-3.436-3.998,2.207-1.872c.279-.152,1.67.344,2.301.764l.237.157,3.265-1.57-4.511-1.573.609-1.384c.097-.223.675-.525,1.904-.441,1.775.119,5.284,1.237,6.669,4.561-1.499-.244-2.612-.347-3.84.032l-1.323.408,4.068,1.69c.195,2.778.522,4.737,1.313,7.811l-5.189-.371c-.164-.012-.39-.012-.646-.011-.435,0-1.44.004-1.624-.142l-1.847-2.833-.424.3c-.363.257-.551,1.123-.588,1.406-.062.476.009.84.21,1.083ZM311.787,356.778c-2.016,2.004-3.855,3.267-6.184,2.932-1.894-.271-4.024-2.012-4.177-4.17-.211-2.974,1.958-4.744,6.631-5.411l1.302-.186-1.096-.726c-1.374-.91-3.058-1.067-4.744-.444-1.994.737-3.634,2.443-4.175,4.347-1.101,3.869.929,7.429,5.051,8.859l1.349.468c.035.244-.036.759-.098.866-.647.454-2.68.121-4.664-1.095-1.531-.938-5.021-3.639-4.357-8.448.322-2.325,2.127-4.226,5.519-5.81,1.455-.68,3.057-1,4.635-1,3.34,0,6.576,1.436,8.104,3.937,1.498,2.452,1.752,5.03.717,7.259-1.466,3.154-5.258,5.096-6.799,5.058-.232-.006-.403-.059-.435-.137l-.405-.996c3.617-.883,4.549-3.133,4.679-4.912l.097-1.333-.948.942ZM306.123,344.363l-3.918.748-1.019-3.618-.552.304c-.535.295-.915.789-1.099,1.429-.243.846-.122,1.863.328,2.842l-1.346,1.035c-1.067-.864-1.727-1.976-1.869-3.164-.14-1.17.22-2.34,1.041-3.4l2.421.736.039-.631c.134-2.147,1.475-4.072,2.74-5.567l4.302,3.644c.273.233.802,1.174,1.001,1.528l.438.847.459-.589c.229-.198,1.215-.556,1.423-.482.54.432.965,1.43,1.057,2.484.05.579.036,1.623-.551,2.46l-1.888-.47c-.393-1.834-1.241-3.107-2.654-3.989l-.887-.553.533,4.407ZM296.917,337.27c-1.905,1.168-3.19,2.465-3.597,5.136-3.706-1.477-6.188-.119-8.594,1.195-1.436.784-2.803,1.532-4.428,1.713l3.641-5.934c.217-.353.435-.722.655-1.097,1.15-1.954,2.339-3.972,4.048-4.869,1.562.897,3.469,1.581,5.161,2.187,1.354.485,3.209,1.149,3.376,1.453,0,0-.041.08-.263.216ZM329.46,334.283c-2.861,1.752-5.396,1.807-7.848,1.859-2.723.059-5.305.115-7.795,2.545-.785-1.646-1.862-2.514-3.934-3.262-1.494-.541-2.834-1.694-4.017-2.712-1.424-1.226-2.665-2.282-3.893-2.078-.676.112-1.245.577-1.741,1.421l-1.895,3.222-5.118-2.594c-1.075-.53-2.096-1.034-2.79-1.883,2.195-3.316,3.796-6.657,5.386-11.251,4.228,6.511,10.871,10.942,18.382,12.22,7.63,1.299,15.104-.722,21.062-5.687,5.366-4.472,8.218-10.911,8.073-18.008,3.804,11.335-1.609,24.59-9.432,32.396-.107-1.978-.209-3.696-.659-5.441-.062-.235-.251-.563-.808-.788-.4-.162-.982-.256-1.548-.256-.554,0-1.092.09-1.427.295ZM287.82,346.128c2.769-1.532,5.717-.742,7.522,2.008.401.612.688,1.15.747,1.309-.07.211-.664.616-.801.637-1.783-1.253-5.332-1.915-7.358.102l-.997.992,1.399-.141c1.722-.173,4.081-.099,5.737,1.179l-.484,3.386-4.882.454,1.029.777c1.107.836,2.203.932,3.083,1.008,1.099.096,1.688.146,2.032,1.333-1.55,1.349-3.557,1.631-6.289.888-2.587-.704-3.827-2.328-3.791-4.964l.004-.259-.987-.712c-1.852-1.324-3.929-2.809-4.891-4.755,3.358-.67,6.06-1.654,8.926-3.243ZM280.878,356.435c.942,4.478,4.805,7.415,9.616,7.415h.052c-.701,1.313-.934,2.479-.795,3.849-.035.103-.39.402-1.07.541-.589.12-.975.02-1.059-.09l-3.341-4.369-3.498-6.126-1.584-2.693,1.679,1.474ZM290.511,371.836l.128.135c.18.13.361.256.542.382.986.688,1.873,1.306,2.23,2.271-1.771-1.427-3.63-3.028-3.848-4.266l.947,1.477ZM294.066,364.242c.654-1.146,1.698-1.969,3.029-2.394l1.891,1.81-1.897,1.962-.007.192c-.053,1.51.374,3.643,1.729,5.1l.942,1.015-.077-1.383c-.155-2.784.364-4.625,1.633-5.758l3.329,1.267-.425,4.276,1.704.06.848-4.237,1.59.105c.317.424.976,2.3.756,4.293-.195,1.778-1.015,3.103-2.426,3.932-.295.109-1.454-.522-1.669-.858l-.352-.549-.439.48c-1.022,1.119-2.422,2.115-4.405,3.136l-1.164.601c-.18-.184-.464-.636-.578-.887-.919-3.299-2.321-5.495-4.534-7.09-.464-1.832-.276-3.672.523-5.073ZM304.988,377.709c2.659.666,5.154-.832,6.313-3.739,2.098,1.755,5.227,3.478,9.018,2.853l.173-.029.117-.13c1.337-1.485,2.835-1.828,4.458-1.019l.144.046c1.622.261,3.339.142,4.802-.323.467,2.038,1.069,3.729,2.003,5.615-8.954,4.63-20.634,4.226-30.802-1.046l3.774-2.228ZM329.686,367.263c.053-1.005.577-1.948,1.186-2.598-.42,1.275-.728,2.6-.92,3.971-.202-.421-.291-.88-.266-1.373ZM331.539,362.899c-.379-1.663-2.086-4.04-3.273-5.428,4.558-3.104,6.424-7.289,5.164-11.598,7.954-5.904,13.472-15.43,14.786-25.558,1.102-8.49-.956-16.428-5.793-22.352-5.294-6.483-13.597-9.157-21.161-6.812-6.599,2.046-10.717,8.24-9.793,14.727.391,2.742,1.986,5.278,4.269,6.784,2.682,1.769,5.786,2.017,8.518.684,1.603-.783,2.835-2.257,3.215-3.847.304-1.268.044-2.53-.729-3.555l-.774-1.025-.123,1.278c-.28,2.924-2.15,4.602-4.981,4.481-1.663-.069-3.149-.859-4.187-2.227-1.235-1.629-1.676-3.864-1.177-5.979,1.269-5.378,6.678-8.783,12.604-7.919,5.779.845,10.245,5.623,11.112,11.89,1.149,8.31-3.519,16.256-11.617,19.772-9.909,4.303-21.051,1.226-27.727-7.657-1.727-2.296-2.697-4.546-3.045-7.063,3.939-6.343,5.229-14.078,3.637-21.813l.533-3.894c4.859-7.897,12.208-13.21,21.259-15.367,14.875-3.546,30.516,1.894,39.829,13.862,9.723,12.491,12.061,29.716,6.313,46.223l-.03-.031c-2.357-2.496-5.032-5.326-7.186-4.421-.661.278-1.378,1.437-1.369,2.214.057,5.419-1.928,10.878-5.331,14.729-.85-1.013-1.397-1.377-1.961-1.327-.713.066-1.084.78-1.597,1.768-.86,1.656-2.16,4.159-5.832,6.067-6.691,3.476-11.226,7.963-13.552,13.396ZM379.053,220.677l3.519-5.143c5.519,12.512,2.593,27.18-7.405,36.881l-2.232-1.489c7.604-8.251,9.941-19.764,6.119-30.249ZM396.447,242.877c-5.34,8.488-7.406,17.128-6.286,26.315-3.252-4.887-7.111-9.442-11.74-13.863,4.554-7.61,9.073-12.121,18.026-12.453ZM356.373,194.745c3.53-2.161,6.879-4.211,9.25-8.085l.724,1.704c1.485,3.501.782,5.658.27,7.233-.23.706-.43,1.316-.383,1.901.012.149.081.363.342.539.448.302,1.411.416,1.829.284,2.038-.64,3.79-2.174,4.809-4.209.982-1.964,1.138-4.14.437-6.126-1.783-5.052-1.318-9.33,1.42-13.079,3.125-4.277,4.912-9.033,5.207-13.826,4.314,4.658,7.165,10.451,8.933,18.119,1.74,7.548.725,15.021-2.937,21.608-.498.897-.593,2.608-.194,3.521l.307.703.52-.564c2.211-2.4,4.169-4.375,7.189-5.843l3.16,15.406c2.657,12.945-3.785,24.274-9.458,27.476l-2.705,1.527c2.736-6.774,3.398-13.024,2.084-19.581l-2.217-8.348c-.301-1.131-.253-2.333-.192-3.854.02-.485.04-.996.05-1.538l.028-1.553-7.181,9.621-2.014-2.682-3.428-3.277c.374-1.328.646-2.479.763-4.31l.125-1.974c3.581-3.335,6.054-7.492,6.856-11.583l.528-2.69-1.443,2.331c-.519.836-.997,1.683-1.47,2.518-1.524,2.696-2.965,5.242-5.421,6.853-2.512,1.647-4.85,3.396-5.874,6.59-5.631-1.081-10.937,1.414-13.309,6.306-1.802,3.716-.947,7.657,2.127,9.806.776.542,1.69.766,2.512.611.664-.126,1.213-.491,1.588-1.054l.429-.646-.766-.124c-2.698-.437-4.145-2.221-3.869-4.771.413-3.82,3.824-6.787,8.112-7.055,4.394-.272,8.753,2.138,11.359,6.298,5.606,8.95,4.034,21.154-3.89,30.488l-5.522-3.333c4.126-4.979,7.221-12.67,3.896-19.9l-4.282-7.843.655,3.24c.905,4.476-.729,8.064-4.604,10.104-4.663,2.457-10.382,1.464-14.569-2.529-3.272-3.122-4.964-7.353-4.892-12.236.093-6.293,3.169-12.767,8.229-17.315,2.25-2.021,4.604-3.463,6.883-4.857ZM370.084,210.653c-.193.031-.608-.027-.804-.111-.064-2.281,1.221-3.074,2.164-3.657.243-.15.454-.283.608-.412.3-.251.593-.507.879-.769l-2.848,4.95ZM346.773,128.662c4.215-4.253,8.586-9.659,9.454-17.659,5.078,5.913,7.983,12.957,8.419,20.413-.076,6.639-2.313,11.904-6.471,15.225l-.136.168c-.41.8-.764,1.611-.2,1.97l1.104.701,4.695-2.733c1.882,24.271-14.918,55.122-40.695,60.662-1.043.224-2.037.981-2.533,1.929-.352.672-.41,1.367-.164,1.958l.143.341.368-.037c2.698-.266,5.212.126,8.05,1.271l-7.733,7.384c-4.039,4.077-7.969,6.205-12.626,6.809,3.634-6.604,5.07-13.033,4.386-19.619,1.85-2.457,4.102-4.257,6.878-5.501,15.053-6.744,26.836-19.718,31.538-34.719,1.419-1.634,2.424-3.708,3.152-6.499,1.248-4.099,1.284-7.479.112-10.636-.577-1.555-.383-3.106-.177-4.748.066-.537.135-1.08.177-1.629l.619-7.931-4.894,9.212-3.102-5.807c-1.411-2.641-2.491-7.826-.364-10.524ZM350.884,148.063l1.02-1.941c.046,1.664.275,3.232.499,4.765.42,2.872.821,5.616-.118,8.556,0-.091.002-.181.003-.271.045-3.748.088-7.292-1.403-11.107ZM348.573,163.743c-4.398,17.773-16.385,30.244-36.632,38.107l-.637-2.828,5.76-3.096c2.477-1.332,4.591-3.302,5.954-5.549l.962-1.586-13.831,7.54-.592-1.138,12.15-6.987.046-.03c9.625-7.027,18.81-19.501,17.63-31.526l-.357-3.642-1.603,9.144c-3.515,11.882-11.084,19.428-16.814,23.666-5.952,4.401-11.354,6.336-12.689,6.538l-.108-.4c3.442-1.483,6.982-3.378,9.812-6.915l1.594-1.992-2.228,1.243c-3.87,2.16-7.104,3.82-11.133,5.366l-2.838-3.035,4.979-3.115,6.995-4.468c8.186-5.228,14.078-12.344,17.05-20.602.948-3.104,1.644-6.448.337-9.885-.047-7.207,3.748-13.655,9.979-17.058-.346,3.707.522,7.105,2.761,10.89,4.03,6.814,5.224,14.2,3.452,21.359ZM317.493,173.023c5.853-9.441,9.623-17.714,11.91-26.176.098,1.588.296,3.171.812,5.049-1.906,9.211-6.387,16.621-12.723,21.126ZM244.245,37.742l3.513-13.243c1.923-7.251,1.009-14.482-2.568-20.482,7.087.867,15.052,5.316,19.688,11.074,3.018,3.747,4.344,7.63,3.836,11.231-.913,6.468,1.903,11.656,7.35,13.538.888.307,2.578-.075,3.292-.741.472-.44.439-.89.375-1.127-.85-3.15-1.59-5.893-.122-8.73l6.809,4.325c.754.479,1.508.946,2.258,1.412,3.874,2.405,7.533,4.676,10.522,7.977,3.614,3.99,5.328,8.42,5.237,13.543-.062,3.497,2.358,5.823,3.646,6.564.493.284,1.183.562,1.668.271.249-.151.385-.42.373-.74l-.053-1.39c-.084-2.194.226-4.12.996-6.161l7.08,4.979c21.279,14.963,31.535,42.696,24.998,67.522-4.821,1.786-8.592,5.239-11.681,10.739,3.619-22.034-2.256-43.919-16.363-60.522-4.901-5.768-10.855-10.094-19.307-14.028-3.824-1.779-5.768-5.663-7.646-9.419-.479-.96-.955-1.91-1.455-2.814l-.998-1.805.061,2.062c.102,3.43,1.537,6.877,4.5,10.774-2.596-.358-5.127-.482-8.187-.408l-6.849-7.058c-3.748-2.966-5.843-6.567-8.007-11.416l-.971-2.172.014,2.379c.031,5.582,3.777,9.557,7.092,13.075l5.338,5.665c-1.154.439-1.788-.065-2.751-.833l-7.316-5.792c-5.319-5.642-8.736-13.039-9.62-20.829l-1.184-10.414-.528,4.081c-1.526,11.798,3.109,23.298,12.718,31.552l3.642,3.128c-5.272-.299-9.013-4.58-10.843-7.243l-4.198-6.109.194,1.939c.392,3.915,2.629,6.592,4.793,9.182.521.625,1.048,1.254,1.556,1.908l.224,3.808.09.12c1.526,2.038,1.434,4.187-.236,6.12-2.027-6.331-7.619-8.149-11.726-8.965-3.121-.62-5.367-4.347-6.785-7.096-2.708-5.251-3.465-11.264-2.467-19.428ZM241.483,62.975c2.898,2.179,6.102,2.812,9.207,3.424,3.027.597,6.157,1.215,9.029,3.275,1.878,2.384,3.038,4.985,3.543,7.944-3.493,9.485-.712,19.151,7.089,25.251-16.935-3.943-29.794-21.546-28.868-39.895ZM287.208,101.222c-3.703,2.404-7.806,2.671-11.864.77-4.688-2.197-8.046-6.283-9.454-11.504-1.675-6.209-.429-13.16,3.333-18.592l.081-.118.007-.143c.059-1.226-.276-2.311-.6-3.359-.383-1.243-.747-2.425-.429-3.765l.38.139c1.887.697,3.52,1.297,5.59,1.126l8.438-.699c14.58-1.204,27.452,9.703,34.658,20.315,11.002,16.2,14.778,36.052,10.636,55.899-1.69,8.1-4.584,15.758-9.106,24.099-3.346,6.171-9.4,13.702-15.13,17.446.065-.064.132-.128.197-.191,3.035-2.958,6.174-6.016,8.453-9.771,3.125-5.149,6.045-10.731,6.257-16.66l.023-.692c.087-2.585.149-4.454,1.052-6.984,7.854-22.029-.161-50.67-17.868-63.847-5.277-3.927-10.36-5.571-14.623-5.571-4.075,0-7.399,1.504-9.421,3.952-1.644,1.992-2.271,4.651-1.639,6.94.514,1.854,1.814,3.236,3.664,3.892l1.521.54-.949-1.305c-1.691-2.327-1.999-4.374-.966-6.441.792-1.587,2.758-3.149,5.302-3.066,3.984.131,7.136,3.458,7.494,7.909.337,4.212-2.286,7.898-5.036,9.683ZM296.002,92.72c.045-3.457-1.121-6.531-3.399-9.001,3.809,1.196,7.367,3.457,11.302,7.145,12.995,12.179,18.697,34.763,13.783,53.512-1.117-8.566-4.756-16.011-10.612-21.662.909-11.779-3.117-22.686-11.073-29.993ZM282.787,116.215l8.16,1.42c5.199.905,9.625,3.04,12.461,6.012.73.767,1.318,1.216,2.076,1.586,4.512,3.785,7.58,9.548,9.377,17.601.563,2.924.471,5.443-.302,8.165l-.098.345.296.203c.535.368.854.826.948,1.363.141.806-.206,1.819-1.002,2.931l-1.203,1.678,2.753-1.412c-.523,5.837-3.229,10.869-5.84,15.052-3.368,5.394-7.021,9.364-11.162,12.126l-2.229-1.587c3.224-1.761,5.843-4.031,8.637-7.46l.849-1.036c3.17-3.857,6.447-7.846,7.33-13.118l.478-2.851-1.407,2.525c-4.509,8.09-8.996,15.202-18.206,20.25l-8.157-3.053c6.557-2.523,12.085-7.917,15.304-14.987,3.433-7.542,3.697-15.822.727-22.717-2.649-6.15-7.24-10.19-13.645-12.01-1.656-.47-3.517-3.085-4.021-4.609l-2.123-6.417ZM234.287,288.262c-22.546-29.653-26.736-65.995-10.929-94.858l3.148-6.239c2.345,2.819,3.449,6.366,3.466,11.088,0,.389.244.709.649.857.884.325,2.602-.124,3.217-.844,2.929-3.438,3.647-8.174,1.876-12.362-1.901-4.494-2.336-8.679-1.368-13.172,1.31-6.086,3.984-11.651,7.949-16.54l7.667-9.456c4.372-5.392,5.917-12.247,4.396-19.4,5.225,2.429,8.836,6.517,10.217,11.599,1.515,5.576-.107,6.681-2.354,8.209-1.458.993-3.112,2.119-4.281,4.562-.945,1.975-.845,4.414.25,6.069.329.499,1.21.762,1.73.79.413.022.733-.083.925-.315.501-.604.296-1.336.098-2.044-.35-1.251-.785-2.81,1.452-5.116,4.12-4.247,8.378-4.947,12.887-5.687,1.93-.317,3.923-.645,5.975-1.256,1.229.766,2.736,2.744,2.967,3.933.476,2.456-.381,3.495-2.354,4.772l-1.052.681,1.231.231c3.784.71,6.24-2.127,6.922-5.062l.312-1.344-1.601,1.211c-.104-1.392-.454-2.502-.77-3.503-.567-1.799-.978-3.099.163-5.195,1.544-2.841,1.89-5.825,1.049-9.1,2.722.481,5.197,1.909,7.367,4.251,3.953,4.265,5.881,9.696,5.575,15.705-.361,7.116-3.951,14.333-9.603,19.307-4.131,3.634-8.968,5.297-13.611,4.684-3.872-.512-6.612-2.662-7.33-5.751-.497-2.139.067-4.191,1.511-5.49,1.425-1.283,3.182-1.64,5.527-1.125l1.401.308-.906-1.112c-1.786-2.192-4.657-2.344-6.721-2.263-11.879,1.918-20.112,12.069-19.65,24.183l-.896.948c-1.88-4.706-1.771-9.395.329-14.309l3.877-9.075-2.107,2.447c-5.586,6.486-7.264,14.787-4.626,22.819l-2.635,2.73-1.518-13.103-.679,2.528c-.61,2.277-.579,4.609-.55,6.864.032,2.404.062,4.677-.618,6.892-19.16,21.921-21.464,53.29-6.006,81.893,5.799,10.731,12.641,19.503,20.896,26.788l-8.188,2.714c-5.372-4.363-10.042-9.244-14.677-15.34ZM133.809,277.412c11.185,0,21.701,3.215,29.895,6.761l23.295,11.503,17.271,7.565c21.29,7.967,42.385,7.733,58.089-.602-1.867,7.867-7.887,14.668-15.264,17.122-.224.074-.479.288-1.052.879l-.084.086c-.188.189-.225.468-.095.711.235.44,1.364.97,1.843.875l3.368-.659c-1.384,5.553-4.623,10.274-9.182,13.354-2.201,1.488-4.649,1.552-7.484,1.625l-1.622.046c2.76-2.906,5.07-6.342,6.843-10.253l4.144-9.142-.979.219c-12.043,2.698-26.681.829-42.293-5.391l-16.412-7.93c-.496-.24-.972-.513-1.444-.784-1.461-.838-2.96-1.706-4.909-1.505-.19-.641-.479-1.267-.867-1.864l-.064-.101-15.832-9.147c-5.325-3.077-11.411-5.319-18.607-6.855-10.532-2.247-20.519-1.134-28.88,3.222-11.182,5.826-17.281,18.561-15.179,31.688,4.095,25.568,35.032,43.704,61.349,45.842l12.494,1.016c.134.011.267.017.399.017,2.276,0,4.428-1.545,6.1-2.973l1.375.112c4.397.366,8.944.744,13.289-.023,10.214-1.802,18.67-8.154,21.634-16.223,7.002-1.507,13.068-4.914,17.806-9.889l.587.744c2.021,2.562,4.575,2.127,7.308,1.358-3.787,5.333-9.353,9.835-16.182,13.073-1.883.893-4.97,1.006-7.223,1.088-2.297.084-3.247.12-3.448.781-.152.504.333.854.549,1.011.638.463,1.104.754,1.461.778l5.628.371c-5.257,6.074-16.011,12.15-22.226,13.497-2.33.505-4.965-.382-7.086-1.095-1.36-.458-2.503-.853-3.423-.824-.28.009-.618.194-.723.69-.133.628.127,1.82.745,2.117l2.744,1.319c-19.212,5.079-42.723,2.594-63.2-6.729-19.081-8.688-32.58-22.912-37.034-39.026-4.745-17.163,2.693-34.304,18.508-42.653,7.969-4.207,16.185-5.805,24.07-5.805ZM174.274,361.694c-1.764.56-3.65.783-5.938.716-20.896-.607-41.651-8.57-54.168-20.782-6.79-6.624-10.979-13.562-12.805-21.209-1.662-6.961-.638-14.616,2.81-21.002,1.976-3.656,6.131-6.444,10.34-6.938.426-.05.842-.074,1.246-.074,2.225,0,4.098.748,5.357,2.16.981,1.102,1.235,2.851.633,4.352-.417,1.038-2.181,2.209-3.567,2.046-.24-.028-.943-.461-1.091-.695l.44-2.493-.328-.168c-1.39-.714-2.963-.623-4.551.268-3.357,1.883-6.371,7.214-6.717,11.885-.499,6.733.852,13.015,4.014,18.669,4.692,8.39,11.351,14.727,19.257,18.328,2.359,1.074,10.317,4.243,15.081.604,6.602,2.988,14.352,2.572,20.848-1.123,5.097,2.005,10.538,3.941,16.168,3.993l3.835.035-3.697-1.017c-5.222-1.437-9.631-2.8-14.011-4.723l2.086-3.003c11.024,4.656,22.812,6.909,34.099,6.513l7.61-.266c-6.585,10.835-18.323,12.814-27.126,12.537-5.756-.182-10.953-1.597-16.455-3.095-1.481-.403-2.981-.812-4.517-1.203l-.313.947,11.46,4.733ZM151.403,295.074c.091,4.017-3.445,7.638-7.883,8.071-2.687.261-4.931-.787-7.517-2.002l-2.43-1.126.848,1.398c.277.457.636.944.982,1.415.658.896,1.404,1.91,1.479,2.613.154,1.45-.445,2.84-1.688,3.916-1.913,1.656-4.96,2.264-7.755,1.55-2.557-.652-4.401-1.924-6.368-4.389l-1.242-1.558.359,1.96c1.025,5.577,7.653,6.626,11.78,7.217,2.161,3.725,4.861,7.613,9.424,7.613.018,0,.035,0,.052,0l2.115-.014-1.897-.935c-2.842-1.4-4.983-3.616-6.944-7.187l-.419-.761c.133-.096.327-.221.495-.328,1.445-.927,4.712-3.021,4.297-7.57,3.447,1.435,6.788,1.172,10.177-.793l3.311,2.204-1.523-4.084,2.257-2.841,6.841,2.597,5.808,2.104c.761.276,2.001-.169,2.681-.76.468-.406.674-.877.58-1.324-.371-1.76-.435-2.741.186-3.72.241.119.486.237.733.356,1.699.818,3.456,1.663,4.311,2.95.586.882.721,1.878.402,2.961-.477,1.623-1.948,3.217-3.66,3.966-4.313,1.886-9.157,1.594-14.007-.847-.504-.256-1.209-.062-1.646.225-.417.274-.645.656-.622,1.048l.013.227.179.139c2.761,2.149,7,3.479,11.462,3.618-2.405,4.962-7.783,8.068-13.362,7.624-3.715-.298-7.276-1.898-10.887-4.893l-.314-.261-1.83,1.475.387.394c2.604,2.652,5.497,4.55,9.054,5.932-3.614,3.212-8.824,4.363-14.423,3.16-5.944-1.416-10.316-5.526-11.694-10.995l-.046-.184-1.297-.888c-.155-.107-.322-.16-.485-.16-.229,0-.45.105-.615.31-.809.999-.388,5.579,3.751,9.958-5.886.356-11.954-3.086-15.113-8.643-1.676-2.946-1.722-7.13-.118-10.657,1.123-2.472,2.862-4.176,4.82-4.743.699,1.765,2.173,2.879,3.859,2.879h.015c2.655-.01,4.868-1.465,5.918-3.894,1.044-2.411.232-5.294-1.974-7.008-2.347-1.825-5.323-2.402-9.053-1.742,8.432-5.768,23.816-6.371,32.104-2.77,2.753,1.196,6.051,3.416,6.136,7.201ZM151.111,289.276c5.704,1.937,10.775,4.777,15.865,7.777l-.487,4.717c-2.689.079-4.956-1.052-7.542-2.775l-4.663-3.106c-.321-2.427-1.386-4.644-3.173-6.612ZM177.983,303.113l10.373,6.199c.225,2.583-1.287,5.201-3.59,6.161l-1.22.509,1.251.426c.916.312,2.907.782,3.887.322.988-.463,1.179-1.801,1.363-3.095.238-1.673.425-2.373,1.074-2.337,1.411.068,3.41.579,4.401,1.792.461.564.638,1.223.524,1.958-.452,2.952-2.335,5.547-5.302,7.308-4.008,2.379-9.192,2.789-13.87,1.098-.92-.333-1.716-.278-2.127.147-.265.273-.331.667-.178,1.052.475,1.193,3.276,2.679,9.592,3.048-2.663,6.917-9.921,10.899-17.527,9.518-2.557-.464-4.802-1.503-7.18-2.603-1.149-.531-2.339-1.081-3.631-1.602l-1.509-.607.907,1.35c2.49,3.706,6.427,4.971,10.233,6.195.41.131.818.263,1.224.396-1.361,1.929-3.34,3.358-6.028,4.359-5.626,2.095-11.298,1.738-16.402-1.035-4.433-2.409-8.112-5.656-11.247-9.925l-5.23-7.121c.006-.002.011-.004.016-.006,4.114,2.878,9.307,4.077,15.057,3.47,3.752,4.587,8.421,10.179,15.26,10.696l2.728.207-2.478-1.158c-4.699-2.196-9.9-5.14-13.12-10.351,3.8-1.141,6.179-2.905,7.616-5.644,6.593.63,12.963-2.766,16.31-8.717l.718-2.658c2.417-.707,4.12-1.638,5.664-3.093,1.836-1.823,2.674-4.077,2.441-6.26ZM198.662,317.954c.47-1.422.604-2.571.461-4.015,12.167,5.809,26.18,8.39,39.682,7.312-1.434,1.857-3.374,3.314-5.78,4.341-12.954,5.521-29.265,5.907-43.917,1.089,3.219-1.198,5.822-3.173,8.271-6.25.562.096,1.126.196,1.691.298,3.677.656,7.475,1.335,11.31.896l2.908-.333-14.626-3.337ZM141,345.518c-4.689,1.589-12.202-1.739-16.044-4.37-7.964-5.454-13.346-12.631-15.674-20.863,4.532,5.15,11.525,8.954,17.991,6.542l.41,1.324c2.379,7.684,7.75,12.911,13.316,17.368ZM173.568,340.257c4.247-1.037,7.597-2.955,10.437-5.958,5.132,1.184,10.62,2.296,16.422,2.081l4.026-.151-18.669-3.97,1.289-3.462c17.439,5.159,33.246,4.822,48.262-1.033-4.042,8.41-12.574,14.499-23.076,16.397-13.51,2.441-27.179,1.052-38.69-3.905ZM197.478,388.39c.426.45,1.055.658,1.918.636l.45-.011.28-3.505,4.432-5.739c.331,1.766.842,3.313,1.524,4.614,4.308,8.21,4.397,13.49.292,17.119-.645.57-.955,1.407-.706,1.906.136.272.423.407.709.348l.784-.16c-.635,1.658-1.896,2.37-3.121,3.062-.69.39-1.343.759-1.864,1.279-.479.479-.057,1.38.322,1.836.541.652,1.012.412,1.14.322l1.052-.721c-.015,1.141-.806,2.021-1.518,2.814-.754.84-1.692,1.884-.684,2.906.196.199.474.318.782.378l-.009.053c-.975,5.491-3.589,6.688-8.51,8.493l-.22.081-.079.22c-3.867,10.762-9.175,20.791-21.56,21.812,4.491-3.825,7.829-8.43,10.438-14.378,3.379-7.706,4.784-13.945,4.544-20.196.962-1.239,2.089-2.573,3.427-3.651-1.024,3.029-1.257,6.217,1.88,8.632l-2.643,7.178,1.484-1.311c1.791-1.582,3.02-3.181,3.677-4.843.215-1.087-.608-2.323-1.334-3.415-.285-.428-.554-.833-.708-1.154-.891-1.859-.101-5.109,1.173-6.665l.544-.659c1.798-2.174,3.657-4.422,4.114-7.377.764-4.941-2.293-8.643-4.659-10.997-1.517-1.51-3.369-2.316-4.968-2.161-1.248.122-2.329.813-3.128,1.999l-.812,1.207,1.382-.452c2.275-.744,3.353-.515,3.981.847l.08.174.177.076c2.42,1.042,4.283,3.147,4.984,5.633.656,2.329.089,5.21-1.48,7.52-1.315,1.936-3.146,3.157-5.022,3.351l-.161.017-2.559,2.29-1.186-3.29c2.153-1.157,3.782-2.913,4.299-4.659.808-2.732.268-5.408-1.445-7.158-1.353-1.382-3.608-1.854-5.489-1.145-1.72.648-3.424,2.28-2.562,4.743l.384,1.098,1.92-3.729c.208-.406,2.263-.654,3.057-.37,1.299.467,2.364,2.054,2.448,3.161.117,1.521-.476,2.959-1.668,4.048-3.12,2.852-7.929,2.825-11.18-.057-3.731-3.307-3.778-7.658-3.475-9.958.535-4.04,2.87-7.839,5.678-9.237,3.928-1.956,7.364-3.046,11.353-2.014,1.576.408,5.45,1.619,7.362,4.039.306.386.232,1.242.162,2.069-.096,1.131-.195,2.3.514,3.052ZM193.744,444.98c-1.986,1.589-4.468,2.726-7.114,3.254-.053-1.643-.403-2.75-1.071-4.284,2.68-.346,5.429,0,8.186,1.03ZM120.34,440.602l7.055-3.208c2.685-1.22,4.992-1.837,7.623-.865,4.41.797,8.975-.299,14.354-3.453,2.161-1.267,3.487-2.629,4.157-4.273l4.484-2.34c-.854,4.562-2.792,9.053-5.641,13.061-3.781.085-6.635,2.327-7.392,5.797-3.653.701-7.344.915-11.272.655l-6.951-.46c-1.441-1.927-3.454-3.471-6.418-4.912ZM122.344,446.009l-6.312,1.933c-.091-.682.048-1.58.375-2.281.209-.447.587-1.026,1.207-1.246.358-.127.723-.184,1.085-.184,1.422,0,2.806.871,3.645,1.777ZM122.354,435.911c.73-1.638,1.76-2.676,3.252-3.821,1.163.161,2.06.367,3.388.92l-6.64,2.901ZM140.011,424.059l5.592-5.322,12.162,3.187c-3.374,3.268-6.161,4.147-10.023,3.247l-2.006-.468,4.108,3.499c-3.11,2.694-5.25,3.521-9.584,1.928l-1.882-.692,2.684,3.001c-5.044,1.693-7.679.916-11.826-3.456,2.581-1.279,5.041-2.449,7.7-2.676.502-.043,1.078.021,1.689.087,1.162.128,2.358.26,3.317-.31l.719-.426-2.65-1.598ZM141.755,413.563l-19.725-5.386c-1.017-.277-2.175-.356-3.338-.356-.797,0-1.596.037-2.354.072-.624.029-1.228.057-1.788.062-.325-1.402-.634-2.354-.964-2.979l-.992-1.875,26.762,6.125,15.492,4.873c.87.938,1.661,2.231,2.318,3.778l-15.411-4.315ZM149.255,444.274c.512-.539,1.128-.866,1.576-.866.094,0,.182.015.259.045,7.871,7.638,22.932,7.41,31.812,2.447.615.699,1.073,1.467,1.043,1.778-.093.989-1.04,2.07-2.667,3.045-5.618,3.364-17.361,4.611-26.536.762-2.75-1.154-4.928-2.904-6.132-4.929-.434-.729.076-1.685.645-2.282ZM165.212,377.284l7.634.427c.536.206,1.593,1.184,2.259,1.93-.193.385-.764,1.05-1.016,1.095-.558.039-1.333-.225-2.767-.707l-.126-.217-.393.034-.42.102-.06.389c-.002.014-.124,1.425.607,1.723l1.388.566-.893,1.542c-.055.095-.215.386-.899.242-1.819-.388-4.672-3.312-5.315-7.126ZM170.224,386.669l-.845,3.601c-1.483-1.101-2.882-2.756-2.574-4.986l3.419,1.385ZM66.344,319.324c.757,3.137,3.44,5.363,7.002,5.809l6.11.766c2.134,2.703,1.574,6.16.716,8.605l-1.843,5.246c-.606.142-1.715.01-2.625-.099-.634-.076-1.232-.147-1.729-.149-5-.021-8.581-1.522-11.611-4.867l-1.633-1.803c.332-.438.695-.884,1.094-1.316,3.092-3.361,3.866-7.747,2.021-11.443-.839-1.682.17-2.606,2.178-4.227,2.097-1.691,4.705-3.797,4.985-7.974.07-1.058.491-1.764,1.424-2.345,1.987,3.966,5.63,6.208,10.839,6.67.99,1.805.995,4.35-.003,6.715l-1.92,4.551-3.585-.229c-4.937-.314-8.095-1.618-10.561-4.361l-1.322-1.47.464,1.921ZM143.113,139.904c-.329-.652-.892-1.011-1.583-1.011h-1.474s1.104-1.05,1.104-1.05c1.072.136,2.65.478,3.251.85.728.762,2.086,2.118,3.296,2.956l5.695,3.943-2.485,2.2c-1.077.954-3.934,1.57-5.72,1.723-1.415-.828-2.589-1.327-3.958-1.67,1.934-2.905,2.739-6.223,1.873-7.94ZM138.93,133.232c-.521-.09-1.08-.187-1.688-.271l-.699-.097.141.692c.197.969.639,1.505,1.751,2.473-2.108,1.251-4.495,1.989-6.957,2.689-2.778.791-7.076-.145-9.181-3.036l-4.245-5.833c-.075-.104-.09-.334-.038-.619.165-.916.942-2.149,1.44-2.479.866-.573,2.196-.759,3.982-.959l1.463-.164-1.26-.761c-1.469-.887-3.027-1.325-4.58-1.325-1.972,0-3.933.708-5.677,2.104l-2.614-2.078,5.006-2.571c2.211-1.136,4.4-1.253,7.321-.39,2.62.774,3.935,1.528,4.798,3.949.635,1.782.487,4.286-.858,5.391-.438.361-1.644.678-1.907.56-.373-.239-.789-.963-1.192-1.664l-.36-.621h-.289c-.397.004-1.451.423-1.63,1.077-.161.592.195,2.042.716,2.514.988.892,3.186,1.326,4.615.909,1.284-.375,2.815-1.848,3.413-3.282.883-2.12.396-3.732-.278-5.964-.068-.224-.138-.454-.208-.693l4.398,1.816-1.559,1.944,1.455-.376c1.529-.396,2.821.195,4.461.941,1.967.897,4.391,2,8.181,1.887-.28,1.747-1.367,3.107-3.24,4.05-1.471.74-2.749.519-4.681.186ZM145.381,126.552l-7.993-3.473c-1.208-.524-2.325-1.036-3.385-1.521-6.564-3.005-10.901-4.991-20.377-2.872-1.713.383-3.599,1.275-5.757,2.723l-5.839-2.744c11.254-11.933,27.304-7.948,40.091-3.104,13.064,4.814,24.061,4.849,33.57.098-1.43,4.714-4.226,8.405-8.135,10.717-4.897,2.897-11.313,3.536-18.083,1.806-1.206-2.205-2.849-2.146-4.093-1.63ZM109.122,126.41c4.953,3.703,8.496,8.42,11.699,12.935,1.019,1.437,1.748,2.696,2.366,4.086,1.756,3.943,5.84,6.925,10.249,4.994l1.197-.524-6.819-2.247c-1.167-.874-1.898-1.62-2.296-2.84,5.212,1.417,9.777,1.284,14.229-.415-1.41,5.854-6.386,9.819-11.863,9.334-4.766-.419-9.695-3.524-11.988-7.549-2.877-5.049-6.337-10.255-12.122-14.118-5.318-3.551-11.035-5.344-17.021-5.344-.292,0-.585.004-.878.013,1.068-1.415,1.602-2.91,1.796-4.963,7.409-.521,15.018,1.827,21.451,6.638ZM121.695,152.794l5.833,1.491-.002,4.204-4.774,1.14c-1.381-2.237-2.016-4.22-1.057-6.835ZM125.875,161.526c1.671-.192,2.885.261,3.581,1.346.671,1.045.519,2.912-.327,3.994-.753.964-2.074,1.412-3.373,1.169l-.123-2.435-.603.169c-1.363.383-2.135,1.855-1.984,3.77l-1.563,4.042,3.48-.772c1.088.125,1.993.6,2.624,1.375.69.85.998,1.996.866,3.229-.108,1.015-.734,2.08-1.632,2.78-.541.422-1.42.889-2.535.767l-3.153-1.994c-2.074-1.312-5.382-3.996-4.226-7.24l2.287-6.415c.423-1.186,3.721-3.445,6.681-3.784ZM131.686,179.442c1.64.394,3.137.559,5.02.559h.077c1.159,7.175-.563,16.59-5.124,27.995l-2.569,6.44-6.144,9.972c-.304.495-.409,1.759-.409,2.534l-.256.267c-9.708,10.108-13.723,24.446-12.095,32.752l-4.716,1.76c-2.42-8.64-.076-18.354,7.351-30.508l9.232-15.11c7.473-12.23,11.043-25.864,9.633-36.66ZM122.788,183.296c1.403.585,2.233.716,2.73.442l3.178-1.766-.083,7.018c-1.309,9.124-4.712,18.085-10.404,27.396l-8.348,13.652c-5.098,8.338-10.556,19.553-7.722,32.613l-5.824,1.438c-3.313-9.47.038-23.251,4.953-31.552l8.17-13.797c.624-1.055,1.241-2.083,1.847-3.093,6.189-10.326,11.102-18.521,11.503-32.35ZM114.522,262.018c4.062-1.787,7.349-3.738,10.805-6.43l-.19,4.436c-2.57,2.025-5.164,3.971-8.453,5.578-15.247,7.449-32.123,10.479-48.784,8.766l-8.507-1.349c-2.754-.437-5.727-1.654-7.807-2.583-.285-2.159-.628-3.783-1.217-5.708,18.389,7.674,42.848,6.663,64.153-2.71ZM120.965,269.503c-.412-.857-.337-1.979.207-3.077.465-.939,1.391-1.646,2.415-1.845.173-.034.369-.057.581-.057.596,0,1.318.18,2.024.811.789.703.972,2.822.338,3.908-.509.873-2.212,2.135-3.107,1.938-1.206-.263-2.057-.843-2.458-1.677ZM121.856,272.736l-1.851.993.161-1.867,1.689.874ZM116.89,275.543c-1.493,1.177-3.088,1.364-4.748.556-1.163-.566-1.959-1.947-1.812-3.142.147-1.194,1.38-2.219,2.483-2.782.783-.398,1.581-.603,2.305-.603.377,0,.734.056,1.059.168.758.264,1.338.825,1.727,1.671.557,1.212.046,3.297-1.013,4.131ZM107.785,276.738h0c.167,1.983-1.608,3.446-2.923,3.851-1.711.528-3.981-.015-4.816-1.836-.538-1.173-.304-2.203-.013-2.86.477-1.077,1.463-1.965,2.575-2.318.445-.142.909-.21,1.367-.21.828,0,1.638.225,2.284.658.899.602,1.427,1.542,1.525,2.716ZM99.648,281.889l-2.36.731,1.003-2.144,1.357,1.413ZM95.819,281.11c-.754,1.353-2.289,2.394-3.911,2.652-1.163.186-3.189-.57-4.202-1.957-.516-.706-.5-2.474.03-3.377.643-1.094,2.295-2.021,4.017-2.255.274-.037.541-.056.797-.056,1.032,0,1.9.3,2.492.873.921.891,1.677,2.505.777,4.12ZM85.53,282.392c.369.671.908,1.23,1.554,1.775l-2.422.315c.426-.685.715-1.387.868-2.09ZM84.197,277.38l2.04-.247c-.41.626-.772,1.286-.995,1.962-.242-.594-.591-1.169-1.045-1.715ZM83.389,280.779c.121,2.461-1.951,4.008-4.06,4.263-1.257.151-2.574-.201-3.516-.944-.807-.637-1.295-1.516-1.411-2.542-.109-.956.164-1.809.813-2.534.896-1.003,2.412-1.626,3.959-1.626h.009c2.01.003,4.089,1.051,4.205,3.384ZM72.735,278.949l-1.006-1.535,2.088.129-1.082,1.406ZM73.436,284.906l-2.551-.111,1.543-1.897,1.008,2.009ZM60.045,275.64l1.827.474c-.571.493-1.035,1-1.392,1.528-.057-.696-.222-1.361-.436-2.001ZM60.3,283.487l-2.668-.532c.814-.589,1.504-1.138,1.987-1.787.087.729.314,1.5.681,2.319ZM66.109,276.711c.073-.003.147-.005.222-.005,1.856,0,3.903,1.01,4.318,3.872.139.955-.302,1.732-.695,2.216-.812.997-2.274,1.774-3.479,1.847-1.267.079-2.535-.39-3.449-1.284-.84-.822-1.278-1.904-1.233-3.045.091-2.35,2.302-3.514,4.316-3.601ZM51.076,275.418c.857-.988,1.522-1.52,2.531-1.52.425,0,.911.094,1.497.288.927.306,2.548,1.02,2.994,2.364.604,1.819-.217,3.136-1.013,3.921-.923.91-2.017,1.353-3.181,1.282-1.236-.075-2.45-.754-3.33-1.864-1.162-1.465-1.021-2.719.501-4.472ZM85.425,286.982c6.382-.772,12.324-2.204,18.063-3.684-2.432,1.811-4.595,3.682-6.718,6.106-20.012,5.177-40.215,3.417-55.525-4.829l.827-3.285c.083-.326.239-.435.351-.489.706-.346,2.305.367,2.905.635,12.036,5.38,25.53,7.245,40.097,5.545ZM60.969,317.293c-.135-.16-.265-.318-.393-.474-.79-.958-1.535-1.862-2.514-2.351-4.163-2.082-7.697-7.198-6.536-12.239,4.153-1.809,6.928-4.04,8.827-7.123,1.063,3.585,2.188,6.141,5.2,7.971l3.099,2.29c.316,3.551-1.669,5.865-4.29,8.507l-3.394,3.419ZM61.559,327.041l-4.922,7.35-5.583-3.367c-3.516-2.12-6.8-6.213-6.324-10.639.288-.201.582-.402.879-.606,2.543-1.741,5.399-3.696,6.456-7.015,1.016.974,1.937,1.71,2.831,2.426.585.468,1.169.935,1.78,1.467l3.027,2.639c.44.384,1.387.353,1.933.295.737,1.469,1.844,4.582-.077,7.45ZM49.961,300.475c-1.732-2.436-3.495-5.584-3.004-9.097l10.58,3.064c-.845,1.52-2.233,2.876-4.049,3.949l-3.527,2.083ZM66.905,301.037c-2.15-1.714-3.404-3.664-3.733-5.805l12.568.699c.019,1.599-.86,3.546-2.277,4.982l-2.956,2.994-3.602-2.87ZM44.397,290.372c-.104,2.333-.048,3.789.224,5.898-.856.965-2.433,2.274-3.591,2.818l-4.049,1.903c-1.657-2.142-2.892-6.438-1.002-9.236l3.401-3.882,5.017,2.499ZM37.684,303.142l2.875-1.178c1.937-.793,3.815-1.934,5.352-3.243l2.712,4.098c.047,2.63.552,4.962,1.679,7.747-.097,1.43-1.554,3.637-2.743,4.56l-5.301,4.113-1.556-2.347c-3.613-4.037-4.707-9.037-3.018-13.75ZM37.976,317.689l2.809,3.488,1.469.637c.557,2.98,1.664,5.428,3.562,7.873-.309,1.56-.988,4.168-2.28,5.68l-4.02,4.7c-.84-1.08-1.908-2.318-3.157-3.239-3.768-2.777-5.838-6.854-5.851-11.505,3.678-1.983,5.901-4.246,7.468-7.633ZM47.414,331.357l6.904,4.494,2.058,1.181c.597.344,1.117.124,1.638-.406l.117.312c1.578,4.168,1.313,7.799-.887,12.14l-1.511,2.982-6.099-2.487c-3.889-1.586-6.568-4.82-7.575-9.129,2.896-1.972,4.813-5.234,5.354-9.085ZM60.111,348.788c2.414-4.688,1.979-9.319-1.162-12.387l-.412-.401c.26-.348.524-.749.807-1.174.378-.572.81-1.225,1.313-1.896l.871,2.223c1.385,3.529,4.887,5.991,9.141,6.425l5.927.604c2.19,3.507,2.169,7.831-.07,11.904l-.694,2.717-3.776-.589c-4.249-.046-7.726-1.224-11.271-3.818l-1.836-1.344,1.164-2.263ZM82.917,309.834l-.058-.015c-3.156-.8-7.449-2.294-8.703-6.064,2.239-2.014,4.521-4.438,4.548-7.813l2.685-.286c1.644,2.907,4.271,4.598,7.822,5.031l-2.183,8.239c-.45,1.7-1.922,1.462-4.111.907ZM84.134,295.479l8.594-1.408-2.467,4.47-.106-.021c-2.597-.511-4.532-.892-6.021-3.04ZM129.3,274.08l-6.633,1.003,5.261-3.458,1.372,2.455ZM125.89,244.274c-.851,2.19-3.044,2.848-4.98,3.429-1.823.547-3.709,1.112-3.468,3.082l.051.417.419.022c2.152.113,4.012-.358,6.387-1.223.117,1.289-.456,2.852-1.906,3.628l-9.213,4.933c-.768-6.773.67-13.271,4.278-19.327,1.327-1.085,3.93-2.173,5.519-2.299l5.947-.472-3.033,7.812ZM131.951,229.717c-1.911,3.579-4.474,3.812-7.718,4.109-1.366.125-2.879.263-4.437.697l2.913-5.972.069.501.723-1.432c2.797-5.543,6.092-5.632,12.553-5.586l-4.104,7.682ZM138.347,216.926c-1.403,1.919-3.476,2.024-5.875,2.145-1.288.065-2.712.137-4.147.513l5.065-10.017c.592-1.171,3.141-2.363,4.505-2.564l5.766-.852c-1.37,4.201-3.156,7.823-5.313,10.775ZM148.485,190.166c-1.201,6.292-2.442,12.8-7.908,13.208-1.748.13-3.553.627-5.378,1.479l3.049-9.923c.746-2.428,3.326-3.576,5.49-4.306l4.981-1.68c-.079.403-.156.811-.234,1.221ZM150.253,180.941c-.277,3.429-2.786,5.818-6.713,6.391-1.488.217-2.731.915-4.061,1.854l.667-3.92h0c.196-1.161,1.499-2.022,2.758-2.854.656-.434,1.334-.883,1.856-1.378l.949-.902-1.309.04c-1.635.049-3.049.92-4.625,1.989l-.018-2.696c4.438-1.406,7.6-4.189,11.21-7.41l-.716,8.887ZM155.674,153.077c2.915.697,5.923,1.417,9.206.924-2.582,4.983-8.358,10.427-12.88,8.837-1.573-.552-3.123-.508-4.368.12-1.138.575-1.967,1.618-2.396,3.016l-.254.828.845-.194c2.403-.554,4.146-.096,5.327,1.394-1.27.56-2.722,1.348-3.777,2.563h0c-3.457,3.985-8.527,6.596-12.301,6.353-1.813-.117-3.181-.852-4.065-2.186l-1.67-2.515c3.738.316,7.489-1.239,10.22-4.284l5.384-6.006,5.075-4.78-1.148-.073c-1.832-.117-3.685.838-5.187,2.692l-2.988,3.689c-3.319,4.099-6.452,7.412-10.829,6.349,1.32-1.149,2.3-2.402,2.798-3.59.784-1.871-.078-3.262-.771-4.378-.338-.546-.658-1.062-.732-1.541-.1-.638-.162-1.28-.226-1.931-.119-1.22-.242-2.477-.606-3.812,2.814-.515,5.364-1.577,7.778-3.237.601-.413,2.388-.269,3.653.045l-2.368,4.314c-.318.579-.068,1.447.054,1.793.124.352.478,1.197,1.077,1.444.805.33,2.546-.203,2.955-.907l.115-.199-.076-.217c-.478-1.367-.291-2.34.604-3.157,3.578-3.262,7.273-2.377,11.551-1.354ZM93.152,112.881c.761-2.166,1.361-3.877,4.59-6.713,4.249-3.733,9.687-6.274,16.597-7.75-.877,1.571-1.268,2.983-1.161,4.208l.089,1.031.753-.71c.626-.592,1.18-1.194,1.715-1.776,1.301-1.415,2.425-2.637,4.037-3.098,2.994-.855,6.185-.831,9.265-.805.147,0,.294.002.44.003-1.424,1.547-2.629,3.13-3.9,5.497l-.28.522.562.188c2.033.682,2.953-.441,3.921-1.634,1.2-1.477,2.69-3.312,7.139-3.199l7.094.184c-.937.918-1.838,1.915-2.529,3.023l-2.174,3.483.468.253c1.821.986,3.78.301,4.987-1.747,2.836-4.81,6.645-4.868,12.163-3.092-2.205,1.677-4.198,3.823-4.815,7.483l-.075.448.439.118c1.604.43,3.106-.478,3.735-2.26.967-2.751,4.16-4.368,7.263-3.68l3.966.878c-2.627,2.703-2.68,5.007-2.032,5.883.289.392.736.503,1.114.278.449-.268.825-.745,1.26-1.298,1.248-1.585,3.149-3.98,8.646-3.648,6.848.413,12.894-.9,18.461-4.007-.948,3.816-2.345,7.86-5.638,10.281l-6.058,4.453,6.143-.432c-1.504,4.161-3.475,7.687-6.168,11.045-2.479,3.09-5.151,3.013-7.52,2.945-.753-.021-1.464-.042-2.116.046-.734.099-.963,1.375-.963,1.829,0,.762.465.883.607.903l4.947.667c-4.275,5.055-10.207,8.447-16.797,9.587-4.124.715-7.549-1.11-10.94-2.921l-.129-.069-.146.012c-1.198.096-2.23-.041-2.91-.372l2.9-2.406-1.366-.012c-.573-.005-1.063.006-1.515.018-1.138.027-1.977.047-3.1-.232l2.637-1.569c1.96.793,3.223,1.235,5.371,1.218l2.162-.021-5.971-2.846,1.237-2.048c6.679,1.51,12.058,1.27,16.906-.747,7.385-3.073,12.538-10.044,13.448-18.193l.061-.541-.544-.014c-2.213-.059-3.614.718-5.138,1.539l-.493.264c-2.723,1.443-5.797,2.335-9.362,2.715.414-.24.963-.421,1.712-.581l.239-.051.107-.22c.308-.635.177-2.485-.074-3.199-.381-1.077-2.406-1.701-3.36-1.454l-.354.091-.02.366c-.008.136-.013.304-.019.492-.018.614-.055,1.891-.289,2.208-3.283,4.432-13.979,1.091-23.415-1.856-3.622-1.131-7.044-2.2-10.001-2.839-8.75-1.89-17.328-.657-24.16,3.473l-.9.544c-.066-.05-.155-.123-.236-.19-.101-.082-.216-.177-.352-.283l-.363-.285-4.718,5.13-6.7-.751c.817-1.465,1.241-2.673,1.621-3.756ZM80.648,111.676c.411-.524,1.774-.957,2.791-1.032l7.173-.527c-1.045,3.984-2.63,6.646-4.714,7.915-1.228.748-2.659,1.015-4.267.795l4.47-3.895-3.545-1.004-1.192,1.231c-.262-.004-.928-.296-1.06-.468-.333-.588-.207-2.308.344-3.015ZM52.607,113.516c.53-1.574,1.257-3.73,2.346-4.699,1.795-1.598,3.029-2.941,4.15-5.161l2.975,2.985.263-.052c4.761-.947,9.644.076,13.738,2.882l.115.079,2.249.126c-.584,1.176-1.242,2.507-1.389,3.571-.18,1.294.229,2.96,2.97,3.924-.813.463-1.875.806-3.18,1.202l-.693.21.443.574c1.712,2.217,4.437,2.355,7.321,2.501l.283.015c-.735,1.603-1.95,2.961-3.555,3.962-1.397.943-3.088,1.222-4.637.762-1.511-.449-2.715-1.54-3.404-3.081.392-3.044-.495-6.052-2.441-8.27-1.835-2.091-4.374-3.224-7.147-3.199-2.288.023-4.646,1.48-5.704,2.839-1.469,1.888-1.854,4.358-1.003,6.447.87,2.141,3.165,3.373,5.105,2.747,1.79-.577,3.408-2.566,3.017-4.898-.104-.616-.581-2.261-1.537-2.47l-1.887-.412c.699-.712,1.973-1.045,3.297-.809,3.33.595,5.368,3.23,5.317,6.878-.046,3.281-2.771,6.107-6.205,6.434-5.603.532-9.374-3.698-10.614-8.131-.729-2.606-.996-4.576-.193-6.957ZM31.631,130.115c-1.714-3.429-3.666-6.371-5.967-8.995-2.252-2.568-5.162-3.81-7.976-5.011-3.288-1.403-6.675-2.849-9.24-6.448.125.064.249.128.373.192,2.711,1.396,5.269,2.713,8.36,2.333,5.496-.678,12.45.799,15.436,6.981l4.341,8.988c2.898,6.003,6.833,10.473,11.708,13.308-.109.049-.205.133-.271.246-.177.3-.141.828.073,1.087l.588.712c.578.7,1.334,1.25,2.134,1.834.774.564,1.566,1.143,2.235,1.886l-3.412-.75-4.544-.827-.605-.435c-6.047-4.342-10.251-9.14-13.232-15.101ZM52.82,143.495c2.655.941,5.452,1.622,7.977,1.927,4.362.526,4.934,2.531,5.723,5.306.525,1.846,1.112,3.906,2.922,5.837-2.208-.18-4.086-1.328-5.256-3.247-1.375-2.474-3.676-4.347-6.662-5.426-1.174-2.136-2.753-3.612-4.703-4.397ZM72.387,172.086l-8.363-7.395c-5.851-5.174-13.118-9.082-20.463-11.003-3.406-.891-6.743-1.335-9.951-1.335-4.223,0-8.223.769-11.865,2.298,2.271-7.681,8.208-10.744,18.532-9.637l3.819,1-.104.376,7.886,2.974c3.395,1.266,7.242,2.701,9.304,5.607,2.07,2.92,4.648,5.964,9.066,5.112l9.314-1.799-2.047-.852c-4.026-1.669-7.504-3.111-7.952-7.105-.523-4.646-3.412-7.425-8.135-7.824-5.05-.428-10.273-2.5-14.706-5.833-4.745-3.568-6.725-8.259-8.638-12.795-1.044-2.474-2.03-4.811-3.419-6.844-3.882-5.68-10.104-8.556-17.059-7.892-4.926.469-9.722-1.743-11.958-5.502-1.655-2.782-2.291-6.299-1.937-10.725,4.542,4.952,10.515,7.697,17.771,8.166,9.585.619,15.202,2.143,20.854,9.046-.065.075-.132.153-.2.232-.701.811-1.495,1.73-1.76,2.513-.753,2.23.536,4.946,2.162,6.184.615.469,2.317.62,3.029.268.316-.156.56-.498.725-1.017.188-.591.267-1.451-.002-1.945-.434-.795-1.65-1.492-1.788-1.569l-.368-.206-1.119,1.384c-.742-2.136.735-3.576,1.756-4.277.82-.563,2.017-.792,3.048-.58.527.108,1.24.381,1.749,1.061-.91,3.389-.909,6.466.002,9.401,2.085,6.72,7.475,10.602,14.399,10.392,4.213-.129,7.358-.805,10.163-2.188,2.322.677,4.654.412,6.764-.775,1.688-.996,3.32-1.456,4.981-1.406,10.947.323,20.868,6.212,26.538,15.754,1.725,2.901,3.921,5.476,7.092,8.304-1.942,3.167-.593,6.138.98,9.252l-1.465.792c-.822-4.618-2.95-10.269-8.353-12.472l-2.09-.853,1.535,1.655c4.861,5.245,6.771,9.991,6.19,15.387-.569,5.295-3.963,10.185-8.855,12.763-10.395,5.477-24.814,2.972-35.064-6.091ZM49.987,247.391c.07-.807.064-1.704.06-2.649-.012-2.045-.025-4.362.799-5.975,2.332-4.563,5.607-8.441,8.762-12.021l12.295-13.959c6.041-7.38,12.944-17.398,13.073-29.752,6.517,1.853,12.782,1.829,18.642-.076,4.686-1.652,8.244-4.275,10.846-8.001.951,2.914,2.71,5.088,5.24,6.475.59,7.429-.99,14.858-4.813,22.678l-8.932,15.744c-7.448,10.858-16.782,27.264-12.313,44.749-16.371,3.227-32.307,1.632-43.89-4.392,2.002-4.15,2.119-9.954.232-12.818ZM47.788,234.497c-.875,3.943-1.376,7.924-1.646,13.004l-3.551,4.333,4.555-1.066c.507,2.011,1.074,6.004-1.339,8.867l-2.369-1.188,2.175-5.05-5.53,4.018,2.157-7.185-2.305,2.783c-.281-1.386.11-2.695.619-4.398.167-.56.344-1.151.51-1.791l.666-2.571-3.236,4.48c-1.094-4.721,3.994-10.375,9.295-14.236ZM43.943,261.963c1.967,1.152,3.363,3.482,3.832,6.394l.885,5.49-1.704.587-.156.088c-1.834,1.524-4.306,3.296-7.155,3.477-3.331.206-6.238-2.178-7.009-5.584,1.693,1.047,3.323,1.92,5.171,1.437,2.498-.653,4.18-2.54,4.388-4.924.335-3.831-1.149-6.336-4.53-7.629,2.293-1.115,4.638-.297,6.279.665ZM35.071,248.595c1.797,2.826,3.09,6.9,1.302,9.976l-2.084,1.334-1.671-5.322c-.475-1.684,1.188-4.217,2.453-5.987ZM33.013,264.766c.642-1.121,1.583-1.885,2.667-2.171l3.452,2.512c.997.726,1.033,3.45.302,4.612-.651,1.036-1.51,1.66-2.417,1.757-.773.082-1.521-.222-2.163-.879-.57-.583-1.601-.999-2.469-1.221-.403-1.444-.167-3.222.628-4.61ZM24.746,261.571c1.126-2.594,3.148-4.525,5.715-5.464,1.376,1.276,1.962,3.828,1.224,5.526l-2.669,6.145c-.454,1.045-2.517,1.929-4.369,2.293-1.116-2.696-1.085-5.772.1-8.5ZM20.701,279.443c.72-2.542,1.463-5.169,3.137-6.535l5.756-2.319.761,4.072c-.534,2.74-5.149,4.522-9.758,5.15.035-.123.07-.245.104-.368ZM21.188,301.472l-.569-6.077c-.421-4.49-.413-11.945,4.024-13.223l-1.807,6.033,1.865-2.817c.347-.523.646-1.041.935-1.539.79-1.364,1.444-2.494,2.734-3.201l-1.712,5.102,1.087-.549c1.865-.943,2.364-2.696,2.848-4.392.378-1.329.738-2.596,1.762-3.381l.611,7.96.792-2.164c.506-1.384.564-2.599.577-3.949l3.958,1.592c.621,3.101-2.633,6.359-5.427,8.69l-1.688-4.19-.499.29c-1.578.917-1.56,2.086-1.541,3.217.019,1.083.038,2.312-1.184,3.885l-6.768,8.711ZM33.145,300.218c-1.807,3.223-4.548,5.269-7.6,5.684-.422-1.974-.127-4.821,1.053-6.276l5.393-6.649c.352.385.365,1.015.355,2.139-.011,1.285-.025,3.028.799,5.103ZM25.126,309.017c4.025-1.549,6.999-3.686,9.298-6.681l.605.523c-.02.108-.051.252-.087.429-.401,1.972-1.459,7.171,1.51,12.318-.681,2.166-2.083,3.924-4.52,5.676l-3.74,2.689c-2.831-4.019-2.928-8.56-3.04-13.792l-.026-1.163ZM27.53,326.392l.918.315c.119,5.363,3.04,10.037,8.686,13.897.164.112.331.323.508.547.442.558,1.098,1.37,2.347,1.25.475,1.346,1.108,2.602,1.89,3.754l-2.207,5.745c-5.501-7.16-9.581-15.733-12.141-25.507ZM41.129,353.984c.433-1.736.739-3.172.785-5.22l.056-2.475c2.049,2.961,5.072,5.224,8.831,6.554l6.111,2.161,2.028-3.943,1.11,1.982c2.087,3.726,6.107,4.466,9.655,5.119l8.011,1.485.047-.549c.18-2.083.6-3.806,1.284-5.267,1.909-4.075,1.725-8.386-.461-11.688,1.332-.484,1.739-1.578,2.104-2.56.118-.316.238-.641.393-.958,2.394-4.901,2.618-9.229.672-12.871,3.188-2.805,5.421-8.681,3.942-13.003l1.04-.466-.074,6.844c1.94,16.791,12.201,31.618,29.672,42.879,12.604,8.125,27.79,13.214,45.14,15.128l2.563,5.823c-1.315,3.422-.304,7.034,2.612,9.25l2.818,2.143c.481,3.601,2.339,6.82,5.118,8.859,2.581,1.894,5.754,2.651,8.972,2.153,3.366,10.838-.194,21.219-3.804,28.055-3.156,5.978-6.794,10.051-11.438,12.806-5.741.114-10.093-1.03-13.652-3.603,3.974-5.142,6.481-10.855,7.075-16.139.705-6.269-1.244-11.886-5.637-16.243-5.07-5.028-10.286-8.638-15.945-11.034l-17.395-7.365c-21.681-9.181-29.504-18.382-34.579-29.373l-1.961-4.247,1.019,4.565c1.502,6.725,5.524,12.866,12.658,19.326,4.559,4.127,9.529,7.022,14.989,9.816l-4.283-.846c-12.105-2.392-23.417-5.881-34.578-10.667-14.055-6.026-25.796-14.92-34.899-26.434ZM76.204,383.696c8.507,3.034,17.039,5.811,26.323,7.625l18.656,3.645c10.475,3.577,21.258,7.87,29.635,14.947l-7.521-2.014-28.063-7.659c-15.023-4.101-27.838-9.529-39.029-16.544ZM55.034,446.719l-5.081.216c-.809.034-1.605.932-2.376,1.799-.096.108-.19.215-.282.317-.364-2.244.328-5.083,1.791-7.081.825-1.128,2.251-2.476,4.354-2.484h.01c1.252,0,1.893,1.104,2.164,1.763.751,1.825.479,4.271-.579,5.47ZM104.211,450.517c-1.52-.724-2.574-2.041-3.051-3.81l-.175-.65-2.787,1.736c-5.6-2.013-10.937-.898-15.428.465l-.152.077c-5.021,3.718-11.014,4.358-16.431,1.757l-.017-.007c-2.817-1.231-5.632-.458-7.835,2.117-.664-2.695.289-5.188,2.953-7.773,1.7-1.651,3.22-2.936,5.44-2.936.308,0,.629.025.965.076,4.21.646,7.461.133,9.947-1.565l2.015-1.377-2.394.474c-2.95.584-5.332.393-7.434.224-3.092-.248-5.76-.463-8.847,1.866l-2.602,1.962c-.32-3.343-1.838-5.231-4.61-5.737,1.804-1.452,4.043-1.156,6.396-.846,2.037.269,4.148.548,6.059-.319l1.454-.658-5.946-1.093c2.541-1.181,5.243-1.427,8.418-1.396l13.366.117c13.098-1.221,25.845-12.344,31.309-22.288,4.131-.18,7.97.316,11.738,1.514l15.856,5.04c-2.184,2.751-4.601,4.923-7.193,6.464-4.916-.488-12.205,6.289-13.03,7.072l-3.56,5.466c-2.405,2.744-6.017,3.657-10.735,2.71l-.783-.157.2.773c.53,2.035,2.259,1.876,3.932,1.722,1.668-.154,3.537-.326,5.376.976-2.591,1.475-3.559,3.858-2.757,6.814l-3.565,1.078c-2.049.912-4.327.953-6.094.111ZM110.908,463.741c-2.789-.114-5.682.174-8.225,2.558-.483-4.632,2.161-8.82,6.698-10.455,1.309.703,2.238,1.921,2.563,3.374.344,1.533-.034,3.169-1.037,4.523ZM198.024,452.187c1.604-.323,3.54.171,4.502,1.078-1.073.666-1.828,1.271-2.239,2.04l-.814,1.519,1.501-.847c1.543-.871,2.761-1.436,4.39-.778,4.021,1.624,6.321,5.709,5.703,9.931-3.027-2.509-7.472-3.866-11.221-1.521-3.098,1.941-7.5,2.655-10.562-1.163l-.314-.394-3.033,2.474c-5.4,3.472-12.525,3.368-18.151-.263l-.152-.065c-4.455-1.092-8.538-.977-12.57.394-6.037,3.487-12.474,4.876-19.137,4.131-1.542-.173-2.67-.789-4.16-2.271l-.197-.196-.271.064c-.716.169-2.212,1.127-2.822,1.531-.284.189-1.03-.085-1.819-.375-2.178-.803-5.756-2.12-9.778,2.128-.613-3.116.608-6.334,3.199-8.229,1.095-.8,2.203-.959,4.129-.998l1.88-.038-3.118-1.703c2.158-1.396,4.687-1.107,7.351-.803,1.86.212,3.781.432,5.717.112l3.148-.521-9.196-1.358c-4.838-.714-7.848.125-11.105,3.096-.382.349-.776.679-1.171,1.008-1.504,1.259-3.057,2.559-3.88,4.832l-1.06-.302c1.509-2.007,1.815-3.738,1.192-6.317-.393-1.624-1.748-3.441-3.949-4.18,2.016-1.84,4.246-1.482,6.599-1.104,2.005.322,4.083.656,6.117-.338l1.366-.668-5.581-1.019c4.646-2.167,9.541-1.948,14.7-1.717,4.209.188,8.56.383,12.93-.766,2.366,2.887,4.618,4.664,7.269,5.744,10.155,4.137,21.269,3.475,29.731-1.773l.438-.273c1.356-.851,2.175-1.363,3.883-1.479,2.138-.145,4.447-.201,6.945.286l-3.745,2.579,7.359-1.485ZM207.254,425.599c-1.64,3.004-3.879,3.749-6.249,4.538-1.624.54-3.304,1.099-4.748,2.422l-.537.492.652.324c1.907.946,3.401.6,5.133.198.429-.099.867-.2,1.337-.291-1.277,2.812-2.973,5.417-5.164,7.938-1.012,1.163-2.566,1.133-3.403,1.011l-6.142-.892c.884-1.304,2.055-1.47,3.489-1.673,1.428-.203,3.046-.432,4.536-1.902l1.105-1.091-6.058.953c2.529-4.021,4.269-7.559,5.722-11.616l2.325-1.172c3.138-1.583,5.289-3.861,5.752-6.094.245-1.178,0-2.296-.71-3.25.375-.045.721-.14.956-.246l5.897-2.658c-.752,5.38-1.997,9.531-3.895,13.009ZM212.859,422.773l2.127-11.371c.133-.707-.03-2.061-.588-2.574-.561-.515-2.28-.495-2.888-.189l-3.727,1.871,3.571-8.799,1.876-1.891c.24,1.531.491,2.718.996,3.881l3.271,7.533-.137-11.436c-.005-.439.01-.88.025-1.318.04-1.172.082-2.384-.266-3.558l-.126-.424-.437.073c-1.786.299-2.726.95-3.866,1.92.309-4.347-.677-8.475-3.059-12.887-1.186-2.194-1.623-4.1-1.975-5.631-.425-1.85-.76-3.311-2.367-3.384-.825-.033-2.092.896-2.556,1.56l-3.46,4.947c-1.759-2.233-3.786-3.098-5.752-3.937-1.055-.45-2.063-.88-2.994-1.51l6.438-2.467,11.211,1.597,3.86,12.475-1.158-12.409,4.309-.118,2.509,10.827c1.416,6.109,3.177,11.958,5.38,17.866-2.587,1.959-4.025,5.236-4.188,6.914-.061.615.042,1.063.306,1.333.396.405,1.374.989,1.786,1.197l.419.212,2.437-4.141,3.738,8.685c-.668,1.305-.772,3.312.341,4.708,2.5,3.138,5.02,7.095,4.92,12.741-7.667-.98-16.992-5.179-19.977-12.296ZM233.013,419.291c-2.628-3.579-4.34-7.486-6.133-11.63l2.04-2.68-.395-.304c-3.253-2.494-5.379-5.879-6.148-9.789l-1.552-7.894-2.224-12.218,4.721-.282,2.871,9.753,1.783,5.423.967-.243-2.7-15.333,3.608-.33c3.667,15.405,8.557,32.362,16.949,42.043.67.772,1.364,1.517,2.057,2.259,1.889,2.024,3.673,3.937,4.905,6.325l3.874,7.51c-9.663-.03-18.82-4.704-24.624-12.611ZM392.802,380.637c-4.247,3.983-8.947,6.368-13.394,8.353-2.153.961-3.867,3.446-2.882,5.786.112.264.378.605,1.014.727.938.181,2.349-.216,2.956-.832,4.701-4.764,12.761-6.956,20.297-5.587-2,2.136-3.429,3.97-4.698,6.016l-8.746,14.107c-12.051,15.92-32.303,24.106-49.252,19.911-2.279-.564-5.182-.183-6.905.905-.844.534-1.373,1.22-1.529,1.985-.123.601.422,1.377.847,1.736.458.386.817.363,1.041.277l1.937-.749c1.64-.634,4.231-.259,7.118,1.029,3.652,1.63,7.932,4.846,9.706,8.536l-.483-.049c-3.237-.328-6.292-.64-9.38.079l-11.228,2.611c-17.408,4.049-31.989,4.626-46.562-5.721l-.931-.661.146,1.132c.252,1.966,1.278,3.083,2.365,4.266l.098.107c2.387,2.6,4.047,5.25,5.058,8.077-3.178-.677-6.066-1.147-9.438-1.273-15.955-.598-28.188-7.197-33.799-18.168,5.07,1.901,13.708,3.129,15.584,1.688.658-.506.461-2.21.181-2.695l-3.876-6.666c-1.705-2.932-3.177-5.464-5.669-7.657-3.691-3.247-6.58-7.107-9.092-12.149-3.977-7.985-6.972-16.784-9.155-26.898l-1.257-5.822,3.922-.747,2.335,7.191c2.82,8.694,5.484,16.906,10.166,24.665,5.389,8.929,11.015,15.365,17.705,20.254,12.246,8.949,27.43,13.473,43.937,13.11,5.002-.112,8.664.53,9.763,1.721.266.288.371.591.334.953l-.085.817.765-.3c1.344-.527,2.53-.327,3.789-.113,1.403.238,2.855.484,4.429-.393l.787-.44-.79-.435c-5.902-3.247-11.979-4.721-18.567-4.506-20.733.68-40.794-7.433-52.268-21.166-7.39-8.846-12.753-19.595-16.396-32.862l-2.599-9.466,1.979-.47,5.402,14.002c.72,1.864,1.575,3.817,2.949,5.476l1.738,2.1-4.76-13.948-2.574-8.625,1.897-.692,2.998,7.251c3.397,11.257,8.229,20.385,14.77,27.905,9.512,10.939,21.792,17.632,35.512,19.357l.206-.976c-8.567-2.568-16.236-5.123-23.328-10.395-11.511-8.555-19.815-20.983-24.024-35.963l-2.896-8.649,3.823-2.207c1.581,2.451,2.912,5.128,3.859,7.768,7.146,19.905,16.312,31.202,32.687,40.294,1.445.802,2.812,1.25,4.742.832l6.949,2.557-5.402-4.172,1.821-2.139c.247.505.477,1.04.715,1.597.954,2.227,1.94,4.528,4.332,5.394,8.334,3.016,18.1,3.522,29.854,1.544,4.423,1.552,8.188,1.76,11.513.635l8.171-2.765,13.061-7.697-2.133.158c-4.228.312-9.166.338-9.835-2.267l-.183-.71-.595.429c-12.861,9.292-30.367,12.289-46.817,8.017-2.337-.607-4.261-2.741-4.576-5.076-.354-2.627-1.652-4.36-3.656-4.879l-.411-.106-1.213,2.759-2.767,3.622c-15.932-7.8-25.584-19.269-33.275-39.512l-3.793-8.139,6.327-4.423,6.479,11.252c2.86,5.004,5.562,9.729,9.29,14.21,10.537,12.666,26.239,19.589,41.993,18.517,9.04-.615,17.007-3.622,23.039-8.697,5.558-4.676,8.295-9.873,8.137-15.446l-.061-2.132-.894,1.937c-3.113,6.751-8.821,5.437-10.972,4.942-.684-.157-1.024-.236-1.246.127l-1.006,1.647.445.256c2.7,1.551,5.462,1.724,9.051.522-4.875,8.474-15.982,13.084-25.163,13.908-13.904,1.251-27.734-3.795-37.919-13.84-4.484-4.423-8.289-9.773-11.974-16.838l-6.444-12.354,6.923-4.917,7.446,11.337c4.317,6.572,9.15,13.383,16.548,18.093,12.928,8.233,29.246,8.531,39.686.725l.432-.323-.354-.406c-5.859-6.707-3.778-16.204,1.305-22.118,2.795-3.25,5.637-5.017,8.385-6.725,2.163-1.344,4.394-2.731,6.611-4.828l1.356,4.357.502-.2c1.921-.763,1.95-2.281,1.978-3.75.025-1.335.052-2.716,1.212-4.118,3.062-3.702,4.864-8.297,5.492-14.02,6.2,6.062,9.137,14.899,7.686,23.309-.537,3.12-2.089,7.011-4.837,8.689-2.688-.386-4.855-.5-7.142,1.103.245-1.37.972-2.47,1.732-3.62.906-1.372,1.844-2.791,1.926-4.7l.05-1.188-.884.794c-3.599,3.23-5.663,6.822-5.666,9.856-.002,1.888.763,3.535,2.272,4.896l.708.638.123-.945c.312-2.412,1.124-3.801,2.632-4.505,1.307-.609,3.632-.528,4.455.983,6.287,11.539.866,24.507-4.788,33.354-.604.945-.664,2.207-.17,3.554.669,1.822,2.188,3.418,3.695,3.882,2.385.734,4.516.793,7.073.691-2.207,2.417-4.841,4.071-7.612,5.812-.994.624-1.994,1.252-2.979,1.921-6.342,4.3-11.451,6.304-17.083,6.701l-4.335.306,4.291.687c6.967,1.117,12.965-2.098,18.508-5.483,4.38-2.677,7.955-5.357,11.592-8.693l6.963-6.386-2.291.799c-5.593,1.952-10.464,2.238-13.029.764-1.121-.644-1.843-1.632-2.147-2.94,3.307-4.652,5.406-9.504,7.024-13.652,1.133-1.708,3.283-3.041,5.183-4.217.445-.276.882-.546,1.295-.814,7.69-4.985,14.034-11.405,18.876-19.123l3.555-7.065,2.616-.878-.183-.485c-.836-2.221-.648-4.654.516-6.675,1.166-2.025,3.158-3.408,5.465-3.793l3.767-.63c-1.773,14.148-8.506,27.056-19.497,37.36ZM339.072,417.61c4.244-1.572,9.238-3.678,13.615-6.559l5.076.537-5.789,3.198c-4.756,2.147-8.919,3.064-12.902,2.824ZM410.519,339.982c-9.396.992-10.621,6.649-11.606,11.199-.305,1.405-.593,2.733-1.09,3.792-5.339,11.384-14.155,20.57-25.534,26.623l.277-1.416c3.661-1.918,6.646-3.673,8.902-6.862l1.359-1.922-10.236,6.09-.38-4.616c11.966-9.118,21.169-22.737,25.931-38.382,4.747-15.596,4.807-32.213.158-46.814l-3.285-8.706c-.726-1.923.8-5.175,1.711-7.118l2.151-4.66.919,2.481c.197.532.039,1.31-.129,2.133-.231,1.138-.494,2.427.029,3.644l.368.856.51-.781c.309-.474.607-.95.904-1.424,1.386-2.207,2.693-4.292,4.758-5.701,2.961-2.023,6.367-3.438,10.96-4.543l-1.279,4.947-3.117,10.759c-.248.855-.712,1.634-1.204,2.458-1.062,1.782-2.268,3.801-.724,6.561l.261.465,1.717-1.11c1.383,10.504,2.056,21.544-4.317,31.542l-1.192,1.871,1.88-1.179c.855-.537,1.676-1.076,2.488-1.61,2.291-1.506,4.464-2.936,7.207-4.165-.143,7.187-1.484,19.297-8.396,25.587Z"/>
      <path d="M347.486,372.175c-1.902-.48-3.922.048-5.145,1.35-1.003,1.07-1.355,2.692-.876,4.037.407,1.144,1.36,1.896,2.617,2.064l.774.104-1.095-3.544c-.028-.287.734-1.329,1.262-1.634h0c1.699-.985,3.805-.003,5.133,1.411l1.354,1.443-.506-1.913c-.432-1.63-1.747-2.871-3.52-3.318Z"/>
      <path d="M292.666,414.781l-.423.162c-1.001.384-1.865.716-1.784,1.448.104.926.756,1.967,1.662,2.652.643.486,1.344.742,2.014.742.141,0,.279-.011.416-.034l.67-.111-2.26-4.49-.295-.368Z"/>
      <path d="M256.214,154.821l.573-1.035c1.202-2.172,1.445-4.432,1.459-7.603l.002-.482-.481-.02c-.659-.025-1.214.247-1.633.789-1.156,1.494-1.007,4.762-.263,7.219l.343,1.132Z"/>
    </g>
  </g>
</svg>