<?xml version="1.0" encoding="UTF-8"?>
<svg id="b" data-name="Layer 2" xmlns="http://www.w3.org/2000/svg" width="451.561" height="403.394" viewBox="0 0 451.561 403.394">
  <g id="c" data-name="Layer 1">
    <g id="d" data-name="lI7bob">
      <g>
        <path d="M227.538,403.394l-44.599-40.411-35.988-33.177-33.296-30.187-34.09-30.606-36.966-33.016L0,198.121l26.931-24.142,48.666-42.436,59.156-52.648,17.469-15.582,28.893-25.196,34.629-29.599,9.995-8.519,19.164,16.221,28.519,24.354,22.75,19.64,53.034,46.189,81.05,72.249,21.307,19.196-20.056,17.888-50.965,46.23-72.283,66.756-16.092,14.966-35.741,33.325-9.713,8.682-19.173,17.696ZM227.518,398.167l25.292-23.066,24.837-23.255,78.805-73.258,38.649-35.4,27.84-25.081,22.654-20.38-24.793-22.229-71.194-63.421-66.522-57.948L225.876,5.144l-24.346,20.822-21.558,18.347-30.093,26.45-31.043,27.557-45.423,40.361-22.976,19.823L5.924,198.015l36.707,32.6,8.654,7.82,107.793,97.121,68.44,62.61Z"/>
        <path d="M237.823,189.413l-10.869-3.667-10.196,3.227-3.895,3.706c-3.427-10.167-6.66-20.106-10.577-30.076l-3.743-9.527-22.602.457,1.892-2.169-.346-74.77,24.768,20.924,24.521,20.523,45.756-36.58,1.441,69.023,3.084,3.5-22.698-.322c-5.016,12.793-9.162,25.553-13.353,38.976l-3.185-3.225ZM212.705,165.581l14.154,18.945,29.687-40.28-4.578-4.163-25.46-21.791-24.467,23.679-3.375,3.217c.158.663.54,1.697.939,2.56l13.1,17.834Z"/>
        <polygon points="405.773 222.3 379.023 246.576 334.645 200.175 377.809 149.186 421.152 188.169 432.542 198.2 405.773 222.3"/>
        <path d="M256.256,219.289l-11.181-3.975c1.882-2.012,1.404-3.633,1.35-5.745l-.247-9.665c-.023-.913-.925-2.344-1.663-3.611,14.853-6.083,29.527-12.213,44.331-19.293l-8.666-19.097c-.587-1.293-2.363-2.167-3.037-3.868l82.037.178-30.782,37.226-7.471,9.276,41.596,44.266-76.875,1.718,3.707-14.047c-10.963-5.056-21.81-9.348-33.101-13.363ZM289.841,231.813l30.427-30.388-28.901-24.569c-11.804,8.982-22.965,18.312-34.22,28.263l32.694,26.693Z"/>
        <polygon points="74.832 246.707 44.085 219.073 20.811 198.336 54.93 167.875 75.926 149.232 118.43 199.052 104.426 214.536 74.832 246.707"/>
        <polygon points="227.052 105.144 175.035 60.1 186.972 49.609 225.62 16.763 278.887 61.988 227.052 105.144"/>
        <path d="M188.373,222.576l-17.881,6.712-7.601,2.941,4.36,12.617-51.013-.554-24.379-.299,40.301-44.396-36.411-43.815,76.834.453-9.465,20.141,22.123,9.759,23.922,9.852-4.304,9.391,3.938,10.266-20.423,6.931ZM160.138,231.283l35.754-26.281c-11.434-9.649-22.84-18.562-34.773-27.28l-28.306,23.444,27.325,30.117Z"/>
        <path d="M227.607,287.573l27.088-26.753-27.806-32.39-27.15,31.686-.558,1.338c-.121.291.427.859.735,1.208l26.437,25.627-47.645,36.953.294-66.976,19.877.599c5.133-12.851,9.597-25.366,13.906-38.858l3.811,3.609c3.347.619,6.773,2.462,10.296,2.523,3.48.06,7.033-1.781,10.322-2.444l3.953-3.77c4.449,13.355,8.851,26.011,14.102,38.999l20.826-.69.388,67.052-48.877-37.712Z"/>
        <polygon points="227.691 387.51 176.763 340.006 213.025 311.338 227.422 300.093 278.276 340.236 234.514 381.115 227.691 387.51"/>
        <polygon points="371.345 143.414 283.768 142.755 282.3 65.075 313.176 91.995 371.345 143.414"/>
        <polygon points="119.684 145.038 80.878 144.744 138.642 92.915 167.599 66.92 167.598 145.358 119.684 145.038"/>
        <polygon points="168.765 332.138 155.097 319.154 112.25 280.296 83.316 254.355 168.98 255.17 168.765 332.138"/>
        <polygon points="286.399 332.508 286.272 301.52 286.2 256.484 369.996 254.689 325.557 295.259 286.399 332.508"/>
        <polygon points="233.578 220.319 226.917 220.609 219.921 220.428 212.26 212.034 212.286 200.721 220.1 192.12 233.45 192.082 241.096 200.707 241.112 212.021 233.578 220.319"/>
      </g>
    </g>
  </g>
</svg>