<?xml version="1.0" encoding="iso-8859-1"?>
<!-- Generator: Adobe Illustrator 30.3.0, SVG Export Plug-In . SVG Version: 9.03 Build 0)  -->
<svg version="1.1" id="Layer_1" xmlns="http://www.w3.org/2000/svg" xmlns:xlink="http://www.w3.org/1999/xlink" x="0px" y="0px"
	 width="383.87px" height="223.786px" viewBox="0 0 383.87 223.786" enable-background="new 0 0 383.87 223.786"
	 xml:space="preserve">
<g>
	<path fill="#A87C4F" d="M163.293,97.389l-3.221-5.633c-2.777,2.164-6.227,3.959-9.926,5.133c-0.291,0.088-0.585,0.162-0.879,0.238
		l3.33,5.617c1.271,2.363,3.029,6.002,3.686,8.305c3.592,11.191,2.614,23.443-2.883,34.867
		c-5.459,11.49-14.617,22.201-26.205,29.686c10.225-2.871,25.559-12.9,33.053-25.324c7.69-12.129,11.17-27.637,7.045-42.438
		C166.092,103.627,165.131,101.051,163.293,97.389z"/>
	<path fill="#A87C4F" d="M138.605,160.586c6.529-8.146,12.443-19.791,12.75-33.547c0.296-12.412-4.988-26.186-16.101-35.24
		c3.521,0.275,7.04,0.777,10.578,0.508c5.825-0.543,11.424-2.555,15.114-5.594c3.812-2.787,5.764-6.254,6.8-8.506
		c1.079-2.322,1.526-3.646,1.526-3.646s-1.127,0.895-3.062,2.49c-1.66,1.742-4.779,3.445-8.164,4.938
		c-1.076,0.457-2.237,0.811-3.459,1.092c-2.871-4.162-5.887-8.217-9.136-12.061c-9.034-10.717-33.249-33.94-33.249-33.94
		S80.601,67.453,68.712,81.934c-6.202,7.83-11.104,16.484-12.47,26.354c-1.567,9.83,2.192,19.852,8.843,26.541
		c-5.283-7.816-6.347-17.641-3.903-26.143c2.225-8.51,8.03-15.979,13.715-22.443c6.797-6.652,31.378-27.699,36.961-32.775
		c8.418,8.957,16.838,16.533,23.973,25.352c1.306,1.492,2.561,3.018,3.784,4.561c-3.108-0.363-6.354-0.914-9.673-1.588
		c-9.047-1.281-18.963-2.387-27.209-0.924c-4.522,0.475-8.932,1.486-12.734,3.342c-12.947,6.064-20.469,17.318-23.56,27.273
		c-2.786,10.375-0.569,19.363,2.571,24.471c3.092,5.137,6.119,6.779,5.908,7.006c0.289-0.078-2.355-2.65-4.064-7.936
		c-1.977-5.014-2.427-13.277,1.465-21.541c3.512-8.166,10.918-16.561,21.436-19.715c18.006-5.4,35.746,5.285,42.029,17.627
		c7.779,15.879,4.252,33.445-2.404,44.918c-4.605,7.945-10.232,13.83-14.803,17.234c-4.57,3.318-8.633,5.264-8.633,5.264
		s3.341-0.58,8.906-2.896c2.68-1.342,6.084-2.865,9.461-5.441C131.953,168.205,135.331,164.67,138.605,160.586z"/>
	<path fill="#A87C4F" d="M125.054,154.404c0.701-2.506,0.976-5.279,0.573-8.057c-0.56-3.676-0.706-4.293-2.049-7.582
		c-2.234-5.191-6.46-9.289-11.403-11.822c-7.054-3.654-14.666-4.197-21.963-3.016c1.62-4.76,5.771-9.543,11.287-12.264
		c8.01-4.348,18.541-3.51,28.277,1.955c-2.992-4.629-7.686-8.326-13.352-10.646c-5.766-1.953-12.373-2.076-18.508-0.357
		c-6.165,1.725-11.728,5.512-15.85,10.738c-3.916,5.23-7.986,17.453-2.537,26.668c11.162-7.49,21.408-5.758,27.529-3.152
		c3.117,1.236,5.567,3.568,7.217,6.225c0.609,0.568,2.078,4.107,2.076,4.73c0.42,1.477,0.485,3.176,0.189,4.883
		c-0.971,7.039-6.447,13.9-13.223,18.291c-6.873,4.668-15.729,6.129-24.532,3.961c7.778,4.408,18.331,4.524,27.063,0.617
		C114.693,171.855,122.123,164.418,125.054,154.404z"/>
</g>
<g>
	<path fill="#A87C4F" d="M207.776,106.746v1.146h-2.779v-1.148h0.815v-9.268c0-0.641-0.13-1.148-0.39-1.518
		c-0.259-0.371-0.549-0.643-0.871-0.816c-0.32-0.172-0.623-0.277-0.908-0.314c-0.284-0.037-0.463-0.057-0.537-0.057h-3.52v11.973
		h0.815v1.148h-2.78v-1.148h0.816V94.771h-0.816V93.66h5.485c0.321,0,0.704,0.055,1.149,0.166c0.444,0.111,0.87,0.315,1.278,0.609
		c0.408,0.297,0.746,0.691,1.02,1.184c0.271,0.494,0.408,1.121,0.408,1.887v9.24H207.776z"/>
	<path fill="#A87C4F" d="M217.895,93.789c0.444,0.111,0.871,0.316,1.277,0.611c0.408,0.297,0.748,0.693,1.02,1.188
		c0.271,0.494,0.408,1.123,0.408,1.889v9.859c0,0.148-0.056,0.279-0.166,0.391c-0.111,0.109-0.254,0.166-0.426,0.166h-7.97v-1.111
		h0.853v-6.031c0-0.225,0.037-0.467,0.111-0.73c0.074-0.262,0.197-0.504,0.37-0.727c0.173-0.221,0.396-0.406,0.668-0.555
		c0.271-0.148,0.617-0.223,1.038-0.223h0.592v1.148h-0.592c-0.248,0-0.439,0.045-0.576,0.135c-0.135,0.09-0.24,0.197-0.314,0.326
		c-0.074,0.127-0.117,0.25-0.129,0.363c-0.014,0.115-0.019,0.211-0.019,0.287v6.006h5.374v-9.295c0-0.645-0.13-1.146-0.389-1.506
		c-0.26-0.359-0.545-0.627-0.854-0.799c-0.31-0.174-0.605-0.279-0.89-0.316c-0.284-0.037-0.464-0.057-0.536-0.057h-3.855v-1.186
		h3.855C217.067,93.623,217.45,93.678,217.895,93.789z"/>
	<path fill="#A87C4F" d="M235.13,93.883c0.123,0.172,0.148,0.344,0.074,0.518l-4.077,13.086c-0.074,0.27-0.259,0.406-0.556,0.406
		c-0.297,0-0.482-0.137-0.557-0.408l-3.965-12.713h-1.002V93.66h2.818v1.111h-0.631l3.336,10.785l3.299-10.785h-1.445V93.66h2.223
		C234.846,93.66,235.006,93.734,235.13,93.883z"/>
	<path fill="#A87C4F" d="M249.956,106.744v1.148h-2.817v-1.148h0.815V95.846c0-0.123-0.043-0.314-0.13-0.574
		c-0.087-0.258-0.314-0.412-0.686-0.463l-4.559,4.596v7.34h1.075v1.148h-3.262v-1.148h1V95.846c0-0.246-0.043-0.438-0.13-0.574
		c-0.087-0.135-0.185-0.24-0.296-0.314c-0.111-0.074-0.229-0.123-0.353-0.148c-0.124-0.023-0.21-0.037-0.259-0.037h-0.594v-1.148
		h0.594c0.222,0,0.463,0.037,0.723,0.111c0.26,0.074,0.5,0.203,0.723,0.389c0.223,0.186,0.407,0.42,0.557,0.705
		c0.146,0.283,0.222,0.623,0.222,1.017v1.928l3.929-3.965c0.098-0.1,0.234-0.148,0.408-0.148c0.395,0,0.734,0.074,1.02,0.223
		c0.283,0.148,0.518,0.328,0.703,0.537c0.186,0.211,0.314,0.445,0.389,0.705c0.074,0.258,0.111,0.5,0.111,0.721v10.899H249.956z"/>
	<path fill="#A87C4F" d="M249.139,110.617v3.836h-1.148v-3.299h-0.816v-1.111h1.372
		C248.942,110.043,249.139,110.232,249.139,110.617z"/>
	<path fill="#A87C4F" d="M264.224,105.262c0.124,0.123,0.187,0.258,0.187,0.406s-0.062,0.285-0.187,0.408l-1.63,1.631
		c-0.125,0.125-0.26,0.186-0.408,0.186c-0.148,0-0.284-0.061-0.408-0.186l-1.223-1.223l-1.223,1.223
		c-0.125,0.125-0.26,0.186-0.408,0.186c-1.014,0-1.779-0.217-2.298-0.648c-0.519-0.432-0.89-0.871-1.112-1.316
		c-0.223-0.469-0.352-0.895-0.389-1.277c-0.037-0.385-0.056-0.588-0.056-0.613v-8.191c0-0.246-0.043-0.438-0.13-0.574
		c-0.088-0.135-0.191-0.24-0.314-0.314c-0.125-0.074-0.241-0.123-0.354-0.148c-0.109-0.023-0.203-0.037-0.277-0.037h-0.593v-1.148
		h0.593c0.223,0,0.464,0.037,0.723,0.111c0.26,0.074,0.5,0.203,0.724,0.389c0.222,0.186,0.407,0.42,0.556,0.705
		c0.148,0.283,0.223,0.623,0.223,1.017v8.191c0,0.074,0.018,0.248,0.055,0.52c0.037,0.271,0.131,0.562,0.277,0.871
		c0.149,0.309,0.391,0.6,0.724,0.871c0.333,0.271,0.798,0.42,1.391,0.445l2.928-2.967v-9.006h-0.815v-1.148h2.816v1.148h-0.815
		v9.006L264.224,105.262z M263.262,105.668l-1.075-1.074l-1.074,1.074l1.074,1.076L263.262,105.668z"/>
	<path fill="#A87C4F" d="M276.049,106.781h0.815v1.111h-2.779v-1.111h0.814v-7.043h-2.705c-0.643,0-1.15,0.131-1.52,0.389
		c-0.371,0.26-0.644,0.545-0.816,0.854c-0.175,0.309-0.278,0.611-0.315,0.908c-0.037,0.297-0.056,0.482-0.056,0.555v3.262
		c0,0.074,0.013,0.168,0.037,0.279c0.025,0.111,0.074,0.229,0.147,0.352c0.074,0.123,0.18,0.229,0.316,0.314
		c0.135,0.088,0.326,0.131,0.574,0.131h0.556v1.111h-0.556c-0.421,0-0.767-0.074-1.038-0.223c-0.272-0.148-0.501-0.334-0.686-0.555
		c-0.185-0.225-0.315-0.465-0.39-0.725c-0.074-0.258-0.111-0.5-0.111-0.723v-3.262c0-0.32,0.057-0.703,0.167-1.148
		c0.112-0.445,0.315-0.871,0.611-1.279c0.296-0.406,0.692-0.746,1.187-1.018c0.494-0.273,1.124-0.408,1.891-0.408h2.705v-1.076
		c0-0.641-0.129-1.148-0.389-1.518c-0.259-0.371-0.545-0.643-0.852-0.816c-0.31-0.172-0.613-0.277-0.909-0.314
		c-0.296-0.037-0.481-0.057-0.556-0.057h-3.003V93.66h7.673v1l-2.001,0.004c0.296,0.297,0.567,0.688,0.815,1.17
		c0.247,0.484,0.371,1.035,0.371,1.654V106.781z"/>
	<path fill="#A87C4F" d="M276.049,91.584h-1.186v-3.633h1.186V91.584z"/>
	<path fill="#A87C4F" d="M290.578,93.883c0.123,0.172,0.148,0.344,0.074,0.518l-4.078,13.086c-0.074,0.27-0.26,0.406-0.555,0.406
		c-0.297,0-0.482-0.137-0.557-0.408l-3.966-12.713h-1.001V93.66h2.816v1.111h-0.629l3.336,10.785l3.297-10.785h-1.445V93.66h2.225
		C290.293,93.66,290.453,93.734,290.578,93.883z"/>
	<path fill="#A87C4F" d="M298.621,106.781v1.111h-0.594c-0.395,0-0.734-0.072-1.018-0.215c-0.287-0.145-0.516-0.322-0.688-0.539
		c-0.174-0.215-0.297-0.451-0.371-0.711c-0.074-0.258-0.111-0.5-0.111-0.723V94.809h-0.814V93.66h2.779v1.148h-0.814v10.896
		c0,0.074,0.004,0.168,0.02,0.279c0.012,0.111,0.053,0.229,0.127,0.352c0.076,0.123,0.18,0.229,0.316,0.314
		c0.135,0.088,0.326,0.131,0.574,0.131H298.621z"/>
	<path fill="#A87C4F" d="M311,106.781h0.815v1.111h-2.779v-1.111h0.816v-7.043h-2.705c-0.645,0-1.15,0.131-1.522,0.389
		c-0.369,0.26-0.642,0.545-0.814,0.854c-0.174,0.309-0.277,0.611-0.314,0.908c-0.037,0.297-0.057,0.482-0.057,0.555v3.262
		c0,0.074,0.012,0.168,0.037,0.279c0.025,0.111,0.074,0.229,0.148,0.352c0.074,0.123,0.18,0.229,0.315,0.314
		c0.137,0.088,0.328,0.131,0.576,0.131h0.555v1.111h-0.555c-0.422,0-0.768-0.074-1.039-0.223c-0.272-0.148-0.5-0.334-0.686-0.555
		c-0.184-0.225-0.314-0.465-0.391-0.725c-0.072-0.258-0.109-0.5-0.109-0.723v-3.262c0-0.32,0.057-0.703,0.166-1.148
		c0.111-0.445,0.314-0.871,0.611-1.279c0.297-0.406,0.691-0.746,1.188-1.018c0.494-0.273,1.123-0.408,1.891-0.408h2.705v-1.076
		c0-0.641-0.131-1.148-0.389-1.518c-0.26-0.371-0.545-0.643-0.854-0.816c-0.31-0.172-0.611-0.277-0.908-0.314
		c-0.297-0.037-0.48-0.057-0.555-0.057h-3.004V93.66h7.672v1l-2,0.004c0.297,0.297,0.568,0.688,0.815,1.17
		c0.246,0.484,0.371,1.035,0.371,1.654V106.781z"/>
	<path fill="#A87C4F" d="M320.414,93.66c0.32,0,0.705,0.055,1.148,0.162c0.445,0.107,0.871,0.305,1.279,0.592
		c0.408,0.289,0.746,0.68,1.02,1.174c0.271,0.494,0.406,1.123,0.406,1.889v0.594h-1.148v-0.594c0-0.641-0.129-1.148-0.389-1.518
		c-0.26-0.371-0.549-0.643-0.871-0.816c-0.32-0.172-0.623-0.277-0.908-0.314c-0.285-0.037-0.463-0.057-0.537-0.057
		c-0.074,0-0.254,0.02-0.537,0.057c-0.283,0.037-0.588,0.142-0.908,0.314c-0.32,0.174-0.611,0.445-0.871,0.816
		c-0.26,0.369-0.389,0.877-0.389,1.518c0,0.645,0.301,1.168,0.908,1.576c0.605,0.408,1.291,0.797,2.057,1.168
		c0.42,0.223,0.846,0.451,1.277,0.686c0.434,0.234,0.822,0.5,1.168,0.797c0.346,0.297,0.625,0.637,0.836,1.02
		c0.209,0.383,0.312,0.822,0.312,1.314c0,0.348-0.055,0.736-0.166,1.168c-0.111,0.434-0.314,0.852-0.611,1.26
		c-0.297,0.408-0.691,0.748-1.186,1.02c-0.494,0.271-1.125,0.408-1.891,0.408c-0.348,0-0.734-0.061-1.168-0.18
		c-0.432-0.119-0.852-0.322-1.26-0.611c-0.408-0.287-0.748-0.68-1.02-1.174c-0.271-0.494-0.408-1.111-0.408-1.854v-0.592h1.15v0.592
		c0,0.645,0.129,1.15,0.389,1.52c0.26,0.371,0.551,0.645,0.871,0.816c0.32,0.172,0.625,0.277,0.908,0.314
		c0.283,0.037,0.463,0.057,0.537,0.057c0.643,0,1.148-0.131,1.52-0.391c0.371-0.258,0.643-0.549,0.816-0.871
		c0.172-0.32,0.277-0.623,0.315-0.908c0.037-0.283,0.055-0.463,0.055-0.537c0-0.642-0.303-1.166-0.908-1.574
		c-0.605-0.408-1.291-0.809-2.057-1.205c-0.42-0.197-0.84-0.414-1.26-0.648c-0.42-0.234-0.805-0.5-1.15-0.797
		c-0.346-0.297-0.629-0.637-0.852-1.02c-0.221-0.383-0.334-0.82-0.334-1.316c0-0.766,0.137-1.394,0.408-1.889
		c0.271-0.494,0.611-0.891,1.02-1.188c0.408-0.295,0.828-0.5,1.26-0.611C319.679,93.715,320.066,93.66,320.414,93.66z"/>
	<path fill="#A87C4F" d="M323.859,91.51h-8.523v-1.148h8.523V91.51z"/>
	<path fill="#A87C4F" d="M339.353,93.66v1.111h-0.816v9.266c0,0.348-0.055,0.736-0.166,1.168c-0.111,0.434-0.314,0.852-0.611,1.26
		c-0.297,0.408-0.693,0.748-1.188,1.02s-1.123,0.408-1.891,0.408c-0.146,0-0.283-0.061-0.406-0.186l-1.225-1.223l-1.223,1.223
		c-0.123,0.125-0.258,0.186-0.408,0.186c-0.146,0-0.283-0.061-0.406-0.186l-1.631-1.631c-0.123-0.123-0.186-0.26-0.186-0.408
		s0.062-0.283,0.186-0.406l1.445-1.484v-7.932c0-0.246-0.043-0.438-0.129-0.574c-0.088-0.135-0.186-0.24-0.297-0.314
		c-0.111-0.074-0.229-0.123-0.354-0.148c-0.123-0.023-0.209-0.037-0.26-0.037h-0.592V93.66h0.592c0.225,0,0.465,0.037,0.725,0.111
		c0.26,0.074,0.494,0.203,0.703,0.387c0.209,0.186,0.391,0.42,0.537,0.703c0.148,0.283,0.225,0.623,0.225,1.016v7.91l2.963,2.957
		c0.594-0.025,1.059-0.174,1.391-0.445c0.334-0.271,0.574-0.562,0.723-0.871c0.148-0.309,0.242-0.6,0.277-0.871
		c0.039-0.271,0.057-0.445,0.057-0.52v-9.266h-0.816V93.66H339.353z M332.496,105.668l-1.076-1.111l-1.072,1.111l1.072,1.076
		L332.496,105.668z"/>
</g>
<g>
	<path fill="#A87C4F" d="M208.787,120.023v1.141h-2.2c0.434,0.463,0.76,0.992,0.977,1.59c0.218,0.598,0.326,1.1,0.326,1.508v10.188
		h0.896v1.264h-3.056v-1.264h0.896v-10.188c0-0.082-0.02-0.279-0.061-0.592c-0.041-0.311-0.157-0.645-0.346-0.998
		c-0.191-0.352-0.483-0.672-0.877-0.957c-0.394-0.285-0.957-0.428-1.691-0.428h-1.793c-0.081,0-0.278,0.02-0.591,0.061
		c-0.312,0.041-0.645,0.156-0.998,0.346c-0.354,0.191-0.673,0.49-0.958,0.896c-0.285,0.408-0.428,0.965-0.428,1.672v3.342
		l1.182,1.182l1.467-1.467c0.026-0.027,0.13-0.115,0.306-0.266c0.176-0.148,0.414-0.279,0.714-0.387
		c0.868-0.299,1.671-0.082,2.404,0.652l0.448,0.447l-0.896,0.896l-0.448-0.447c-0.3-0.354-0.667-0.463-1.101-0.326
		c-0.081,0.055-0.156,0.088-0.224,0.102c-0.069,0.014-0.13,0.047-0.184,0.102l-0.123,0.123l-1.752,1.711v4.523h0.938v1.264h-3.098
		v-1.264h0.896v-4.523l-1.589-1.59c-0.137-0.135-0.204-0.285-0.204-0.447v-3.627c0-0.842,0.15-1.535,0.448-2.078
		c0.299-0.543,0.673-0.979,1.121-1.305c0.448-0.326,0.91-0.551,1.386-0.672c0.476-0.123,0.903-0.184,1.283-0.184H208.787z"/>
	<path fill="#A87C4F" d="M207.89,117.701h-9.373v-1.264h9.373V117.701z"/>
	<path fill="#A87C4F" d="M222.479,134.49h0.896v1.223h-3.056v-1.223h0.896v-7.742h-2.975c-0.708,0-1.264,0.143-1.671,0.428
		c-0.407,0.285-0.707,0.598-0.896,0.938c-0.19,0.34-0.306,0.672-0.347,0.998c-0.04,0.326-0.061,0.529-0.061,0.611v3.586
		c0,0.082,0.013,0.184,0.04,0.305c0.027,0.123,0.082,0.252,0.163,0.387c0.082,0.137,0.196,0.252,0.347,0.348
		c0.148,0.096,0.359,0.143,0.632,0.143h0.611v1.223h-0.611c-1.034,0-1.753-0.422-2.16-1.264c-0.136-0.299-0.218-0.557-0.244-0.773
		c-0.028-0.219-0.041-0.354-0.041-0.408v-3.586c0-0.354,0.061-0.775,0.184-1.264c0.122-0.488,0.347-0.957,0.672-1.406
		c0.326-0.447,0.761-0.82,1.305-1.119c0.543-0.301,1.235-0.449,2.078-0.449h2.975v-1.182c0-0.707-0.143-1.264-0.428-1.672
		c-0.285-0.406-0.605-0.705-0.958-0.896c-0.354-0.189-0.687-0.305-0.998-0.346c-0.314-0.041-0.51-0.061-0.591-0.061h-3.301v-1.223
		h3.301c0.353,0,0.774,0.061,1.263,0.184c0.49,0.121,0.958,0.346,1.406,0.672c0.449,0.326,0.821,0.76,1.121,1.305
		c0.298,0.543,0.447,1.236,0.447,2.078V134.49z"/>
	<path fill="#A87C4F" d="M239.268,116.437v1.303h-0.855v17.342c0,0.42-0.217,0.631-0.652,0.631h-8.762v-1.223h0.896v-12.018
		c0-0.274-0.047-0.484-0.143-0.635c-0.095-0.148-0.203-0.266-0.326-0.348c-0.121-0.08-0.25-0.135-0.387-0.162
		c-0.136-0.027-0.23-0.041-0.285-0.041h-0.652v-1.223h0.652c0.244,0,0.51,0.041,0.795,0.121c0.285,0.082,0.551,0.225,0.795,0.428
		c0.244,0.205,0.447,0.463,0.611,0.775c0.162,0.312,0.244,0.686,0.244,1.121v11.981h5.908v-16.75h-0.938v-1.303H239.268z"/>
	<path fill="#A87C4F" d="M244.566,121.857h3.627v1.264h-4.238c-0.434,0-0.652-0.219-0.652-0.652v-2.445h1.264V121.857z
		 M244.566,130.863h3.627v1.264h-4.238c-0.434,0-0.652-0.219-0.652-0.652v-2.404h1.264V130.863z"/>
	<path fill="#A87C4F" d="M256.914,120.064c0.353,0,0.774,0.059,1.263,0.178c0.49,0.117,0.959,0.336,1.406,0.652
		c0.449,0.316,0.821,0.746,1.121,1.289c0.299,0.543,0.447,1.236,0.447,2.078v0.652h-1.262v-0.652c0-0.707-0.143-1.264-0.428-1.672
		c-0.285-0.406-0.607-0.705-0.959-0.896c-0.353-0.189-0.686-0.305-0.998-0.346c-0.312-0.041-0.51-0.061-0.591-0.061
		c-0.081,0-0.279,0.02-0.591,0.061c-0.312,0.041-0.646,0.156-0.998,0.346c-0.354,0.191-0.673,0.49-0.958,0.896
		c-0.285,0.408-0.428,0.965-0.428,1.672c0,0.707,0.331,1.283,0.999,1.733c0.664,0.447,1.419,0.875,2.262,1.283
		c0.461,0.244,0.93,0.496,1.404,0.754c0.476,0.258,0.903,0.551,1.285,0.875c0.38,0.326,0.685,0.701,0.916,1.121
		c0.23,0.422,0.346,0.904,0.346,1.447c0,0.381-0.061,0.809-0.182,1.283c-0.123,0.477-0.348,0.938-0.674,1.385
		c-0.326,0.449-0.761,0.822-1.303,1.121c-0.545,0.299-1.238,0.449-2.079,0.449c-0.382,0-0.81-0.066-1.284-0.197
		c-0.476-0.131-0.938-0.355-1.385-0.672c-0.449-0.318-0.822-0.748-1.121-1.291c-0.299-0.543-0.448-1.223-0.448-2.037v-0.652h1.264
		v0.652c0,0.707,0.143,1.264,0.428,1.67c0.285,0.408,0.604,0.707,0.958,0.896c0.352,0.191,0.686,0.307,0.998,0.348
		c0.312,0.039,0.51,0.061,0.591,0.061c0.706,0,1.263-0.143,1.671-0.428c0.408-0.285,0.706-0.605,0.896-0.959
		c0.189-0.352,0.305-0.686,0.346-0.998c0.041-0.31,0.062-0.51,0.062-0.59c0-0.707-0.334-1.283-1-1.732
		c-0.666-0.447-1.42-0.891-2.261-1.324c-0.463-0.217-0.924-0.455-1.386-0.713c-0.463-0.258-0.884-0.551-1.264-0.877
		c-0.381-0.326-0.692-0.699-0.936-1.121c-0.245-0.42-0.367-0.902-0.367-1.445c0-0.842,0.149-1.535,0.448-2.078
		c0.299-0.545,0.672-0.979,1.121-1.305c0.447-0.326,0.909-0.551,1.385-0.672C256.104,120.125,256.532,120.064,256.914,120.064z"/>
	<path fill="#A87C4F" d="M260.704,117.781h-1.305v-3.994h1.305V117.781z"/>
	<path fill="#A87C4F" d="M271.462,120.064c0.842,0,1.535,0.148,2.078,0.447c0.543,0.297,0.979,0.67,1.304,1.117
		c0.326,0.447,0.55,0.914,0.673,1.402c0.122,0.488,0.184,0.908,0.184,1.26v7.193c0,0.381-0.062,0.807-0.184,1.281
		c-0.123,0.475-0.347,0.936-0.673,1.383c-0.325,0.447-0.761,0.818-1.304,1.117c-0.543,0.297-1.236,0.447-2.078,0.447
		s-1.535-0.145-2.078-0.434c-0.544-0.289-0.979-0.656-1.305-1.102c-0.326-0.443-0.551-0.904-0.672-1.379
		c-0.123-0.475-0.184-0.902-0.184-1.283v-0.652h1.264v0.652c0,0.08,0.02,0.279,0.06,0.59c0.041,0.312,0.156,0.646,0.346,0.998
		c0.19,0.354,0.482,0.674,0.877,0.959c0.394,0.285,0.957,0.428,1.691,0.428c0.707,0,1.256-0.143,1.65-0.43
		c0.393-0.285,0.685-0.605,0.876-0.961c0.19-0.354,0.306-0.688,0.347-1c0.041-0.314,0.061-0.512,0.061-0.594v-7.236
		c0-0.08-0.02-0.277-0.061-0.592c-0.041-0.312-0.156-0.646-0.347-1.002c-0.19-0.354-0.482-0.674-0.876-0.961
		c-0.395-0.285-0.943-0.428-1.65-0.428c-1.25,0-2.119,0.488-2.609,1.467c-0.107,0.189-0.182,0.373-0.223,0.551
		c-0.041,0.176-0.075,0.332-0.102,0.469c-0.027,0.162-0.041,0.324-0.041,0.488v0.652h-1.264v-0.652c0-0.027,0.02-0.252,0.06-0.672
		c0.041-0.422,0.184-0.891,0.428-1.406c0.244-0.49,0.652-0.965,1.223-1.428C269.505,120.295,270.347,120.064,271.462,120.064z"/>
	<path fill="#A87C4F" d="M292.734,120.064v1.223h-0.896v10.188c0,0.381-0.062,0.809-0.184,1.283
		c-0.123,0.477-0.346,0.938-0.672,1.385c-0.326,0.449-0.762,0.822-1.305,1.121c-0.545,0.299-1.238,0.449-2.078,0.449
		c-0.164,0-0.312-0.068-0.449-0.205l-1.344-1.344l-1.346,1.344c-0.136,0.137-0.285,0.205-0.447,0.205
		c-0.164,0-0.313-0.068-0.449-0.205l-1.793-1.793c-0.136-0.135-0.203-0.285-0.203-0.447c0-0.164,0.067-0.312,0.203-0.449l1.59-1.629
		v-8.721c0-0.271-0.048-0.482-0.143-0.633c-0.096-0.148-0.203-0.264-0.326-0.346c-0.122-0.082-0.251-0.135-0.387-0.162
		c-0.137-0.027-0.231-0.041-0.285-0.041h-0.652v-1.223h0.652c0.244,0,0.509,0.041,0.795,0.121c0.285,0.082,0.542,0.225,0.773,0.428
		c0.23,0.203,0.428,0.459,0.592,0.771c0.162,0.312,0.244,0.684,0.244,1.117v8.695l3.26,3.252c0.652-0.027,1.162-0.189,1.527-0.488
		c0.367-0.299,0.633-0.619,0.795-0.959c0.164-0.34,0.266-0.658,0.307-0.957c0.041-0.299,0.061-0.488,0.061-0.57v-10.188h-0.896
		v-1.223H292.734z M285.195,133.268l-1.182-1.223l-1.182,1.223l1.182,1.182L285.195,133.268z"/>
	<path fill="#A87C4F" d="M306.426,134.49h0.897v1.223h-3.057v-1.223h0.896v-7.742h-2.975c-0.707,0-1.264,0.143-1.672,0.428
		c-0.406,0.285-0.705,0.598-0.895,0.938c-0.191,0.34-0.307,0.672-0.348,0.998c-0.041,0.326-0.061,0.529-0.061,0.611v3.586
		c0,0.082,0.014,0.184,0.041,0.305c0.027,0.123,0.082,0.252,0.162,0.387c0.082,0.137,0.197,0.252,0.346,0.348
		c0.15,0.096,0.361,0.143,0.633,0.143h0.611v1.223h-0.611c-0.463,0-0.842-0.082-1.141-0.244c-0.299-0.164-0.551-0.367-0.754-0.611
		c-0.203-0.246-0.348-0.51-0.43-0.795c-0.08-0.285-0.121-0.551-0.121-0.795v-3.586c0-0.354,0.062-0.775,0.184-1.264
		c0.121-0.488,0.346-0.957,0.672-1.406c0.326-0.447,0.762-0.82,1.305-1.119c0.543-0.301,1.236-0.449,2.078-0.449h2.975v-1.182
		c0-0.707-0.143-1.264-0.428-1.672c-0.285-0.406-0.598-0.705-0.938-0.896c-0.34-0.189-0.672-0.305-0.998-0.346
		c-0.326-0.041-0.529-0.061-0.611-0.061h-3.301v-1.223h8.436v1.1l-2.201,0.004c0.326,0.328,0.625,0.756,0.896,1.287
		c0.272,0.531,0.408,1.139,0.408,1.818V134.49z"/>
	<path fill="#A87C4F" d="M323.459,120.064v1.223h-0.897v10.188c0,0.381-0.06,0.809-0.183,1.283
		c-0.121,0.477-0.346,0.938-0.672,1.385c-0.326,0.449-0.762,0.822-1.305,1.121s-1.236,0.449-2.078,0.449
		c-0.162,0-0.312-0.068-0.447-0.205l-1.346-1.344l-1.344,1.344c-0.137,0.137-0.285,0.205-0.449,0.205
		c-0.162,0-0.312-0.068-0.447-0.205l-1.793-1.793c-0.137-0.135-0.205-0.285-0.205-0.447c0-0.164,0.068-0.312,0.205-0.449
		l1.588-1.629v-8.721c0-0.271-0.047-0.482-0.143-0.633c-0.096-0.148-0.203-0.264-0.326-0.346c-0.121-0.082-0.252-0.135-0.387-0.162
		c-0.137-0.027-0.232-0.041-0.285-0.041h-0.652v-1.223h0.652c0.244,0,0.51,0.041,0.795,0.121c0.285,0.082,0.543,0.225,0.773,0.428
		c0.232,0.203,0.428,0.459,0.592,0.771c0.162,0.312,0.244,0.684,0.244,1.117v8.695l3.26,3.252c0.652-0.027,1.162-0.189,1.529-0.488
		c0.367-0.299,0.631-0.619,0.795-0.959c0.162-0.34,0.264-0.658,0.305-0.957c0.041-0.299,0.061-0.488,0.061-0.57v-10.188h-0.897
		v-1.223H323.459z M315.92,133.268l-1.182-1.223l-1.182,1.223l1.182,1.182L315.92,133.268z"/>
	<path fill="#A87C4F" d="M318.976,116.437h5.379v1.264h-6.031c-0.436,0-0.652-0.219-0.652-0.652v-2.445h1.305V116.437z"/>
	<path fill="#A87C4F" d="M339.353,121.287h-0.898v13.773c0,0.436-0.217,0.652-0.652,0.652h-8.719v-1.305h0.895v-5.973
		c-0.65-0.135-1.113-0.453-1.385-0.955c-0.271-0.502-0.408-0.969-0.408-1.402v-3.617c0-0.242,0.043-0.508,0.123-0.791
		c0.082-0.285,0.217-0.543,0.408-0.773c0.189-0.23,0.441-0.426,0.754-0.588c0.311-0.164,0.686-0.244,1.121-0.244h0.652v1.223h-0.652
		c-0.273,0-0.484,0.055-0.633,0.162c-0.148,0.109-0.266,0.23-0.346,0.367c-0.082,0.137-0.129,0.266-0.143,0.387
		c-0.016,0.123-0.02,0.211-0.02,0.266v3.586c0,0.055,0.004,0.149,0.02,0.285c0.014,0.137,0.061,0.266,0.143,0.387
		c0.08,0.123,0.197,0.23,0.346,0.326c0.148,0.096,0.359,0.143,0.633,0.143h2.445v1.305h-1.793v5.908h5.949v-13.121h-0.898v-1.223
		h3.059V121.287z"/>
</g>
<g>
	<path fill="#A87C4F" d="M199.867,144.008c0.15,0.037,0.295,0.105,0.433,0.207c0.139,0.1,0.253,0.234,0.346,0.4
		c0.092,0.168,0.138,0.381,0.138,0.641v0.201h-0.39v-0.201c0-0.217-0.043-0.389-0.131-0.514c-0.088-0.127-0.184-0.219-0.289-0.277
		c-0.104-0.059-0.207-0.094-0.307-0.105c-0.102-0.014-0.164-0.02-0.189-0.02h-0.551c-0.219,0-0.39,0.045-0.516,0.133
		c-0.125,0.088-0.217,0.186-0.275,0.295c-0.059,0.107-0.094,0.211-0.107,0.307c-0.012,0.096-0.018,0.156-0.018,0.182v3.326
		c0,0.023,0.006,0.088,0.018,0.188c0.014,0.1,0.049,0.203,0.107,0.307c0.059,0.105,0.15,0.201,0.275,0.289
		c0.126,0.088,0.297,0.133,0.516,0.133h0.551c0.025,0,0.088-0.008,0.189-0.02c0.1-0.012,0.202-0.049,0.307-0.107
		c0.105-0.057,0.201-0.148,0.289-0.27c0.088-0.121,0.131-0.295,0.131-0.52v-0.189h0.39v0.189c0,0.258-0.046,0.473-0.138,0.639
		c-0.093,0.168-0.207,0.301-0.346,0.398c-0.138,0.098-0.282,0.164-0.433,0.201c-0.15,0.035-0.28,0.053-0.39,0.053h-0.551
		c-0.26,0-0.474-0.043-0.641-0.133c-0.168-0.09-0.301-0.201-0.401-0.338s-0.17-0.279-0.208-0.426
		c-0.037-0.146-0.056-0.277-0.056-0.395v-3.326c0-0.109,0.019-0.238,0.056-0.389c0.038-0.15,0.107-0.295,0.208-0.434
		c0.101-0.137,0.233-0.252,0.401-0.344c0.167-0.094,0.381-0.139,0.641-0.139h0.551C199.587,143.951,199.717,143.971,199.867,144.008
		z"/>
	<path fill="#A87C4F" d="M204.397,143.939c0.108,0,0.238,0.018,0.389,0.055c0.15,0.039,0.295,0.107,0.433,0.207
		c0.138,0.102,0.253,0.234,0.345,0.402c0.093,0.168,0.139,0.381,0.139,0.641v3.324c0,0.01-0.006,0.08-0.02,0.213
		c-0.012,0.135-0.061,0.281-0.144,0.439c-0.075,0.15-0.198,0.297-0.37,0.439c-0.172,0.143-0.429,0.213-0.771,0.213h-0.553
		c-0.117,0-0.248-0.018-0.395-0.057c-0.146-0.037-0.289-0.105-0.428-0.205c-0.137-0.102-0.252-0.234-0.345-0.402
		c-0.092-0.168-0.138-0.381-0.138-0.641v-3.324c0-0.109,0.018-0.238,0.057-0.389c0.037-0.152,0.107-0.295,0.207-0.434
		c0.1-0.139,0.234-0.254,0.401-0.346c0.167-0.092,0.38-0.137,0.64-0.137H204.397z M205.313,145.256c0-0.227-0.047-0.4-0.139-0.527
		c-0.092-0.125-0.194-0.215-0.307-0.27c-0.113-0.055-0.219-0.088-0.314-0.1c-0.096-0.014-0.148-0.02-0.156-0.02h-0.553
		c-0.226,0-0.399,0.045-0.521,0.133c-0.122,0.088-0.212,0.186-0.27,0.295c-0.059,0.107-0.094,0.211-0.105,0.307
		c-0.014,0.096-0.02,0.156-0.02,0.182v3.326c0,0.225,0.046,0.4,0.139,0.527c0.092,0.125,0.194,0.215,0.307,0.27
		c0.113,0.055,0.218,0.088,0.314,0.1c0.096,0.012,0.149,0.02,0.156,0.02h0.553c0.217,0,0.389-0.045,0.514-0.133
		c0.126-0.088,0.218-0.184,0.276-0.289c0.059-0.104,0.095-0.207,0.106-0.307c0.013-0.1,0.02-0.164,0.02-0.188V145.256z"/>
	<path fill="#A87C4F" d="M211.147,143.939v0.389h-0.275v5.357c0,0.1-0.051,0.164-0.15,0.188h-0.038c-0.093,0-0.15-0.033-0.175-0.1
		l-2.41-4.869v4.58h0.276v0.389h-0.941v-0.389h0.276v-5.156h-0.276v-0.389h0.464c0.092,0,0.15,0.037,0.176,0.111l2.41,4.869v-4.592
		h-0.276v-0.389H211.147z"/>
	<path fill="#A87C4F" d="M215.552,143.939v0.389h-1.393v5.156h0.276v0.389h-0.94v-0.389h0.275v-5.156h-1.393v-0.389H215.552z"/>
	<path fill="#A87C4F" d="M219.669,143.939v0.389h-2.222v2.383h1.944v0.391h-1.944v2.383h2.222v0.389h-2.887v-0.389h0.275v-5.156
		h-0.275v-0.389H219.669z"/>
	<path fill="#A87C4F" d="M225.151,149.484h0.276v0.389h-0.94v-0.389h0.275v-4.141l-1.293,4.393c-0.008,0.041-0.029,0.074-0.062,0.1
		c-0.033,0.025-0.07,0.037-0.113,0.037c-0.1,0-0.162-0.045-0.188-0.137l-1.293-4.393v4.141h0.289v0.389h-0.953v-0.389h0.275v-5.156
		h-0.275v-0.389h0.476c0.092,0,0.154,0.045,0.188,0.137l1.48,5.057l1.469-5.057c0.033-0.092,0.096-0.137,0.189-0.137h0.477v0.389
		h-0.276V149.484z"/>
	<path fill="#A87C4F" d="M228.741,143.939c0.107,0,0.238,0.018,0.389,0.055c0.15,0.039,0.295,0.107,0.433,0.207
		c0.138,0.102,0.253,0.234,0.345,0.402c0.092,0.168,0.139,0.381,0.139,0.641v1.104c0,0.117-0.02,0.252-0.057,0.402
		c-0.037,0.15-0.107,0.293-0.207,0.426c-0.101,0.135-0.234,0.25-0.402,0.346c-0.167,0.096-0.381,0.145-0.639,0.145h-1.18v1.818
		h0.275v0.389h-0.953v-0.389h0.275v-5.156h-0.275v-0.389H228.741z M229.657,145.244c0-0.219-0.045-0.389-0.133-0.516
		c-0.088-0.125-0.186-0.217-0.295-0.275c-0.108-0.059-0.211-0.094-0.307-0.107c-0.097-0.012-0.157-0.018-0.182-0.018h-1.18v2.936
		h1.18c0.217,0,0.389-0.043,0.514-0.131c0.125-0.088,0.217-0.186,0.276-0.289c0.058-0.105,0.094-0.207,0.106-0.309
		c0.013-0.1,0.02-0.162,0.02-0.188V145.244z"/>
	<path fill="#A87C4F" d="M233.659,143.939c0.109,0,0.238,0.018,0.389,0.055c0.15,0.039,0.295,0.107,0.434,0.207
		c0.138,0.102,0.253,0.234,0.346,0.402c0.092,0.168,0.137,0.381,0.137,0.641v3.324c0,0.01-0.006,0.08-0.018,0.213
		c-0.014,0.135-0.062,0.281-0.145,0.439c-0.076,0.15-0.199,0.297-0.371,0.439c-0.171,0.143-0.428,0.213-0.771,0.213h-0.552
		c-0.117,0-0.249-0.018-0.395-0.057c-0.147-0.037-0.289-0.105-0.426-0.205c-0.139-0.102-0.254-0.234-0.346-0.402
		c-0.092-0.168-0.139-0.381-0.139-0.641v-3.324c0-0.109,0.02-0.238,0.057-0.389c0.038-0.152,0.107-0.295,0.207-0.434
		c0.101-0.139,0.234-0.254,0.402-0.346c0.166-0.092,0.381-0.137,0.64-0.137H233.659z M234.575,145.256
		c0-0.227-0.046-0.4-0.138-0.527c-0.093-0.125-0.194-0.215-0.308-0.27c-0.113-0.055-0.217-0.088-0.313-0.1
		c-0.097-0.014-0.15-0.02-0.157-0.02h-0.552c-0.226,0-0.399,0.045-0.52,0.133c-0.121,0.088-0.212,0.186-0.27,0.295
		c-0.059,0.107-0.095,0.211-0.107,0.307c-0.012,0.096-0.018,0.156-0.018,0.182v3.326c0,0.225,0.046,0.4,0.138,0.527
		c0.092,0.125,0.195,0.215,0.308,0.27c0.112,0.055,0.218,0.088,0.313,0.1c0.096,0.012,0.148,0.02,0.157,0.02h0.552
		c0.218,0,0.389-0.045,0.515-0.133c0.126-0.088,0.218-0.184,0.276-0.289c0.059-0.104,0.094-0.207,0.107-0.307
		c0.013-0.1,0.018-0.164,0.018-0.188V145.256z"/>
	<path fill="#A87C4F" d="M240.147,149.484v0.402h-0.477c-0.083,0-0.143-0.037-0.175-0.113l-1.055-2.107h-1.08v1.818h0.277v0.402
		h-0.277h-0.389h-0.275v-0.402h0.275v-5.156h-0.275v-0.389h0.477h1.381c0.107,0,0.238,0.018,0.389,0.055
		c0.15,0.039,0.295,0.107,0.433,0.207c0.138,0.102,0.253,0.234,0.345,0.402c0.092,0.168,0.139,0.381,0.139,0.641v1.115
		c0,0.102-0.016,0.217-0.044,0.346c-0.03,0.131-0.081,0.258-0.157,0.383c-0.075,0.125-0.178,0.238-0.307,0.34
		c-0.131,0.1-0.295,0.166-0.496,0.199l0.928,1.857H240.147z M237.36,147.264h1.318c0.184-0.016,0.33-0.068,0.439-0.156
		c0.108-0.088,0.188-0.184,0.238-0.289c0.05-0.105,0.082-0.203,0.094-0.295c0.013-0.092,0.02-0.15,0.02-0.176v-1.104
		c0-0.219-0.045-0.389-0.133-0.516c-0.088-0.125-0.184-0.217-0.288-0.275c-0.105-0.059-0.207-0.094-0.308-0.107
		c-0.1-0.012-0.163-0.018-0.188-0.018h-1.193V147.264z"/>
	<path fill="#A87C4F" d="M245.304,149.484h0.34v0.389h-0.954v-0.389h0.214l-0.302-0.99h-2.208l-0.302,0.99h0.214v0.389h-0.941
		v-0.389h0.326l1.619-5.408c0.033-0.092,0.096-0.137,0.188-0.137s0.154,0.045,0.188,0.137L245.304,149.484z M244.489,148.103
		l-0.992-3.35l-0.979,3.35H244.489z"/>
	<path fill="#A87C4F" d="M250.323,149.484v0.402h-0.477c-0.084,0-0.143-0.037-0.176-0.113l-1.055-2.107h-1.078v1.818h0.275v0.402
		h-0.275h-0.389h-0.277v-0.402h0.277v-5.156h-0.277v-0.389h0.478h1.38c0.109,0,0.238,0.018,0.39,0.055
		c0.15,0.039,0.294,0.107,0.433,0.207c0.139,0.102,0.253,0.234,0.346,0.402c0.092,0.168,0.138,0.381,0.138,0.641v1.115
		c0,0.102-0.015,0.217-0.044,0.346c-0.029,0.131-0.082,0.258-0.157,0.383s-0.178,0.238-0.308,0.34
		c-0.129,0.1-0.295,0.166-0.496,0.199l0.93,1.857H250.323z M247.538,147.264h1.317c0.185-0.016,0.33-0.068,0.438-0.156
		c0.109-0.088,0.189-0.184,0.239-0.289c0.05-0.105,0.081-0.203,0.095-0.295c0.012-0.092,0.018-0.15,0.018-0.176v-1.104
		c0-0.219-0.043-0.389-0.131-0.516c-0.088-0.125-0.185-0.217-0.289-0.275c-0.105-0.059-0.207-0.094-0.308-0.107
		c-0.101-0.012-0.163-0.018-0.189-0.018h-1.191V147.264z"/>
	<path fill="#A87C4F" d="M255.267,143.926v0.389h-0.351l-1.318,2.635v2.535h0.276v0.389h-0.941v-0.389h0.276v-2.535l-1.318-2.635
		h-0.352v-0.389h0.955v0.389h-0.164l1.066,2.146l1.08-2.146h-0.164v-0.389H255.267z"/>
	<path fill="#A87C4F" d="M262.821,149.484h0.34v0.389h-0.955v-0.389h0.214l-0.301-0.99h-2.208l-0.302,0.99h0.214v0.389h-0.941
		v-0.389h0.326l1.619-5.408c0.033-0.092,0.096-0.137,0.188-0.137s0.154,0.045,0.189,0.137L262.821,149.484z M262.006,148.103
		l-0.991-3.35l-0.978,3.35H262.006z"/>
	<path fill="#A87C4F" d="M267.841,149.484v0.402h-0.477c-0.084,0-0.143-0.037-0.176-0.113l-1.055-2.107h-1.078v1.818h0.275v0.402
		h-0.275h-0.39h-0.276v-0.402h0.276v-5.156h-0.276v-0.389h0.478h1.38c0.109,0,0.238,0.018,0.389,0.055
		c0.15,0.039,0.295,0.107,0.434,0.207c0.138,0.102,0.253,0.234,0.346,0.402c0.092,0.168,0.137,0.381,0.137,0.641v1.115
		c0,0.102-0.014,0.217-0.043,0.346c-0.029,0.131-0.082,0.258-0.157,0.383s-0.178,0.238-0.308,0.34
		c-0.129,0.1-0.295,0.166-0.496,0.199l0.93,1.857H267.841z M265.055,147.264h1.316c0.185-0.016,0.331-0.068,0.44-0.156
		c0.109-0.088,0.189-0.184,0.238-0.289c0.051-0.105,0.082-0.203,0.095-0.295c0.013-0.092,0.018-0.15,0.018-0.176v-1.104
		c0-0.219-0.043-0.389-0.131-0.516c-0.088-0.125-0.185-0.217-0.289-0.275c-0.105-0.059-0.207-0.094-0.308-0.107
		c-0.101-0.012-0.163-0.018-0.189-0.018h-1.191V147.264z"/>
	<path fill="#A87C4F" d="M272.233,143.939v0.389h-1.393v5.156h0.276v0.389h-0.941v-0.389h0.276v-5.156h-1.393v-0.389H272.233z"/>
	<path fill="#A87C4F" d="M277.929,143.939c0.108,0,0.239,0.018,0.39,0.055c0.15,0.039,0.295,0.107,0.432,0.207
		c0.139,0.102,0.254,0.234,0.346,0.402c0.092,0.168,0.139,0.381,0.139,0.641v1.104c0,0.117-0.02,0.252-0.057,0.402
		c-0.038,0.15-0.107,0.293-0.207,0.426c-0.101,0.135-0.234,0.25-0.402,0.346c-0.167,0.096-0.381,0.145-0.64,0.145h-1.179v1.818
		h0.275v0.389h-0.953v-0.389h0.275v-5.156h-0.275v-0.389H277.929z M278.846,145.244c0-0.219-0.044-0.389-0.132-0.516
		c-0.088-0.125-0.186-0.217-0.295-0.275c-0.108-0.059-0.211-0.094-0.307-0.107c-0.097-0.012-0.158-0.018-0.183-0.018h-1.179v2.936
		h1.179c0.218,0,0.39-0.043,0.515-0.131c0.125-0.088,0.217-0.186,0.275-0.289c0.059-0.105,0.095-0.207,0.107-0.309
		c0.012-0.1,0.019-0.162,0.019-0.188V145.244z"/>
	<path fill="#A87C4F" d="M284.166,149.484v0.402h-0.477c-0.084,0-0.143-0.037-0.176-0.113l-1.055-2.107h-1.078v1.818h0.275v0.402
		h-0.275h-0.389h-0.277v-0.402h0.277v-5.156h-0.277v-0.389h0.478h1.38c0.109,0,0.238,0.018,0.39,0.055
		c0.15,0.039,0.294,0.107,0.433,0.207c0.139,0.102,0.253,0.234,0.346,0.402c0.092,0.168,0.138,0.381,0.138,0.641v1.115
		c0,0.102-0.015,0.217-0.044,0.346c-0.029,0.131-0.082,0.258-0.157,0.383s-0.178,0.238-0.308,0.34
		c-0.129,0.1-0.295,0.166-0.496,0.199l0.93,1.857H284.166z M281.381,147.264h1.317c0.185-0.016,0.33-0.068,0.439-0.156
		c0.109-0.088,0.189-0.184,0.239-0.289s0.081-0.203,0.095-0.295c0.012-0.092,0.017-0.15,0.017-0.176v-1.104
		c0-0.219-0.043-0.389-0.131-0.516c-0.088-0.125-0.185-0.217-0.289-0.275c-0.105-0.059-0.207-0.094-0.308-0.107
		c-0.101-0.012-0.163-0.018-0.188-0.018h-1.191V147.264z"/>
	<path fill="#A87C4F" d="M287.742,143.939c0.109,0,0.238,0.018,0.389,0.055c0.15,0.039,0.295,0.107,0.434,0.207
		c0.139,0.102,0.252,0.234,0.346,0.402c0.092,0.168,0.137,0.381,0.137,0.641v3.324c0,0.01-0.006,0.08-0.018,0.213
		c-0.014,0.135-0.061,0.281-0.145,0.439c-0.076,0.15-0.199,0.297-0.371,0.439c-0.172,0.143-0.428,0.213-0.771,0.213h-0.553
		c-0.117,0-0.248-0.018-0.395-0.057c-0.147-0.037-0.289-0.105-0.426-0.205c-0.139-0.102-0.254-0.234-0.346-0.402
		c-0.092-0.168-0.139-0.381-0.139-0.641v-3.324c0-0.109,0.02-0.238,0.057-0.389c0.038-0.152,0.107-0.295,0.207-0.434
		c0.102-0.139,0.234-0.254,0.402-0.346c0.166-0.092,0.381-0.137,0.639-0.137H287.742z M288.658,145.256
		c0-0.227-0.045-0.4-0.139-0.527c-0.092-0.125-0.193-0.215-0.307-0.27c-0.113-0.055-0.217-0.088-0.314-0.1
		c-0.096-0.014-0.148-0.02-0.156-0.02h-0.553c-0.225,0-0.398,0.045-0.52,0.133c-0.121,0.088-0.211,0.186-0.27,0.295
		c-0.059,0.107-0.096,0.211-0.107,0.307c-0.012,0.096-0.02,0.156-0.02,0.182v3.326c0,0.225,0.047,0.4,0.139,0.527
		c0.092,0.125,0.195,0.215,0.307,0.27c0.113,0.055,0.219,0.088,0.315,0.1c0.096,0.012,0.148,0.02,0.156,0.02h0.553
		c0.217,0,0.389-0.045,0.516-0.133c0.125-0.088,0.217-0.184,0.275-0.289c0.059-0.104,0.094-0.207,0.107-0.307
		c0.012-0.1,0.018-0.164,0.018-0.188V145.256z"/>
	<path fill="#A87C4F" d="M294.781,149.484h0.277v0.389h-0.941v-0.389h0.275v-4.141l-1.293,4.393c-0.008,0.041-0.029,0.074-0.062,0.1
		c-0.033,0.025-0.07,0.037-0.111,0.037c-0.102,0-0.164-0.045-0.189-0.137l-1.293-4.393v4.141h0.289v0.389h-0.953v-0.389h0.275
		v-5.156h-0.275v-0.389h0.477c0.092,0,0.154,0.045,0.188,0.137l1.482,5.057l1.467-5.057c0.033-0.092,0.096-0.137,0.19-0.137h0.477
		v0.389h-0.277V149.484z"/>
	<path fill="#A87C4F" d="M298.646,143.939c0.109,0,0.238,0.018,0.389,0.055c0.15,0.039,0.295,0.107,0.434,0.207
		c0.139,0.102,0.254,0.234,0.346,0.402c0.092,0.168,0.137,0.381,0.137,0.641v3.324c0,0.01-0.006,0.08-0.018,0.213
		c-0.014,0.135-0.061,0.281-0.145,0.439c-0.076,0.15-0.199,0.297-0.371,0.439c-0.172,0.143-0.428,0.213-0.771,0.213h-0.553
		c-0.117,0-0.248-0.018-0.395-0.057c-0.146-0.037-0.289-0.105-0.426-0.205c-0.139-0.102-0.254-0.234-0.346-0.402
		c-0.092-0.168-0.139-0.381-0.139-0.641v-3.324c0-0.109,0.02-0.238,0.057-0.389c0.039-0.152,0.107-0.295,0.207-0.434
		c0.102-0.139,0.234-0.254,0.402-0.346c0.166-0.092,0.381-0.137,0.639-0.137H298.646z M299.562,145.256
		c0-0.227-0.045-0.4-0.137-0.527c-0.094-0.125-0.195-0.215-0.309-0.27c-0.113-0.055-0.217-0.088-0.314-0.1
		c-0.096-0.014-0.148-0.02-0.156-0.02h-0.553c-0.225,0-0.398,0.045-0.52,0.133c-0.121,0.088-0.211,0.186-0.27,0.295
		c-0.059,0.107-0.096,0.211-0.107,0.307c-0.012,0.096-0.02,0.156-0.02,0.182v3.326c0,0.225,0.047,0.4,0.139,0.527
		c0.092,0.125,0.195,0.215,0.308,0.27c0.111,0.055,0.217,0.088,0.312,0.1c0.096,0.012,0.148,0.02,0.156,0.02h0.553
		c0.219,0,0.389-0.045,0.514-0.133c0.127-0.088,0.219-0.184,0.277-0.289c0.059-0.104,0.094-0.207,0.108-0.307
		c0.012-0.1,0.017-0.164,0.017-0.188V145.256z"/>
	<path fill="#A87C4F" d="M304.633,143.939v0.389h-1.393v5.156h0.275v0.389h-0.941v-0.389h0.275v-5.156h-1.393v-0.389H304.633z"/>
	<path fill="#A87C4F" d="M306.803,143.939v0.389h-0.275v5.156h0.275v0.389h-0.941v-0.389h0.277v-5.156h-0.277v-0.389H306.803z"/>
	<path fill="#A87C4F" d="M310.392,143.939c0.107,0,0.238,0.018,0.389,0.055c0.15,0.039,0.295,0.107,0.434,0.207
		c0.137,0.102,0.252,0.234,0.344,0.402c0.092,0.168,0.139,0.381,0.139,0.641v3.324c0,0.01-0.006,0.08-0.02,0.213
		c-0.012,0.135-0.061,0.281-0.145,0.439c-0.074,0.15-0.197,0.297-0.369,0.439c-0.172,0.143-0.43,0.213-0.772,0.213h-0.553
		c-0.117,0-0.25-0.018-0.395-0.057c-0.148-0.037-0.289-0.105-0.428-0.205c-0.139-0.102-0.252-0.234-0.344-0.402
		c-0.094-0.168-0.139-0.381-0.139-0.641v-3.324c0-0.109,0.018-0.238,0.057-0.389c0.037-0.152,0.105-0.295,0.207-0.434
		c0.1-0.139,0.234-0.254,0.4-0.346c0.168-0.092,0.381-0.137,0.641-0.137H310.392z M311.308,145.256c0-0.227-0.047-0.4-0.139-0.527
		c-0.092-0.125-0.195-0.215-0.307-0.27c-0.113-0.055-0.219-0.088-0.314-0.1c-0.096-0.014-0.148-0.02-0.156-0.02h-0.553
		c-0.227,0-0.4,0.045-0.521,0.133c-0.121,0.088-0.211,0.186-0.27,0.295c-0.059,0.107-0.094,0.211-0.105,0.307
		c-0.014,0.096-0.02,0.156-0.02,0.182v3.326c0,0.225,0.045,0.4,0.139,0.527c0.092,0.125,0.193,0.215,0.307,0.27
		c0.113,0.055,0.217,0.088,0.314,0.1c0.096,0.012,0.148,0.02,0.156,0.02h0.553c0.217,0,0.389-0.045,0.514-0.133
		c0.125-0.088,0.217-0.184,0.275-0.289c0.059-0.104,0.096-0.207,0.107-0.307c0.014-0.1,0.02-0.164,0.02-0.188V145.256z"/>
	<path fill="#A87C4F" d="M317.142,143.939v0.389h-0.275v5.357c0,0.1-0.051,0.164-0.15,0.188h-0.039c-0.092,0-0.15-0.033-0.174-0.1
		l-2.41-4.869v4.58h0.275v0.389h-0.941v-0.389h0.277v-5.156h-0.277v-0.389h0.465c0.092,0,0.15,0.037,0.176,0.111l2.41,4.869v-4.592
		h-0.277v-0.389H317.142z"/>
	<path fill="#A87C4F" d="M324.094,143.939v0.389h-2.221v2.383h1.945v0.391h-1.945v2.383h0.277v0.389h-0.955v-0.389h0.289v-5.156
		h-0.289v-0.389H324.094z"/>
	<path fill="#A87C4F" d="M329.289,143.951v0.389h-0.275v4.242c0,0.258-0.047,0.473-0.139,0.639
		c-0.092,0.168-0.207,0.301-0.344,0.398c-0.139,0.098-0.283,0.164-0.434,0.201c-0.15,0.035-0.281,0.053-0.389,0.053h-0.553
		c-0.26,0-0.473-0.043-0.641-0.133c-0.166-0.09-0.301-0.201-0.4-0.338c-0.102-0.137-0.17-0.279-0.207-0.426
		c-0.039-0.146-0.057-0.277-0.057-0.395v-4.242h-0.277v-0.389h0.941v0.389h-0.275v4.242c0,0.023,0.006,0.088,0.02,0.188
		c0.012,0.1,0.047,0.203,0.105,0.307c0.059,0.105,0.15,0.201,0.277,0.289c0.125,0.088,0.297,0.133,0.514,0.133h0.553
		c0.025,0,0.088-0.008,0.188-0.02c0.1-0.012,0.203-0.049,0.307-0.107c0.105-0.057,0.201-0.148,0.289-0.27
		c0.088-0.121,0.133-0.295,0.133-0.52v-4.242h-0.277v-0.389H329.289z"/>
	<path fill="#A87C4F" d="M334.459,143.939v0.389h-0.275v5.357c0,0.1-0.051,0.164-0.152,0.188h-0.037c-0.092,0-0.15-0.033-0.176-0.1
		l-2.408-4.869v4.58h0.275v0.389h-0.941v-0.389h0.277v-5.156h-0.277v-0.389h0.465c0.092,0,0.15,0.037,0.176,0.111l2.408,4.869
		v-4.592h-0.275v-0.389H334.459z"/>
	<path fill="#A87C4F" d="M338.049,143.951c0.107,0,0.238,0.02,0.389,0.057c0.15,0.037,0.295,0.105,0.432,0.207
		c0.139,0.1,0.254,0.234,0.346,0.4c0.092,0.168,0.139,0.381,0.139,0.641v3.326c0,0.258-0.047,0.473-0.139,0.639
		c-0.092,0.168-0.207,0.301-0.346,0.398c-0.137,0.098-0.281,0.164-0.432,0.201c-0.15,0.035-0.281,0.053-0.389,0.053h-2.135v-0.375
		h0.277v-5.158h-0.277v-0.389H338.049z M338.965,145.256c0-0.217-0.045-0.389-0.133-0.514c-0.088-0.127-0.184-0.219-0.289-0.277
		c-0.104-0.059-0.207-0.094-0.307-0.105c-0.102-0.014-0.164-0.02-0.188-0.02h-1.469v5.158h1.469c0.023,0,0.086-0.008,0.188-0.02
		c0.1-0.012,0.203-0.049,0.307-0.107c0.105-0.057,0.201-0.148,0.289-0.27c0.088-0.121,0.133-0.295,0.133-0.52V145.256z"/>
</g>
<g>
</g>
<g>
</g>
<g>
</g>
<g>
</g>
<g>
</g>
<g>
</g>
</svg>
