<?xml version="1.0" encoding="UTF-8"?>
<svg id="b" data-name="Layer 2" xmlns="http://www.w3.org/2000/svg" width="433.501" height="439.667" viewBox="0 0 433.501 439.667">
  <g id="c" data-name="Layer 1">
    <g id="d" data-name="RaWeOZ">
      <g>
        <path d="M428.185,247.586c-.523,1.35-1.081,2.671-1.736,3.961-.836,5.855-1.92,11.647-3.219,17.548-5.308,24.102-14.71,46.949-28,67.793-17.123,26.856-40.061,49.605-67.001,66.591-62.585,39.463-141.387,42.436-206.808,7.731-28.524-15.132-53.106-34.592-73.062-60.157-15.469-19.818-27.067-42.3-34.234-66.384-1.992-6.693-3.64-13.45-4.968-20.245-.022,2.575-.025,5.15.015,7.726.071,4.541.264,9.082.579,13.612.068.982.155,1.962.25,2.94,10.019,31.96,27.712,60.929,51.634,84.677,18.225,18.092,39.561,32.876,62.575,44.353,29.034,14.478,61.013,21.935,93.75,21.935,43.068,0,84.472-12.946,119.725-37.116,36.749-25.196,65.45-60.362,81.388-102.153,8.264-21.669,13.036-44.41,14.163-67.405-.609,1.782-1.264,3.549-1.86,5.343-1.03,3.097-2.013,6.205-3.193,9.25Z"/>
        <path d="M6.618,268.804c.226-4.551.541-9.096.862-13.641.008-.116.016-.232.024-.348-6.242-41.892-.111-84.874,17.591-123.766,11.615-25.521,27.761-48.755,48.158-68.028,25.034-23.656,55.344-40.933,88.512-50.229,20.672-5.794,42.827-8.544,64.252-7.831,44.466,1.48,87.033,17.328,121.514,45.545,15.096,12.354,28.663,26.857,39.887,42.934,16.188,23.19,27.838,49.294,34.606,76.735,5.516,22.365,7.482,45.142,5.862,68.07-.109,1.547-.243,3.077-.39,4.601.599-2.108,1.2-4.213,1.873-6.301,1.05-3.26,2.227-6.466,3.102-9.783.378-1.433.714-2.876,1.032-4.323.003-7.719-.402-15.453-1.229-23.171-2.083-19.44-6.507-38.282-13.432-56.562-12.808-33.808-31.741-62.909-58.32-87.546-25.126-23.29-55.719-40.111-88.989-48.628C217.093-7.402,157.587,1.229,109.241,29.819c-40.526,23.966-71.042,58.955-90.075,101.974-9.188,20.768-15.01,42.674-17.675,65.246-2.965,25.108-1.453,50.411,4.055,75.056.257,1.149.525,2.295.801,3.438.062-2.245.161-4.489.272-6.729Z"/>
        <path d="M229.457,430.277c-4.013-.328-8.026-.713-12.019-1.246-.786-.001-1.574-.006-2.362-.017-30.649-.409-60.404-7.986-87.631-21.88-13.083-6.676-25.367-14.406-36.994-23.383-32.151-24.822-56.394-58.677-68.642-97.546-16.66-52.869-11.691-111.079,13.447-160.507,13.266-26.084,30.124-47.808,52.554-66.654,13.442-11.294,28.248-20.486,44.085-28.057,28.223-13.494,60.401-19.932,91.584-19.386.684.012,1.367.03,2.05.05,1.173-.278,2.349-.534,3.522-.768,2.858-.571,5.744-.995,8.643-1.289-1.241-.11-2.484-.212-3.728-.297-25.713-1.763-51.576,1.083-76.265,8.686-35.157,10.825-66.927,30.96-91.704,58.111-21.034,23.049-36.559,50.323-46.203,79.988-5.875,18.07-9.131,36.783-10.134,55.773-1.343,25.414,1.967,50.78,9.594,75.026,10.26,32.621,28.678,61.259,53.25,84.803,19.076,18.278,43.61,33.981,67.966,44.2,27.325,11.465,56.757,16.654,86.495,15.417,2.79-.116,5.473-.299,8.115-.533-1.875-.167-3.749-.336-5.625-.49Z"/>
        <path d="M421.807,190.079c-4.254-27.733-13.687-54.228-27.664-78.545-10.481-18.234-23.647-34.728-39.003-49.113-28.37-26.576-64.277-44.482-102.559-50.915-.466-.02-.932-.047-1.399-.06-5.291-.154-10.615.074-15.879.73,50.515,4,97.541,27.788,131.302,65.806,9.048,10.188,17.075,20.92,23.986,32.698,11.907,20.293,20.771,42.098,25.892,65.122,5.607,25.205,6.985,51.08,3.107,76.623-3.233,21.293-9.306,41.832-18.806,61.204-10.451,21.311-24.543,40.971-41.586,57.521-33.523,32.555-75.501,52.397-121.231,56.898,2.479.265,4.956.554,7.435.847.888.105,1.779.2,2.672.29.98-.148,1.967-.303,2.962-.463,27.774-4.478,53.961-14.707,77.549-30.047,32.044-20.839,57.222-49.238,74.199-83.446,9.828-19.804,16.07-40.993,19.379-62.83,3.147-20.769,2.829-41.561-.355-62.32Z"/>
        <path d="M265.346,388.678c-9.415-8.686-15.559-20.415-16.04-33.443-.399-10.82,3.029-22.147,8.795-32.16,1.32-3.768,2.804-7.486,4.343-11.143,1.998-4.746,4.228-9.366,6.913-13.747-2.619,2.329-5.126,4.795-7.501,7.42-8.649,9.56-14.384,21.09-16.605,33.699-1.279,7.264-.906,13.957.225,21.136.819,5.198-1.586,10.357-4.95,14.169-6.531,7.401-17.735,10.088-27.588,10.5-15.181.635-32.651-4.32-43.597-15.1-4-3.939-6.828-8.609-8.049-14.121-.242-3,.983-5.74,3.319-7.651,4.617-1.213,8.322-4.642,9.377-9.352,1.111-4.96-1.311-10.062-5.98-11.888-3.524-1.378-7.409-.444-9.536,2.574-.913,1.295-1.266,2.913-.83,4.487.361,1.307,1.564,2.477,3.112,3.175.453-.286.743-.47.648-.41-1.348-1.289-1.719-2.535-1.164-4.057.863-2.367,3.626-3.545,6.051-2.636,3.773,1.414,5.285,5.693,3.511,9.344-1.768,3.637-5.643,5.612-9.773,5.397-8.152-.425-14.656-7.496-17.482-15.076-2.663-7.141-3.157-14.604-1.499-22.112.258-1.168.552-2.322.875-3.464-1.333,1.494-2.532,3.082-3.55,4.821-1.452,2.481-2.597,4.956-3.567,7.554.102,2.157.357,4.273.901,6.473l-1.461,2.8c.024.02.043.045.068.065.375.293-.069.817-.453.672l-1.339,2.566c-1.611,3.088-3.766,5.805-6.338,8.055-1.694,1.482-3.734,1.769-5.899.555-.118,2.349,1.581,4.476,3.448,5.165,4.921,1.817,8.335-4.598,10.69-9.656l2.426-5.208,4.445,8.988c-1.056,3.541-2.994,6.839-5.209,9.727-.965,1.258-2.532,1.735-4.239,2.274.064,1.199,1.146,2.337,2.335,2.63,3.14.772,5.372-2.743,6.863-6.22l2.384-5.559,5.46,4.947c-1.695,4.596-3.201,10.106-7.642,11.779-.084,1.887,2.219,2.961,3.956,2.134,1.478-.704,2.743-2.342,3.316-4.023l2.848-8.362,4.728,1.935-.529,5.069c-.369,3.533-1.943,8.466-5.167,10.164.24.793,1.258,1.717,2.092,1.79.672.059,2.254-.413,2.54-1.052l1.984-4.427c4.884,12.102,14.482,19.285,25.987,24.241,7.358,3.169,14.979,4.532,22.752,5.659,2.772.402,3.835,3.792,2.815,5.905,1.467.553,3.524-.193,4.156-1.439.668-1.317-.416-2.985-1.227-4.227,5.997,1.018,12.25,6.355,10.408,11.51-.374,1.046-1.396,2.067-2.489,2.198-.745.089-1.926-.576-2.951-1.138-.269,3.104,2.384,5.033,4.865,5.262,2.767.256,4.953-1.389,5.809-4.096,1.674-5.293-2.993-11.314-8.252-14.382l4.855-.854c8.007,2.671,15.636,11.625,13.289,19.602-.857,2.911-3.468,4.393-6.618,4.317,1.267,2.314,3.447,3.422,5.704,3.514,2.183.09,4.271-1.146,5.599-3.175,5.356-8.187-3.258-20.953-12.376-25.683l5.649-2.534c4.857,1.821,9.14,4.939,12.698,8.873,4.849,5.363,9.134,14.078,5.956,20.543-1.158,2.356-3.148,3.426-5.912,4.031,2.939,3.465,7.682,3.456,10.698.339,2.354-2.433,2.92-6.004,2.519-9.679,5.604-1.367,8.553-6.676,7.089-12.444,2.232,1.636,4.526,2.792,7.089,2.978,2.217.16,4.135-1.483,3.704-3.61-5.152.034-9.656-3.385-13.478-6.911ZM260.139,404.41c-3.824-9.979-11.207-17.323-20.762-22.509,4.097-3.146,7.468-6.617,9.389-11.216l6.263,10.578,6.81,8.742,2.445,5.794c.879,2.083-.059,8.35-4.144,8.612Z"/>
        <path d="M326.47,315.627l-.542.487c-.872.783-2.115,1.653-3.17,1.68-5.949.15-5.936-18.3-5.006-25.144l1.861-13.693c-.004-.631.002-1.262.031-1.891.084-1.836.246-3.694.564-5.505.295-1.681.789-3.35,1.318-4.97.515-1.576,1.102-3.133,1.755-4.662-4.825,3.813-9.962,7.321-15.337,10.579l-19.62,11.891c-1.757,1.065-3.489,2.16-5.194,3.286-1.667,1.752-3.27,3.564-4.792,5.442-.464.573-.936,1.139-1.396,1.715-.196.245-.389.491-.583.738-.034.043-.059.075-.08.102-.021.028-.048.063-.086.113-.084.11-.168.221-.252.331-.847,1.119-1.664,2.26-2.45,3.423-2.36,3.495-4.413,7.164-6.284,10.93,2.513-2.804,5.209-5.374,8.035-7.642l-7.159,12.031c-5.329,8.956-8.983,18.531-10.726,28.832-1.107,6.54-.964,12.732,1.107,18.991,2.138,6.462,5.677,12.094,10.249,17.102,3.914,4.288,10.756,10.769,14.86,7.32,1.209-1.016,1.631-3.181.913-4.544-3.72,2.155-8.791-1.506-12.069-4.632-4.563-4.35-7.791-9.531-10.108-15.448-5.492-14.024-1.118-30.152,5.649-43.333,3.917-7.629,8.394-14.723,13.698-21.464.985-1.252,2.858-2.091,4.239-2.879l-9.447,18.426c-5.272,11.602-10.678,27.848-8.399,40.243,1.479,8.041,6.069,15.07,12.282,20.212,2.956,2.446,6.566,3.374,8.49.894.837-1.078.898-2.683.582-3.994-4.903,2.249-10.486-3.636-13.454-8.028-13.984-20.695,2.733-51.299,14.05-70.872l3.952-2.178-4.524,10.454c-4.011,9.27-7.297,18.651-9.524,28.545-2.862,12.716-2.724,26.046,7.851,34.443,1.377,1.093,3.238,1.312,4.808.805,1.987-.641,2.943-3.182,1.82-4.629l-2.761-.736c-2.626-.699-4.713-2.221-6.222-4.586-4.996-7.827-4.948-18.28-2.773-27.393,2.477-10.377,6.006-20.192,10.477-29.843l4.459-9.626,4.063-2.194-8.334,24.211c-2.234,6.49-3.33,13.077-4.19,19.875-.561,4.435-.451,8.824.377,13.111.683,3.534,2.312,6.178,4.553,8.866,1.294,1.553,1.556,4.403,1.128,6.257l.245.689c2.807-.89,4.449-3.021,4.327-5.896-.226-5.329-4.887-6.439-6.799-12.964-4.546-15.517,5.928-40.864,12.063-56.334l4.37-2.551-6.319,26.809c-1.814,7.696-3.185,25.995,3.075,26.948,3.974.604,7.276-4.278,6.959-8.785l-.74.453c-.657.795-1.986,1.772-3.13,1.613-3.398-.471-4.244-8.273-4.123-12.938.183-7.028,1.366-13.766,3.16-20.558l4.063-15.378,5.398-3.313-2.539,19.656c-1.032,7.989-2.806,28.295,4.019,29.921,1.071.255,2.84-.287,3.735-1.005,3.717-2.982,3.903-8.14,3.544-7.817Z"/>
        <path d="M399.798,201.52c.492-3.964-.945-7.975-3.927-10.684l-.658-.598c-.427-.388,4.123-1.447,4.476-7.104.317-5.07-2.536-9.399-7.47-11.017,3.473-2.816,4.359-6.974,3.034-11.029-1.122-3.431-4.509-5.947-8.494-6.596,2.526-2.865,3.651-6.002,3.072-9.481-.902-5.427-6.73-9.256-12.272-6.988,4.017,1.71,7.141,4.813,6.296,9.138-1.665,8.517-16.095,13.899-25.019,14.174l-4.413-6.634,8.67-3.576c4.216-1.739,7.735-4.679,10.847-7.989,5.649-6.007,7.568-15.254,1.081-20.217-2.719-2.08-5.915-2.659-9.341-1.584.436-5.639-1.027-10.921-4.74-15.095-3.618-4.067-9.203-5.467-14.339-3.372-3.568-6.525-9.536-12.441-17.004-12.737-4.111-.163-7.786.86-10.982,4.04-.146-6.015-1.919-11.26-5.559-15.966-5.707-7.381-13.757-12.452-22.961-14.374-1.259-10.243-11.865-18.108-21.476-20.015l-7.464-1.481c-1.014-2.45-2.518-4.705-4.655-6.364l-7.496-5.82c-2.217-1.722-4.734-2.783-7.346-3.814-1.121-.442-2.185-.078-2.826.871l2.767,1.462,8.374,6.785c3.634,2.944,7.605,6.838,5.02,10.223-1.918,2.512-4.541,4.267-7.672,5.295-10.343,3.395-21.57,3.589-31.907.213-5.029-1.642-10.949-6.021-8.696-10.16.962-1.767,2.298-3.354,3.868-4.633l8.145-6.638c2.846-2.319,6.153-3.255,9.785-3.581l7.496-.673c.123-.15.235-.304.115-.347l-.717-.26c-4.024-.484-8.055-.462-11.813.614-.624,1.48-1.638,1.32-3.061,1.077-2.635-.451-12.096,6.802-15.697,9.965-1.738,1.526-2.826,3.534-3.617,5.643l-6.223,1.146-3.485.734c-9.308,1.96-18.23,9.88-19.411,19.821-7.931,1.139-15.255,4.244-21.183,9.225-.353.944-.682,1.897-.966,2.865-.345,1.175-.638,2.366-.873,3.568-.118.601-.214,1.204-.309,1.808-.005.035-.01.063-.014.086-.002.018-.004.037-.007.062-.016.129-.032.259-.047.389-.008.069-.014.139-.022.209,2.014-3.482,4.755-6.613,8.179-9.162,4.505-3.354,9.674-5.499,15.383-5.327,2.056,8.486,9.101,14.55,16.448,18.781,19.715,11.355,45.204,13.224,67.104,7.854,1.002-.246,2.024-.521,3.056-.82,1.579-1.352,3.098-2.787,4.529-4.293,1.444-1.519,2.724-3.157,3.928-4.855-3.296,1.597-6.71,2.855-9.915,3.772-17.175,4.915-35.411,4.811-52.48-.41-9.568-2.926-21.328-8.649-25.905-17.479-2.695-5.198-1.731-11.197,1.772-15.896,4.689-6.289,12.408-9.883,20.479-9.341,2.405,6.456,9.639,10.194,16.346,11.816,9.035,2.185,18.339,2.155,27.391-.002,6.651-1.585,13.693-5.207,16.118-11.727,8.124-.119,15.901,3.524,20.554,10.319,3.235,4.723,3.853,10.473,1.322,15.366-2.11,4.08-5.68,7.502-9.853,10.276-1.109,2.209-2.262,4.412-3.632,6.472-.671,1.008-1.384,1.987-2.13,2.939,10.531-4.53,20.374-11.949,22.629-22.843,10.559.308,19.35,10.089,21.525,19.953,3.407,15.449-7.346,32.609-19.276,42.421-7.362,6.054-15.58,10.671-24.669,13.806-27.152,9.365-56.925,8.295-83.326-2.896-13.941-5.909-29.122-15.888-36.124-29.361-3.468-6.673-4.302-14.045-2.771-20.871-.076-.514-.146-1.03-.204-1.546-.394-3.512-.203-7.043.458-10.495-9.427,11.838-10.095,27.948-.978,40.116l.498.665c.068.09-.376.099-.592.101-7.432-2.337-14.789-3.317-22.646-3.147-22.222-.1-42.344,9.824-54.939,28.173-9.447,13.763-14.061,30.067-13.417,46.803.7,18.184,7.92,33.85,20.02,47.425.467.517.218.685-.453.471-4.661-.048-8.595,3.338-8.286,7.993.248,3.734,2.998,6.087,6.162,7.611-4.337,1.949-6.506,6.485-4.668,10.638,2.085,4.713,9.437,5.049,14.903,5.091-1.607,2.088-2.721,4.383-2.879,7.044-.184,3.092,2.288,5.853,5.553,5.791,2.639-.05,5.466-.538,8.002-1.454l15.534-5.609,18.969-6.788,6.889,1.269-11.498,6.282c-8.299,4.534-16.467,8.871-25.23,12.446-4.542,1.853-9.345,3.158-11.609-1.004l-.762-.055c-1.191,2.613-.671,4.908.993,6.805,1.4,1.596,3.979,2.216,6.288,1.409,4.323-1.511,8.207-3.604,12.221-5.922l23.9-13.8,10.671-5.711,6.46.221-6.393,4.735-19.357,14.666-13.712,9.61c-2.053,1.439-4.349,2.479-6.652,3.347-2.545.959-4.993.255-7.175-1.64-.762,2.748.376,6.058,3.208,7.103,1.889.697,4.536.486,6.169-.629l7.962-5.436,25.794-20.782c4.873-3.926,9.706-7.287,14.944-10.633,1.214-.776,2.705-1.194,4.018-1.151l-6.635,7.845-5.558,5.16-16.995,17.381-12.275,11.424c-2.105,1.958-4.518,3.363-7.318,4.219-1.492.456-3.2-.397-4.651-1.122-.294,2.499,1.146,4.762,3.102,5.778,1.881.977,4.424.647,6.315-.758,4.711-3.502,8.544-7.79,12.51-12.232,6.517-7.297,12.737-14.472,19.894-21.335-2.46,5.35-4.406,10.257-5.884,15.64-4.111,6.542-8.149,12.656-13.196,18.346-3.722,4.009-7.895,8.909-12.811,6.364-.187,2.247,1.156,4.183,2.808,5.059,1.705.904,4.166.842,5.778-.465,2.675-2.168,4.901-4.741,6.768-7.664l8.085-12.661c.64-1.718,1.427-3.385,2.302-4.95,1.994-3.57,5.076-6.641,8.207-9.223.153-.126.31-.245.464-.369,4.185-9.881,10.917-18.49,19.596-25.12,1.713,3.674,6.326,5.754,9.104,3.135-2.612-2.69-2.847-5.883-1.632-9.119,1.067-2.84,3.232-4.993,5.269-7.241l5.111-5.643c13.046-14.405,16.024-35.924,6.758-53.77-3.156-6.078-7.219-11.39-12.086-16.018,2.064,4.287,3.56,8.826,4.488,13.486,1.873,2.957,3.451,6.111,4.723,9.455,6.547,17.227.375,36.169-14,47.509-15.861,12.513-36.544,13.366-55.396,7.375-.912.182-1.827.354-2.745.503-2.688.435-5.403.784-8.129.828l4.029,2.009c-9.994,1.569-23.215,3.092-32.798.937-2.272-.511-4.485-1.777-5.412-3.894-.91-2.078.215-4.432,1.711-5.839,3.808,1.286,7.355,2.467,11.306,2.848l15.531,1.5c.212-.025.425-.048.637-.076,1.534-.206,3.066-.417,4.598-.634,1.469-.207,2.936-.441,4.4-.7-8.376-3.481-16.198-8.269-22.825-13.91-12.818-10.911-21.703-25.481-24.894-42.091-3.432-17.86.151-36.31,9.802-51.615,2.803-4.445,6.07-8.092,9.916-11.616,13.393-12.272,31.876-17.074,49.648-13.239,6.635,1.432,12.654,3.593,18.759,6.462l22.158,10.415c12.484,5.868,25.378,9.895,39.068,11.994,14.454,2.216,28.65,1.789,42.949-1.044,7.513-1.488,14.484-3.433,21.824-5.588,16.531-4.853,33.745-8.533,50.666-4.475,1.895.454,3.733,1.025,5.512,1.697.539-.232,1.38-.621,1.994-.928,1.756-.879,3.491-1.856,5.034-3.037l-.035-.021c10.062-8.887,14.175-22.2,9.131-35.286,4.855-.11,8.908,3.183,10.496,7.721,1.296,3.704,1.158,7.402.354,11.333-2.26,8.075-7.557,14.832-15.079,19.266l-1.916-1.186c-1.652,1.609-3.515,2.967-5.508,4.118,8.742,4.469,15.647,11.733,19.792,21.03,8.264,18.538,4.975,39.904-3.798,57.914-5.763,11.829-13.687,21.738-23.097,30.226-2.056,3.797-3.747,7.76-4.926,11.905-.171.602-.33,1.208-.49,1.815l1.501-1.054.821-.491c.163-.097.055.715.052.912l-.295,22.856c-.068,5.275.452,10.288,1.351,15.412.361,2.056,1.319,3.984,2.582,5.597,1.404,1.794,4.133,1.96,5.886.559,2.566-2.051,4.078-5.196,3.817-8.445-1.414,1.181-2.494,2.293-4.017,2.649-3.214.75-5.191-5.833-5.86-10.192-1.1-7.164-1.473-14.294-1.214-21.553l.358-10.033,5.855-4.989c.277-.242.55-.48.566-.294l.079.927,1.149,13.324,2.672,19.846c.429,3.188,1.761,6.081,3.512,8.714.836,1.256,2.489,1.865,3.857,1.751,4.762-.399,7.323-7.669,7.458-12.938,2.304,2.521,4.322,3.864,7.076,2.155,2.799-2.202,4.335-5.606,3.974-9.134l-.284-.787c-.112-.311-1.296,2.963-3.57,3.562-3.077.809-5.564-2.656-7.042-6.1-2.555-5.954-4.437-11.911-5.76-18.292l-2.932-14.152,4.385-5.884.457.306,5.288,15.861,5.651,13.989c.947,2.345,2.457,4.397,4.113,6.227,1.374,1.518,3.578,2.348,5.519,1.548,4.108-1.694,6.24-8.372,5.035-13.278,1.473.31,2.971.24,3.956-.603,2.68-2.293,3.818-5.801,2.988-9.196-1.315,2.107-2.927,4.012-5.311,3.521-2.863-.589-4.895-2.676-6.656-4.942-5.991-7.709-10.432-16.317-14.07-25.286l2.5-5.442c.112-.297.275-.668.406-.533l.525.541c4.488,7.299,9.028,14.357,14.526,20.918,3.749,4.532,10.115,9.694,13.432,4.987,2.378-3.374,2.724-7.692.904-11.649l-.638.434c-.302,1.602-.554,3.116-1.177,4.393-2.484,5.085-8.948.469-13.067-3.919-5.334-5.684-9.874-12.134-13.447-18.932l2.237-6.317c5.158,6.146,10.102,12.019,15.908,17.222,2.331,2.089,4.948,3.714,7.726,4.858,2.571,1.058,5.087.032,6.435-2.316,2.136-3.72,1.778-8.219-.116-12.065l-.317-.645c-.158-.321,4.216-.812,5.067-5.94.629-3.788-.726-7.579-3.277-10.523,2.967-.834,4.816-3.1,5.184-6.062ZM83.367,270.375l13.792-1.746,16.955-2.668,7.677,2.544-4.893,1.806-20.045,6.142c-3.526,1.08-7.071,1.512-10.703,1.627-1.663.053-3.614-.876-4.264-2.28-.894-1.932.059-4.18,1.482-5.426ZM95.194,256.836c-8.481-.555-26.398-4.802-23.966-12.785.504-1.656,2.156-2.909,4.25-3.488,5.79,6.222,12.44,11.194,19.716,16.273ZM316.775,135.629l-5.207-.048c2.029-2.427,3.169-4.687,2.332-7.505-.341-1.148-1.462-2.381-2.369-2.769-2.33-.995-6.924,1.2-5.782,2.631,1.656.921,2.992,1.928,2.188,4.085-.475,1.273-2.054,3.375-3.632,3.561l-9.662,1.144c5.654-4.389,9.891-9.106,14.006-14.53,1.075-1.417,3.631-2.325,5.323-2.483,3.453-.324,5.937,2.332,6.499,5.557.666,3.827-.996,7.483-3.693,10.356ZM326.365,137.078l-4.724-.825c5.156-5.733,6.333-14.709.885-19.716-2.533-2.328-6.044-2.941-9.244-1.485.801-3.156,3.345-5.136,5.886-5.995,3.204-1.084,6.303-.074,8.77,2.082,7.13,6.232,5.331,19.04-1.572,25.94ZM339.971,134.666l-4.292,5.303-5.077-1.78c8.747-9.067,10.222-23.873.891-32.068-3.906-3.43-9.087-4.133-13.983-1.633.033-3.23,2.382-5.952,5.408-7.203,9.331-3.857,18.317,4.584,20.882,14.25,2.135,8.042.756,16.21-3.829,23.131ZM346.847,146.899c4.522-2.586,8.495-5.637,11.769-9.46,3.401-4.254,5.847-8.854,6.83-14.31,4.633.559,7.865,4.297,7.488,8.95-.324,3.998-2.258,7.345-4.938,10.312-4.196,4.539-9.624,7.718-15.689,9.593l-5.46-5.084ZM348.286,276.099c1.296,5.001,2.567,9.657,4.581,14.427-.58,3.649-1.713,8.164-4.615,8.243-7.716.211-10.003-31.33-10.378-40.101l5.755-5.807,4.657,23.237ZM367.002,258.15c2.187,3.591,4.332,6.818,7.198,9.809.196,3.43-.814,7.33-3.265,7.851-7.633,1.623-16.691-26.142-18.908-34.453l3.659-5.918,11.316,22.71ZM394.256,179.717c-.107,10.455-19.733,6.525-28.294,3.117l-1.581-7.973,16.528.372c3.432.077,6.518-.911,9.799-2.179,2.009,1.562,3.575,4.043,3.548,6.663ZM360.354,164.304l13.479-2.752c4.505-.92,8.279-3.213,11.828-5.958,1.697.879,3.215,1.946,3.837,3.431,1.501,3.587.666,7.141-2.479,9.458-5.888,4.338-16.225,4.292-23.672,3.254l-2.993-7.433ZM389.608,232.456c-6.191,4.541-21.076-11.793-25.682-18.454l1.653-6.921,5.243,4.39c5.867,4.912,12.257,10.032,19.684,12.203,1.415,3.236,1.772,6.823-.899,8.783ZM391.828,217.418c-2.157,1.033-4.659.496-6.77-.27-6.487-2.354-11.888-6.495-16.952-11.1l-2.084-1.895.637-7.477,15.665,8.017c3.343,1.711,6.731,2.37,10.543,2.907,2.333,3.53,2.315,8.21-1.039,9.816ZM390.395,202.145c-6.511.856-17.657-4.477-23.624-8.367l-.275-7.816,13.404,3.834c4.511.764,8.689,1.268,13.248.807.943,1.403,1.951,3.102,2.239,4.918.564,3.566-1.709,6.192-4.992,6.624Z"/>
        <path d="M138.958,164.675c-14.939-2.241-30.173,1.244-40.019,12.738-13.017,15.195-9.799,37.916,6.58,49.27,7.295,5.057,15.789,7.977,24.835,7.062,7.787-.788,14.907-4.702,18.722-11.623,5.45-9.889,2.191-22.084-7.068-28.365-7.604-5.158-18.415-4.774-22.671,2.646-2.39,4.167-1.804,9.2,1.669,12.423,2.384,2.213,5.943,2.745,8.569.856,1.94-1.396,2.335-3.972.806-5.793-.577-.686-2.093-1.152-2.924-.76-.661.311-1.274,1.364-1.762,2.319-2.566-1.292-2.739-4.503-.957-6.68,2.342-2.86,6.368-3.573,9.996-2.561,5.071,1.414,8.741,5.387,10.25,9.787,1.877,5.472.923,11.027-2.601,15.375-3.96,4.887-10.029,7.147-16.429,6.978-10.259-.27-19.679-5.862-24.998-14.603-5.507-9.051-5.578-20.139-.186-29.247,7.691-12.993,23.511-17.231,38.211-14.664,12.265,2.142,23.549,7.669,32.796,15.981,1.121,1.007,2.189,2.054,3.207,3.136-1.154-3.732-2.664-7.38-4.512-10.812-9.358-6.992-19.906-11.719-31.515-13.461Z"/>
      </g>
    </g>
  </g>
</svg>