<?xml version="1.0" encoding="UTF-8"?>
<svg id="b" data-name="Layer 2" xmlns="http://www.w3.org/2000/svg" width="563.26" height="341.507" viewBox="0 0 563.26 341.507">
  <g id="c" data-name="Layer 1">
    <g id="d" data-name="UUpDBP">
      <g>
        <path d="M29.914,170.054l-5.609-40.629c-2.84-20.57-7.575-31.201-15.787-49.428C3.055,67.871-1.895,54.929.719,41.737c1.739-8.777,7.517-15.468,15.989-18.288,13.052-4.344,26.81.308,37.838,8.133,9.728,6.903,17.334,15.747,26.669,23.022,6.675,5.202,13.822,9.418,22.028,11.721,8.737,2.453,17.583,2.924,26.691,1.946,10.163-1.092,19.919-2.912,29.859-4.873-3.108-12.874-6.707-26.001-3.174-38.316,2.175-6.774,7.154-11.596,14.032-13.471,13.292-3.623,24.391,3.599,33.306,13.27l13.909,15.087c3.95,4.285,8.162,8.002,12.808,11.433,1.611,1.19,3.37,1.812,5.386,1.408,2.121-10.62,1.677-21.167-.553-31.7-1.027-4.852.545-9.307,5.119-11.478,4.628-2.197,9.61-3.27,14.928-3.714,16.474-1.376,39.794.903,54.367,8.386,5.337,2.74,8.738,7.637,6.199,12.824l-4.598,9.397c-4.459,9.16-7.04,19.117-7.61,29.252l19.552,7.892c5.976-6.259,10.858-12.897,15.75-19.85l11.723-18.09c3.867-5.967,7.903-11.435,12.809-16.61,13.635-14.386,35.663-24.457,54.442-16.061,7.377,3.298,12.87,9.137,16.864,16.078,1.354,2.352,3.008,4.106,5.881,4.532,2.604.387,5.458.653,8.173.151l17.16-3.169,19.775-3.98c7.416-1.493,13.108,1.993,20.912-.208l14.562-4.107c4.727-1.333,9.298-2.413,14.21-2.931,9.867-1.041,18.735,3.763,23.44,12.498,5.041,9.36,5.441,20.586,1.12,30.327-3.617,8.156-10.515,13.571-19.124,15.537l-15.532,3.546c-10.99,2.509-21.368,6.098-31.167,11.775-13.74,7.959-25.557,18.641-34.707,31.59-9.183,12.995-14.15,27.77-15.277,43.611l-.882,36.394c-.257,10.609-.357,20.728-1.842,31.176-3.076,21.642-12.117,41.386-26.679,57.67-21.257,23.769-49.173,38.746-79.734,47.451-28.939,8.243-58.847,11.364-88.974,10.314-27.105-.945-53.723-5.164-79.394-13.452-3.073-.992-5.841-.395-8.705.562-8.231,2.749-16.949,1.775-24.635-2.329l-12.269-7.56c-11.393-7.02-22.725-9.049-33.18-16.092-3.291-2.217-5.998-5.019-7.766-8.488-2.053-4.028-1.564-7.996-.141-12.173.893-2.621-.719-5.813-2.645-7.785-20.395-20.882-34.738-46.267-41.82-74.629-2.442-9.782-4.49-19.102-5.9-29.312ZM348.625,104.005c-2.322,1.722-3.666,3.804-5.381,5.922l-2.501,3.09c4.804,2.903,10.004,5.8,15.76,6.372,2.242.223,3.927-2.51,4.583-4.285,1.12-3.032,2.175-5.767,4.235-8.124,3.127-3.577,7.835-4.558,10.342-1.585,2.853,3.384-.478,9.879-5.815,12.437-3.089,1.48-6.324,1.901-9.923,2.423,7.254,1.334,15.243,1.007,21.892-2.663-.799-4.748,1.041-9.548,4.857-12.294,1.106-.796,3.146-1.153,3.975-.018,1.003,1.373.183,3.2-.347,4.772,12.792-10.307,26.451-19.045,41.047-26.421l8.572-4.332c-7.271-7.428-6.253-18.902-3.536-28.878,1.817-6.674,2.258-13.57-.175-20.117-2.162-5.817-5.293-11.032-9.272-15.732-10.316-12.185-27.042-13.021-41.199-6.462-6.48,3.002-12.099,6.813-17.2,11.869-4.928,4.884-9.13,10.211-12.909,16.06l-9.064,14.028c-5.026,7.779-10.334,15.048-16.303,22.119l1.205-.062c.679-.035,2.462,3.657-.472,7.257-1.56,1.914-3.529,3.436-6.27,2.669l1.505-5.494-1.866,1.812c-.944,5.963-.579,11.818,2.039,17.593.607-7.095,7.768-14.039,11.761-11.627.821.496,1.875,1.924,1.982,3.115.415,4.595-2.366,8.725-6.436,10.541-2.067.897-3.693.423-6.341-.537,2.144,5.942,6.464,10.49,11.835,14.444-.284-6,2.319-11.039,6.959-14.571,2.326-1.771,5.047-2.095,7.554-.622,2.143,1.258,3.417,3.773,3.075,6.572-.787,6.429-7.746,11.249-14.305,9.954l1.7-1.935,4.438-7.29ZM308.042,27.819c1.823-.616,3.883-1.933,4.613-3.687,1.81-4.349-7.407-8.309-12.601-9.903-15.055-4.618-35.356-6.493-50.78-3.461-4.009.788-9.56,2.617-9.766,5.692-.625,9.345,45.566,19.115,68.535,11.359ZM521.592,53.133c2.763,5.152,7.577,9.363,13.586,10.535,5.798,1.13,11.471-.793,15.929-4.729,10.88-9.605,11.496-28.83,1.868-39.571-6.862-7.656-18.087-8.44-25.826-1.772-3.949,3.402-6.429,7.838-7.808,12.844-1.448,5.256-1.148,10.276-.351,15.637l.812,5.462.973,3.409.818-1.815ZM215.059,54.224l11.508-.817c-6.98-5.763-12.904-11.887-18.773-18.447-3.639-4.067-7.046-7.956-11.061-11.6-7.747-7.033-17.294-10.981-27.206-6.899-5.21,2.146-8.511,6.394-9.599,11.98-1.224,6.74-.895,13.592.601,20.36l3.069,13.885,15.796-2.992c11.858-2.246,23.411-4.6,35.664-5.47ZM488.516,81.813c13.708-8.368,28.083-12.909,43.755-15.655-3.264-1.203-6.674-2.804-8.853-5.776l-3.504-4.781c-5.913-9.763-6.148-21.539-1.084-31.587,1.861-3.692,4.161-6.516,7.397-9.081l-11.231,3.212-12.974,3.052c1.637,2.391,1.699,5.427.934,8.33-2.042,7.749-2.524,13.387-.01,21.101.895,2.748.008,5.531-2.863,6.756l-38.235,16.315c7.298,6.932,17.047,9.688,26.668,8.114ZM487.647,42.654l-9.737,10.616,8.893-3.271c2.906-.63,5.367.156,7.859,1.33,1.326.625,2.973.698,3.508,2.371-1.188.028-2.939-.153-3.693.323-7.719,4.866-12.88,2.243-20.577,2.467-6.53,4.93-18.585,12.326-25.965,12.158l-9.724-.222c.792,3.644,2.333,7.642,5.678,9.021l11.727-5.057,45.041-18.807c-2.916-7.806-3.216-15.517-.954-23.233.949-3.235.455-6.493-1.601-9.084-1.679-.971-3.65-1.424-5.703-1.331-7.013.316-13.626,1.735-20.493,3.19l-19.664,4.168c-4.528.96-9.003.73-13.575-.342,3.742,8.571,2.944,15.583.294,23.425-.05-2.03-.091-3.146-.882-4.554l-1.211,5.221c-.453,1.953-.771,3.665.068,5.47l1.087-3.123c-.282,5.275-1.186,9.866.181,14.703,8.531-1.158,16.212-3.914,23.626-7.679l7.571-4.398c5.634-3.273,10.175-7.683,14.008-13.038s7.546-10.672,10.339-16.659l1.6-3.43c1.997,4.594-4.428,16.195-7.701,19.763ZM300.834,76.438l-.863-5.777c-.143-14.145,3.461-27.684,10.512-40.355-5.126,1.886-10.321,3.187-16.065,3.506-14.119.784-28.121-.767-41.594-4.855-4.869-1.477-9.154-3.42-13.297-6.34,3.181,14.739,2.274,31.798-4.77,45.205,3.619,2.527,7.425,4.357,11.59,5.731,14.59,4.813,30.499,6.893,45.849,5.256,3.024-.322,6.032-1.157,8.638-2.372ZM298.116,86.338c-19.573,4.222-45.31.988-64.06-6.464-5.451-2.166-13.893-6.076-14.147-11.53l-8.978-.995c-.288-.032-.961-.333-1.164-.435s.479-.664.685-.782c4.861-1.644,9.635-2.683,14.675-3.584l8.583-1.019,1.42-4.815c-16.589.494-32.167,2.49-48.083,5.497l-41.156,7.777c-7.148,1.351-13.913,1.952-21.094,2.831-6.675.816-12.755,3.341-19.067,5.504-9.102,3.119-17.256,7.496-24.88,13.222-2.726,2.047-4.812,3.857-7.238,6.604l.484.592c6.81,1.62,13.25,3.175,20.236,4.02l42.204,5.107c28.084,3.026,55.722,7.478,83.402,13.015,16.792,3.359,37.325,7.616,51.313,16.772,15.127,9.902,21.426,27.488,23.782,44.986,1.7,12.63,2.312,25.083,2.078,37.898-.668,36.652-15.697,65.957-50.766,79.474-28.157,10.853-59.012,7.735-87.383-1.657-22.948-7.597-44.497-18.923-63.784-33.514-14.302-10.82-26.583-23.86-36.062-39.056-7.778-12.47-13.017-25.896-16.854-40.022-2.371-8.73-4.249-17.044-5.395-26.038l-5.073-39.817c-1.087-8.529-2.591-16.409-5.101-24.726l.801-.035c4.612,2.884,8.865,5.746,13.658,8.251,8.104,4.234,16.425,7.251,25.232,9.745,8.698,2.463,17.044,4.559,26,5.839l33.407,4.773,53.544,7.922,23.173,4.339c16.072,3.009,35.547,8.102,50.431,15.397l-7.441,3.887-24.903,12.053c-17.497,8.469-34.524,17.328-51.004,27.681-10.218,6.419-19.665,13.488-29.005,21.098-14.262,11.619-27.007,24.566-38.277,39.093l13.719,8.464c18.003-20.889,50.847-44.703,74.788-57.732l30.128-16.395,32.544-16.762,13.215-7.026c.258-.137.669-.852.504-1.034l-2.125-2.346-20.2,10.934-23.667,12.158c-30.153,15.49-57.798,31.169-83.713,53.371-8.073,6.916-15.587,13.978-22.335,22.296l-3.359-2.232-5.537-3.963c27.242-35.396,68.307-61.228,108.274-80.578l42.487-20.571c9.622,6.829,13.606,12.536,17.679,23.321.509,1.349.406,3.017.301,4.392l-.428,5.622c-.129.261-.419.887-.182.892l1.111.023c.401.008,1.033-.832,1.012-1.22-.224-1.356-.443-2.706-.097-3.763,2.248,10.534,3.558,20.834,2.844,31.522-.724,10.841-2.416,21.472-6.009,31.657-5.862,16.616-18.416,29.874-34.635,36.452-5.911,2.397-11.826,3.142-18.224,4.395-.13-.258.13-.523.467-.605,25.477-5.218,45.962-20.617,53.6-45.894-.111-.643-.21-1.212-.109-.603l-.806.681c-.466.394-1.641.901-2.226.833s-1.667-.816-2.013-1.379c-3.102-5.047-1.567-12.993-3.854-20.035l-10.388,4.345,2.056,4.445c3.604,7.792,8.131,18.586,4.241,26.498-.751,1.528-2.435,2.629-4.028,2.487-4.312-.384-5.229-7.369-5.635-12.459-.421-5.814-1.06-11.399-2.278-17.087l-.432-.944c-.055-.119-.53.178-.655.234l-11.93,5.346,3.519,8.328c3.5,8.281,7.285,21.942,2.797,29.198-.806,1.303-2.436,2.176-3.708,2.183-3.389.017-5.51-5.056-5.652-8.492l-.521-12.638c-.222-5.388-1.115-10.431-2.189-15.752l-11.909,5.892c4.077,10.087,10.229,28.924,4.669,37.33-1.053,1.593-2.829,2.299-4.656,2.072-3.71-.461-4.908-5.848-4.702-10.452l.463-10.338c.238-5.316-.23-10.257-1.265-15.534l-10.857,5.946c2.877,8.93,5.296,24.755.039,31.155-1.451,1.767-3.628,2.546-5.735,1.749-4.301-1.628-3.128-7.973-1.995-12.951,1.233-5.417,2.119-10.666,1.371-16.188l-11.261,7.005c1.104,6.849.952,17.833-3.879,21.576-1.401,1.085-3.15,1.356-4.687.692-3.051-1.319-2.951-5.677-1.36-9.464.96-2.287,1.682-4.334,1.915-7.078-6.106,4.239-11.598,8.415-17.128,13.261l-2.339-.889c21.823-18.731,57.721-39.434,83.85-50.678l36.444-15.683.06-4.255-19.558,7.86c-11.25,4.521-21.956,9.46-32.913,14.771-17.327,8.398-33.643,17.952-49.607,28.668-8.313,5.581-16.008,11.322-23.3,18.132l-15.524-6.468,10.607-10.488c19.612-17.661,44.015-32.304,67.782-43.9,19.768-9.645,40.331-18.238,61.406-24.321l-.418-3.515c-20.207,5.617-39.212,13.464-58.104,22.399-20.656,9.77-40.317,21.205-58.743,34.602l-9.18,7.234c-6.165,4.858-11.478,10.397-17.105,15.967-1.786-.025-3.49-1.442-4.09-3.113l-3.365-9.375c-.106-.295-.291-.715-.436-.596l-.724.59-6.16,7.286c8.886,5.575,17.426,9.782,26.809,13.461,23.699,9.293,51.65,15.411,76.951,11.391,17.53-2.786,32.094-9.484,43.401-23.284,7.742-9.449,12.762-20.1,15.301-32.071,3.658-17.248,3.453-34.781-.356-52.017-2.903-13.133-9.713-25.322-21.391-32.287-6.887-4.108-14.146-6.841-21.905-9.11-11.977-3.503-23.791-6.202-36.101-8.374l-27.117-4.786-43.763-6.308-30.748-4.179c-21.328-2.899-45.756-8.457-63.984-19.859-3.252-2.034-6.132-4.472-9.083-6.769l-.726.747c-.077.08-.563-.307-.63-.452l-1.985-4.31c13.149,11.632,29.245,18.441,46.029,22.898,11.357,3.016,22.513,5.202,34.229,6.695l44.78,5.707c17.064,2.175,33.581,5.051,50.455,8.328,18.772,3.645,41.596,7.501,58.225,15.737,7.341,3.636,13.457,8.642,17.839,15.579,4.183,6.621,7.152,13.713,8.701,21.465,3.924,19.638,3.839,43.177-2.81,62.157-8.183,23.361-26.746,40.358-51,45.886-7.078,1.613-13.873,2.492-21.184,2.553-17.585.147-34.598-2.993-51.2-8.586-11.505-3.876-22.379-8.37-32.76-14.526l-12.254-7.267c-7.613-4.515-14.28-9.794-21.056-15.493-6.206-5.219-11.799-10.61-16.805-17.003-3.578-4.569-7.282-8.799-9.852-14.09,3.398,4.092,6.256,8.29,9.621,12.323l2.366,2.836c1.983,2.376,4.122,4.546,6.574,6.701.517,0,.482-.23.078-.512l-4.332-5.381-.337-.421-.535-.514c-.488-.189-.902-.662-.072-.628l12.298,4.928c5.601,2.244,10.475,4.185,14.606,8.826l.629.707-.717.441-4.179-1.132-8.766-1.148-7.592-4.42c5.035,5.991,10.763,10.638,17.177,15.407,8.161-11.916,17.402-22.365,28.031-31.994,9.195-8.33,18.555-15.923,28.843-22.831,7.388-4.961,14.498-9.625,22.266-13.97l.345-.709c-6.015-10.241-12.638-19.619-20.21-28.7-5.699-6.834-11.136-13.844-14.059-22.164-.654-1.861-.565-3.395.046-5.559l-.543-.34-31.022-4.287c-11.525-1.592-22.563-3.03-33.942-5.406-16.847-3.517-36.065-9.328-50.454-19.287,1.79,6.352,2.766,12.454,3.564,18.94l4.432,36.027c1.269,10.312,3.4,20.07,6.107,30.06,7.904,29.174,22.913,52.986,45.976,72.491,12.831,10.851,26.899,19.727,41.914,27.255,34.917,17.504,80.028,28.023,116.767,11.609,14.597-6.521,26.696-17.139,34.38-31.176,7.197-13.149,10.116-29.33,10.423-44.362.216-10.624-.31-20.809-1.431-31.38-1.714-16.173-5.523-32.728-17.648-44.006-9.09-8.456-23.173-13.411-35.359-16.35-13.599-3.281-26.913-6.116-40.749-8.514-17.245-2.989-34.066-6.063-51.461-8.053l-43.589-4.988c-7.646-.875-14.739-2.097-22.239-3.608-11.828-2.383-23.054-5.834-33.985-10.924-10.372-4.829-19.529-11.309-26.917-19.96-3.888-4.7-6.936-9.527-9.088-15.239l.053-.928c.007-.13.141-.127.188-.003l.321.858c1.981,5.297,8.599,13.129,13.248,17.341,8.056,7.298,17.11,13.226,27.239,17.197l8.101,3.175c4.953-6.895,13.029-12.293,20.309-16.185,6.625-3.336,13.244-5.886,20.432-7.808l.927-.115c.152-.019.171-.349.022-.395l-.798-.244c-14.593-4.473-24.76-13.313-35.602-23.58-10.603-10.042-22.642-20.048-37.767-20.357-5.829-.119-11.461,1.214-16.12,4.667-9.154,6.784-9.224,20.176-6.218,30.91,4.13,14.751,12.626,28.444,17.477,44.481,2.507,8.287,4,16.432,5.199,25.05l5.678,40.794c1.008,7.243,2.474,13.903,4.045,21.022,6.704,30.377,21.823,57.826,43.585,79.987l2.973,3.027,4.378,4.075c.371.345.556,1.508.281,1.914s-1.508.447-1.897.103l-3.308-2.927c-.247-.655-.366-.594-.274.038.085,1.385.179,2.885-.248,3.981-4.827,12.387,10.914,19.814,21.799,23.762,8.386,3.041,16.129,6.818,23.425,11.929l7.546,4.412c6.748,3.278,14.102,3.756,21.295,1.301.734.117.846-.064.309-.425l-6.226-2.798c-5.819-3.084-11.086-6.584-16.436-10.938,7.929,3.821,15.597,7.54,24.042,10.609,14.739,5.357,29.616,9.385,45.171,12.028,29.847,5.072,60.205,5.954,90.251,2.036,17.931-2.338,35.305-6.186,52.263-12.203,17.616-6.251,33.943-14.937,48.564-26.532,9.998-7.929,18.512-17.076,25.625-27.643,6.75-10.028,11.478-20.886,14.307-32.615l2.728-15.353c-11.662,6.846-26.85,3.593-38.059-3.154-8.732-5.256-15.342-12.857-20.268-21.934-.346-.805-.518-.632-.393.053l5.689,22.535,1.587,16.174c.613,6.251,1.329,13.119,5.652,17.98,2.946,3.313,5.392,6.862,6.77,11.086,2.166,6.637,1.05,13.793-3.569,18.973-.747.837-1.967,1.7-3.011,1.632-4.019-3.962-6.185-9.453-5.618-15.087l.962-9.561c.278-2.761-.854-5.504-1.699-8.484-1.789,9.18-4.956,17.855-9.326,26.298-2.609,5.04-3.807,10.235-5.057,15.661-1.374,5.959-4.808,10.849-10.175,13.679l-9.036,3.732-.953.329c-.116.04-.098-.349-.023-.44l.417-.502c2.712-2.69,4.489-5.987,6.012-9.512l6.379-10.588c-4.798,3.906-8.855,7.807-12.653,12.293-3.389,4.002-6.83,7.736-11.307,10.578-6.229,3.956-13.706,5.455-21.225,4.45,4.72-7.985,12.31-12.413,20.865-14.369,4.21-.963,7.728-2.452,11.089-5.371l.011-.544c-6.811,2.445-13.894,3.086-19.767-.433-3.6-2.157-5.961-6.062-5.395-6.283l1.006-.393,6.049-1.907c11.978-3.776,20.221,2.798,25.023.759,6.486-2.754,11.264-8.082,14.555-14.075l-6.002,3.944c-2.629,1.727-5.718,2.067-8.822,1.427l-.834-.172c-.148-.031.215-.738.395-.854l5.361-3.457,6.716-3.75c2.6-1.452,5.674-3.067,7.221-5.782,2.631-4.619,4.005-9.696,5.026-14.99-3.73,5.676-7.78,10.877-12.735,15.585-8.891,8.448-23.073,10.729-32.735,2.598l4.582-3.35c5.69-4.16,12.008-7.069,19.093-8.251,8.383-1.398,15.478-5.798,19.833-13.256,2.579-4.417,3.451-9.484,3.183-14.773-.528-10.436-2.562-20.381-5.387-30.685l-2.26,4.531c1.465,14.092-.486,28.057-10.152,38.647-4.745,5.198-10.989,8.685-17.986,8.888-4.811.139-9.074-.862-12.736-4.345l5.19-5.401c4.455-4.637,10.243-7.069,16.612-8.014,8.941-1.328,16.346-6.839,17.561-15.935-2.224,2.176-4.776,4.08-6.382,2.427-1.993-2.051,2.217-8.219,6.556-8.561l.093-5.922c-16.465,22.931-46.173,30.154-71.722,19.184l-.078,7.217c-.703,6.496-1.434,12.818-3.315,19.057-1.834,6.082-3.999,11.754-6.824,17.465-6.608,13.364-17.172,24.026-30.219,31.328-13.004,7.278-27.476,10.698-42.37,11.285l-11.532-.179-4.413-.289-7.398-.884.633-.272,7.97.542,6.399.17c27.913-1.197,54.224-8.593,71.935-31.277,6.056-7.756,10.046-16.413,13.32-25.635.712-1.607.905-3.079,1.242-4.811,1.705-8.762,3.125-17.392,3.161-26.604,24.718,10.927,54.001,5.061,70.199-16.388,3.648-4.831,5.54-10.276,7.588-16.159l5.108,9.999c3.836,6.279,8.878,11.472,14.932,15.641,11.356,7.819,27.839,11.087,39.763,3.454l.521-5.243c-5.462,3.747-11.015,5.58-17.587,4.986-17.713-1.6-30.012-11.978-37.433-27.776-.895-1.906-1.034-4.05-1.179-6.1l-.571-8.034,3.046,8.917,4.819,10.222c2.121,4.5,5.685,8.06,9.609,11.001,5.491,4.116,11.413,6.444,18.081,7.838,7.478,1.563,15.08.615,21.41-3.879l.158-4.653c.063-.298-.385-.024-.808.399-10.543,8.933-27.501,2.95-37.032-5.914-9.2-8.556-15.588-19.795-18.199-32.312,3.714,9.421,8.047,18.2,14.955,25.676,17.049,18.452,39.573,16.417,40.314,6.187l.833-11.506.76-28.574,1.554-12.402-.201-.489c-1.206.531-2.125.522-2.485-.07.499-1.72,2.17-2.727,3.524-3.78l1.901-6.204-2.362.015,2.903-1.697,2.057-5.311c-2.625,1.307-4.607,2.227-7.456,2.089,2.224-3.046,4.812-5.598,8.154-7.05,1.396-.607,2.205-1.29,3.013-2.596l7.363-11.892-6.818,4.532-6.43,5.851c-2.584,2.351-5.174,4.59-8.431,5.868-6.201,2.432-13.258.196-16.245-5.787,5.253-7.694,13.643-9.219,22.2-6.352,3.203,1.073,6.046.61,8.492-1.653,4.786-4.429,9.124-4.954,10.9-6.971,6.487-7.367,13.247-13.955,21.631-19.79-9.386.445-19.19-2.917-25.092-10.244l-27.704,13.208c-21.07,11.038-42.5,25.694-57.469,44.493.453,9.557-.153,18.603-1.973,27.972-3.053,15.713-9.486,30.944-23.857,38.982-9.493,5.309-20.324,6.782-30.972,4.77-7.01-1.324-16.334-3.559-19.056-10.236,11.212,6.353,23.676,8.885,36.178,6.726,17.334-2.992,28.158-16.879,32.692-33.322,2.824-10.243,4.117-20.604,3.827-31.098l-12.118,15.27c-.908,1.144-1.407,2.621-2.452,3.593,4.679-10.837,10.958-20.324,18.513-29.367-6.699,2.794-13.359,3.784-20.313,2.59-16.346-2.808-31.584-13.62-34.988-30.194-.471-2.293-.026-4.099.746-6.186,1.394-3.77,2.004-7.545,2.738-11.632l-2.273,2.195-1.21,8.755c-.42-2.771.087-5.105.277-7.934-12.349,10.716-25.128,19.869-39.01,27.934-4.145,2.408-7.811,4.828-12.439,6.551,4.804-4.713,9.834-8.345,15.174-12.118l17.933-12.669c7.095-5.012,13.45-10.43,19.74-16.585l-16.935-7.021c-.102,2.698.189,4.557.807,7.09.736,3.013-8.688,5.074-13.57,5.488-15.889,1.347-31.788-.75-46.795-5.998-4.458-1.559-13.853-5.944-12.783-8.666l1.651-4.196c-3.907.365-8.814,1.839-8.967,4.706-.239,4.477,11.645,9.723,17.303,11.742,15.419,5.501,31.607,7.676,48.033,7.087l8.838-.617ZM487.349,53.386c-3.37-.483-6.724.242-9.192,2.211l9.192-2.211ZM108.515,75.178l9.659-2.438-9.796-1.028c-16.665,4.418-34.365,10.703-46.908,23.229l9.689,3.081c7.805-12.062,23.572-20.203,37.355-22.844ZM379.106,119.945c-3.605,1.829-6.621,2.946-10.325,3.219-12.177.879-24.059-2.906-33.49-10.587-7.262-5.915-11.772-13.843-13.619-22.92-1.001,9.765,3.136,18.713,10.272,25.065,4.691,4.311,10.132,7.257,16.247,9.179,8.353,2.954,17.131,2.734,25.447-.267,2.279-.64,4.454-1.548,5.467-3.689ZM329.973,97.041l3.862-6.741-4.561,5.437c-.197.235-.299,1.187-.338,1.453-.026.174.926.045,1.037-.149ZM364.001,116.271c2.402-.648,3.667-2.306,4.409-4.359l-4.409,4.359ZM447.071,116.229l-13.277,3.421c4.581.833,9.278-.416,13.277-3.421ZM184.585,141.63c2.315,2.997,3.846,6.269,5.381,9.746,3.642,8.251,6.046,16.57,6.852,25.417l16.353-7.948c-2.012-4.4-4.393-8.185-7.163-12.06-2.456-3.833-4.472-7.686-5.945-11.976-.602-2.502-.813-4.905.092-7.293l-45.761-7.904,2.296,2.594,6.379,11.881,10.238,19.552c3.621,6.914,6.385,13.931,8.361,21.204l13.462-7.246-5.457-9.67-11.905-17.464c-2.44-3.579-5.227-9.361-2.848-11.875,2.465-2.605,6.835-.623,9.666,3.042ZM238.2,157.232c-1.061-3.668-1.296-6.73-.771-10.513-8.983-2.683-17.97-4.971-27.181-6.995,2.028,4.82,3.693,9.321,4.407,14.347l1.839,12.936,21.705-9.775ZM114.859,259.184c4.641-5.358,8.993-9.773,14.008-14.267,19.546-18.225,48.326-37.731,72.006-50.01l42.631-22.107,20.454-11.375c-2.124-2.288-4.284-4.071-6.537-5.638l-43.174,21.464-13.694,7.055c-12.474,6.427-24.259,13.425-36.039,21.179-11.301,7.438-21.871,15.478-32.208,24.189-9.048,7.624-17.137,15.653-24.707,25.057l7.26,4.453ZM269.042,190.132l-4.558-14.003-.702-6.779-9.468,5.095c2.77,6.21,3.607,12.27,3.446,19.336l11.281-3.649ZM251.095,196.087c-2.794-6.016-4.581-10.945-5.837-16.746l-10.218,5.202c2.041,5.641,3.105,10.779,3.298,16.618l12.757-5.074ZM220.009,209.074l11.523-4.735c-2.991-4.799-4.425-9.678-5.711-15.019l-9.42,4.809c2.174,5.08,3.232,9.874,3.608,14.945ZM152.226,276.611c8.911-7.981,18.25-14.86,28.26-21.421,31.11-20.39,62.824-34.394,97.154-48.35l-1.068-12.438c-14.414,4.902-28.396,10.002-42.382,15.945-17.586,7.874-34.328,16.694-50.7,26.762l-18.027,12.239c-9.288,6.771-17.868,13.918-25.82,22.469l12.584,4.793ZM202.482,217.865l10.019-4.967c-2.101-4.476-3.668-8.94-5.078-13.882l-8.7,4.672c2.128,4.92,3.152,9.337,3.759,14.177ZM194.793,222.018c-2.316-4.837-3.696-8.7-5.114-13.108l-8.797,5.18c2.119,4.508,3.478,8.722,4.183,13.526l9.728-5.598ZM276.513,231.157c1.159-5.672,1.301-10.675,1.325-16.355l-5.93,2.751c2.377,4.764,3.587,8.793,4.605,13.604ZM177.534,232.54c-2.266-4.103-3.829-8.325-5.38-12.894l-8.33,5.501c2.42,4.461,3.644,8.519,4.277,13.419l9.433-6.026ZM151.851,250.779l8.925-6.944c-2.177-4.334-3.608-8.127-5.12-12.734l-8.284,6.016c2.295,4.362,3.99,8.69,4.478,13.663ZM368.247,231.962c-5.379,4.769-10.946,7.749-17.06,10.744,6.782-.697,14.279-5.08,17.06-10.744ZM145.059,256.875l-2.19-4.332-3.344-8.949-7.453,6.304c2.745,4.718,4.023,9.428,4.7,14.486l8.288-7.51ZM391.419,257.228l-2.648-9.16c.086,3.392.834,6.371,2.648,9.16ZM356.096,266.241c8.359-.638,15.665-4.848,19.962-11.489l-8.885,6.361-11.076,5.128ZM356.842,291.389l-15.614,1.353c5.218,2.096,10.731,1.119,15.614-1.353ZM348.06,302.357l-14.813,8.355c5.764-1.319,11.055-4.053,14.813-8.355Z"/>
        <path d="M140.82,209.697c-8.713-12.471-18.538-22.875-30.733-31.309-4.897-3.448-9.721-6.366-14.844-9.429l-15.427-9.224c-10.58-6.326-22.291-17.433-26.338-29.266-1.336-3.905-1.144-8.8,1.289-9.633.674-.231,2.384.049,2.911.569l8.243,8.144c7.052,6.967,13.407,14.249,20.902,20.792l22.493,19.637c7.176,6.265,13.47,12.887,19.665,20.085,4.555,6.164,9.556,12.003,11.84,19.632Z"/>
        <path d="M421.903,191.679c-5.478-3.88-7.923-11.24-5.89-17.735,2.574-8.222,11.374-8.609,13.518-10.302,2.029-1.602,3.3-3.82,4.408-6.019-7.113,3.045-13.97,3.183-20.798.67-2.236-.823-4.781.519-6.398,1.823-1.922,1.55-2.461,4.191-2.207,6.76.614,6.205-2.51,7.363-3.682,12.49-2.871-5.89-1.537-12.4,1.99-17.805-5.526,4.97-5.961,13.339-2.376,19.31.98.939,1.622,1.778,1.805,3.431-3.253-1.971-6.083-4.48-8.001-7.866-3.742-6.604-.717-14.854,6.551-17.27l9.494-2.287c-3.261-2.331-6.025-4.941-8.021-8.381l-4.522-7.793c-1.659-2.859-2.672-5.926-3.421-9.29,6.354,10.967,19.991,16.541,32.119,13.653,2.361-.562,4.4-1.76,6.345-3.213l2.669-1.992c.154,2.256.397,3.34,1.004,4.872,1.007,2.544-.23,5.198-2.902,5.661-2.11-.538-2.835-2.452-2.384-4.769-3.404,2.599-6.973,3.078-11.392,3.35,5.288,4.034,12.282,7.76,17.829,5.326l-4.027,6.649-2.479,4.105,3.889-3.104c.09.262-.022,1.391-.257,1.706-2.302,3.091-3.962,6.312-5.247,9.912-.855,2.416-2.346,4.407-4.295,6.013-3.614,2.81-4.421,7.106-3.324,12.095ZM424.91,155.613l-14.82-6.264c1.996,1.768,4.215,2.745,6.553,3.892,2.666,1.308,5.389,2.426,8.267,2.372ZM420.291,185.932c.075-3.858.445-6.73,1.735-9.995-2.311,2.843-3.134,6.851-1.735,9.995Z"/>
        <path d="M153.673,201.113l-10.28-14.345c-6.573-9.172-14.782-16.602-23.516-23.742l-15.696-12.535c-3.944-3.15-7.375-6.637-10.544-10.506-2.742-3.348-5.353-8.664-2.867-10.823,2.42-2.101,7.602,1.276,10.343,4.134l12.07,12.58c7.736,8.062,15.118,16.017,22.2,24.659,4.614,5.63,8.771,11.144,12.497,17.345,2.195,4.242,5.036,7.957,5.794,13.232Z"/>
        <path d="M126.337,213.313c-5.563-4.914-10.916-9.669-17.214-13.723-8.031-5.325-16.215-9.664-25.052-13.481-11.639-5.027-23.792-10.063-31.816-19.829-2.622-3.191-5.641-8.478-3.909-10.755,1.365-1.794,4.991.596,7.689,2.566l13.088,9.557,21.782,14.784c6.773,4.597,13.046,9.26,19.47,14.306,5.814,5.049,11.506,9.856,15.961,16.575Z"/>
        <path d="M119.906,226.365c-8.571-6.52-17.951-11.951-28.432-15.828l-16.279-6.023c-10.848-4.014-23.553-13.39-24.897-26.051l27.37,17.18,16.311,9.959c7.858,4.798,15.136,9.99,21.821,16.309l4.106,4.455Z"/>
        <path d="M167.09,193.288l-7.747-11.755c-5.951-9.03-13.27-16.687-20.962-24.282-4.232-4.179-8.265-8.094-11.985-12.664-3.293-4.045-7.635-11.602-4.383-14.081,3.09-2.356,8.225,2.097,11.029,5.897,7.433,10.071,14.333,20.223,21.273,30.697,3.665,5.531,6.899,10.983,9.73,16.905,1.436,3.003,2.63,5.835,3.045,9.284Z"/>
        <path d="M113.028,238.221c-8.159-4.288-15.837-7.519-24.44-9.752-14.151-3.673-22.878-9.46-28.446-23.403,4.636,3.174,8.915,5.562,13.742,7.944,8.827,4.355,17.364,8.713,25.619,14.073,4.941,3.208,9.634,6.413,13.525,11.138Z"/>
        <path d="M305.497,217.77c-3.04-1.217-5.523-2.486-7.136-5.532,14.976,7.005,31.615,9.394,47.584,3.355,11.48-4.342,20.747-12.446,26.23-23.495,3.462-6.976,5.714-14.261,6.608-22.013l.968-8.396.438,4.046c.495,4.576.319,8.958-.738,13.553l2.352,6.036c-2.159-.37-1.585-2.236-2.907-3.691-8.243,32.596-42.695,48.428-73.398,36.137Z"/>
        <path d="M438.309,136.457c-7.097,6.058-17.964,8.228-24.289.675-5.045-6.025-5.311-14.242-1.081-21.23,1.232,4.482,3.16,7.646,6.414,10.382l9.497,7.985c2.536,2.132,5.818,2.103,9.459,2.188Z"/>
        <path d="M404.419,252.79l-6.366-6.258c-3.632-4.442-5.054-9.925-4.772-15.637.217-4.379-1.169-7.908-2.808-12.28,3.493,2.464,6.242,4.989,9.027,7.805,4.111,4.907,6.565,11.049,5.723,17.462l-.805,8.907Z"/>
        <path d="M420.726,238.555c2.46,5.717,1.505,14.382-3.9,17.405-4.802-4.681-6.697-10.972-6.97-17.549-.189-4.543-1.533-8.349-3.866-12.375l6.005,3.034c3.939,1.99,6.988,5.43,8.732,9.485Z"/>
        <path d="M188.636,80.137c-6.769,6.104-14.627,11.284-24.519,10.517,8.892-15.314,23.046-18.624,39.381-22.284-3.325,2.213-6.253,4.003-8.997,6.478l-5.864,5.289ZM193.502,73.106c-7.584,2.787-13.922,6.771-19.95,11.568,7.225-3.166,14.037-6.747,19.95-11.568Z"/>
        <path d="M152.657,85.107c-7.227,6.276-16.557,11.43-26.425,10.207,4.92-7.833,13.755-12.975,22.414-15.846l20.328-4.801c-5.927,3.017-11.17,6.258-16.317,10.439ZM157.763,79.398c-7.37,1.834-14.411,5.503-20.818,10.031,7.473-2.374,13.928-6.068,20.818-10.031Z"/>
        <path d="M312.214,189.552c-2.022,2.248-4.477,2.908-7.24,2.09-2.235-.662-3.86-2.834-4.305-5.653-.867-5.49,1.879-11.169,6.672-14.129,2.327-1.437,5.189-.255,6.413,2.002,2.411,4.446,2.203,11.529-1.54,15.69ZM307.68,190.349l.909-9.675c-1.734,3.471-2.265,6.779-2.529,10.365l1.621-.69Z"/>
        <path d="M334.432,191.842c-1.694,1.759-3.943,2.271-6.052,1.812-4.741-1.031-6.191-8.356-2.724-15.02,2.061-3.962,5.487-7.118,9.242-5.298l2.135,5.804c1.568,4.263.617,9.36-2.601,12.701ZM330.604,187.736c.878-2.72,1.218-4.993,1.497-7.434-1.394,2.405-2.115,4.941-1.497,7.434Z"/>
        <path d="M119.739,87.55c-7.624,5.453-16.07,9.894-25.252,7.252,4.774-6.967,15.601-11.684,23.54-12.861l16.328-2.422c-5.155,2.32-9.974,4.711-14.616,8.031ZM123.091,83.479c-7.31,1.321-13.647,3.965-19.33,7.507,7.161-1.72,13.318-4.516,19.33-7.507Z"/>
        <path d="M51.731,78.087c-2.008-.395-3.757-1.228-5.628-2.303-11.89-6.831-24.048-16.569-29.435-29.395-.252-.599.167-1.566.812-1.758,3.938,5.038,7.985,9.206,12.748,13.278l17.963,15.359c1.358,1.44,2.561,2.302,3.54,4.819Z"/>
        <path d="M354.854,183.33c-1.187,1.611-3.019,2.368-4.817,2.132-1.462-.191-3.053-1.569-3.791-3.224-2.47-5.546-.217-15.967,5.89-16.798,4.55,4.848,6.9,12.213,2.718,17.889Z"/>
        <path d="M61.275,68.747c-1.591-.169-2.732-.582-3.987-1.367-4.623-2.89-8.877-6.015-12.876-9.776-6.228-5.856-11.83-11.99-17.014-18.75-.171-.223-.496-1.15-.226-1.214l1.486-.347,29.812,27.659c1.212,1.124,1.828,1.889,2.804,3.794Z"/>
        <path d="M297.947,173.567c-1.809-6.751-3.799-13.547-7.374-19.871-7.849-14.516-21.072-20.726-35.957-26.063l8.713,2.055c9.559,2.893,17.911,8.109,24.387,15.716,6.377,7.957,10.559,17.464,10.231,28.163Z"/>
        <path d="M72.627,63.818c-1.932.114-2.818-.495-4.197-1.219-4.217-2.893-8.15-5.991-11.72-9.733l-11.245-11.787-4.621-4.927c2.398.73,4.267,1.888,6.151,3.387,3.271,2.602,6.363,5.183,9.382,8.107l12.098,11.716c1.534,1.363,2.624,2.443,4.152,4.457Z"/>
        <path d="M123.161,302.789l-22.076-10.603c-2.722.667-5.308-.072-6.928-2.68l1.755-.706-5.074-4.035c3.589-1.034,9.07,3.448,13.078,5.894l19.244,12.131Z"/>
        <path d="M365.138,158.229c1.497,3.737.426,7.26-1.772,7.95-.603.189-2.138-.334-2.471-.941-1.884-3.439-1.599-7.818,1.262-10.767,1.542.713,2.365,2.219,2.981,3.758Z"/>
        <path d="M304.914,84.149l4.416-2.921c1.397-.924,1.253-2.717.74-4.467.463.435,1.199,1.299,1.436,1.903.805,2.055-2.806,5.041-6.592,5.485Z"/>
        <path d="M420.441,62.865c-2.621,1.791-3.754,2.873-3.896,5.532-.273,5.113-2.159,10.036-5.667,13.77-6.143,6.538-17.65,9.872-24.78,3.383-.649-.59-2.32-1.062-3.112-.757l-4.179,1.608,1.944-11.719c3.156-12.823,15.424-21.103,28.432-18.943,3.515.584,6.641,1.961,9.035,4.684-13.256-4.625-26.833-1.086-33.455,11.142-2.129,3.93-3.856,7.922-5.352,12.552,5.177-.438,5.364-8.26,11.171-14.744,5.633-6.29,14.521-8.575,22.66-6.099,2.571.782,4.291.27,7.199-.409ZM386.973,80.761c.082,3.477,4.593,5.296,7.293,5.714,4.509.697,8.13-1.301,11.572-3.661,5.794-3.295,8.844-9.721,8.275-16.464-3.917-2.574-8.62-3.221-13.261-1.366,4.369.112,7.605,3.223,8.091,7.713.363,3.353-.934,6.739-3.64,8.496-2.6,1.689-6.295,1.968-8.927.126-4.45-3.114-4.434-8.564-1.733-13.218-3.902,2.854-7.794,7.427-7.671,12.658ZM401.089,71.615c-1.194.291-1.547,1.596-1.192,2.248.249.458,1.271.944,1.903.85.605-.09,1.12-1.241.991-1.891-.102-.516-1.144-1.343-1.702-1.207Z"/>
        <path d="M451.87,59.391c-2.654,1.416-4.538,3.677-7.47,4.934,2.861-3.199,6.393-6.016,8.493-10.049,1.894-3.638,3.489-7.145,6.011-10.328,4.313-5.444,10.395-9.016,17.644-9.374-2.236,8.804-7.876,15.852-15.696,20.025l-8.982,4.793ZM457.274,54.205l9.242-10.553c-3.669,1.802-6.324,4.324-8.584,7.255l-5.444,7.06c1.866-1.195,3.455-2.241,4.786-3.762Z"/>
        <path d="M446.138,55.791l-4.178,7.494c-1.093-9.231,2.066-16.677,10.774-21.431-2.092,3.328-3.359,6.091-4.199,9.704-.318,1.369-1.701,2.983-2.398,4.233Z"/>
        <path d="M492.159,45.578l-2.336,1.303c-.502-1.454.137-2.785,1.344-3.654l1.548-1.115c1.029,1.069.816,2.702-.556,3.467Z"/>
        <path d="M197.744,53.625c-10.346-3.56-20.169-17.168-23.571-26.774-.292-.823-.053-1.993.721-2.306,2.693,4.048,5.281,7.769,8.446,11.404,5.018,5.764,9.715,11.443,14.404,17.676Z"/>
        <path d="M183.586,56.426c-9.872-1.378-18.818-15.517-17.846-25.68,1.95,4.52,3.929,8.779,7.13,12.485l7.367,8.529,3.349,4.666Z"/>
        <path d="M209.307,48.842c-2.088.508-4.2-1.061-5.853-2.447-4.89-4.099-8.734-9.072-12.106-14.462l-4.761-7.609c2.077.62,3.234,2.091,4.9,3.546l17.821,20.97Z"/>
        <path d="M547.216,51.966c-5.965,5.324-14.111,4.056-18.391-2.272-4.547-6.723-4.57-15.971.263-22.528,2.487-3.374,6.206-5.284,10.036-5.342,4.065-.061,7.815,1.885,10.381,5.392,5.439,7.434,4.724,18.49-2.289,24.749ZM539.772,53.141c4.986-.493,8.292-4.075,9.956-8.213,3.664-8.192-.299-19.344-9.278-20.389,7.192,4.578,9.035,14.392,5.494,22.159-1.345,2.95-3.623,4.953-6.172,6.443Z"/>
        <path d="M301.758,23.799c-2.937,1.078-5.8,1.677-8.917,1.914-11.804.898-23.522-.247-34.862-3.535-3.367-.976-8.406-3.138-8.381-5.343.006-.511.836-1.429,1.38-1.531l8.128-1.532c9.841-.818,19.428.068,29.094,1.956,4.368.853,8.34,2.244,12.389,3.927l2.119.881c1.122.466.532,2.72-.95,3.264ZM257.965,18.099c9.429-1.471,18.424-.612,27.902-.039-6.797-2.099-13.967-2.679-21.204-2.861-4.206-.106-8.245.86-12.009,1.826,1.628,2.051,3.265,1.393,5.311,1.074Z"/>
      </g>
    </g>
  </g>
</svg>