<?xml version="1.0" encoding="UTF-8"?>
<svg id="b" data-name="Layer 2" xmlns="http://www.w3.org/2000/svg" width="429.766" height="225.729" viewBox="0 0 429.766 225.729">
  <g id="c" data-name="Layer 1">
    <g id="d" data-name="ekG4C5">
      <g>
        <path d="M269.479,223.335c-33.876,3.205-75.273,3.17-108.903.027-11.485-1.074-27.705-3.133-37.711-7.588-1.862-.829-3.252-2.483-3.536-4.081-.555-3.122.714-5.874,4.013-6.715,5.674-5.565,7.049-14.816,2.234-21.186-3.661-1.451-4.015-5.27-2.552-9.227-19.952-8.714-37.139-21.809-51.98-37.716-7.011-7.514-13.439-15.355-19.402-23.773-13.131-18.536-23.826-38.531-32.113-59.635-1.542-3.927-3.091-7.45-4.972-11.095-3.144,1.726-6.335,1.753-9.466.139-2.54-1.309-4.544-4.021-4.978-7.347-1.218-9.34,7.584-15.034,15.933-17.916,6.253-2.159,12.443-3.701,18.967-5.029,21.648-4.406,45.493-6.797,67.661-8.488C130.39,1.591,157.98.489,185.815.011l59.811-.011c28.881.476,57.498,1.666,86.28,3.904l34.214,3.442c14.173,1.426,36.75,5.581,49.777,10.602,7.585,2.924,14.757,8.584,13.78,17.061-.372,3.229-2.301,5.959-4.71,7.316-3.111,1.754-6.426,1.784-9.667.069l-5.651,13.038c-3.792,9.845-8.128,19.133-13.13,28.429l-12.524,21.125c-7.977,12.295-16.924,23.672-27.104,34.212-14.403,14.914-30.944,27.224-50.084,35.402,1.382,3.857,1.141,7.584-2.32,9.003-3.704,4.647-3.993,10.983-1.468,16.288.893,1.876,2.01,4.086,3.792,5.068,1.6.881,2.924,1.519,3.52,3.372.996,3.096-.354,6.024-3.368,7.407s-6.109,2.399-9.44,3.181c-9.26,2.174-18.319,3.495-28.046,4.415ZM262.739,14.855c26.938.652,53.631,1.888,80.177,4.272,19.105,1.716,42.947,4.393,60.785,10.118,4.947,1.588,11.781,4.422,12.155,9.413,3.09,2.062,7.283,1.603,9.327-1.624,1.404-2.217,1.188-5.023-.108-7.301-1.869-3.284-4.873-5.508-8.359-7.06-12.366-5.505-32.541-8.938-46.523-10.802-14.625-1.95-29.137-3.391-43.908-4.445-37.414-2.668-74.824-3.84-112.409-3.769-30.384.057-60.649.837-90.926,2.62-17.983,1.059-35.702,2.499-53.51,4.568-16.02,1.861-35.873,4.854-50.942,9.746-5.864,1.904-12.515,4.947-14.46,10.792-.949,2.852-.031,5.696,2.221,7.347s5.334,1.516,7.667-.144c.526-2.926,2.593-4.908,5.199-6.29,4.636-2.459,9.58-3.96,14.781-5.219,9.74-2.358,19.298-3.961,29.33-5.241,20-2.55,40.076-4.178,60.344-5.248,46.325-2.447,92.567-2.861,139.16-1.733ZM209.162,23.71c10.501-3.546,21.726,1.908,24.153,13.189,2.156-7.292,7.695-12.507,15.023-13.087,8.979-.711,16.319,5.347,17.325,14.544,1.355-2.782,2.592-5.343,4.677-7.585,4.873-5.242,12.569-6.926,19.02-3.694,4.586,2.297,6.991,6.874,7.472,12.116,3.419-7.205,9.544-12.865,17.817-11.836,7.056.877,11.094,6.374,11.528,13.675,2.916-5.746,7.648-10.608,14.389-10.729,4.81-.086,8.916,2.754,10.367,7.354.595,1.887.737,3.859.921,5.809,3.69-6.04,9.382-11.056,16.28-9.783,5.804,1.07,8.242,6.184,7.947,12.348l.405-.376c2.11-3.201,4.931-5.987,8.598-7.027,3.159-.895,6.371-.026,8.119,2.678,1.447,2.239,1.47,4.818,1.425,7.377,1.891-2.302,3.601-4.385,6.035-5.618,1.987-1.007,4.439-1.119,6.067.414,1.306,1.23,1.653,3.017,1.743,4.892-.087.558.064.596.318.19l4.298-8.578c1.219-2.433-2.161-5.155-5.314-6.493-12.09-5.131-30.139-8.003-43.619-9.723-20.423-2.606-40.774-4.169-61.39-5.215-24.876-1.262-49.744-1.899-74.729-2.109-33.121-.278-66.129.435-99.161,2.076-20.957,1.041-41.71,2.671-62.461,5.294-10.972,1.387-21.56,3.108-32.216,5.707-4.466,1.089-8.556,2.445-12.699,4.278-1.93.854-3.607,2.157-4.683,3.908-.674,1.097-.211,2.009.285,2.977l4.271,8.322c.042-2.126.309-4.124,1.806-5.508,1.722-1.592,4.21-1.439,6.285-.361,2.438,1.267,4.12,3.402,5.859,5.618-.081-3.015.162-5.85,2.021-8.063,2.152-2.564,5.794-2.953,8.888-1.655,3.482,1.46,5.957,4.32,7.88,7.495-.309-6.143,2.095-11.519,8.019-12.784,7.033-1.501,13.147,3.637,16.626,9.79.373-7.005,3.709-12.541,10.557-13.151,7.421-.661,13.1,4.355,16.424,11.022.35-4.812,2.035-9.28,6.058-11.957,5.021-3.342,11.571-2.889,16.435.577,3.249,2.315,5.452,5.323,7.159,9.156.676-4.652,2.563-9.013,6.605-11.601,5.053-3.235,11.524-2.751,16.482.599,3.427,2.316,5.537,5.74,7.076,9.78,1.837-8.023,6.985-13.959,15.408-14.212,8.05-.242,14.611,4.898,16.883,12.865,1.61-6.123,5.363-10.89,11.322-12.902ZM210.597,178.084l7.881.005c.526-1.049,1.114-2.161,1.385-3.292,1.517-6.328,2.632-12.501,3.501-19.044,4.931-37.126,7.708-74.264,8.42-111.702.058-3.072-.232-5.708-1.161-8.499-1.867-5.609-6.562-9.525-12.457-10.42-5.532-.84-11.194.858-14.806,5.278-2.418,2.959-3.988,6.779-4.003,10.845-.059,15.822.534,31.455,1.392,47.306,1.199,22.149,2.898,44.003,5.461,66.006l2.628,17.722,1.759,5.795ZM199.782,178.06l8.519.011-2.022-10.654c-2.857-21.699-4.943-43.327-6.172-65.247l-3.296-58.768c-.203-3.614-.946-6.836-2.682-9.901-2.382-4.207-6.524-7.002-11.374-7.476-6.035-.589-11.408,2.745-13.707,8.297-1.422,3.433-2.056,7.059-1.702,10.947,1.321,14.501,3.025,28.747,5.527,43.139,2.925,16.829,6.589,33.223,10.97,49.688,2.21,8.307,4.601,16.228,7.506,24.248l3.754,8.581c1.142,2.611,2.799,4.929,4.678,7.135ZM229.504,177.987l3.688-5.278c3.179-5.672,5.456-11.499,7.582-17.728,4.558-13.357,8.188-26.84,11.412-40.647,5.168-22.139,8.987-44.327,11.357-66.903.855-8.146-.226-16.674-7.968-20.164-6.179-2.785-13.136-.863-17.267,4.497-2.921,3.79-3.874,8.359-4.165,13.159l-1.55,25.564-4.335,56.026c-1.412,13.814-3.047,27.316-5.18,40.973l-2.298,10.595,8.724-.095ZM196.986,177.899l-5.266-10.403c-2.959-7.635-5.42-15.204-7.63-23.177-5.848-21.103-10.747-42.261-13.954-63.957l-5.198-35.162c-.641-4.335-1.677-8.358-4.265-11.816-2.915-3.894-7.298-6.122-12.147-5.736-9.463.753-12.338,10.458-10.874,19.474,2.211,13.613,4.743,27.012,8.354,40.371,6.882,25.46,18.182,56.845,32.322,78.925,2.839,4.433,6.034,8.275,10.242,11.345l8.414.137ZM241.009,177.743c3.191-2.609,5.754-5.086,8.102-8.222,10.687-14.276,20.221-35.127,26.605-51.99,8.954-23.651,14.522-44.581,18.626-69.524.648-3.94.807-7.762-.171-11.513-1.323-5.075-5.451-8.444-10.648-8.815-5.23-.373-9.937,2.146-13.035,6.342-2.821,3.82-3.649,8.198-4.458,12.884l-7.977,46.197-6.118,27.825c-3.251,13.444-6.982,26.476-11.613,39.468l-5.534,12.982-2.671,4.521,8.892-.155ZM176.025,177.135l9.039.434-.379-.546c-4.141-4.207-7.237-8.977-10.257-14.116-5.958-10.137-10.767-20.722-15.133-31.696-7.994-20.092-14.185-40.577-19.117-61.615l-5.561-25.923c-1.668-7.774-8.425-15.303-16.905-14.193-8.804,1.153-11.078,10.503-9.379,18.66,1.932,9.273,4.148,18.22,6.862,27.364,7.757,26.138,20.819,56.314,36.919,78.292,6.258,8.543,14.582,18.418,23.911,23.339ZM253.765,177.184c4.723-2.669,8.633-5.725,12.308-9.49,4.137-4.117,7.997-8.248,11.244-13.107l11.006-16.469c16.572-27.61,28.446-59.293,35.267-90.733.637-2.938.511-5.868.082-8.687-.802-5.273-4.884-8.996-10.252-9.276-8.225-.43-14.524,7.544-16.054,15.155-3.864,19.229-8.536,38.103-14.663,56.788-7.264,22.15-17.245,46.487-30.036,65.836-2.531,3.829-5.164,7.031-8.438,10.359l9.535-.376ZM163.114,176.549l8.976.421c-3.907-2.991-7.169-5.795-10.416-9.323-8.639-9.387-15.745-19.799-22.059-30.94-16.299-28.756-26.062-59.256-34.439-90.982-2.052-7.769-10.256-16.031-18.748-12.346-6.607,2.867-6.087,12.06-4.167,18.898,3.017,10.749,6.467,21.177,10.659,31.599,10.07,25.035,26.025,52.642,44.423,72.365,5.613,6.017,11.546,11.274,18.271,15.95l7.501,4.357ZM266.908,176.45c14.167-7.186,26.554-20.184,36.129-32.523,21.268-27.404,37.227-61.387,45.993-94.81.836-3.187.766-6.478.251-9.465-.851-4.935-5.123-7.741-9.976-7.089-3.655.491-6.624,2.677-8.88,5.589-2.749,3.549-3.947,7.541-5.117,11.907-4.913,18.341-10.996,36.214-18.307,53.787-5.54,13.314-12.094,26.019-19.625,38.273-5.602,9.114-11.815,17.551-19.027,25.347-3.349,3.62-6.715,6.556-10.919,9.55l9.478-.565ZM150.839,175.63l7.923.547c-8.254-5.393-15.495-11.605-22.209-18.835-17.935-19.314-32.985-45.234-43.324-69.481-5.028-11.792-9.383-23.602-13.203-35.792-1.304-4.162-2.861-8.017-5.71-11.246-2.283-2.587-5.021-4.609-8.4-5.123-5.051-.769-9.239,2.606-9.624,7.674-.284,3.743.378,7.248,1.511,10.868,2.749,8.783,6.106,17.08,9.981,25.483,7.398,16.04,16.155,31.254,26.533,45.557,11.874,16.365,26.003,31.312,42.756,42.647,4.405,2.981,8.811,5.453,13.767,7.701ZM278.974,175.382c3.431-.962,6.313-2.871,9.291-4.638,20.494-12.156,38.843-32.583,52.168-52.306,12.901-19.096,25.817-44.448,32.462-66.431.943-3.12,1.184-6.327.873-9.484-.446-4.524-4.379-7.45-8.871-6.848-3.175.426-5.882,2.21-8.051,4.533-3.298,3.533-5.105,7.717-6.516,12.352-3.234,10.624-7.173,20.737-11.457,31.018-11.896,28.545-29.533,58.867-52.001,80.26-4.919,4.683-10.143,8.535-15.832,12.268,2.727-.259,5.352,0,7.934-.724ZM134.646,168.034c-8.446-6.001-15.958-12.546-23.048-19.961-20.569-21.513-36.582-48.34-48.743-75.416-2.476-5.513-4.662-10.812-6.649-16.482-1.404-4.007-2.937-7.755-5.63-11.07-2.797-3.442-7.161-6.133-10.667-3.878-3.271,2.103-2.848,8.24-1.509,12.406,3.27,10.177,7.734,19.685,12.667,29.23,7.569,14.648,16.495,28.435,26.756,41.356,15.903,20.026,37.028,39.211,60.329,49.981,2.287.61,4.858.567,7.542.761l-11.047-6.928ZM291.924,174.233c39.701-19.06,70.419-57.991,89.555-96.725,3.841-7.775,7.26-15.454,9.974-23.626,1.041-3.134,1.414-6.33.807-9.448-.558-2.867-3.046-4.481-5.93-3.962-2.504.451-4.655,2.094-6.383,4.06-2.531,2.879-4.02,6.346-5.483,9.926l-8.414,20.578c-13.55,29.318-30.578,56.982-54.113,79.307-8.515,8.077-17.685,15.012-27.917,20.613l7.903-.723ZM132.917,173.478c-9.651-5.372-18.605-11.323-27.04-18.413-6.884-5.785-13.189-11.735-19.272-18.365-16.381-17.855-30.537-39.378-41.22-61.121-3.396-6.912-6.28-13.678-9.143-20.771-1.761-4.363-6.848-11.632-11.036-10.201-3.543,1.21-1.218,9.517.566,13.914,6.919,17.051,18.08,36.939,28.762,52.007,18.436,26.007,42.065,49.154,71.61,61.819,2.127.912,4.43.9,6.774,1.13ZM303.497,172.549c16.109-6.908,30.427-16.6,43.126-28.511,12.732-11.943,23.791-25.385,33.343-40.003,6.767-10.357,12.828-20.922,18.211-32.012l5.671-12.889c1.858-4.224,4.38-13.248.818-14.516-4.169-1.485-8.916,5.541-10.904,9.997l-10.378,23.262c-8.042,15.884-17.474,30.851-28.392,44.941-15.804,20.395-35.756,38.809-58.566,50.88l7.071-1.148ZM303.988,180.974c1.115-1.944.931-3.859-.025-5.393l-23.949,3.009c-12.439,1.124-24.633,1.705-37.193,2.1-22.808.719-45.287.585-68.067-.459l-25.44-1.669c-8.015-.526-15.601-1.664-23.561-3.009-1.166,2.489-.687,5.437,1.171,5.663l17.926,2.175c14.237,1.143,28.184,1.767,42.518,2.176,19.222.549,38.1.51,57.316-.045l39.276-2.035,20.028-2.513ZM259.09,214.261c11.28-.848,21.925-1.997,32.833-4.05,4.186-.788,7.982-1.926,12.096-3.563-5.865-5.737-7.552-15.351-3.41-22.771l-30.056,2.619c-36.91,1.896-73.684,1.909-110.595.003-10.323-.533-20.278-1.366-30.727-2.581,4.249,7.543,2.463,16.625-3.304,22.763,3.368,1.403,6.543,2.378,10.027,3.107,20.379,4.261,51.492,6.027,72.64,6.017l13.629-.006,36.867-1.538ZM124.377,212.875c4.244,1.726,8.336,2.842,12.772,3.723,8.531,1.695,16.913,2.805,25.655,3.6,26.553,2.416,53.029,2.835,79.706,1.667,12.049-.527,23.72-1.421,35.595-2.929,7.476-.949,14.584-2.171,21.803-4.123l6.303-2.34c1.015-.377,1.507-1.548,1.53-2.47.018-.729-.832-2.331-1.758-2.1l-3.991,1.559c-5.449,1.641-10.741,3.029-16.434,3.639l-27.919,2.989c-28.704,1.977-57.288,1.93-85.996-.014-9.468-.641-18.556-1.668-27.865-3.057-5.07-.756-9.835-1.767-14.724-3.132l-5.234-1.968c-1.139-.053-1.719,1.605-1.561,2.662.123.822.918,1.803,2.118,2.292Z"/>
        <path d="M196.86,210.021c.003.338-.242.979-.47,1.014-.286.044-.743-.301-1.016-.649-.48-5.672-.378-11.057.474-16.651.276-.351.676-.781.956-.871.337-.108.684.752.644,1.14l-.672,6.573.083,9.444Z"/>
        <path d="M209.339,210.296c-.064.345-.411,1.151-.6,1.03l-1.014-.646c-.405-5.728-.422-11.149.24-16.833l.554-.697c.16-.201.826.2.992.421-.448,5.606-.426,10.91-.172,16.726Z"/>
        <path d="M233.927,195.09c.553,4.51,1.047,16.929-.532,16.014-.253-.147-.583-.569-.783-.943.332-5.227.323-10.119-.333-15.266-.458-.618-.442-1.927.485-2.074.559.193,1.072,1.524,1.164,2.269Z"/>
        <path d="M221.798,210.448c-.155.292-.599,1.006-.76.865l-.864-.753c.248-5.559.328-10.85-.223-16.466.072-.333.31-.882.529-1.028.274-.183.845.45,1.059.857.541,5.521.525,10.844.259,16.525Z"/>
        <path d="M184.952,209.657c-.122.314-.378.873-.555.816l-.895-.284c-.527-5.722-.368-11.266.778-16.888l1.086-.709c.239-.156.485.924.344,1.13-.982,5.274-1.077,10.423-.758,15.935Z"/>
        <path d="M246.262,209.817l-.778.719c-.176.163-.689-.542-.731-.74.272-5.383.179-10.592-.724-15.864l-.034-.943c-.008-.217.612-.481.758-.323l.719.779c1.015,5.436,1.088,10.782.79,16.372Z"/>
        <path d="M173.477,208.976c-.16.29-.615.949-.768.806l-.708-.665c-.374-5.429-.21-10.749,1.006-16.024l.51-.747c.141-.207.765-.069,1.11.115-1.13,5.445-1.562,10.794-1.15,16.515Z"/>
        <path d="M257.898,208.989l-.703.794c-.131.148-.639-.593-.64-.848l-.04-7.672c-.223-3.116-.579-5.701-1.297-8.649.149-.203.844-.629.986-.426l.638.911c1.361,5.2,1.331,10.36,1.056,15.89Z"/>
        <path d="M162.562,207.727c.01.299-.184.966-.39.936l-1.013-.147c-.263-5.342-.054-10.482,1.149-15.685l.6-1.139c.121-.23.646-.221,1.144-.013-1.322,5.29-1.679,10.495-1.49,16.049Z"/>
        <path d="M279.188,206.74c.019.272-.224.812-.438.864-.267.065-.908-.452-.932-.762l-.505-6.584c-.226-2.944-.53-6.079-1.161-8.884-.058-.257.223-.889.442-.968,1.082-.39,1.766,4.43,1.972,7.391l.622,8.943Z"/>
        <path d="M152.091,207.03c-.024.232-.801.759-.952.603s-.383-.642-.365-.873l.552-7.082c.186-3.09.597-5.82,1.305-8.766l.956-.413c.255-.11.365.72.293,1.052-.714,3.257-.877,6.701-1.229,10.09l-.56,5.39Z"/>
        <path d="M268.757,208.069c-.211.284-.651.808-.781.672l-.633-.659c.244-5.242.005-10.405-1.386-15.533l.053-.92c.01-.183.565-.414.681-.273l.666.815c1.452,5.151,1.68,10.381,1.4,15.896Z"/>
        <path d="M142.075,205.379c-.23.143-1.075.395-1.1.181l-.101-.873c2.16-4.6,2.622-9.664,1.257-14.502.054-.209.503-.96.673-.795l.776.753c1.189,5.127.677,10.284-1.505,15.235Z"/>
        <path d="M289.112,204.499l-.17,1.056c-.044.273-.869-.176-1.094-.393-1.743-4.758-2.447-9.827-1.308-14.786l.43-.785c.115-.21.683-.035,1.104.212-1.319,4.984-.958,9.825,1.037,14.696Z"/>
        <path d="M294.886,189.158c-3.383,8.122,1.853,13.859,1.07,15.022-.774,1.149-2.803-3.823-3.338-7.348-.486-3.2.545-8.255,1.879-8.843.144-.063.654.107.633.263-.028.208-.136.651-.243.907Z"/>
        <path d="M134.961,203.825c-.183.179-.735.639-.815.483l-.455-.885c2.026-3.197,2.533-6.511,2.503-10.263l-1.266-4.493c-.06-.212.632-.66.752-.505l.55.714c2.096,4.859,1.344,10.219-1.27,14.949Z"/>
      </g>
    </g>
  </g>
</svg>