<?xml version="1.0" encoding="UTF-8"?>
<svg id="b" data-name="Layer 2" xmlns="http://www.w3.org/2000/svg" width="459.9" height="472.472" viewBox="0 0 459.9 472.472">
  <g id="c" data-name="Layer 1">
    <g id="d" data-name="C3Ubte">
      <g>
        <path d="M410.149,381.724c-38.55,50.049-95.997,83.666-159.182,89.746-44.065,4.241-88.173-5.087-127.068-26.101-28.577-15.44-53.808-36.487-73.941-61.987-24.826-31.443-40.86-68.578-47.082-108.19-3.121-19.873-3.59-40.046-1.946-60.105,3.002-36.617,14.938-71.89,34.064-103.15,10.035-16.401,21.627-31.594,35.211-45.239C111.177,25.542,164.707,2.427,222.816.165c28.623-1.114,57.3,3.423,84.249,13.07,39.416,14.109,73.845,39.189,99.893,71.855,23.468,29.431,40.015,63.708,47.712,100.607,4.812,23.068,6.463,48.235,4.288,71.631l-3.698,24.397c-3.022,14.479-7.128,28.373-12.423,42.255-7.929,20.784-19.109,40.118-32.686,57.745ZM366.934,414.538c31.488-25.778,55.681-59.452,69.614-97.71,6.903-18.954,11.551-38.556,13.629-58.671,2.37-22.948.964-45.811-3.515-68.366-6.567-33.067-20.345-64.097-40.335-91.202-28.173-38.201-66.046-65.785-111.461-80-28.054-8.781-57.683-11.356-86.834-8.393-65.039,6.611-122.437,41.413-158.972,95.301C21.558,146.058,7.558,192.153,8.484,241.326c.715,37.988,10.285,75.192,28.926,108.312,29.624,52.636,79.55,91.636,137.867,107.507,67.343,18.328,138.008,1.312,191.657-42.607Z"/>
        <path d="M406.44,356.637c-48.826,75.893-140.846,115.5-228.935,91.524-62.507-17.013-114.351-61.35-140.723-120.534-15.864-35.603-22.001-75.187-18.049-114.059C27.959,122.821,92.534,45.167,181.736,24.226c41.033-9.633,83.865-7.154,123.185,8.076,72.537,28.096,123.423,94.359,134.445,171.209,3.419,23.842,2.811,47.967-1.327,71.713-5.058,29.026-15.693,56.689-31.599,81.413ZM254.136,445.463c37.699-5.026,72.833-20.635,101.953-44.595,23.271-19.148,42.271-42.928,55.39-70.089,15.572-32.241,22.554-65.743,21.604-101.563-1.506-56.728-25.693-110.711-67.56-149.034-21.453-19.637-46.949-34.441-74.667-43.487-30.843-10.066-63.585-11.795-95.487-6.161-41.632,7.352-80.045,27.601-109.496,57.834-37.079,38.062-58.401,88.851-59.814,142.042-1.154,43.425,10.42,86.894,34.371,123.182,15.451,23.41,35.354,43.58,58.679,59.132,16.357,10.906,33.972,19.519,52.756,25.346,26.533,8.23,54.417,11.108,82.272,7.394Z"/>
        <path d="M296.408,425.067c-21.915,8.484-45.39,12.946-68.686,12.627-69.327-.948-133.149-41.373-166.847-101.405-18.663-33.249-27.292-71-25.683-109.131,1.99-47.144,20.816-92.407,52.578-127.183,14.971-16.392,32.563-29.985,52.183-40.344,42.667-22.529,93.256-28.915,139.821-16.01,51.45,14.259,94.589,48.929,119.92,95.902,19.925,36.949,27.917,78.214,23.08,120.137-1.948,16.885-6.084,33.207-11.954,49.082-19.651,53.141-61.33,95.775-114.412,116.325ZM307.18,412.465c18.372-8.707,34.768-20.251,49.391-34.061,33.599-31.73,54.247-75.975,59.176-121.839,6.503-60.51-16.538-121.86-61.19-162.906-18.197-16.727-39.36-29.523-62.569-38.033-22.922-8.404-47.213-12.005-71.604-10.502-44.379,2.734-85.81,20.26-118.034,50.935-23.945,22.795-41.444,51.483-51.25,83.065-3.905,12.576-6.636,25.243-7.887,38.423-4.277,45.049,6.994,90.374,32.089,128.045,32.974,49.5,88.7,82.394,148.576,84.538,28.808,1.032,57.106-5.25,83.303-17.666Z"/>
        <path d="M297.422,362.908c2.901-6.931,5.607-13.34,7.483-20.46,3.936-14.937,4.67-30.188,1.406-45.269-3.285-15.175-10.913-32.823-24.124-41.466-1.663,4.002-3.367,7.664-5.677,11.351,4.324,5.775,7.382,12.074,9.437,19.108,7.521,25.741.451,52.768-17.259,72.753-5.429,6.127-11.481,11.186-17.789,16.366-6.067,4.981-12.891,11.57-12.538,19.571.11,2.495,1.372,4.752,2.955,5.791,2.316,1.519,4.507,1.506,7.393.568-1.118,2.695-3.587,4.353-6.517,4.811-5.63.879-10.616-2.61-12.202-8.091-2.783-9.614,3.79-18.822,10.845-25.444l7.696-7.224c22.809-21.411,32.62-57.247,16.659-85.579-3.549,2.614-6.814,4.765-10.88,6.819,2.964,15.892-3.222,33.006-13.268,45.538-12.649,15.778-29.147,21.181-48.331,25.327l-13.53,3.713c-2.502.686-4.626,2.234-6.631,3.832-3.086,2.459-5.116,5.919-5.186,9.849-.082,4.61,3.031,7.874,7.82,8.82-3.495,2.374-7.385,1.935-11.016.131-2.818-1.4-5.236-4.417-6.005-8.028-1.946-9.145,4.554-16.863,12.874-20.711,10.228-4.732,21.651-5.769,33.993-12.253,11-5.779,20.067-14.147,26.063-25.013,4.462-8.086,7.06-16.756,6.647-26.058-4.7.489-9.228.579-14.001.017-10.779,29.788-42.881,44.126-73.473,36.857-6.568-1.561-12.516-3.786-18.767-6.224-7.961-3.105-18.146-6.658-25.171-1.905-1.985,1.343-3.252,3.511-3.466,5.592-.262,2.547.924,4.595,2.882,6.84-3.631.106-6.68-2.325-8.211-5.049-1.938-3.447-1.919-7.231-.151-10.707,4.776-9.384,17.242-9.816,27.018-6.544l13.251,4.435c26.483,8.864,57.247-2.428,69.499-28.321l-10.341-6.508c-14.458,11.296-32.575,14.02-50.282,9.443-13.979-3.614-26.092-11.09-35.2-22.3l-11.315-15.63c-4.927-6.806-10.784-15.512-19.735-15.702-2.942-.062-5.743,1.073-7.426,2.972-1.978,2.231-2.439,4.902-2.264,8.127-2.903-2.803-4.156-6.556-3.508-10.593.525-3.267,2.673-6.547,5.997-8.439,8.481-4.826,19.673.427,25.173,7.31l9.305,11.644c9.343,11.691,21.599,20.466,36.05,24.638,13.798,3.984,29.517,2.647,41.195-5.081-3.197-4.901-5.237-9.794-6.814-15.247-8.724.023-16.825-2.107-24.599-5.94-13.381-6.598-24.494-16.831-31.459-30.082-5.754-10.947-7.989-22.808-8.183-35.142-.108-6.826.356-13.29.666-20.112.351-7.726.042-17.721-5.517-22.525-3.731-3.225-8.791-2.668-11.987,1.347-.582-3.8,1.343-7.322,4.083-9.483,3.045-2.402,7.249-2.834,10.88-1.35,6.583,2.69,9.853,9.976,10.674,17.035.612,5.261.787,10.297.528,15.626-1.272,26.168,11.741,51.138,34.109,64.806,5.785,3.535,11.966,6.013,18.816,6.938.43-4.886,1.277-9.403,2.747-14.036-17.481-10.361-25.076-29.31-26.546-49.088-1.069-14.38,2.222-27.943,9.839-40.13,4.203-6.725,8.95-12.741,14.518-18.44l14.905-15.256c5.121-5.241,11.171-12.937,10.426-20.024-.332-3.16-2.605-5.585-5.829-5.427-1.738.085-3.524.776-5.371,1.427,2.03-4.931,7.503-7.918,12.776-6.903,4.29.826,7.363,4.151,8.084,8.368,1.618,9.465-3.716,18.007-10.223,24.817-6.034,6.315-11.935,12.376-17.025,19.505-15.524,21.742-20.086,48.51-6.961,72.38,2.601,4.731,5.783,8.803,9.783,12.274l7.648-8.184c-5.733-13.187-4.988-27.248-.135-40.756,5.829-16.222,17.534-29.073,33.048-36.575,17.769-8.593,35.122-9.673,54.459-11.045,7.52-.534,16.947-2.841,19.605-9.78.657-1.714.442-3.626-.542-5.033-.99-1.416-2.975-2.187-4.845-1.908l-.769.114c-.135.02-.205-.379-.115-.48l.491-.552c3.889-3.554,10.098-2.222,12.767,2.359,2.197,3.771,1.67,8.206-.572,11.96-5.041,8.442-14.899,10.654-24.397,11.274-8.295.542-16.151,1.423-24.109,3.679-23.972,6.794-42.454,25.677-48.291,49.937-1.382,5.744-1.59,11.574-.293,17.125,5.171-1.811,9.74-2.847,14.86-3.379,4.04-29.184,29.144-45.031,56.865-47.772,16.162-1.598,31.815,2.181,45.589,10.717,5.965,3.697,11.126,7.945,16.562,12.369,6.454,5.252,15.54,11.454,23.251,8.084,1.695-.741,2.98-2.257,3.359-3.771.459-1.836-.297-3.759-1.624-5.178l-.467-.5c-.09-.096-.513-.449-.386-.457l1.283-.08c3.341-.208,6.205,2.852,6.792,6.368.719,4.304-1.449,8.314-5.124,10.692-7.536,4.877-18.399,1.977-24.969-3.181l-8.796-6.905c-5.013-3.935-9.788-7.764-15.54-10.605-8.183-4.041-16.872-5.955-26.123-5.339-22.091,1.471-45.58,14.851-52.703,36.91l10.905,3.941c11.758-12.183,28.099-16.712,44.745-15.197,24.129,2.196,42.51,16.064,53.872,37.073,2.894,5.35,5.179,10.673,7.364,16.349l5.818,15.107c1.589,4.125,4.218,7.711,7.64,10.433,5.184,4.123,12.458,4.125,15.236-.757,1.467-2.578.939-4.981-.115-8.037,5.001,2.047,6.969,7.746,4.906,12.837-2.12,5.232-7.443,8.269-13.184,8.179-6.128-.097-11.472-2.996-15.371-7.718-3.242-3.927-5.24-8.545-7.12-13.337l-6.797-17.318c-4.512-9.699-10.45-18.333-18.736-25.111-10.018-8.195-22.209-12.911-35.188-12.385-10.419.422-20.224,3.636-28.556,10.231,3.021,3.258,5.552,6.485,7.926,10.074,19.758-4.763,41.204,4.116,54.187,18.996,7.274,8.336,12.082,18.054,14.659,28.794,4.708,19.622.756,38.388-4.343,57.521-2.24,8.406-5.125,19.512.607,25.778,2.076,2.269,5.027,3.059,7.821,2.359,2.683-.673,4.293-2.945,5.609-5.987,2.529,6.419-1.586,12.976-8.021,14.552-4.055.994-8.234-.469-11.321-3.342-3.772-3.51-5.497-8.372-5.767-13.593-.225-4.346.548-8.622,1.394-12.964l4.125-21.181c2.569-19.087.473-40.499-11.28-56.123-9.553-12.699-24.815-19.722-40.95-18.092,1.033,4.944,1.573,9.59,1.45,14.781,21.686,9.527,32.166,33.579,34.44,56.567,1.653,16.714-.444,33.096-5.457,49.054l-8.047,20.166c-1.621,4.063-3.362,7.949-3.741,12.34-.294,3.402.408,6.984,2.955,9.154,2.143,1.825,5.047,1.734,7.445.313l.663.167c-1.026,2.899-3.395,4.712-5.594,5.4-3.197,1-6.261.239-8.812-1.603-3.572-2.579-5.143-6.977-5.337-11.454-.227-5.228,1.401-10.037,3.491-15.03ZM232.084,261.906c8.967-.47,16.421-5.587,20.532-12.478,4.691-7.863,4.84-17.246.697-25.063-4.341-8.189-12.291-13.371-21.207-13.876s-17.443,3.725-22.523,11.297c-5.578,8.314-6.012,18.757-.957,27.454,4.631,7.968,13.482,13.189,23.458,12.666Z"/>
      </g>
    </g>
  </g>
</svg>