<?xml version="1.0" encoding="UTF-8"?>
<svg id="b" data-name="Layer 2" xmlns="http://www.w3.org/2000/svg" width="462.523" height="465.13" viewBox="0 0 462.523 465.13">
  <g id="c" data-name="Layer 1">
    <g id="d" data-name="38uX7E">
      <g>
        <path d="M325.378,434.688c-57.708,27.717-122.376,28.436-180.823,2.375-13.913-6.204-27.017-13.77-39.464-22.52-23.302-16.381-43.5-36.764-59.15-60.654-23.255-35.5-36.162-77.182-36.892-119.689-.636-37.041,9.07-74.651,26.391-107.26,17.67-33.266,43.275-61.445,74.823-82.109,21.538-14.108,45.521-24.115,70.68-29.774,46.658-10.494,95.661-7.516,139.699,11.507,25.092,10.839,47.546,26.602,66.782,45.936,34.11,34.284,56.651,79.412,63.744,127.252,3.864,26.067,2.871,52.376-2.539,78.104-8.801,41.862-28.982,80.426-59.016,110.927-18.605,18.894-40.265,34.392-64.236,45.905ZM392.264,382.56c28.379-30.488,47.091-68.341,54.763-109.207,2.287-12.185,3.77-24.105,4.029-36.589,1.206-58.042-20.729-114.791-60.305-157.171-19.687-21.083-43.086-38.232-69.463-49.954-20.656-9.179-42.583-14.683-65.102-16.917-21.387-2.122-42.658-1.015-63.789,2.651-29.421,5.103-57.49,16.043-82.316,32.645-21.09,14.103-39.715,31.611-54.784,52.029C27.589,137.592,11.809,182.901,11.483,229.746c-.303,43.518,12.591,86.314,36.305,122.665,14.883,22.814,34.026,42.295,56.003,58.237,11.699,8.487,23.951,15.85,37.016,22.044,31.265,14.822,65.582,22.173,100.258,20.798,57.546-2.283,112.184-29.014,151.199-70.93Z"/>
        <path d="M329.198,442.891c-60.05,28.842-127.343,29.59-188.162,2.471-14.478-6.456-28.113-14.328-41.066-23.434-24.248-17.046-45.265-38.256-61.55-63.116C14.221,321.871.79,278.498.031,234.266c-.662-38.544,9.438-77.68,27.463-111.613,18.388-34.616,45.032-63.939,77.86-85.442,22.412-14.68,47.369-25.094,73.549-30.982,48.552-10.92,99.543-7.821,145.368,11.974,26.11,11.279,49.476,27.681,69.493,47.801,35.494,35.675,58.95,82.635,66.331,132.417,4.021,27.125,2.987,54.501-2.642,81.274-9.159,43.561-30.159,83.69-61.412,115.429-19.36,19.661-41.899,35.787-66.843,47.768ZM398.798,388.648c29.53-31.726,49.002-71.114,56.985-113.639,2.38-12.679,3.923-25.084,4.193-38.074,1.255-60.397-21.57-119.45-62.752-163.55-20.487-21.939-44.834-39.783-72.282-51.981-21.494-9.552-44.311-15.278-67.744-17.603-22.255-2.208-44.389-1.056-66.378,2.758-30.615,5.31-59.823,16.694-85.657,33.97-21.946,14.676-41.327,32.894-57.007,54.14C19.323,133.737,2.903,180.885,2.563,229.631c-.316,45.284,13.103,89.817,37.778,127.644,15.487,23.74,35.407,44.012,58.276,60.601,12.174,8.831,24.923,16.493,38.519,22.939,32.533,15.424,68.244,23.073,104.327,21.642,59.882-2.375,116.737-30.192,157.336-73.809Z"/>
        <path d="M277.921,116.811c-5.919,4.388-14.724,3.267-18.6-2.948-2.885,2.378-6.851,2.562-9.571.158-1.133,1.204-2.464,2.342-4.184,2.748-8.021,1.894-18.504-1.91-17.98-10.39-2.751-.021-5.004-1.407-6.461-3.787-2.949-4.817-.924-11.622,4.32-14.032l3.144-1.445c4.5-2.068,10.261.409,11.332,5.295.397,1.809-.268,3.728-1.344,4.856-1.227,1.286-2.969,1.997-4.921,1.369-.628-.202-1.713-1.118-1.787-1.725-.081-.661.285-1.669.548-2.544-1.05.218-1.974,1.241-2.013,2.032-.057,1.163.386,2.421,1.31,3.181,2.611,2.15,6.594,1.343,8.643-1.437,3.063-4.156,1.548-9.983-2.954-12.459-3.508-1.975-7.705-1.929-10.956.506-4.09.797-7.208,3.782-8.509,7.73-2.155,6.327.681,12.952,7.179,14.45.632,8.056,9.187,12.048,17.625,11.089-2.086,5.009-7.072,7.498-12.187,7.769-5.176.274-10.143-1.351-13.48-5.228-2.698-3.135-3.787-6.866-2.41-11.103-4.605,1.151-8.92-.038-12.488-3.04-3.734-3.143-5.515-7.865-5.176-12.77.508-7.352,6.537-13.886,14.224-14.1.428-2.153,1.114-4.08,2.475-5.826,4.922-6.312,14.153-8.053,20.998-3.942,2.248,1.35,3.86,3.119,4.472,5.626,3.129-.52,5.938.188,8.497,1.911,5.322,3.584,7.191,10.245,4.671,16.219-1.073,2.544-3.204,4.088-5.479,5.651,4.72-1.218,7.808-5.376,8.436-10.148.599-4.553-1.161-8.808-4.384-12.075.406-1.903,1.576-3.76,3.077-4.694,4.374.833,8.196-.74,11.079-3.886,1.345-1.467,2.955-2.657,2.462-5.089-.189-.933-.815-2.324-2.206-1.941,1.389.892,1.808,2.438.88,3.804-.951,1.398-2.798,1.956-4.572,1.735-1.487-.185-3.022-1.505-3.659-3.229-1.11-3.005-.139-6.159,2.164-8.367,4.428-4.245,11.456-4.612,15.962.26-.802-2.462-2.965-4.121-5.655-4.81-5.77-1.479-11.995,1.684-14.255,7.187-1.859,4.527.385,9.372,4.853,10.599-3.409,2.388-7.573,2.091-10.777.062-3.265-2.068-4.731-6.088-3.944-10.056.553-2.786,2.128-5.184,4.855-6.34-.048-3.089,1.389-5.601,3.839-7.682,6.617-5.62,16.922-4.952,23.002,1.252,2.439,2.489,3.722,5.434,3.445,8.911,4.456-1.494,9.354-.024,12.122,3.741,1.414,1.922,1.947,4.333,1.592,6.647,1.658-.053,3.377.017,4.976.556,7.168,2.416,15.346.271,16.331-5.451.419-2.437-.898-4.205-3.514-4.765,3.096-1.774,6.575-.434,8.554,2.253,2.494,3.386,1.947,7.969-.655,11.345-3.077,3.994-7.998,5.851-13.206,5.716,2.228,3.193,1.609,6.987-1.179,9.608,3.825.628,6.101,3.825,5.219,7.591,7.173-3.497,15.391-3.015,20.371,2.943,2.36,2.823,2.994,6.24,2.193,9.668,1.983,2.092,5.646,2.01,7.955.199,4.147-3.253,9.914-3.737,14-.263,1.349,1.147,2.57,2.524,2.335,4.725-3.029-2.89-7.845-3.131-10.999-.146l-4.891,4.631c-3.196,3.026-7.733,3.681-11.926,2.19.077,3.213-1.46,5.773-4.023,7.549-3.783,2.621-9.101,3.052-13.034-.3,4.361-.157,7.539-2.047,9.195-5.833,1.371-3.134,1.342-6.632-.85-9.456-1.899-2.446-5.354-4.073-8.782-3.103l-3.537,1.001c.621,3.368-.811,6.27-3.131,8.676-6.334,6.568-18.441,7.28-24.652.954-1.26-1.283-2.014-3.017-2.636-4.579-5.523,1.133-10.936-1.646-13.835-6.413-2.758-4.536-3.17-10.021-1.398-15.16,2.92-8.472,11.265-14.093,20.279-13.643,5.223.261,9.909,3.128,12.298,7.572,2.369,4.407,1.828,9.515-1.287,13.1s-8.224,5.175-12.812,3.365c-2.659-1.048-4.579-3.393-4.475-6.315.058-1.615.83-3.286,1.921-4.19,1.269-1.052,3.102-1.513,4.673-1.02,1.951.613,2.567,2.117,2.244,4.213,1.82-1.223,1.433-3.587-.04-4.855-2.741-2.358-6.523-1.734-9.019.858-2.018,2.096-2.71,5.013-1.891,7.947.67,2.402,2.645,4.636,5.334,5.769,5.374,2.264,11.397.732,15.391-3.32,3.966-4.024,5.223-10.059,3.001-15.635-2.228-5.591-7.664-9.458-13.849-10.105-12.808-1.34-24.468,8.235-25.587,20.994-.918,10.473,6.553,20.465,17.016,19.458.299.496.607,1.355.669,1.977Z"/>
        <path d="M158.336,210.937l-4.541-1.308c.722,2.014.995,3.48-.068,5.504l-1.656-1.746c-.049.495-.177,1.624.133,1.817l1.562.976c-2.186,1.215-4.052.461-5.675-1.563-1.222,5.134,4.098,3.828,5.322,6.95.359.915-.015,2.68-.727,3.429l-.887-2.415c-.635-1.727-4.765.011-6.918-3.761-.073,1.874,1.369,2.608,2.606,3.491,2.805,2.004,3.28,5.744,1.564,8.418-1.765,2.91-5.501,4.095-8.488,2.321l-.496-.596c-.238-.286,4.841.556,5.708-3.167.408-1.753-.429-4.26-2.618-4.881-3.905-1.107-6.706-4.456-6.1-8.502-1.453,1.942-1.043,3.696-.187,5.839-3.489-1.19-4.953-4.623-3.78-8.042-2.08,1.227-2.887,3.549-1.548,5.76-2.185-.522-3.194-2.585-3.506-4.55-.33-2.077.876-4.006,2.84-5.271-.836-.748-1.345-1.354-1.481-2.479l5.552.92c3.977,3.386,9.588,2.393,12.284-2.022,1.448-2.372,3.193-4.724,5.375-6.413,5.869-4.543,13.151-4.959,20.081-2.947,2.781.807,5.946-.154,8.03-1.734,2.283-1.73,3.78-4.418,3.598-7.552-.272-4.684-3.567-8.134-7.659-9.889l2.802.186c-1.205-1.659-3.543-.929-5.157-1.557-1.104-.544-1.684-1.846-3.529-1.382l-2.618.657c-4.104,1.03-7.638-1.627-9.792-5.114l.103,2.439c-2.541-.046-5.83-1.543-6.764-4.301-.505-1.492-.916-2.979-2.23-3.855l1.079,3.928c.754,2.744,3.186,4.806,5.902,5.598l2.693-.721c2.18,3.46,6.379,4.912,10.306,3.352l1.01.086c.181.015.292.386.199.546l-.555.958c4.27.043,8.15,1.401,10.433,4.951,1.78,2.768,1.953,6.026.147,8.586-1.787,2.532-4.991,3.417-8.135,2.742l-6.096-1.308,6.469-.858c1.985-.263,3.734-2.346,3.883-4.265.173-2.237-1.225-4.037-2.868-5.313-2.695-2.095-6.018-2.331-9.28-2.702l-4.002-.455,2.655,1.313.579,3.318c-2.347-.188-3.973-2.497-4.874-4.257-2.399-.166-5.314.093-7.147-1.861l-3.063-3.264c.035,2.933,2.572,4.685,5.438,5.758-.893.522-2.717,1.161-3.573.958-3.868-1.714-3.065-6.121-5.043-9.542-1.37.968-.367,1.548.043,2.482-4.136-.029-6.978-3.152-7.987-7.452-.517,1.133-.944,2.012-1.473,2.127-1.867-.133-2.203-.971-2.386-2.681-.482.845-2.015.945-2.36-.122-.029-.716,1.447-1.267,2.464-1.864l-3.54.582c-1.598.169-2.49-1.915-2.247-3.333-.873.445-1.167,1.602-.723,2.609-2.073.374-3.022,1.198-4.699,3.128l.455-2.673-2.631,2.243c-.515-2.261.669-4.67,2.997-5.557l.668-2.425-3.067,1.123c.423-2.538,2.071-4.89,4.635-5.738l2.09-.25c.397-1.067.784-1.887,1.437-2.407.495-.394,1.781-.296,2.667-.064,1.738-2.666,4.97-3.385,7.787-1.975,2.402,1.203,3.312,3.678,2.537,6.275,2.617,1.496,3.248,4.242,1.856,5.635-1.961,1.962-5.258,1.477-6.931-.607,1.687-.053,3.052-.002,3.683-1.198-1.841.217-2.939.343-4.472.137.108,2.709,3.78,4.567,6.55,3.778,1.137-.324,2.69-1.576,2.843-3.306.109-1.228-.59-2.641-1.152-4.149,2.163-.268,4.003.632,5.646,1.62-.16-1.174,1.085-1.504,1.969-1.392,3.111.393,4.898,2.684,6.272,5.302,1.143,2.179,4.054,3.046,6.393,2.712,4.455-.636,5.643-5.312,5.567-5.298l1.599-.278-1.768-1.215c-.245-2.618-2.041-4.497-4.308-5.203-2.352-.887-4.86-.098-6.577,1.84l.445.655c.097.142-1.93,2.482-.628,4.421.962,1.432,2.681,1.386,3.775.556s1.589-2.318.882-3.749c-.553-1.121-1.871-1.725-3.508-1.354,1.064-1.64,3.186-1.681,4.918-1.094,2.279.773,3.642,2.494,3.601,4.718-.041,2.288-1.652,4.169-3.954,4.684-3.05.682-5.245-.782-6.497-3.366-.836-1.726-2.943-2.776-4.721-3.846l.996-2.783c-.578-1.021-1.157-2.299-1.028-3.553.176-1.711,2.904-3.189,2.582-3.366l-.925-.509c.521-3.366.029-6.958-2.72-9.355-1.847-1.611-4.486-2.871-7.007-2.893l-8.209-.074c-3.274-.029-6.486-1.167-8.795-3.36-2.122-2.015-3.72-5.034-2.114-7.996,1.964,7.508,8.315,8.258,15.747,7.286,7.716-1.01,14.78.384,17.905,7.886.996-2.154,1.864-4.35,2.073-6.758.37-4.263-2.4-7.759-6.576-8.636-4.823-1.012-9.555,1.537-15.331.978-2.91-.282-5.651-1.611-7.11-4.027-.959-1.588-1.287-3.567.103-4.899.496,2.665,1.972,4.254,4.294,4.947,6.529,1.948,11.787-2.831,19.932-1.847,5.326.643,9.34,4.362,10.489,9.638.772,3.547.028,7.143-1.272,10.564l-2.051,5.399c-2.386-.296-4.605.867-5.839,3.021-.85,1.484-1.807,3.354-.452,4.961-.037-1.829.439-3.448,1.833-4.717,2.561-2.333,6.146-2.588,9.303-1.122,1.76.817,2.921,2.957,2.42,4.931,1.681-.683,4.183-1.699,5.949-.345,1.756,1.347,3.458-.124,3.673.596l.493,1.646c.06.201.275.582.375.745s.559-.581.604-.699c-.34-3.253,1.194-5.862,3.498-8.024,3.061-2.339,6.515-3.922,10.784-3.896l-3.793,3.201c-1.005.848-1.945,2.235-2.333,3.576,3.863-3.99,9.162-6.073,14.673-5.065,3.232.591,6.588,2.783,6.935,6.406-3.186-2.607-6.788-3.902-10.258-2.256,2.5.112,4.78-.415,6.626,1.265-3.766-.614-7.254-.235-9.973,2.228,4.682-1.326,9.402-1.523,13.087,1.628,4.577,1.259,9.438.923,13.795-1.277l5.926-2.017c-1.215,3.496-3.609,5.013-6.062,7.241l5.073-1.009,7.616-1.786c2.15-.504,5.666,2.262,13.336-3.161,2.75-1.945,3.893-4.845,3.898-8.083.003-1.761,1.578-2.982,3.014-3.064,1.61-.092,2.998,1.002,3.37,2.788.524,2.515-.3,5.068-1.566,7.388-4.534,8.307-13.826,11.082-23.068,12.437l4.745.829c2.855.499,5.548-.398,8.406-1.561-2.457,4.044-7.768,6.45-12.268,5.653-2.963-2.178-6.505,1.158-14.516-2.857l-4.7-2.356,3.6-.495-4.848-3.847c-2.73-2.166-9.652-3.496-12.446-.975,5.016-1.157,9.832.647,13.112,4.439-4.041-.615-9.426.712-10.746,3.999,4.717-3.252,9.743-2.546,14.166-.142.67,1.56,1.251,1.855,2.685,2.309,3.635,1.151,6.627,1.291,10.697.435l-2.64,2.827c4.429,1.454,8.954,1.69,13.198-.133l.808-.057c.139-.01-.029-.467-.164-.472l-.67-.024c.737-1.621,2.199-3.205,4.101-3.85,3.786-1.283,9.201-2.644,12.406-1.193,5.15-.131,10.209-1.738,14.385-4.578,3.441-2.34,5.095-5.575,5.378-9.554.118-1.661,1.981-2.871,3.266-2.916,1.589-.056,3.111.996,3.447,2.757,1.179,6.182-4.235,12.644-9.782,16.018-5.795,3.525-12.252,5.101-19.078,5.125-2.999.01-6.34.836-8.426,2.918-1.297,1.295-2.427,2.823-4.485,3.067-4.656.553-9.558.885-14.115-.539l-14.922-4.66c-2.733-.854-5.963-.332-7.45,2.137,2.378-1.005,4.698-1.592,7.076-.759l9.54,3.343-5.635,2.276c-2.302,3.95-5.689,4.183-10.205,4.53,2.541.891,5.259.691,7.771-.484l5.65,2.108-3.815.842-4.031,1.004c.287.245,1.484.462,2.115.34l5.179-1.001c-2.951,3.07-6.598,3.832-10.707,3.966,3.731,1.02,6.685,2.449,9.362,4.974l2.296,1.664-6.099-.099c1.699.801,3.328.897,5.491,1.164-5.966,3.232-11.843.938-17.819-1.096l5.831,4.962c1.86,1.583,4.031,2.431,6.4,3.319-7.716,2.775-11.909,1.513-18.942-2.077l5.661,6.009c1.408,1.495,3.301,2.119,5.498,2.924-6.752,2.633-14.04.967-18.583-5.076.341,3.722,2.89,6.361,6.311,8.448-6.177.926-11.928-1.608-15.212-7.076-.158,4.001,2.318,6.472,5.278,8.737-4.855-.17-8.095-3.369-9.692-7.869l.392,4.102,1.686,2.437c-2.783-.495-5.555-2.319-6.596-4.965-.874-2.224-1.713-4.323-4.247-5.297.706,1.242,1.043,1.825,1.3,3.187-2.1-.921-3.276-1.805-4.938-3.11l.982,2.557c-1.48-.387-2.186-.789-2.961-1.571-1.727-1.742-3.918-1.377-5.513.003,1.595.705,2.445,1.159,3.735,2.34l-3.55-.139,3.402,3.511c-1.183.192-3.641.527-4.922.158ZM131.497,158.414l-.159-5.635-1.475,1.687,1.634,3.948ZM197.816,177.455l-1.284-1.81c1.106-.167,2.043-.002,3.029.548,3.495,1.948,7.812,1.679,11.093-.595-4.738,1.63-9.946.723-12.352-3.676l2.211.397c-2.243-1.941-3.27-4.173-2.165-3.804l.84.281-1.859-2.502c2.085.249,3.414.386,4.903-.15-2.62-.615-4.245-1.443-5.879-3.094l-2.227-2.25c1.766-.038,3.272-.131,4.616-.49l-4.148-1.071c-2.16-.558-4.683-.448-7.042-.31.961-2.533,3.361-3.439,6.022-3.934-3.878-.871-8.301,1.128-8.885,5.243-2.446-1.886-2.296-4.847-.77-7.294-1.922.948-2.487,3.273-2.219,5.296.177,1.338,1.872,3.321,3.505,3.402,4.128-2.115,8.594.172,10.212,4.171.211,3.251.451,5.722,2.378,8.729l-2.243-1.051-4.389,1.536c-3.021,1.057-7.05-.357-7.781-3.684,2.82,2.731,6.409,3.936,9.434,1.241.452-.402,1.489-.511,2.216-.387l-.796-4.763c-.437-2.616-2.296-4.415-4.612-4.929-2.427-.538-4.943.237-6.371,2.458-1.037,1.612-2.558,2.335-4.785,2.204,2.017.876,3.578,2.251,4.171,4.43.534,1.962,1.97,3.231,3.779,4.021,4.578,2.001,6.371-.713,9.013.083l-2.808,1.765c1.892.263,2.518-1.567,5.189-.011ZM137.603,158.201c.35-.399-.034-1.625-.519-1.774-.44-.135-1.558-.13-1.926.102-.452.286-1.116,1.564-.829,1.99.252.372,1.103.86,1.576.991.433.12,1.06-.584,1.698-1.31ZM184.895,193.312c2.014-1.24,3.069-3.569,3.009-5.689s-1.249-4.467-3.3-5.488c2.515,3.583,2.698,7.667.291,11.177Z"/>
        <path d="M322.043,378.855c-4.485-.075-8.096,2.951-8.665,6.997-.415,2.956,1.022,5.794,3.917,6.463.924.213,2.298-.011,2.942-.397.894-.536,1.498-1.667,1.261-2.817-.704,1.067-1.505,1.903-2.822,1.98-.872.051-2.362-.766-2.907-1.77-1.74-3.204.308-6.946,3.808-7.944,4.28-1.221,8.681,1.35,9.963,5.753,1.32,4.531-.123,9.317-3.248,12.892-4.494,5.141-12.986,8.004-18.78,3.706-1.256,2.867-4.153,4.085-7.352,3.424,1.99,4.927.093,9.76-3.815,12.629-2.605,1.913-5.666,2.879-9.03,2.71l-8.334-.42c-3.358-.169-6.813,1.1-8.842,3.634-2.263,2.825-1.923,6.329.614,9.022-4.699-.316-7.498-4.444-7.251-8.817.184-3.267,2.084-6.088,4.858-7.817,4.871-3.036,9.361-1.608,11.157-6.723-3.094.603-6.057-.281-7.519-3.198-5.528,5.02-15.709,3.645-18.821-3.458-4.042,2.725-8.931,2.645-13.124.271-5.993-3.393-8.587-10.48-6.28-17,2.493-7.044,9.442-11.014,16.938-9.396-2.626-4.42-2.182-9.42.845-13.256,2.041-2.587,4.797-4.304,8.147-4.499-.464-4.04.641-7.673,3.058-10.638,6.827-8.375,20.139-9.414,27.274-2.645,1.994,1.891,3.367,4.037,3.491,6.897,4.375-1.038,8.249.338,11.189,3.318,3.108,3.15,3.961,7.61,2.122,11.556l1.729.536,1.411-3.302c2.821-.029,5.529-1.948,5.768-4.776.175-2.067.26-3.811,1.948-5.325,4.023-3.61,10.415-3.903,14.58-.368,1.648,1.399,2.762,3.188,2.518,5.427-2.686-2.74-6.5-2.447-8.989.173-2.6,2.736-1.267,4.673-2.639,7.959,6.293-3.015,13.594-1.795,17.709,3.84,2.89,3.958,3.185,8.962.53,13.072,4.345-1.43,8.341-.165,11.555,2.683,3.562,3.157,8.789,3.698,12.769,1.309,2.438-1.464,3.977-3.949,3.399-6.74-.238-1.147-1.243-2.363-2.079-2.631-1.215-.39-2.561.084-3.83.709.545-2.417,2.977-3.635,5.385-3.466,2.889.203,5.28,2.207,6.053,5.082.889,3.304-.065,6.899-2.188,9.624-5.442,6.98-14.769,9.107-22.76,5.335-4.27-2.016-8.858-1.838-12.911.494.511,7.072-6.554,11.743-13.861,10.765-2.06-.276-4.074-.966-5.336-2.707,9.359-1.306,16.075-9.492,14.804-18.708-.723-5.241-4.898-9.348-10.356-9.44ZM284.145,388.146c.197,3.198-1.511,6.162-4.201,7.805-5.35,3.269-12.341,2.322-16.567-2.475-4.116-4.672-3.023-12.645,2.414-15.682,1.548-.865,1.842-.9,2.369-2.654,1.12-3.724,4.669-6.361,8.353-7.501,7.065-2.184,14.354-.081,19.602,5.007,5.499,5.331,7.334,13.027,4.567,20.347,2.894-2.469,3.78-6.329,3.424-10.12-.522-5.55-3.598-10.204-7.871-13.671-6.417-5.208-14.974-6.696-22.493-3.282-4.13,1.875-7.234,5.138-8.303,9.574-6.678,2.546-8.885,11.132-5.723,17.24,2.617,5.055,7.884,7.766,13.508,7.783,5.35.016,10.123-2.58,12.513-7.3,2.498-4.934.429-11.02-4.787-12.782-3.273-1.106-6.746.044-8.185,3.059-.67,1.404-.606,3.188.864,3.974-.567-2.86,1.257-5.241,4.086-5.398,3.394-.188,6.206,2.443,6.43,6.074Z"/>
        <path d="M116.29,307.503c2.752,2.928,5.995,4.654,9.586,6.161l7.963,3.34-1.348.93c2.667.528,4.439,2.17,4.451,4.508,1.819.257,2.908.468,4.852.284l-3.47-1.598-1.965-2.505.744-1.001c-6.89-5.612-14.732-5.525-20.586-13.099-3.517-4.549-4.438-10.185-2.496-15.567,2.178-6.037.006-12.469-5.473-15.865-9.185-5.694-21.978-.061-27.751,8.966l-3.498.518c-2.295.34-4.279-.852-5.594-2.937-1.744,2.261-4.749,2.694-7.245,1.673-1.02,3.627-4.023,5.99-7.795,6.405-2.903.319-5.682-.304-7.678-2.785-5.454,3.403-12.759,2.566-17.465-1.854-1.884-1.77-2.677-4.375-2.158-6.738.509-2.319,2.507-3.874,4.766-3.385,1.193.258,2.097,1.275,1.769,2.529-1.057-.768-1.892-1.273-2.582-1.049-1.254.408-1.746,1.526-1.575,2.803.567,4.222,9.136,4.98,14.615-.268,2.01-1.925,3.678-4.503,3.314-7.33-1.638-1.253-3.542-3.42-2.76-5.868,5.811-3.133,9.346-9.085,8.524-15.855-.576-4.741-3.76-8.837-8.454-9.988-4.178-1.024-8.375.628-10.591,4.164-2.057,3.283-1.71,7.449,1.224,9.96,1.736,1.486,4.216,1.613,5.978.292,1.259-.944,1.695-2.694.556-3.73-.136.476-.379,1.553-.663,1.84-1.298,1.313-4.109.957-5.133-1.041-1.461-2.852-.427-6.374,2.47-8.069,3.892-2.277,8.738-.691,10.822,3.428,1.617,3.198,1.567,7.097.047,10.524-2.721,6.134-9.545,9.36-16.108,8.155-1.965-.361-3.494-1.852-4.667-3.014-1.98-.044-4.062-.369-5.694-1.965-5.327-5.209-5.095-15.109,1.409-18.578-1.645-3.064-1.937-6.799-.385-10.199,3.06-6.704,10.822-10.392,17.845-8.361,3.403.984,5.914,3.081,6.627,6.523l1.751-.956c-1.969-6.398,1.771-10.492,7.584-13.176,3.689-1.703,4.839-6.3,4.578-10.153,1.345.951,1.3,2.785,1.172,4.24-.269,3.054-2.059,5.153-4.003,7.542,4.464-2.186,6.499-10.329,2.645-12.341-.872-2.701-2.8-4.771-5.717-5.481-3.315-.807-6.609.26-9.299,2.387-2.661,2.105-5.985,3.356-9.321,2.566-2.269-.537-4.34-1.887-4.63-4.464,4.702,3.204,8.746,1.032,12.588-2.822,4.256-4.27,9.626-7.078,15.707-6.778,9.027.445,15.685,7.505,16.029,16.472.204,5.34-2.304,9.967-5.247,14.049,2.444,2.693,3.537,7.116.672,10.257l-1.586-2.039c2.077-2.583,1.118-5.972-1.57-7.956,1.982-3.04,3.985-5.978,4.963-9.475,1.419-5.078.282-10.234-3.087-14.141-6.302-7.309-17.887-6.255-24.391.863,4.642-3.409,9.723-5.432,15.381-4.335,5.406,1.048,9.627,4.955,10.742,10.374.851,4.137-.14,8.184-2.253,11.768l-3.11,5.275c1.321,1.262,1.988,2.52,1.968,4.061-.02,1.574-.946,2.818-2.429,3.906,2.919.761,4.427,4.274,3.062,6.534-6.622,2.678-10.839,8.882-11.095,16.077-.358,10.048,8.256,17.998,18.196,16.388,4.592-.744,8.347-4.082,9.2-8.544.813-4.253-1.678-8.264-5.837-8.938-2.044-.331-4.011.392-4.872,2.257,1.86-.853,3.604-1.232,5.544-.285,1.355.662,2.668,2.42,2.85,4.481.343,3.875-2.522,7.28-6.411,8.191-7.461,1.748-14.878-3.404-15.905-11.082-.959-7.174,2.93-13.954,9.29-17.128.956-1.473,2.085-2.857,3.73-3.684,5.725-2.879,12.784-1.351,16.223,4.11,1.756,2.789,2.188,5.946.998,9.177,5.769-1.755,12.186,1.091,13.835,6.421,1.034,3.342.186,6.412-1.622,8.999,7.372-.795,14.89,1.805,19.024,8.133,5.468,8.37,2.298,19.851-6.128,24.756-.785,9.632,11.35,15.855,20.334,13.42l.173,1.816c-2.045,1.233-4.008,1.399-6.387.933,1.849,1.442,4.025,1.742,6.375,1.31-1.308,3.398.501,6.496,3.685,7.599l1.68,1.591c-.092-2.454,2.891-4.029,5.032-3.031.612,1.822,1.406,4.548,3.558,5.618,1.547-.465,3.506-.899,5.58.392-.577-1.744.746-2.926,2.285-3.286,2.491,1.368,5.171.946,7.223-.984l2.291,1.52c-2.576,2.105-5.117,3.645-8.675,3.45.878,3.063,3.734,4.042,6.933,3.115-2.114,3.425-6.086,4.708-9.854,4.111-2.341-.371-4.195-1.752-5.397-3.577l-1.496.751c-.329.165-.086,1.401-.158,1.829-.361,2.144-3.393,3.691-5.465,2.626.139-1.052.3-2.62-.37-3.415-.634-.753-2.366-.609-3.439-.473l-.446-1.244c-.093-.259-1.129-.04-1.051.091l.587,1.405c.308.737-3.66,2.139-6.172-.328-1.392-1.368-1.636-3.335-.681-5.089-3.09-6.343-10.118-6.109-16.768-10.282-14.121-8.862-9.707-22.968-8.673-22.355l.852.505c-1.184,5.891.574,11.627,4.8,16.123Z"/>
        <path d="M135.62,104.967c-6.717,6.627-21.663,7.341-24.546-1.794-4.765.774-9.133-1.996-10.659-6.656-1.601-4.888.312-10.23,4.044-13.646,1.685-1.292,3.359-2.051,5.369-2.443,4.008-3.21,9.724-3.196,13.526.169,3.05,2.7,3.877,6.813,1.766,10.28-1.847,3.033-5.781,4.42-8.867,2.466-.624-.395-1.308-1.321-1.424-1.901-.157-.781.264-1.89.819-2.905-1.591.101-2.674,1.752-2.257,3.602.526,2.335,2.519,3.918,4.986,4.287,2.967.444,5.933-.903,7.915-3.309,4.192-5.086,2.522-12.63-3.303-15.862-4.017-2.229-9.18-2.327-13.046.299-1.207.82-2.195,1.131-3.6,1.66-7.583,2.858-11.198,11.84-8.296,19.268,1.843,4.718,6.143,7.531,10.969,7.445,2.183,5.072,6.865,6.269,12.131,6.77-4.627,5.665-12.202,6.968-18.326,4.426l-9.12,3.882c.202,4.403-1.739,7.913-5.136,10.576-5.502,4.314-13.156,5.461-19.844,3.376-3.112-.97-4.964-3.161-6.666-5.624-1.285-1.861-3.931-1.335-6.081-.483.476-1.442,2.263-2.603,3.656-2.795,1.795-.247,3.545.401,4.724,1.709,3.982,4.418,11.589,2.673,15.439-1.386,1.141-1.203,2.501-3.782,1.726-5.414-2.254-4.746-.749-9.635,3.983-12.556-8.795-.379-14.44-7.683-12.797-15.888,1.454-7.258,9.014-13.01,16.645-11.817,1.861-8.047,10.54-12.643,18.397-10.106-.484-10.165,8.99-18.034,19.008-17.118-.713,1.416-1.307,2.809.317,3.924,1.247-4.78,4.185-8.548,8.461-11.007,8.55-4.916,19.912-3.969,25.472,3.691,3.302,4.548,2.939,10.844-.284,15.318-3.144,4.364-9.006,6.582-14.279,4.822-2.887-.964-4.783-3.446-4.788-6.115-.005-2.997,1.734-5.695,4.79-6.391,1.833-.418,3.751.282,4.675,1.802.827,1.359.466,2.628-.867,3.832,1.944.355,2.927-1.724,2.726-3.492-.346-3.058-3.093-4.509-6.068-4.317-3.663.237-6.715,2.952-7.551,6.406-.894,3.693.55,7.498,3.883,9.576,4.089,2.55,8.988,2.394,13.302.344,5.335-2.535,8.994-7.471,9.02-13.667,3.428-.055,6.351,2.074,7.333,5.389,7.284-3.925,16.438-1.914,20.847,5.238,2.763,4.483,2.836,11.318-1.398,14.115.554-5.734-2.881-10.759-8.449-11.718-2.262-.39-4.627.242-6.262,1.632-1.869,1.588-2.739,3.83-1.824,6.178.368.944,1.441,1.834,2.288,2.006,1.152.233,2.335-.136,2.773-1.308l-1.96.15c-.483.037-1.283-.939-1.444-1.426-.658-1.991.537-3.983,2.46-4.757,3.537-1.423,7.326.157,9.142,3.628,1.657,3.167,1.441,7.121-.399,10.367-3.215,5.674-9.946,8.353-16.374,6.655.274,4.332-1.971,7.95-5.662,10.324-6.098,3.923-14.082,4.372-20.722,1.312-4.454-2.052-7.094-6.051-7.84-10.829-.732-4.688.541-9.454,3.641-13.036,2.94-3.397,7.65-5.662,12.363-5.182,3.437.35,6.361,2.262,7.782,4.84,1.671,3.032,1.523,6.673-.372,9.438-2.304,3.361-6.622,4.681-10.167,2.66-1.067-.609-1.84-2.033-1.87-3.093-.035-1.231.722-2.324,1.762-3.043-1.589-.43-2.904.7-3.308,2.225-.738,2.782.783,5.322,3.448,6.558,3.188,1.479,7.048.766,9.9-1.444,3.178-2.463,4.642-6.335,4.228-10.328-.385-3.718-2.775-7.221-6.43-9.034-3.982-1.975-8.368-1.849-12.564-.127-8.403,3.449-13.062,12.649-11.124,21.544,1.077,4.946,4.017,8.68,8.322,11.183-3.436.82-6.324-.668-8.066-3.354Z"/>
        <path d="M345.779,187.757c4.053.042,7.87.981,10.805,3.626-2.858.012-5.188.014-7.297,2.156,1.353,1.409,3.233,1.953,5.186,2.426,4.342,1.051,8.546,2.934,11.118,6.964-.825-.131-1.555-.68-2.369-1.258-2.16-1.533-5.413-.741-7.193,1.392,6.431,10.248,8.545,19.684,7.894,31.791l2.807-4.363c3.2,1.565,5.554,5.217,4.497,8.859l-1.075-.413c-.209-.08-.273,1.026-.25,1.153.593,5.079-.019,9.904-3.012,14.076-.783-1.719-.788-2.787-.979-4.592l-1.077,2.048-1.05-3.852c-.474,1.226-.767,2.988-.701,4.556.203,4.803-1.077,9.016-4.11,12.747-1.368-2.175-2.027-4.134-2.6-6.512-.517,1.286-.881,2.65-1.015,3.951-.379,3.683-1.764,6.812-3.747,9.894-1.428-1.64-1.677-3.479-1.724-5.657-2.344,3.057-3.449,7.488-1.493,10.991,1.991,3.564,6.201,5.041,10.149,4.836,5.712-.296,8.997-3.365,14-3.248l-.209,2.571c-3.991-.038-3.104,1.421-4.565,2.601-.501.405-1.966-.155-2.593-.418l-.981.156c-.211.034.105.875.353.908,1.686.228,4.065,1.61,3.658,4.051-.264,1.584-1.957,3.832-3.903,3.225-.623-1.322-1.633-2.535-2.819-3.302,1.148-1.15,1.668-2.469,1.445-4.316l-1.021.037c-.59.021.428,2.636-2.595,4.115-1.159.567-2.522.344-3.738-.26.094-2.692-1.755-4.289-4.094-4.283-1.474,1.901-4.039,1.554-5.64.507,1.068-2.411.989-4.456-.767-6.386l-.045,4.128c-.007.673-.307,1.687-.858,2.016-4.557-3.144-3.1-9.692-.305-14.405l8.667-14.616c7.061-11.906,9.742-28.072,4.96-41.204-7.657-21.027-29.981-31.22-51.444-26.525-16.787,3.672-29.203,14.488-39.152,28.037-4.852,6.607-8.798,13.39-12.865,20.516l-12.535,21.96c-4.294,7.523-9.653,14.081-16.064,19.89-7.842,7.105-19.906,13.39-29.989,10.339-5.614-1.699-8.592-6.949-7.138-12.59,3.164-12.276,18.534-19.333,28.331-31.367,4.244-5.212,7.597-10.894,8.711-17.575.597-3.579.586-7.119-1.009-10.267-.04,2.523-.045,4.516-1.393,6.306-.816,1.084-2.559,1.755-3.573,1.093,1.72-5.169-1.178-9.589-6.353-11.776l2.938-1.682c-3.718-1.006-6.805-2.077-9.72-4.688,6.799,1.823,11.487,1.008,18.02-2.331-3.894-1.146-7.389-1.635-10.504-4.469,4.638,1.01,9.129.993,13.45-1.159l5.386-2.682c-2.71-.745-5.371-1.139-7.506-2.905-1.671-1.383-3.247-2.485-5.452-3.284l4.405-1.703,7.407-2.894-8.536-3.843,2.823-2.451c2.943-2.555,7.139-1.745,10.872.048,4.236,2.035,8.773,1.424,12.803-.685,3.5-1.831,7.332-2.294,11.241-1.787,5.996.778,12.191.056,14.589-5.885,1.137,3.296-.607,6.367-3.01,8.582-6.402,5.902-14.193,1.004-20.418,6.219l-4.518,3.785c3.763-1.471,6.374-2.949,10.003-2.415,4.172.614,7.696,3.828,7.017,8.342-1.743-1.89-3.717-3.144-6.301-3.207-1.71-.041-4.052.018-5.507.904l-4.104,2.499c-2.594,5.604-9.493,6.637-15.621,5.649,4.589,3.296,10.167,3.643,15.189,1.024,1.778-.927,4.06-.866,5.694.093,1.566.918,2.974,2.608,2.441,4.857-1.928-.187-1.138-3.608-2.357-3.127l-1.48.584c-2.447.316-4.304,1.216-6.198,2.746-4.283,3.458-9.783,3.41-15.273,2.294,4.933,4.29,10.131,4.892,15.782,1.663-4.231,7.214-13.312,8.026-20.164,4.457l2.467,2.71c1.307,1.435,3.444,2.108,5.344,2.483,2.259,3.106,3.015,7.454,1.886,11.07-1.195-2.257-2.34-4.063-4.525-5.123,1.62,5.108,2.224,9.943-.123,14.845-.879-2.424-1.096-4.672-3.28-6.7-.328,1.498-.453,2.907-.355,4.377.391,5.882-1.068,11.876-5.41,16.161.286-3.31.597-6.071-1.361-8.53-1.243,2.025-1.93,4.024-2.558,6.211-1.605,5.593-4.797,10.448-9.464,13.832l-.57.379c-1.019.677,2.536-5.346,1.234-8.971-5.114,3.292-7.804,8.772-9.233,14.845-1.275-1.003-1.747-2.616-2.206-4.495-2.052,1.604-3.283,3.881-3.334,6.477-.033,1.697.85,3.335,2.522,3.902,1.872.635,3.541.516,5.918.626-1.141,1.105-2.354,1.767-3.646,2.444l-2.789,1.461c1.985,1.921,4.178,1.627,6.479,1.052,10.178-2.543,12.153-12.684,20.191-18.201-.546,3.178-2.026,5.506-.904,8.655,5.198-2.733,8.132-9.987,9.778-15.486l2.821-9.429c.66-2.205,1.906-4.178,3.355-6.018.418,3.174-.064,5.9,2,8.375,2.149-3.397,3.021-7.041,3.583-10.828l1.581-10.657c.533-3.596,2.224-6.944,4.732-9.667.138,3.572-.397,6.551,2.023,9.204,1.878-3.631,2.928-7.231,3.648-11.095.678-3.635,2.666-7.092,3.215-6.695l1.231.891.169-4.11c.115-2.795,1.667-5.269,3.861-6.853-.379,3.536-.016,8.053.997,7.911,1.51-.211,3.48-5.296,4.406-8.336,2.189-7.182,5.057-14.079,11.815-17.66-1.489,3.838-2.995,9.032-.998,10.05.319.162,1.191-.321,1.398-.622l4.992-7.235c3.625-5.253,11.423-11.253,17.913-11.032-3.233,2.36-6.545,5.852-5.847,9.207.078.376,1.368.557,1.68.304l4.668-3.793c4.004-3.253,8.622-5.58,14.044-5.442l-3.119,2.311-2.096.632.17,3.855c1.128.511,2.659.442,3.877.051,4.549-1.458,9.233-2.087,13.736-.852-1.53.979-2.475,1.521-3.372,3.134,3.517,1.365,6.73,2.473,10.375,3.019l6.457.067ZM237.226,189.076c3.844.866,8.116-.039,10.554-3.425-3.405,2.039-6.668,3.179-10.554,3.425ZM252.48,190.905c2.352-.872,4.852.127,6.081-.377-3.87-1.344-7.507-.135-10.953,1.315-2.834,1.193-5.59,1.624-8.615,1.75,1.804.94,4.182.763,5.971.1l7.516-2.788Z"/>
        <path d="M147.324,363.928c-4.863-1.808-10.081.171-13.095,3.994-3.047,3.864-3.398,9.152-.927,13.433-2.966.334-5.431-.888-6.712-3.266-6.738,4.476-16.448,2.548-21.328-3.684-3.472-4.434-3.834-10.489-.503-14.864,2.293-3.012,5.813-4.128,9.415-3.042-.971-.996-2.271-1.439-3.946-1.824,2.412-4.146,7.594-5.08,11.735-3.002,4.667,2.342,6.611,7.997,3.889,12.559-1.666,2.792-4.959,4.242-8.055,3.545-1.619-.364-3.247-1.754-2.891-3.453.659-.203,2.445-1.226,1.983-2.033-.524-.914-2.387-.307-2.937.293-.76.829-1.186,2.315-.813,3.538.844,2.766,3.619,4.21,6.597,4.1,6.504-.24,10.992-6.514,9.581-12.89-1.319-5.96-6.804-9.552-12.736-9.145-4.192.287-7.248,2.717-8.974,6.402-2.515,1.16-4.852,2.911-6.262,5.59-2.673,5.076-1.852,11.021,1.85,15.589-6.739,5.013-16.304,3.884-21.529-2.221-2.466-2.881-3.472-6.248-2.706-10.013-3.227-.068-5.846-1.356-7.714-3.795-3.19-4.078-3.121-9.591.04-13.772,1.158-4.526-1.791-9.078-6.562-9.884-2.798,1.632-5.918,1.857-8.929.531-4.366-2.028-6.805-6.714-5.837-11.569.687-3.447.202-7.001-2.363-9.508-2.067-2.02-4.855-2.335-7.797-1.527,2.569-3.77,7.657-4.207,11.402-2.09,3.854,2.179,5.339,6.224,5.37,10.555.023,3.175,3.631,5.379,6.426,4.913.554-1.652,1.49-3.222,3.076-3.999,2.593-1.27,5.184-1.087,7.62.328,2.141,1.244,3.486,3.685,3.402,6.521,2.744-1.607,6.179-1.5,8.55.46,2.454,2.028,3.301,5.528,1.88,8.576-.727,1.559-2.27,2.178-3.623,3.078-1.563,1.04-1.886,3.489-1.543,5.267.749,3.876,5.075,6.157,9.642,5.327-1.467-3.411-1.023-6.786,1.035-9.673,3.167-4.442,8.944-5.981,13.941-3.616,1.905-4.384,6.297-6.354,10.851-6.12,4.502.231,8.365,2.678,9.672,7.102,3.919-1.985,8.547-1.42,11.733,1.549,3.008,2.803,3.779,6.75,2.235,10.907,6.423-3.059,13.744-1.634,17.632,4.06,1.73,2.533,2.075,5.467.988,8.236,1.59.901,2.791,2.065,3.553,3.628,2.121,4.353.831,9.326-2.842,12.358-1.815,1.498-3.916,1.927-6.274,1.531-4.884,4.703-13.662,3.762-17.942-1.235-2.817-3.289-3.224-7.757-1.175-11.316,1.987-3.451,5.93-5.554,10.067-4.71,2.736.558,4.925,2.531,5.081,5.395.085,1.565-.725,3.01-1.744,3.773-1.255.94-2.843,1.079-4.215.233-.343-.212-1.005-1.123-.861-1.489l.689-1.743c-1.051.236-1.855,1.016-1.915,1.674-.1,1.094.343,2.266,1.137,2.902,1.51,1.209,3.451,1.274,5.413.561,1.258-.457,2.71-1.98,3.262-3.729,1.209-3.834-.99-7.802-5.004-9.295Z"/>
        <path d="M418.161,197.561l-.613-1.792c-.117,3.198-2.02,5.244-4.952,5.607,1.047-1.23,1.796-1.993,2.004-3.251-2.25,2.323-4.963,4.216-8.517,2.81,3.401-2.189,5.068-5.696,4.622-9.624-.324-2.858-1.817-5.205-3.832-6.534-2.513-1.657-5.404-1.952-8.064-.815.35,2.84-.873,5.083-3.071,6.598-4.076,2.81-10.263,2.231-13.088-2.099-6.719,1.324-11.885-4.704-11.843-11.194.025-3.829,1.927-7.301,5.254-9.721-1.717-1.767-2.421-5.821-.164-7.479,8.463-1.904,14.723-8.775,14.473-17.424-.146-5.031-2.748-9.347-6.767-11.422-4.668-2.411-9.888-1.738-13.872,1.327-3.77,2.9-5.385,7.588-3.562,11.986,1.714,4.135,6.441,5.936,10.322,3.753,1.75-.985,2.831-2.802,2.637-4.764-.158-1.6-1.365-3.026-3.081-2.568,1.741,1.214,2.085,2.971.862,4.499-.863,1.078-2.568,1.705-4.046,1.564-1.277-.122-2.938-1.064-3.823-2.378-1.601-2.379-1.332-5.624.299-8.03,2.443-3.604,6.934-5.014,11.213-3.808,3.804,1.071,6.817,4.66,7.204,9.158.677,7.865-4.997,14.829-12.693,16.39-5.779,1.172-12.091-.505-13.661-6.046-2.74-.252-4.877-1.62-6.517-3.938-4.1-5.799-3.68-13.565.447-19.405,2.614-3.699,6.394-6.288,11.041-6.789.09-2.122.316-3.965,1.229-5.81,3.981-8.038,14.301-10.805,21.586-5.604,2.611,1.864,4.41,4.506,4.584,7.792-5.447-3.389-13.22-3.326-16.398,1.701,4.943-2.994,10.589-2.675,15.363.384,4.445,2.848,6.709,7.902,6.524,13.786,2.404-5.545.113-11.338-4.355-15.025.2-.52,1.036-1.462,1.358-1.634l.668.919c.105.145.84-.031.803-.206l-.294-1.416c3.927-2.426,9.586-1.18,12.607,2.52,1.506,1.844,2.199,3.935,1.859,6.457,1.936.073,3.778.689,5.19,2.108,3.146,3.125,3.85,7.94,1.399,11.639-.3.212-.888.584-.829.835l.338,1.44c.887,3.774-2.069,7.037-5.682,7.929-3.339.824-6.83-.722-7.667-4.163-.284-1.168.065-2.787.731-3.659.759-.992,2.102-1.718,3.58-1.478.618.1,1.65.954,1.793,1.501.152.577-.203,1.517-.54,2.261.93-.012,1.906-.864,2.066-1.805.136-.802-.262-2.18-.955-2.799-2.346-2.096-5.899-1.352-7.706,1.027-1.425,1.876-1.464,3.818-1.42,6.134l-1.339,3.76c-3.802,8.215.04,14.033,7.333,18.585l-.771.949c3.145,1.743,4.98,4.199,6.048,7.756l1.541-3.536c6.008,3.757,3.81,8.027,4.917,11.569,1.244,3.982.879,8.022-1.776,11.474ZM387.065,176.096c.983-2.606,3.386-3.701,5.787-3.728,2.323-.026,4.307,1.213,5.683,3.363.44-2.107-.812-3.723-2.358-4.798-2.499-1.738-5.627-1.76-8.42-.215-2.139,1.183-3.921,3.671-3.829,6.548.062,1.945.834,3.664,2.229,4.671,1.537,1.11,3.543,1.801,5.291.164-1.708-.105-3.128-.386-3.925-1.583s-1.042-2.873-.457-4.422Z"/>
        <path d="M361.773,330.791c4.017,4.713,13.023-.758,16.396-11.345,1.422-4.465,2.119-9.068,1.127-13.661-1.227-5.686-5.623-9.084-11.299-7.759-2.903,2.421-5.864,4.091-9.606,4.654-5.396.812-13.323.777-16.642-3.078l.952-1.475c.578-.896,3.132,1.028,4.067-.789l-1.979-.182.857-2.223c1.746.811,3.385.993,5.293.39.644.179,1.493,1.441,1.611,2.212.144.943-.361,1.773-1.038,2.659l1.633.118c.404.029.728-.684,1.094-1.365l2.985.71c4.724-.174,6.056-1.653,7.436-5.967l1.719.757c.38.168.078,1.051-.156,1.966l1.611-.737-1.071-2.209,2.552-2.673,2.724.362c.526.07,1.319.87,1.458,1.426.181.729-.093,1.67-.502,2.573-.193-.071.556.566.712.45l1.054-.777,1.111,1.322c1.446-.478,2.89-1.221,4.342-2.35,1.166.651,2.059,2.314,1.953,3.892-.096,1.43-1.094,2.205-2.473,3.003.523.574,1.04.676,1.793.773l3.053.392.889,2.885c.509,1.654-1.742,2.973-3.174,2.882.3,2.177.585,4.128-.196,6.323l2.387,1.07.371,3.391c-.373.421-1.259,1.186-1.768,1.441-.641.321-1.867-.183-2.466-.62l-.202,1.154c-.054.306.532.622,1.003.918l-.407,2.978c-.098.717-1.886.969-2.757.995-.965.231-.479,2.813.444,3.904l.012-2.303c.003-.665,2.557-2.121,4.661-1.428l-1.293-1.999c-.368-.569.223-2.008.713-2.333l2.499-1.661c.237-.138,1.14-.079,1.216.247l.415,1.784,1.042-2.622c-1.204-.286-1.911-.675-2.258-1.493-.278-.656-.309-1.991.015-2.549,1.363-.564,2.45-1.301,3.195-2.483l1.38-.14.907-3.807c-.558.812-1.122,2.013-1.773,2.146-1.392.283-3.091-.46-3.531-1.863-.292-.932.158-2.886,1.305-3.115.906.144,2.016.258,2.703-.072.593-.285,1.232-1.378,1.18-2.091-1.186,1.253-1.762,1.766-3.366,1.323-1.093-.302-2.633-2.491-1.82-3.428l2.617-3.079c.211-.249,1.158-.554,1.092-.879l-.319-1.574c-.634.824-1.656,1.378-2.678,1.26-.871-.1-1.68-1.257-2.328-2.432-.328,1.817,1.06,3.1,3.411,3.369l-1.99,1.955c-.86.845-2.495.723-3.351-.153,1.361-1.619,1.232-3.735-.13-5.511,3.925-.882,2.708-3.565,4.901-5.443l-1.6-3.454c-.439.464-1.274,1.227-1.649,1.088l-3.044-1.126c.72-1.266,1.106-2.789-.661-3.505.655,1.828.137,3.591-1.836,4.104-.703.183-2.203.018-2.9-.156-.314-1.825-.959-2.612-2.322-3.693-.151-1.042,1.35-1.83,2.839-2.218l-3.076-1.621c-.469-.989-.835-1.602-1.478-2.356-2.55-2.988.743-9.455,4.624-10.822l3.593-1.266c3.436-1.211,6.925.479,9.055,3.43l2.86-.827c2.057-.595,4.113-1.194,6.145.264-6.974,2.126-7.16,11.86-3.769,18.605l3.231,5.324c2.835,3.723,7.746,5.122,12.034,3.08,4.213-2.007,5.686-7.277,3.039-11.096-1.316-1.898-3.483-2.468-5.92-2.356,2.113-1.829,4.813-1.913,7.274-.847,2.529,1.095,4.328,3.352,5.088,6.044,1.537,5.441-.323,11.002-4.469,14.751-4.396,3.974-9.94,6.334-15.35,4.505-.188,1.845-.687,3.7-1.566,5.298-2.854,5.189-6.198,12.012-2.737,15.997,1.299,1.496,3.364,2.31,5.607,2.194,4.296-.222,7.936-3.446,7.682-7.832-.063-1.085-.742-2.438-1.374-2.985-.955-.827-2.384-.88-3.972-.873,2.011-2.741,5.94-2.85,8.674-.922,2.612,1.843,3.738,4.811,3.65,8.091-.174,6.534-5.433,12.001-12.041,12.632-1.078.103-2.181-.259-3.194-.698-1.723,1.204-3.834,3.453-4.225,5.59.129.583.665,2.038.394,2.512s-1.128.893-1.792,1.139l-.695.258c-.123.046-.116.462.013.487l.964.189,1.368.268c.279.055-.073.989-.175,1.328,2.485,2.116,5.947,1.596,8.565-.889-.975,4.548-5.905,6.42-9.993,5.173-3.134-.956-4.343-3.629-3.769-7.179-1.017.441-1.143,1.334-1.228,2.691-1.539-.4-2.568-1.603-2.863-3.069-.284-1.415,1.068-2.987,2.275-3.625.391-.38.404-1.869.655-2.38l1.472-3.004-1.682,1.699-2.957,2.17c-.209.153-.937.315-1.18.344-.762.091,1.069-2.11.373-4.432,3.525-.005,7.002-2.104,7.165-4.962.095-1.669-2.484,3.32-5.162,3.106-3.877-.309-7.912,1.515-9.019,5.631-1.163,4.327-5.096,7.577-9.705,5.863l1.089-1.628-2.443,1.379c-3.295,1.86-.425,4.91-1.906,5.621l-2.124,1.02,1.023.578c.242.137.21.906.162,1.214-.044.281-.753.014-1.384-.167-.804,2.356,4.531,3.324,8.159,1.548-1.778,3.326-5.926,4.323-9.147,2.75-1.744-.852-2.589-2.399-3.04-4.093-.681-.509-1.739-1.354-1.922-2.05-.61-2.327,1.137-4.055,3.964-4.962-.366-.611-.831-1.603-.728-2.153.47-2.499,4.142-1.307,5.894-3.962-1.355.608-2.433,1.189-3.559,1.254-2.342.137-3.55,2.248-3.209,4.421l-2.541,1.599c-1.355,2.125-.969,4.683-.034,6.98-.565.918-2.364.733-3.158-.324-1.358,2.398-.593,4.852,1.28,7.009-2.423-.016-4.201-1.916-5.01-3.544-1.189-2.394-1.133-4.853-.016-7.005.694-1.335,1.978-1.655,3.459-1.825-.301-.368-1.32-.875-1.678-.624l-1.636,1.146c-1.123-5.543,3.797-4.294,7.12-7.132-1.513-.16-2.105.239-3.234.933-.337-1.291-.135-2.869.714-3.866.932-1.095,2.448-1.339,4.006-.71,1.062.428,2.129-.063,3.177-.354l2.917-.81c-1.528-.279-3.266.153-4.851.439-1.848-.465-3.815-1.241-5.641.465-.614-1.579-1.567-2.953-2.633-3.37-1.749-.684-3.124.102-4.447,1.377.562-3.84,4.337-5.494,7.68-4.617.688-1.6,1.939-2.563,3.349-2.629,1.775-.083,2.713,1.148,3.794,2.416ZM378.457,271.938c1.148-.472,1.829-.737,2.462-1.256,1.583-1.299,4.104-.688,4.865.931l1.597-1.911c.161-.193.751-.854.513-.873l-1.221-.095c-.615-.048-1.776-.146-2.152-.508-.322-.31-.583-1.275-.816-1.667-1.229-1.485-3.832-.939-4.864.449l-.334,2.621c-.474-.157-1.18-.683-1.686-1.207-.399-.414-1.887.233-1.952.804l-.245,2.156c-.126,1.112-.129,2.358.773,2.763,1.292-1.152,2.506-1.335,3.963-.18l-.905-2.025Z"/>
        <path d="M248.476,356.424c-1.86-1.635-2.819,1.543-5.106,1.282-.736-.084-1.274-1.063-1.596-2.027-1.15.671-1.29,1.823-.94,3.103-1.409,2.792-5.879,3.599-8.154,1.295-1.347-1.363-2.454-2.219-4.647-1.512l-2.922.942c.353-1.694,1.27-2.09,2.53-2.851-2.302-.137-3.778,1.777-4.626,3.873-.854,2.108-3.132,3.04-5.194,3.361l.44-1.728c-1.103.832-2.044,2.391-1.505,3.725.795,1.968-.051,3.861-2.025,4.456.064.506.183,1.146.049,1.443s-.697.548-1.377.958l1.113.957c-.124.372-.313,1.651.049,2.13.861,1.138,3.668,1.403,5.467.009-1.467,3.951-6.737,4.717-9.658,2.15-1.988-1.747-1.765-3.833-.958-6.308l-1.624,1.921c-1.647-1.403-1.421-4.667.793-5.602l3.606-1.523-1.386-.319c-.318-.073-.329-1.134-.125-1.429l2.493-3.601-3.124,2.819-.645,2.655c-5.326,1.408-3.08,7.003-4.154,6.559l-1.697-.701c.154.885.564,2.185.967,3.145.097.424-.813,1.353-1.304,1.331-.509-.023-1.33-.374-2.096-.753-1.768,1.95-1.239,4.918.568,7.303-4.883-1.087-6.845-7.098-4.396-11.172.433-.72,1.661-1.515,2.309-1.429.753.1,1.611.624,2.471,1.15.015-.861-.915-1.739-1.878-1.922-.704-.134-1.762.364-2.612.897-.447-1.957.888-4.004,2.884-4.491l4.115-1.004c-1.048-.459-1.499-.326-2.818-.108-.125-.619.163-2.37.778-2.867.849-.685,1.989-.673,3.354-.294l3.944-2.444-.279-.336-3.722,1.918c-1.438-.382-2.633-.46-3.753.255-.943.602-1.2,1.996-1.497,3.303-.493.9-2.605,1.744-3.648,1.798-1.94.101-3.025-.949-3.205-2.685l-1.558,2.785c-.027-.041.603.939.795,1.24-.585.428-1.603.764-1.96.473l-1.642-1.342c-2.161,1.792-1.796,4.56-.911,7.305-4.201-2.415-4.893-8.133-1.975-11.495,1.635-1.885,3.573-1.799,6.02-1.276-.679-.699-1.629-1.019-2.668-1.234.692-1.779,3.063-2.817,5.053-1.935,1.449.643,2.73,2.174,4.716,1.169l-1.85-.555c.316-1.768,2.12-2.655,3.883-2.127l3.045.912,4.577-1.84c-1.941.055-3.727,1.292-5.582.602-1.256-.467-2.74-1.439-3.958-.691-1.455.894-3.165.917-3.983-.69l1.268-1.454c-.112-.127-1.146-.382-1.305-.14l-.702,1.072c-.215.328-.788.987-1.104,1.215s-1.186-.397-1.589-.476c-2.393-.471-3.998,1.568-4.79,3.97-1.44-2.947.135-6.191,2.615-7.761,1.767-1.119,3.124-.223,4.948,1.048-.27-2.334-2.314-2.698-4.479-2.155.629-1.409,2.264-2.297,3.613-2.487,3.665-.514,4.596,2.007,5.082,1.932l.513-.079c.166-.026-.534-.612-.839-.856.511-1.216,2.109-2.005,3.483-1.785,1.513.383,2.706,1.428,2.993,3.181,2.413,2.062,5.762,2.17,8.472.459,6.039-3.81,8.46-11.481,10.088-18.443.854-3.653,2.175-7.276,3.925-10.364l-4.321-2.478-4.983-1.705c-2.9-.992-4.766-3.723-6.172-6.323,1.823-2.828,1.316-6.339-1.735-8.411,1.804-1.303,2.737-3.386,2.723-5.534l2.85-.942c1.806-.597,3.005,3.613,6.299,2.703.846-.234,1.737.078,2.36.625l.172-1.675c2.213-1.279,3.241-3.557,3.356-6.071.153-3.331-1.739-6.075-5.03-7.008,1.141-1.231,1.678-2.116,2.101-3.643l3.875-.932c2.41-.58,4.511,1.347,5.367,3.138,1.035,2.167.733,4.424-.704,6.401-.757,1.042-1.668,1.522-3.13,1.863l.43,1.091c.183.466,4.128-.271,6.26,2.674,1.352,1.867,1.622,4.028.717,6.081-1.017,2.306-4.139,3.788-6.332,2.214l-3.135-2.251c2.905-1.843,4.366-5.714,1.752-8.091.108,2.059.495,3.617-.516,5.136-.748,1.124-2.403,2.301-3.89,2.645l-.755.174c-.154.036-.324.809-.166.817l1.229.063c2.806.143,4.771,2.585,4.787,5.346.016,2.663-1.909,5.194-4.838,5.306,1.744,1.251,3.479.282,4.618-1.023.838.03,2.01.577,2.898,1.106l.146-.561c.04-.154.555-.066,1.052-.015.147.011.226-.72.063-.894s-.746-.462-.997-.474l-2.392-.114c.937-1.785,1.097-3.471.664-5.292,1.512.133,2.778.055,4.496-.516l3.541,3.876c.896.98-.032,3.057-.791,3.751-1.137,1.041-2.707,1.718-4.091,1.228l-.567-.914c-.112-.18-.832.039-.868.099l1.75,2.742c.462.724-.07,2.443-.725,3.105-.984.995-2.009,1.131-3.725,1.214l1.88.9c.905.433,1.389,2.598,1.685,3.8.188.765-1.163,1.943-1.585,2.132-1.593.512-2.613.142-3.891-.839-.628,1.532,1.485,2.198,2.522,2.391l.475,3.87c-.298.853-2.006,1.944-3.173,2.046-1.278.112-2.113-.914-2.464-1.881l-.651,2.527,1.838.839.441,3.837c-.213.427-1.181,1.191-1.747,1.388-.778.271-1.861-.086-2.773-.711-1.03,1.07.676,1.947-.063,5.451-.289,1.37-3.838.181-3.751,1.208l.1,1.172.218,2.025.248.729c.063.184.773-.114.7-.29l-.532-1.278c-.156-.374.411-1.36.788-1.507l2.652-1.033,2.506.573c-1.754-1.508-2.68-3.14-1.339-5.037,1.375.016,2.92-.701,3.7-1.703l1.287,3.766-1.5,3.209c1.49-1.089,2.163-2.862,3.225-4.47l7.517-11.381,2.259-4.021,1.325-2.615c-.678.187-1.617.279-2.457.134,1.61-2.015,1.492-3.614,1.049-5.613,1.197-.286,2.519-.769,3.139-1.366.866-.834.82-2.677.197-3.683-.225,1.161-.334,2.338-.999,2.871-.552.442-2.269.535-2.76-.096l-2.019-2.599c1.585-1.654,2.208-2.825,2.497-4.943l2.412-.209-.693-2.348c-.455.741-2.164,1.242-2.603.575-.952-1.447-1.696-2.46-3.054-3.66,1.667-1.591,2.722-3.551,2.205-6.228,4.362,1.958,6.901,9.115,7.019,14.155l1.806-2.12c2.177-1.376,2.712-3.642,1.78-6.107.631.203,2.171.844,2.321,1.419l1.055,4.043.551-2.588c2.309,3.074,1.985,7.105-.371,10.64,2.147-.557,3.125-2.157,4.198-4.05.639,2.77-1.528,3.968-2.453,6.322l2.221-2.115c-.401,3.903-3.585,6.481-7.215,7.469-.953.26-1.686.561-2.7,1.426,2.23.011,4.14-.62,6.291-1.582-2.437,4.315-6.286,3.439-10.223,8.351-3.534,4.41-11.328,13.744-9.903,17.717.871,2.426,4.114,2.813,5.929,1.299.224-.187.948-.494,1.157-.341l.972.711c1.704-2.244,4.882-3.109,7.229-1.384,1.636,1.202,2.397,3.202,2.152,5.152-.222,1.761-.985,3.826-3.172,4.46.926-2.009.998-3.788-.548-5.147Z"/>
        <path d="M300.529,295.257c2.003,2.871,3.725,6.772,6.86,8.114,3.311,1.408,6.82-1.669,9.659-3.587-1.284,3.238-5.128,4.421-8.681,4.92,2.928,2.297,6.037,4.054,9.524,5.423,3.42-.278,6.664-1.582,8.786-4.374.292-.596.803-1.011,1.491-.966-1.317,3.44-4.687,4.911-7.989,6.023,7.133,2.006,14.471,1.543,21.084-1.243,2.255-.95,2.456-3.581,4.023-5.624.215,1.818-.753,3.154-1.609,4.933l7.272-4.036,2.473-.022c-14.865,13.18-39.271,13.173-54.346-.194-.9-5.917-4.165-3.987-5.271-5.377-4.803-6.03-7.575-13.423-7.137-21.346.684-12.361,8.671-23.392,20.149-27.827,6.158-2.38,12.791-2.008,18.623,1.072,4.491-4.917,7.512-11.437,7.405-18.345-.133-8.598-6.04-15.309-14.435-16.783-12.95-2.273-23.164,6.158-29.673,16.986-3.397,5.652-6.12,11.457-8.835,17.482l-6.122,13.584c-6.868,15.238-14.226,28.943-26.322,40.64l-.915-2.151,7.375-8.362c6.018-7.761,10.963-15.964,15.077-24.923l10.733-23.376c3.05-6.644,6.279-12.857,10.609-18.713,3.405-4.605,7.381-8.355,12.518-10.873,5.992-2.937,12.691-3.632,18.952-1.46,8.618,2.99,13.554,11.031,12.783,20.109-.457,5.376-2.581,10.094-5.523,14.625l-7.182,8.017c-.164.058-.89.315-.88.151l.076-1.193c-4.626-.165-9.359,1.21-13.14,4.537,1.791,1.075,3.301,1.45,5.32,2.065-2.25.808-4.092-.49-5.974-1.634-2.842,2.029-5.018,4.733-6.782,8.064,2.29,1.585,5.594,2.218,8.202,1.257.943-2.104,2.277-4.351,5.083-4.252-2.131,2.858-2.7,6.021-.414,8.902-.823.535-2.127.977-3.089.861-.859-.104-2.093-1.233-2.558-2.051l.572-2.578c-2.941.683-5.627.219-8.309-1.308-1.802,3.823-2.92,7.775-2.677,11.857,3.2,1.267,6.596.645,9.568-.23l.448-6.088c1.068,1.116,1.801,1.938,2.836,2.098,1.309.202,2.507-.464,3.421-1.236l.652-.551c.139-.118.578.375.681.542-1.905,2.551-2.171,5.407-.778,8.269-1.117,1.283-2.831,1.726-4.463,1.192-1.428-.467-2.44-1.724-2.597-3.593-3.37,1.297-6.589,1.611-9.82.613.203,3.879.957,7.733,2.88,10.724,3.343,1.062,7.366-.49,9.842-2.452l-1.898-4.515c1.707.846,2.434,1.372,3.858,1.25.942-.081,2.364-1.151,2.992-2.014l3.415,1.837-.452,4.412c-.085.826.231,1.568.88,2.013-1.137,1.66-3.366,1.863-5.303.909-1.222-.601-2.198-1.904-3.105-3.208-2.833,2.544-6.241,3.085-9.84,3.006Z"/>
        <path d="M192.058,414.129c-4.151,4.916-12.465,5.966-17.282,1.476-3.361,2.961-8.023,3.532-12.323,2.083-3.867-1.303-6.968-4.217-7.759-8.135-1.343-.036-2.562-.139-3.581-.561-6.262-2.596-13.674-1.546-16.849,4.597-.742-2.738.112-5.097,1.493-7.224,3.683-5.672,10.77-7.983,17.154-6.044.364-3.528,3.392-5.626,7.008-5.417.609-2.322,1.578-4.48,3.444-6.157,7.16-6.433,18.324-5.788,24.564,1.553,1.223,1.438,1.727,3.224,2.102,5.056,3.294-.817,6.023.602,7.733,3.345,5.654-2.572,11.857-1.75,15.964,2.511,1.907,1.979,3.12,4.473,2.084,7.298-1.405-2.823-3.572-4.221-6.341-4.507-3.141-.324-5.851.675-8.195,2.636-2.025,1.695-4.828,2.175-7.245,1.56.032,2.203-.567,4.261-1.974,5.927ZM166.831,404.947c.863,4.17,4.512,6.228,8.48,6.134,3.62-.086,6.573-2.332,7.571-5.361,1.15-3.492-.186-7.001-2.883-8.839-2.761-1.883-6.738-2-9.254.335l-2.139,1.985c-1.533,1.422-2.24,3.497-1.775,5.746Z"/>
        <path d="M174.692,274.761c-1.871,3.127-5.247,4.536-7.807,2.535-1.495-1.169-1.927-2.881-1.45-4.802,1.015-4.094,2.723-7.81,4.803-11.565-3.01.345-5.771-.357-7.727-2.614-3.262,4.959-5.776,10.481-6.555,16.568,2.308,2.065,5.136,1.769,8.044,2.164-2.769,1.204-5.692.604-8.299-.949-.88,4.595-.726,9.581.3,14.291,2.935,1.379,5.562.721,8.946.147-2.215,2.2-5.499,1.967-8.721,1.159,1.154,4.582,2.766,9.301,5.684,13.034,3.037,1.696,6.854.23,9.842-1.56-1.668,3.119-5.681,3.499-9.098,3.068,2.495,3.628,5.612,6.719,9.078,9.447,3.676,1.046,6.828-.379,9.928-2.704-1.424,3.287-4.95,3.791-8.292,4.01,4.817,3.144,9.978,6.188,15.739,7.103,3.581.569,6.479-1.887,8.82-4.431-.433,2.947-3.26,4.256-6.036,5.273,6.285,1.444,12.943,1.538,19.27-.399,2.136-.654,2.93-2.776,3.831-4.95.904,1.81-.41,2.948-1.468,4.526,4.417-.811,7.497-4.505,9.798-2.564-19.047,12.422-45.002,6.366-59.542-10.103-13.553-15.351-14.423-37.872-2.84-54.592,3.913-5.648,8.499-10.409,14.141-14.394l12.372-8.739c5.794-4.093,11.029-10.174,10.54-17.276-.015-.213.342-.762.534-.852.259-.122,1.186.287,1.169.589l-.271,4.881,2.42.456c-.721.77-1.648.746-2.627.302l-2.428,5.105,2.723,1.135c-.85.725-2.296.44-3.117-.678-2.636,3.304-5.363,5.772-8.763,8.555l3.617,2.416c-1.768.376-3.093-.695-4.254-2.089l-13.843,10.15c1.036,2.374,3.71,3.637,5.996,3.601l11.946-10.931c-.222,2.97,1.115,5.045,3.957,5.891-1.185,1.44-1.335,3.345-1.369,5.063-1.61,1.37-4.527,1.67-6.46.878-1.73-.71-2.518-1.92-2.825-3.797-.487.122-1.4,1.235-1.318,1.884.269,2.126,2.215,3.602,4.311,3.967-.833,1.545-1.074,3.053-1.089,4.684-1.375,1.702-4.526,2.091-6.628,1.167-1.555-.684-2.175-1.727-2.855-3.334-.478.382-1.055,1.341-.928,1.853.47,1.89,2.278,3.249,4.247,3.496l-.841,4.2c-.237,1.185-2.779,2.258-3.968,2.4-2.462.293-4.114-.921-5.064-2.864-.455.499-.889,1.525-.684,1.966.942,2.027,3.044,2.912,5.354,2.637-.724,1.972-.908,3.491-.245,5.59ZM170.582,260.347l7.683-9.571c-2.416-.579-4.522-1.318-6.013-3.556-3.356,2.93-6.488,6.349-9.146,10.175,1.875,2.295,4.783,3.106,7.476,2.953Z"/>
        <path d="M375.236,240.276l-3.107,2.486c2.302-4.842,2.663-9.873-.285-14.081l-2.039-1.948-.243,1.633c-1.677-.904-3.013-2.557-3.276-4.6-.692-5.387-2.302-10.731-4.995-15.489.223-.467,1.106-1.073,1.433-.887l1.422.809c1.048.596,2.286,1.162,3.186,1.966,3.575,3.189,8.118,4.232,12.838,3.292,2.693-.536,5.381-.85,8.231-.048-3.389,1.848-4.45,4.534-7.842,5.919,6.457,3.05,11.23-1.852,17.904-2.16-1.183,1.854-2.729,2.225-3.023,4.412,9.88-1.105,17.278-9.249,18.763-18.766l2.748-1.677c-1.715,16.525-15.599,26.505-31.972,22.91l-7.643-2.523c2.609,3.184,6.639,3.967,10.654,4.876.231.01-.33.851-.617.983-1.168.434-2.244,1.031-2.543,2.366l3.162-1.76c1.695.482,2.422,2.536,1.613,4.196-.981,2.012-2.815,3.246-5.098,2.884,1.548,1.779,4.228.489,6.294-1.816,1.469.119,3.15,1.593,3.67,3.194.424,1.305-.195,3.349-1.801,3.359-5.272.032-9.269-2.51-15.205-.721.81-1.251,1.287-2.567.584-3.799-.225,1.894-1.122,3.635-2.815,4.99Z"/>
        <path d="M96.155,284.744c-6.898,5.854-7.395,16.106-1.865,23.037,3.906,4.895,9.348,7.139,15.71,7.962-9.166,3.04-19.342.42-25.93-6.21-5.117-5.149-7.234-12.544-5.282-19.474,3.501-12.428,18.228-20.29,27.912-15.132,4.773,2.542,7.431,8.041,5.343,13.224-.84-2.901-2.223-5.011-4.91-5.844-3.805-1.181-7.721-.325-10.977,2.438Z"/>
        <path d="M271.214,302.342c-1.634,1.287-1.573,2.685-.373,4.698l-2.17.859c-.581,1.882.571,3.388,2.424,4.445-3.373.678-6.515-2.012-6.618-5.515-1.806-2.658-.106-6.506,2.81-7.373,1.032-.156,1.453-.241,2.683-.817l-2.222-.477c.222-4.184-2.669-7.242-7.046-7.395l3.6-5.036c1.385-.71,2.976.69,3.535,1.566,1.339,2.1-.129,3.366.46,4.634.076.163.41.509.491.347l.443-.884c.567-1.133,1.027-1.681,2.263-1.976,1.132-.27,2.276-.306,3.076.359.888.739,1.095,1.481,1.788,2.908l.058-3.1-2.163-1.429c2.419-2.031,2.196-4.439,1.442-7.749l2.261,1.723-.044-2.789-1.698-.414c.997-1.111,1.241-1.766.82-2.845s-.823-2.417-1.569-2.892c.819,1.473.961,5.494-1.196,5.197l-5.37-.739,2.996-6.475,3.164,1.221c-.291-1.07-.916-1.589-2.158-2.451l.955-2.567c2.997,1.824,4.337,4.369,5.713,7.233,2.222,4.627,1.465,9.531-.725,14.227-.442,1.585.384,4.025.768,5.637.57,2.393,1.365,4.223,2.968,6.287l-2.711,1.567c.84,1.177,1.388-.636,4.142-1.052,1.143-.763,2.208-1.786,3.81-1.507,1.049.183,2.518,1.182,2.786,2.342-1.13.174-2.189.55-2.255,1.428,1.707-.466,2.918-.958,4.532-.647,1.09.21,2.497,1.48,2.997,2.812,1.089,2.903.021,6.096-2.615,7.645.222-1.193.466-2.634.459-3.51-.007-.86-1.317-2.374-2.113-2.076-1.293.484-2.077.809-3.329.372-.504.733-1.46,1.907-2.293,2.144-2.441.695-5.463-1.058-6.073-2.923-.401-1.224-.003-2.417.373-3.816l-1.263.829-1.736-2.432c.19,1.11.641,2.413.479,3.113-.292,1.032-.317,1.772.099,2.467l-1.916,1.069c.986.083,2.261-.026,2.707.293l2.93,2.101c-.75,1.015-1.543,1.485-2.851,2.005.879,2.08,3.233,2.801,5.831,2.156-2.525,2.74-6.369,2.314-9.183.381-1.291-.887-2.114-1.522-2.355-3.111-.184-1.21.492-2.496,1.435-3.798-1.176-.245-2.599-.866-2.938-1.713-.607-1.517-.399-2.395-.314-4.558ZM284.822,306.47c.136.582.516,1.454.886,1.363l1.991-.491-.544-3.014-.872,2.617-1.462-.475Z"/>
        <path d="M329.813,179.959l-6.368-.289c2.442-1.649,4.652-2.873,6.129-5.204,2.954-4.662.216-9.332-4.714-11.965l3.402,4.407-4.903-3.241c-4.287-2.834-5.706-9.013-2.104-13.056.798,6.653,7.199,9.421,13.927,8.912,6.409-.485,12.15,2.762,14.083,9.053,1.828,5.951-.173,12.61-5.434,16.584-2.102,1.588-5.822.686-8.469-.419,2.712-1.792,5.065-3.703,6.6-6.534-4.016,1.336-7.844,1.947-12.149,1.752Z"/>
        <path d="M416.277,233.576c14.858-12.978,18.509-35.679,7.638-52.543l1.762,4.967c-.303.816-2.019,1.083-2.807.565-3.505-2.309-.375-6.519-2.641-10.387-1.519-2.592-4.244-4.356-6.61-5.994.129,1.297.176,1.827.096,2.865l-3.768-2.87c.41-3.194-4.099-3.613-7.108-8.435-2.244-3.597-2.305-8.766,1.377-11.31-3.032,7.897,1.663,11.641,8.048,15.544,11.47,7.01,18.755,18.432,20.182,31.863,1.479,13.919-3.426,27.682-13.756,37.083-9.267,8.434-21.781,11.413-33.789,8.197-3.802-1.018-7.334-.598-10.901.532,3.041-3.9,7.357-4.295,11.983-3.11,10.746,2.753,21.815.44,30.294-6.966Z"/>
        <path d="M101.511,192.367c6.359-1.929,8.218,4.335,14.511,4.235,3.788-.06,7.667-1.952,9.996-5.066,3.835-5.128,9.55-6.744,16.104-5.108-6.52-3.073-13.05-1.519-17.477,4.074-3.938,4.976-10.412,5.77-15.23,1.661-3.536-3.016-8.834-2.868-11.731.715l-2.357,2.914c-.224-3.413,2.392-6.097,5.03-7.253,3.419-1.498,6.999-.84,9.818,1.395,2.013,1.596,4.139,3.022,6.893,2.641,2.787-.386,5.03-2.21,6.589-4.462,2.888-3.453,6.866-5.593,11.338-5.319l.643.801c.145.181.672-.415.925-.669,3.197.316,6.229,1.77,9.086,3.341,3.503,1.926,7.086,2.798,11.229,2.76-3.151,1.56-6.661.658-10.058-.139l-7.088-1.663c-4.554-.541-8.331,1.331-11.084,4.745-1.362,1.69-2.979,3.263-4.703,4.539-5.044,3.736-11.566,3.154-16.254-.733-3.191-2.646-7.461-2.387-10.465.766.53-2.204,2.638-3.674,4.285-4.174Z"/>
        <path d="M213.435,296.659c-1.579-3.589-3.63-5.539-6.697-4.503,1.958.844,3.394,1.785,4.17,3.144.958,1.678.923,3.589-.045,5.25-1.105,1.895-3.307,2.815-5.297,2.847-2.317.038-4.237-.972-5.733-3.097,2.976-1.623,4.576-5.126,3.258-8.533,5.4-.516,10.013-2.359,14.796-4.666,2.119-1.022,6.87-.456,8.299,2.862.777,1.803.587,3.51-.245,5.216-1.308,2.686-4.666,3.817-7.141,1.96l-1.945-1.46c1.291-2.364,1.003-5.348-1.58-6.674.658,1.618,1.406,2.903.951,4.367-.396,1.276-1.403,2.543-2.794,3.287Z"/>
        <path d="M187.98,309.738c.231.43.022,2.035-.445,2.139l-2.232.499,1.356,1.363c-1.024.35-1.961.347-2.847-.144-6.876-3.808-11.788-9.716-15.293-16.56l-2.251-5.378c.869.422,1.754.985,2.351,1.099,2.974.568,5.174-1.91,5.896-4.299l3.8.519c-.301,2.045,1.186,4.095,2.644,5.635.542,2.391-2.133,4.73-4.017,5.163-3.199.736-4.956-.956-6.846-3.459.299,2.03,1.741,3.594,3.156,4.798,1.377,1.172,3.101,1.095,4.72.097.971,4.062,4.296,6.76,8.454,5.637l1.553,2.892Z"/>
        <path d="M126.229,147.406c-5.695,3.697-12.46,5.042-17.685,1.121-1.673-1.442-3.133-3.261-2.483-5.902,1.532,3.123,3.883,4.9,7.347,5.232,9.122.875,12.212-8.213,23.712-8.053,4.804.067,9.559,2.151,11.912,6.297,1.777,3.132,1.096,6.817-1.924,8.723.701-4.381-1.729-8.201-5.871-9.776-4.987-1.897-10.424-.619-15.009,2.357Z"/>
        <path d="M240.752,297.468c-1.23-2.98-2.908-4.745-6.176-5.34,2.265-1.928,2.96-4.41,2.517-7.123-.63-3.861-4.48-6.795-8.654-5.754,1.43-1.595,2.961-3.432,4.615-4.62,2.225-1.598,5.144-1.242,6.811.169,2.731,2.311,2.465,6.237.192,8.812l-1.891,2.142c3.205-.426,5.626.766,6.638,3.593,1.136,3.174-.596,6.8-4.052,8.119Z"/>
        <path d="M198.775,233.055c.328,1.211,2.339,2.398,3.717,2.45-.928,2.222-.921,4.21.377,6.177-1.91,1.471-4.319,2.191-6.697,1.709-2.661-.539-3.944-2.801-3.948-5.549,4.583-4.189,8.128-9.293,10.277-15.607.321.114.576.782.864,1.473.53,1.273,2.755,1.542,4.226,1.479-.067,2.278.374,4.084,2.333,5.488-1.243,1.664-3.147,2.879-5.265,3.2-2.275.344-3.878-.579-5.185-2.486-.168.158-.784,1.347-.698,1.667Z"/>
        <path d="M147.025,200.044l-1.622-1.18-.373,2.73-2.765.734c-.013-3.865,2.17-8.422,4.576-6.737,1.118-1.886,3.201-2.813,5.394-2.841,4.56-4.063,12.301-7.29,18.449-6.931,1.54.09,2.537.685,4.132-.67.614,1.22.742,2.669.52,4.119-1.939-.663-3.499-.682-4.893.777l-2.259-.771c-1.229.51-2.156,1.668-3.137,3.001-1.569.323-3.775.277-5.772.216l-1.969,1.488c-2.357-.209-4.118,1.058-5.046,2.99-1.077.157-2.233.531-2.932,1.123l-2.303,1.953Z"/>
        <path d="M332.201,299.187c-.334,2.176-4.05,5.058-5.465,4.681-4.57-1.22-8.712-3.287-12.128-6.554,1.507.044,3.108.297,4.047-.061,1.203-.459,1.949-1.774,2.549-3.209,2.692,1.809,5.792,2.455,9.045.82,1.151.909,2.2,2.711,1.952,4.324Z"/>
        <path d="M205.028,222.868l-2.592-1.372c.449-2.79.613-5.491-.79-8.219,3.477.897,6.574.385,9.99-.409,2.888,2.113,1.816,7.69-.995,9.402-1.652,1.006-3.78,1.569-5.613.599Z"/>
        <path d="M294.884,206.659c-3.568-.593-6.47.614-8.415,4.218.037-3.654-.12-6.741-3.067-9.042,2.158-1.635,4.107-3.267,6.469-4.401,2.033-.976,4.587,1.008,5.283,2.894.747,2.024.465,3.872-.269,6.331Z"/>
        <path d="M185.642,281.069l-2.731-.92c.46,1.737-.428,3.722-1.5,4.903-1.477,1.627-3.526,2.282-5.697,1.685-2.887-.794-4.863-4.433-3.607-7.178,1.182-.964,2.59-2.129,3.482-3.482,2.661,3.702,6.243,3.523,10.105,1.123l-.052,3.87Z"/>
        <path d="M251.753,259.877c-1.032-2.535-2.846-4.105-5.622-3.902l3.001-5.15c1.31-2.249,5.173-2.401,7.048-.756,2.33,2.045,2.684,5.251,1.606,8.103-2.215-.429-4.337.015-6.032,1.704Z"/>
        <path d="M198.889,307.978c-1.793,1.882-3.933,2.445-6.394,2.06-1.944-.304-3.857-1.558-4.91-3.618,2.54-1.222,4.081-3.081,4.164-6,2.152,1.471,4.673,1.039,6.918.542,2.139,1.574,2.109,5.035.222,7.016Z"/>
        <path d="M186.183,274.522c-1.822,2.588-4.917,3.261-7.445,2.006-2.458-1.221-3.941-4.606-2.424-7.337,1.096-.659,2.758-1.688,3.749-2.792,1.593,3.258,5.089,4.64,8.425,3.032l-2.306,5.091Z"/>
        <path d="M192.002,298.483c-1.171-1.034-2.088-2.794-2.668-4.022,1.55-1.194,2.455-2.249,3.095-4.203,2.702,1.069,5.639,1.681,8.813,1.715,1.035,2.594-.089,5.261-2.111,6.679-2.007,1.407-4.963,1.742-7.129-.169Z"/>
        <path d="M201.092,253.436c-2.512.268-4.773-1.005-5.5-3.18-.535-1.6-.189-3.483.401-5.035,2.861.362,5.463-.375,7.287-2.382l1.07.384c1.003.359-1.828,4.633,2.618,7.808-1.733,1.11-3.585,2.16-5.877,2.405Z"/>
        <path d="M190.006,299.123c1.146,2.61-1.816,5.509-4.061,5.981-2.934.617-6.032-1.105-6.527-4.275,1.392-1.379,3.046-3.07,3.096-5.524,1.88.6,3.895.548,5.69-.284l1.802,4.102Z"/>
        <path d="M200.468,256.686c-.161.096-.895-.45-1.028-.582-.177-.176-.305.799-.273,1.097-1.766,3.457-5.935,4.957-9.278,2.816-2.002-1.463-2.702-4.873-1.139-6.781,1.73-.299,3.665-.574,5.332-1.868,1.602,3.517,4.973,4.45,8.817,3.13-.648.755-1.805,1.812-2.433,2.188Z"/>
        <path d="M300.057,212.372c-.282-2.649-1.873-4.447-4.132-5.318,1.093-1.852,1.493-3.649,1.166-5.945,1.393-.2,3.182-.265,4.538.125,3.028.871,4.568,3.506,4.107,6.466-.433,2.781-2.488,4.794-5.679,4.672Z"/>
        <path d="M198.095,319.04c-4.503-.891-8.295-2.054-12.087-4.289l2.29-.724c.856-.271,1.399-1.876,1.487-3.265,2.918,1.403,6.094,1.476,8.893-.269l2.074,2.504c1.26,1.521-.091,3.919-1.622,4.619l-1.035,1.423Z"/>
        <path d="M295.544,218.771c-1.707-.458-2.846-.913-4.741-.213.576-3.148-.479-5.995-3.413-7.686,2.057-2.414,5.198-3.401,7.973-2.189,2.854,1.247,3.666,4.378,2.595,7.214-.358.949-1.383,2.525-2.413,2.874Z"/>
        <path d="M323.02,199.134c-.61-3.198-2.551-5.088-5.471-5.571l.498-1.737-1.524-2.548c3.968.124,8.02-.012,11.414,1.771,1.999,1.05,1.108,4.725-.101,5.947-1.408,1.424-2.618,2.04-4.816,2.138Z"/>
        <path d="M201.796,308.947l-.531,1.822-1.539-1.084c1.919-1.535,2.367-3.136,2.298-5.645,2.571,1.215,5.129,1.312,7.612-.074,2.525,1.844,2.844,5.707.327,7.906-1.918,1.676-5.074,1.905-7.083.545-.166-1.318-.303-2.078-1.083-3.468Z"/>
        <path d="M341.129,204.574l3.642-2.978-2.196.553.319-3.816c2.8,2.426,5.558,4.837,7.128,7.821,1.039,1.976.093,4.508-1.392,5.61-1.523,1.131-4.327,1.086-5.797-.562.132-2.039.469-4.57-1.705-6.628Z"/>
        <path d="M252.256,277.831c-1.737-2.765-4.248-3.95-7.323-3.29.987-1.974,1.147-3.869.621-6.078.913-1.369,3.314-2.075,5.039-1.827,1.813.26,3.607,1.405,4.211,3.406.821,2.719-.211,5.653-2.548,7.789Z"/>
        <path d="M191.175,289.391c-1.588,3.859-5.7,5.624-9.086,3.58-1.284-.775-2.325-2.654-2.614-4.363,2.795-1.351,4.536-3.551,4.328-6.482l2.189.356c.725,2.939,2.198,5.088,5.183,6.91Z"/>
        <path d="M215.159,238.165c-1.295,2.391-3.329,3.928-5.85,4.386-1.853.337-3.695-.292-4.725-1.529-1.194-1.434-1.552-3.707-.695-5.362,2.941-.097,5.482-1.847,7.039-4.165,1.794.184-.619,4.748,4.231,6.67Z"/>
        <path d="M245.806,287.086c-1.001-1.357-2.557-2.524-4.49-2.88,2.025-2.171,2.767-4.84,1.849-7.768,1.519-.373,3.286-.653,4.674-.176,1.9.653,3.052,2.404,3.394,3.983.333,1.54-.059,4.491-1.532,5.135l-3.896,1.705Z"/>
        <path d="M190.871,266.238c-1.967,2.269-4.648,2.915-7.149,1.608-2.303-1.203-3.311-4.156-2.24-6.76,1.971-.202,3.757-.805,5.293-2.07,1.385,2.86,4.32,4.024,7.526,3.265l-3.43,3.957Z"/>
        <path d="M173.362,287.48c-.137,1.635-1.719,3.121-3.171,3.421-5.587,1.153-6.286-7.389-5.296-13.875,1.121,2.619,3.327,3.627,6.08,2.726-1.046,2.906-.421,5.772,2.387,7.727Z"/>
        <path d="M284.304,222.262c-1.026-.969-2.766-2.063-4.309-2.401.147-1.247-.021-3.026-.31-4.387.956-2.784,5.07-4.286,7.645-2.438,2.196,1.576,2.626,5.293,1,7.22l-4.026,2.005Z"/>
        <path d="M334.78,203.944c.111-3.243-1.098-6.205-4.19-7.897,1.491-1.059,2.174-1.973,2.68-3.494,2.515,1.211,5.464,2.355,7.212,4.254,1.45,1.575,1.062,4.231.109,5.447-1.318,1.683-3.162,2.211-5.811,1.689Z"/>
        <path d="M278.387,231.668c-1.025-1.674-2.228-2.86-4.308-3.316l-.149-3.831c1.143-1.666,3.143-2.899,5.208-2.877,2.02.022,3.641,1.438,4.286,2.945.726,1.696.63,4.04-.548,5.302-1.614-.07-3.029.26-4.488,1.776Z"/>
        <path d="M258.725,250.288c-1.845-2.656-4.713-3.833-7.921-2.409l3.883-7.115c.957-1.752,4.252-1.214,5.426.17,1.941,2.288,2.29,5.286,1.143,7.956l-2.531,1.397Z"/>
        <path d="M326.297,208.526c-.174-2.627-.86-5.053-2.905-6.684l-.715-.571c-.194-.155.482-.882.865-.842,1.921.199,5.014-.97,6.21-3.451,2.588,1.641,3.833,4.825,3.046,7.705-.778,2.847-3.224,4.483-6.501,3.842Z"/>
        <path d="M332.569,290.272c-1.357,3.183-4.359,4.348-7.493,3.913-2.699-.375-5.527-2.899-5.317-6.014,1.9-.219,3.767-.948,4.866-2.492,1.872,2.575,4.63,3.12,7.579,2.124.33.557.628,1.851.365,2.469Z"/>
        <path d="M262.545,240.899c-.986-1.009-1.877-1.83-3.096-2.687l-1.893-2.608,1.113-2.312c.558-1.158,1.528-2.17,2.518-2.492,1.409-.458,2.826-.27,4.035.686,1.98,1.564,3.017,4.738,2.04,6.981-1.6.328-3.42,1.052-4.718,2.431Z"/>
        <path d="M267.678,250.536c-1.226-1.255-3.004-1.938-4.852-1.867.839-2.122.675-4.181.418-6.343.939-1.69,3.983-2.59,5.832-1.772,2.994,1.325,3.762,5.104,2.389,7.671-1.495.476-2.49,1.146-3.787,2.311Z"/>
        <path d="M152.201,313.792l-1.077,2.046c-2.27-1.142-4.282-.029-5.591,1.712-2.601-.279-4.275-2.839-3.936-5.283.295-2.126,2.563-5.025,4.959-4.101l4.098,1.58c.168,1.246.478,2.492,1.547,4.047Z"/>
        <path d="M333.215,293c.484-.333.379,2.558.956,2.082.171-.141.693-.745.66-.964l-.609-4.03c2.786,1.75,5.688,1.572,8.217-.391,2.013,1.638,2.51,4.801.454,6.708-1.724,1.599-4.006,2.168-6.342,1.605-1.991-.48-4.008-1.911-4.688-4.08l1.353-.93Z"/>
        <path d="M261.634,260.799l-2.497-2.302c1.069-2.059,1.305-4.586.27-6.909,2.253-1.81,5.551-1.759,7.432.488,1.634,1.952,1.661,4.773.397,6.961-2.143-.19-4.135.679-5.603,1.761Z"/>
        <path d="M307.455,207.41c.384-2.438-.567-4.72-2.404-6.168,1.034-1.459,1.672-2.791,2.165-4.582,2.658-.267,5.679,1.581,6.569,4.326.609,1.877-.018,3.752-1.222,5.13-1.142,1.308-2.829,1.987-5.108,1.294Z"/>
        <path d="M271.927,240.078l-3.133-1.579c.648-1.832.173-4.047-.369-5.918,1.032-2.478,5.085-3.452,7.241-1.59,1.849,1.596,2.39,4.759,1.102,6.842-1.563.3-3.74.632-4.842,2.245Z"/>
        <path d="M303.803,200.377c-3.865-2.516-7.902.67-7.575-1.745.24-1.767-.174-2.732-1.867-3.991l8.242-3.23c.971.178,2.313,1.67,2.597,2.568.771,2.443.138,4.653-1.397,6.398Z"/>
        <path d="M348.722,247.547c-1.067,2.301-3.133,3.844-5.824,4.025-1.393.094-3.102-1.07-3.689-2.074-.782-1.337-.733-3.189-.456-4.757,2.387-.255,4.361-1.059,5.763-3.182.296-.448,1.77-.552,1.738-.063-.15,2.266.139,4.571,2.468,6.051Z"/>
        <path d="M334.369,214.537c-.127-1.979-.661-4.234-1.875-5.836l2.05-3.327c1.714.382,3.647.34,5.468-.424,1.184,1.53,1.671,3.671,1.258,5.625-.645,3.051-3.612,5.033-6.901,3.962Z"/>
        <path d="M339.199,262.513c-2.657.763-5.171-.841-5.487-3.536-.148-1.257.236-2.808.675-3.907,2.341.193,4.136-.451,5.56-2.188l1.942.394c-.746,2.678-.303,4.6,1.559,6.522-1.109,1.25-2.505,2.214-4.249,2.715Z"/>
        <path d="M267.51,231.287c-1.662-2.077-3.67-3.038-6.268-2.201l3.45-5.697c1.101-1.818,3.129-2.533,5.166-1.3,1.827,1.106,3.284,3.885,2.561,6.071-1.749.58-3.69,1.341-4.909,3.127Z"/>
        <path d="M329.453,277.164c-1.346,2.277-5.152,3.023-7.269,1.152-2.062-1.824-1.95-5.403-.395-7.335,1.384.065,3.02-.232,4.237-.763.855,1.169,2.354,2.508,3.791,2.956l-.364,3.99Z"/>
        <path d="M362.874,293.673c-.184,2.353-1.492,3.624-3.048,4.416-1.601.815-4.407.963-5.44-.673l-1.834-2.903c1.49-.876,2.613-2.597,2.988-4.409,1.748.718,3.171.436,4.948.153,1.265-.201,2.484,2.158,2.386,3.415Z"/>
        <path d="M335.758,269.088c-.531,1.937-4.117,2.929-5.926,2.095-1.697-.782-2.486-2.092-2.692-3.596-.189-1.38.357-3.465,1.341-4.221,1.58.004,3-.405,4.304-1.236l2.947,2.206.026,4.751Z"/>
        <path d="M128.156,203.513c.015-.295.78-1.229,1.011-1.045l1.36,1.081c-.194.305.323-.487.362-.55l-.639-.937c-.134-.196.503-.754.716-.645,1.381.703,1.217,2.371,2.53,2.948.804.353,2.496-.108,3.357-.518l1.344,1.537c-.373-2.074-.672-3.322.496-5.112,1.678,1.207,2.583,2.294,3.906,4.241l4.868-2.286c-.809,1.465-1.93,3.019-3.222,4.177-2.497,2.24-5.87,2.244-8.404-.071l-3.868-.349c-1.063-.096-1.958.329-2.624-.185-.601-.463-1.227-1.621-1.194-2.286Z"/>
        <path d="M256.381,269.472c-.451-2.186-2.514-3.811-4.505-4.393l.332-3.554c1.799-2.402,5.919-2.788,7.896-.112,1.399,1.894,1.252,4.763-.119,6.553l-3.604,1.506Z"/>
        <path d="M273.416,223.132c-1.196-1.487-2.539-2.673-4.256-3.358-.99-2.553,2.16-6.543,4.76-6.593,3.074-.059,4.954,3.056,4.735,6.694-2.175.43-3.601,1.167-5.239,3.257Z"/>
        <path d="M316.383,211.888c.342-1.885-.294-3.489-1.39-5.011l-.538-.747c-.799-1.109,5.515.966,7.634-3.648,1.727,1.666,2.556,3.423,2.463,5.547-.081,1.834-1.025,4.197-3.181,4.778l-4.988-.919Z"/>
        <path d="M346.051,293.311c-.446-1.368-1.145-3.165-2.317-4.457l1.67-2.771c2.268.988,5.05,1.4,6.888-.873,2.151,1.953,2.293,4.834.616,6.98-1.427,1.826-4.798,2.774-6.856,1.121Z"/>
        <path d="M323.796,284.727c-1.946,1.804-5.256,2.427-7.397.499-2.355-2.121-2.08-5.777-.162-8.086l3.137-.141c.657,1.992,1.986,3.333,4.168,3.815l.254,3.913Z"/>
        <path d="M352.165,234.897c-.465,1.771-1.806,3.292-3.596,4.141-1.609.763-3.549.521-4.876-.555-.961-.779-2.205-3.234-1.241-4.397l3.077-3.712,3.402-.072c.412,1.693,1.188,3.661,3.234,4.595Z"/>
        <path d="M215.169,236.465c-1.569-1.264-2.131-3.013-2.056-4.812,3.359-.162,5.874-2.232,6.749-5.284l3.454-.277c-.585,3.57-1.619,7.345-3.837,10.325-.917,1.232-3.164.971-4.311.047Z"/>
        <path d="M354.274,245.716c-1.202,2.014-4.485,1.477-5.548-.16-.916-1.411-1.258-2.927-1.242-4.458,2.844-.553,4.748-2.458,5.705-4.784,1.292.67,2.15.979,3.51,1.318-.479,2.533-.978,5.659-2.426,8.085Z"/>
        <path d="M154.839,304.221c-1.68.757-2.993,1.991-3.903,3.72-1.506.259-3.536-1.18-4.152-2.434-.926-1.885-.45-3.954.977-5.45,2.389-2.504,7.593-2.165,6.99-.423-.565,1.634-.588,2.907.087,4.586Z"/>
        <path d="M325.687,268.735c-2.181,1.452-5.587.33-6.467-2.233s.418-5.287,2.431-6.893l2.712-2.164c-.521,2.664.416,4.465,2.795,5.449-1.188,1.681-1.896,3.246-1.47,5.841Z"/>
        <path d="M213.683,316.906c.713,3.677-8.713,3.739-14.24,2.256,2.488-1.074,3.808-2.361,3.608-4.991,2.865,1.236,5.349.781,7.975-.681.932.81,2.43,2.24,2.658,3.416Z"/>
        <path d="M284.943,210.525c-2.711.235-4.622,1.311-6.075,3.66-1.359-2.008-2.675-2.724-5.187-2.761l6.768-7.263,2.966.855c1.111,1.734,1.651,3.103,1.528,5.51Z"/>
        <path d="M260.331,280.654c-.714-2.652-2.627-3.913-5.526-3.711,1.424-2.014,2.091-3.578,1.851-6.105l3.273-1.146c2.149-.084,5.265,2.121,4.092,4.253l-3.69,6.709Z"/>
        <path d="M339.045,277.759c-1.42,1.762-4.033,2.322-6.047,1.11-1.581-.916-2.777-3.672-1.751-5.595,1.985-.364,4.237-.777,5.575-2.819.865,1.42,1.931,1.653,3.823,1.071l-1.6,6.233Z"/>
        <path d="M353.472,221.483c-2.047.498-4.017-.946-4.775-2.448.262-1.788.196-3.098-.228-5.056l1.84-1.147c.248-.946,2.391-2.176,3.216-1.06,1.026,1.389,1.663,3.376,2.256,5.109.618,1.805-.177,4.084-2.309,4.603Z"/>
        <path d="M250.615,264.899c-2.315-.163-4.062.722-5.753,2.022-.974-1.562-2.165-2.447-4.001-2.876l3.856-5.807c1.008-1.519,3.877-.477,4.699.811,1.18,1.849,1.515,3.774,1.2,5.849Z"/>
        <path d="M269.759,288.576c-.39-2.159-1.731-3.593-3.651-4.215,1.036-1.305,1.402-2.295,1.366-3.99.574-.718,2.494-1.395,3.642-1.274,1.276.135,2.747,1.122,3.323,2.401.775,1.721.634,3.375-.301,4.896-.821,1.336-2.57,2.042-4.379,2.183Z"/>
        <path d="M405.315,237.465c-1.891,1.312-4.837,1.767-7.025,2.045l-2.326-3.706c2.101-.514,4.063-2.204,4.667-4.605,1.887-.377,3.827.225,5.123,1.814.901,1.104,1.149,3.351-.439,4.452Z"/>
        <path d="M357.164,223.493c.485,3.42,1.079,8.27-.906,9.765-.691.521-2.18.68-3.043.373-1.848-.657-2.802-2.251-3.062-4.017,2.291-1.445,3.238-3.932,3.304-6.296l3.707.174Z"/>
        <path d="M313.135,197.14c-1.913-1.578-3.8-2.041-6.123-1.882.211-1.982-.506-3.192-2.103-4.504l9.539-1.428c1.052.448,1.774,2.476,1.502,3.633-.412,1.752-1.411,3.032-2.815,4.181Z"/>
        <path d="M333.293,287.282c2.19-1.463,3.449-3.664,3.194-6.038l2.735-1.84c.314,2.601,1.627,4.993,4.166,6.316-.614,2.201-2.404,3.488-4.171,3.9-2.241.523-4.424-.288-5.925-2.337Z"/>
        <path d="M391.22,232.033c.182-1.878.072-3.141-1.151-4.559.964-.535,2.093-.835,3.241-.94l3.754-.343c1.719.19,2.555,2.367,2.321,3.847-.376,2.373-1.904,4.081-4.009,4.867-.884-1.564-2.276-2.439-4.156-2.871Z"/>
        <path d="M330.635,286.617c-1.542.332-3.246-.32-4.2-1.215-1.098-1.03-1.614-2.722-1.503-4.295,2.232-.264,3.954-.996,5.426-2.665,1.172,1.817,2.796,2.65,5.072,2.747-.207,2.499-1.939,4.813-4.795,5.428Z"/>
        <path d="M421.889,207.484c-1.239-1.024-2.355-1.622-4.133-.719l.891-5.639c.304-1.924,2.5-3.48,4.538-3.006,2.25.524,3.867,3.809,2.655,5.829-1.229.868-3.083,1.488-3.951,3.535Z"/>
        <path d="M265.337,271.652c-.755-1.634-2.056-2.748-3.606-3.476.628-1.799,1.135-3.793.722-5.929.735-1.145,2.726-1.758,4.273-1.513,1.204.191,3.117,1.622,2.633,2.959-.979,2.708-2.359,5.15-4.023,7.959Z"/>
        <path d="M161.127,310.555l-1.84,2.624c-2.081,1.638-5.654.344-6.706-2.044-.673-1.527-.186-3.05.72-4.22.767-.99,2.701-2.234,4.249-1.415l3.577,5.056Z"/>
        <path d="M411.809,234.132l-4.552-1.734c1.743-1.635,3.165-3.725,2.824-6.528,1.802-.871,4.15-1.068,5.887.259,1.275.974,1.334,3.237.176,4.467s-2.897,2.615-4.334,3.535Z"/>
        <path d="M340.197,232.956c-1.069.368-3.542-.201-3.775-1.355l-1.061-5.276c2.145.077,3.674-1.04,4.455-2.902.434-.023,1.586.18,2.012.345-.122,2.377.442,4.182,2.301,5.776-.808,1.575-2.082,2.775-3.932,3.411Z"/>
        <path d="M348.003,258.766c-.862,1.543-3.732.129-4.347-1.115-.671-1.357-.766-2.669-.71-4.374,2.824-.265,5.12-1.738,6.447-4.169,1.023,1.171,1.609,1.535,2.921,1.938l-4.311,7.72Z"/>
        <path d="M332.019,260.503c-.767,2.281-5.628,1.272-6.346-1.196-.34-1.168-.204-3.155.506-3.979l3.903-4.531c.195,2.258.938,3.501,2.969,3.989-.662,1.798-.808,3.465-1.032,5.717Z"/>
        <path d="M339.098,251.941c-1.998,1.94-5.148,2.128-7.173.282-.553-.504-.955-2.03-1.034-2.73l3.727-6.892c.602,1.185,1.67,2.017,3.244,2.058-1.109,2.471-1.036,5.096,1.235,7.281Z"/>
        <path d="M247.981,297.465c-1.122-.51-1.989-.665-3.594-.741,2.118-2,3.041-4.917,1.973-8.134,1.196-.661,2.431-1.181,3.837-1.257,1.382-.074,3.909,1.56,3.22,3.153-1.136,2.626-3.639,4.86-5.436,6.978Z"/>
        <path d="M406.319,231.476c-1.64-1.627-3.22-1.982-5.33-1.655.15-1.525-.124-3.106-1.385-4.25l6.185-2.825c1.449-.662,2.913,1.539,2.951,2.851.068,2.311-.763,4.191-2.421,5.879Z"/>
        <path d="M343.597,240.461c-1.347,1.694-2.943,2.645-5.115,2.714-1.364.044-3.49-1.088-3.232-2.622l1.156-6.87c1.236.857,2.751,1.178,4.427.863-.121,2.387.561,4.586,2.763,5.915Z"/>
        <path d="M344.3,221.615c-1.009.475-2.77.317-3.651.124.318-2.237-.121-4.053-1.095-5.788l2.859-3.162c.948.773,2.782,1.276,4.441,1.336,1.288,2.352.391,6.105-2.554,7.49Z"/>
        <path d="M218.692,225.671c-.137,1.622-1.699,3.113-3.173,3.813-1.618.768-3.313.689-4.703-.223-1.173-.77-2.162-2.798-1.715-4.256l3.84-2.295,2.242,1.03.366-.982,3.143,2.913Z"/>
        <path d="M254.86,288.85c-.948-1.75-1.877-2.512-3.589-3.02,1.525-1.977,2.059-4.082,1.433-6.551,1.511-.938,3.545-1.139,5.243.014.638.433,1.178,1.744,1.564,2.719l-4.65,6.838Z"/>
        <path d="M352.499,339.709c-4.337-.211-7.25,2.928-7.301,7.462-2.637-3.808-1.331-8.501,2.045-11.156,1.444-1.136,2.621-1.672,4.194-.628,1.232.817,1.943,2.516,1.062,4.322Z"/>
        <path d="M417.515,216.776c-.939-.925-2.258-1.71-3.683-1.749l2.965-5.787c.32-.625,1.691-1.218,2.47-1.25,2.136-.085,4.076,3.448,3.016,6.705-1.773.27-3.261.738-4.768,2.081Z"/>
        <path d="M318.988,275.249c-.873.604-2.942.36-3.884-.369-1.016-.786-1.794-2.166-1.807-3.591-.025-2.779,1.576-4.931,4.291-6.024-.112,2.396,1.184,4.28,3.104,5.33-1.018,1.429-1.359,2.728-1.705,4.654Z"/>
        <path d="M339.159,220.89c-.165,2.134-1.958,4.228-4.069,4.101l-3.814-5.967c1.004-.569,2.196-2.001,2.761-2.948l4.238.131c.573,1.051,1.015,2.992.884,4.683Z"/>
        <path d="M242.751,275.49c-1.713-3.059-4.632-4.134-7.899-3.228l4.666-6.267c.986-.471,2.421-.043,3.246.877,1.996,2.437,2.184,5.727-.013,8.617Z"/>
        <path d="M350.867,226.793c-1.245,1.851-3.233,2.395-5.274,1.657-1.537-.556-2.924-2.94-2.45-4.733,2.068-.499,3.882-1.506,4.899-3.454,1.163,1.649,2.25,2.354,4.136,3.069-.224,1.025-.704,2.558-1.311,3.461Z"/>
        <path d="M322.67,213.23c.148-.29.586-.92.782-.791l1.13.749,1.57-3.369c1.853.785,3.475.443,4.939-.389,2.232,2.175,2.268,6.839-.839,8.457-2.315-1.705-4.942-3.658-7.581-4.658Z"/>
        <path d="M428.09,195.823l-2.203,2.414c-1.207-1.793-2.912-2.415-5.349-1.429,1.32-2.887,1.979-5.447.897-8.882.933-.01,1.522.511,1.787,1.956l3.139-1.857,1.729,7.797Z"/>
        <path d="M342.306,302.115c-.195.624-1.179,2.045-1.861,2.214-3.554.879-7.392,1.061-10.711-.196,2.515-1.172,3.982-2.692,4.269-5.267,2.067.846,3.782,1.171,5.927,1.073l2.376,2.177Z"/>
        <path d="M315.564,204.195c.136-2.229-.199-4.314-1.456-5.912,1.233-.995,2.34-2.255,3.195-3.593,2.451.305,4.296,2.987,4.082,5.248-.265,2.786-2.66,4.713-5.821,4.257Z"/>
        <path d="M416.068,224.246c-2.327-.808-4.173-.639-6.25.312.318-2.033.36-2.452-1.349-3.72l3.58-3.669c.516-.529,2.096-.69,2.838-.369,2.044.883,2.636,4.345,1.182,7.445Z"/>
        <path d="M275.976,249.381l-2.92-1.319c.742-2.162.808-4.646-.614-6.922,2.365-1.954,5.567-1.974,6.448-.15.356.737.261,1.971-.111,2.723l-2.802,5.667Z"/>
        <path d="M158.755,321.178l-4.669.449-1.4-2.572c-.719-1.321-.237-3.761.981-4.344,1.761.511,3.679.712,5.232.272.369,1.429.807,2.537,1.521,3.781l-1.665,2.414Z"/>
        <path d="M420.512,225.551l-3.562-.677c1.297-2.224,1.926-4.3,1.023-6.765,1.982-1.996,4.714-2.326,6.079-.521.361.477.151,1.948-.204,2.528l-3.337,5.436Z"/>
        <path d="M341.193,270.149c-.834,1.349-3.579-.58-3.846-1.744-.332-1.447-.34-2.607-.187-4.034,2.675.123,4.601-.761,6.335-2.772l1.914,1.728-4.216,6.821Z"/>
        <path d="M270.706,260.957l-2.091-1.29c1.358-2.627,1.669-5.125-.007-7.893.729-.824,2.011-1.725,3.02-1.95,1.341-.298,2.88.47,3.494,1.749l-4.415,9.384Z"/>
        <path d="M135.832,182.411c-2.904-3.376-2.746-8.144-1.168-11.832.665-.374,1.972-.757,2.467-.801l2.688,3.699c-2.443,2.195-3.85,5.305-3.987,8.933Z"/>
        <path d="M394.158,353.74c-3.116,1.93-7.282,1.042-9.894-1.731-.765-1.066-1.335-3.043-.632-3.913,1.256-1.553,2.69-.846,3.97-.215l1.446.713c.373.184.156,1.277-.034,1.746.353,2.343,2.435,3.038,5.145,3.399Z"/>
        <path d="M239.649,328.047c-.233.779-.37,1.304-.671,1.726-.208.251.033.884.347,1.532-.479,1.839-3.179,3.268-4.977,1.776-.869-.722-1.313-3.102-.895-4.001,1.043-.782,1.722-1.347,2.653-2.497l2.511.411,3.82.163-1.912,2.729-.875-1.839Z"/>
        <path d="M208.474,250.095c-2.449-1.118-3.082-3.799-2.205-6.014,3.659.579,6.575-.541,8.805-3.464l.968,1.285-7.568,8.193Z"/>
        <path d="M128.813,170.929c-2.378,1.389-3.187,3.913-3.763,6.706-2.584-4.11-1.782-9.388,2.244-12.272l1.92,2.251-.401,3.315Z"/>
        <path d="M376.769,294.596c-.481.035-1.689-.488-1.851-.702-.215-1.26-.762-2.605-1.296-3.47l2.118-3.604c.68.164,2.338.57,2.977.947,1.443.851,1.734,2.742,1.249,4.265-.353,1.108-1.726,2.457-3.197,2.564Z"/>
        <path d="M314.563,211.765c-4.603-.277-8.976,2.205-10.906,1.175,1.84-1.073,2.949-2.299,3.695-4.343,2.094,1.062,4.31.524,5.929-1.142,1.414.986,1.974,2.751,1.282,4.31Z"/>
        <path d="M280.446,240.186l-2.296-1.987c.669-1.691.925-3.166.614-5.281.857-.694,2.166-1.332,3.433-1.618.942-.213,2.497,1.083,2.006,1.985l-3.756,6.901Z"/>
        <path d="M239.117,325.579c-1.489.536-2.997-.207-3.443-1.5l-.935-2.709,2.438-2.294,3.707,1.269c1.167,1.831.495,4.419-1.767,5.233Z"/>
        <path d="M369.702,289.309l-1.519-3.956,1.881-2.403c.536-.684,2.529-.118,3.14.544,1.634,1.773,1.198,3.852-.503,5.908-.454.548-2.629.551-2.999-.093Z"/>
        <path d="M426.211,214.253l-2.817.548c.835-2.088.263-3.849-.145-6.085-.306-1.677,2.717-3.725,4.616-2.919-.064,2.807-.752,5.739-1.654,8.456Z"/>
        <path d="M168.05,317.697c-.964,1.203-3.087,1.73-4.734,1.173-1.397-.472-2.466-1.763-2.719-3.029-.274-1.371.57-2.93,1.589-3.767l5.863,5.623Z"/>
        <path d="M285.579,230.814l-1.149-.441c1.101-2.198,1.385-4.31.341-6.824l3.736-1.648c.782-.345,2.324.73,2.424,1.529l-5.353,7.385Z"/>
        <path d="M137.02,203.217l-3.514.416c-1.751-3.116-1.735-6.929.185-10.122.614,3.027,1.359,5.405,3.422,7.362l-.093,2.344Z"/>
        <path d="M385.478,345.637c-1.728.362-2.394,1.267-2.787,2.622-2.223-1.487-2.66-5.295-.225-6.68l5.731-3.259c.539,2.384-4.393,2.014-2.719,7.318Z"/>
        <path d="M234.154,339.606c-.586.731-1.53,1.335-2.18,1.305-.645-.029-1.955-.665-2.228-1.281-.413-.932-.402-2.463-.28-3.237,1.904-.499,2.565-.959,4.293-2.292l.84,2.214c.427,1.126.477,2.14-.445,3.291Z"/>
        <path d="M384.061,291.706c-1.01,1.049-2.239,1.462-3.239.714.617-2.054.283-3.933-1.462-5.34.234-.313.666-.832.994-.915s1.161.141,1.47.3l2.646,1.359.222-.639c.067-.194.799-.286.889-.076.472,1.108-.39,3.426-1.52,4.598Z"/>
        <path d="M140.625,333.614l1.61-.713c.419-.185.374-1.27.428-2.013.064-.879,1.211-1.544,2.057-1.547.687-.002,2.19.531,2.327,1.245.299,1.556-.69,3.159-1.654,3.694-1.576.876-3.217.918-4.768-.667Z"/>
        <path d="M317.551,264.241l-2.816.804-3.011.564c2.447-2.823,4.834-6.085,8.835-7.086-1.384,1.991-2.728,3.341-3.008,5.717Z"/>
        <path d="M145.659,306.358c-1.447.432-2.52.874-3.947,1.762-.898-2.882.352-6.352,3.685-7.351-.731,1.953-.703,3.783.262,5.589Z"/>
        <path d="M384.24,313.529c-1.377-.584-1.277-4.377-.66-4.978.302-.295,1.238-.403,1.496-.273.126,1.954,1.241,2.768,3.129,2.896-.5,1.448-1.976,3.198-3.965,2.355Z"/>
        <path d="M245.405,165.706c-2.094,2.99-5.978,2.848-9.724,2.154l1.573-1.681c2.951.362,5.466.219,8.151-.473Z"/>
        <path d="M134.107,169.974l-1.229,3.007-2.736-.214c-1.198-.973-.919-3.134.327-4.4l1.794.958-.572,1.031c-.123.221.357.869.555.749l1.861-1.131Z"/>
        <path d="M153.575,296.663c-1.864.028-2.944.167-4.909.574.558-1.77,1.867-3.322,3.65-4.537l1.259,3.963Z"/>
        <path d="M292.253,222.061l-2.432-1.558c1.065-1.629,3.069-1.538,4.413-.573l-1.981,2.131Z"/>
        <path d="M428.273,203.428c.002.172-.563.873-.645.765-.122-.162-.383-.595-.4-.836l-.266-3.81c-.041-.587.536-1.252,1.259-1.344l.051,5.224Z"/>
        <path d="M238.564,315.72l1.943,2.733c-.706.673-2.198.481-2.863-.209-.554-.575-.714-2.579.92-2.524Z"/>
        <path d="M159.964,159.036c-.36-.241-.592-1.263-.46-1.655.154-.457,1.121-1.169,1.579-1.025.634.199,1.131,1.376.968,1.921-.178.595-1.456,1.183-2.088.759Z"/>
        <polygon points="247.286 297.941 245.034 300.439 242.883 298.074 247.286 297.941"/>
        <path d="M171.027,192.125l-3.31.077c.018-1.544.913-1.849,1.78-1.672.57.117,1.283.91,1.53,1.595Z"/>
        <polygon points="303.109 214.146 299.448 216.084 300.156 213.383 303.109 214.146"/>
        <polygon points="145.836 175.668 143.386 177.331 142.005 174.942 145.836 175.668"/>
        <polygon points="410.742 234.709 407.38 236.817 407.989 233.957 410.742 234.709"/>
        <polygon points="332.413 192.412 330.929 194.612 330.085 191.415 332.413 192.412"/>
        <path d="M224.224,177.395c-.053,1.249-.975,2.226-2.366,2.661.013-1.154.662-2.449,2.366-2.661Z"/>
        <path d="M190.457,168.599c-.433,2.09-2.076,3.228-3.847,3.221-1.834-.007-3.327-1.713-3.413-3.686-.103-2.371,1.696-4.024,3.832-3.983,2.201.041,3.94,1.978,3.428,4.448ZM185.79,165.324c-.405.019-1.197.734-1.209,1.138s.818,1.085,1.206.971.947-.779.998-1.181c.043-.335-.658-.943-.995-.928Z"/>
        <path d="M170.132,399.578c.412-.35,1.491-.165,2.506-.078.044.038-.415-.362-1.069-.933.835-.686,2.355-1.199,3.719-1.172,2.724.053,4.902,1.673,5.655,3.894.837,2.472.067,5.229-2.095,6.608-2.22,1.416-4.535,1.707-6.91.653-1.742-.773-3.028-2.206-3.394-3.921-.358-1.681.181-3.854,1.588-5.05Z"/>
      </g>
    </g>
  </g>
</svg>