<svg xmlns="http://www.w3.org/2000/svg" style="display: none;">
  <symbol id="arrow-right-bold" viewBox="0 0 256 256">
    <rect width="256" height="256" fill="none"/><line x1="40" y1="128" x2="216" y2="128" fill="none" stroke="currentColor" stroke-linecap="round" stroke-linejoin="round" stroke-width="24"/><polyline points="144 56 216 128 144 200" fill="none" stroke="currentColor" stroke-linecap="round" stroke-linejoin="round" stroke-width="24"/>
  </symbol>
  <symbol id="arrow-right" viewBox="0 0 256 256">
    <rect width="256" height="256" fill="none"/><line x1="40" y1="128" x2="216" y2="128" fill="none" stroke="currentColor" stroke-linecap="round" stroke-linejoin="round" stroke-width="16"/><polyline points="144 56 216 128 144 200" fill="none" stroke="currentColor" stroke-linecap="round" stroke-linejoin="round" stroke-width="16"/>
  </symbol>
  <symbol id="arrow-up-bold" viewBox="0 0 256 256">
    <rect width="256" height="256" fill="none"/><line x1="128" y1="216" x2="128" y2="40" fill="none" stroke="currentColor" stroke-linecap="round" stroke-linejoin="round" stroke-width="24"/><polyline points="56 112 128 40 200 112" fill="none" stroke="currentColor" stroke-linecap="round" stroke-linejoin="round" stroke-width="24"/>
  </symbol>
  <symbol id="arrow-up-right-bold" viewBox="0 0 256 256">
    <path d="M204,64V168a12,12,0,0,1-24,0V93L72.49,200.49a12,12,0,0,1-17-17L163,76H88a12,12,0,0,1,0-24H192A12,12,0,0,1,204,64Z"/>
  </symbol>
  <symbol id="arrow-up-right" viewBox="0 0 256 256">
    <path d="M200,64V168a8,8,0,0,1-16,0V83.31L69.66,197.66a8,8,0,0,1-11.32-11.32L172.69,72H88a8,8,0,0,1,0-16H192A8,8,0,0,1,200,64Z"/>
  </symbol>
  <symbol id="article-bold" viewBox="0 0 256 256">
    <path d="M216,36H40A20,20,0,0,0,20,56V200a20,20,0,0,0,20,20H216a20,20,0,0,0,20-20V56A20,20,0,0,0,216,36Zm-4,160H44V60H212ZM68,92A12,12,0,0,1,80,80h96a12,12,0,0,1,0,24H80A12,12,0,0,1,68,92Zm0,36a12,12,0,0,1,12-12h96a12,12,0,0,1,0,24H80A12,12,0,0,1,68,128Zm0,36a12,12,0,0,1,12-12h96a12,12,0,0,1,0,24H80A12,12,0,0,1,68,164Z"/>
  </symbol>
  <symbol id="article-fill" viewBox="0 0 256 256">
    <path d="M216,40H40A16,16,0,0,0,24,56V200a16,16,0,0,0,16,16H216a16,16,0,0,0,16-16V56A16,16,0,0,0,216,40ZM176,168H80a8,8,0,0,1,0-16h96a8,8,0,0,1,0,16Zm0-32H80a8,8,0,0,1,0-16h96a8,8,0,0,1,0,16Zm0-32H80a8,8,0,0,1,0-16h96a8,8,0,0,1,0,16Z"/>
  </symbol>
  <symbol id="article" viewBox="0 0 256 256">
    <path d="M216,40H40A16,16,0,0,0,24,56V200a16,16,0,0,0,16,16H216a16,16,0,0,0,16-16V56A16,16,0,0,0,216,40Zm0,160H40V56H216V200ZM184,96a8,8,0,0,1-8,8H80a8,8,0,0,1,0-16h96A8,8,0,0,1,184,96Zm0,32a8,8,0,0,1-8,8H80a8,8,0,0,1,0-16h96A8,8,0,0,1,184,128Zm0,32a8,8,0,0,1-8,8H80a8,8,0,0,1,0-16h96A8,8,0,0,1,184,160Z"/>
  </symbol>
  <symbol id="bezier-curve-bold" viewBox="0 0 256 256">
    <rect width="256" height="256" fill="none"/><line x1="16" y1="80" x2="104" y2="80" fill="none" stroke="currentColor" stroke-linecap="round" stroke-linejoin="round" stroke-width="24"/><line x1="152" y1="80" x2="240" y2="80" fill="none" stroke="currentColor" stroke-linecap="round" stroke-linejoin="round" stroke-width="24"/><circle cx="128" cy="80" r="24" fill="none" stroke="currentColor" stroke-linecap="round" stroke-linejoin="round" stroke-width="24"/><circle cx="40" cy="176" r="24" fill="none" stroke="currentColor" stroke-linecap="round" stroke-linejoin="round" stroke-width="24"/><circle cx="216" cy="176" r="24" fill="none" stroke="currentColor" stroke-linecap="round" stroke-linejoin="round" stroke-width="24"/><path d="M151.78,83.25a88.12,88.12,0,0,1,62.78,68.8" fill="none" stroke="currentColor" stroke-linecap="round" stroke-linejoin="round" stroke-width="24"/><path d="M41.44,152.05a88.13,88.13,0,0,1,62.78-68.8" fill="none" stroke="currentColor" stroke-linecap="round" stroke-linejoin="round" stroke-width="24"/>
  </symbol>
  <symbol id="bezier-curve" viewBox="0 0 256 256">
    <rect width="256" height="256" fill="none"/><line x1="16" y1="80" x2="104" y2="80" fill="none" stroke="currentColor" stroke-linecap="round" stroke-linejoin="round" stroke-width="16"/><line x1="152" y1="80" x2="240" y2="80" fill="none" stroke="currentColor" stroke-linecap="round" stroke-linejoin="round" stroke-width="16"/><circle cx="128" cy="80" r="24" fill="none" stroke="currentColor" stroke-linecap="round" stroke-linejoin="round" stroke-width="16"/><circle cx="40" cy="176" r="24" fill="none" stroke="currentColor" stroke-linecap="round" stroke-linejoin="round" stroke-width="16"/><circle cx="216" cy="176" r="24" fill="none" stroke="currentColor" stroke-linecap="round" stroke-linejoin="round" stroke-width="16"/><path d="M151.78,83.25a88.12,88.12,0,0,1,62.78,68.8" fill="none" stroke="currentColor" stroke-linecap="round" stroke-linejoin="round" stroke-width="16"/><path d="M41.44,152.05a88.13,88.13,0,0,1,62.78-68.8" fill="none" stroke="currentColor" stroke-linecap="round" stroke-linejoin="round" stroke-width="16"/>
  </symbol>
  <symbol id="book-open-fill" viewBox="0 0 256 256">
    <rect width="256" height="256" fill="none"/><path d="M240,56V200a8,8,0,0,1-8,8H160a24,24,0,0,0-24,23.94,7.9,7.9,0,0,1-5.12,7.55A8,8,0,0,1,120,232a24,24,0,0,0-24-24H24a8,8,0,0,1-8-8V56a8,8,0,0,1,8-8H88a32,32,0,0,1,32,32v87.73a8.17,8.17,0,0,0,7.47,8.25,8,8,0,0,0,8.53-8V80a32,32,0,0,1,32-32h64A8,8,0,0,1,240,56Z"/>
  </symbol>
  <symbol id="books-fill" viewBox="0 0 256 256">
    <path d="M231.65,194.55,198.46,36.75a16,16,0,0,0-19-12.39L132.65,34.42a16.08,16.08,0,0,0-12.3,19l33.19,157.8A16,16,0,0,0,169.16,224a16.25,16.25,0,0,0,3.38-.36l46.81-10.06A16.09,16.09,0,0,0,231.65,194.55ZM136,50.15c0-.06,0-.09,0-.09l46.8-10,3.33,15.87L139.33,66Zm10,47.38-3.35-15.9,46.82-10.06,3.34,15.9Zm70,100.41-46.8,10-3.33-15.87L212.67,182,216,197.85C216,197.91,216,197.94,216,197.94ZM104,32H56A16,16,0,0,0,40,48V208a16,16,0,0,0,16,16h48a16,16,0,0,0,16-16V48A16,16,0,0,0,104,32ZM56,48h48V64H56Zm48,160H56V192h48v16Z"/>
  </symbol>
  <symbol id="books" viewBox="0 0 256 256">
    <path d="M231.65,194.55,198.46,36.75a16,16,0,0,0-19-12.39L132.65,34.42a16.08,16.08,0,0,0-12.3,19l33.19,157.8A16,16,0,0,0,169.16,224a16.25,16.25,0,0,0,3.38-.36l46.81-10.06A16.09,16.09,0,0,0,231.65,194.55ZM136,50.15c0-.06,0-.09,0-.09l46.8-10,3.33,15.87L139.33,66Zm6.62,31.47,46.82-10.05,3.34,15.9L146,97.53Zm6.64,31.57,46.82-10.06,13.3,63.24-46.82,10.06ZM216,197.94l-46.8,10-3.33-15.87L212.67,182,216,197.85C216,197.91,216,197.94,216,197.94ZM104,32H56A16,16,0,0,0,40,48V208a16,16,0,0,0,16,16h48a16,16,0,0,0,16-16V48A16,16,0,0,0,104,32ZM56,48h48V64H56Zm0,32h48v96H56Zm48,128H56V192h48v16Z"/>
  </symbol>
  <symbol id="camera-bold" viewBox="0 0 256 256">
    <rect width="256" height="256" fill="none"/><path d="M208,208H48a16,16,0,0,1-16-16V80A16,16,0,0,1,48,64H80L96,40h64l16,24h32a16,16,0,0,1,16,16V192A16,16,0,0,1,208,208Z" fill="none" stroke="currentColor" stroke-linecap="round" stroke-linejoin="round" stroke-width="24"/><circle cx="128" cy="132" r="36" fill="none" stroke="currentColor" stroke-linecap="round" stroke-linejoin="round" stroke-width="24"/>
  </symbol>
  <symbol id="camera" viewBox="0 0 256 256">
    <rect width="256" height="256" fill="none"/><path d="M208,208H48a16,16,0,0,1-16-16V80A16,16,0,0,1,48,64H80L96,40h64l16,24h32a16,16,0,0,1,16,16V192A16,16,0,0,1,208,208Z" fill="none" stroke="currentColor" stroke-linecap="round" stroke-linejoin="round" stroke-width="16"/><circle cx="128" cy="132" r="36" fill="none" stroke="currentColor" stroke-linecap="round" stroke-linejoin="round" stroke-width="16"/>
  </symbol>
  <symbol id="caret-down-bold" viewBox="0 0 256 256">
    <path d="M216.49,104.49l-80,80a12,12,0,0,1-17,0l-80-80a12,12,0,0,1,17-17L128,159l71.51-71.52a12,12,0,0,1,17,17Z"/>
  </symbol>
  <symbol id="caret-down" viewBox="0 0 256 256">
    <path d="M213.66,101.66l-80,80a8,8,0,0,1-11.32,0l-80-80A8,8,0,0,1,53.66,90.34L128,164.69l74.34-74.35a8,8,0,0,1,11.32,11.32Z"/>
  </symbol>
  <symbol id="caret-left-bold" viewBox="0 0 256 256">
    <rect width="256" height="256" fill="none"/><polyline points="160 208 80 128 160 48" fill="none" stroke="currentColor" stroke-linecap="round" stroke-linejoin="round" stroke-width="24"/>
  </symbol>
  <symbol id="caret-right-bold" viewBox="0 0 256 256">
    <rect width="256" height="256" fill="none"/><polyline points="96 48 176 128 96 208" fill="none" stroke="currentColor" stroke-linecap="round" stroke-linejoin="round" stroke-width="24"/>
  </symbol>
  <symbol id="caret-right" viewBox="0 0 256 256">
    <rect width="256" height="256" fill="none"/><polyline points="96 48 176 128 96 208" fill="none" stroke="currentColor" stroke-linecap="round" stroke-linejoin="round" stroke-width="16"/>
  </symbol>
  <symbol id="chart-pie-bold" viewBox="0 0 256 256">
    <rect width="256" height="256" fill="none"/><circle cx="128" cy="128" r="96" fill="none" stroke="currentColor" stroke-linecap="round" stroke-linejoin="round" stroke-width="24"/><line x1="128" y1="128" x2="128" y2="32" fill="none" stroke="currentColor" stroke-linecap="round" stroke-linejoin="round" stroke-width="24"/><line x1="211.14" y1="80" x2="44.86" y2="176" fill="none" stroke="currentColor" stroke-linecap="round" stroke-linejoin="round" stroke-width="24"/>
  </symbol>
  <symbol id="chart-pie-fill" viewBox="0 0 256 256">
    <rect width="256" height="256" fill="none"/><path d="M128,24A104,104,0,1,0,232,128,104.11,104.11,0,0,0,128,24Zm0,16a88,88,0,0,1,71.87,37.27L128,118.76Zm0,176a88,88,0,0,1-71.87-37.27L207.89,91.12A88,88,0,0,1,128,216Z"/>
  </symbol>
  <symbol id="chart-pie" viewBox="0 0 256 256">
    <rect width="256" height="256" fill="none"/><circle cx="128" cy="128" r="96" fill="none" stroke="currentColor" stroke-linecap="round" stroke-linejoin="round" stroke-width="16"/><line x1="128" y1="128" x2="128" y2="32" fill="none" stroke="currentColor" stroke-linecap="round" stroke-linejoin="round" stroke-width="16"/><line x1="211.14" y1="80" x2="44.86" y2="176" fill="none" stroke="currentColor" stroke-linecap="round" stroke-linejoin="round" stroke-width="16"/>
  </symbol>
  <symbol id="check-circle-fill" viewBox="0 0 256 256">
    <rect width="256" height="256" fill="none"/><path d="M128,24A104,104,0,1,0,232,128,104.11,104.11,0,0,0,128,24Zm45.66,85.66-56,56a8,8,0,0,1-11.32,0l-24-24a8,8,0,0,1,11.32-11.32L112,148.69l50.34-50.35a8,8,0,0,1,11.32,11.32Z"/>
  </symbol>
  <symbol id="clock-countdown-fill" viewBox="0 0 256 256">
    <path d="M208,96a12,12,0,1,1,12,12A12,12,0,0,1,208,96ZM196,72a12,12,0,1,0-12-12A12,12,0,0,0,196,72Zm28.66,56a8,8,0,0,0-8.63,7.31A88.12,88.12,0,1,1,120.66,40,8,8,0,0,0,119.34,24,104.12,104.12,0,1,0,232,136.66,8,8,0,0,0,224.66,128ZM128,56a72,72,0,1,1-72,72A72.08,72.08,0,0,1,128,56Zm-8,72a8,8,0,0,0,8,8h48a8,8,0,0,0,0-16H136V80a8,8,0,0,0-16,0Zm40-80a12,12,0,1,0-12-12A12,12,0,0,0,160,48Z"/>
  </symbol>
  <symbol id="clock-countdown" viewBox="0 0 256 256">
    <path d="M232,136.66A104.12,104.12,0,1,1,119.34,24,8,8,0,0,1,120.66,40,88.12,88.12,0,1,0,216,135.34,8,8,0,0,1,232,136.66ZM120,72v56a8,8,0,0,0,8,8h56a8,8,0,0,0,0-16H136V72a8,8,0,0,0-16,0Zm40-24a12,12,0,1,0-12-12A12,12,0,0,0,160,48Zm36,24a12,12,0,1,0-12-12A12,12,0,0,0,196,72Zm24,36a12,12,0,1,0-12-12A12,12,0,0,0,220,108Z"/>
  </symbol>
  <symbol id="cloud-arrow-up-fill" viewBox="0 0 256 256">
    <path d="M247.93,124.52C246.11,77.54,207.07,40,160.06,40A88.1,88.1,0,0,0,81.29,88.67h0A87.48,87.48,0,0,0,72,127.73,8.18,8.18,0,0,1,64.57,136,8,8,0,0,1,56,128a103.66,103.66,0,0,1,5.34-32.92,4,4,0,0,0-4.75-5.18A64.09,64.09,0,0,0,8,152c0,35.19,29.75,64,65,64H160A88.09,88.09,0,0,0,247.93,124.52Zm-50.27,9.14a8,8,0,0,1-11.32,0L168,115.31V176a8,8,0,0,1-16,0V115.31l-18.34,18.35a8,8,0,0,1-11.32-11.32l32-32a8,8,0,0,1,11.32,0l32,32A8,8,0,0,1,197.66,133.66Z"/>
  </symbol>
  <symbol id="cloud-arrow-up" viewBox="0 0 256 256">
    <path d="M178.34,165.66,160,147.31V208a8,8,0,0,1-16,0V147.31l-18.34,18.35a8,8,0,0,1-11.32-11.32l32-32a8,8,0,0,1,11.32,0l32,32a8,8,0,0,1-11.32,11.32ZM160,40A88.08,88.08,0,0,0,81.29,88.68,64,64,0,1,0,72,216h40a8,8,0,0,0,0-16H72a48,48,0,0,1,0-96c1.1,0,2.2,0,3.29.12A88,88,0,0,0,72,128a8,8,0,0,0,16,0,72,72,0,1,1,100.8,66,8,8,0,0,0,3.2,15.34,7.9,7.9,0,0,0,3.2-.68A88,88,0,0,0,160,40Z"/>
  </symbol>
  <symbol id="database-bold" viewBox="0 0 256 256">
    <rect width="256" height="256" fill="none"/><ellipse cx="128" cy="80" rx="88" ry="48" fill="none" stroke="currentColor" stroke-linecap="round" stroke-linejoin="round" stroke-width="24"/><path d="M40,80v48c0,26.51,39.4,48,88,48s88-21.49,88-48V80" fill="none" stroke="currentColor" stroke-linecap="round" stroke-linejoin="round" stroke-width="24"/><path d="M40,128v48c0,26.51,39.4,48,88,48s88-21.49,88-48V128" fill="none" stroke="currentColor" stroke-linecap="round" stroke-linejoin="round" stroke-width="24"/>
  </symbol>
  <symbol id="database-fill" viewBox="0 0 256 256">
    <rect width="256" height="256" fill="none"/><path d="M128,24C74.17,24,32,48.6,32,80v96c0,31.4,42.17,56,96,56s96-24.6,96-56V80C224,48.6,181.83,24,128,24Zm80,104c0,9.62-7.88,19.43-21.61,26.92C170.93,163.35,150.19,168,128,168s-42.93-4.65-58.39-13.08C55.88,147.43,48,137.62,48,128V111.36c17.06,15,46.23,24.64,80,24.64s62.94-9.68,80-24.64Zm-21.61,74.92C170.93,211.35,150.19,216,128,216s-42.93-4.65-58.39-13.08C55.88,195.43,48,185.62,48,176V159.36c17.06,15,46.23,24.64,80,24.64s62.94-9.68,80-24.64V176C208,185.62,200.12,195.43,186.39,202.92Z"/>
  </symbol>
  <symbol id="database" viewBox="0 0 256 256">
    <rect width="256" height="256" fill="none"/><ellipse cx="128" cy="80" rx="88" ry="48" fill="none" stroke="currentColor" stroke-linecap="round" stroke-linejoin="round" stroke-width="16"/><path d="M40,80v48c0,26.51,39.4,48,88,48s88-21.49,88-48V80" fill="none" stroke="currentColor" stroke-linecap="round" stroke-linejoin="round" stroke-width="16"/><path d="M40,128v48c0,26.51,39.4,48,88,48s88-21.49,88-48V128" fill="none" stroke="currentColor" stroke-linecap="round" stroke-linejoin="round" stroke-width="16"/>
  </symbol>
  <symbol id="download-simple-bold" viewBox="0 0 256 256">
    <rect width="256" height="256" fill="none"/><line x1="128" y1="144" x2="128" y2="32" fill="none" stroke="currentColor" stroke-linecap="round" stroke-linejoin="round" stroke-width="24"/><polyline points="216 144 216 208 40 208 40 144" fill="none" stroke="currentColor" stroke-linecap="round" stroke-linejoin="round" stroke-width="24"/><polyline points="168 104 128 144 88 104" fill="none" stroke="currentColor" stroke-linecap="round" stroke-linejoin="round" stroke-width="24"/>
  </symbol>
  <symbol id="download-simple" viewBox="0 0 256 256">
    <rect width="256" height="256" fill="none"/><line x1="128" y1="144" x2="128" y2="32" fill="none" stroke="currentColor" stroke-linecap="round" stroke-linejoin="round" stroke-width="16"/><polyline points="216 144 216 208 40 208 40 144" fill="none" stroke="currentColor" stroke-linecap="round" stroke-linejoin="round" stroke-width="16"/><polyline points="168 104 128 144 88 104" fill="none" stroke="currentColor" stroke-linecap="round" stroke-linejoin="round" stroke-width="16"/>
  </symbol>
  <symbol id="envelope-simple-fill" viewBox="0 0 256 256">
    <rect width="256" height="256" fill="none"/><path d="M224,48H32a8,8,0,0,0-8,8V192a16,16,0,0,0,16,16H216a16,16,0,0,0,16-16V56A8,8,0,0,0,224,48Zm-8,144H40V74.19l82.59,75.71a8,8,0,0,0,10.82,0L216,74.19V192Z"/>
  </symbol>
  <symbol id="facebook-logo-fill" viewBox="0 0 256 256">
    <rect width="256" height="256" fill="none"/><path d="M232,128a104.16,104.16,0,0,1-91.55,103.26,4,4,0,0,1-4.45-4V152h24a8,8,0,0,0,8-8.53,8.17,8.17,0,0,0-8.25-7.47H136V112a16,16,0,0,1,16-16h16a8,8,0,0,0,8-8.53A8.17,8.17,0,0,0,167.73,80H152a32,32,0,0,0-32,32v24H96a8,8,0,0,0-8,8.53A8.17,8.17,0,0,0,96.27,152H120v75.28a4,4,0,0,1-4.44,4A104.15,104.15,0,0,1,24.07,124.09c2-54,45.74-97.9,99.78-100A104.12,104.12,0,0,1,232,128Z"/>
  </symbol>
  <symbol id="facebook-logo" viewBox="0 0 256 256">
    <rect width="256" height="256" fill="none"/><circle cx="128" cy="128" r="96" fill="none" stroke="currentColor" stroke-linecap="round" stroke-linejoin="round" stroke-width="16"/><path d="M168,88H152a24,24,0,0,0-24,24V224" fill="none" stroke="currentColor" stroke-linecap="round" stroke-linejoin="round" stroke-width="16"/><line x1="96" y1="144" x2="160" y2="144" fill="none" stroke="currentColor" stroke-linecap="round" stroke-linejoin="round" stroke-width="16"/>
  </symbol>
  <symbol id="faders-horizontal-bold" viewBox="0 0 256 256">
    <path d="M176,80a12,12,0,0,1,12-12h28a12,12,0,0,1,0,24H188A12,12,0,0,1,176,80ZM40,92h96v12a12,12,0,0,0,24,0V56a12,12,0,0,0-24,0V68H40a12,12,0,0,0,0,24Zm176,72H124a12,12,0,0,0,0,24h92a12,12,0,0,0,0-24ZM84,140a12,12,0,0,0-12,12v12H40a12,12,0,0,0,0,24H72v12a12,12,0,0,0,24,0V152A12,12,0,0,0,84,140Z"/>
  </symbol>
  <symbol id="faders-horizontal" viewBox="0 0 256 256">
    <path d="M176,80a8,8,0,0,1,8-8h32a8,8,0,0,1,0,16H184A8,8,0,0,1,176,80ZM40,88H144v16a8,8,0,0,0,16,0V56a8,8,0,0,0-16,0V72H40a8,8,0,0,0,0,16Zm176,80H120a8,8,0,0,0,0,16h96a8,8,0,0,0,0-16ZM88,144a8,8,0,0,0-8,8v16H40a8,8,0,0,0,0,16H80v16a8,8,0,0,0,16,0V152A8,8,0,0,0,88,144Z"/>
  </symbol>
  <symbol id="fingerprint-bold" viewBox="0 0 256 256">
    <rect width="256" height="256" fill="none"/><path d="M108,128a20,20,0,0,1,40,0,211.13,211.13,0,0,1-25,99.88" fill="none" stroke="currentColor" stroke-linecap="round" stroke-linejoin="round" stroke-width="24"/><path d="M128,68a60,60,0,0,1,60,60q0,12.13-1.12,24" fill="none" stroke="currentColor" stroke-linecap="round" stroke-linejoin="round" stroke-width="24"/><path d="M51.35,192.22A131.39,131.39,0,0,0,68,128,59.85,59.85,0,0,1,88,83.29" fill="none" stroke="currentColor" stroke-linecap="round" stroke-linejoin="round" stroke-width="24"/><path d="M103.32,168A171,171,0,0,1,83,217.33" fill="none" stroke="currentColor" stroke-linecap="round" stroke-linejoin="round" stroke-width="24"/><path d="M179.8,192a250.79,250.79,0,0,1-8.4,26.12" fill="none" stroke="currentColor" stroke-linecap="round" stroke-linejoin="round" stroke-width="24"/><path d="M22.28,160A92,92,0,0,0,28,128h0a100,100,0,0,1,200,0h0a293.41,293.41,0,0,1-7,64" fill="none" stroke="currentColor" stroke-linecap="round" stroke-linejoin="round" stroke-width="24"/>
  </symbol>
  <symbol id="fingerprint-fill" viewBox="0 0 256 256">
    <rect width="256" height="256" fill="none"/><path d="M126.42,24C70.73,24.85,25.21,70.09,24,125.81a103.53,103.53,0,0,0,13.52,53.54,4,4,0,0,0,7.1-.3,119.35,119.35,0,0,0,11.37-51A71.77,71.77,0,0,1,83,71.83a8,8,0,1,1,9.86,12.61A55.82,55.82,0,0,0,72,128.07a135.28,135.28,0,0,1-18.45,68.35,4,4,0,0,0,.61,4.85c2,2,4.09,4,6.25,5.82a4,4,0,0,0,6-1A151.18,151.18,0,0,0,85,158.49a8,8,0,1,1,15.68,3.19,167.33,167.33,0,0,1-21.07,53.64,4,4,0,0,0,1.6,5.63c2.47,1.25,5,2.41,7.57,3.47a4,4,0,0,0,5-1.61A183,183,0,0,0,120,128.28a8.16,8.16,0,0,1,7.44-8.21,8,8,0,0,1,8.56,8,198.94,198.94,0,0,1-25.21,97.16,4,4,0,0,0,2.95,5.92q4.55.63,9.21.86a4,4,0,0,0,3.67-2.1A214.88,214.88,0,0,0,152,128.8c.05-13.25-10.3-24.49-23.54-24.74A24,24,0,0,0,104,128a8.1,8.1,0,0,1-7.29,8,8,8,0,0,1-8.71-8,40,40,0,0,1,40.42-40c22,.23,39.68,19.17,39.57,41.16a231.37,231.37,0,0,1-20.52,94.57,4,4,0,0,0,4.62,5.51,103.49,103.49,0,0,0,10.26-3,4,4,0,0,0,2.35-2.22,243.76,243.76,0,0,0,11.48-34,8,8,0,1,1,15.5,4q-1.12,4.37-2.4,8.7a4,4,0,0,0,6.46,4.17A104,104,0,0,0,126.42,24ZM198,161.08a8,8,0,0,1-7.92,7,8.39,8.39,0,0,1-1-.06,8,8,0,0,1-6.95-8.93,252.57,252.57,0,0,0,1.92-31,56.08,56.08,0,0,0-56-56,56.78,56.78,0,0,0-7,.43,8,8,0,0,1-2-15.89,72.1,72.1,0,0,1,81,71.49A266.93,266.93,0,0,1,198,161.08Z"/>
  </symbol>
  <symbol id="fingerprint" viewBox="0 0 256 256">
    <rect width="256" height="256" fill="none"/><path d="M50.69,184.92A127.52,127.52,0,0,0,64,128a63.85,63.85,0,0,1,24-50" fill="none" stroke="currentColor" stroke-linecap="round" stroke-linejoin="round" stroke-width="16"/><path d="M128,128a191.11,191.11,0,0,1-24,93" fill="none" stroke="currentColor" stroke-linecap="round" stroke-linejoin="round" stroke-width="16"/><path d="M96,128a32,32,0,0,1,64,0,223.12,223.12,0,0,1-21.28,95.41" fill="none" stroke="currentColor" stroke-linecap="round" stroke-linejoin="round" stroke-width="16"/><path d="M218.56,184A289.45,289.45,0,0,0,224,128a96,96,0,0,0-192,0,95.8,95.8,0,0,1-5.47,32" fill="none" stroke="currentColor" stroke-linecap="round" stroke-linejoin="round" stroke-width="16"/><path d="M92.81,160a158.92,158.92,0,0,1-18.12,47.84" fill="none" stroke="currentColor" stroke-linecap="round" stroke-linejoin="round" stroke-width="16"/><path d="M120,64.5a66,66,0,0,1,8-.49,64,64,0,0,1,64,64,259.86,259.86,0,0,1-2,32" fill="none" stroke="currentColor" stroke-linecap="round" stroke-linejoin="round" stroke-width="16"/><path d="M183.94,192q-2.28,8.88-5.18,17.5" fill="none" stroke="currentColor" stroke-linecap="round" stroke-linejoin="round" stroke-width="16"/>
  </symbol>
  <symbol id="flask-bold" viewBox="0 0 256 256">
    <rect width="256" height="256" fill="none"/><line x1="88" y1="32" x2="168" y2="32" fill="none" stroke="currentColor" stroke-linecap="round" stroke-linejoin="round" stroke-width="24"/><path d="M152,32V99.14l62.85,104.74A8,8,0,0,1,208,216H48a8,8,0,0,1-6.86-12.12L104,99.14V32" fill="none" stroke="currentColor" stroke-linecap="round" stroke-linejoin="round" stroke-width="24"/><path d="M71.63,153.08c13.23-2.48,32-1.41,56.37,10.92,32.25,16.33,54.75,12.91,67.5,7.65" fill="none" stroke="currentColor" stroke-linecap="round" stroke-linejoin="round" stroke-width="24"/>
  </symbol>
  <symbol id="flask-fill" viewBox="0 0 256 256">
    <rect width="256" height="256" fill="none"/><path d="M221.69,199.77,160,96.92V40h8a8,8,0,0,0,0-16H88a8,8,0,0,0,0,16h8V96.92L34.31,199.77A16,16,0,0,0,48,224H208a16,16,0,0,0,13.72-24.23Zm-90.08-42.91c-15.91-8.05-31.05-12.32-45.22-12.81l24.47-40.8A7.93,7.93,0,0,0,112,99.14V40h32V99.14a7.93,7.93,0,0,0,1.14,4.11L183.36,167C171.4,169.34,154.29,168.34,131.61,156.86Z"/>
  </symbol>
  <symbol id="flask" viewBox="0 0 256 256">
    <rect width="256" height="256" fill="none"/><line x1="88" y1="32" x2="168" y2="32" fill="none" stroke="currentColor" stroke-linecap="round" stroke-linejoin="round" stroke-width="16"/><path d="M152,32V99.14l62.85,104.74A8,8,0,0,1,208,216H48a8,8,0,0,1-6.86-12.12L104,99.14V32" fill="none" stroke="currentColor" stroke-linecap="round" stroke-linejoin="round" stroke-width="16"/><path d="M71.63,153.08c13.23-2.48,32-1.41,56.37,10.92,32.25,16.33,54.75,12.91,67.5,7.65" fill="none" stroke="currentColor" stroke-linecap="round" stroke-linejoin="round" stroke-width="16"/>
  </symbol>
  <symbol id="flower-lotus-bold" viewBox="0 0 256 256">
    <rect width="256" height="256" fill="none"/><path d="M128,200s40-22,40-80.82c0-46-24.55-69.54-35.19-77.56a8,8,0,0,0-9.62,0C112.55,49.64,88,73.14,88,119.18,88,178,128,200,128,200Z" fill="none" stroke="currentColor" stroke-linecap="round" stroke-linejoin="round" stroke-width="24"/><path d="M94.6,80.8C81.28,70,68.56,65.79,61,64.18a8.2,8.2,0,0,0-9.52,5.52c-3.88,12-8.78,39.66,11.11,74.27s53.07,53.4,65.37,56" fill="none" stroke="currentColor" stroke-linecap="round" stroke-linejoin="round" stroke-width="24"/><path d="M161.4,80.8c13.32-10.82,26-15,33.56-16.62a8.2,8.2,0,0,1,9.52,5.52c3.88,12,8.78,39.66-11.11,74.27S140.3,197.37,128,200" fill="none" stroke="currentColor" stroke-linecap="round" stroke-linejoin="round" stroke-width="24"/><path d="M128,200c15.37,0,40.77-.18,70-17.64s38.69-39.34,41.72-50.54a7.94,7.94,0,0,0-5.46-9.78,69.59,69.59,0,0,0-30.82-.64" fill="none" stroke="currentColor" stroke-linecap="round" stroke-linejoin="round" stroke-width="24"/><path d="M52.56,121.4a69.59,69.59,0,0,0-30.82.64,7.94,7.94,0,0,0-5.46,9.78c3,11.2,12.49,33.07,41.72,50.54S112.63,200,128,200" fill="none" stroke="currentColor" stroke-linecap="round" stroke-linejoin="round" stroke-width="24"/>
  </symbol>
  <symbol id="flower-lotus" viewBox="0 0 256 256">
    <rect width="256" height="256" fill="none"/><path d="M128,200s40-22,40-80.82c0-46-24.55-69.54-35.19-77.56a8,8,0,0,0-9.62,0C112.55,49.64,88,73.14,88,119.18,88,178,128,200,128,200Z" fill="none" stroke="currentColor" stroke-linecap="round" stroke-linejoin="round" stroke-width="16"/><path d="M94.6,80.8C81.28,70,68.56,65.79,61,64.18a8.2,8.2,0,0,0-9.52,5.52c-3.88,12-8.78,39.66,11.11,74.27s53.07,53.4,65.37,56" fill="none" stroke="currentColor" stroke-linecap="round" stroke-linejoin="round" stroke-width="16"/><path d="M161.4,80.8c13.32-10.82,26-15,33.56-16.62a8.2,8.2,0,0,1,9.52,5.52c3.88,12,8.78,39.66-11.11,74.27S140.3,197.37,128,200" fill="none" stroke="currentColor" stroke-linecap="round" stroke-linejoin="round" stroke-width="16"/><path d="M128,200c15.37,0,40.77-.18,70-17.64s38.69-39.34,41.72-50.54a7.94,7.94,0,0,0-5.46-9.78,69.59,69.59,0,0,0-30.82-.64" fill="none" stroke="currentColor" stroke-linecap="round" stroke-linejoin="round" stroke-width="16"/><path d="M52.56,121.4a69.59,69.59,0,0,0-30.82.64,7.94,7.94,0,0,0-5.46,9.78c3,11.2,12.49,33.07,41.72,50.54S112.63,200,128,200" fill="none" stroke="currentColor" stroke-linecap="round" stroke-linejoin="round" stroke-width="16"/>
  </symbol>
  <symbol id="globe-fill" viewBox="0 0 256 256">
    <rect width="256" height="256" fill="none"/><path d="M128,24h0A104,104,0,1,0,232,128,104.12,104.12,0,0,0,128,24Zm78.36,64H170.71a135.28,135.28,0,0,0-22.3-45.6A88.29,88.29,0,0,1,206.37,88ZM216,128a87.61,87.61,0,0,1-3.33,24H174.16a157.44,157.44,0,0,0,0-48h38.51A87.61,87.61,0,0,1,216,128ZM128,43a115.27,115.27,0,0,1,26,45H102A115.11,115.11,0,0,1,128,43ZM102,168H154a115.11,115.11,0,0,1-26,45A115.27,115.27,0,0,1,102,168Zm-3.9-16a140.84,140.84,0,0,1,0-48h59.88a140.84,140.84,0,0,1,0,48Zm50.35,61.6a135.28,135.28,0,0,0,22.3-45.6h35.66A88.29,88.29,0,0,1,148.41,213.6Z"/>
  </symbol>
  <symbol id="globe-hemisphere-east-bold" viewBox="0 0 256 256">
    <path d="M128,20A108,108,0,1,0,236,128,108.12,108.12,0,0,0,128,20Zm0,24a83.57,83.57,0,0,1,44,12.48v16L151.79,96l-28.47,3.85L104.62,87.6a20,20,0,0,0-28.07,5.28l-20.94,31.3a19.89,19.89,0,0,0-3.38,11l-.16,28.69A84,84,0,0,1,128,44ZM68.41,187.14A20,20,0,0,0,76,171.55l.2-35,18.07-27,16.62,10.88a19.92,19.92,0,0,0,14.14,3.42l31.47-4.26A20,20,0,0,0,169,112.79L191.16,87a20.15,20.15,0,0,0,4.39-8.9,83.78,83.78,0,0,1,14.12,69.48l-11.34-10.37a20.08,20.08,0,0,0-21.17-3.71l-30.45,12.66a20.1,20.1,0,0,0-12.11,15.55l-2.39,16.2a20,20,0,0,0,14.71,22.26l16,4.18a83.78,83.78,0,0,1-94.47-17.24Zm116.77,2.32-1.63-1.63a20.05,20.05,0,0,0-9.08-5.22l-18-4.72L158,167.48l26-10.81L200,171.26A84.84,84.84,0,0,1,185.18,189.46Z"/>
  </symbol>
  <symbol id="globe-hemisphere-east" viewBox="0 0 256 256">
    <path d="M128,24A104,104,0,1,0,232,128,104.11,104.11,0,0,0,128,24Zm0,16a87.5,87.5,0,0,1,48,14.28V74L153.83,99.74,122.36,104l-.31-.22L102.38,90.92A16,16,0,0,0,79.87,95.1L58.93,126.4a16,16,0,0,0-2.7,8.81L56,171.44l-3.27,2.15A88,88,0,0,1,128,40ZM62.29,186.47l2.52-1.65A16,16,0,0,0,72,171.53l.21-36.23L93.17,104a3.62,3.62,0,0,0,.32.22l19.67,12.87a15.94,15.94,0,0,0,11.35,2.77L156,115.59a16,16,0,0,0,10-5.41l22.17-25.76A16,16,0,0,0,192,74V67.67A87.87,87.87,0,0,1,211.77,155l-16.14-14.76a16,16,0,0,0-16.93-3l-30.46,12.65a16.08,16.08,0,0,0-9.68,12.45l-2.39,16.19a16,16,0,0,0,11.77,17.81L169.4,202l2.36,2.37A87.88,87.88,0,0,1,62.29,186.47ZM185,195l-4.3-4.31a16,16,0,0,0-7.26-4.18L152,180.85l2.39-16.19L184.84,152,205,170.48A88.43,88.43,0,0,1,185,195Z"/>
  </symbol>
  <symbol id="identification-badge-fill" viewBox="0 0 256 256">
    <rect width="256" height="256" fill="none"/><path d="M200,24H56A16,16,0,0,0,40,40V216a16,16,0,0,0,16,16H200a16,16,0,0,0,16-16V40A16,16,0,0,0,200,24ZM96,48h64a8,8,0,0,1,0,16H96a8,8,0,0,1,0-16Zm84.81,150.4a8,8,0,0,1-11.21-1.6,52,52,0,0,0-83.2,0,8,8,0,1,1-12.8-9.6A67.88,67.88,0,0,1,101,165.51a40,40,0,1,1,53.94,0A67.88,67.88,0,0,1,182.4,187.2,8,8,0,0,1,180.81,198.4ZM152,136a24,24,0,1,1-24-24A24,24,0,0,1,152,136Z"/>
  </symbol>
  <symbol id="info-fill" viewBox="0 0 256 256">
    <path d="M128,24A104,104,0,1,0,232,128,104.11,104.11,0,0,0,128,24Zm-4,48a12,12,0,1,1-12,12A12,12,0,0,1,124,72Zm12,112a16,16,0,0,1-16-16V128a8,8,0,0,1,0-16,16,16,0,0,1,16,16v40a8,8,0,0,1,0,16Z"/>
  </symbol>
  <symbol id="info" viewBox="0 0 256 256">
    <path d="M128,24A104,104,0,1,0,232,128,104.11,104.11,0,0,0,128,24Zm0,192a88,88,0,1,1,88-88A88.1,88.1,0,0,1,128,216Zm16-40a8,8,0,0,1-8,8,16,16,0,0,1-16-16V128a8,8,0,0,1,0-16,16,16,0,0,1,16,16v40A8,8,0,0,1,144,176ZM112,84a12,12,0,1,1,12,12A12,12,0,0,1,112,84Z"/>
  </symbol>
  <symbol id="instagram-logo-fill" viewBox="0 0 256 256">
    <rect width="256" height="256" fill="none"/><path d="M160,128a32,32,0,1,1-32-32A32,32,0,0,1,160,128Zm72-48v96a56.06,56.06,0,0,1-56,56H80a56.06,56.06,0,0,1-56-56V80A56.06,56.06,0,0,1,80,24h96A56.06,56.06,0,0,1,232,80Zm-56,48a48,48,0,1,0-48,48A48.05,48.05,0,0,0,176,128Zm24-60a12,12,0,1,0-12,12A12,12,0,0,0,200,68Z"/>
  </symbol>
  <symbol id="instagram-logo" viewBox="0 0 256 256">
    <rect width="256" height="256" fill="none"/><circle cx="128" cy="128" r="40" fill="none" stroke="currentColor" stroke-miterlimit="10" stroke-width="16"/><rect x="32" y="32" width="192" height="192" rx="48" fill="none" stroke="currentColor" stroke-linecap="round" stroke-linejoin="round" stroke-width="16"/><circle cx="180" cy="76" r="12"/>
  </symbol>
  <symbol id="intersect-bold" viewBox="0 0 256 256">
    <rect width="256" height="256" fill="none"/><circle cx="96" cy="96" r="72" fill="none" stroke="currentColor" stroke-linecap="round" stroke-linejoin="round" stroke-width="24"/><circle cx="160" cy="160" r="72" fill="none" stroke="currentColor" stroke-linecap="round" stroke-linejoin="round" stroke-width="24"/><line x1="109.09" y1="109.09" x2="146.91" y2="146.91" fill="none" stroke="currentColor" stroke-linecap="round" stroke-linejoin="round" stroke-width="24"/>
  </symbol>
  <symbol id="intersect-three-bold" viewBox="0 0 256 256">
    <path d="M200,93.66c0-.55,0-1.1,0-1.66A72,72,0,0,0,56,92c0,.56,0,1.11,0,1.66a72,72,0,1,0,72,124.65A72,72,0,1,0,200,93.66Zm-41.28,35.22A71.73,71.73,0,0,0,148,110.77a47.69,47.69,0,0,1,25-1.92A48.21,48.21,0,0,1,158.68,128.88ZM128,187.7a47.81,47.81,0,0,1-11.47-24.62,72,72,0,0,0,22.94,0A47.81,47.81,0,0,1,128,187.7ZM83.06,108.85a47.69,47.69,0,0,1,25,1.92,71.73,71.73,0,0,0-10.72,18.11A48.21,48.21,0,0,1,83.06,108.85ZM128,140a47.88,47.88,0,0,1-8.94-.85A48,48,0,0,1,128,124.3a48,48,0,0,1,8.94,14.85A47.88,47.88,0,0,1,128,140Zm0-96a48.07,48.07,0,0,1,47.47,40.92A71.77,71.77,0,0,0,128,93.69a71.77,71.77,0,0,0-47.47-8.77A48.07,48.07,0,0,1,128,44ZM44,156a47.89,47.89,0,0,1,17.32-36.88A72.45,72.45,0,0,0,92,154.34c0,.55,0,1.1,0,1.66a71.64,71.64,0,0,0,16,45.23A48,48,0,0,1,44,156Zm120,48a47.67,47.67,0,0,1-16-2.77A71.64,71.64,0,0,0,164,156c0-.56,0-1.11,0-1.66a72.45,72.45,0,0,0,30.72-35.22A48,48,0,0,1,164,204Z"/>
  </symbol>
  <symbol id="intersect-three-fill" viewBox="0 0 256 256">
    <path d="M195.88,96c.07-1.31.12-2.63.12-4A68,68,0,0,0,60,92c0,1.33,0,2.65.12,4A68,68,0,1,0,128,213.65,68,68,0,1,0,195.88,96ZM128,193.47a51.89,51.89,0,0,1-16-35.38,67.55,67.55,0,0,0,31.9,0A51.89,51.89,0,0,1,128,193.47ZM99.23,135.29A52.19,52.19,0,0,1,77.92,106a51.88,51.88,0,0,1,36.79,3.28A68.17,68.17,0,0,0,99.23,135.29Zm42.06-26.06A51.88,51.88,0,0,1,178.08,106a52.19,52.19,0,0,1-21.31,29.34A68.17,68.17,0,0,0,141.29,109.23ZM128,40A52.06,52.06,0,0,1,180,89.91,67.72,67.72,0,0,0,128,98.35a67.72,67.72,0,0,0-51.95-8.44A52.06,52.06,0,0,1,128,40ZM40,156a52,52,0,0,1,23.23-43.29A68.36,68.36,0,0,0,96.12,152c-.07,1.31-.12,2.63-.12,4a67.74,67.74,0,0,0,18.71,46.77A52,52,0,0,1,40,156Zm124,52a51.65,51.65,0,0,1-22.71-5.23A67.74,67.74,0,0,0,160,156c0-1.33-.05-2.65-.12-4a68.36,68.36,0,0,0,32.89-39.33A52,52,0,0,1,164,208Z"/>
  </symbol>
  <symbol id="intersect-three" viewBox="0 0 256 256">
    <path d="M195.88,96c.07-1.31.12-2.63.12-4A68,68,0,0,0,60,92c0,1.33,0,2.65.12,4A68,68,0,1,0,128,213.65,68,68,0,1,0,195.88,96ZM128,193.47a51.89,51.89,0,0,1-16-35.38,67.55,67.55,0,0,0,31.9,0A51.89,51.89,0,0,1,128,193.47ZM128,144a51.93,51.93,0,0,1-14.08-1.95A52.06,52.06,0,0,1,128,118.53a52.06,52.06,0,0,1,14.08,23.52A51.93,51.93,0,0,1,128,144Zm-28.77-8.71A52.19,52.19,0,0,1,77.92,106a51.88,51.88,0,0,1,36.79,3.28A68.17,68.17,0,0,0,99.23,135.29Zm42.06-26.06A51.88,51.88,0,0,1,178.08,106a52.19,52.19,0,0,1-21.31,29.34A68.17,68.17,0,0,0,141.29,109.23ZM128,40A52.06,52.06,0,0,1,180,89.91,67.72,67.72,0,0,0,128,98.35a67.72,67.72,0,0,0-51.95-8.44A52.06,52.06,0,0,1,128,40ZM40,156a52,52,0,0,1,23.23-43.29A68.36,68.36,0,0,0,96.12,152c-.07,1.31-.12,2.63-.12,4a67.74,67.74,0,0,0,18.71,46.77A52,52,0,0,1,40,156Zm124,52a51.65,51.65,0,0,1-22.71-5.23A67.74,67.74,0,0,0,160,156c0-1.33-.05-2.65-.12-4a68.36,68.36,0,0,0,32.89-39.33A52,52,0,0,1,164,208Z"/>
  </symbol>
  <symbol id="leaf-bold" viewBox="0 0 256 256">
    <rect width="256" height="256" fill="none"/><path d="M63.81,192.19c-47.89-79.81,16-159.62,151.64-151.64C223.43,176.23,143.62,240.08,63.81,192.19Z" fill="none" stroke="currentColor" stroke-linecap="round" stroke-linejoin="round" stroke-width="24"/><line x1="160" y1="96" x2="40" y2="216" fill="none" stroke="currentColor" stroke-linecap="round" stroke-linejoin="round" stroke-width="24"/>
  </symbol>
  <symbol id="list-bold" viewBox="0 0 256 256">
    <rect width="256" height="256" fill="none"/><line x1="40" y1="128" x2="216" y2="128" fill="none" stroke="currentColor" stroke-linecap="round" stroke-linejoin="round" stroke-width="24"/><line x1="40" y1="64" x2="216" y2="64" fill="none" stroke="currentColor" stroke-linecap="round" stroke-linejoin="round" stroke-width="24"/><line x1="40" y1="192" x2="216" y2="192" fill="none" stroke="currentColor" stroke-linecap="round" stroke-linejoin="round" stroke-width="24"/>
  </symbol>
  <symbol id="list" viewBox="0 0 256 256">
    <rect width="256" height="256" fill="none"/><line x1="40" y1="128" x2="216" y2="128" fill="none" stroke="currentColor" stroke-linecap="round" stroke-linejoin="round" stroke-width="16"/><line x1="40" y1="64" x2="216" y2="64" fill="none" stroke="currentColor" stroke-linecap="round" stroke-linejoin="round" stroke-width="16"/><line x1="40" y1="192" x2="216" y2="192" fill="none" stroke="currentColor" stroke-linecap="round" stroke-linejoin="round" stroke-width="16"/>
  </symbol>
  <symbol id="magnifying-glass-fill" viewBox="0 0 256 256">
    <rect width="256" height="256" fill="none"/><path d="M168,112a56,56,0,1,1-56-56A56,56,0,0,1,168,112Zm61.66,117.66a8,8,0,0,1-11.32,0l-50.06-50.07a88,88,0,1,1,11.32-11.31l50.06,50.06A8,8,0,0,1,229.66,229.66ZM112,184a72,72,0,1,0-72-72A72.08,72.08,0,0,0,112,184Z"/>
  </symbol>
  <symbol id="map-pin-fill" viewBox="0 0 256 256">
    <rect width="256" height="256" fill="none"/><path d="M128,16a88.1,88.1,0,0,0-88,88c0,75.3,80,132.17,83.41,134.55a8,8,0,0,0,9.18,0C136,236.17,216,179.3,216,104A88.1,88.1,0,0,0,128,16Zm0,56a32,32,0,1,1-32,32A32,32,0,0,1,128,72Z"/>
  </symbol>
  <symbol id="microscope-bold" viewBox="0 0 256 256">
    <rect width="256" height="256" fill="none"/><line x1="32" y1="216" x2="224" y2="216" fill="none" stroke="currentColor" stroke-linecap="round" stroke-linejoin="round" stroke-width="24"/><line x1="72" y1="176" x2="136" y2="176" fill="none" stroke="currentColor" stroke-linecap="round" stroke-linejoin="round" stroke-width="24"/><rect x="72" y="24" width="64" height="112" rx="8" fill="none" stroke="currentColor" stroke-linecap="round" stroke-linejoin="round" stroke-width="24"/><path d="M136,72a80,80,0,0,1,48,144" fill="none" stroke="currentColor" stroke-linecap="round" stroke-linejoin="round" stroke-width="24"/>
  </symbol>
  <symbol id="microscope-fill" viewBox="0 0 256 256">
    <rect width="256" height="256" fill="none"/><path d="M232,216a8,8,0,0,1-8,8H32a8,8,0,0,1,0-16H181.25A72,72,0,0,0,144,80.46V136a16,16,0,0,1-16,16H80a16,16,0,0,1-16-16V32A16,16,0,0,1,80,16h48a16,16,0,0,1,16,16V64.37A88.05,88.05,0,0,1,203.94,208H224A8,8,0,0,1,232,216Zm-96-32a8,8,0,0,0,0-16H72a8,8,0,0,0,0,16Z"/>
  </symbol>
  <symbol id="microscope" viewBox="0 0 256 256">
    <rect width="256" height="256" fill="none"/><line x1="32" y1="216" x2="224" y2="216" fill="none" stroke="currentColor" stroke-linecap="round" stroke-linejoin="round" stroke-width="16"/><line x1="72" y1="176" x2="136" y2="176" fill="none" stroke="currentColor" stroke-linecap="round" stroke-linejoin="round" stroke-width="16"/><rect x="72" y="24" width="64" height="120" rx="8" fill="none" stroke="currentColor" stroke-linecap="round" stroke-linejoin="round" stroke-width="16"/><path d="M136,72a80,80,0,0,1,48,144" fill="none" stroke="currentColor" stroke-linecap="round" stroke-linejoin="round" stroke-width="16"/>
  </symbol>
  <symbol id="paint-brush-bold" viewBox="0 0 256 256">
    <rect width="256" height="256" fill="none"/><path d="M16,216H92a52,52,0,1,0-52-52C40,200,16,216,16,216Z" fill="none" stroke="currentColor" stroke-linecap="round" stroke-linejoin="round" stroke-width="24"/><path d="M112.41,116.16C131.6,90.29,179.46,32,224,32c0,44.54-58.29,92.4-84.16,111.59" fill="none" stroke="currentColor" stroke-linecap="round" stroke-linejoin="round" stroke-width="24"/><path d="M138.4,84.54a92.55,92.55,0,0,1,33,33" fill="none" stroke="currentColor" stroke-linecap="round" stroke-linejoin="round" stroke-width="24"/>
  </symbol>
  <symbol id="palette-bold" viewBox="0 0 256 256">
    <rect width="256" height="256" fill="none"/><path d="M128,192a24,24,0,0,1,24-24h46.21a24,24,0,0,0,23.4-18.65A96.48,96.48,0,0,0,224,127.17c-.45-52.82-44.16-95.7-97-95.17a96,96,0,0,0-95,96c0,41.81,26.73,73.44,64,86.61A24,24,0,0,0,128,192Z" fill="none" stroke="currentColor" stroke-linecap="round" stroke-linejoin="round" stroke-width="24"/><circle cx="128" cy="76" r="16"/><circle cx="84" cy="100" r="16"/><circle cx="84" cy="156" r="16"/><circle cx="172" cy="100" r="16"/>
  </symbol>
  <symbol id="pencil-line-bold" viewBox="0 0 256 256">
    <rect width="256" height="256" fill="none"/><line x1="164" y1="92" x2="76" y2="180" fill="none" stroke="currentColor" stroke-linecap="round" stroke-linejoin="round" stroke-width="24"/><path d="M96,216H48a8,8,0,0,1-8-8V163.31a8,8,0,0,1,2.34-5.65L165.66,34.34a8,8,0,0,1,11.31,0L221.66,79a8,8,0,0,1,0,11.31Z" fill="none" stroke="currentColor" stroke-linecap="round" stroke-linejoin="round" stroke-width="24"/><line x1="136" y1="64" x2="192" y2="120" fill="none" stroke="currentColor" stroke-linecap="round" stroke-linejoin="round" stroke-width="24"/><line x1="104" y1="208" x2="48" y2="152" fill="none" stroke="currentColor" stroke-linecap="round" stroke-linejoin="round" stroke-width="24"/><line x1="96" y1="216" x2="216" y2="216" fill="none" stroke="currentColor" stroke-linecap="round" stroke-linejoin="round" stroke-width="24"/>
  </symbol>
  <symbol id="prohibit-fill" viewBox="0 0 256 256">
    <path d="M200,128a71.69,71.69,0,0,1-15.78,44.91L83.09,71.78A71.95,71.95,0,0,1,200,128ZM56,128a71.95,71.95,0,0,0,116.91,56.22L71.78,83.09A71.69,71.69,0,0,0,56,128Zm180,0A108,108,0,1,1,128,20,108.12,108.12,0,0,1,236,128Zm-20,0a88,88,0,1,0-88,88A88.1,88.1,0,0,0,216,128Z"/>
  </symbol>
  <symbol id="prohibit" viewBox="0 0 256 256">
    <path d="M128,24A104,104,0,1,0,232,128,104.11,104.11,0,0,0,128,24Zm88,104a87.56,87.56,0,0,1-20.41,56.28L71.72,60.4A88,88,0,0,1,216,128ZM40,128A87.56,87.56,0,0,1,60.41,71.72L184.28,195.6A88,88,0,0,1,40,128Z"/>
  </symbol>
  <symbol id="scroll-bold" viewBox="0 0 256 256">
    <path d="M92,92a12,12,0,0,1,12-12h60a12,12,0,0,1,0,24H104A12,12,0,0,1,92,92Zm12,52h60a12,12,0,0,0,0-24H104a12,12,0,0,0,0,24Zm132,48a36,36,0,0,1-36,36H88a36,36,0,0,1-36-36V64a12,12,0,0,0-24,0c0,3.73,3.35,6.51,3.38,6.54l-.18-.14h0A12,12,0,1,1,16.81,89.59h0C15.49,88.62,4,79.55,4,64A36,36,0,0,1,40,28H176a36,36,0,0,1,36,36V164h4a12,12,0,0,1,7.2,2.4C224.51,167.38,236,176.45,236,192ZM92.62,172.2A12,12,0,0,1,104,164h84V64a12,12,0,0,0-12-12H73.94A35.88,35.88,0,0,1,76,64V192a12,12,0,0,0,24,0c0-3.58-3.17-6.38-3.2-6.4A12,12,0,0,1,92.62,172.2ZM212,192a7.69,7.69,0,0,0-1.24-4h-87a30.32,30.32,0,0,1,.26,4,35.84,35.84,0,0,1-2.06,12H200A12,12,0,0,0,212,192Z"/>
  </symbol>
  <symbol id="scroll-fill" viewBox="0 0 256 256">
    <path d="M220.8,169.6A8,8,0,0,0,216,168h-8V64a32,32,0,0,0-32-32H40A32,32,0,0,0,8,64C8,77.61,18.05,85.54,19.2,86.4h0A7.89,7.89,0,0,0,24,88a8,8,0,0,0,4.87-14.33h0C28.83,73.62,24,69.74,24,64a16,16,0,0,1,32,0V192a32,32,0,0,0,32,32H200a32,32,0,0,0,32-32C232,178.39,222,170.46,220.8,169.6ZM104,96h64a8,8,0,0,1,0,16H104a8,8,0,0,1,0-16Zm-8,40a8,8,0,0,1,8-8h64a8,8,0,0,1,0,16H104A8,8,0,0,1,96,136Zm104,72H107.71A31.82,31.82,0,0,0,112,192a26.92,26.92,0,0,0-1.21-8h102a12.58,12.58,0,0,1,3.23,8A16,16,0,0,1,200,208Z"/>
  </symbol>
  <symbol id="scroll" viewBox="0 0 256 256">
    <path d="M96,104a8,8,0,0,1,8-8h64a8,8,0,0,1,0,16H104A8,8,0,0,1,96,104Zm8,40h64a8,8,0,0,0,0-16H104a8,8,0,0,0,0,16Zm128,48a32,32,0,0,1-32,32H88a32,32,0,0,1-32-32V64a16,16,0,0,0-32,0c0,5.74,4.83,9.62,4.88,9.66h0A8,8,0,0,1,24,88a7.89,7.89,0,0,1-4.79-1.61h0C18.05,85.54,8,77.61,8,64A32,32,0,0,1,40,32H176a32,32,0,0,1,32,32V168h8a8,8,0,0,1,4.8,1.6C222,170.46,232,178.39,232,192ZM96.26,173.48A8.07,8.07,0,0,1,104,168h88V64a16,16,0,0,0-16-16H67.69A31.71,31.71,0,0,1,72,64V192a16,16,0,0,0,32,0c0-5.74-4.83-9.62-4.88-9.66A7.82,7.82,0,0,1,96.26,173.48ZM216,192a12.58,12.58,0,0,0-3.23-8h-94a26.92,26.92,0,0,1,1.21,8,31.82,31.82,0,0,1-4.29,16H200A16,16,0,0,0,216,192Z"/>
  </symbol>
  <symbol id="seal-check-fill" viewBox="0 0 256 256">
    <path d="M225.86,102.82c-3.77-3.94-7.67-8-9.14-11.57-1.36-3.27-1.44-8.69-1.52-13.94-.15-9.76-.31-20.82-8-28.51s-18.75-7.85-28.51-8c-5.25-.08-10.67-.16-13.94-1.52-3.56-1.47-7.63-5.37-11.57-9.14C146.28,23.51,138.44,16,128,16s-18.27,7.51-25.18,14.14c-3.94,3.77-8,7.67-11.57,9.14C88,40.64,82.56,40.72,77.31,40.8c-9.76.15-20.82.31-28.51,8S41,67.55,40.8,77.31c-.08,5.25-.16,10.67-1.52,13.94-1.47,3.56-5.37,7.63-9.14,11.57C23.51,109.72,16,117.56,16,128s7.51,18.27,14.14,25.18c3.77,3.94,7.67,8,9.14,11.57,1.36,3.27,1.44,8.69,1.52,13.94.15,9.76.31,20.82,8,28.51s18.75,7.85,28.51,8c5.25.08,10.67.16,13.94,1.52,3.56,1.47,7.63,5.37,11.57,9.14C109.72,232.49,117.56,240,128,240s18.27-7.51,25.18-14.14c3.94-3.77,8-7.67,11.57-9.14,3.27-1.36,8.69-1.44,13.94-1.52,9.76-.15,20.82-.31,28.51-8s7.85-18.75,8-28.51c.08-5.25.16-10.67,1.52-13.94,1.47-3.56,5.37-7.63,9.14-11.57C232.49,146.28,240,138.44,240,128S232.49,109.73,225.86,102.82Zm-52.2,6.84-56,56a8,8,0,0,1-11.32,0l-24-24a8,8,0,0,1,11.32-11.32L112,148.69l50.34-50.35a8,8,0,0,1,11.32,11.32Z"/>
  </symbol>
  <symbol id="seal-check" viewBox="0 0 256 256">
    <path d="M225.86,102.82c-3.77-3.94-7.67-8-9.14-11.57-1.36-3.27-1.44-8.69-1.52-13.94-.15-9.76-.31-20.82-8-28.51s-18.75-7.85-28.51-8c-5.25-.08-10.67-.16-13.94-1.52-3.56-1.47-7.63-5.37-11.57-9.14C146.28,23.51,138.44,16,128,16s-18.27,7.51-25.18,14.14c-3.94,3.77-8,7.67-11.57,9.14C88,40.64,82.56,40.72,77.31,40.8c-9.76.15-20.82.31-28.51,8S41,67.55,40.8,77.31c-.08,5.25-.16,10.67-1.52,13.94-1.47,3.56-5.37,7.63-9.14,11.57C23.51,109.72,16,117.56,16,128s7.51,18.27,14.14,25.18c3.77,3.94,7.67,8,9.14,11.57,1.36,3.27,1.44,8.69,1.52,13.94.15,9.76.31,20.82,8,28.51s18.75,7.85,28.51,8c5.25.08,10.67.16,13.94,1.52,3.56,1.47,7.63,5.37,11.57,9.14C109.72,232.49,117.56,240,128,240s18.27-7.51,25.18-14.14c3.94-3.77,8-7.67,11.57-9.14,3.27-1.36,8.69-1.44,13.94-1.52,9.76-.15,20.82-.31,28.51-8s7.85-18.75,8-28.51c.08-5.25.16-10.67,1.52-13.94,1.47-3.56,5.37-7.63,9.14-11.57C232.49,146.28,240,138.44,240,128S232.49,109.73,225.86,102.82Zm-11.55,39.29c-4.79,5-9.75,10.17-12.38,16.52-2.52,6.1-2.63,13.07-2.73,19.82-.1,7-.21,14.33-3.32,17.43s-10.39,3.22-17.43,3.32c-6.75.1-13.72.21-19.82,2.73-6.35,2.63-11.52,7.59-16.52,12.38S132,224,128,224s-9.15-4.92-14.11-9.69-10.17-9.75-16.52-12.38c-6.1-2.52-13.07-2.63-19.82-2.73-7-.1-14.33-.21-17.43-3.32s-3.22-10.39-3.32-17.43c-.1-6.75-.21-13.72-2.73-19.82-2.63-6.35-7.59-11.52-12.38-16.52S32,132,32,128s4.92-9.15,9.69-14.11,9.75-10.17,12.38-16.52c2.52-6.1,2.63-13.07,2.73-19.82.1-7,.21-14.33,3.32-17.43S70.51,56.9,77.55,56.8c6.75-.1,13.72-.21,19.82-2.73,6.35-2.63,11.52-7.59,16.52-12.38S124,32,128,32s9.15,4.92,14.11,9.69,10.17,9.75,16.52,12.38c6.1,2.52,13.07,2.63,19.82,2.73,7,.1,14.33.21,17.43,3.32s3.22,10.39,3.32,17.43c.1,6.75.21,13.72,2.73,19.82,2.63,6.35,7.59,11.52,12.38,16.52S224,124,224,128,219.08,137.15,214.31,142.11ZM173.66,98.34a8,8,0,0,1,0,11.32l-56,56a8,8,0,0,1-11.32,0l-24-24a8,8,0,0,1,11.32-11.32L112,148.69l50.34-50.35A8,8,0,0,1,173.66,98.34Z"/>
  </symbol>
  <symbol id="selection-all-bold" viewBox="0 0 256 256">
    <path d="M100,40a12,12,0,0,1,12-12h32a12,12,0,0,1,0,24H112A12,12,0,0,1,100,40Zm44,164H112a12,12,0,0,0,0,24h32a12,12,0,0,0,0-24ZM208,28H184a12,12,0,0,0,0,24h20V72a12,12,0,0,0,24,0V48A20,20,0,0,0,208,28Zm8,72a12,12,0,0,0-12,12v32a12,12,0,0,0,24,0V112A12,12,0,0,0,216,100Zm0,72a12,12,0,0,0-12,12v20H184a12,12,0,0,0,0,24h24a20,20,0,0,0,20-20V184A12,12,0,0,0,216,172ZM40,156a12,12,0,0,0,12-12V112a12,12,0,0,0-24,0v32A12,12,0,0,0,40,156Zm32,48H52V184a12,12,0,0,0-24,0v24a20,20,0,0,0,20,20H72a12,12,0,0,0,0-24ZM40,84A12,12,0,0,0,52,72V52H72a12,12,0,0,0,0-24H48A20,20,0,0,0,28,48V72A12,12,0,0,0,40,84ZM80,68h96a12,12,0,0,1,12,12v96a12,12,0,0,1-12,12H80a12,12,0,0,1-12-12V80A12,12,0,0,1,80,68Zm12,96h72V92H92Z"/>
  </symbol>
  <symbol id="selection-all" viewBox="0 0 256 256">
    <path d="M104,40a8,8,0,0,1,8-8h32a8,8,0,0,1,0,16H112A8,8,0,0,1,104,40Zm40,168H112a8,8,0,0,0,0,16h32a8,8,0,0,0,0-16ZM208,32H184a8,8,0,0,0,0,16h24V72a8,8,0,0,0,16,0V48A16,16,0,0,0,208,32Zm8,72a8,8,0,0,0-8,8v32a8,8,0,0,0,16,0V112A8,8,0,0,0,216,104Zm0,72a8,8,0,0,0-8,8v24H184a8,8,0,0,0,0,16h24a16,16,0,0,0,16-16V184A8,8,0,0,0,216,176ZM40,152a8,8,0,0,0,8-8V112a8,8,0,0,0-16,0v32A8,8,0,0,0,40,152Zm32,56H48V184a8,8,0,0,0-16,0v24a16,16,0,0,0,16,16H72a8,8,0,0,0,0-16ZM40,80a8,8,0,0,0,8-8V48H72a8,8,0,0,0,0-16H48A16,16,0,0,0,32,48V72A8,8,0,0,0,40,80ZM176,184H80a8,8,0,0,1-8-8V80a8,8,0,0,1,8-8h96a8,8,0,0,1,8,8v96A8,8,0,0,1,176,184Zm-8-96H88v80h80Z"/>
  </symbol>
  <symbol id="share-network-bold" viewBox="0 0 256 256">
    <rect width="256" height="256" fill="none"/><line x1="149.09" y1="73.3" x2="90.91" y2="110.7" fill="none" stroke="currentColor" stroke-linecap="round" stroke-linejoin="round" stroke-width="24"/><line x1="90.91" y1="145.3" x2="149.09" y2="182.7" fill="none" stroke="currentColor" stroke-linecap="round" stroke-linejoin="round" stroke-width="24"/><circle cx="64" cy="128" r="32" fill="none" stroke="currentColor" stroke-linecap="round" stroke-linejoin="round" stroke-width="24"/><circle cx="176" cy="200" r="32" fill="none" stroke="currentColor" stroke-linecap="round" stroke-linejoin="round" stroke-width="24"/><circle cx="176" cy="56" r="32" fill="none" stroke="currentColor" stroke-linecap="round" stroke-linejoin="round" stroke-width="24"/>
  </symbol>
  <symbol id="share-network" viewBox="0 0 256 256">
    <rect width="256" height="256" fill="none"/><circle cx="64" cy="128" r="32" fill="none" stroke="currentColor" stroke-linecap="round" stroke-linejoin="round" stroke-width="16"/><circle cx="176" cy="200" r="32" fill="none" stroke="currentColor" stroke-linecap="round" stroke-linejoin="round" stroke-width="16"/><circle cx="176" cy="56" r="32" fill="none" stroke="currentColor" stroke-linecap="round" stroke-linejoin="round" stroke-width="16"/><line x1="149.09" y1="73.3" x2="90.91" y2="110.7" fill="none" stroke="currentColor" stroke-linecap="round" stroke-linejoin="round" stroke-width="16"/><line x1="90.91" y1="145.3" x2="149.09" y2="182.7" fill="none" stroke="currentColor" stroke-linecap="round" stroke-linejoin="round" stroke-width="16"/>
  </symbol>
  <symbol id="shield-check-bold" viewBox="0 0 256 256">
    <rect width="256" height="256" fill="none"/><path d="M216,112V56a8,8,0,0,0-8-8H48a8,8,0,0,0-8,8v56c0,96,88,120,88,120S216,208,216,112Z" fill="none" stroke="currentColor" stroke-linecap="round" stroke-linejoin="round" stroke-width="24"/><polyline points="88 136 112 160 168 104" fill="none" stroke="currentColor" stroke-linecap="round" stroke-linejoin="round" stroke-width="24"/>
  </symbol>
  <symbol id="sketch-logo" viewBox="0 0 256 256">
    <path d="M246,98.73l-56-64A8,8,0,0,0,184,32H72a8,8,0,0,0-6,2.73l-56,64a8,8,0,0,0,.17,10.73l112,120a8,8,0,0,0,11.7,0l112-120A8,8,0,0,0,246,98.73ZM222.37,96H180L144,48h36.37ZM74.58,112l30.13,75.33L34.41,112Zm89.6,0L128,202.46,91.82,112ZM96,96l32-42.67L160,96Zm85.42,16h40.17l-70.3,75.33ZM75.63,48H112L76,96H33.63Z"/>
  </symbol>
  <symbol id="sparkle-bold" viewBox="0 0 256 256">
    <rect width="256" height="256" fill="none"/><path d="M84.27,171.73l-55.09-20.3a7.92,7.92,0,0,1,0-14.86l55.09-20.3,20.3-55.09a7.92,7.92,0,0,1,14.86,0l20.3,55.09,55.09,20.3a7.92,7.92,0,0,1,0,14.86l-55.09,20.3-20.3,55.09a7.92,7.92,0,0,1-14.86,0Z" fill="none" stroke="currentColor" stroke-linecap="round" stroke-linejoin="round" stroke-width="24"/><line x1="176" y1="16" x2="176" y2="64" fill="none" stroke="currentColor" stroke-linecap="round" stroke-linejoin="round" stroke-width="24"/><line x1="224" y1="72" x2="224" y2="104" fill="none" stroke="currentColor" stroke-linecap="round" stroke-linejoin="round" stroke-width="24"/><line x1="152" y1="40" x2="200" y2="40" fill="none" stroke="currentColor" stroke-linecap="round" stroke-linejoin="round" stroke-width="24"/><line x1="208" y1="88" x2="240" y2="88" fill="none" stroke="currentColor" stroke-linecap="round" stroke-linejoin="round" stroke-width="24"/>
  </symbol>
  <symbol id="sparkle" viewBox="0 0 256 256">
    <rect width="256" height="256" fill="none"/><path d="M84.27,171.73l-55.09-20.3a7.92,7.92,0,0,1,0-14.86l55.09-20.3,20.3-55.09a7.92,7.92,0,0,1,14.86,0l20.3,55.09,55.09,20.3a7.92,7.92,0,0,1,0,14.86l-55.09,20.3-20.3,55.09a7.92,7.92,0,0,1-14.86,0Z" fill="none" stroke="currentColor" stroke-linecap="round" stroke-linejoin="round" stroke-width="16"/><line x1="176" y1="16" x2="176" y2="64" fill="none" stroke="currentColor" stroke-linecap="round" stroke-linejoin="round" stroke-width="16"/><line x1="224" y1="72" x2="224" y2="104" fill="none" stroke="currentColor" stroke-linecap="round" stroke-linejoin="round" stroke-width="16"/><line x1="152" y1="40" x2="200" y2="40" fill="none" stroke="currentColor" stroke-linecap="round" stroke-linejoin="round" stroke-width="16"/><line x1="208" y1="88" x2="240" y2="88" fill="none" stroke="currentColor" stroke-linecap="round" stroke-linejoin="round" stroke-width="16"/>
  </symbol>
  <symbol id="stack-bold" viewBox="0 0 256 256">
    <path d="M234.36,170A12,12,0,0,1,230,186.37l-96,56a12,12,0,0,1-12.1,0l-96-56a12,12,0,0,1,12.09-20.74l90,52.48L218,165.63A12,12,0,0,1,234.36,170ZM218,117.63,128,170.11,38.05,117.63A12,12,0,0,0,26,138.37l96,56a12,12,0,0,0,12.1,0l96-56A12,12,0,0,0,218,117.63ZM20,80a12,12,0,0,1,6-10.37l96-56a12.06,12.06,0,0,1,12.1,0l96,56a12,12,0,0,1,0,20.74l-96,56a12,12,0,0,1-12.1,0l-96-56A12,12,0,0,1,20,80Zm35.82,0L128,122.11,200.18,80,128,37.89Z"/>
  </symbol>
  <symbol id="stack" viewBox="0 0 256 256">
    <path d="M230.91,172A8,8,0,0,1,228,182.91l-96,56a8,8,0,0,1-8.06,0l-96-56A8,8,0,0,1,36,169.09l92,53.65,92-53.65A8,8,0,0,1,230.91,172ZM220,121.09l-92,53.65L36,121.09A8,8,0,0,0,28,134.91l96,56a8,8,0,0,0,8.06,0l96-56A8,8,0,1,0,220,121.09ZM24,80a8,8,0,0,1,4-6.91l96-56a8,8,0,0,1,8.06,0l96,56a8,8,0,0,1,0,13.82l-96,56a8,8,0,0,1-8.06,0l-96-56A8,8,0,0,1,24,80Zm23.88,0L128,126.74,208.12,80,128,33.26Z"/>
  </symbol>
  <symbol id="warning-circle-fill" viewBox="0 0 256 256">
    <rect width="256" height="256" fill="none"/><path d="M128,24A104,104,0,1,0,232,128,104.11,104.11,0,0,0,128,24Zm-8,56a8,8,0,0,1,16,0v56a8,8,0,0,1-16,0Zm8,104a12,12,0,1,1,12-12A12,12,0,0,1,128,184Z"/>
  </symbol>
  <symbol id="x-bold" viewBox="0 0 256 256">
    <rect width="256" height="256" fill="none"/><line x1="200" y1="56" x2="56" y2="200" fill="none" stroke="currentColor" stroke-linecap="round" stroke-linejoin="round" stroke-width="24"/><line x1="200" y1="200" x2="56" y2="56" fill="none" stroke="currentColor" stroke-linecap="round" stroke-linejoin="round" stroke-width="24"/>
  </symbol>
  <symbol id="x-circle-fill" viewBox="0 0 256 256">
    <path d="M128,24A104,104,0,1,0,232,128,104.11,104.11,0,0,0,128,24Zm37.66,130.34a8,8,0,0,1-11.32,11.32L128,139.31l-26.34,26.35a8,8,0,0,1-11.32-11.32L116.69,128,90.34,101.66a8,8,0,0,1,11.32-11.32L128,116.69l26.34-26.35a8,8,0,0,1,11.32,11.32L139.31,128Z"/>
  </symbol>
  <symbol id="x-circle" viewBox="0 0 256 256">
    <path d="M165.66,101.66,139.31,128l26.35,26.34a8,8,0,0,1-11.32,11.32L128,139.31l-26.34,26.35a8,8,0,0,1-11.32-11.32L116.69,128,90.34,101.66a8,8,0,0,1,11.32-11.32L128,116.69l26.34-26.35a8,8,0,0,1,11.32,11.32ZM232,128A104,104,0,1,1,128,24,104.11,104.11,0,0,1,232,128Zm-16,0a88,88,0,1,0-88,88A88.1,88.1,0,0,0,216,128Z"/>
  </symbol>
  <symbol id="x" viewBox="0 0 256 256">
    <rect width="256" height="256" fill="none"/><line x1="200" y1="56" x2="56" y2="200" stroke="currentColor" stroke-linecap="round" stroke-linejoin="round" stroke-width="16"/><line x1="200" y1="200" x2="56" y2="56" stroke="currentColor" stroke-linecap="round" stroke-linejoin="round" stroke-width="16"/>
  </symbol>
</svg>