<?xml version="1.0" encoding="UTF-8"?>
<svg id="b" data-name="Layer 2" xmlns="http://www.w3.org/2000/svg" width="368.359" height="374.018" viewBox="0 0 368.359 374.018">
  <g id="c" data-name="Layer 1">
    <g id="d" data-name="rAa9IZ">
      <g>
        <path d="M184.119,267.154l-13.271-47.757-33.69,17.6c-1.154.549-2.006.825-3.551.86l7.615-15.901,10.643-21.416-47.22-13.837,37.145-10.386,9.999-2.493-13.716-28.031-4.301-9.68c1.357-.025,2.486.092,3.502.631l14.518,7.699,18.939,10.249,1.831-9.286,11.57-40.095,9.939,34.051c1.457,5.04,2.375,9.861,3.308,15.385l34.003-18.108c1.024-.546,1.936-.616,3.024-.354l-5.492,11.805-12.547,25.782,8.116,1.99,38.59,10.733-12.118,3.82-34.644,10.064,16.189,33.47c.708,1.464,1.179,2.575,1.129,4.447l-10.71-5.42-25.67-13.585-13.129,47.766ZM171.265,218.676l12.825-16.945,12.898,17.071-2.543-21.177,21.368,2.656-17.464-13.107,17.329-13.002-21.227,2.631,2.521-21.021-12.872,17.079-12.703-16.823,2.275,20.786-21.173-2.7,17.351,13.039-17.425,13.11,21.312-2.629-2.472,21.034Z"/>
        <polygon points="65.734 212.045 46.533 234.172 0 186.987 46.501 139.762 68.741 164.715 88.251 186.793 65.734 212.045"/>
        <polygon points="311.323 221.431 280.136 186.711 311.41 151.297 321.68 139.595 368.359 186.637 322.025 233.516 311.323 221.431"/>
        <polygon points="162.003 67.723 149.915 56.478 138.494 46.321 165.015 19.508 184.395 0 230.299 46.269 199.87 74.984 184.519 89.936 162.003 67.723"/>
        <polygon points="184.682 374.018 139.877 329.045 145.759 323.382 184.454 285.643 229.165 329.132 194 364.49 184.682 374.018"/>
        <polygon points="316.288 132.509 241.147 127.646 235.942 51.622 301.483 117.175 316.288 132.509"/>
        <polygon points="235.617 323.032 238.658 280.006 241.146 247.039 315.645 241.3 286.449 271.379 235.617 323.032"/>
        <polygon points="52.87 132.45 90.246 94.332 114.893 69.362 131.901 52.523 127.201 127.412 52.87 132.45"/>
        <polygon points="132.419 321.459 108.303 297.221 52.642 241.376 127.301 247.038 132.419 321.459"/>
        <polygon points="309.605 232.819 240.625 238.209 232.932 218.312 260.421 195.373 269.469 188.034 291.224 212.073 309.605 232.819"/>
        <polygon points="127.079 238.128 58.944 232.864 98.588 188.308 134.88 218.313 127.079 238.128"/>
        <polygon points="269.584 185.537 233.11 155.3 240.89 136.496 267.387 138.191 308.766 141.014 269.584 185.537"/>
        <polygon points="98.684 185.268 80.571 164.904 59.311 141.016 106.443 137.713 127.288 136.369 134.837 155.303 98.684 185.268"/>
        <polygon points="152.224 304.857 140.712 315.957 138.046 278.498 135.663 244.313 152.065 237.513 163.295 250.589 183.387 274.324 152.224 304.857"/>
        <polygon points="227.449 315.096 214.5 302.67 185.356 274.282 215.954 237.537 232.712 244.62 231.549 260.876 227.449 315.096"/>
        <path d="M151.192,135.614l-15.736-6.021,2.55-38.252,2.084-31.772c3.9,3.172,7.411,5.78,10.785,9.151l31.246,31.212-30.929,35.682Z"/>
        <polygon points="232.765 129.552 216.973 135.643 186.338 100.281 201.666 85.455 227.839 60.15 232.765 129.552"/>
      </g>
    </g>
  </g>
</svg>