<?xml version="1.0" encoding="UTF-8"?>
<svg id="b" data-name="Layer 2" xmlns="http://www.w3.org/2000/svg" width="249.73" height="389.39" viewBox="0 0 249.73 389.39">
  <g id="c" data-name="Layer 1">
    <g>
      <path d="M249.308,267.349c-2.249-.16-4.443.9-6.764,2.009-1.652.789-3.352,1.602-5.154,2.016,8.322-7.38,12.216-19.3,10.435-32.104-.324-2.329.102-4.367,1.379-6.609l.171-.3-.338-.069c-1.838-.375-3.616-.143-5.557.729,2.315-8.048-.271-15.502-3.373-23.058l-3.584-8.73c-1.021-2.486-1.192-5.155-.554-8.654l.059-.323-.327.029c-2.153.191-3.689,1.394-4.786,2.42-3.84,3.591-8.722,10.033-10.076,16.555l-.908-.875-2.65,4.488c-.782,1.323-1.372,2.907-1.677,3.81l-1.348-1.437-.176.256c-1.601,2.336-3.4,3.961-6.212,5.609-3.784,2.22-6.906,4.13-9.767,6.809-7.059,6.608-9.882,15.81-7.192,23.441l.544,1.543-.058-1.635c-.265-7.451,2.312-14.262,7.452-19.697,2.769-2.928,5.989-5.08,9.973-7.412,1.768-1.034,3.803-2.378,5.621-4.535l2.579,7.739-.033-1.646c-.105-5.229,1.142-9.476,3.922-13.328l1.395,2.082.099-.631c.996-6.347,4.744-13.188,10.31-18.845.008.133.015.267.023.399.104,1.815.213,3.691.938,5.452l3.964,9.621c4.636,11.25,4.712,19.586.233,25.482l-.637.839.946-.463c.439-.215.865-.428,1.281-.637,1.98-.991,3.707-1.856,5.565-2.264-.387,1.833-.571,3.378-.35,5.194,1.174,9.663-1.001,18.461-6.289,25.442-4.994,6.594-9.142,7.112-13.533,7.662-1.908.238-3.88.485-5.979,1.234-.785.281-1.609.199-2.519-.251l-.434-.215.189,1.188c-.049.057-.177.148-.378.272-4.256,1.657-7.417,4.276-9.851,8.185l.611-3.117-5.862,1.042c-1.015.034-2.048.085-3.078.17l.342-.287c4.674-3.92,6.048-10.578,3.266-15.833-1.639-3.097-4.748-5.454-8.113-6.151-3.633-.748-7.007-.021-10.04,2.165,3.305-8.118,3.097-17.52-.6-25.34-3.404-7.202-9.4-12.309-16.883-14.38l-.581-.16.297.524c5.67,10.025,5.501,23.513-.422,33.561-5.171,8.771-14.391,13.555-24.668,12.814l-.642-.047.443.468c7.038,7.44,17.589,10.032,27.538,6.765,6.47-2.126,10.314-5.708,13.403-8.587,1.608-1.498,2.998-2.793,4.505-3.699,3.006-1.805,6.516-1.9,9.629-.261,2.719,1.435,4.564,4.239,4.935,7.505.312,2.753-.516,5.241-1.392,7.554l-1.293,3.415c-4.337.384-8.576,1.39-11.079,4.228l-1.006-1.424-5.695,3.725c-5.339,4.022-8.883,9.661-9.979,15.877-.757,4.292-.218,8.102,1.603,11.322l.769,1.361-.306-1.533c-1.759-8.802,1.375-17.618,8.374-23.574l4.544-3.442.944,2.701.262-.544c1.719-3.571,5.969-5.464,12.993-5.785,1.315-.061,2.798-.31,4.522-.762-.46,1.97-.702,4.151-.74,6.652-.043,2.935-1.025,5.504-2.064,8.224-.361.945-.734,1.922-1.075,2.934l-.554,1.645.995-1.421c4.422-6.315,10.549-9.931,17.716-10.455l6.783-.496-2.318,5.257c-1.517,4.429-4.009,7.934-7.619,10.716l-1.038.8,1.259-.361c6.217-1.784,8.928-8.076,10.426-12.653.672-2.054,1.681-3.878,3.175-5.742l.349-.436-8.413.448c-5.886.303-10.19.525-15.799,4.903l1.421-7.089c.48-2.394,2.777-4.116,5.089-5.677,3.811-2.57,8.121-4.149,13.177-4.825l8.34-1.117c4.257-.569,8.257-1.916,12.223-4.117l-.094.202-1.84,7.091c-2.298,12.46-7.141,20.669-14.806,25.096-1.901,1.099-3.915,1.5-6.047,1.925-1.059.211-2.155.43-3.242.741l-1.337.383,1.387.106c3.689.283,6.846.743,10.177,2.043l-.154.236c-1.596,1.349-2.976,2.991-4.47,5.321-14.641,22.834-28.625,23.145-37.801,19.372-.185-.056-.64.005-.755.231l-.079.232.708.54c2.605,1.99,5.536,3.711,9.224,5.415l.098.046c-.053.022-.097.043-.123.059l-4.757,2.999c-4.286,2.702-9.132,3.118-13.295,1.144-3.198-1.519-5.928-2.016-8.588-1.559l-1.063.182,1.035.305c1.784.524,3.285,1.079,4.87,1.797l7.845,3.554c-.024.003-.049.005-.074.006l-.074.003-.39.28c-2.632,1.889-5.119,3.672-8.292,4.393-2.596.59-6.279.842-9.034-1.275l-3.426-4.029c-3.613-3.291-8.375-5.029-13.773-5.029h-.003c-.059-.023-.125-.015-.204.039l-.204.143.468.692,1.332.218,4.595,1.598c.324.112.792.126,1.289.141.608.018,1.298.037,1.56.256l1.997,1.658c1.619,1.613,2.61,3.514,3.658,5.525.482.926.981,1.883,1.545,2.806l1.319,2.155-3.48,1.37c-2.714,1.066-7.526,1.056-9.233-1.378-2.649-7.987-7-12.099-13.694-12.939l-.037-.005-.037.007c-.315.055-.65.137-.636.421.014.293.394.334.665.355,6.165,2.197,10.317,7.598,10.838,14.102.378,4.715-1.488,9.202-5.12,12.312l-2.741,2.346-4.029-3.843.071.677c.269,2.567-.527,4.924-2.302,6.814-1.479,1.574-3.121,2.487-4.71,3.37-1.643.912-3.199,1.777-4.484,3.289-1.38-1.462-2.988-2.365-4.545-3.24-1.73-.972-3.518-1.977-5.024-3.759-1.713-2.029-2.357-4.213-1.968-6.678l.119-.753-4.131,4.089c-7.774-5.34-10.056-13.365-5.949-20.987,2.006-3.723,5.399-6.554,9.555-7.972l1.515-.517-1.6.03c-6.77.127-12.817,5.747-14.105,13.089-1.159.858-2.569,1.48-4.054,1.796-2.986.261-5.663-.336-8.427-1.881l-.459-.116c.109-.1.172-.164.207-.232l2.469-4.797c1.363-2.646,2.657-4.741,4.537-6.354,1.252-1.033,2.508-1.332,3.838-.921l.079.025,6.467-2.28.046-.065c.077-.109.311-.442.105-.682-.186-.216-.512-.108-.79.024-3.685.096-7.216,1.076-10.792,2.997-1.967,1.057-3.228,2.618-4.563,4.271-.393.486-.788.976-1.206,1.456-1.928,2.213-5.625,2.169-7.656,1.948-2.833-.311-5.208-1.534-7.901-3.275l-2.588-1.673c2.023-.614,3.86-1.576,5.641-2.509,2.109-1.104,4.289-2.246,6.829-2.853l1.193-.284-1.21-.205c-3.312-.564-6.259.581-8.994,1.8-3.706,1.65-8.284,1.254-11.946-1.036l-5.107-3.19-.53-.229,4.021-2.099c2.269-1.186,4.197-2.493,5.894-3.998l.886-.787-1.128.361c-3.562,1.141-6.926,2.217-10.727,1.861-12.056-1.128-21.148-11.692-26.652-20.355-.039-.061-3.494-5.371-5.235-6.253l.013-.013c3.144-1.158,6.234-1.799,10.651-2.208l.889-.083c.506.286,1.047.55,1.625.792l.066.018c.156.02.52.063.619-.205.106-.283-.235-.516-.407-.632-3.123-2.41-5.398-5.711-6.956-10.091-.7-1.967-1.486-3.703-2.457-5.425l7.387.646c2.987.262,6.072,1.257,8.922,2.88,2.944,1.675,5.118,4.041,7.42,6.546l1.762,1.907-.552-1.31c-1.775-4.214-3.31-7.854-3.375-12.302-.029-1.978-.386-4.013-.715-5.491,1.582.442,2.916.684,4.17.755,4.939.283,10.916,1.195,13.312,5.773l.262.501.937-2.564,6.137,4.916c5.537,5.394,8.023,12.615,7.192,20.885l-.13,1.296.601-1.155c1.709-3.284,1.968-7.236.792-12.08-1.684-6.937-6.493-12.489-15.134-17.476l-.225-.13-.792,1.503c-2.737-3.109-7.04-3.957-11.101-4.295l-.098-.54c-.123-.683-.309-1.254-.542-1.814l.506-.54c4.596-4.904,9.856-2.405,15.758,1.096,6.254,3.739,12.317,5.73,18.536,6.086h.006c.432.015.86.021,1.286.021,7.952,0,14.808-2.522,19.888-7.334l1.55-1.468-1.847,1.069c-10.761,6.233-22.75,6.905-33.753,1.9l-7.564-3.771c-3.556-2.006-7.541-2.623-10.403-1.611-1.843.651-3.145,1.913-3.871,3.749l-.209.527c-.123-.272-.254-.546-.403-.832-1.631-3.119-1.934-6.691-.833-9.8.902-2.544,2.674-4.496,4.991-5.498,6.045-2.613,9.693.855,13.917,4.871l.333.317c3.816,3.623,7.565,6.002,11.799,7.489,9.987,3.502,20.846.958,28.339-6.646l.47-.478-.668.053c-12.536.975-23.679-6.257-27.74-18.024-3.425-9.925-2.444-20.508,2.623-28.31l.363-.559-.642.183c-4.629,1.318-8.26,3.323-11.102,6.13-8.888,8.776-11.451,21.795-6.652,33.402-4.499-3.125-10.059-3.04-14.4.294-4.896,3.762-6.288,10.204-3.386,15.666.883,1.661,1.882,2.915,3.24,4.064l.344.292c-1.048-.084-2.079-.137-3.06-.186l-5.864-.975.521,2.751c-2.05-3.252-4.751-5.552-8.676-7.403-.807-.38-1.654-.92-2.387-1.52l-.081-.066-.104.012c-.532.058-1.524.097-1.923-.046-1.827-.654-3.767-.895-5.642-1.128-1.522-.188-3.097-.384-4.587-.801-3.324-.928-6.45-3.463-9.29-7.535-4.65-6.665-6.628-14.886-5.72-23.772.212-2.079.236-3.95-.317-6.209,2.46.753,4.621,1.898,6.972,3.202l1.394.772-1.09-1.162c-2.907-3.1-5.411-12.072-1.554-21.487l4.333-10.57c1.284-3.135,1.959-5.916,2.162-8.938,4.611,4.526,9.477,11.981,10.25,18.851l.079.698,1.47-2.288c2.878,4.656,4.044,8.436,3.89,12.598.023.323.067.644.333.688.274.045.408-.273.482-.454l1.599-5.5c.021-.072.075-.192.129-.293l.354.508c1.095,1.573,3.334,2.976,5.928,4.599,2.655,1.662,5.664,3.546,8.342,6.122,5.661,5.449,8.601,12.743,8.277,20.537l-.066,1.604.551-1.507c3.574-9.769-2.854-21.307-10.858-26.395l-6.926-4.401c-2.325-1.479-3.932-2.987-5.373-5.047l-.191-.272-1.283,1.591-1.158-3.005-2.657-4.819-.973-.062-.08.085c-.107.113-.228.229-.331.32l-.07-.67c-1.057-4.015-3.05-7.817-6.09-11.622-2.191-2.849-5.454-6.609-8.622-6.609-.045,0-.09,0-.136.002l-.292.01.055.287c.585,3.055.755,5.626-.315,8.248l-3.568,8.741c-3.042,7.452-5.918,14.499-3.428,23.269-1.999-.814-3.697-.99-5.589-.598l-.358.075.199.306c1.382,2.127,1.803,4.257,1.409,7.123-1.707,12.43,2.284,24.387,10.449,31.542-2.314-.73-4.552-1.659-6.952-2.881-1.692-.86-3.269-1.235-4.822-1.161l-.415.021.213.356c1.544,2.581,2.241,4.865,2.812,7.5l2.478,11.421c2.689,9.486,8.091,16.467,15.253,19.74-1.838.6-3.29,1.324-4.63,2.745l-.234.249.307.148c2.395,1.154,4.1,2.729,5.7,5.269,6.418,10.181,16.531,23.595,30.701,23.697-1.214.789-2.203,1.592-3.138,2.764l-.206.258.505.215c1.814.77,3.248,1.378,4.69,2.507,3.11,2.432,6.179,3.868,9.38,4.392l.461.075c-.029.027-.052.053-.07.078l-.507.727,3.714,2.623c2.414,1.707,4.694,3.319,7.515,4.163,3.263.976,6.395.957,9.096-.063l-1.67,3.238c-.064.124-.073.259-.025.391.133.371.676.63,1.318.906.101.043.189.081.254.112,2.578,1.253,5.344,2.482,8.357,2.607.563,5.152,4.95,7.988,9.094,8.158,2.264,2.851,4.927,5.15,7.916,6.836l.177.1,1.752-2.007c1.074,4.599,4.293,6.436,7.695,8.377,2.02,1.152,4.108,2.345,5.798,4.18l.184.2.184-.199c1.312-1.421,2.424-2.377,3.499-3.008l5.131-3.013c2.392-1.404,4.135-3.874,4.642-6.532l1.882,1.993.174-.109c3.279-2.068,5.791-4.27,7.892-6.919h.024c2.316,0,4.611-.942,6.315-2.6,1.571-1.528,2.474-3.481,2.56-5.523,2.346-.097,4.798-.783,7.486-2.096l2.833-1.385-2.077-3.786c6.461,2.255,11.57-.404,16.136-3.642l4.201-2.979-.629-.833c3.312-.354,6.382-1.679,9.372-4.039,1.641-1.295,3.313-2.178,5.592-2.955l.3-.102-.168-.268c-.825-1.311-1.97-2.057-3.298-2.841h.016c7.319,0,14.207-3.63,21.589-11.353,3.865-4.043,6.861-8.575,9.759-12.958,1.498-2.265,3.157-3.718,5.381-4.711l.315-.141-.232-.256c-1.362-1.5-2.989-2.149-4.858-2.806,7.49-3.009,13.74-12.609,15.322-20.06l2.608-12.285c.471-2.217,1.242-4.029,2.661-6.255l.227-.356-.422-.027ZM167.25,257.326c5.825-9.575,6.28-22.212,1.218-31.754,11.116,6.857,16.342,21.033,12.172,33.376-3.128,9.259-11.145,15.382-20.923,15.979-5.959.369-11.798-1.188-17.371-4.62,10.081.737,19.552-4.184,24.904-12.98ZM80.545,225.621c-5.228,8.676-4.958,22.022.756,31.551h0c5.449,8.977,14.599,13.743,25.22,13.201-5.582,3.5-11.772,5.055-17.957,4.516-9.995-.88-18.15-7.697-20.777-17.368-3.344-12.313,1.89-25.278,12.758-31.899ZM151.069,361.114c1.03.785,2.113,1.357,3.573,1.896.043,2.995-2.356,5.232-4.887,5.837,1.112-2.624,1.544-5.164,1.314-7.733ZM99.726,368.93c-2.599-.72-4.553-2.959-4.974-5.744l3.678-1.93c-.163,2.896.262,5.416,1.297,7.674ZM26.632,305.598c-2.302-.459-4.045-1.072-5.328-1.875-9.734-6.087-12.816-16.631-14.413-25.136-.471-2.505-1.09-4.748-1.936-7.001,3.968,2.198,8.168,3.609,12.498,4.196l7.747,1.05c5.417.733,9.907,2.445,13.728,5.235,1.879,1.371,4.091,3.229,4.517,5.439l1.36,7.06-.013-.007c-3.909-3.387-9.211-5.101-15.341-4.996l-8.51-.477.297.422c1.49,2.117,2.379,3.734,2.974,5.409,1.774,4.995,3.529,9.123,7.656,11.724l-5.235-1.044Z"/>
      <path d="M57.192,131.843l.158.842c1.739,7.006,5.924,12.481,11.783,15.42,5.798,2.908,12.27,2.605,17.398-.79l.184,1.645.345-.241c2.537-1.774,5.714-1.66,8.499.303,3.462,2.44,4.981,7.286,3.693,11.784-.403,1.406-.369,2.547.152,3.997l-1.072-.611-.104.271c-1.167,3.024-1.988,5.657-2.204,8.679-.542,7.571,3.324,14.691,9.849,18.14l1.635.864-1.346-1.267c-6.718-6.321-8.879-15.338-5.682-23.606l2.151,1.669-.157-.684c-.979-4.25.777-7.134,2.635-10.188.342-.562.689-1.132,1.024-1.718l2.964-5.175,3.028,3.804-.176-.976c-1.11-6.151,2.817-11.386,6.974-16.928,2.155-2.873,4.38-5.839,5.875-8.975,1.241,2.59,2.779,4.789,4.401,7.11l6.522,9.37c1.753,2.52,2.301,5.275,1.833,9.217l-.101.851,2.999-3.661c.785,2.035,1.958,3.892,3.096,5.691,2.219,3.511,4.314,6.827,3.678,11.283l-.086.601,1.996-1.509.282,1.678c2.372,7.655.242,15.616-5.846,21.843l-1.102,1.127,1.396-.73c6.135-3.209,9.881-10.052,9.543-17.433-.141-3.077-.921-5.864-2.049-9.102l-.102-.294-1.051.646c.479-1.354.514-2.478.14-3.734-1.201-4.032-.375-8.143,2.212-10.994,2.615-2.882,6.596-3.479,9.684-1.449l.298.196.371-1.568c4.777,3.07,10.496,3.605,15.749,1.459,7.026-2.873,12.153-9.283,13.716-17.148l.037-.184-1.058-.553c.468-.776,1.008-1.841,1.206-2.874.981-5.116.366-10.366-1.881-16.049-1.045-2.643-1.323-4.829-.901-7.088l.053-.285-.29-.011c-2.534-.08-4.53,1.191-6.174,2.578.692-9.223-4.601-16.55-10.101-23.271l-.706-.86c-4.129-5.024-8.03-9.771-7.719-16.414l.013-.286-.285.025c-2.438.216-4.015,1.831-5.116,3.215-3.808,4.781-7.784,12.971-7.796,19.979l-2.129-2.44-2.862,4.69c-2.763,4.528-5.059,9.567-3.32,15.768l-2.238-1.361.093.541c1.183,6.896-2.153,12.838-9.15,16.302l-1.409.697,1.556-.227c3.437-.499,6.631-2.454,8.762-5.364,1.916-2.616,2.777-5.67,2.457-8.666l3.296,2.689-.218-.766c-2.227-7.809-.329-13.192,3.741-19.76l1.961,2.224,3.715,3.873-.332-1.031c-1.265-3.934-1.412-7.248-.477-10.746,1.515-5.667,3.821-10.589,7.041-15.027.501,3.366,1.574,6.021,3.353,8.316l6.086,7.852c6.275,8.095,11.154,15.676,7.277,26.492l-.342.954.747-.687c2.345-2.154,4.521-4.065,7.286-5.549.19,1.924.571,3.568,1.22,5.286,1.392,3.68,4.107,12.89-.725,18.92l-.319.397,2.144.035c-1.603,4.395-3.551,7.47-6.289,9.939-4.936,4.453-13.252,6.807-19.624,2.714-1.931-3.282-4.196-6.525-8.636-7.136-3.139-.43-6.308.37-8.697,2.197-2.177,1.664-3.599,4.091-4.025,6.856-.641-.077-1.174.307-1.584.754-.309-2.631-1.005-4.635-2.172-6.269l-7.15-10.014c-2.383-3.338-4.128-6.455-5.658-10.104l-.124-.295c.524-.006,1.052-.03,1.585-.091,3.91-.446,7.517-2.596,9.648-5.752,2.431-3.6,2.951-7.771,1.504-12.061-1.43-4.238-4.296-7.372-7.069-10.402-1.956-2.139-3.979-4.351-5.532-6.964l-.216-.364-.214.365c-1.578,2.69-3.568,4.797-5.493,6.834-1.997,2.113-4.061,4.299-5.727,7.17-2.568,4.427-3.026,9.3-1.256,13.371,2.112,4.857,7.02,7.883,12.551,7.902l-.12.287c-1.793,4.283-4.171,7.68-6.689,11.276-.33.472-.662.944-.993,1.422l-5.457,7.861c-1.265,1.823-1.733,3.903-2.052,5.916l-.609-.702c-.192-.22-.54-.155-.908-.089-.007,0-.015.003-.022.004-.386-3.066-2.336-5.925-5.258-7.689-2.886-1.743-6.309-1.933-10.174-.566-3.108,1.099-4.574,3.829-5.868,6.239l-.126.235c-5.511,3.157-14.39,2.834-20.763-3.903-2.18-2.305-3.714-4.969-5.094-8.86l2.053.071-.341-.425c-4.649-5.81-2.382-14.502-.617-19.165.644-1.7,1.002-3.273,1.181-5.193,2.708,1.458,4.924,3.425,7.516,5.827l.857.794-.457-1.075c-2.868-6.751-1.379-14.554,4.191-21.973l6.121-8.153c2.951-3.931,5.746-7.653,6.245-12.802,3.559,4.946,5.987,10.497,7.219,16.511.58,2.83.412,5.605-.561,9.28l-.254.961,3.59-3.84,1.893-2.065,2.653,4.974c2.435,4.566,2.744,9.929.871,15.102l-.313.865,3.476-2.887c-.219,6.67,4.465,12.477,11.103,13.638l1.616.283-1.459-.752c-6.895-3.55-10.187-9.624-8.805-16.246l.114-.544-2.358,1.351c1.419-5.755-.751-11.233-2.866-14.865l-3.17-5.444-.226.177c-.775.606-1.45,1.389-2.066,2.188-.292-7.214-3.587-15.344-8.513-20.909-1.452-1.641-2.914-2.375-4.468-2.243l-.258.021.031.257c.745,6.283-3.335,11.463-7.281,16.472-.347.44-.692.878-1.03,1.312-5.869,7.539-10.673,14.472-9.967,22.729-1.854-1.445-3.775-2.67-6.325-2.694l-.306-.003.059.301c.435,2.239.161,4.339-.914,7.021-1.41,3.515-4.288,12.366-.85,19.188-.424.247-.82.482-.755.829ZM88.06,146.582c.701-4.022,4.333-6.871,8.487-6.574,3.866.286,7.268,2.685,8.878,6.26.961,2.136.713,4.479-.678,6.292l-2.869,4.651c.139-3.644-1.216-6.978-3.8-9.266-1.76-1.558-3.825-2.351-5.943-2.351-1.359,0-2.74.326-4.075.987ZM144.175,145.837c1.239-2.47,4.192-5.487,8.44-5.864.243-.021.487-.032.729-.032,1.916,0,3.786.666,5.22,1.877,1.41,1.191,2.311,2.816,2.568,4.616-2.611-1.317-5.716-1.161-8.406.451-3.362,2.114-5.111,5.528-5.207,10.155l-3.624-5.878c-.838-1.36-.737-3.301.279-5.325ZM116.129,112.836c-1.426-2.768-1.45-5.672-.075-8.878,1.128-2.63,3.021-4.704,5.025-6.9.296-.324.592-.648.886-.976l2.877-3.2,4.765,5.335c1.804,2.021,3.754,4.505,4.54,7.607.823,3.247-.069,6.74-2.326,9.117-2.366,2.491-5.853,3.501-9.328,2.705h0c-2.761-.636-5.14-2.435-6.365-4.811Z"/>
      <path d="M117.11,87.21l1.682-.493-1.753.003h-.043c-6.587,0-11.781-2.17-15.435-6.449-4.649-5.446-6.083-13.155-3.744-20.118.58-1.727,1.316-3.297,2.027-4.816,1.523-3.251,2.965-6.327,2.437-10.144,3.401,1.228,5.762,3.385,8.469,6.06l.951.939-.547-1.22c-2.915-6.498-2.733-13.331.527-19.758,1.781-3.512,4.077-6.508,6.299-9.406,2.717-3.545,5.289-6.901,6.966-11.085,1.173,2.84,2.595,5.326,4.447,7.78l5.509,7.306c6.055,8.029,7.415,16.934,3.829,25.073l-.59,1.338,1.001-1.066c2.66-2.834,5.114-4.955,8.342-6.035-.365,2.294-.061,4.608.887,6.721l3.01,6.707c3.198,7.126,1.778,15.925-3.533,21.896-3.924,4.411-9.269,6.559-15.048,6.052l-1.336-.118,1.204.592c1.468.721,2.976.976,4.423.976,1.592,0,3.11-.309,4.418-.645,5.011-1.287,9.224-4.618,11.861-9.38,3.101-5.599,3.76-12.688,1.754-18.989l-3.272-7.412c-1.447-3.277-1.63-6.356-.559-9.414l.101-.288-.302-.042c-3.13-.444-5.471.701-7.509,2.111.785-4.825-.195-9.903-2.996-15.515-2.126-3.544-4.118-6.416-6.271-9.037-4.432-5.399-7.426-11.404-9.153-18.357l-.242-.975-.243.975c-1.757,7.049-4.586,12.707-9.172,18.344-5.292,6.507-10.537,14.486-9.528,24.468-2.582-1.652-4.682-2.468-7.423-1.873l-.287.062.107.272c1.123,2.867,1.092,5.643-.091,8.25l-2.646,5.835c-3.463,7.635-2.896,16.243,1.514,23.029,4.472,6.879,12.491,10.033,19.957,7.848Z"/>
      <path d="M185.467,146.056l-.17.319c-1.126,2.118-2.099,3.948-3.794,5.719l-4.751,4.967c-6.786,7.093-11.433,18.963-5.603,28.265l.73,1.164-.273-1.347c-2.578-12.713,2.293-20.79,10.4-29.007,1.708-1.73,3.083-3.454,4.093-5.129l3.855,8.3-.262-1.726c-.598-3.946-.414-7.091.595-10.197,1.983-6.104,4.842-11.918,8.502-17.293.665,2.361,1.266,4.41,2.591,6.233l5.051,6.949c1.741,2.395,3.414,4.771,4.752,7.511,3.017,6.18,3.46,13.069,1.246,19.4l-.356,1.021,1.676-1.662c1.922-1.916,3.595-3.585,5.624-4.929.207,2.137.55,3.903,1.478,5.883,4.535,9.669,5.163,17.331,1.866,22.769l-.212.35,1.905.138c-1.857,7.449-6.015,13.286-11.732,16.456-5.138,2.85-11.116,3.267-17.286,1.204l-1.335-.445,1.099.878c4.828,3.857,10.881,3.514,15.292,2.755-6.216,5.74-14.975,7.032-23.061,3.348l-1.796-.818,1.535,1.24c3.302,2.669,7.086,3.97,10.934,3.97,5.678,0,11.497-2.833,16.117-8.285l.207-.244-1.292-.641c7.994-3.607,13.348-11.342,14.726-21.312l-.005-.214-.193-.068c-.246-.086-.638-.223-.783-.321l.402-.877c2.296-7.54-.751-15.365-3.788-22.108-1.172-2.603-1.507-4.786-1.121-7.299l.046-.3-.303.012c-2.173.084-3.819,1.228-5.398,2.582.617-5.305-.595-10.781-3.535-15.9l-7.249-10.235c-2.382-3.363-4.632-6.541-4.793-11.457l-.008-.261-.26.02c-1.463.105-2.987,1.066-4.181,2.637-4.411,5.804-8.017,13.39-9.486,19.922l-1.699-1.933Z"/>
      <path d="M22.517,191.052c.038.06.096.148.14.225l-1.004.419.024.188c1.281,10.121,6.63,17.854,14.711,21.309l-1.371.697.217.242c2.662,2.969,4.98,4.82,7.755,6.192,2.726,1.346,5.604,2.007,8.4,2.007,3.974,0,7.777-1.336,10.723-3.938l1.234-1.09-1.502.674c-5.657,2.54-11.526,2.736-16.955.573-2.328-1.153-4.261-2.387-6.014-3.845,6.543,1.072,11.375.177,15.151-2.803l1.151-.909-1.388.477c-7.242,2.485-14.356,1.354-20.032-3.183-4.368-3.492-7.374-8.561-8.706-14.672l2.042.184-.279-.431c-4.158-6.414-1.583-15.338,1.31-21.695,1.127-2.476,1.734-4.609,1.943-6.851,2.695,1.879,4.688,3.845,6.442,5.695l.738.778-.318-1.024c-3.394-10.945-.387-18.092,6.349-27.45l4.752-6.604c1.304-1.813,1.898-3.953,2.462-6.029,3.911,6.097,6.656,11.935,8.385,17.831.958,3.264.811,6.375.578,9.282l-.107,1.346,3.699-7.74c1.612,2.576,3.434,4.533,5.356,6.6,2.079,2.234,4.229,4.545,6.129,7.743,3.534,5.947,4.601,12.711,3.085,19.56l-.318,1.438.775-1.252c5.115-8.268,1.72-18.268-2.742-24.318-2.074-2.812-4.442-5.256-6.89-7.72-1.973-1.983-3.209-3.91-4.678-6.566l-.144-.26-.231.186c-.642.515-1.069,1.046-1.512,1.755-1.304-6.339-5.208-14.719-9.449-20.209-1.043-1.352-2.381-2.178-3.869-2.392l-.273-.04-.012.276c-.243,5.617-3.296,9.56-6.529,13.733-5.46,7.05-9.918,13.728-9.121,23.872-1.639-1.334-3.024-2.359-5.327-2.496l-.319-.019.059.314c.614,3.287-.381,6.026-1.548,8.497-3.998,8.465-5.062,15.563-3.166,21.099.03.087.094.188.195.344Z"/>
      <path d="M156.144,245.771c-.033-3.086-.577-6.097-1.714-9.474l-.109-.322-1.165.849c.714-4.882-2.873-9.815-6.326-14.084l-4.624-5.717-1.215,1.484c-.453-4.853-4.011-8.891-7.457-12.801-.328-.372-.654-.741-.975-1.11l-4.547-5.215c-1.235-1.416-2.134-3.127-3.004-4.782l-.22-.42-.222.419c-1.796,3.394-4.601,6.471-7.314,9.445-3.958,4.34-8.046,8.824-8.962,14.32l-1.3-1.379-4.425,5.54c-3.311,4.145-7.399,9.263-6.493,14.475l-1.255-.898-.114.307c-4.424,11.86-.125,23.808,10.222,28.408l1.79.796-1.533-1.22c-7.495-5.965-10.668-15.342-8.332-24.544l2.698,1.802-.242-.702c-2.187-6.333,2.419-12.708,6.696-17.579l1.492-2.213,3.354,4.205-.203-1.012c-1.293-6.453,2.792-11.296,7.116-16.424,2.743-3.252,5.574-6.608,6.983-10.458.471,1.512.974,2.944,2.016,4.268l6.205,7.883c3.692,4.686,6.881,8.732,5.646,14.734l-.204.992,3.392-4.136,1.748,2.491c4.1,4.823,8.531,11.099,6.378,16.865l-.222.596,2.527-1.265c2.244,9.108-.819,18.242-8.23,24.488l-1.371,1.155,1.635-.736c7.304-3.29,11.968-10.761,11.88-19.032Z"/>
      <path d="M163.031,217.215c4.737-.495,8.78-2.1,12.11-3.604,2.169-.98,4.306-1.052,6.017-.201,1.605.798,2.452,2.254,2.516,4.326l.014.441.371-.239c4.091-2.629,6.012-7.359,4.78-11.771-1.271-4.55-5.415-6.736-7.138-7.465-3.513-1.484-7.329-1.105-11.34,1.128-.646.359-1.277.729-1.904,1.095-2.033,1.188-3.972,2.32-6.206,3.03,6.813-5.256,8.605-13.747,4.762-22.997-1.713-4.122-3.881-6.923-6.823-8.813l-.446-.287.649,5.463c-.483,11.189-8.612,19.774-20.227,21.363l-2.3.315,2.315.182c5.77.462,11.547-1.669,15.852-5.827,4.224-4.079,6.604-9.645,6.616-15.396,2.227,3.921,3.403,7.847,3.498,11.68.185,7.474-4.619,13.527-11.955,15.064-4.298.9-8.709.49-13.88-1.292l-1.618-.558,1.391.997c4.927,3.532,11.182,4.879,18.088,3.896,5.334-.759,9.708-3.158,13.638-5.638,3.062-1.932,8.02-3.184,11.915-.356,2.015,1.462,3.24,3.66,3.45,6.189.217,2.604-.665,5.189-2.427,7.17-.451-2.156-1.972-3.761-4.151-4.341-2.319-.619-4.886-.296-7.63.956-9.776,4.464-20.434,4.245-30.012-.615l-1.953-.991,1.679,1.405c5.356,4.483,12.582,6.501,20.349,5.692Z"/>
      <path d="M69.411,212.912c1.935-.271,3.947.543,6.492,1.564,2.099.843,4.477,1.798,7.351,2.341,8.485,1.598,16.401-.041,22.288-4.623l1.562-1.216-1.815.789c-9.35,4.065-19.003,4.247-27.918.522-1.99-.832-4.138-1.628-6.361-1.814-3.132-.261-5.848,1.582-6.765,4.53-3.229-4.069-3.019-9.44.562-12.661,2.917-2.626,7.488-2.849,11.643-.571l6.519,3.574c8.695,4.094,18.37,3.646,25.881-1.197l1.383-.892-1.585.44c-5.45,1.517-10.083,2.219-14.976.735-6.793-2.061-11.122-8.13-10.773-15.102.198-3.95,1.392-7.739,3.646-11.557l.081,3.528c1.723,10.868,11.547,18.734,22.359,17.902l2.18-.167-2.161-.329c-8.557-1.305-15.054-5.846-18.293-12.788-2.046-4.385-2.52-8.744-1.447-13.328l.138-.591-.514.322c-3.436,2.151-5.179,5.213-6.431,7.924-4.331,9.381-2.651,18.309,4.334,23.683-2.096-.734-3.992-1.788-5.838-2.814-4.242-2.358-8.247-4.589-13.712-2.318-3.438,1.427-6.023,4.301-6.914,7.688-1.156,4.396.832,9.068,4.948,11.626l.454.283-.075-.53c-.175-1.237.1-2.411.775-3.304.677-.896,1.735-1.482,2.979-1.651Z"/>
      <path d="M137.624,285.446l-6.609-8.275c-2.308-2.888-4.489-5.615-6.018-9.09l-.187-.425-4.924,7.614-6.685,7.903c-1.674,1.979-2.742,4.219-3.048,6.368l-1.515-1.842-4.168,5.235c-3.158,3.966-5.031,7.854-5.728,11.883-1.229,7.107,1.337,13.906,6.695,17.743l1.447,1.036-1.106-1.395c-6.687-8.436-6.078-18.636,1.685-28.004l1.501-2.211c.88,1.391,1.903,2.61,3.12,3.72l.587.535-.175-.774c-.753-3.341-.146-6.362,1.758-8.739l5.175-6.462c1.858-2.319,3.95-4.931,5.282-8.189,1.168,2.905,2.969,5.258,4.867,7.738.275.359.552.721.828,1.086l5.271,6.964c1.295,2.517,1.592,4.802.996,7.643l-.199.949,3.801-4.406c8.998,10.596,10.135,20.345,3.481,29.798l-1.046,1.485,1.408-1.148c3.946-3.217,6.241-7.447,6.638-12.236.5-6.035-1.989-12.652-6.821-18.143l-3.343-4.199-1.487,2.023c-.223-1.521-.57-3.042-1.482-4.186Z"/>
      <path d="M168.77,313.781c-.84-7.259-5.236-13.088-11.759-15.594l-.494-.189.167.502c3.824,11.469-1.05,23.521-11.337,28.037l-2.053.9,2.201-.427c4.587-.89,8.619-3.763,11.353-8.091,3.078-4.872,4.16-11.007,2.951-16.562,2.609,2.318,4.479,5.208,5.562,8.602,2.018,6.319-.435,12.849-6.102,16.246-3.711,2.225-7.902,3.258-12.456,3.074-2.92-.189-5.622-.915-8.483-1.683l-2.859-.759,1.377.868c5.086,3.211,11.457,4.187,17.476,2.677,5.587-1.4,10.141-4.751,12.836-9.44,1.927-.667,3.946-.523,5.694.406,1.858.987,3.238,2.79,3.785,4.946.754,2.971.041,6.175-2.065,9.296-.359-1.248-1.196-2.293-2.446-3.047-1.926-1.161-4.591-1.439-6.788-.705l-5.969,1.99c-10.387,3.462-18.231,2.029-27.98-5.114l-.881-.646.513.965c1.005,1.891,2.514,3.072,3.973,4.121,5.209,3.743,11.438,5.344,18.008,4.644,3.565-.384,6.348-1.405,8.804-2.307,2.592-.952,4.831-1.775,7.193-1.517,1.57.169,3.325,1.142,3.467,2.877.163,1.992-1.189,3.294-2.838,4.67l-.749.626.958-.188c2.067-.405,3.49-1.805,4.88-3.17,3.72-3.656,5.338-8.096,4.557-12.501-.595-3.355-2.587-5.968-5.466-7.165-2.101-.876-4.186-.784-6.075.255.842-2.28,1.167-4.339,1.048-6.597Z"/>
      <path d="M81.591,334.919c2.237.294,4.285,1.061,6.455,1.872l.201.075c6.376,2.38,12.698,2.708,18.803.968,3.816-1.307,8.542-3.38,11.238-7.853l.685-1.137-1.052.81c-9.826,7.564-19.269,8.89-30.628,4.296-2.287-.832-4.879-1.775-7.603-1.375-2.591.379-4.408,1.861-5.059,4.097-1.887-2.529-2.683-5.567-2.244-8.608.333-2.308,1.625-4.311,3.545-5.495,1.763-1.089,3.814-1.341,5.787-.711,2.64,4.63,7.143,7.978,12.691,9.433,5.953,1.563,12.243.715,17.259-2.323l1.414-.856-1.698.424c-4.228,1.054-8.222,2.051-12.546,1.598-5.88-.616-10.855-3.176-13.651-7.021-2.182-3.001-2.894-6.662-2.061-10.59.819-3.863,2.842-7.327,5.868-10.061-1.71,8.206,1.212,16.421,7.733,21.591,2.052,1.627,4.277,2.628,6.613,2.974l1.843.273-1.706-.749c-10.191-4.477-15.274-17.039-11.333-28.005l.188-.524-.517.207c-4.76,1.915-8.468,5.676-10.439,10.589-1.565,3.763-1.689,7.593-.37,11.393-1.645-.73-3.074-.851-4.567-.394-4.001,1.224-6.578,4.774-6.726,9.267-.134,4.064,1.689,7.979,5.134,11.024.188.166.374.336.56.506,1.138,1.039,2.315,2.114,3.987,2.365l.906.136-.711-.577c-1.696-1.377-3.349-3.071-2.746-5.194.5-1.759,2.857-2.677,4.747-2.423Z"/>
      <path d="M141.805,240.386c-1.278-3.514-3.139-6.303-5.11-9.254l-.58-.871c-1.738-2.615-3.885-5.69-6.632-8.666-2.192-2.372-3.576-4.631-4.487-7.324l-.224-.664-.247.656c-1.096,2.918-2.585,5.272-4.83,7.635-2.18,2.293-3.875,4.759-5.671,7.368l-.789,1.144c-1.924,2.775-3.913,5.646-5.326,9.015-3.27,7.797-1.148,16.532,5.282,21.737,3.342,2.706,7.414,4.068,11.486,4.068,3.742,0,7.485-1.151,10.657-3.47,6.731-4.919,9.331-13.509,6.47-21.374ZM123.396,231.424c.417-.031.832-.046,1.243-.046,4.599,0,8.782,1.93,11.885,5.514,4.311,4.98,5.134,11.76,2.146,17.691-2.822,5.605-8.679,8.996-14.924,8.621-5.486-.321-10.474-3.587-13.018-8.522-2.719-5.277-2.335-11.427,1.029-16.45,2.623-3.916,6.974-6.461,11.638-6.808ZM113.155,233.189c.638-1.105,1.413-2.058,2.217-3.009l6.555-7.76,2.783-4.517c.771,1.844,1.619,3.271,2.646,4.463l5.261,6.104c1.375,1.596,2.788,3.235,4.021,5.127-3.515-3.062-7.671-4.604-11.875-4.604-3.995,0-8.034,1.393-11.607,4.194Z"/>
      <path d="M116.086,189.343c2.615,1.711,5.598,2.557,8.582,2.556,3.515,0,7.031-1.173,9.943-3.49,5.252-4.177,7.309-11.08,5.241-17.588-.866-2.723-2.242-5.405-4.091-7.974l-6.111-8.488c-1.978-2.747-3.575-5.094-4.625-8.173l-.236-.691-.237.691c-1.272,3.705-3.132,6.484-4.784,8.714-.369.498-.747.984-1.124,1.471-1.497,1.929-3.045,3.924-3.907,6.519l-.069.209-.445.372c-1.524,1.274-2.277,2.653-3.147,4.249l-.104.189c-4.152,7.6-1.954,16.814,5.112,21.435ZM122.071,162.94c.895-.189,1.797-.282,2.692-.282,2.891,0,5.718.97,8.035,2.804,4.107,3.25,6.029,8.036,5.274,13.13-.716,4.829-3.996,8.908-8.562,10.646h0c-5.258,2.003-11.274.474-14.971-3.804-3.704-4.286-4.354-10.369-1.657-15.496,1.901-3.614,5.25-6.165,9.188-6.998ZM114.673,163.608l.477-.461c2.979-2.881,5.308-5.946,7.828-9.366.728-.988,1.247-2.094,1.827-3.363,1.289,2.975,3.45,5.484,5.73,8.134,1.681,1.953,3.409,3.96,4.787,6.198-2.958-2.684-6.761-4.196-10.655-4.183-3.962.007-7.636,1.521-10.475,4.29l.48-1.249Z"/>
      <path d="M118.226,325.667c2.085.965,4.292,1.434,6.467,1.434,4.051,0,7.994-1.623,10.851-4.685,4.46-4.782,5.358-11.597,2.288-17.359-2.312-4.339-5.278-8.495-9.335-13.08-1.749-1.976-2.755-4.165-3.581-6.237l-.248-.622-.22.633c-.935,2.688-2.541,4.812-4.093,6.867l-5.877,7.776c-2.162,2.86-4.229,6.08-4.707,10.229-.717,6.222,2.76,12.408,8.455,15.044ZM123.483,300.037c.422-.043.841-.063,1.257-.063,5.661,0,10.637,3.868,12.1,9.59,1.543,6.036-1.646,12.388-7.418,14.773-4.116,1.7-8.738,1.097-12.361-1.616-3.47-2.598-5.426-6.948-4.984-11.082.667-6.221,5.356-10.991,11.405-11.602ZM115.597,301.005c1.224-1.575,2.507-2.972,3.758-4.332,1.002-1.091,2.039-2.219,3.045-3.447l2.31-3.904c.55,1.505,1.332,2.86,2.329,4.037l6.126,7.222c-5.553-3.721-12.109-3.571-17.568.425Z"/>
      <path d="M138.871,343.569l-.443-.307c-4.922-3.411-7.571-8.198-9.513-12.432l-.789-1.719.315,1.865c.836,4.95,3.062,9.037,6.45,11.852-4.346,1.131-7.913,3.839-10.128,7.69-1.848-3.653-5.617-6.505-10.236-7.74,3.435-2.975,5.798-7.465,6.205-11.837l.15-1.613-.63,1.493c-2.24,5.314-5.338,9.526-9.207,12.52l-.405.312.496.127c5.164,1.322,9.132,3.521,12.44,6.898-3.809.38-7.094,2.241-9.072,5.159-2.284,3.37-2.731,7.42-1.226,11.111,1.478,3.623,4.23,6.166,7.75,7.159,1.584.448,2.657,1.352,3.59,3.021l.257.46.194-.49c.724-1.827,1.864-2.488,3.714-3.068,5.264-1.649,8.847-7.074,8.335-12.618-.534-5.782-5.09-10.129-11.16-10.728,3.173-3.307,7.233-5.592,12.393-6.978l.521-.14ZM132.508,355.846c2.661,3.098,3.22,7.573,1.392,11.135-1.803,3.513-5.244,5.7-8.98,5.709h-.025c-3.872,0-7.266-2.029-9.083-5.433-1.445-2.707-1.569-5.915-.34-8.802,1.233-2.896,3.645-5.038,6.618-5.878.891-.252,1.794-.374,2.689-.374,2.897,0,5.705,1.287,7.729,3.643Z"/>
      <path d="M229.632,230.474c-1.177-2.758-1.687-5.429-2.063-7.903l-.127-.841-.348.775c-1.712,3.82-4.415,6.794-8.507,9.356-1.659,1.039-2.865,2.379-3.756,4.185l-.709-2.385-.298.329c-1.519,1.677-2.858,2.752-4.62,3.713-7.682,4.189-11.985,11.571-10.963,18.807l.22,1.555,1.032-5.834c1.612-5.327,5.282-9.75,10.612-12.792,1.395-.795,2.502-1.78,3.584-2.814l1.035,2.351.231-.508c1.117-2.455,3.212-3.849,5.429-5.324,2.195-1.46,4.461-2.968,6.012-5.622l1.675,5.342c1.751,5.586,2.415,10.28-.038,15.029l-.289.56,3.966-1.397c-.375,1.365-.678,2.599-.7,4.067-.079,5.362-1.873,10.206-5.186,14.01-2.137,2.453-4.759,3.878-7.534,5.386l-1.582.859,1.756-.396c8.6-1.94,14.615-9.788,14.627-19.084.003-2.566.089-4.284,1.252-6.506l.233-.445-.495.082c-1.186.197-2.248.47-3.455.893,1.918-4.209,1.583-9.401-.996-15.446Z"/>
      <path d="M51.021,257.834l.233-1.967c.628-5.293-1.992-13.261-11.446-18.295-1.623-.864-2.739-1.816-4.118-3.514l-.288-.354-.697,2.104c-.865-1.325-2.063-2.861-3.822-3.91-4.098-2.443-6.891-5.53-8.536-9.436l-.355-.844-.123.907c-.409,3.027-.99,5.331-1.942,7.702-1.985,4.94-3.481,10.234-1.128,15.549l-3.712-.778.178.436c.67,1.642,1.058,2.867,1.19,4.601-.302,4.479.858,9.194,3.182,12.936,2.509,4.038,6.231,6.755,10.48,7.65l1.95.41-1.788-.88c-6.947-3.417-11.194-9.843-11.652-17.629-.113-1.914-.337-3.462-.787-5.388l3.91,1.339-.268-.543c-2.868-5.818-1.547-10.137-.147-14.708.221-.724.445-1.455.655-2.2l.967-3.429c1.396,2.003,2.688,3.353,4.15,4.341l5.245,3.545c1.036.7,1.731,2.036,2.274,3.251l.229.513,1.032-2.336,4.392,3.273c5.895,3.667,9.616,9.239,10.479,15.691l.263,1.963Z"/>
      <path d="M169.875,106.022c-1.514-2.045-2.474-4.093-3.449-6.539l-.276-.69-.198.717c-.901,3.272-2.548,5.758-5.183,7.822-.887.695-1.85,1.662-2.687,2.692l-1.4-3.219-.242.466c-.981,1.89-1.63,3.138-2.861,4.599-6.268,7.432-7.406,15.312-3.125,21.622l.919,1.354-.473-1.567c-2.101-6.961-1.271-12.104,2.96-18.345l2.98-4.396,1.037,2.083.246-.279c1.035-1.179,2.227-2.06,3.379-2.912,1.838-1.36,3.58-2.648,4.727-5.018l3.76,5.96c2.292,3.596,4.102,6.437,2.934,11.529l-.109.476,3.192-1.343.45,3.772c1.449,6.315-1.482,12.626-7.296,15.704l-1.836.972,2.014-.509c3.443-.869,6.29-3.104,8.014-6.292,1.896-3.505,2.242-7.875.926-11.69-.453-1.312-.455-2.246-.289-3.845l.041-.395-3.054,1.091c1.214-5.288-1.994-9.624-5.1-13.82Z"/>
      <path d="M97.763,135.145l.977-1.339c4.413-6.048,3.442-14.407-2.474-21.298-1.319-1.535-2.22-3.026-3.015-4.985l-.198-.487-1.731,3.152c-.76-.942-1.712-2.035-2.684-2.758-2.527-1.876-4.133-4.287-5.208-7.82l-.203-.668-.267.646c-.901,2.18-1.969,4.504-3.664,6.732-3.3,4.339-6.151,8.647-4.898,13.595l-2.833-1.088-.205,3.635c-1.509,3.973-1.272,8.515.636,12.159,1.701,3.249,4.55,5.508,8.021,6.359l1.897.465-1.719-.928c-6.044-3.264-8.902-9.834-7.104-16.388l.344-3.101,3.264,1.436-.138-.505c-1.41-5.172.635-8.264,3.003-11.844.352-.532.709-1.071,1.058-1.625l2.51-3.977c1.428,2.555,3.049,4.177,5.214,5.227l3.219,2.956,1.086-2.124,2.527,3.903c2.848,3.78,4.338,7.696,4.431,11.646.132,2.819-.551,5.249-1.308,7.455l-.539,1.567Z"/>
      <path d="M204.181,161.843c-1.543-2.063-2.535-4.098-3.727-6.916l-.327-.773-.149.827c-.675,3.738-2.452,6.832-5.432,9.455-2.297,2.02-3.576,4.12-3.91,6.42l-.188,1.289.652-1.128c1.074-1.861,2.599-3.173,4.213-4.562,1.998-1.72,4.061-3.494,5.155-6.384l2.607,4.37c3.44,5.767,5.518,10.018,3.152,16.316l-.215.571,4.339-2.01c-.037,1.721.056,3.307.546,5.246,2.11,8.346-2.062,16.47-10.144,19.756l-1.733.704,1.857-.225c5.203-.629,9.593-4.286,11.745-9.781,1.475-3.766,1.454-8.119-.059-12.587-.526-1.624-.571-2.952-.168-4.9l.083-.402-.395.11c-1.434.401-2.489.857-3.58,1.434,2.548-6.476-1.215-12.678-4.322-16.831Z"/>
      <path d="M36.258,193.688c1.728,6.256,6.961,10.819,13.021,11.355l2.127.188-2.026-.675c-8.704-2.896-13.263-11.407-10.841-20.235.434-1.581.547-2.951.574-4.83l4.009,1.812-.191-.55c-2.37-6.802.276-11.294,3.339-16.495l2.458-4.173c.792,2.13,2.425,3.841,4.308,5.678l5.339,5.208-.094-.715c-.266-2.024-1.401-3.877-3.47-5.663-3.071-2.65-4.874-5.675-5.675-9.518l-.174-.838-.304.8c-1.109,2.919-2.379,5.271-4.119,7.625-2.001,2.707-6.283,9.565-3.825,15.902l-3.801-1.453.092.447c.418,2.036.367,3.305-.205,5.024-1.327,3.989-1.504,7.621-.542,11.104Z"/>
      <path d="M68.3,324.124l1.102-.972c2.491-2.198,2.957-5.845,2.562-8.525-.655-4.453-3.886-8.184-8.431-9.735-3.964-1.354-7.588-.768-11.425-.146-2.39.387-4.862.79-7.52.724l-.534-.013.333.418c1.386,1.743,2.127,3.856,2.333,6.656.434,4.515,1.65,7.889,3.826,10.619,2.179,2.733,5.524,4.524,8.948,4.792.296.023.591.035.884.035,2.624,0,5.064-.926,6.947-2.651l1.25-1.146-1.528.736c-6.061,2.922-12.469,1.203-15.585-4.18-1.597-2.761-1.93-5.241-2.252-7.641-.251-1.875-.49-3.652-1.313-5.423l8.805-1.324c3.944-.593,7.581.367,10.235,2.708,3.987,3.515,4.805,8.926,2.083,13.786l-.718,1.281Z"/>
      <path d="M204.909,305.841l.37-.438-.572.026c-2.752.133-5.287-.293-7.737-.7-3.002-.498-5.837-.97-8.914-.461-5.047.839-9.05,4.191-10.445,8.752-1.169,3.818-.376,7.706,2.067,10.145l.85.849-.441-1.117c-.916-2.319-1.78-4.511-1.484-6.938.776-4.938,4.191-8.594,8.911-9.541,2.913-.586,5.389-.069,8.01.477,1.869.39,3.793.775,5.893.754-.978,1.732-1.209,3.596-1.453,5.56-.269,2.167-.547,4.408-1.805,6.86-3.068,5.978-9.79,8.01-15.982,4.829l-1.336-.686,1.041,1.082c1.685,1.749,4.08,2.667,6.761,2.667,1.186,0,2.429-.18,3.69-.546,4.035-1.174,7.178-4.244,8.85-8.646.396-1.042.648-2.058.837-3.055l.943.034c2.239.08,3.981.395,5.828,1.049l2.758.979c-.987.745-1.959,1.556-2.588,2.512-4.873,7.407-11.017,10.87-18.801,10.59l-1.716-.062,1.627.549c1.28.432,2.568.611,3.827.611,3.132,0,6.083-1.114,8.258-2.234,3.05-1.572,5.701-4.065,8.105-7.623,1.604-2.374,3.062-3.816,4.726-4.677l.498-.257-4.391-1.661c-2.427-.919-5.303-1.669-8.232-.25l-.837.405c.167-.884.285-1.753.398-2.608.344-2.611.669-5.077,2.483-7.228Z"/>
      <path d="M56.541,201.476c2.305,0,4.359-.702,5.938-2.082l2.967-2.595c3.472-3.827,3.781-9.64.751-14.136-2.921-4.336-8.185-6.288-13.099-4.858-3.235.942-5.962,3.21-7.479,6.224-1.504,2.984-1.708,6.478-.561,9.583,1.208,3.269,3.723,5.872,6.727,6.967,1.651.601,3.256.897,4.755.897ZM46.787,186.783c.823-2.95,2.95-5.454,5.55-6.534,1.385-.575,2.773-.86,4.123-.86,1.885,0,3.694.558,5.302,1.663,4.051,2.782,5.606,7.562,3.961,12.175-1.777,4.984-7.35,7.644-12.423,5.932-5.192-1.752-7.992-7.072-6.513-12.375Z"/>
      <path d="M181.283,191.91c.517,2.536,1.892,4.559,4.46,6.558l.38.298c1.108.873,2.254,1.776,3.91,2.18,1.048.255,2.086.379,3.097.379,4.768,0,8.952-2.755,10.932-7.449,1.997-4.734.679-10.235-3.279-13.687-3.997-3.484-9.708-3.896-14.209-1.027-4.24,2.705-6.317,7.709-5.29,12.749ZM183.127,187.488c.617-3.354,3.164-6.383,6.338-7.538,1.146-.418,2.332-.623,3.506-.623,2.08,0,4.121.645,5.825,1.893,2.643,1.936,4.135,4.951,4.092,8.274-.048,3.793-2.123,7.219-5.414,8.94-3.611,1.888-7.777,1.52-10.871-.961-2.899-2.323-4.199-6.056-3.476-9.985Z"/>
      <path d="M221.99,263.499c2.275-4.15,1.947-9.212-.854-13.21-.889-1.269-1.365-2.788-1.454-4.645l-.018-.379-.341.166c-1.824.89-3.411.858-5.092.816-1.559-.036-3.326-.073-5.491.633-5.899,1.925-9.356,7.857-8.041,13.798.273,1.231.683,2.469,1.775,3.299l.419.838c1.374,2.749,4.401,4.669,7.9,5.013.342.033.678.05,1.012.05,4.612,0,8.394-3.106,10.186-6.379ZM203.277,263.953c-1.862-4.027-1.706-7.745.466-11.05,2.045-3.114,5.694-4.909,9.527-4.663,1.666.102,3.38-.075,4.869-.504.177,1.535.838,2.794,1.535,4.122,1.047,1.993,2.129,4.055,1.665,7.324-.546,3.842-3.246,7.115-6.88,8.338-4.615,1.559-8.245-.648-11.186-3.012l-.163-.131.493.278-.325-.703Z"/>
      <path d="M35.678,246.274c-2.112.181-3.721-.055-5.382-.793l-.303-.135-.046.328c-.181,1.285-.641,3.197-1.811,5.012-2.603,4.039-2.853,8.72-.688,12.842,2.031,3.866,5.91,6.324,10.123,6.416.074.002.148.002.223.002,4.089,0,7.756-2.455,9.84-6.605,1.99-3.965,1.678-8.301-.857-11.896-2.513-3.564-6.765-5.546-11.1-5.171ZM45.578,252.875c2.348,3.396,2.479,7.909.328,11.231h0c-1.232,1.903-3.526,3.108-5.263,3.603-3.827,1.088-7.93-.272-10.451-3.468-2.577-3.264-2.924-7.515-.92-11.393l2.109-5.191c1.357.536,2.85.757,4.231.626,3.991-.378,7.715,1.333,9.967,4.592Z"/>
      <path d="M187.568,277.273c2.442-1.267,5.238-1.095,8.798.543l.897.412-.593-.79c-2.707-3.607-8.319-2.975-12.678-.747l-8.385,4.244c-10.776,4.792-22.597,4.047-33.286-2.098l-1.855-1.066,1.559,1.466c5.122,4.812,11.99,7.328,19.953,7.328.615,0,1.238-.015,1.866-.045h.011c5.921-.541,11.525-2.449,17.119-5.826l6.594-3.421Z"/>
      <path d="M124.884,82.764c.548,0,1.105-.039,1.666-.12,2.865-.411,5.525-2.01,7.298-4.388,1.8-2.413,2.551-5.366,2.115-8.314-.894-6.051-6.513-10.261-12.528-9.381-3.093.451-5.781,2.044-7.567,4.483-1.77,2.417-2.476,5.391-1.99,8.375.896,5.498,5.57,9.345,11.007,9.345ZM116.067,68.992c.859-2.724,2.733-4.88,5.143-5.915,1.247-.535,2.537-.801,3.804-.801,1.63,0,3.221.439,4.634,1.312,4.407,2.721,5.856,8.175,3.371,12.686-2.352,4.271-7.298,6.004-11.761,4.118-4.348-1.833-6.628-6.84-5.19-11.399Z"/>
      <path d="M210.873,263.752c.145.011.288.017.43.017,2.731,0,4.965-1.952,5.281-4.692.207-1.796-.367-3.513-1.537-4.592-1.11-1.024-2.749-1.565-4.269-1.388-2.787.308-4.856,2.655-4.814,5.46.041,2.713,2.197,4.995,4.909,5.195Z"/>
      <path d="M125.205,31.911l-.259-.896-.224.904c-.885,3.575-2.921,6.235-4.89,8.808-2.091,2.732-4.254,5.559-5.071,9.495-.303,1.817-.477,4.185.872,6.373l.524.851-.062-.997c-.345-5.58,1.937-9.62,5.731-14.331,1.207-1.499,2.257-3.144,3.127-4.894.662,1.275,1.673,2.987,3.021,4.605,4.254,5.104,6.017,9.244,6.087,14.293l.015,1.104.462-1.004c2.527-5.496-.986-11.487-4.378-15.545-1.923-2.301-3.854-4.955-4.956-8.768Z"/>
      <path d="M188.147,322.07c.313,0,.627-.028.94-.086,1.398-.257,2.634-1.087,3.391-2.277.806-1.267,1.055-2.743.701-4.159-.338-1.353-1.192-2.475-2.405-3.159-2.529-1.426-5.752-.524-7.185,2.01-1.306,2.312-.754,5.017,1.341,6.578.965.719,2.08,1.094,3.216,1.094Z"/>
      <path d="M60.526,311.79c-1.44.189-2.685.901-3.502,2.003-.848,1.144-1.18,2.593-.934,4.082.398,2.414,2.651,4.216,5.103,4.216.23,0,.463-.017.696-.05,2.817-.397,4.803-2.973,4.428-5.739-.339-2.491-2.647-4.928-5.791-4.512Z"/>
      <path d="M162.169,135.844c.323,0,.651-.031.981-.096,2.637-.514,4.348-3.072,3.896-5.824-.195-1.188-.887-2.286-1.899-3.012-1.081-.773-2.432-1.073-3.805-.849-1.35.224-2.496.941-3.227,2.023-.762,1.127-1.024,2.564-.719,3.945.503,2.277,2.503,3.812,4.773,3.812Z"/>
      <path d="M82.452,122.319c-2.342,1.349-3.986,3.66-4.51,6.343-.511,2.616.109,5.285,1.7,7.323,1.659,2.124,4.118,3.465,6.745,3.677.25.021.499.03.748.03,2.331,0,4.558-.885,6.34-2.533,3.566-3.299,4.065-8.647,1.16-12.443-2.896-3.782-8.019-4.792-12.183-2.396ZM88.894,138.425c-2.376.445-4.672-.062-6.461-1.421-1.746-1.327-2.815-3.305-3.011-5.569-.187-2.167.566-4.354,2.066-5.999,1.484-1.628,3.504-2.532,5.688-2.546h.044c3.803,0,7.158,2.976,7.647,6.792.469,3.662-1.637,7.934-5.974,8.743Z"/>
      <path d="M171.41,128.246c-.751-3.569-3.772-6.422-7.517-7.098-4.106-.734-8.12,1.222-9.987,4.882-1.728,3.386-1.409,8.357,2.114,10.816l.659.46.035.036c1.574,1.644,3.528,2.311,5.481,2.311,1.881,0,3.761-.618,5.302-1.58,3.162-1.972,4.734-5.921,3.913-9.827ZM156.414,136.577l-.033-.059c-1.307-2.322-2.421-4.656-1.71-7.651.563-2.377,2.148-4.323,4.349-5.342,3.452-1.595,7.534-.389,9.706,2.875,2.148,3.228,1.603,7.49-1.294,10.136-2.767,2.525-6.753,2.688-10.405.421l-.613-.38Z"/>
      <path d="M46.099,315.557l.94-.14-.887-.341c-2.229-.856-4.684-.712-7.729.454l-4.355,1.668.442.264c2.13,1.271,3.474,3.086,4.896,5.008,1.482,2.003,3.016,4.074,5.621,5.96,3.215,2.328,6.794,3.542,10.255,3.541,1.408,0,2.797-.2,4.133-.608l1.828-.559-1.91.069c-7.774.269-14-3.135-18.528-10.154l-2.885-2.935,2.769-.992c1.715-.614,3.341-.928,5.408-1.235Z"/>
      <path d="M137.113,81.466l1.356-.823c5.702-3.465,6.899-10.229,5.553-15.405-.807-2.628-1.947-4.83-3.571-6.909-.814-1.319-1.173-2.475-1.279-4.121l-.021-.319-.305.098c-1.657.531-3.203,1.99-3.937,3.718l-.342.805,3.082-2.164c.391,1.643,1.074,3.189,2.185,4.961,3.813,6.077,3.167,13.342-1.684,18.961l-1.037,1.2Z"/>
      <path d="M110.545,60.596c.783-1.28,1.321-2.646,1.639-4.166l2.717,1.851-.267-.73c-.725-1.982-2.238-2.949-3.476-3.569l-.329-.165-.032.367c-.195,2.235-1.169,3.83-2.296,5.677-1.027,1.682-2.19,3.588-2.809,6.248-1.388,5.966,1.088,12.114,6.022,14.951l1.298.746-.985-1.127c-5.471-6.263-5.956-12.832-1.483-20.082h0Z"/>
      <path d="M195.307,293.274c-1.983,1.322-3.833,1.997-5.792,2.711-2.648.966-5.387,1.964-8.545,4.673-4.067,3.487-7.459,9.835-6.073,15.219l.384,1.492.107-1.537c.578-8.284,5.888-14.909,14.204-17.722,1.696-.573,3.203-1.312,4.592-2.251l.237,4.251.419-1.057c.672-1.693.944-3.467.856-5.582l-.018-.444-.37.247Z"/>
      <path d="M54.733,295.84c1.606.986,3.149,1.728,4.591,2.205,6.251,2.071,11.02,6.418,13.414,12.189l1.478,7.857.352-6.271c-.872-4.573-3.091-8.365-6.597-11.269-2.18-1.807-4.629-2.871-7.223-3.999-.496-.215-.994-.432-1.493-.655l-5.927-2.652-.02.364c-.109,2.083.136,3.865.75,5.451l.413,1.066.261-4.288Z"/>
      <path d="M120.232,257.659c1.454.635,2.972.94,4.469.94,3.448,0,6.782-1.622,8.94-4.578,3.003-4.114,2.834-9.737-.41-13.676-3.368-4.089-8.784-5.267-13.476-2.933-3.87,1.926-6.188,5.926-6.052,10.439.129,4.279,2.692,8.128,6.529,9.807Z"/>
      <path d="M123.605,186.591c.371.039.741.059,1.107.059,2.403,0,4.68-.839,6.506-2.414,2.135-1.843,3.427-4.521,3.543-7.349.11-2.691-.904-5.36-2.784-7.321-1.898-1.98-4.458-3.073-7.206-3.077h-.015c-5.244,0-9.629,4.128-9.986,9.403-.368,5.436,3.513,10.135,8.835,10.699Z"/>
      <path d="M124.654,321.882c1.573,0,3.157-.417,4.585-1.277,3.496-2.105,5.179-6.44,4.004-10.309-1.227-4.036-4.966-6.66-9.093-6.379-3.295.224-6.188,2.188-7.55,5.128-1.562,3.373-1.127,6.979,1.165,9.646,1.794,2.087,4.328,3.19,6.889,3.19Z"/>
      <path d="M126.646,356.953c-2.625-.849-5.402.105-6.756,2.318-1.351,2.21-1.253,4.918.249,6.899,1.105,1.457,2.879,2.289,4.707,2.289.507,0,1.017-.063,1.519-.195,2.949-.778,4.281-3.402,4.293-5.658.013-2.601-1.599-4.873-4.012-5.653Z"/>
      <path d="M57.986,195.316c3.055-.821,4.894-3.979,4.186-7.188-.329-1.49-1.225-2.766-2.522-3.59-1.359-.862-3.023-1.131-4.688-.759-1.539.347-2.829,1.277-3.63,2.62-.872,1.46-1.099,3.275-.622,4.981.702,2.507,3.068,4.149,5.663,4.149.532,0,1.074-.068,1.612-.214Z"/>
      <path d="M192.951,195.479c.514,0,1.038-.065,1.561-.201,3.035-.79,4.955-4.105,4.193-7.238-.379-1.559-1.325-2.862-2.663-3.67-1.344-.811-2.972-1.035-4.586-.627-1.599.401-2.909,1.383-3.689,2.762-.808,1.429-.986,3.187-.488,4.822.768,2.526,3.102,4.152,5.673,4.152Z"/>
      <path d="M40.404,253.671c-2.26-1.135-5.042-.507-6.471,1.466-1.23,1.698-1.472,3.728-.663,5.566.589,1.34,2.106,2.955,4.439,3.098.123.007.245.011.365.011,2.773,0,4.677-1.963,5.147-3.989.597-2.575-.509-4.989-2.817-6.151Z"/>
      <path d="M126.126,77.285c3.023-.704,4.894-3.637,4.26-6.677-.298-1.426-1.135-2.647-2.356-3.44-1.25-.811-2.78-1.072-4.309-.741-1.513.329-2.779,1.223-3.563,2.517-.789,1.302-1.012,2.887-.613,4.348.674,2.462,2.95,4.133,5.382,4.132.397,0,.799-.044,1.199-.138Z"/>
      <path d="M86.462,126.069c-1.364.22-2.519.935-3.251,2.012-.766,1.127-1.028,2.582-.718,3.992.514,2.333,2.432,3.824,4.747,3.824.334,0,.677-.031,1.025-.095,1.241-.229,2.375-.983,3.112-2.07.747-1.101,1.014-2.429.753-3.737-.45-2.255-2.743-4.392-5.668-3.926Z"/>
    </g>
  </g>
</svg>