<?xml version="1.0" encoding="UTF-8"?>
<svg id="b" data-name="Layer 2" xmlns="http://www.w3.org/2000/svg" width="384.52" height="433.16" viewBox="0 0 384.52 433.16">
  <g id="c" data-name="Layer 1">
    <g>
      <path d="M383.719,428.241c-.795-1.095-1.997-2.75-2.112-6.061-.37-10.625-7.297-19.278-16.47-20.574l-.381-.054c.028-.027.053-.048.068-.059l.085-.071c4.021-4.527,6.555-10.213,7.326-16.442.677-5.464-.255-10.676-2.769-15.492-.673-1.29-.757-2.655-.854-4.235-.024-.397-.049-.802-.084-1.217l-.057-.657-1.934,1.384c.053-1.701-.021-3.592-.604-5.361-1.824-4.937-1.866-9.985-.12-15.022l.254-.86.082-.413-.347-.114c-.819-.273-4.713,3.015-6.509,7.991-.905,2.506-2.77,4.313-5.698,5.523-5.657,2.338-8.895,6.805-8.616,11.79l-1.916-1.265c-.037-.024-.1-.072-.173-.128-.469-.359-.755-.576-1.039-.426l-.229.146.058,1.265c.081,1.764-.315,3.451-1.285,5.469-1.666,3.465-1.775,7.054-.308,10.107,1.625,3.385,4.559,5.273,8.129,5.273h.066c-2.921,4.085-6.7,6.546-11.245,7.321-6.666,1.137-14.914-1.529-22.62-7.314-13.353-10.026-22.866-26.028-27.511-46.269-4.801-22.587-4.529-45.692.794-68.629l22.174-61.151,15.068-41.785.048-.132-18.499-48.062-15.728-41.338-18.687-48.234L258.992,0l-32.493,88.383-25.097,67.745-5.657,15.02-.049.128,4.548,12.895,15.215,41.769,11.477,31.874c.346.961.698,1.918,1.05,2.874,1.814,4.927,3.69,10.021,4.481,15.354,2.041,13.757,2.047,27.464,1.75,40.226-.229,9.844-1.275,19.485-3.199,29.474-2.477,12.859-6.916,24.722-13.203,35.288.297-3.68-.231-6.861-1.629-9.898-1.028-2.235-1.104-4.285-.259-7.076l.252-.834-4.633,2.323c3.813-5.307,5.666-11.252,5.512-17.697-.085-3.53.874-6.44,3.204-9.732l.575-.812-.968.23c-3.43.815-6.068,1.792-8.74,3.261,5.958-10.175,4.18-19.548,1.441-29.851l-3.43-12.899c-1.04-3.912-.321-7.299.726-11.32l.235-.904-7.014,4.328-5.126,4.085c6-10.259,7.472-21.641,4.243-33.05-1.374-4.855-3.18-9.266-5.091-13.936l-.719-1.76c-1.69-4.15-2.516-7.695-2.599-11.118l.836-10.557-.788,1.115c-3.048,4.313-5.588,7.103-8.769,9.627-4.159,3.301-6.783,8.73-6.686,13.832.069,3.64,1.522,6.817,4.116,9.046-.019,0-.038,0-.058,0-1.536,0-3.024-.67-4.19-1.912-2.661-2.831-3.929-6.398-3.666-10.317.331-4.962,3.121-10.032,7.461-13.562,4.617-3.756,7.471-8.505,8.482-14.115,1.148-6.375.318-13.115-2.399-19.489-1.341-3.148-1.402-5.881-1.081-9.018l.101-.982-3.968,3.645c.805-3.698.784-7.506-.05-12.155-1.672-9.315-4.614-18.095-7.545-26.195l-.34-.941-2.381,6.134c-.102-5.036-.402-9.741-1.771-14.812-2.068-7.647-4.449-15.472-7.492-24.625l-11.505-34.612-10.257-29.01-6.602-17.647L123.282,1.155l-10.342,32.08c-2.18,6.758-4.526,13.288-6.597,19.049l-9.14,25.418-9.641,28.613-12.087,37.339c-1.552,4.792-2.221,9.479-2.164,15.354l-2.575-6.443-.343.897c-3.876,10.166-6.223,18.213-7.61,26.093-.835,4.74-.896,8.422-.174,12.033l-3.675-3.58.066.978c.254,3.762-.162,6.31-1.537,9.398-2.699,6.07-3.508,12.671-2.34,19.088.984,5.409,3.719,9.942,8.358,13.859,8.895,7.508,9.104,17.286,4.713,23.064-1.054,1.387-2.755,2.944-5.111,3.014,2.608-2.215,4.089-5.39,4.195-9.046.147-5.069-2.293-10.261-6.368-13.548-3.27-2.637-5.941-5.554-8.932-9.755l-.775-1.089.697,9.706c.326,4.545-1.512,8.835-3.29,12.984l-5.621,13.126c-3.593,9.718-3.348,20.165.703,29.439l2.57,4.917c-1.807-1.563-3.811-3.118-6.161-4.451l-6.672-3.782.205.843c.977,4.01,1.369,7.222.311,10.835l-4.099,13.975-2.562,10.135c-1.162,6.653-.038,13.271,3.249,19.228-2.649-1.463-5.395-2.745-8.798-3.273l-.884-.137.521.727c2.017,2.809,2.92,5.564,3.116,9.511l.291,5.779c.75,5.308,2.639,9.624,5.766,13.166l-4.755-2.786-.23-.062-.168.064c-.297.113-.578.221-.507.52l.153,3.462c.037.82-.45,1.957-1.066,3.395-1.25,2.918-2.963,6.914-2.352,12.548.729,6.708,3.573,12.618,8.235,17.122l-1.183-.121-1.451-.044c-3.935-.119-7.477.565-10.547,2.033l-.933.446c-7.96,3.812-12.648,11.616-12.554,20.886l-1.839,3.729c-.065.076-.317.295-.368.335l-.491.372c-.508.384-.702,1.551-.204,2.217.414.554,1.322.388,1.974.076l2.179-1.039,3.805-1.435c2.09,2.345,4.994,3.216,8.87,2.658,4.367-.627,6.383-4.559,6.866-5.938l.323.169c11.231,6.66,25.846,8.965,38.145,6.012,22.281-5.35,37.86-16.5,47.628-34.085,2.298-4.138,3.869-7.552,5.097-11.068,3.705-10.624,4.477-21.746,2.291-33.058-2.136-11.062-5.989-21.732-11.453-31.711-5.346-9.761-12.872-18.477-23.008-26.644-2.007-1.617-4.283-3.658-5.955-6.531-2.242-3.854-1.684-8.636,1.357-11.629,1.66-1.634,3.71-2.31,5.841-1.938-1.642,1.371-1.938,3.133-2.25,4.986l-.04.237c-.056.331-.12.66-.184.986-.311,1.588-.632,3.231.01,5.002.81,2.232,1.853,4.39,2.938,6.076l.128.122c10.646,6.136,19.406,16.276,25.336,29.326,6.245,13.744,10.26,29.015,11.933,45.388l.094.919,1.052-1.33,2.04-13.19c2.354-12.456,6.445-24.399,12.16-35.496,3.793-7.364,8.865-13.94,15.051-19.524l8.63-6.479.083-.087c1.023-1.487,2.012-3.652,2.709-5.94.336-1.099.127-2.267-.074-3.396-.112-.63-.219-1.226-.222-1.769-.013-2.161-.2-4.233-2.168-5.83,2.18-.428,4.166.253,5.92,2.027,2.771,2.805,3.393,7.03,1.582,10.764-1.145,2.358-3.033,4.627-5.615,6.744-9.206,7.547-16.17,15.377-21.291,23.937-5.376,8.989-10.149,18.762-14.592,29.878-5.55,13.887-4.608,29.078,2.725,43.931,4.437,8.991,10.76,17.01,19.329,24.517,5.577,4.885,11.543,8.704,18.239,11.677,13.164,5.845,27.795,6.005,42.309.463,13.182-5.032,25.335-14.469,34.221-26.571,6.791-9.249,11.391-18.703,14.024-28.818,2.704,8.704,6.942,16.969,12.947,25.252,14.02,19.339,32.713,31.473,52.637,34.166,2.684.363,5.355.543,8.002.543,10.395,0,20.409-2.78,29.355-8.196,1.183,3.977,4.805,6.54,9.009,6.268,2.45-.155,4.574-1.119,6.317-2.865l7.063,2.969.178-.163c1.209-1.111.597-1.955-.113-2.932ZM295.386,370.865c4.341,7.216,16.401,24.351,34.591,27.61,9.582,1.714,17.914-2.633,22.304-11.639,1.442-1.109,2.176-2.495,2.379-4.537,1.255,1.116,1.98,2.572,2.158,4.338.33,3.272-1.361,7.474-4.31,10.704-9.962,10.918-26.04,12.408-40.963,3.794-31.438-18.149-40.259-58.566-38.261-87.686l9.071-24.809c-.836,8.754-1.419,16.375-1.255,24.599.466,23.258,5.271,42.646,14.285,57.626ZM212.896,367.702c.036,1.519.277,2.736.719,3.623,2.486,5,2.441,10.656-.127,15.929-2.386,4.894-6.395,8.177-11.68,11.602l-1.436.931,1.693-.245c4.584-.662,8.608-3.5,12.303-8.676,9.245-12.953,15.525-27.307,18.666-42.665,2.665-13.029,3.913-26.363,3.817-40.773l-.617-19.502,1.02,3.01,7.291,22.718.149,13.229c-1.576,23.966-6.094,41.784-14.218,56.075-7.55,13.283-18.945,21.872-32.088,24.184-17.414,3.063-35.246-3.484-44.354-16.299-9.154-12.882-10.357-30.816-2.86-42.643,2.213-3.491,5.09-5.775,8.55-6.789,1.042-.306,2.088-.453,3.11-.453,3.111,0,6.003,1.365,7.901,3.775-3.262-1.949-7.317-1.898-10.809.254-5.648,3.482-9.635,13.462-6.324,25.802,2.495,9.302,7.805,16.977,15.356,22.194,9.387,6.486,23.552,8.497,32.457-.208,1.945-1.901,3.146-4.237,3.474-6.755.286-2.197-.884-4.262-2.78-4.91l-.403-.138-.085.418c-.314,1.542-1.09,2.7-2.185,3.261-1.297.665-2.924.632-4.243-.086-3.357-1.827-4.785-5.95-3.471-10.027.514-1.597.823-3.058,1.004-4.779,1.153.666,2.568.719,4.062.135,2.951-1.156,6.053-.916,8.522.657l1.459,2.553.293-.707c.809-1.955,1.66-2.868,3.375-3.618l2.457-1.075ZM82.234,272.193c-3.545.531-6.54,2.832-8.012,6.155-1.828,4.126-1.159,8.897,1.791,12.763,2.006,2.63,4.366,4.647,6.811,6.652,10.356,8.492,18.285,18.506,23.567,29.764,3.858,8.224,6.641,16.475,8.504,25.225,2.97,13.934.974,28.136-5.771,41.072-5.985,11.476-14.437,20.399-25.12,26.523-7.95,4.557-16.314,7.619-24.861,9.102-11.587,2.013-23.99-.475-34.933-7.004-.236-2.453-1.635-4.127-3.97-4.769.768-1.527,1.915-2.572,3.416-3.111,2.577-.925,6.286-.319,10.177,1.66,8.681,4.415,17.645,5.933,26.643,4.511,8.964-1.416,17.024-4.299,23.957-8.57,3.022-1.862,6.531-4.23,9.637-7.678,10.585-11.748,15.946-27.5,14.71-43.215-1.257-15.986-9.639-28.383-22.423-33.16-8.184-3.06-17.13-1.382-23.351,4.375-4.15,3.843-6.684,8.609-7.529,14.167l-.043.286,2.35,1.012.067-.489c.525-3.864,1.834-7.109,4.118-10.213,5.551-7.54,14.883-10.189,23.792-6.748,14.991,5.794,20.537,21.544,20.728,34.351.192,12.841-4.249,25.597-12.505,35.917-8.61,10.764-23.515,16.179-34.593,17.657-7.753,1.034-15.428-.196-22.799-3.66-5.538-2.604-10.921-4.664-15.848-1.342-2.165,1.461-3.222,3.609-2.899,5.895l.044.317.32.006c1.072.019,2.023.428,2.681,1.151.65.716.964,1.686.882,2.731-.161,2.079-1.443,3.756-3.61,4.723-1.937.862-4.551.775-6.509-.217-1.253-.635-2.066-1.557-2.291-2.596l-.161-.742-.073-.228-.167-.08c-.228-.109-.463.011-.591.075l-.086.043-.054.08c-.961,1.408-2.079,2.229-3.809,2.778.625-1.536,1.134-2.928,1.234-4.556.388-6.247,3.055-11.592,7.51-15.053,6.341-4.926,14.159-5.818,23.239-2.65l.539.188-.159-2.213-.177-.099c-9.11-5.083-14.015-15.402-12.206-25.675.284-1.614.893-3.016,1.538-4.5.67-1.543,1.362-3.135,1.643-4.971l2.252,1.085c1.618.779,2.443,1.657,3.269,3.48l.283.626,1.505-2.328c3.054-1.812,6.646-1.955,10.12-.4.663.296,1.849-.178,2.54-.507.097,1.344.433,2.612.76,3.844.719,2.708,1.397,5.267-.532,8.311-1.444,2.278-3.75,3.44-6.006,3.036-1.891-.339-2.989-1.631-3.093-3.637l-.027-.545-.499.221c-2.348,1.042-3.483,3.425-2.826,5.931.376,1.435,1.044,2.835,1.883,3.943,3.616,4.78,8.833,7.526,15.086,7.94,8.615.567,18.493-3.426,25.179-10.183,6.933-7.007,10.981-16.186,11.401-25.845.247-5.685-1.161-10.756-4.072-14.667-1.998-2.684-4.826-4.36-7.966-4.721-2.443-.282-4.868.27-6.993,1.564,1.855-2.451,4.95-3.96,8.326-3.96h.029c8.589.022,14.699,8.987,16.296,17.833,2.195,12.164-1.299,25.037-9.349,34.437-6.227,7.271-14.947,12.017-25.221,13.725-5.513.918-10.937.444-16.586-1.445-1.325-.443-3.059-.868-4.714-.213l-.75.296.71.383c6.999,3.78,15.003,4.784,23.796,2.988,10.634-2.174,19.614-7.615,25.97-15.736,9.967-12.735,13.638-34.944,2.187-48.617-3.721-4.445-8.999-6.667-14.126-5.938-5.423.769-9.6,4.4-10.899,9.479-.808,3.157-.185,6.328,1.711,8.701,1.229,1.539,3.104,2.486,5.015,2.534,1.741.049,3.338-.643,4.479-1.935.319-.359.772-1.295.799-1.757.035-.553-.509-1.121-1.337-1.804l-.491-.406-.116.627c-.181.981-.705,1.795-1.477,2.291-.753.483-1.653.612-2.612.373-2.319-.582-3.691-3.055-3.122-5.631.777-3.515,4.233-5.81,8.042-5.346,7.047.865,10.415,9.364,10.007,16.921-.522,9.663-4.674,18.583-11.691,25.117-6.64,6.185-18.38,10.997-28.458,6.947-4.331-1.739-8.482-5.627-8.541-9.419,2.532,2.51,6.073,2.827,9.245.753,4.15-2.715,5.704-8.041,3.778-12.952-1.138-2.902-.616-4.942-.336-6.039.166-.652.298-1.167-.161-1.4-.253-.128-.729-.144-1.006.042l-3.435,2.3c-3.393-1.67-6.837-1.781-10.508-.339-5.488-4.005-8.518-11.05-8.319-19.369.055-2.341-.262-4.564-1.02-7.125,1.91.627,3.673,1.855,5.383,3.047,2.393,1.667,4.652,3.242,7.237,3.242h.049l1.006-.008-.766-.652c-7.563-6.449-10.81-15.243-9.148-24.732l3.264-12.428,3.596-12.825c.537-1.917.45-3.8.358-5.794-.009-.179-.017-.359-.025-.54,8.329,4.991,14.343,9.695,11.467,19.241l-.372,1.238.977-.846c4.445-3.848,3.337-11.192-.055-16.458-6.916-10.734-7.933-23.631-2.789-35.385l5.704-13.036c1.84-4.206,2.655-8.573,2.484-13.322l4.903,4.54c4.45,4.119,6.362,9.537,5.117,14.493-.789,3.138-3.071,5.233-6.105,5.605l-.58.071.307.498c.962,1.558,2.423,2.481,4.226,2.668,2.383.245,5.064-.854,6.984-2.876,3.535-3.721,4.959-8.803,4.01-14.312-.854-4.964-3.626-9.524-8.013-13.187-4.062-3.393-6.491-7.115-7.424-11.378-1.4-6.402-.653-13.106,2.158-19.386.833-1.858,1.272-3.709,1.494-4.933l5.653,5.012.24-.16c.327-.217.932-1.005,1.062-1.451l.059-.202-.142-.156c-4.668-5.133-4.182-11.583-2.961-17.787,1.32-6.71,3.075-13.01,5.506-19.743l4.952,12.654c.878,2.241,1.875,4.634,2.932,7.167,4.089,9.801,8.723,20.909,8.996,29.522.148,4.669-.86,8.32-2.997,10.855-2.106.733-4.412-1.261-5.075-1.898l-.285-.273-.258.299c-.389.449-1.012,1.286-.82,1.847.208.613,1.125,1.488,2.646,2.937,3.487,3.326,9.979,9.517,14.29,19.245,4.101,9.25,7.508,23.857,3.614,34.583-1.197,3.298-2.953,5.565-5.367,6.931-2.926,1.652-6.201,1.062-7.968-1.438-.852-1.206-.96-2.884-.271-4.177.469-.88,1.692-1.649,3.538-2.224l.526-.164-.346-.429c-1.615-2.009-4.116-2.977-6.697-2.594ZM86.187,224.129l-2.12-2.01,1.749-.361.371,2.372ZM161.764,284.122c-.047,2.665-1.54,5.28-4.197,7.29l-7.812,5.914c-6.403,6.04-11.434,12.863-15.378,20.861-5.355,10.854-9.168,22.371-11.633,35.148-2.478-12.658-5.825-23.292-10.48-33.32-4.484-9.659-10.048-17.348-17.031-23.525l-7.983-6.016c-2.218-1.672-3.476-4.133-3.477-6.719,2.551,2.776,6.346,3.605,9.918,2.09,8.085-3.431,9.112-14.689,9.235-18.058.48-13.251-3.54-26.344-11.629-37.863-2.278-3.247-2.867-7.383-3.326-10.735,3.869-6.863,2.097-16.121-.081-22.695-2.275-6.87-4.967-13.873-8.726-22.709-4.049-9.516-4.448-19.901-1.155-30.035l10.976-33.771,10.558-31.425,11.176-30.836,7.868-23.959,4.651-14.336,3.634,11.025c2.641,8.011,6.181,18.599,10.161,29.454l7.537,20.545,11.623,34.064,8.172,24.927,4.523,15.679c2.471,8.568,2.32,17.21-.425,24.333l-9.662,25.071c-2.891,7.497-4.613,17.953-.822,24.892-.542,4.304-1.34,7.784-3.428,10.753-2.442,3.473-4.749,6.752-6.454,10.743-4.781,11.187-8.03,27.085-2.809,38.156,1.266,2.685,3.141,4.806,5.424,6.135,3.824,2.228,8.236,1.756,11.052-1.075ZM361.104,422.129c-18.053,11.651-41.076,11.388-61.618-.718-16.105-9.491-29.295-25.161-37.134-44.111-1.848-4.909-2.952-8.949-3.604-13.184l-.398-.96-.242-.009c-.006,0-.011,0-.017,0-.244,0-.347.208-.391.297-.02.04-.046.093-.084.161l-.047.142c-1.287,10.89-5.353,21.709-12.082,32.158-6.309,9.797-14.049,17.721-23.007,23.552-17.436,11.354-36.226,13.757-52.912,6.772-16.948-7.095-32.364-22.869-39.273-40.187-4.657-11.673-5.18-23.473-1.512-34.124,3.287-9.547,7.78-19.125,14.57-31.057,4.987-8.765,11.541-16.443,20.033-23.472,5.17-4.281,10.108-9.093,8.799-16.658-.794-4.597-4.361-8.039-8.877-8.563-3.774-.433-6.478,2.141-6.592,2.882l-.018.429.991.191c1.138.219,2.07.825,2.625,1.704.573.908.72,2.062.411,3.25-.576,2.225-2.823,3.709-5.339,3.541-4.307-.299-10.907-5.852-10.285-19.481.404-8.886,2.544-17.267,6.358-24.908,3.943-7.9,9.76-13.574,13.235-16.964,1.682-1.641,2.696-2.631,2.936-3.284.258-.708-.815-1.802-.826-1.812l-.306-.185-.26.217c-1.254,1.045-3.144,2.626-4.841,1.751-3.091-1.597-3.646-10.243-2.657-15.262.862-4.378,2.076-8.497,3.712-12.589l8.089-20.241,4.576-11.981c2.183,6.338,3.775,11.906,4.991,17.445,1.674,7.621,2.612,14.414-2.877,20.373l-.223.241.356.435c.413.516.683.833.993.865l.222-.002,5.916-5.11c.229,1.592.535,3.229,1.18,4.708,2.497,5.744,3.367,11.754,2.587,17.864-.676,5.275-3.343,9.924-7.715,13.442-7.305,5.881-11.727,16.958-5.532,25.905,1.499,2.164,3.638,3.656,6.023,4.202,2.487.568,4.93-.34,6.537-2.428l.387-.502-.626-.098c-3.092-.482-5.174-2.38-6.023-5.489-1.354-4.964.557-10.644,4.869-14.47l5.052-4.481c.004,4.587.904,9.103,2.747,13.784l4.608,11.712c1.785,4.536,2.697,9.361,2.789,14.752.125,7.406-1.988,14.701-6.28,21.682-3.024,4.918-4.262,11.674-.209,15.679l.925.914-.296-1.266c-1.505-6.435-.193-11.828,10.875-18.672-.284,3.702.079,7.196,1.158,11.222l4.035,15.032,1.045,7.676c.467,8.411-3.02,16.24-9.818,22.044l-.901.769,1.18-.11c3.03-.284,5.312-1.905,7.521-3.473,1.666-1.183,3.251-2.308,5.124-2.9-.815,2.13-1.174,4.127-1.123,6.228.216,8.844-3.204,16.457-9.157,20.413-3.221-1.452-6.599-1.414-10.604.118-1.285-.092-2.599-1.221-3.761-2.219l-.383-.329-.246.25c-.737.749-.597,1.598-.434,2.582.191,1.157.431,2.598-.403,4.772-1.817,4.741-.662,9.856,2.874,12.729,3.055,2.482,6.985,2.395,9.822-.127-.078,3.141-2.399,5.433-3.855,6.567-3.712,2.891-8.696,4.281-14.025,3.928-6.062-.407-11.751-2.86-16.909-7.29-6.428-5.521-10.64-12.993-12.18-21.607-1.29-7.221.111-16.653,6.235-20.299,1.855-1.104,4.066-1.389,6.068-.781,1.897.577,3.412,1.883,4.265,3.678,1.183,2.489.511,5.256-1.599,6.58-.981.617-2.328.729-3.273.27-.785-.381-1.254-1.332-1.91-2.663l-.288-.585-1.595,2.411.045.164c.539,1.975,2.487,3.394,4.738,3.451,3.504.083,6.318-2.287,7.121-5.909.832-3.748-.188-7.716-2.726-10.614-2.462-2.81-5.854-4.315-9.625-4.326-4.347.023-8.601,2.09-11.67,5.67-10.98,12.805-8.526,33.991.188,47.075,9.905,14.87,29.785,22.042,49.471,17.85,13.969-2.975,25.92-13.042,33.653-28.348,7.801-15.442,12.002-34.547,12.821-58.346l5.188,16.979c.773,2.532.495,5.461.227,8.295-.042.437-.082.868-.119,1.291-.924,10.787-3.582,21.11-8.128,31.562-10.697,24.593-31.579,39.052-55.863,38.695-10.216-.153-19.687-2.753-28.15-7.729-12.46-7.324-20.329-18.206-24.057-33.266-2.647-10.699-1.718-21.551,2.689-31.383,4.502-10.043,12.51-16.519,21.973-17.765,4.952-.65,9.885.738,13.893,3.915,4.373,3.467,7.203,8.688,7.765,14.322l.051.516,2.419-1.072-.036-.278c-1.104-8.389-6.56-15.51-14.238-18.583-4.673-1.87-9.816-1.89-15.293-.059-16.059,5.369-22.49,22.858-23.12,36.203-.676,14.354,5.609,31.129,15.285,40.792,10.888,10.874,25.646,16.856,41.577,16.855.059,0,.119,0,.178,0,22.855-.064,42.652-12.554,54.316-34.268,6.507-12.112,10.417-26.287,11.621-42.129.651-1.383.915-2.539.365-4.285l-10.616-33.724-12.153-39.077-5.095-15.125-22.068-60.833-7.501-20.942,4.528-12.081,14.092-38.114,9.994-26.935L259.044,7.078l37.878,97.455,25.354,66.224-4.854,13.769-32.24,88.924-13.883,38.04-11.018,30.84-.034.098.696,3.503.452-.615c1.675,15.465,7.01,30.047,15.863,43.351,12.905,19.394,32.458,31.597,52.304,32.646,7.217.38,14.049-1.064,20.885-4.417,5.605-2.75,10.935-4.784,14.538.392l-.051.453c-2.569.423-3.423,2.652-3.83,4.391ZM159.717,224.193l.402-2.409,1.756.402-2.158,2.006ZM376.186,424.263l-.507-.66-.158.817c-.205,1.058-.569,2.365-1.57,3.087-1.704,1.231-3.938,1.632-5.969,1.073-1.881-.518-3.389-1.807-4.138-3.539-.506-1.17-.427-2.653.206-3.869.58-1.115,2.428-1.593,3.194-1.747l.251-.05.045-.251c.45-2.5-1.44-4.868-3.389-6.01-1.712-1.003-3.486-1.391-5.226-1.391-3.236,0-6.353,1.343-8.721,2.565-14.931,7.706-33.093,5.636-49.829-5.669-6.444-4.354-11.545-8.989-16.051-14.589-9.179-11.407-15.519-24.501-18.844-38.915-1.225-5.663-1.706-10.71-1.514-15.878l6.521-18.137c.167,19.561,4.276,46.777,22.439,67.671,12.425,14.291,27.276,21.451,41.843,20.171,7.723-.681,14.82-4.389,19.986-10.44,4.207-4.928,6.389-12.397,2.418-17.138-1.385-1.654-3.191-2.438-5.228-2.267l-.486.041.165.459c.623,1.735.845,3.179-.104,4.583-.687,1.014-2.347,2.04-3.881,1.999-2.923-.077-5.422-2.522-5.942-5.816-.374-2.372.445-4.671,1.237-6.894l1.047-2.937c.668.47,1.592.861,2.479.794.59-.043,1.079-.291,1.415-.717l.132-.168-.077-.199c-1.971-5.101,1.767-9.419,6.074-11.273,2.232-.96,4.501-2.132,5.997-4.222l2.078-3.998c-.084,3.331.396,6.375,1.452,9.259,1.41,3.843.329,6.833-1.727,10.14l-.755,1.214,3.511-1.933,1.919-1.63.992,2.976c2.744,5.618,3.274,11.834,1.534,17.977-1.52,5.358-4.052,9.603-7.528,12.617-1.459,1.266-3.207,1.924-5.058,2.621-1.96.738-3.987,1.501-5.972,3.051l-1.144.893,7.929-1.254c.994-.158,1.905-.745,2.786-1.312.76-.49,1.478-.952,2.217-1.141,3.741-.957,7.466,1.276,9.354,2.691,4.631,3.472,7.377,9.037,7.533,15.269.044,1.78.369,3.323,1.103,5.175-1.425-.42-2.781-1.46-4.042-3.1Z"/>
      <path d="M314.018,171.201l-3.688-9.729c-16.202-43.732-32.831-86.803-50.836-131.674l-.361-.901-27.619,74.419-16.581,44.893-8.655,23.019-.048.125,11.223,33.105,10.619,30.779,19.829,56.958,10.772,31.839,42.043-114.655,13.302-38.178ZM258.817,316.708l-19.394-56.591-30.575-88.711,12.238-32.855,33.031-88.796,5.109-13.789,35.894,91.856,16.285,43.335-11.389,32.874-41.2,112.677Z"/>
      <path d="M146.871,226.109c-.14-2.333.539-4.22,2.199-6.117l.451-.516-2.854-.431c6.347-5.201,5.532-15.814,1.951-23.794.614-1.919,1.563-3.739,2.898-5.557,7.02-9.555,10.188-21.259,8.069-29.817-1.314-5.312-4.478-9.393-9.412-12.151,3.006-.327,5.411-1.973,6.721-4.653,1.815-3.715,1.571-8.048-.67-11.889-1.588-2.721-2.085-5.966-1.519-9.921l.133-.927-2.273,1.789c.253-2.441-.315-4.945-1.695-7.458-2.513-4.572-3.688-9.049-3.591-13.687l.019-.914-3.083,2.998c1.166-4.639.721-9.184-1.33-13.53-.85-1.803-1.307-3.695-1.527-6.326l-.062-.735-3.247,2.812c1.342-4.438.972-8.931-1.106-13.378-1.126-2.41-1.747-4.686-1.956-7.162l-.059-.693-2.916,2.295c1.376-4.925-.652-10.249-2.619-15.411-.355-.931-.709-1.859-1.041-2.78l-5.106-14.166-.325,1.093c-2.436,8.171-4.878,15.576-7.687,23.304-.923,2.539-1.023,5.164-.301,7.993l-2.978-2.328-.08.66c-.33,2.721-1.332,5.324-2.366,7.731-1.871,4.357-2.204,8.506-1.008,12.641l-3.115-2.541-.062.706c-.196,2.237-.812,4.511-1.831,6.759-1.952,4.304-2.341,8.685-1.161,13.042l-3.373-3.094.042.909c.235,5.023-.73,9.265-3.04,13.351-1.451,2.565-2.04,5.159-1.788,7.9l-2.204-1.873.147.988c.58,3.872.102,7.011-1.506,9.879-2.233,3.987-2.475,8.48-.645,12.019,1.394,2.696,3.828,4.332,6.684,4.562-2.357,1.362-4.8,3.134-6.5,5.78-8.529,13.274.705,29.638,5.072,36.058,1.298,1.908,2.176,3.628,2.756,5.401-3.984,7.855-4.66,18.721,1.663,24.085l-2.616.48.546.808c.969,1.428,2.068,3.047,2.073,4.771.021,6.726.585,13.126,7.075,17.52-2.666,5.613-2.065,13.671,3.533,17.904-3.633,6.585-1.844,14.585,4.132,18.507-2.095,3.701-2.451,8.12-.973,12.185,3.028,8.328,5.262,16.324,6.83,24.444l2.816,14.583.448-1.386c1.109-3.428,1.71-6.676,2.345-10.115.259-1.398.521-2.817.823-4.276,1.538-7.415,3.721-14.887,6.871-23.513,1.425-3.902,1.075-8.248-.954-11.977,5.755-4.483,7.334-12.044,3.884-18.597,4.944-3.916,6.478-12.127,3.355-17.95,5.693-3.556,7.379-10.712,7.043-16.294ZM152.192,125.788l.013,1.389-.947-.586.935-.802ZM151.217,129.461c4.122,2.882,5.589,8.631,3.271,12.816-.882,1.594-2.528,2.755-4.095,2.889-1.911.164-3.601-.68-4.55-2.248-1.417-2.342.208-4.349,1.302-5.337l.451-.407-.566-.221c-2.231-.869-3.913.536-4.738,2.143-1.177,2.285-.635,5.051,1.412,7.217,1.451,1.536,3.357,2.566,5.201,3.562l.146.079c9.54,5.158,9.214,15.325,8.17,20.927-1.098,5.897-3.605,11.578-7.675,17.384l-2.382,3.843-2.188-3.623c-.887-1.469-1.189-2.931-1.55-4.993l-.116-.667-3.458,3.112.221-2.198,3.778-2.141c2.679-1.518,4.742-4.43,5.135-7.247.273-1.968-.266-3.701-1.559-5.011l-.216-.22-1.691,1.119.155.299c2.318,4.465-2.53,8.182-5.037,9.73.453-2.333-.678-4.057-1.89-5.455-2.018-2.329-2.435-5.964-1.115-9.724.857-2.442,1.531-4.724,1.104-7.69l3.042.925c1.556.473,2.5,1.74,3.062,4.11l.1.416.398-.152c.704-.268,1.224-.518,1.471-.871.331-.472.399-1.138.198-1.927-.426-1.67-2.188-4.115-5.053-5.537-3.256-1.616-7.345-4.72-8.341-10.335-.943-5.329.603-10.283,4.241-13.591,3.896-3.541,9.138-3.923,13.358-.975ZM118.098,149.105c-.288-1.82-.405-3.743.686-5.466,2.705-4.277,3.805-8.736,4.856-13.798,1.135,5.398,2.308,10.17,5.156,14.832.868,1.419.631,2.944.258,4.646l-.12.547.552-.098c.786-.14,1.452-.516,2.164-1.232,2.089,3.317,4.317,7.604,3.976,12.024-.179,2.318-.92,4.455-1.703,6.716-.259.748-.525,1.515-.769,2.29l-3.807-4.149c-2.192-2.389-3.957-5.031-5.722-8.565l-.343-.686-.331.691c-1.536,3.206-3.09,5.648-4.89,7.686l-3.966,4.49c-3.955-7.722-3.526-13.637,1.517-20.78.528.917,1.243,1.348,2.143,1.285l.407-.03-.064-.403ZM145.106,105.586l.756,3.749c.472,2.35.254,3.906-.895,6.402l-.369.802.834-.292c1.227-.429,1.888-1.007,2.559-1.798l1.857,4.613c.754,1.875.382,3.954-1.138,6.347-5.362-1.175-10.574.542-13.986,4.616-2.888,3.447-4.207,7.853-3.854,12.814-4.518-7.098-5.401-14.708-2.328-20.596,1.875-3.592,4.637-6.721,8.207-9.298,3.297-2.38,5.901-4.672,8.357-7.36ZM104.873,93.4l2.244-6.197,5.415,4.207c1.95,1.515,2.677,3.925,1.852,6.142l-.099.264,1.921,1.426.218-.333c1.891-2.892,1.19-6.737-1.664-9.143-2.588-2.181-4.023-4.761-4.39-7.887-.395-3.379.72-6.511,1.9-9.826l1.256-3.541,2.272,1.6c1.073.755,1.57,1.603,2.395,3.006l.333.568.342-.412c1.381-1.67,1.404-2.681.101-4.328-2.21-2.794-2.629-6.518-1.178-10.483l.095-.26c2.08-5.687,4.052-11.078,5.564-16.72l4.456,12.736,1.888,5.992c.692,3.36-.022,6.431-2.067,8.88-.634.76-.91,1.812-.704,2.678.154.649.572,1.151,1.177,1.414l.322.14.16-.312c.504-.977,1.264-2.334,2.056-2.85l2.418-1.578.665,2.276c.289.991.659,1.955,1.018,2.887.583,1.519,1.134,2.953,1.381,4.521.667,4.236-.707,8.165-3.869,11.064-3.115,2.855-3.932,6.616-2.079,9.581l.2.32,1.628-1.029c.444-.282.266-.879.107-1.405-.052-.176-.106-.354-.135-.512-.273-1.538.571-3.67,1.845-4.657l5.494-4.258,1.474,3.785c3.118,8,1.292,14.725-5.279,19.448-4.45,3.198-9.898,8.577-11.254,16.329l-.527-1.062-.735.81c-.955-4.422-3.15-8.259-6.866-12.019-1.516-1.534-3.133-2.766-4.845-4.07-.836-.638-1.682-1.281-2.522-1.969-4.312-3.529-5.949-9.788-3.981-15.22ZM96.929,118.573l1.646-4.171c.784.885,1.402,1.403,2.416,1.854l.881.393-.385-.885c-.967-2.222-1.397-3.878-.906-6.263l.812-3.936c2.291,2.583,4.735,4.368,7.105,6.098,2.91,2.126,5.921,4.325,8.729,8.042,4.878,6.459,4.587,13.792-.948,22.984.411-5.592-1.334-10.383-5.094-13.932-2.615-2.467-5.939-3.765-9.465-3.765-1.123,0-2.267.132-3.414.399-1.738-2.06-2.254-4.593-1.376-6.819ZM95.403,185.136c-8.571-13.756-6.991-25.01-2.654-30.955,1.676-2.297,3.878-3.574,6.008-4.809,2.23-1.293,4.338-2.515,5.613-4.774,1.555-2.754.769-6.068-1.789-7.543-.932-.537-1.985-.4-2.684.355l-.265.286.296.254c.915.785,1.433,1.762,1.496,2.827.063,1.053-.342,2.112-1.141,2.983-.986,1.075-2.49,1.59-4.024,1.378-1.107-.153-2.704-.965-3.593-2.387-1.851-2.955-1.873-6.604-.062-10.012,1.475-2.776,4.527-4.77,7.967-5.204,3.802-.478,7.628,1.203,10.239,4.5,3.729,4.707,3.995,11.597.647,16.754-1.685,2.594-4.088,4.233-7.18,5.896-3.167,1.704-5.121,4.839-4.355,6.988.224.629,1.354.885,1.695.949l.379.071.06-.381c.593-3.79,3.846-4.757,6.042-4.971-.483,2.564.213,4.949.974,6.964.735,1.946,2.123,6.872-.861,10.577-1.264,1.569-2.179,2.902-2.082,5.024l-3.778-3.569c-1.771-1.672-2.228-3.884-1.193-5.774l.046-.164c.016-.371-.462-.675-.749-.824-.447-.233-.794-.257-1.03-.076-1.099.849-1.659,2.254-1.578,3.958.144,3.015,2.159,6.173,5.133,8.047l3.412,2.149.257,2.289-3.302-3.082-.14.645c-.41,1.893-.794,3.457-1.669,4.911l-2.01,3.337-4.124-6.619ZM136.539,241.578l-.446.22.335.369c2.051,2.258,2.934,5.693,2.363,9.191-.591,3.62-2.578,6.618-5.451,8.226l-.391.218.283.347c2.212,2.702,3.045,6.454,2.228,10.039-.805,3.532-3.08,6.404-6.242,7.879l-.483.225.375.379c2.477,2.499,3.317,5.982,2.516,10.293l-2.6,7.167c-2.081,5.735-3.321,11.335-4.636,17.264-.359,1.621-.728,3.282-1.116,4.957-1.744-10.242-4.098-19.036-7.363-27.534-1.614-4.206-.997-8.67,1.695-12.25l.26-.345-.379-.209c-2.907-1.603-4.62-3.292-5.555-5.477-1.783-4.169-1.264-8.804,1.39-12.398l.25-.339-.365-.209c-2.788-1.596-4.685-4.329-5.34-7.696-.683-3.508.137-7.162,2.191-9.774l.294-.374-.433-.199c-6.758-3.105-7.979-10.105-7.813-15.43.052-1.643-.313-3.203-.688-4.344,1.91-.105,3.487-.402,4.866-1.335l.516-.349-5.261-2.806c-2.297-1.224-3.251-4.149-3.615-5.784-1.699-7.621,1.264-13.887,4.72-20.165l2.106-3.824,5.497,4.96c.214.191.557.17.943-.062.397-.239.585-.54.514-.825l-.271-1.087-.07-.143c-3.165-3.989-3.197-8.956-.092-13.625,2.209-3.24,4.713-6.099,7.364-9.126l1.04-1.191,3.588-5.081c1.792,3,4.051,5.535,6.239,7.992,2.25,2.526,4.577,5.139,6.35,8.223,2.462,4.22,2.214,8.888-.679,12.809l-.46,1.146c-.045.115-.105.413.294.689.263.181.954.474,1.303.16l5.446-4.893,1.668,3.329c.409.816.834,1.614,1.257,2.407,1.038,1.947,2.02,3.787,2.745,5.845,1.969,5.58,2.354,13.387-1.457,17.339-1.168,1.21-2.642,1.909-4.202,2.647-.562.267-1.135.538-1.711.841l-.585.307.562.345c1.673,1.024,3.525,1.237,5.07,1.252-.77,1.67-.796,3.522-.823,5.472-.029,2.104-.063,4.49-1.056,7.028-1.326,3.395-3.451,5.717-6.687,7.309Z"/>
      <path d="M297.457,151.203l-15.452-40.903-22.452-57.709-24.734,65.962-19.481,52.845,8.408,25.807,22.181,64.511,13.212,38.543,11.349-31.525,13.819-38.274,20.404-59.241-7.253-20.015ZM278.518,109.413l1.723,4.292c.679,1.694,1.448,3.615,1.325,5.529-.138,2.16-1.3,2.883-2.233,3.463-.759.471-1.618,1.005-1.074,2.219l.112.252.274-.033c2.75-.329,5.218.701,6.783,2.831,1.556,2.118,1.735,4.896.458,7.079-.779,1.331-2.103,2.261-3.539,2.488-1.288.202-2.538-.166-3.518-1.039-.791-.705-1.073-2.074-.643-3.116.324-.787,1.577-1.266,2.675-1.392l.353-.041-.021-.354c-.039-.666-.364-1.238-.917-1.613-.699-.474-1.677-.588-2.552-.299-2.248.742-3.761,2.827-3.856,5.311-.097,2.528.979,5.112,2.877,6.912,1.691,1.603,3.827,2.372,5.995,2.174l.803-.074-3.35-3.309c3.184.583,6.569-.339,8.167-3.701l1.483,3.336c.19.427.399.857.611,1.293.87,1.787,1.771,3.634,1.483,5.666-.21,1.484-.284,2.576.55,3.551-1.909,1.047-4.017.972-5.718-.232-.521-.369-.92-1.27-1.122-2.535l-.064-.403-.396.098c-1.396.346-2.104,1.705-1.72,3.305.588,2.452,2.542,4.329,5.503,5.283.743.24,1.249.544,2.016,1.006.201.122.418.252.658.393l.669.392-.108-.768c-.096-.683-.359-1.643-.69-2.524l3.297-1.53,1.164,2.323,3.356,8.645-3.312.527c-8.318-.369-15.853-4.169-20.669-10.426-4.474-5.812-7.174-13.196-7.602-20.791-.377-6.709,1.992-12.852,6.854-17.764,1.897-1.917,3.185-4.027,3.914-6.424ZM278.001,170.474c.394,9.75-6.89,18.106-16.58,19.021-5.201.492-10.174-1.221-14.007-4.819-3.836-3.601-5.943-8.644-5.782-13.834.313-10.072,8.427-18.094,18.187-18.094.15,0,.303.002.454.006,9.549.243,17.336,8.027,17.729,17.722ZM245.72,99.956l2.645-7.562c.461-1.325.808-2.645.997-3.798.494.419.982.724,1.459,1.021,1.088.678,2.027,1.264,2.665,3.094l.132.378.369-.156c.701-.297,1.182-.966,1.319-1.836.171-1.086-.229-2.231-1.021-2.917-2.161-1.872-2.882-4.271-1.978-6.581l2.043-5.221,3.009,1.618-.26-.867c-1.045-3.48-.575-5.618.203-8.257l2.448-8.298,2.994,9.486c.769,2.439.842,4.571.243,7.128l-.217.928,2.607-1.75,1.822,4.882c.946,2.535.258,5.206-1.841,7.145-.707.652-1.123,1.55-1.143,2.464-.018.836.305,1.631.909,2.238l.334.336,1.626-2.617,3.05-2.138c.265,1.729.616,2.993,1.174,4.253,1.343,3.039,2.709,6.71,2.663,10.898-.033,2.984-1.098,5.819-2.996,7.983-1.914,2.182-4.561,3.536-7.45,3.813-2.668.258-5.24-.833-6.832-2.919-1.694-2.221-1.96-5.071-.691-7.437.733-1.371,2.209-2.295,3.759-2.356,1.664-.049,2.95.808,3.821,2.593l.18.369.464-.28c.642-.387,1.149-.692,1.292-1.16.168-.548-.087-1.858-.454-2.335-1.097-1.428-2.719-2.307-4.568-2.474-2.032-.181-4.096.52-5.656,1.93-3.268,2.956-3.943,7.979-1.608,11.943,2.573,4.367,7.865,6.35,12.901,4.809l3.51-1.373c-7.054,9.573-6.859,22.69.545,35.586-3.388-1.752-6.917-2.629-10.395-2.629-3.422,0-6.796.849-9.937,2.547,7.614-14,7.331-27.322-.838-37.63-3.356-4.236-4.497-9.372-3.299-14.853ZM224.019,156.201l1.074-2.901c1.031.969,2.179,1.438,3.234,1.738l-1.321,2.515.25.192c.888.683,1.457.136,2.009-.393.485-.466,1.09-1.047,2.202-1.44,1.874-.663,4.251-2.038,4.933-4.825.201-.824.102-1.635-.271-2.224-.306-.482-.777-.801-1.363-.921l-.402-.083-.046.408c-.229,2.084-1.772,3.402-3.82,3.268-.371-.023-1.112-.15-2.56-.607.4-1.218.464-2.104.274-3.437-.307-2.17.561-4.248,1.555-6.362l1.936-4.122c.362,1.042,1.015,1.89,1.949,2.532,1.512,1.039,3.742,1.456,6.154,1.187l-3.751,2.943.697.206c3.955,1.169,6.689-1.845,7.967-3.746,2.047-3.049,1.945-6.734-.254-9.168-.675-.746-1.942-1.399-2.826-1.458-1.203-.083-2.353.608-3.069,1.839l-.307.527.608.036c1.755.104,2.725.787,3.051,2.149.271,1.127-.305,2.619-1.736,3.164-1.211.462-2.457.416-3.602-.134-1.264-.607-2.254-1.782-2.715-3.221-.756-2.359-.377-4.771,1.013-6.453,1.474-1.782,3.878-2.633,6.282-2.217l.102.018.097-.037c.239-.092.379-.351.426-.789.005-.046.114-1.138-.482-1.517-1.134-.412-1.949-1.155-2.426-2.208-.664-1.468-.604-3.437.166-5.4l2.41-6.154c.604,2.37,1.781,4.387,3.72,6.409,8.877,9.268,9.339,22.754,1.235,36.077-4.715,7.753-14.649,14.94-25.464,12.625l3.072-8.015ZM229.62,199.455c.515-.982,1.385-1.705,2.386-1.981.297-.082.599-.123.898-.123.623,0,1.24.175,1.798.516.562.344,1.077,1.398,1.021,2.09-.035.437-.577,1.213-1.317,1.886l-.365.332.418.263c.768.482,1.604.58,2.415.281,1.012-.371,1.842-1.312,2.222-2.516.596-1.885.123-4.021-1.265-5.714-1.213-1.478-3.259-2.434-5.34-2.495l-1.662-.049h-.018c-.488,0-.698.596-.867,1.077-.016.045-.03.088-.045.127-1.317.946-2.311,1.97-3.072,3.173l-.753-2.366c-.173-.543-.368-1.081-.563-1.617-.545-1.5-1.061-2.916-1.096-4.454-.055-2.372,1.087-4.439,2.979-5.395,1.268-.641,2.642-.115,3.433.531,1.091.894,1.038,2.105.601,3.771l-.122.462.479.008c.016,0,.031,0,.047,0,1.463,0,2.385-1.1,2.651-2.2.857-3.528-.63-6.863-4.188-9.39-.186-.132-.366-.312-.551-.492-.626-.612-1.571-1.539-2.813-.423l-.276.25.247.278c.552.622,1.091,1.69,1.002,2.446-.08.678-.812,1.699-1.508,2.102-1.181.683-2.619.65-4.051-.095-1.039-.539-1.935-1.944-2.179-3.417-.365-2.2.213-4.342,1.628-6.033,1.536-1.835,3.872-2.907,6.415-2.939,3.832-.11,7.673,1.822,10.51,5.266.22,2.916.931,5.498,2.248,8.138,2.08,3.479,8.375,15.523,2.064,24.46-1.354,1.918-3.393,3.22-5.592,3.573-2.085.336-4.189-.191-5.931-1.481-2.466-1.827-3.276-5.203-1.886-7.851ZM243.614,213.195c-.218,2.174-1.073,3.812-2.86,5.475-.271.251-.423.658-.441,1.177-.027.805.274,1.757.703,2.215,1.52,1.624,1.661,3.637.42,5.983l-.059.333c-.121,1.421-.236,2.78-.778,4.155-.344-1.762-.912-3.162-2.173-4.385-2.191-2.123-3.022-4.798-2.401-7.737l.177-.839-1.721,1.028-1.162-3.832c-.493-1.625-.039-3.538,1.247-5.278,3.515.598,6.849-.429,9.512-2.918l-.463,4.623ZM268,221.125l.175.064c3.233,1.193,3.371,3.358,3.516,5.651.103,1.619.208,3.285,1.39,4.627l-3.658.107c-1.025.038-1.88-.2-2.972-.579l-.391-.135-.097.401c-.222.913.392,2.397,1.484,2.872,2.839,1.232,3.017,3.293,3.204,5.476.121,1.402.245,2.846,1.082,4.083l-2.052.047c-1.356.032-2.434,0-3.982-.688l-.425-.189-.095.456c-.302,1.457.509,2.9,2.063,3.677,2.094,1.047,2.258,2.857,2.447,4.952.114,1.269.232,2.575.808,3.773l-2.107-.006c-.895-.003-1.889-.262-3.224-.841l-.332-.144-.155.326c-.385.804-.481,2.056,1.239,3.451,1.529,1.241,2.222,3.785,1.61,5.917l-1.318,4.597-2.761-1.892-.127.53c-.396,1.65-.183,2.744.319,4.075.57,1.516.191,3.176-.284,4.885l-4.063,14.621-3.438-14.337c-.075-.317-.156-.626-.236-.931-.466-1.782-.868-3.321.059-5.208.281-.573.298-1.524.231-2.974l-.032-.682-2.77,1.942c-1.819-4.291-3.037-8.325.484-10.937.863-.641,1.344-2.155.95-3l-.151-.326-.332.138c-1.078.447-1.932.725-2.856.727l-2.287.004c.514-1.167.649-2.491.781-3.777.213-2.079.397-3.874,2.046-4.651,1.831-.864,2.676-2.102,2.582-3.785l-.03-.551-.501.231c-1.401.647-2.464.848-3.673.691l-2.227-.287c.727-1.397.894-2.846,1.042-4.141.244-2.122.455-3.954,2.915-5.135,1.048-.503,1.822-1.872,1.726-3.05l-.041-.499-.468.179c-1.402.539-2.413.815-3.691.751l-3.039-.156c.976-1.325,1.158-3.014,1.336-4.655.243-2.25.454-4.194,2.555-5.002,1.825-.702,2.77-1.872,2.807-3.476l.015-.657-.573.321c-1.238.693-2.491.941-4.049.803l-3.489-.308c.799-1.205,1.367-2.832,1.729-4.946l1.338-7.787c1.267-4.556,4.237-8.481,8.83-11.667l2.922-2.027,4.748,3.257c5.209,3.574,8.157,9.778,8.302,17.467.042,2.249.642,4.103,1.828,5.645l-4.261.398c-.595.057-1.36-.061-2.169-.185l-1.002-.149.795,2.614ZM285.144,220.229l-1.796-.52.174.643c.762,2.822-.003,5.529-2.133,7.464-1.251,1.485-1.948,2.881-2.367,4.839-.24-.713-.429-1.488-.635-2.335l-1.209-4.847c-.168-.672.407-1.718.963-2.73.834-1.518,1.779-3.238.546-4.398-1.744-1.639-2.486-3.161-2.737-5.616l-.441-4.329c2.539,2.566,5.852,3.69,9.268,3.125,3.09,3.181.902,7.726.368,8.703ZM297.718,179.679c-1.526.935-3.104.95-4.559.045-.571-.355-1.258-1.421-1.267-1.967-.017-.959.624-1.908,1.184-2.627l.25-.322-.341-.223c-.464-.303-1.962-.666-2.519-.189-.325.277-.681.806-1.113,1.658-3.776,2.088-5.434,6.244-3.941,9.926l.888,1.026c.386.432,1.31.127,1.689-.024l.326-.129-.106-.333c-.37-1.164-.478-2.773,1.115-3.831,1.261-.841,2.967-.542,4.143.729,2.566,2.772,1.669,6.689.905,8.777l-1.563,4.274c-.899-1.572-2.477-2.613-3.352-3.1l.169-1.964-3.687.679c-2.108.388-3.948,1.727-4.923,3.58-.875,1.665-.943,3.504-.193,5.178.459,1.025,1.283,1.785,2.206,2.031.725.192,1.437.056,2.061-.399l.354-.257-.308-.31c-.584-.588-1.197-1.471-1.172-2.185.031-.861.704-1.787,1.532-2.109,1.975-.766,4.005.228,4.837,2.363.664,1.703.56,3.556-.294,5.219-.877,1.71-2.445,2.964-4.302,3.439-3.327.85-6.667-.318-8.93-3.13-5.59-6.952-2.889-17.094,1.503-24.267,1.58-2.583,2.43-5.375,2.595-8.535,2.922-3.592,6.943-5.521,11.062-5.294,2.352.129,4.544,1.167,6.015,2.848,1.355,1.549,2.014,3.535,1.854,5.592-.127,1.64-.938,3.107-2.118,3.831Z"/>
      <path d="M270.415,166.664c.415-1.694.5-3.884-1.12-5.354-1.304-1.183-3.235-1.444-5.117-.711-.79-1.632-2.354-3.33-4.459-3.229-1.95.107-3.582,1.414-4.196,3.309-1.67-.872-3.642-.602-5.145.744-1.528,1.371-1.928,3.285-1.125,5.302-2.023.745-3.408,2.608-3.344,4.572.065,1.949,1.465,3.573,3.544,4.185-1.239,1.874-.611,3.995.652,5.352,1.319,1.416,3.269,1.664,5.4.709.527,2.277,2.194,3.694,4.38,3.694.067,0,.136-.001.204-.004,1.975-.079,3.572-1.523,4.102-3.65,1.879.899,3.941.622,5.258-.753,1.47-1.533,1.756-3.604.783-5.394,2.113-.707,3.533-2.441,3.508-4.358-.03-2.227-1.641-3.78-3.325-4.412ZM264.48,162.834c.158-.452.503-.735,1.025-.841.946-.194,2.109.249,2.598.784.598.654.878,1.695.696,2.589-.094.462-.351,1.08-1.045,1.399l-2.457,1.131-1.913-1.93,1.096-3.132ZM258.165,160.02c.618-.574,1.406-.846,2.035-.713.851.178,1.575.697,1.987,1.425.373.657.44,1.415.191,2.133l-.794,2.292-3.245-.032c-.378-.726-.925-2.007-1.049-2.93-.103-.758.225-1.571.874-2.176ZM251.492,162.841c.478-.546,1.432-.908,2.247-.842.449.031,1.068.196,1.468.806.43.659.899,2.087,1.209,3.032l.036.108-1.857,1.981-3.139-1.491c-.396-.188-.645-.515-.74-.974-.188-.909.26-2.029.776-2.622ZM248.639,172.983c-.543-.519-.844-1.248-.806-1.95.045-.816.545-1.656,1.273-2.138.391-.258.812-.39,1.229-.39.229,0,.457.04.679.12l2.778,1.004-.062,2.976c-.882.401-2.21.988-3.043,1.072-.772.076-1.499-.169-2.05-.694ZM255.702,178.408c-.42,1.124-1.395,1.875-2.455,1.854-1.065-.015-2.044-.732-2.378-1.745-.367-1.107-.059-2.505,1.238-3.036l2.418-.989,1.893,2.005-.716,1.911ZM260.252,183.312c-1.078.233-2.515-.596-2.852-2.156-.245-1.135.282-2.922.923-3.825l3.112-.181c.502,1.04.982,2.468.995,3.513.019,1.426-1.082,2.412-2.179,2.648ZM262.261,174.593c-1.509,1.152-3.379,1.115-4.997-.096-1.38-1.032-1.841-2.918-1.175-4.804.46-1.302,1.827-2.633,3.845-2.674.026,0,.053,0,.079,0,1.956,0,3.359,1.485,3.84,2.882.603,1.753.022,3.464-1.592,4.692ZM268.645,178.889c-.364.727-1.165,1.289-1.993,1.398-.54.072-1.328-.011-2.037-.806-.493-.553-1.011-2.121-1.204-2.97l1.901-2.077,1.738.667c.888.34,1.502.895,1.777,1.604.261.669.197,1.424-.183,2.184ZM271.424,172.36c-.682,1.1-1.993,1.588-3.117,1.166l-2.21-.833-.028-3.059,2.384-1.09c.904-.415,2.274.148,2.762.899.628.965.71,2.11.21,2.917Z"/>
    </g>
  </g>
</svg>