<?xml version="1.0" encoding="UTF-8"?>
<svg id="b" data-name="Layer 2" xmlns="http://www.w3.org/2000/svg" width="510.247" height="436.161" viewBox="0 0 510.247 436.161">
  <g id="c" data-name="Layer 1">
    <g id="d" data-name="pc12RY">
      <g>
        <path d="M253.377,62.097c14.275,13.901,25.474,36.432,15.966,51.608-1.037,1.656-2.446,2.927-4.072,3.675-3.731,1.717-5.339,5.686-3.74,9.232l1.485,3.295,2.965-2.067,3.421-2.385c7.479-2.013,11.66-7.016,13.963-12.494,3.346,9.592,4.673,20.187-.2,25.993-2.649,3.156-3.133,6.119-1.439,8.807l.5.793.863.367c.506.216,1.086.348,1.73.396.365,6.63-2.348,13.009-7.424,17.123-2.832,2.296-6.302,3.56-9.77,3.56-1.032,0-2.065-.111-3.072-.331-3.514-.767-6.299-3.731-6.623-7.047-.211-2.167.512-4.774,3.175-5.591.108-.033.207-.049.303-.049.479,0,.897.428,1.054.612l1.933,2.26,2.277-1.913c1.596-1.342,2.525-3.268,2.615-5.425.101-2.409-.881-4.883-2.627-6.62-2.45-2.436-5.695-3.724-9.387-3.724-1.058,0-2.146.109-3.232.325-6.671,1.324-12.403,5.229-16.141,10.995-3.742,5.773-4.966,12.613-3.448,19.258.519,2.273,1.337,4.314,2.515,6.244-15.847,8.793-28.127,26.979-33.2,49.451-5.826,25.807-.853,53.462,13.645,75.873,13.408,20.725,34.632,36.74,63.121,47.641-.914,1.164-1.736,2.363-2.533,3.631-13.409-4.945-25.98-11.517-37.401-19.554-18.613-13.099-32.767-31.2-40.933-52.348-7.873-20.387-10.674-40.971-8.326-61.179,1.663-14.308,6.156-28.677,14.141-45.219l.266-.55.029-.61c.01-.212.017-.427.022-.643.427.222.887.405,1.385.539,1.467.394,2.841,1.204,2.953,4.438l.181,5.2,4.41-2.762c2.468-1.545,4.104-4.213,4.272-6.963.198-3.254-1.397-5.279-2.804-7.065-1.464-1.859-2.978-3.78-3.513-7.966-.78-6.099,1.225-12.661,5.647-18.477,3.914-5.147,9.48-9.401,15.422-11.818.767.331,1.65.582,2.561.582.665,0,1.292-.131,1.864-.388,3.49-1.57,3.589-4.686,3.632-6.017.006-.178.013-.407.026-.553,2.413-3.745,4.226-6.565,3.765-10.844.375.061.762.092,1.157.092,2.246,0,4.561-1.009,6.193-2.698,1.399-1.448,2.135-3.248,2.072-5.071l-.056-1.631-1.4-.839c-2.711-1.625-3.942-3.959-1.706-10.554,3.832-9.679,4.364-19.214,1.518-30.598M247.425,53.226c4.995,13.283,6.821,25.345,1.619,38.431-2.007,5.882-2.33,10.982,2.979,14.164.086,2.519-2.742,4.666-5.267,4.666-.608,0-1.2-.125-1.728-.399-1.229-.639-2.284-1.005-3.578-1.005-.049,0-.099,0-.148.002,2.675,6.414,1.153,8.651-2.113,13.723-.928,1.44.547,4.011-2.243,5.266-.19.086-.405.124-.634.124-.733,0-1.618-.392-2.367-.87-13.794,4.985-26.136,19.133-24.238,33.962,1.164,9.094,6.584,9.764,6.298,14.468-.107,1.766-1.205,3.56-2.87,4.602-.133-3.822-1.761-6.315-5.173-7.231-1.687-.453-2.806-2.044-3.933-3.84-1.473,1.788-1.138,4.39-1.249,6.697-7.089,14.687-12.518,29.821-14.419,46.177-2.482,21.363.794,42.635,8.507,62.606,8.413,21.786,22.906,40.279,42.005,53.72,12.49,8.79,26.047,15.69,40.424,20.758,1.945-3.337,3.735-5.967,6.421-8.57-25.765-9.186-50.431-24.251-65.787-47.988-14.118-21.824-18.909-48.463-13.238-73.583,4.44-19.669,16.046-40.412,34.772-49.031-2.071-2.414-3.392-4.943-4.088-7.992-2.762-12.087,5.108-24.232,17.248-26.643.893-.177,1.78-.268,2.648-.268,2.755,0,5.321.911,7.271,2.851,2.105,2.094,2.478,5.704.197,7.621-.827-.966-1.999-1.662-3.334-1.662-.382,0-.778.057-1.183.181-3.713,1.14-5.678,4.679-5.281,8.751.458,4.694,4.213,8.649,8.969,9.687,1.234.269,2.477.4,3.711.4,4.2,0,8.308-1.513,11.659-4.229,6.76-5.48,9.738-14.224,8.151-22.777-.579.205-1.365.344-2.059.344-.429,0-.823-.053-1.112-.176-1.229-1.951-.056-3.785,1.198-5.28,7.688-9.16,2.509-26.517-2.754-37.257-1.24,9.57-5.464,16.836-14.578,19.059l-3.866,2.695c-.95-2.106.135-4.297,2.259-5.274,2.164-.996,4.028-2.68,5.361-4.808,12.382-19.762-6.298-49.324-24.46-62.072h0Z"/>
        <path d="M32.788,3.148c18.865.686,43.404,3.989,65.627,14.519,13.038,6.178,23.34,13.194,31.494,21.447.263.266.522.531.781.796,3.296,3.368,6.703,6.851,12.571,7.632.572.076,1.156.115,1.735.115,3.166,0,5.974-1.104,7.907-3.109,2.236-2.319,2.957-5.764,1.881-8.991-.983-2.948-3.407-5.17-6.486-5.943-.514-.129-1.034-.194-1.546-.194-2.248,0-3.851,1.198-4.843,2.232-1.75-.219-3.725-1.411-5.395-3.281-7.265-8.136-15.92-14.952-25.852-20.371,9.145,1.147,18.197,3.138,27.357,6.004,10.587,3.312,29.462,11.263,36.932,27.288,2.009,4.31,2.566,7.635,1.923,11.479-.395,2.361-2.504,5.054-3.96,5.054-.052,0-.103-.004-.155-.011-1.914-.679-4.068-1.417-6.368-1.417-2.698,0-5.131,1.041-7.233,3.095-3.279,3.206-4.417,8.059-3.205,13.667.998,4.617,4.858,6.928,7.959,8.784.174.104.348.208.52.312,3.799,5.868,6.62,12.381,9.611,19.288,9.803,22.637,14.875,47.139,15.079,72.837-1.447,3.281-2.703,6.555-3.83,9.814-.232-6.909-.652-13.794-1.48-20.872-7.498-64.057-40.043-112.798-94.12-140.953C72.423,13.375,54.155,7.152,32.788,3.148M24.651,0c-4.833,0-9.611.156-14.282.453C6.7.687,3.402,1.239,0,1.892c31.304,2.571,60.481,8.647,88.307,23.135,54.855,28.561,85.374,77.543,92.525,138.641,1.58,13.495,1.657,26.587,1.8,40.026,2.75-10.122,5.312-19.354,9.494-28.688-.123-25.775-5.082-50.991-15.33-74.657-3.05-7.042-6.09-14.066-10.226-20.306-3.144-1.939-6.867-3.732-7.686-7.52-.882-4.081-.388-8.192,2.37-10.887,1.705-1.666,3.411-2.24,5.136-2.24,1.826,0,3.674.643,5.566,1.316.323.076.642.112.957.112,3.461,0,6.38-4.337,6.919-7.559.828-4.95-.178-8.982-2.163-13.241-6.959-14.932-23.205-24.019-38.755-28.884-14.469-4.527-29.175-7.061-44.866-7.303,15.596,5.624,29.235,14.22,40.228,26.531,2.118,2.372,5.081,4.32,8.206,4.32.279,0,.56-.016.841-.048.792-1.073,1.894-2.221,3.428-2.221.259,0,.531.033.815.104,2.184.548,3.739,2.087,4.37,3.981.682,2.046.376,4.332-1.194,5.96-1.499,1.554-3.673,2.191-5.748,2.191-.454,0-.903-.03-1.339-.089-5.253-.699-8.209-4.117-11.613-7.562-9.29-9.403-20.387-16.384-32.344-22.05C77.255,4.32,50.132,0,24.651,0h0Z"/>
        <path d="M453.584,248.611c1.58,0,3.167.248,4.635.708-.269,1.275.089,2.721.789,3.808l1.488,2.312,2.433-1.281c1.107-.583,2.202-.866,3.348-.866,1.486,0,3.097.497,4.789,1.476,3.088,1.789,6.233,2.696,9.346,2.696.678,0,1.358-.043,2.037-.129l-1.199,3.15c-1.641,4.311-4.451,8.242-7.913,11.069-1.73,1.413-3.715,2.129-5.898,2.129-1.008,0-2.063-.153-3.136-.455l-2.406-.676-1.1,2.244c-.899,1.834-.966,3.781-.188,5.48.269.589.629,1.129,1.069,1.615-1.988,1.615-4.344,2.932-6.959,3.876-1.415.511-2.891.77-4.385.77-3.877,0-7.468-1.77-9.666-4.75l2.594-1.146c2.767-1.222,4.778-3.458,5.663-6.297.791-2.538.646-5.396-.355-7.985l4.095-4.533-6.148-.42c-.162-.123-.493-.503-.74-.786-.6-.689-1.364-1.565-2.506-2.396,1.83-2.562,2.834-5.315,3.469-7.566,1.743-1.326,4.141-2.048,6.848-2.048M434.01,270.803c.738,0,1.471.109,2.178.323,1.788.542,2.68,1.782,2.991,3.197l-1.422-.091c-.156-.01-.311-.015-.463-.015-2.364,0-4.425,1.18-5.803,3.324-2.923,4.545-2.326,12.634-.097,17.522l5.651,12.394.592,1.25.21.063c-.172,1.038-.352,2.483.008,4.171,2.138,10.014,1.223,20.368-2.72,30.774-5.712,15.075-16.906,27.506-32.371,35.949-13.986,7.636-31.302,11.841-48.758,11.841-3.304,0-6.627-.151-9.881-.448l-1.362-.294c1.148-2.098,2.027-4.357,2.674-6.858,1.175.031,2.349.046,3.509.046,17.434,0,42.465-3.455,62.703-19.912,17.377-14.131,24.623-33.313,19.881-52.628-1.259-5.128-3.134-9.734-5.276-14.794-2.542-6.007-5.723-17.02,1.536-23.284,1.89-1.631,4.098-2.529,6.218-2.529M453.584,245.611c-3.52,0-7.002,1.035-9.502,3.367-1.025,3.989-2.603,7.541-5.711,10.193,5.258,1.516,5.081,5.036,7.922,5.23l-1.315,1.447c2.426,3.952,2.032,9.858-2.933,12.051.976-4.29-.748-8.358-4.989-9.643-1.015-.308-2.037-.452-3.049-.452-2.971,0-5.848,1.247-8.178,3.258-7.634,6.588-6.212,17.572-2.338,26.724,2.012,4.754,3.885,9.291,5.125,14.34,4.804,19.567-3.645,37.212-18.86,49.585-16.972,13.802-39.096,19.24-60.81,19.24-1.97,0-3.938-.045-5.897-.132-.823,4.414-2.336,8.297-5.196,11.952l5.816,1.256c3.413.318,6.865.477,10.337.477,34.729,0,71.147-15.979,83.934-49.727,4.006-10.573,5.194-21.474,2.848-32.463-.692-3.243,1.492-5.356-1.015-6.101l-5.651-12.394c-2.749-6.03-2.194-16.601,3.17-16.601.089,0,.179.003.271.009-.686,2.065-.827,4.189.478,6.054,2.841,4.061,7.479,6.258,12.288,6.258,1.806,0,3.637-.31,5.404-.948,4.206-1.518,7.977-3.957,10.792-7.246-2.716-.713-4.255-2.744-3.038-5.227,1.331.374,2.653.566,3.948.566,2.792,0,5.457-.896,7.796-2.806,3.926-3.206,6.997-7.538,8.819-12.325l3.41-8.959c-2.417,1.278-4.763,1.87-7.052,1.87-2.685,0-5.292-.815-7.842-2.292-2.031-1.177-4.143-1.88-6.292-1.88-1.567,0-3.155.374-4.746,1.212-.363-.564-.555-1.546-.257-1.802l1.71-1.464c-2.613-1.675-6.024-2.627-9.399-2.627h0Z"/>
        <path d="M314.517,343.756c1.124,2.006,2.549,3.804,4.365,5.538,1.84,1.757,2.426,4.303,1.568,6.812l-.743,2.172,1.902,1.285c.375.253,1.703,1.08,3.046,1.08.765,0,1.472-.244,2.039-.696,3.077,2.643,5.326,6.234,6.305,10.154.307,1.23.137,2.177-.061,3.275-.236,1.314-.573,3.183.489,4.982-.24,6.036-3.829,11.668-9.337,14.533-1.736.903-3.616,1.38-5.439,1.38-2.727,0-5.203-1.07-6.97-3.013-.747-.821-1.146-1.855-1.096-2.836.017-.339.095-.77.323-1.203.757.526,1.634.803,2.545.803,2.689,0,4.925-2.39,5.663-4.638.867-2.638.665-5.418-.567-7.83-1.363-2.667-3.823-4.68-6.927-5.67-1.397-.445-2.84-.671-4.289-.671-5.384,0-10.585,3.165-13.573,8.26-3.234,5.513-2.754,11.23-2.29,16.758.308,3.66.625,7.445-.134,11.235-2.452,12.246-11.234,22.396-23.013,26.68,4.422-4.127,7.48-8.61,9.422-13.74,2.638-6.971,2.655-14.5.044-20.139-1.9-4.104-5.077-7.046-9.19-8.51-1.267-.451-2.542-.68-3.788-.68-2.409,0-4.66.857-6.508,2.479-1.352,1.186-2.111,3.876-1.593,5.644.385,1.312,1.436,2.249,2.742,2.445l.898.135c-.306,1.09-1.409,2.05-2.822,2.39-.632.152-1.281.229-1.927.229-4.531,0-8.501-3.705-8.849-8.259-.049-.639.095-1.43.26-1.923l.73-.198c1.114-.302,1.976-1.203,2.249-2.352.335-1.41-.271-3.398-1.321-4.34-3.749-3.365-1.613-10.064-.869-12.037.877-2.325,1.523-4.452,1.973-6.537,3.397,2.232,7.359,2.643,11.451,2.817,5.495.234,10.296,2.794,12.981,6.884l.377,4.047.083.889.556.699c.903,1.136,2.718,2.286,4.438,2.286.649,0,1.253-.152,1.796-.451,3.311-1.825,2.242-5.072,1.84-6.294-.402-1.223-.819-2.488-.304-4.472.388-1.498,1.051-3.356,2.154-4.841l.013.011,2.916,2.508,1.722-3.439c1.154-2.303,1.249-3.572,1.03-5.717-.277-2.728,3.848-6.475,8.426-8.882.682.715,1.7,1.117,2.91,1.117,1.46,0,2.706-.555,3.417-1.522l.423-.575.119-.704c.298-1.768,1.367-2.495,3.755-3.972,1.434-.887,3.066-1.896,4.64-3.386M315.301,337.852c-4.068,7.473-11.093,6.574-12.137,12.763-.142.193-.587.299-1,.299-.375,0-.723-.088-.792-.279l-.65-1.815c-5.434,2.153-13.45,7.545-12.879,13.162.17,1.668.126,2.365-.728,4.071l-2.086-1.794c-2.599,1.828-4.106,4.924-4.941,8.146-1.418,5.472,2.27,7.595-.08,8.891-.097.053-.215.078-.347.078-.653,0-1.644-.592-2.09-1.153l-.443-4.751c-3.267-5.525-9.329-8.624-15.775-8.899-6.094-.26-10.56-1.087-13.774-6.527-.152,4.569-1.101,8.251-2.584,12.186-2.049,5.434-2.363,11.706,1.672,15.328.267.239.616,1.477.292,1.565l-1.717.466c-1.049.686-1.604,3.143-1.479,4.779.48,6.278,5.874,11.031,11.84,11.031.868,0,1.749-.101,2.628-.312,2.907-.699,5.102-2.995,5.202-5.722.024-.666-.427-2.22-.98-2.303l-2.553-.384c-.743-.112-.179-2.374.383-2.867,1.341-1.176,2.894-1.734,4.53-1.734.909,0,1.844.172,2.782.506,9.171,3.264,11.085,14.882,7.346,24.761-2.877,7.601-8.381,13.147-15.219,17.767l8.758.159c13.204-4.452,23.07-15.578,25.801-29.216,2.006-10.015-2.678-18.972,2.069-27.064,2.406-4.102,6.555-6.778,10.986-6.778,1.116,0,2.25.17,3.378.53,4.356,1.389,6.964,5.416,5.555,9.705-.373,1.134-1.615,2.574-2.813,2.574-.3,0-.597-.09-.877-.298l-1.472-1.093c-.047-.035-.113-.05-.192-.05-.401,0-1.136.392-1.383.613-2.627,2.35-2.547,6.359-.068,9.083,2.44,2.682,5.747,3.994,9.189,3.994,2.286,0,4.632-.579,6.823-1.719,6.673-3.471,11.094-10.615,10.962-18.176-1.861-1.886.462-4.04-.528-8.003-1.402-5.613-4.935-10.407-9.581-13.447l-1.481,1.651c-.041.046-.109.065-.194.065-.375,0-1.088-.378-1.366-.566,1.199-3.506.41-7.332-2.334-9.952-2.656-2.536-4.487-5.315-5.654-9.272h0Z"/>
        <path d="M438.009,72.504c.099.319.207.64.327.961.75,2.009.825,4.021.237,6.331l-1.445,5.671c-4.111,1.538-7.898,3.855-11.318,6.933-8.773,7.894-14.03,19.29-14.801,32.089-.449,7.451.599,15.014,3.004,22.149-2.626-6.086-4.062-12.638-4.213-19.38-.239-10.665,2.737-21.092,8.606-30.152,3.413-5.268,7.393-10.346,12.526-15.983,2.605-2.861,4.905-5.656,7.078-8.619M445.01,81.979l.804.411-1.36,1.212c-1.185.171-2.349.397-3.491.679l2-1.138,2.047-1.165M421.644,160.59l.787.02c10.562.272,19.808,6.276,24.734,16.061.509,1.011.696,1.702.677,2.548-.691,3.579.438,6.943,3.122,9.266l2.048,1.773-2.528,2.634c-2.955,3.079-1.452,5.872-.729,7.214.547,1.016.848,1.575.519,2.82-2.238,8.476-8.048,15.449-16.074,19.383-1.229-1.044-2.557-1.969-4.037-2.809,6.184-4.762,10.618-11.335,12.71-18.981,2.272-8.793.322-17.568-5.35-24.075-2.423-2.78-6.854-6.026-11.372-6.026-2.47,0-4.581.967-6.105,2.796l-1.668,2.003,1.75,1.932.926,1.022c-.372.826-1.501,1.154-1.941,1.255-.504.124-1.017.186-1.524.186-2.848,0-5.389-1.917-6.447-4.762l.257-.128,4.242-2.116-3.728-2.928c-1.003-.788-1.156-1.458-.585-2.562,1.668-3.227,4.79-4.78,7.114-5.515l3.202-1.012M456.944,172.142c1.122,1.063,2.366,2.025,3.833,2.773.732.373.975.513,1.063.661,1.371,2.274,3.329,3.049,4.902,3.672,1.345.533,2.615,1.036,4.071,2.542,6.811,7.049,10.351,16.349,9.711,25.515-1.042,14.935-11.072,27.718-25.611,32.716-.338-.016-.675-.025-1.008-.025-2.514,0-4.784.468-6.882,1.141-.189-1.035-.474-2.115-.899-3.216,9.096-3.195,16.3-9.374,20.514-17.683,5.653-11.148,2.927-21.262-2.507-25.118l-2.947-2.091-1.514,3.281-.16.349c-.144.315-.324.709-.467.983-.814-.222-2.568-1.6-3.684-3.956l-1.566-3.306,1.646-2.523c1.283-1.968,1.387-4.158.291-6.168-.995-1.825-.531-3.603.448-6.849.252-.836.523-1.735.767-2.698M439.823,64.486c-3.487,5.537-6.978,10.079-11.11,14.617-4.767,5.234-8.995,10.459-12.826,16.371-12.557,19.383-12.227,44.461,1.65,63.267-3.632,1.147-6.998,3.365-8.875,6.998-1.182,2.287-.828,4.551,1.397,6.299l-1.926.961c-.315.157-.207,1.306-.18,1.673,1.143,4.644,5.132,7.94,9.636,7.94.736,0,1.486-.088,2.239-.273,2.61-.596,4.602-2.527,4.323-5.22l-1.799-1.985c1.005-1.206,2.336-1.716,3.799-1.716,3.066,0,6.707,2.24,9.111,4.997,5.126,5.88,6.679,13.72,4.707,21.353-2.348,8.581-7.949,15.762-15.963,20.19,3.731,1.406,6.829,3.106,9.625,5.903,9.646-4.048,16.896-12.138,19.545-22.17,1.297-4.912-3.336-5.795-.526-8.723,1.531,3.232,4.336,5.703,6.601,5.703.582,0,1.128-.163,1.607-.518.594-.44.995-1.411,1.539-2.589,6.01,4.265,4.971,14.601,1.567,21.315-4.501,8.877-12.514,14.779-22.177,17.215,2.057,2.984,2.571,5.998,2.597,9.269,3.346-1.453,6.254-2.369,9.523-2.369.46,0,.929.018,1.406.056,15.657-5.136,27.048-18.944,28.206-35.538.731-10.472-3.406-20.42-10.546-27.809-3.733-3.863-6.828-2.804-8.561-5.679-.541-.897-1.289-1.284-2.27-1.784-3.022-1.542-4.973-4.273-7.455-7.135.607,7.652-4.539,12.605-1.589,18.017.563,1.033.513,2.046-.169,3.093-1.906-1.65-2.677-3.981-2.098-6.631.092-1.602-.267-2.839-.984-4.264-5.299-10.526-15.484-17.406-27.336-17.711-12.303-19.578-12.147-47.277,5.308-62.982,5.089-4.579,11.123-7.368,17.945-8.173l5.322-4.744-6.15-3.141-3.454,1.965c.731-2.869.648-5.49-.333-8.12-.929-2.49-1.074-5.031-1.323-7.93h0Z"/>
        <path d="M285.317,181.989c.893,7.016-.067,14.224-5.209,16.791-1.118.558-2.547,1.629-3.204,2.957-.781,1.578-.402,3.416.847,4.836-.879,4.049-3.537,7.418-7.19,8.997-1.12.484-2.308.74-3.436.74-1.383,0-3.316-.376-4.668-2.169-.4-.53-.485-1.236-.271-1.767l1.829-.197,1.643-.177.729-1.483c.833-1.695.923-4.843-.27-6.828-1.586-2.639-4.684-4.092-8.722-4.092-3.347,0-7.088,1.019-10.262,2.795-8.122,4.544-14.671,12.328-18.94,22.512-3.722,8.878-5.576,19.342-5.22,29.463.719,20.466,8.73,39.355,23.168,54.626,10.333,10.93,23.758,20.091,39.9,27.226l.1.044.103.037,10.227,3.658-.492.25c-15.784-4.971-30.069-12.033-42.474-20.999-10.612-7.671-19.168-16.861-25.433-27.316-6.48-10.816-10.469-23.074-11.534-35.448-1.074-12.487.828-25.187,5.501-36.727,3.963-9.787,9.632-17.706,16.85-23.535,7.44-6.01,15.928-9.186,24.545-9.186.161,0,.32.001.48.003.958.013,1.93.057,2.871.099,1.146.052,2.33.105,3.516.105,1.767,0,3.25-.118,4.67-.372,3.995-.714,7.456-2.337,10.346-4.843M287.061,175.396c-3.036,4.698-7.303,7.533-12.617,8.483-1.388.248-2.761.325-4.142.325-2.075,0-4.167-.174-6.346-.204-.174-.002-.347-.004-.521-.004-9.732,0-18.851,3.73-26.431,9.852-8.093,6.537-13.826,15.065-17.745,24.743-9.939,24.543-7.365,52.136,6.24,74.843,6.712,11.204,15.616,20.52,26.249,28.205,13.522,9.775,28.59,16.908,44.503,21.795l7.788-3.956-16.785-6.004c-14.541-6.428-27.989-14.967-38.933-26.543-13.573-14.357-21.645-32.587-22.35-52.67-.653-18.597,6.415-40.181,22.627-49.251,2.769-1.549,5.997-2.413,8.797-2.413,2.734,0,5.061.824,6.151,2.637.62,1.031.565,3.111.149,3.959l-3.006.323c-1.903,1.516-2.137,4.426-.626,6.43,1.734,2.3,4.332,3.362,7.063,3.362,1.543,0,3.13-.339,4.626-.986,5.182-2.239,8.652-7.311,9.228-12.982-.944-.499-1.779-1.481-1.387-2.275.281-.568,1.126-1.24,1.856-1.604,8.393-4.191,8.121-16.752,5.612-26.068h0Z"/>
        <path d="M497.195,82.123l2.248,9.084c.858,3.467.932,7.062.22,10.685-.665,3.387-2.198,4.859-3.68,6.283-1.296,1.245-2.909,2.794-2.824,5.288.056,1.651,1.519,3.968,3.392,4.597.883.296,1.786.446,2.684.446.844,0,1.871-.135,2.995-.567l.36,3.442c.25,7.19-2.192,13.984-6.881,19.142-3.089,3.397-7.423,5.593-11.041,5.593-2.166,0-3.892-.768-5.13-2.283-.404-.494-.54-1.371-.374-1.993.137-.01.3-.018.487-.018.173,0,.332.006.457.017l2.156.192.862-1.986c.766-1.765.79-3.696.066-5.436-.809-1.945-2.502-3.543-4.647-4.383-1.58-.619-3.244-.933-4.948-.933-8.576,0-16.65,7.816-18.78,18.18-.717,3.489-.791,7.046-.202,10.818l-3.092-2.776-.745,5.574c-2.68-5.925-3.754-12.31-3.127-18.818,1.326-13.751,11.508-24.198,24.762-25.404l7.848-.714-6.337-4.686-.464-.343,1.619-3.412.543-1.145-.442-1.188c-1.622-4.356,3.7-11.661,8.669-13.519l.273-.102c4.023-1.503,8.184-3.057,11.406-6.912l.154-.184.123-.206,1.389-2.335M498.352,74.31l-5.124,8.614c-2.778,3.324-6.527,4.669-10.428,6.128-6.142,2.297-12.797,11.016-10.429,17.376l-2.677,5.642,2.449,1.811c-15.065,1.371-26.05,13.313-27.476,28.104-.977,10.136,1.894,19.873,7.938,28.108l1.142-8.549c2.645,2.375,3.679,4.675,6.799,6.272-2.67-6.391-4.199-12.865-2.788-19.736,1.878-9.14,8.904-15.784,15.841-15.784,1.299,0,2.595.233,3.854.726,2.434.954,4.003,3.344,2.923,5.831-.198-.018-.449-.029-.723-.029-.93,0-2.136.131-2.532.593-1.482,1.729-1.28,4.632.096,6.315,1.922,2.351,4.575,3.385,7.453,3.385,4.528,0,9.61-2.561,13.26-6.574,5.31-5.84,7.96-13.402,7.656-21.372l-.915-8.747c-1.608,1.935-3.455,3.082-5.435,3.082-.567,0-1.144-.094-1.73-.291-.57-.191-1.329-1.296-1.348-1.855-.095-2.81,5.01-3.56,6.45-10.891.775-3.944.734-8-.252-11.984l-4.003-16.177h0Z"/>
        <path d="M191.065,23.545c4.596,1.617,8.993,3.771,13.071,6.42,2.066,1.343,3.502,3.301,4.55,4.731,1.131,1.544,2.108,2.877,3.971,2.877.819,0,1.605-.309,2.213-.87l.127-.117c9.731,2.928,17.667,9.735,22.461,19.314,5.531,11.05,6.017,24.418,1.301,35.761-.718,1.726-1.748,3.053-2.996,3.892-.488-.451-1.143-.753-2.036-.753l-1.15.018-.842.72-1.028.879c-5.064,4.328-7.569,9.808-7.054,15.43.313,3.424,2.003,6.291,4.571,8.1-1.4.51-2.742,1.119-4.104,1.866-.602-10.192-2.013-18.519-4.454-26.477-1.13-3.688-2.91-7.135-5.452-10.51l.512.103c2.413.487,4.374,1.253,5.671,2.216l3.527,2.635,1.152-4.244c.045-.146.185-.458.292-.648,4.252-3.379,7.019-8.788,7.608-14.895.65-6.741-1.418-13.542-5.533-18.193-2.803-3.168-6.251-4.913-9.708-4.913-.825,0-1.657.098-2.473.292-2.117.502-3.938,1.83-4.998,3.643-.966,1.653-1.213,3.556-.695,5.36.446,1.551,2.062,2.857,2.774,3.247.473.259,1.008.395,1.547.395,1.351,0,2.239-.762,2.842-1.457.233.354.434.879.375,1.36-.226,1.875-1.658,3.423-3.563,3.853-.553.125-1.118.188-1.678.188-2.617,0-5.229-1.399-6.984-3.743-2.501-3.339-3.192-7.125-1.946-10.661l.577-1.635-1.129-1.316c-1.04-1.212-2.246-2.785-2.336-4.202-.455-7.107-3.512-13.403-8.985-18.665M175.787,17.234c11.075,4.872,20.489,12.987,21.269,25.167.143,2.226,1.573,4.238,3.053,5.964-1.635,4.639-.584,9.507,2.375,13.457,2.257,3.012,5.698,4.944,9.385,4.944.771,0,1.554-.085,2.338-.262,3.186-.719,5.507-3.308,5.882-6.421.29-2.407-1.516-5.087-3.556-5.087-.34,0-.686.074-1.03.237-.449.211-1.14,1.588-1.61,1.588-.037,0-.073-.009-.108-.028-.39-.213-1.204-1.004-1.331-1.444-.674-2.348,1.04-4.67,3.503-5.254.603-.143,1.196-.21,1.779-.21,2.839,0,5.426,1.601,7.461,3.901,7.109,8.035,6.481,22.484-1.892,28.906-.45.345-.979,1.53-1.119,2.042-1.809-1.343-4.247-2.22-6.867-2.748l-9.566-1.929c5.023,4.609,9.059,9.676,11.045,16.155,3.077,10.033,4.22,20.138,4.558,30.946,2.961-2.165,5.648-3.699,8.947-4.755,1.577-.504,2.886-1.952,3.761-3.429-4.241-.414-7.058-3.406-7.424-7.404-.466-5.09,2.199-9.613,6.016-12.875l1.028-.879c.014-.012.028-.018.043-.018.199,0,.447,1.05.57,1.582,3.267-.699,5.817-3.166,7.231-6.569,9.888-23.782-2.008-53.132-27.341-59.563l-1.354,1.25c-.054.05-.113.074-.178.074-.879,0-2.75-4.437-6.887-7.124-9.018-5.858-19.365-9.333-29.983-10.215h0Z"/>
        <path d="M383.332,286.604c1.958,1.721,4.294,2.978,7.041,3.799,2.169.648,3.288,1.64,3.989,3.539l1.25,3.385,3.1-1.847.695-.414c6.803,4.004,11.498,9.943,13.625,17.267,2.486,8.56,1.151,17.986-3.76,26.539-3.475,6.052-8.61,11.29-15.699,16.012-12.422,8.275-27.451,12.297-45.946,12.297-.782,0-1.577-.007-2.379-.022-.357-1.6-.871-3.161-1.562-4.74.285.002.569.003.852.003,18.547,0,33.874-4.055,45.554-12.053,14.988-10.263,17.817-23.537,15.467-32.538-1.382-5.293-5.893-10.652-11.842-10.652h-.001c-1.304,0-2.598.267-3.845.792-1.622.684-2.888,2.469-3.301,3.88-.463,1.583.073,2.698.433,3.223l.507.737.828.339c.258.105.517.208.771.307.204.08.454.179.687.275,0,.011,0,.021-.002.032-.782,2.057-2.823,2.368-3.984,2.368-.618,0-1.249-.087-1.875-.259-2.697-.74-5.022-2.985-6.221-6.005-.891-2.245-.884-4.635-.023-6.837.312.092.624.151.936.177l.167.013h.129c2.393,0,4.452-2.596,4.562-4.746l.07-1.372-.993-.949c-1.89-1.805-2.304-4.786-1.056-7.593.736-1.656,1.334-3.272,1.825-4.957M381.713,279.643c-.562,4.086-1.424,7.274-2.947,10.7-1.7,3.824-1.203,8.183,1.725,10.981-.04.779-.971,1.898-1.566,1.898-.013,0-.026,0-.039-.002-.675-.058-1.496-.606-2.281-1.353-2.473,3.339-3.407,7.753-1.678,12.109,1.326,3.341,4.116,6.666,8.215,7.791.883.242,1.785.366,2.669.366,3.008,0,5.803-1.434,6.865-4.514.237-.689.146-2.542-.412-2.977s-1.69-.818-2.789-1.268c-.402-.585.715-2.281,1.561-2.638.906-.382,1.804-.557,2.68-.557,4.154,0,7.772,3.938,8.94,8.41,3.044,11.66-4.537,22.648-14.259,29.305-12.434,8.514-28.342,11.529-43.859,11.529-1.992,0-3.979-.05-5.95-.144,2.24,3.525,3.645,6.839,4.121,10.813,1.646.059,3.285.089,4.919.089,17.06,0,33.388-3.328,47.609-12.801,6.781-4.517,12.581-9.949,16.638-17.015,10.232-17.822,5.709-39.172-12.519-48.761l-2.179,1.298c-1.115-3.018-3.15-4.54-5.945-5.375-4.132-1.234-7.302-3.61-9.519-7.886h0Z"/>
        <path d="M410.356,224.848c6.743,0,13.141,2.246,18.017,6.324,3.491,2.92,5.804,6.342,6.874,10.17,1.266,4.528.274,9.026-2.583,12.175l-.437-.251-2.812-1.615-1.392,2.928c-.91,1.914-2.242,2.806-4.193,2.806-.103,0-.207-.002-.312-.007-2.61-.124-5.34-1.687-5.506-4.388.001-.131.04-.37.089-.6.191-.061.445-.13.767-.196l1.749-.36.517-1.709c1.131-3.735-1.108-7.532-5.322-9.028-1.386-.492-2.829-.742-4.289-.742-6.967,0-13.604,5.645-16.141,13.727-2.826,9.003-.937,18.061,2.634,26.815l-.93-.866-.668-.621-.9-.145c-.606-.097-1.25-.162-1.873-.225-1.43-.144-3.203-.323-3.966-.907-9.526-9.002-12.648-22.956-7.955-35.581,1.137-3.058,3.454-6.806,6.269-9.651.433.48.961.825,1.554,1.007.372.114.756.172,1.139.172,2.159,0,3.338-1.607,4.378-3.025,1.234-1.682,2.77-3.776,6.161-4.825,2.966-.917,6.037-1.383,9.13-1.383M410.356,221.848c-3.367,0-6.755.508-10.017,1.517-6.833,2.114-7.903,7.716-9.652,7.716-.084,0-.17-.013-.259-.04-.419-.129-.77-1.26-.576-1.646l1.281-2.554c-5.24,2.598-10.19,9.204-12.22,14.665-5.008,13.47-1.785,28.958,8.791,38.887,1.885,1.579,5.132,1.48,7.339,1.834l3.699,3.441,6.61,3.751c-5.601-10.746-10.786-22.716-7.107-34.439,2.079-6.625,7.547-11.625,13.279-11.625,1.092,0,2.195.182,3.285.569,2.352.835,4.177,2.946,3.454,5.332-.973.2-2.275.593-2.647,1.193-.326.525-.643,1.972-.6,2.679.266,4.364,4.186,7.049,8.359,7.248.153.007.304.011.454.011,3.133,0,5.51-1.589,6.902-4.518l2.349,1.349c5.059-4.001,6.781-10.511,5.054-16.683-1.295-4.633-4.05-8.494-7.839-11.663-5.62-4.701-12.736-7.023-19.942-7.023h0Z"/>
        <path d="M337.65,203.629c.59,2.285,1.528,4.438,2.849,6.588l2.987,4.863c.591.962,1.309,1.93,2.002,2.865,2.733,3.683,4.294,6.126,2.938,8.983-3.16,6.661-3.931,13.811-4.249,19.296-.05.859-.059,1.014-2.8,2.228-.524.232-1.1.487-1.717.783,1.333-5.029.116-9.441-1.523-11.895-1.319-1.975-2.75-2.39-3.719-2.39h0c-.778,0-1.533.272-2.128.767l-1.205,1.003c-.361.173-.754.261-1.17.261-1.565,0-3.264-1.163-4.13-2.828-1.268-2.437-1.024-5.388.527-7.845.447.122.906.186,1.365.186,1.106,0,2.144-.386,2.922-1.088,1.377-1.242,1.649-3.211.806-5.853-1.449-4.541,2.328-10.793,6.245-15.923M320.43,247.998l4.234,4.867c1.15,1.323,1.896,2.925,2.841,4.953.168.362.341.732.52,1.111l.121.254-2.686,3.252c-4.647,5.628-6.787,14.076-5.723,22.599.873,6.994,3.995,13.596,9.091,19.292l-1.468.885-1.49.898.031,1.409c-7.165-4.367-12.539-11.058-15.052-18.907-2.638-8.238-1.745-16.851,2.508-24.326l1.049-.729,1.345-.935-.059-1.637c-.091-2.52.416-4.559,1.594-6.417,1.377-2.172,2.422-4.35,3.144-6.569M339.902,196.139c-5.854,6.878-13.828,16.576-11.355,24.325.291.911.565,2.242.043,2.713-.239.215-.56.317-.914.317-.69,0-1.501-.388-2.048-1.075-3.475,3.397-4.813,8.683-2.505,13.119,1.372,2.637,4.097,4.444,6.792,4.444.979,0,1.954-.239,2.858-.762l1.437-1.197c.059-.049.129-.073.208-.073,1.212,0,4.523,5.598,1.691,12.44-1.172,2.83-2.616,5.333-5.373,7.255-1.243-2.625-2.145-4.836-3.809-6.749l-8.298-9.538c-.214,4.278-1.612,8.032-3.876,11.603-1.569,2.474-2.166,5.159-2.059,8.132l-1.594,1.108c-11.201,18.808-1.484,41.795,17.915,50.314l-.105-4.734,4.715-2.842c-5.863-5.476-9.914-12.292-10.911-20.276-.886-7.098.569-14.879,5.059-20.317l4.859-5.885c7.396-8.956,14.209-6.35,14.54-12.063.359-6.195,1.263-12.492,3.964-18.184,2.82-5.943-2.617-10.67-5.095-14.704l-2.987-4.864c-2.429-3.955-3.317-7.833-3.153-12.508h0Z"/>
        <path d="M392.315,192.083l.777,1.297.073.122.084.114c4.161,5.658,4.365,12.684.531,18.337l-.087.129-.074.137-1.193,2.226-1.101,2.054,1.717,1.575c.318.292.57.522-.063,1.469l-1.224,1.832c-.473-.123-.995-.186-1.559-.186-1.263,0-2.268.334-2.986.992l-2.979,2.732.298-2.366-2.59-.64c-.684-.169-1.39-.255-2.099-.255-2.97,0-5.955,1.472-8.403,4.145-4.87,5.317-7.729,12.579-8.268,21.002-.867,13.564,3.686,27.017,12.859,38.149-.793,1.112-1.477,2.302-2.03,3.677-14.771-13.084-21.78-33.048-17.963-52.065,2.457-12.242,9.391-22.569,19.658-29.39.607.558,1.432.877,2.349.877.956,0,3.24-.496,4.201-2.031l.483-.772-.028-.911c-.05-1.657.818-3.227,2.323-4.199,3.093-1.998,5.531-4.693,7.293-8.05M391.696,185.21c-1.283,5.193-3.876,9.544-8.302,12.403-2.334,1.508-3.777,4.029-3.693,6.81-.145.231-1.111.623-1.658.623-.181,0-.317-.043-.361-.15l-.817-1.978c-12.384,7.117-20.939,18.943-23.771,33.05-4.403,21.94,4.939,44.627,22.617,57.924.57-3.938,1.858-6.327,4.21-9.018-9.394-10.499-14.654-23.855-13.757-37.885.463-7.235,2.74-13.986,7.486-19.167,1.685-1.84,3.905-3.171,6.191-3.171.458,0,.919.054,1.379.167l-.322,2.554c.527.695,1.772,1.259,2.852,1.259.525,0,1.01-.133,1.356-.45l4.133-3.79c.148-.136.54-.203.959-.203.583,0,1.219.131,1.319.388l.631,1.613,3.327-4.981c1.184-1.773,1.34-3.747-.404-5.347l1.193-2.226c4.631-6.829,4.251-15.205-.598-21.798l-3.97-6.629h0Z"/>
        <path d="M477.337,17.613l1.259,5.826.02.093.026.092,9.688,34.132c1.993,7.024,1.68,12.701-.957,17.356-.54.953-1.259,2.014-2.159,2.919-.044-.257-.1-.513-.167-.769l-1.73-6.54-3.686,5.673-3.957,6.089-3.225,2.674-.812-2.347-3.401,4.133c-.724.88-1.366.982-1.786.982-.49,0-1.062-.163-1.658-.47,4.636-3.344,7.706-7.531,9.15-12.497,1.495-5.139.227-9.962-3.394-12.9-1.414-1.147-3.225-1.779-5.101-1.779-.863,0-1.71.133-2.518.395-2.482.804-4.963,3.43-4.844,6.444-.89-.034-2.441-.433-3.726-2.519-2.254-3.662-1.465-7.996.025-10.832,1.178-2.242,2.674-3.336,3.314-3.369l.069-.002c.206,0,.498.032.808.065.437.047.932.101,1.47.101,1.228,0,2.263-.288,3.166-.881,1.63-1.071,4.18-4.378,2.689-7.17l-.292-.547-.485-.386c-1.74-1.386-.406-8.044,3.29-12.699l7.857-9.895,1.067-1.374M478.911,10.695l-5.011,6.452-7.837,9.87c-3.37,4.244-7.049,13.533-2.81,16.911.466.871-.866,2.708-1.69,3.249-.458.301-.977.389-1.518.389-.748,0-1.54-.167-2.278-.167-.075,0-.149.002-.223.005-4.836.249-10.626,10.832-5.74,18.77,1.876,3.047,4.441,3.949,6.413,3.949,1.714,0,2.981-.682,2.955-1.23l-.089-1.872c-.073-1.547,1.486-3.075,2.771-3.491.514-.167,1.053-.249,1.593-.249,1.154,0,2.309.376,3.211,1.108,2.946,2.391,3.455,6.119,2.404,9.732-1.789,6.149-6.44,10.535-12.378,13.519l4.687,2.458c1.015.532,2.061.828,3.08.828,1.485,0,2.913-.629,4.103-2.076l.478,1.38,6.911-5.729,4.206-6.472c.386,1.459.187,3.108-.127,5.035,3.575-.612,6.222-3.4,7.964-6.473,3.464-6.114,3.14-12.935,1.233-19.654l-9.688-34.132-2.618-12.109h0Z"/>
        <path d="M506.381,158.551l.839,13.3c.128,2.033-.202,4.437-.981,7.146-.755,2.624-2.313,4.321-5.75,6.26-3.273,1.847-3.853,6.984-2.8,9.571l2.084,5.025,3.129-4.398c.174-.043.525-.085.792-.117.236-.028.492-.059.767-.1-.394,9.823-2.76,19.418-6.928,27.99-4.469,9.191-14.098,17.497-26.528,22.922-.643-.286-1.536-.697-1.813-.921l-.152-.13c11-7.036,18.738-18.021,21.492-30.712,1.932-8.904.744-17.927-3.631-27.584-2.573-5.679-1.058-12.441,3.602-16.078.157-.123.35-.241.573-.378.807-.495,2.093-1.285,2.756-3.089,1.091-1.244,2.64-2.371,4.235-3.071,3.155-1.383,5.888-3.226,8.316-5.636M508.877,150.464c-3.109,5.107-6.756,8.67-12.015,10.975-2.205.967-4.299,2.546-5.726,4.37-.354,1.556-1.399,1.707-2.48,2.55-5.807,4.532-7.598,12.819-4.489,19.681,3.732,8.238,5.402,16.628,3.432,25.71-2.884,13.292-11.562,24.505-23.727,30.882l3.371,2.879c.822.702,2.713,1.434,3.734,1.912,11.855-4.931,23.66-13.378,29.253-24.883,5.092-10.474,7.521-22.094,7.272-33.857-3.059,2.657-5.441.776-7.034,3.016-.552-1.355-.285-4.822,1.496-5.828,3.382-1.909,6.023-4.096,7.159-8.043.72-2.502,1.266-5.415,1.092-8.165l-1.338-21.197h0Z"/>
        <path d="M419.198,381.344c.246,1.085.556,2.077.842,2.992.858,2.744,1.063,3.738.197,5.008l-3.435,5.039,5.357-.311c.22,2.686-.219,5.601-1.336,8.984-3.875,11.736-15.304,21.518-30.573,26.167-8.107,2.468-16.324,3.668-25.121,3.668-.646,0-1.298-.007-1.953-.02,1.009-1.376,1.87-2.864,2.732-4.408l14.858-2.526.139-.024.137-.037c10.583-2.846,22.701-9.271,24.972-18.771.922-3.857-.703-7.404-3.78-8.251l-1.74-.479-1.238,1.313-.255.27c-.727-.89-.938-2.342-.501-3.759.658-2.13,2.32-4.011,4.633-5.335.76.871,2.005,1.383,3.522,1.383.669,0,1.266-.109,1.775-.325,1.656-.701,2.115-2.284,2.482-3.556.579-2.002,1.144-3.48,3.149-4.277,1.882-.748,3.569-1.644,5.135-2.744M422.052,374.591c-2.698,3.229-5.44,5.257-9.096,6.709-5.14,2.042-4.608,7.399-5.693,7.858-.136.058-.359.087-.606.087-.57,0-1.268-.159-1.322-.497l-.312-1.962c-4.103,1.302-8.039,4.159-9.387,8.525-.847,2.742-.203,5.834,2.024,7.479.344.254,1.277.619,1.881.619.202,0,.368-.041.462-.141l1.437-1.524c1.649.454,2.113,2.758,1.658,4.661-2.055,8.597-14.184,14.246-22.833,16.572l-16.277,2.768c-1.641,2.95-3.049,5.597-5.207,7.601l-2.335,2.168c2.92.248,5.813.375,8.686.375,8.848,0,17.484-1.207,25.995-3.798,14.21-4.327,27.842-13.844,32.547-28.097,1.434-4.342,2.081-8.677,1.008-13.076l-1.964.114c3.35-4.914-2.319-8.859-.665-16.443h0Z"/>
        <path d="M450.024,94.904c3.095,0,5.954.704,8.498,2.092,1.505.821,2.996,1.352,4.513,1.602-.276.497-.563.962-.869,1.414l-.793,1.169.396,1.356c.846,2.892-.303,5.803-2.997,7.597-1.353.901-2.481,1.09-3.189,1.09-.508,0-.893-.093-1.159-.197.079-.171.179-.371.304-.601l1.184-2.192-1.937-1.567c-1.812-1.466-4.016-2.241-6.374-2.241-4.472,0-10.793,3.079-14.831,9.956-3.132,5.335-4.654,11.609-4.652,19.181v.092c.22,7.047,1.76,13.812,4.784,20.83-.798-.255-1.629-.476-2.503-.648-4.279-7.154-6.83-15.397-7.21-23.358-.427-8.942,1.828-17.278,6.52-24.105,3.884-5.652,9.066-9.392,14.985-10.815,1.812-.436,3.605-.657,5.33-.657M450.024,91.904c-1.999,0-4.022.257-6.031.74-6.982,1.679-12.682,6.104-16.756,12.032-10.685,15.547-8.543,36.345,1.328,51.905,4.058.502,7.038,2.265,10.685,3.932-4.987-8.87-7.835-17.389-8.132-26.951-.001-6.26,1.097-12.309,4.239-17.661,2.739-4.666,7.74-8.475,12.244-8.475,1.599,0,3.136.48,4.487,1.573-.441.816-.964,1.953-.912,2.564.113,1.335,1.911,2.66,4.406,2.66,1.447,0,3.128-.445,4.851-1.592,3.671-2.444,5.453-6.698,4.214-10.936,1.31-1.932,2.192-3.919,3.052-6.23-.914.201-1.773.3-2.598.3-1.798,0-3.438-.473-5.143-1.404-3.099-1.691-6.479-2.458-9.935-2.458h0Z"/>
        <path d="M333.828,400.767c.774,0,1.545.173,2.291.513,1.821.831,3.669,1.366,5.729,1.642-.773,1.21-1.369,2.514-1.817,3.948-1.125,3.607-4.052,6.015-8.242,6.782l-1.789.327-.537,1.737c-.467,1.51-.371,4.572,1.749,5.741-2.069,3.142-5.186,5.413-8.494,6.054-.281.054-.557.082-.822.082-1.056,0-1.883-.419-2.458-1.245l-.918-1.319-1.606.033c-3.197.067-5.405.626-6.947,1.762-4.473,3.294-9.259,5.194-14.806,5.841,7.859-5.536,13.639-13.11,16.425-21.784,1.204-3.749,3.093-5.574,6.521-6.301.094-.02.197-.03.305-.03.372,0,.707.125.846.248l1.444,1.283,1.766-.783c1.629-.723,3.335-1.165,4.562-1.182l1.385-.019.884-1.067c1.192-1.439,2.844-2.265,4.531-2.265M333.828,397.767c-2.629,0-5.111,1.262-6.842,3.351-1.912.026-4.094.71-5.738,1.439-.739-.657-1.795-1.006-2.839-1.006-.313,0-.625.031-.927.095-4.796,1.016-7.343,3.918-8.756,8.318-3.845,11.974-13.441,20.848-24.981,25.493,2.362.3,4.655.462,6.886.462,7.7,0,14.653-1.922,21.112-6.678,1.306-.962,3.616-1.145,5.231-1.178,1.173,1.685,2.955,2.531,4.92,2.531.456,0,.922-.046,1.393-.137,5.592-1.083,10.103-5.542,12.151-10.636l-2.71-.959c-.488-.173-.606-1.595-.401-2.259,5.055-.925,9.034-3.927,10.566-8.839,1.025-3.285,2.926-5.566,6.036-7.752-1.206.085-2.337.138-3.417.138-2.943,0-5.508-.393-8.15-1.599-1.173-.535-2.369-.784-3.536-.784h0Z"/>
        <path d="M383.797,136.879l.016.013.085.067.089.061,6.313,4.316c1.106.756,2.038,1.946,2.624,3.351l.798,1.912,2.07-.069c.059-.002.118-.003.178-.003.802,0,1.562.172,1.983.448,6.241,4.093,8.638,7.19,8.793,8.599.018.162.037.33-.281.657-.108.111-.255.229-.645.229-.436,0-1.004-.16-1.601-.449l-5.343-2.593,1.083,5.839.062.331c.157.842.455,2.433.491,3.362-3.671,5.889-2.739,13.108,2.378,17.93-1.124.467-2.27.651-3.281.692l-2.232-1.741c-.849-.662-1.883-1.012-2.992-1.012-1.251,0-2.43.445-3.416,1.003-4.437-1.874-7.407-6.518-7.411-11.337.092.007.185.01.278.01,2.407,0,5.071-2.308,5.377-4.66.53-4.066-2.625-5.506-4.141-6.198-1.172-.535-1.855-.877-2.261-1.679-1.308-2.589-1.704-5.57-1.113-8.395l1.834-8.766c.137-.655.222-1.293.265-1.921M379.999,130.027c.639,3.14,1.147,5.527.597,8.159l-1.834,8.766c-.742,3.546-.228,7.196,1.372,10.362,1.917,3.793,6.564,2.614,6.105,6.136-.111.849-1.5,2.048-2.402,2.048-.044,0-.087-.003-.128-.009l-2.752-.39c-1.846,7.697,2.951,15.904,10.437,18.052.858-.677,1.99-1.328,2.993-1.328.414,0,.806.111,1.147.377l3.045,2.375c.187.007.373.01.558.01,3.957,0,7.523-1.576,9.782-4.963l-3.77-.739c-4.373-3.956-5.193-9.964-1.692-14.94.218-1.308-.24-3.589-.545-5.23,1.017.493,2.006.75,2.911.75,1.084,0,2.049-.368,2.798-1.14,4.056-4.179-3.663-10.34-9.02-13.853-1.034-.678-2.412-.94-3.629-.94-.094,0-.186.001-.278.005-.748-1.793-2.01-3.517-3.699-4.672l-6.313-4.316-5.681-4.517h0Z"/>
        <path d="M195.747,312.612c10.672,17.925,24.922,33.236,42.193,45.183.12,1.816.047,3.692-.217,5.69l-1.304,3.173c-4.626-3.063-8.832-6.477-13.042-10.575-7.488-7.229-13.961-15.844-19.788-26.339-3.025-5.785-5.636-11.484-7.842-17.132M184.344,279.905c2.158,18.288,8.271,35.334,16.605,51.263,5.605,10.1,12.088,19.102,20.345,27.073,5.085,4.95,10.363,9.112,16.541,12.866l2.809-6.834c.386-2.704.48-5.411.154-8.157-27.206-18.434-46.461-44.94-56.454-76.211h0Z"/>
        <path d="M457.409,361.582l.157,1.672c.368,3.916.504,6.851-1.112,8.96l-.307.396c-.791,1.017-1.776,2.282-2.366,3.92l-.676,1.875,1.467,1.35c.624.574,1.388.937,2.238,1.068-.443,4.083-2.595,7.84-5.878,9.947-.927.595-1.922.91-2.877.91-.702,0-1.643-.179-2.462-.942l1.27-.341.537-1.458c.561-1.524.318-3.206-.665-4.616-1.166-1.672-3.227-2.711-5.377-2.711-.314,0-.633.022-.946.065-3.468.476-6.646,2.301-8.537,4.849l-1.214-4.021c-.49-1.625-.511-2.349-.091-3.232,1.825-3.833,4.706-7.099,8.15-9.316.388.442.904.828,1.587,1.11l2.889,1.194,1.074-2.935c.91-2.486,2.596-3.885,5.307-4.401,2.971-.565,5.588-1.684,7.832-3.344M459.765,354.598c-2.631,4.237-6.273,6.529-10.75,7.381-3.628.69-6.257,2.746-7.564,6.317-.861-.356-.946-1.209-.833-2.728-5.483,2.324-10.128,6.89-12.759,12.417-.894,1.877-.647,3.485-.073,5.389l1.359,4.501,1.193,7.043,3.537-5.992c1.373-2.325,4.129-3.888,6.942-4.275.182-.025.361-.037.537-.037,2.144,0,3.786,1.771,3.227,3.29-.93.25-2.258.889-2.37,1.567-.096.58.082,1.95.425,2.427,1.355,1.884,3.333,2.783,5.416,2.783,1.51,0,3.076-.473,4.498-1.385,5.232-3.359,8.032-9.897,7.197-16.286-.628.472-1.479.869-2.204.869-.359,0-.687-.097-.941-.332.492-1.365,1.416-2.443,2.232-3.509,2.411-3.146,2.077-7.244,1.718-11.066l-.788-8.375h0Z"/>
        <path d="M477.271,289.12c.247,2.203.32,4.4.227,6.668-.344,3.053-1.605,5.192-3.854,6.539l-.742.444-.391.771-.625,1.232c-.488.963-.45,2.092.102,3.02.383.644.974,1.129,1.767,1.453.073,3.965-2.386,7.952-6.069,9.436-.751.303-1.497.456-2.217.456-1.019,0-1.919-.306-2.676-.908-.184-.146-.322-.372-.399-.558l1.076-.699c.957-.622,1.504-1.726,1.426-2.882-.116-1.73-1.7-3.372-2.799-3.892-1.153-.545-2.379-.822-3.646-.822-2.949,0-6.468,1.776-9.388,4.989-.322-2.002-.72-3.97-1.203-5.948.083-1.789,4.858-6.599,9.041-8.753.783,1.167,2.271,1.786,3.599,1.786.915,0,1.76-.325,2.38-.914.83-.79,1.16-1.744,1.425-2.51.44-1.274.896-2.592,4.466-3.802,3.423-1.16,6.242-2.85,8.499-5.106M478.85,281.468c-2.288,5.223-6.042,8.222-11.041,9.917-6.742,2.285-5.854,5.893-6.996,6.98-.064.061-.177.088-.312.088-.434,0-1.102-.274-1.146-.554l-.333-2.166c-5.573,1.032-15.071,9.333-14.093,13.332,1.223,4.996,1.859,9.74,2.097,15.112,1.621-5.636,6.597-11.797,11.425-11.797.797,0,1.59.168,2.363.534.402.19,1.35,1.332,1.021,1.546l-1.483.964c-1.789,1.163-1.014,3.894.571,5.156,1.321,1.052,2.898,1.562,4.544,1.562,1.1,0,2.231-.228,3.338-.673,5.737-2.312,8.987-8.904,7.647-14.736-.81-.023-2.062-.264-1.893-.599l.625-1.231c3.256-1.951,4.904-5.103,5.305-8.887.21-4.884-.305-9.553-1.641-14.546h0Z"/>
        <path d="M343.646,310.802c1.925,0,3.883.553,5.661,1.6,4.524,2.663,7.081,7.906,6.673,13.683-.84,11.905-13.08,20.029-24.414,20.542-.243-.54-.514-1.067-.816-1.586,2.79-.51,5.607-1.275,8.334-2.604,10.405-5.071,13.51-15.117,10.419-21.517-1.059-2.193-3.22-3.555-5.641-3.555-.625,0-1.245.093-1.846.275l-3.354,1.019,1.525,3.156c.173.358.292.627.373.827-.335.219-.934.477-1.727.477-.626,0-1.254-.159-1.865-.473-1.084-.555-2.101-2.016-2.316-3.324-.11-.669-.005-1.175.313-1.502l.731-.753.103-1.045.015-.159c.039-.402.139-1.447.322-1.818,2.06-2.093,4.723-3.245,7.509-3.245M343.646,307.802c-3.555,0-7.02,1.43-9.725,4.219-.875.903-1.007,2.677-1.108,3.709-2.702,2.781-.45,7.927,2.786,9.586,1.107.568,2.212.803,3.234.803,2.582,0,4.637-1.502,4.875-2.942.109-.661-.429-1.859-.819-2.667.321-.098.649-.145.973-.145,1.201,0,2.357.653,2.939,1.859,3.047,6.311-2.056,14.117-9.032,17.516-3.929,1.915-8.161,2.551-12.53,3.05,2.134,2.231,3.456,4.254,4.259,6.847.311.01.622.015.933.015,13.715,0,27.573-9.673,28.539-23.357.471-6.679-2.399-13.099-8.143-16.48-2.294-1.351-4.759-2.015-7.183-2.015h0Z"/>
        <path d="M434.999,403.672c.282,0,.425.063.508.11l.943.533,1.066-.192c.231-.042.458-.062.695-.062.76,0,1.557.216,2.479.467,1.19.323,2.537.689,4.158.698l-1.933,4.52c-1.005,2.35-3.249,4.824-5.997,5.053l-.48.037c-1.717.126-4.312.317-6.063,3.285l-1.112,1.884,1.453,1.635c.835.939,1.636,1.641,2.598,2.224-2.721,4.043-6.644,7.625-9.529,7.625-.785,0-1.461-.296-2.127-.932l-1.73-1.65-1.995,1.318c-2.407,1.591-5.4,2.499-9.1,2.755,11.347-6.612,19.313-16.269,22.539-27.613,1.32-1.045,2.69-1.694,3.627-1.694M450.128,400.512c-2.091,1.304-3.758,1.714-5.219,1.714-2.466,0-4.349-1.165-6.697-1.165-.394,0-.802.033-1.227.109-.611-.345-1.282-.498-1.985-.498-2.079,0-4.431,1.34-6.278,3.009-3.988,15.373-16.748,26.155-31.798,31.499,3.133.485,6.416.874,9.643.874,4.668,0,9.218-.814,13.021-3.327,1.293,1.233,2.72,1.761,4.198,1.761,5.233,0,11.097-6.622,13.828-12.02-2.361-.763-3.42-1.434-4.655-2.822,1.054-1.785,2.366-1.703,4.21-1.857,3.834-.321,7.018-3.385,8.505-6.863l4.454-10.413h0Z"/>
        <path d="M344.708,258.46c.248,1.48.635,2.867,1.014,4.23.112.4.225.807.337,1.223-.173.563-.573,1.463-1.425,2.898-3.164.777-5.672,2.919-7.469,6.386-3.386,6.533-3.631,16.373,4.113,26.404-.563.042-1.116.116-1.663.222-11.025-10.303-12.464-23.843-3.559-34.852,2.341-2.894,5.241-5.075,8.651-6.51M347.473,254.385c-5.44,1.377-10.133,4.228-13.749,8.699-10.787,13.336-7.498,29.18,5.08,40.041,1.248-.405,2.439-.567,3.626-.567,2.183,0,4.353.547,6.836,1.13-8.662-7.628-14.675-19.008-9.438-29.111,1.411-2.722,3.385-4.711,6.654-5.047.948-1.492,2.43-3.93,2.659-5.693-.858-3.351-1.907-6.038-1.668-9.452h0Z"/>
        <path d="M459.571,330.965c.607,0,1.272.238,2.113.54.654.235,1.401.502,2.244.687-.076.366-.169.735-.276,1.106-2.602.156-4.256,1.804-5.29,3.059l-2.589,3.142-2.21,2.682,2.603,1.569c-.181,1.611-.704,4.274-1.735,6.096-1.571,2.777-4.088,4.218-8.159,4.673l-.566.063-.503.266-2.771,1.465c2.377-4.543,4.102-8.947,5.353-13.589l.03-.11.021-.112,1.441-7.605c.283-1.166,3.628-3.815,5.575-3.815.068,0,.116.005.145.009l1.443,1.149,1.722-.88c.692-.354,1.135-.395,1.407-.395M459.571,327.965c-.832,0-1.737.194-2.773.724-.53-.422-1.2-.606-1.944-.606-3.286,0-8.019,3.6-8.521,6.25l-1.443,7.612c-2.165,8.028-5.79,14.953-10.551,21.969l4.254-2.176,8.013-4.236c4.406-.492,8.145-2.125,10.438-6.177,2.028-3.583,2.376-9.115,2.128-9.265l-1.082-.652,2.589-3.142c.96-1.165,1.947-1.978,3.379-1.978.476,0,1.001.09,1.59.286.645-1.475,1.119-3.005,1.368-4.582l.437-2.773c-.536.142-1.037.2-1.512.2-2.36,0-4.091-1.452-6.369-1.452h0Z"/>
        <path d="M346.4,418.16l1.064,1.671,2.153-.615c.217-.062.577-.136,1.057-.136.934,0,1.783.274,2.271.733,1.004.945,1.972,1.698,2.984,2.294-1.221,1.351-2.191,2.843-3.145,4.31l-.23.353c-3.442,5.281-11.05,6.389-16.826,6.389-.464,0-.936-.008-1.412-.022,2.949-1.819,5.561-4.418,7.692-7.682,1.156-1.771,1.655-3.64,2.096-5.289.118-.441.237-.888.371-1.339.253-.232,1.013-.53,1.927-.668M347.392,415.083c-2.065,0-5.153.766-5.757,2.766-.64,2.116-.956,4.153-2.14,5.968-2.538,3.886-6.036,7.057-10.505,8.516-1.328-.156-2.573-.229-3.844-.229-1.251,0-2.527.07-3.927.2,1.489,1.946,3.246,2.698,5.41,3.065,2.824.479,5.95.792,9.098.792,7.69,0,15.505-1.868,19.34-7.751,2.047-3.14,3.748-5.93,7.559-7.383-3.554-.357-5.456-1.356-7.624-3.398-1.153-1.085-2.798-1.549-4.327-1.549-.666,0-1.31.088-1.882.251l-.778-1.223c-.193-.017-.402-.026-.622-.026h0Z"/>
        <path d="M428.634,183.257c3.281,3.762,4.387,9.105,2.802,14.539-1.84,6.447-6.178,11.98-12.129,15.601,4.492-4.473,7.542-9.884,8.841-15.834.991-4.543.52-8.706-1.4-12.424.741-.52,1.373-1.152,1.885-1.882M427.157,178.076c-.003,2.939-1.589,5.181-4.929,5.639,3.188,3.89,4.049,8.358,2.99,13.209-1.931,8.849-7.895,15.733-15.821,20.194l7.882.732c8.178-3.685,14.575-10.586,17.042-19.23,2.253-7.725-.083-16.028-7.164-20.543h0Z"/>
      </g>
    </g>
  </g>
</svg>