<?xml version="1.0" encoding="UTF-8"?>
<svg id="b" data-name="Layer 2" xmlns="http://www.w3.org/2000/svg" width="283.669" height="427.36" viewBox="0 0 283.669 427.36">
  <g id="c" data-name="Layer 1">
    <g id="d" data-name="hrx1J8">
      <g>
        <path d="M129.31,324.82l-.56,1.6c-19.69-3.53-37.97-12.45-52.66-26.13-15.51-14.46-26.08-34.23-26.8-55.68-.32-9.71,1.78-18.91,5.95-27.61l5.71-11.94c20.72-49.3-16.47-104.79-54.57-135.38.84,3.11,1.99,5.7,3.07,8.53,3.19,8.3,6.81,11.13,12.99,16.76,3.91,3.56,10.53,10.77,10.88,15.38.12,1.63-1.28,2.68-2.75,2.58-1.91-.13-3.21-1.47-3.95-3.271-2.49.7-4.68,0-6.84-1.3,1.75,5.89,6.97,9.38,13.09,8.78,4.88-.47,7.87,2.44,9.69,6.63-6.29-2.83-12.86-1.29-17.57,3.3-4.47,4.35-6.06,10.16-6.45,16.6-.82-3.07-.3-5.83-.63-8.87-.41-14.03-2.27-27.74-6.15-41.26-2.97-10.94-6.99-21.07-11.76-31.75,18.03,12.61,33.09,28.13,45.44,45.73,20.95,30.66,33.67,68.56,15.88,103.5l-3.87,7.59c-9.96,19.55-5.32,44.34,6.33,62.67,14.77,23.23,38.85,37.88,65.53,43.54Z"/>
        <path d="M104.43,409.66c-.72.75-2.04,2.03-2.96,2.55l-7.49-.02c-28-14.56-54.83-43.62-69.7-71.2-9.7-17.97-16.3-37.38-19.41-57.61-2.66-17.26-2.64-34.53-.46-51.81,1.02-8.04,2.43-15.5,4.13-23.39,4.01-18.58,7.22-36.96,9.05-56.11,4.37,9.43,5.2,16.49,3.13,26.89-1.78,8.99-3.95,17.55-6.19,26.44-5.26,20.85-8.03,36.2-7.07,58.02.71,16.05,3.54,31.69,8.6,46.92,11.52,34.71,33.13,63.79,62.28,85.66,7.2,5.39,17.28,12.16,26.09,13.66Z"/>
        <path d="M151.41,314.94c-2.17-.32-4.74-.07-6.81-.86-10.14-3.85-18.87-10.25-26.27-18.16-22.79-24.36-31.2-60.92-21.47-92.75,4.69-15.34,13.74-28.5,26.19-38.49l7.59-6.46c4.63-3.94,6.04-9.97,4.07-15.93,3.46,3.01,5.71,6.72,6.11,11.3.37,4.1-1.13,8.95-4.97,11.06-7.73,4.24-14.89,8.92-20.9,15.42-7.37,7.95-12.2,17.46-14.88,27.92-8.15,31.71.96,65.56,23.96,88.85,7.78,7.87,16.9,13.96,27.38,18.1Z"/>
        <path d="M250.86,329.66c-1.58,10.53-4.64,20.51-9.96,29.74-.1-3.01-.55-5.58-2.47-7.78,1.45-2.37,2.72-4.64,3.53-7.34,4.18-13.98,3.92-30.91-4.73-43.29-5.15,5.39-12.81,2.96-17.52-2.59-8.35-10.33-9.94-25.11-6.83-37.63.92,2.48,1.96,4.56,3.72,5.99,1.53-.55,2.73-.15,3.39,1.35.9,2.04.66,4.23-1.34,5.65-.78,7.84,1.6,15.65,6.49,21.81.94,1.18,2.59,1.98,3.94,2.19,2.03.32,3.74-.65,4.31-2.55-1.7.9-3.43.46-4.48-.67-1.21-1.32-1.49-3.14-.65-4.8,1.39-2.74,4.67-3.99,7.76-3.37,3.21.64,5.84,2.62,7.89,5.17,7.77,9.65,8.8,25.89,6.95,38.12Z"/>
        <path d="M182.88,378.28c-2.16,1.42-4.96,1.46-6.9-.18-1.15-.97-1.49-2.41-1.14-3.71.37-1.35,1.42-2.2,3.03-2.45-.68-2.14-2.52-3.43-4.7-4.18-5.44-1.89-11.32-1.64-16.93-.11-7.39,2.02-13.84,6.3-18.07,12.54-7.24,10.69-5.26,24.17,4.71,32.65-5.62-1.04-10.59-.98-15.42,2.33.58.53,1.5.85,2.61,1.21-4.09,4.26-12.61,4.78-17.11,1.87-1.63-1.05-2.91-2.75-2.71-4.84.29-2.95,3.24-5.19,6.2-4.57,1.5.31,2.62,1.41,4,2.45-.04-2.48,1.47-4.02,3.76-4.49,2.44-.51,4.72.33,7.59,1.16-7.12-11.11-4.72-24.36,3.95-34.4,7.57-8.77,18.67-14.04,30.27-14.48,7.39-.28,16.28,1.52,19.58,8.01,2.04,3.99.99,8.76-2.72,11.19Z"/>
        <path d="M159.86,190.98c-1.49,2.77-4.45,4.47-7.53,3.36-1.02-.37-1.99-1.48-2.16-2.29-.27-1.23.13-2.33,1.08-3.37-2.06-1.72-6.67-.98-9.64.1-3.88,1.43-7.229,3.56-10.43,6.25-7.09,5.94-12.2,13.45-15.92,22.11-4.15,9.66-5.59,19.69-5.02,30.09.54,9.89,3.09,19.17,7.02,28.2,3.26,7.49,7.54,13.95,12.6,20.65-2.34-1.92-4.479-4.02-6.52-6.53-17.53-21.72-24.16-52.35-12.7-78.49,4.54-10.35,11.4-19.25,20.62-25.76,7-4.94,18.2-9.22,25.42-4.87,3.83,2.3,5.23,6.729,3.18,10.55Z"/>
        <path d="M89.77,395.1c-10.9-7.3-17.88-19.28-19.09-32.71-.75-8.32,1.27-16,5.5-22.85,2.44-3.94,4.19-8.55,1.92-12.51-.85-1.49-2.4-2.45-3.74-2.7-1.9-.35-3.75.22-4.9,1.52-1.24,1.42-1.01,2.77-.28,4.23.68,1.36-.72,2.91-2.03,3.37-2.45.86-4.86-.04-6.8-1.8-2.6-2.38-3.79-5.79-4.34-9.34-.92-5.92.57-11.57,2.91-17,1.79-4.14,1.39-8.59.67-13.17,3,2.76,5.13,6.01,6.38,9.82.23.7.91,1.37,1.59,1.61,3.71,1.36,6.73,3.91,8.18,7.84-2.7-.38-5.4-.31-7.93.8-3.94,1.73-6.11,5.78-4.98,10.07,2.09-4.7,6.29-7.02,11.23-6.76,6.46.35,11.41,5.58,11.89,12.15.3,4.23-.9,8.52-3.32,12.13-6.83,10.21-8.79,22.27-5.36,34.15,2.32,8.04,6.61,14.65,12.5,21.15Z"/>
        <path d="M60.5,370.3c-3.88-2.91-6.56-6.6-9.63-10.2-14.08-17.5-23.83-37.63-29.39-59.45-3.51-13.82-5.04-27.97-4.5-42.25.49-12.92,2.88-25.41,7.57-37.4,5.93-15.17,15.02-27.77,31.85-30.93-.55,3.49-1.57,6.68-4.35,8.81,3.21,4.33,1.67,10.72-3.05,13.16-1.53.79-3.24.78-4.53-.35-.43-.37-.94-1.56-.84-2.14.11-.6.81-1.4,1.42-2.13-1.72-1.37-3.98-.85-5.72.28-3.64,2.36-6.17,5.8-8.29,9.66-10.61,19.26-12.56,45.06-9.71,66.78,1.83,13.85,5.65,27.1,11.06,39.95,7.08,16.8,16.74,31.86,28.11,46.21Z"/>
        <path d="M169.21,331c-3.94,4.83-10.51,7.61-16.89,6.36,2.08,3.78,5.99,3.78,10.32,2.34-2.63,3.64-5.99,6.26-9.85,8.57-8.75,5.23-19.07,6.95-29.29,4.66,9.18-.93,19.94-5.71,21.23-15.35.15-2.43-.76-4.73-3.16-5.47.33,1.62-.41,3.13-2.09,3.63-2.01.59-3.78-.27-5.04-1.73-1.93-2.25-2.23-5.32-1.01-8.14,2.74-6.32,10.53-8.85,16.51-5.37,1.05.61,2.03,1.72,2.37,2.84.3.98-.05,2.29-.69,2.95-.62.64-1.68.8-3.11.85,1.5,2.52,4.08,4.12,7.18,4.229,3.51.11,6.73-1.59,8.79-4.52-1.94.58-3.85,1.08-5.64.46-1.98-.68-2.8-2.66-2.03-4.56.78-1.94,2.69-3.21,4.77-3.61,5.77-1.23,10.43-3.64,13.42-9.09,1.05,7.57-1.01,15.09-5.79,20.95Z"/>
        <path d="M134.9,317.82c-1.63,1.25-2.65,2.19-3.75,3.48-26.26-5.52-50.66-21.59-64.09-44.92-9.19-15.96-13.13-35.97-6-53.19,2.29-5.51,5.37-10.49,10.07-14.3-2.93,5.31-5.32,10.33-6.54,16.15-4.84,23.12,2.82,46.06,18.58,63.32,13.47,14.76,32.26,25.65,51.73,29.46Z"/>
        <path d="M263.86,341.37c-5.79,13.75-13.16,26.41-22.09,38.34-12.3,16.43-28.09,31.13-46.83,39.58l-2.2-1.64c29.58-12.71,53.59-46.37,65.96-75.17,5.58-13,9.48-29.8,6.23-43.69-1.2.33-2.51.17-3.39-.72-1.83-1.84-2.28-4.48-1.51-6.89.61-1.91,1.93-3.09,3.95-3.71-1.17-1.32-1.32-3.19-.22-4.29,2.57-2.55,6.66,2.31,8,7.96,3.66,15.3-1.75,35.62-7.9,50.229Z"/>
        <path d="M198.52,427.36h-16.91c-3.24-2.46-6.729-3.96-10.59-5.18l-11.87-3.76c-5.12-2.21-9.46-5.5-12.2-10.29-4.4-7.67-2.82-17.32,4.1-22.75,3.86-3.03,8.64-4.1,13.32-2.87,3.41.9,6.04,3.34,6.98,6.74,1.1,4.02-1.21,8.23-5.24,9.19-1.92.47-3.81-.18-4.78-1.79-.8-1.33-.37-2.83.97-3.86-2.05-1.68-4.84-1.08-6.71.76-2.78,2.72-3.09,7-1.36,10.55,3.37,6.93,11.15,9.09,18.45,10.61,6.75,1.41,13.03,3.81,18.67,7.73l7.17,4.92Z"/>
        <path d="M219.4,377.01c-5.76,15.31-19.51,29.27-35.05,34.45-2.08.69-4.04.89-5.93.18,17.86-5.66,34.11-25.37,34.59-43.92.12-4.96-1.66-10.4-6.4-11.15-1.93-.31-3.729.52-4.55,2.44,2.17.52,3.32,2.49,2.61,4.54-.52,1.47-1.78,2.69-3.32,3.19-3.12,1-6.47-.5-8.04-3.4-1.76-3.29-1.43-7.06.65-10.27,4.24-6.54,13.1-8.96,20.04-5.19,4.46,2.42,6.96,6.98,7.7,11.92.87,5.91-.19,11.58-2.3,17.21Z"/>
        <path d="M161.27,161.73c-4.21,3.36-8.89,5.57-13.85,7.69l-12.36,5.28c-6.54,3.56-12.36,7.76-17.41,13.45-7.75,8.67-12.2,18.73-15.34,29.89,1.82-17.21,11.7-32.59,25.9-42.32,5.4-3.71,11.02-6.33,17.07-8.77,10.39-4.14,20.15-10.36,23.17-21.53,1.34-5.36.11-10.81-3.72-14.79-4.51-2.13-7.39-6.01-8.74-10.86-3.18-12.98,4.95-26.75,14.34-35.73-4.25,9.55-4.95,17.44-.31,26.89-3.61.43-6.59,3.16-6.91,6.91-.34,3.93,1.76,7.47,5.45,8.62,9.1,11.66,3.52,26.62-7.29,35.27Z"/>
        <path d="M194.2,339.06c-9.11,7.91-20.35,13.28-32.43,15.28,7.45-2.9,14.68-5.86,21.24-10.51,7.56-5.11,13.64-11.65,17.82-19.74,5.94-11.75,6.56-26.72-2.49-36.61-3.33-3.64-7.93-5.81-12.81-5.48-2.78.19-5.48,1.54-6.52,3.96,1.01.42,1.95.89,2.26,1.44.4.73.48,2.07.1,2.87-1.35,2.77-4.94,3.05-7.2,1.08-2.04-1.79-2.57-4.55-1.83-7.26,1.16-4.21,4.65-7.15,8.91-8.4,6.1-1.78,12.63-.48,17.88,3.14,5.17,3.56,8.64,8.56,10.55,14.62,5.21,16.56-2.56,34.4-15.48,45.61Z"/>
        <path d="M172.44,229.77c-13.43,7.46-24.29,18.43-28.42,33.51-4.18,15.25-.16,33.17,12.08,43.52,3.14,2.73,6.42,4.39,10.74,5.79-1.37.74-2.76,1.26-4.33,1.67-7.15-2.56-12.85-7.21-16.94-13.58-7.2-11.22-9.02-24.84-5.54-37.73,3.76-13.94,11.79-24.62,21.82-34.66l7.19-7.19c1.94-1.95,3.26-4.39,4.11-6.99,1.19-3.61.62-7.17-1.6-10.48,2.73.69,4.82,2.47,6.36,4.62,5.37,7.48,2.41,17.15-5.47,21.52Z"/>
        <path d="M169.53,427.35l-96.71.01c7.14-6.91,15.66-11.6,25.34-11.1,1.76.09,3.88.38,5.22,1.39l4.32,3.25c6.74,3.2,14.4,3.69,21.51,1.4,1.97-.63,4.15-1.51,5.52-2.94,1.36-1.42,2.46-2.48,4.82-2.66,3.54.02,6.99.8,10.08,2.45,6.36,3.39,12.77,5.69,19.9,8.2Z"/>
        <path d="M41.25,260.17c-.66.12-1.71-.2-2.08-.6-1.05-1.13.12-3.4-1.36-3.13-2.02.36-4.64,6.22-5.52,9.52-5.41,18.21-1.92,36.39,3.15,54.46-4.6-10.05-7.33-20.62-8.97-31.59-1.57-10.55-1.81-20.9-.47-31.46.89-7.08,2.64-13.56,5.44-20.04,1.95-4.49,2.75-9.09,1.67-14.11,2.99,2.08,4.68,5.04,5.98,8.26,1.83,4.52,1.51,9.17-1.26,13.49,2.23-.38,3.9.04,5.18,1.59,4.03,4.86,2.66,12.83-1.76,13.61Z"/>
        <path d="M199.37,132.92c-3.13,21.38-19.64,38.55-40.77,42.77l-4.47-.98c6.32-1.81,12.01-4.09,17.41-7.61,10.97-7.15,19.96-19.71,18.05-33.07-1.04-.11-1.97-.45-2.55-1.18-2.02-2.56-1.87-6.31.38-8.61,1.26-1.29,2.72-1.39,4.53-.82l-1.36-2.96c-.69-1.49-1.69-3.11-1.62-4.86.23-5.39,4.07-10.06,9.55-10.92-3.3,3.71-3.27,8.189-1.17,12.3,2.49,4.85,2.82,10.44,2.02,15.94Z"/>
        <path d="M189.01,185.7c-.5,1.35-.42,3.13-.24,4.59-1.43,2.14-2.39,4.45-1.73,7.27.41,1.99,1.99,4.06,4.22,5.13,6.32,10.62,1.88,22.29-6.79,30.25-3.45,3.16-7.31,5.38-11.51,7.43-17.16,8.35-26.81,22.32-26.2,41.86-2.81-11.5,2.18-24.73,10.13-33.44,8.88-9.73,18.44-11.84,24.95-17.82,3.16-2.89,5.56-6.29,6.99-10.32,1.75-4.93,1.04-10.19-2-14.43-3.54-1.95-5.54-5.28-6.15-9.3-1-11.73,7.47-24.55,16.44-32.09l-2.09,5.53c-2.11,5.6-1.73,11.7.46,17.35-1.66-.02-2.73.11-4.44.74l-2.04-2.75Z"/>
        <path d="M217.48,61.82c-4.9,1.5-9.28,3.37-13.77,5.83-16.65,9.17-27.63,21.91-27.88,41.82-3.16-11.03,3.43-24.98,11.79-33.01,7.83-7.51,17.25-13.47,27.52-16.81,12.17-3.96,21.23-14.19,21.57-27.39.27-10.08-4.79-19.68-13.23-25.41,4.51,9.67,6.87,18.89,3.98,29.39-1.64,6.23-4.82,11.8-9.85,16.02l4.79-8.7c3.98-8.23,4.8-17.27,2.3-26.07-1.87-6.6-4.95-12.44-9.66-17.49,12.01,3.69,21.57,11.85,24.98,24.01,4.67,16.67-6.44,32.87-22.54,37.81Z"/>
        <path d="M229.37,350.24c-1.76.42-3.45-.26-4.47-1.37-1.06-1.14-1.58-3.15-.57-4.56,1.88-2.63,2.54-5.59,1.65-8.65-3.1,3.54-7.34,5.21-12.03,5.78-3.18-.73-5.94-.7-8.74.01,1.66-6.09,10.45-13.11,12.19-7.72,2.47-.45.39-3.89,5.03-6.99,5.05-3.38,7.7-8.67,7.3-15.11,3.06,3.73,4.85,7.88,6.23,12.38,2.71,8.83,2.9,23.99-6.59,26.23Z"/>
        <path d="M187.78,257.63c-1.01,2-3.15,3.59-5.7,3.43-1.16-.08-2.49-.87-2.89-1.64-.7-1.35-.42-2.39.53-3.88-3.41-1.42-7.94.23-11.13,2.36-4.53,3.01-7.77,7.22-10.02,12.32-3.69,8.36-3.42,17.34.66,25.33,2.59,5.07,6.57,9.14,11.85,11.32.14.05.63.2.57.311l-.51.87c-13.05-2.96-20.74-16.56-20.1-29.85.57-11.6,6.89-22.32,16.84-28.14,6.63-3.87,15.68-5.09,19.54.93,1.32,2.05,1.41,4.54.36,6.64Z"/>
        <path d="M60.61,360.94c-11.52-14.1-19.15-30.87-23.11-48.48-1.23-6.18-2.12-11.99-1.78-18.22.59-8.66,3.72-17.83,11.63-22.35l.47,4.74c.12,1.15,0,2.45-.19,3.68,4.56,1.55,6.94,7.81,5.08,12.18-.67,1.56-1.74,2.76-3.6,2.71-.64-.01-1.68-.54-2.01-1.03-.48-.74-.43-1.58-.11-2.65-3.77-.92-4.94,6.31-5.1,10.9-.31,9.02,1.13,17.69,3.88,26.29,3.45,11.51,8.86,21.76,14.84,32.23Z"/>
        <path d="M219.99,90.75c-1.64,1.54-3.85,2.1-5.97,1.4-1.15-.38-2.12-1.41-2.38-2.41-.35-1.3.09-2.25.94-3.6-2.11-.56-4.13-.69-6.5-.2-12.08,2.51-20.76,12.88-21.41,25.06-.15,2.8.34,5.21,1.16,7.9l-2.13,2.15c-5.17-7.99-4.37-18.78.21-26.82,4.76-8.33,12.36-14.33,21.6-16.95,6.24-1.77,13.35-1.31,16.23,4.51,1.5,3.03.63,6.72-1.75,8.96Z"/>
        <path d="M220.96,207.13c-2.5,17.75-15.75,34.24-33.97,37.27l-3.09-1.05c10.85-3.44,20.51-10.72,24.88-21,1.64-3.86,2.61-7.85,2.13-11.96l-1.79-.62c-1.76-1.88-1.98-4.41-.98-6.71,1.03-2.36,3.42-3.62,6-2.64l-1.45-4.38c-1.71-5.15,2.28-10.89,7.67-11.93-2.15,2.84-2.97,6.43-1.45,9.64,2.01,4.25,2.52,8.53,2.05,13.38Z"/>
        <path d="M247.27,166.18c.2,2.96-1.3,5.88-4.1,7.18-1.72.8-3.73.86-5.29-.26-.64-.46-1.28-1.54-1.35-2.18-.1-.96.36-1.87,1.14-2.9-.99-.4-2.4-.77-3.59-.69-12.42.77-22.11,9.78-24.75,21.93-.5,2.32-.55,4.57-.09,6.96l-2.58,1.4c-2.58-6.83-1.43-15.01,2.31-21.54,5.43-9.47,15.08-16.05,25.94-17.35,6.23-.74,11.99,1.93,12.36,7.45Z"/>
        <path d="M233.1,82.63c-2.29,2.52-4.56,4.66-7.59,6.31,1.52-3.88,1.13-7.71-1.36-10.8,2.67-1.44,4.66-3.521,5.6-6.56-3.95,2.3-9.68,2.9-10.81-.22-.88-2.44,1.81-5.01,5.19-5.46,4.729-1.6,8.6-4.64,11.92-8.37,4.36-5.14,6.64-11.25,7.63-18.13,2.91,15.64-.51,30.81-10.58,43.23Z"/>
        <path d="M44.97,138.8c-1.08,1.7-3.24,2.31-4.86,1.24-1.14-.76-1.16-2.13-.7-3.28-1.25-1.25-3.36-.75-4.86.16-2.15,1.3-3.48,3.51-4.14,6-1.71,6.44,2.14,10.86,1.5,18.41-.8,9.44-4.93,18.41-9.2,26.88,2.63-11.9,7.33-22.5,2.28-34.06-3.99-9.14-2.61-20.69,5.96-25.68,3.83-2.22,8.38-2.28,11.91.26,3.3,2.37,4.25,6.69,2.11,10.07Z"/>
        <path d="M117.15,339.33c-1.28,2.34-3.99,3.58-6.46,2.48-.86-.38-1.73-1.58-1.74-2.36-.01-1.04.58-1.91,1.33-2.71-4.11-3.15-11.43.35-15.53,4.27-9.59,9.2-12.19,23.23-8.71,35.87,1.78,6.43,5.16,11.78,8.88,17.37-9.87-9.07-14.94-22.53-13.54-35.78,1.41-13.44,10.49-28.61,24.25-30.33,3.16-.39,6.19.08,8.8,1.72,3.25,2.04,4.55,6.13,2.72,9.47Z"/>
        <path d="M269.05,129.55c-4.35,8.09-12.63,13.23-21.74,14.66-5.79,1.9-11.16,4-16.68,6.52-16.04,7.82-26.99,17.66-29.29,36.24-.99-4.98.39-9.89,2.39-14.45,4.69-10.89,14.35-18,24.69-23.36,6.08-2.91,12.03-5.47,18.35-7.76,8.6-1.27,15.73-6.4,19.51-14.14,4.19-8.58,2.31-18.99-5.23-25.35,2.69,8.24,2.17,16.05-1.73,23.33-2.61,4.88-6.33,9.19-11.7,11.27,13.06-10.94,17.69-27.2,6.52-41.26,3.29,1.09,5.93,2.71,8.56,4.73,9.08,6.99,11.86,19.32,6.35,29.57Z"/>
        <path d="M54.68,174.31c-.87.11-2.06-.62-2.35-1.3-.44-1.02-.02-1.97.87-3.03-1.36-.62-3.04-.36-4.4.44-7.34,4.29-14.85,15.54-19.19,23.3-7.09,12.67-11.84,26.13-15.25,40.2.64-8.93,3.07-17.11,5.84-25.46,6.5-18.04,15.68-34.56,29.15-48.22,3.5-4.01,5.33-8.56,5.73-14.2,3.65,7.13,7.41,27.3-.4,28.27Z"/>
        <path d="M269.89,148.15c-3.43,10.19-10.3,19.95-20.53,23.97,2.05-3.47,2.42-7.39.19-10.83,3.03-1.02,4.86-2.97,6.15-5.63-3.92,1.75-9.19,1.64-10.15-1.24-.25-.74.13-2.14.62-2.76,1.1-1.39,2.51-1.55,4.15-1.83,11.11-1.89,19.41-10.19,22.48-21.05.35,6.82-1,13.12-2.91,19.37Z"/>
        <path d="M270.5,281.02c-1.53-1.62-2.84-2.68-4.43-3.87-1.74-1.3-2.4-3.59-3.03-5.94-2.24,2.58-2.55,5.93-2.26,9.34.11,1.27-1.16,2.42-2.01,2.74-4.32,1.6-7.59-4.68-7.49-10.94.06-3.6,1.08-6.89,2.75-10.15l3.3,3.16c-.41-7.17,3.57-10.69,9.04-14.19l5.29-3.38c-3.82,11.56-3.28,21.71-1.16,33.23Z"/>
        <path d="M129.57,370.49c-.4,2.07-1.88,4.09-4.09,4.97-1.68.67-3.55.38-4.66-.99-1-1.24-.85-2.58.35-3.93-1.28-.69-2.73-.75-4.15-.23-5.85,2.13-7.74,10.12-5.76,16.3,2.04,6.54,6.61,11.74,12.95,14.51l.5,1.53-4.91-1.75c-7.25-3.03-12.8-9.13-14.87-16.75-1.68-6.18-.4-12.57,3.69-17.37,3.28-3.85,7.97-6.06,12.99-5.54,5.16.53,8.85,4.59,7.96,9.25Z"/>
        <path d="M232.15,377.65c-6.83,12.28-16.64,22.35-28.4,29.98-3.76,2.33-7.22,4.58-11.8,5.73,10.44-5.79,19.58-13.64,26.54-23.58,5.34-7.63,9.91-17.19,10.13-26.44-1.21-.8-1.94-1.99-1.96-3.45-.03-2.59,1.69-4.66,3.99-5.21,2.43-.59,4.99.78,5.99,3.27,2.2,5.49-1.41,14.15-4.49,19.7Z"/>
        <path d="M112.64,402.69c-13.74-5.32-22.49-19.44-21.58-33.9.55-8.7,6.88-19.23,15.58-18.41,2.13.2,3.85,1.65,4.35,3.4.6,2.07.15,4.28-1.73,5.42-.78.48-2,.67-2.8.39-.8-.29-1.3-1.21-1.74-2.28-2.32,1.21-3.89,3.1-5.27,5.37-2.64,4.77-3.44,9.939-2.72,15.26,1.41,10.35,7.39,18.69,15.91,24.75Z"/>
        <path d="M178.73,407.47c-5.52,2.12-12.79,2.28-17-1.82,7.41,2.33,16.62-3.38,17.46-10.07.34-2.68,1.05-5.13,3.84-6.07,1.55-.52,3.4-.12,4.15,1.46.91-1.67,1.92-2.8,3.37-3.67,3.45-2.05,5.64-5.07,6.95-9.08,2.55,13.27-6.71,24.64-18.77,29.25Z"/>
        <path d="M144.6,305.08c-2.12-1.36-3.89-2.86-5.64-4.7-10.94-11.49-18.32-29.81-15.73-45.7.89-5.42,3.83-12.03,9.23-12.61,1.92-.2,3.72.85,4.43,2.23.91,1.76.85,3.74-.58,5.17-.42.43-1.49.91-2.04.89-.65-.02-1.34-.51-2.07-1.2-3.36,3.3-4.52,10.5-4.36,15.69.46,14.88,7.18,28.8,16.76,40.23Z"/>
        <path d="M281.93,210.58c-3.17,7.18-10.04,11.98-17.87,12.71-4.16.4-7.82,1-11.74,2.39-9.81,3.47-17.92,9.67-23.84,18.41,1.41-4.14,3.99-7.13,6.9-10.44,7.229-6.53,15.979-11.4,25.729-12.36,7.68-.76,14.39-4.38,17.72-11.65,3.25-7.1,1.98-15.96-3.64-21.74,1.35,6.76.94,13.35-2.27,19.17-2.56,4.64-6.37,8.57-11.5,10.17,4.02-3.08,7.45-6.45,9.67-10.98,4.12-8.42,3.4-18.01-2.15-25.78,11.6,5.03,18.04,18.65,12.99,30.1Z"/>
        <path d="M252.11,216.54c-.12,1.29-.97,3.18-2.29,3.69-12.98,5.04-22.96,15.18-27.48,28.39-.97,2.84-1.36,5.6-1.3,8.76,1.58,1.44,1.63,3.46.27,4.72-1.34,1.24-3.64.98-4.66-.86-1-1.82-1.34-4.08-1.03-6.25,1.34-9.51,7.84-19.74,14.6-26.61,5.6-5.7,11.94-10.22,19-13.98.46-.25,1.58-.13,1.97.12.45.29.98,1.28.92,2.02Z"/>
        <path d="M210.83,55.8l-14.98,9.21c-4.92,3.41-9.58,6.8-13.59,11.2-6.94,7.43-10.4,16.38-10.97,26.99-1.76-6.92-.07-14.24,3.19-20.7,2.55-5.15,6.21-9.21,10.44-13.07l11.3-8.61c8.05-6.14,15.64-11.18,16.07-22.44,3.44,5.45,3.06,14.64-1.46,17.42Z"/>
        <path d="M148.92,225.75c-.81,1.98-2.69,3.4-4.84,2.96-.56-.12-1.45-.76-1.64-1.23-.2-.52-.05-1.41.16-2.34-6.03-1.06-11.79,7.05-11.63,13.31-1.54.49-2.78,1.06-4.08,1.87-1.78,1.75-3.01,3.57-4.34,5.78.23-6.25,1.83-11.97,4.56-17.25,3.44-6.7,11.35-13.34,18.33-10.64,3.08,1.2,4.72,4.52,3.48,7.54Z"/>
        <path d="M169.77,160.42c-2.84,2.45-5.73,4.66-9.51,6.1,4.38-3.47,8.72-6.8,11.8-11.63,6.79-10.05,7.89-23,.05-32.44-.729,1-1.97,1.39-3.04.92-2.02-.88-2.67-3.189-2.1-5.11.59-1.99,2.69-3.35,5-2.94,2.15.38,3.9,1.86,5.15,3.62,9.11,12.95,4.31,31.27-7.35,41.48Z"/>
        <path d="M262.38,240.74c-1.01,1.73-3.01,3.24-5.3,2.66-.72-.18-1.7-.97-1.93-1.53-.29-.689.01-1.71.48-2.729-5.39-1.6-13.56,2.06-15.5,7.71-3.9-.53-7,1.31-10.23,3.76,4.18-10.08,15.69-19.24,26.33-18.5,2.15.15,4.2,1.08,5.52,2.68,1.42,1.73,1.75,4.05.63,5.95Z"/>
        <path d="M203.3,210.99c-1.41,12.29-9.4,22.8-20.96,27.49,3.47-2.78,6.8-5.14,9.61-8.67,7.2-8.76,9.42-20.61,3.59-30.39-1.49,1.06-3.06.88-4.13-.43-1.23-1.49-1.28-3.62-.2-5.17,1.06-1.52,2.87-2.26,4.89-1.72,2.05.54,3.5,2.06,4.55,3.94,2.51,4.55,3.26,9.64,2.65,14.95Z"/>
        <path d="M186.23,316.77c-1.38,14.35-14.12,26.48-27.34,31.45,3.86-2.67,7.53-5.18,10.89-8.64,6.38-6.57,11.97-15.99,11-25.1-1.06-.23-2-.61-2.47-1.33-1.67-2.6,3.02-5.68-.28-12.5,5.81,3.39,8.83,9.62,8.2,16.12Z"/>
        <path d="M237.54,138.33c-.85,2.22-2.35,3.48-4.41,4.48-10.26,5-21.9,11.16-28.68,20.31-3.9,5.22-5.87,11.18-6.82,18.11-.87-3.11-.38-6.58.56-10.02,1.81-6.71,5.58-12.67,10.78-17.28l6.65-5.11,9.54-6.15c5.58-3.75,10.61-7.98,11.24-15.06,1.94,3.24,2.5,7.18,1.14,10.72Z"/>
        <path d="M155.69,153.53c-3.6,3.06-7.54,5.41-11.94,7.1.89-2.35,1.44-4.12.82-6.34,6.76-2.12,6.54-7.81,8.13-8.49.43-.19,1.52.25,1.73.72.36.79.32,1.77.33,2.78,1.89-2.83,2.42-6.39.93-9.64l-1.83-.37c-1.03-1.32-1.2-3.06-.67-4.62,1.04-3.05.8-6.02.02-9.16l5.17,6.26c5.81,7.04,3.92,16.14-2.69,21.76Z"/>
        <path d="M283.3,214.12c-1.27,11.62-6.99,25.15-18.61,28.55,1.45-2.21,2.11-4.55,1.02-7.06,1.54-.74,2.64-1.54,3.73-2.73l-4.07-.4c-1.05-.11-2.03-1.49-1.94-2.38.11-1.11,1.1-1.86,2.26-2.28,8.84-.25,13.84-6.08,17.61-13.7Z"/>
        <path d="M242.4,258.82c-1.3,1.11-3.2,1.31-4.38.04l-.24-2.12c-2.52.01-4.5,1.57-6.1,3.72-4.62,6.22-5.17,14.43-1.81,21.41l-1.81.97c-3.78-6.6-4.21-14.18-1.61-21.31,2.32-6.37,7.83-12.85,14.21-10.8,1.59.51,2.78,2.08,3.09,3.31.47,1.86-.03,3.65-1.35,4.78Z"/>
        <path d="M252.32,343.18c5.33-15.04,6.89-34.08.08-48.7-2.27-4.88-5.32-9.09-9.61-12.27-1.13-.84-2.43-.97-3.82-1.27-.93-.22.09-3.09,1.19-2.71,8.15,2.82,13.93,12.63,16.45,20.88,5.61,18.39,1.32,38.25-7.88,54.19l3.59-10.12Z"/>
        <path d="M199.73,308.31c-.86,13.95-10.59,27.32-22.93,33.65,8.62-6.66,15.19-14.73,18.42-25.08,1.58-5.06,2.39-12.66-1.72-16.05-.5,1.51-1.71,2.21-3.04,1.62-1.64-.72-2.4-2.7-2.01-4.3.44-1.78,2.1-3.07,4.09-2.98,5.16.22,7.47,7.7,7.19,13.14Z"/>
        <path d="M206.84,241.47c-1.85,7.86-8.26,17.23-16.75,18.78,2.51-3.47,2.66-6.74,1.11-10.13-.21-1.57,2.16-3,3.6-2.479,4.65-.72,8.23-2.98,12.04-6.17Z"/>
        <path d="M177.94,173.13c-1.09,4.31-2.84,7.85-5.14,11.21-2.54,3.35-5.45,6.34-9.71,7.96,1.19-2.68,2.31-5.64.99-8.45-.51-1.1-1.28-2.09-.73-3.18.59-1.17,1.71-1.69,3.07-1.82,4.5-.41,8.16-2.97,11.52-5.72Z"/>
        <path d="M241.74,136.47c.57-2.4.6-4.01-.62-5.99,7.14-2.81,10.68-11.47,10.89-12.01.01-.02.01-.03.01-.03,1.41-2.52,2.44-5.17,2.87-8.12,2.82,10.33-4.04,21.79-13.15,26.15Z"/>
        <path d="M255.14,217.26c.7-1.98.75-3.56-.63-5.25l4.84-3.16c.84-.55,1.39-1.38,2.11-2.1,3.42-3.43,6.07-7.15,7.19-11.88,1.67,9.45-4.46,19.61-13.51,22.39Z"/>
        <path d="M217.77,44.29c-.02-4.94-.79-8.95-3.5-13.37,1.05-.15,2.26-.09,3.52.06l.73-3.02c1.42-4.06,1.66-7.96,1.54-12.45,3.69,9.41,2.86,19.97-2.29,28.78Z"/>
        <path d="M165.12,374.46c-3.89-.7-7.3.14-11.01,1.76-6.25,2.73-10.5,7.81-13.51,13.79,1.66-8.15,7.99-14.24,15.71-16.71,3.26-1.05,8.45-2.06,9.84-.06.22.32-.49.99-1.03,1.22Z"/>
        <path d="M197.83,295.27c-1.65-1.44-3.37-2.89-5.73-2.31l-2.32.57-.33-2.85c-.25-2.17-2.14-3.58-3.83-5.13,5.49.15,10.23,4.31,12.21,9.72Z"/>
      </g>
    </g>
  </g>
</svg>