<?xml version="1.0" encoding="UTF-8"?>
<svg id="b" data-name="Layer 2" xmlns="http://www.w3.org/2000/svg" width="294.001" height="293.241" viewBox="0 0 294.001 293.241">
  <g id="c" data-name="Layer 1">
    <g id="d" data-name="hahGUI">
      <g>
        <path d="M100.472,285.114c-22.301-7.691-42.414-20.436-58.633-37.004-8.127-8.302-15.116-17.475-21.05-27.334-8.059-13.391-13.827-27.752-17.288-42.909-4.901-21.468-4.726-43.557.958-64.822l2.732-9.009c6.265-20.661,18.663-41.45,33.412-57.506,12.767-13.898,28.224-25.091,45.574-32.968,14.131-6.416,29.046-10.612,44.512-12.507,13.543-1.659,27.014-1.353,40.48.861,15.8,2.597,31.025,7.487,45.079,15.034,16.804,9.024,31.656,21.232,43.612,35.87,24.736,30.284,37.405,69.463,33.417,108.083-3.51,33.992-18.856,65.789-43.489,90.01-10.68,10.501-22.994,19.478-36.476,26.362-19.254,9.832-40.669,15.414-62.434,15.928-17.168.406-34.123-2.474-50.405-8.089ZM170.237,286.132c43.979-7.446,81.118-34.929,101.679-73.429,24.429-45.745,21.893-97.931-5.681-141.754-14.193-22.556-34.519-40.86-59.012-52.307-17.344-8.107-36.196-12.63-55.415-13.185-23.263-.672-45.958,4.563-66.779,14.59C49.222,37.289,22.964,70.414,11.425,107.481c-6.46,20.749-7.929,42.561-3.877,63.967,5.009,26.462,17.563,51.158,36.104,71.04,31.666,33.957,79.936,51.542,126.585,43.644Z"/>
        <path d="M238.714,247.264c-15.366,14.023-33.528,24.265-53.527,30.173-22.671,6.698-46.681,7.189-69.654,1.464-52.258-13.023-91.313-54.057-102.223-105.522-3.45-16.274-3.629-33.094-.557-49.473,4.74-25.275,16.49-48.942,33.796-68.24,8.45-9.422,18.126-17.718,28.944-24.423,16.75-10.383,35.553-16.909,55.201-19.516,14.217-1.886,28.486-1.414,42.538,1.354,14.591,2.874,28.51,8.01,41.301,15.381,19.072,10.992,34.964,26.249,46.719,44.563,20.616,32.121,27.648,70.738,17.748,107.611-3.226,12.017-7.892,23.456-14.22,34.234-7.019,11.955-15.671,22.908-26.067,32.395ZM173.261,275.547c28.368-5.866,53.769-20.651,72.405-42.137,25.289-29.156,37.23-67.481,31.421-105.503-2.383-15.593-7.621-30.664-15.361-44.465-17.782-31.707-46.816-55.311-83.014-64.073-27.538-6.666-55.232-4.232-81.359,6.359-11.449,4.641-21.898,11.009-31.442,18.674-23.447,18.83-39.907,44.681-46.839,73.58-3.227,13.452-4.304,27.239-2.941,41.068,1.936,19.641,8.424,38.599,18.762,55.523,18.081,29.598,47.316,51.14,81.52,59.686,18.57,4.64,37.977,5.192,56.849,1.289Z"/>
        <path d="M109.763,266.926c-30.338-9.774-55.867-30.346-71.554-57.368-5.873-10.117-10.339-20.815-13.292-32.088-5.298-20.223-5.041-42.42.658-62.526,6.955-24.537,20.278-45.581,39.559-62.663,12.673-11.228,27.449-19.721,43.721-24.943,12.818-4.114,26.163-6.288,39.652-6.254,27.475.07,53.87,9.27,75.239,26.009,6.908,5.411,13.091,11.473,18.747,18.177,12.648,14.991,21.87,32.444,26.777,51.331,7.665,29.501,3.866,60.583-10.147,87.664-5.215,10.078-11.701,19.311-19.244,27.795-10.53,11.842-23.235,21.201-37.544,28.173-28.727,13.997-61.868,16.584-92.571,6.693ZM185.696,260.843c28.157-9.693,49.418-26.807,64.16-51.915l5.93-10.786c7.852-16.566,12.034-34.677,11.671-53-.547-27.619-11.006-53.904-28.688-75.219-19.53-23.542-47.574-39.078-78.605-42.329-13.378-1.401-26.883-.426-39.97,2.686-30.66,7.292-55.225,25.493-72.585,50.962-6.353,9.321-11.055,19.421-14.66,30.017-7.907,23.245-8.06,48.114-.421,71.467,4.089,12.501,10.077,24.455,17.96,35.093,30.548,41.224,85.287,60.209,135.209,43.024Z"/>
        <path d="M143.262,209.619c-14.784-1.003-28.19-7.366-38.556-17.396-11.592-11.217-18.571-26.951-19.095-42.909-.64-19.479,7.989-38.246,23.258-50.779,5.724-4.698,12.132-8.226,19.185-10.663,23.032-7.959,47.625-1.08,63.833,16.415,14.734,15.904,20.313,38.31,14.748,59.076-2.63,9.813-7.368,18.815-14.215,26.393-12.313,13.628-30.388,21.136-49.157,19.863ZM187.929,186.762c8.994-9.756,14.523-22.527,15.365-35.791,1.036-16.301-4.785-31.98-16.151-43.857-8.08-8.444-18.791-14.231-30.5-16.235-16.844-2.883-33.875,2.302-46.412,13.605-10.056,9.065-16.752,21.525-18.719,34.79-2.614,17.629,3.684,35.028,15.684,47.754,21.835,23.157,58.973,23.339,80.732-.265Z"/>
        <path d="M97.368,54.322c1.373,1.609-1.892,9.287-3.507,12.495-1.969-4.317-5.659-11.733-1.733-13.506,1.715-.774,3.952-.497,5.239,1.011Z"/>
        <path d="M201.16,66.884c-1.619-3.256-2.93-6.301-3.61-9.633-.45-2.206.891-4.052,3.165-4.28,1.074-.108,2.344.263,3.002.922,2.477,2.481-.731,8.916-2.558,12.991Z"/>
        <path d="M147.304,49.209c-1.474-3.305-2.731-6.491-3.259-9.902-.358-2.316,1.315-4.221,3.531-4.177,2.103.042,3.824,1.915,3.38,4.278-.641,3.407-2.098,6.565-3.652,9.8Z"/>
        <path d="M143.638,49.943c-3.284-2.47-9.157-6.595-8.535-9.698.38-1.896,2.722-3.469,4.777-2.847,2.879.872,3.487,8.565,3.758,12.545Z"/>
        <path d="M87.475,73.793c-3.543,1.924-9.403,5.281-12.156,3.72-1.653-.938-2.281-3.888-.731-5.511,2.3-2.408,8.792.212,12.887,1.792Z"/>
        <path d="M90.321,67.677c-3.511-2.285-9.277-6.032-8.917-9.239.211-1.878,2.644-3.616,4.689-2.97.866.274,1.825,1.116,2.185,2.125,1.179,3.304,1.722,6.64,2.043,10.084Z"/>
        <path d="M106.495,58.678c.291,3.167-5.656,6.792-9.122,9.042.479-3.857,1.399-10.771,3.971-11.892,1.157-.504,2.235-.392,3.291.217.989.571,1.767,1.625,1.86,2.634Z"/>
        <path d="M197.542,67.693c-2.993-1.781-5.689-3.739-7.92-6.239-.768-.861-1.147-2.141-.891-3.218.23-.965,1.109-1.903,2.204-2.405,1.777-.909,3.63-.008,4.5,1.738,1.118,3.181,1.91,6.304,2.108,10.124Z"/>
        <path d="M194.783,73.874c-4.495,2.691-12.062,6.791-13.412,1.643-.302-1.151-.169-2.458.659-3.366.753-.825,2.075-1.268,3.378-1.077,3.3.485,6.314,1.462,9.376,2.799Z"/>
        <path d="M220.025,77.064c-2.446,2.542-8.667-1.287-12.529-3.235,2.861-1.219,5.617-2.119,8.577-2.779,1.472-.328,2.939-.104,4.118.791,1.158,1.515,1.281,3.719-.166,5.223Z"/>
        <path d="M166.846,58.563c-2.482,2.346-8.882-.796-12.728-2.52l4.816-2.097c1.708-.743,3.58-1.189,5.387-1.512,1.94.038,3.287,1.066,3.541,2.946.156,1.154-.195,2.407-1.016,3.183Z"/>
        <path d="M112.453,77.389c-2.621,1.818-8.21-1.433-12.002-3.499,2.869-1.489,6.102-2.45,9.493-2.898,1.098-.145,2.257.197,2.977.862,1.583,1.461,1.197,4.381-.468,5.535Z"/>
        <path d="M212.04,62.184c-2.371,2.058-4.599,3.787-7.404,5.594.309-3.272.863-6.314,1.835-9.419.405-1.294,1.425-2.552,2.848-2.776,2.252-.354,4.505,1.606,4.235,3.884-.113.954-.914,1.825-1.514,2.716Z"/>
        <path d="M112.463,65.238c.757,4.946-7.415,4.951-12.786,4.919,2.534-2.753,6.446-7.81,9.411-7.946,1.924-.088,3.138,1.476,3.375,3.027Z"/>
        <path d="M87.914,70.144c-4.128.173-11.164-.076-12.407-3.029-.537-1.275-.236-2.582.554-3.665,1.062-1.457,3.054-1.809,4.565-.631,2.676,2.086,4.969,4.471,7.289,7.326Z"/>
        <path d="M159.838,40.716c.18,3.097-5.7,6.842-9.025,9.3.495-3.572,1.06-6.75,2.102-10,.319-.995,1.307-1.936,2.047-2.242,2.159-.894,4.761.961,4.876,2.942Z"/>
        <path d="M219.525,66.634c-.919,3.398-8.137,3.595-12.483,3.568,2.132-2.762,4.314-5.172,6.896-7.295,1.522-1.252,3.447-1.161,4.689.338.778.938,1.252,2.079.898,3.389Z"/>
        <path d="M86.598,81.125c-1.178,2.072-3.623,5.235-5.607,5.252-2.165.019-4.136-2.319-3.714-4.355.647-3.117,7.531-4.378,11.645-4.982l-2.324,4.085Z"/>
        <path d="M165.837,48.143c-.707,3.261-8.234,4.044-12.533,4.306,2.185-2.986,4.411-5.613,7.113-7.852,1.488-1.233,3.388-1.02,4.546.394.699.853,1.128,1.985.874,3.152Z"/>
        <path d="M102.096,89.448c-.692,1.914-3.71,3.017-5.543,1.791-2.465-1.649-1.553-8.174-.909-12.105,2.911,2.815,7.582,7.185,6.451,10.313Z"/>
        <path d="M136.682,57.841c-1.876.906-3.926,1.435-6.026,1.7-2.041.258-3.621-1.073-3.757-3.075-.069-1.02.189-2.165.894-2.889,2.347-2.411,8.65.759,12.651,2.448l-3.762,1.816Z"/>
        <path d="M90.832,91.149c-1.172.916-2.671.784-3.931.133-4.995-2.583,1.3-8.724,5.091-12.154.325,4.026,1.335,10.07-1.161,12.021Z"/>
        <path d="M61.021,111.096c-1.792-3.503-4.421-9.684-2.543-12.239,1.11-1.51,4.167-1.672,5.525.043.611.771.716,1.888.649,2.996-.866,3.166-2.027,6.025-3.631,9.201Z"/>
        <path d="M109.993,81.39c.821,2.214-1.089,4.847-3.359,4.983-1.161.07-2.199-.623-2.957-1.543-1.952-2.368-3.534-4.787-4.993-7.711,3.611.37,10.412,1.854,11.308,4.27Z"/>
        <path d="M198.905,90.839c-.905,1.076-2.414,1.107-3.631.723-.846-.267-2.033-1.052-2.377-2.203-.927-3.107,3.714-7.446,6.452-10.241.569,3.772,1.478,9.436-.444,11.72Z"/>
        <path d="M233.706,111.16c-1.686-2.925-2.829-5.86-3.566-9.044-.423-1.831.413-3.607,1.975-4.144,1.843-.634,3.645-.136,4.588,1.59.263,1.166.38,2.56-.053,3.719l-2.944,7.88Z"/>
        <path d="M217.402,81.597c.633,1.997-.967,4.431-3.189,4.768-2.981.452-6.32-5.756-8.18-9.188,3.418.317,6.482,1.148,9.539,2.458.887.38,1.616,1.289,1.83,1.963Z"/>
        <path d="M57.32,112.194c-2.841-1.92-5.289-3.961-7.44-6.457-.714-.829-1.016-2.1-.806-3.132.182-.895.985-1.774,1.962-2.303,1.79-.938,3.957-.138,4.625,1.833,1.071,3.157,1.55,6.37,1.66,10.059Z"/>
        <path d="M195.227,70.169c-3.852.241-11.032-.129-12.261-2.64-.985-2.013.171-4.508,1.965-5.046,3.06-.918,7.556,4.509,10.296,7.686Z"/>
        <path d="M72.113,100.973c4.452,3.435-3.635,8.507-7.644,11.211.254-3.764,1.142-6.899,2.33-10.127.598-.846,1.383-1.628,2.194-1.841,1.124-.296,2.246.083,3.12.757Z"/>
        <path d="M91.17,214.41c-2.852-2.709-7.471-7.312-6.262-10.408.662-1.696,3.344-2.803,5.36-1.623,2.384,1.395,1.678,7.916.902,12.031Z"/>
        <path d="M230.076,112.213c-2.81-1.875-5.542-3.884-7.784-6.415-1.49-1.681-1.073-4.035.784-5.118.945-.551,1.995-.78,3.062-.363,2.812,1.099,3.504,7.799,3.938,11.896Z"/>
        <path d="M237.13,112.223c.172-3.333.681-6.447,1.711-9.537.474-1.423,1.662-2.486,2.962-2.598,1.485-.128,2.859.699,3.52,1.824,2.08,3.54-4.53,7.528-8.193,10.312Z"/>
        <path d="M220.326,220.95c-1.881,2.448-8.475.212-12.435-1.119,3.556-2.067,8.707-5.874,11.493-4.292,1.703.967,2.342,3.588.942,5.411Z"/>
        <path d="M209.699,89.147c-.428,1.736-3.169,3.411-5.383,2.181-2.534-1.408-1.842-8.214-1.295-12.191,2.825,2.925,7.453,6.862,6.678,10.009Z"/>
        <path d="M111.726,220.979c-2.007,2.367-8.543.2-12.451-1.124,3.722-2.093,8.486-5.774,11.495-4.331,1.677.804,2.399,3.753.956,5.454Z"/>
        <path d="M208.156,209.07l-4.818,5.483c-.526-3.94-1.72-9.884.633-11.941,1.049-.916,2.484-.923,3.655-.417,1.187.512,2.049,1.469,2.248,2.991-.31,1.311-.738,2.768-1.718,3.884Z"/>
        <path d="M94.799,214.407c-.621-2.8-.823-5.476-.901-8.347.124-1.058.336-2.312,1.017-3.097,1.336-1.539,3.476-1.343,4.893-.248,1.518,1.173,1.586,3.124.589,4.831-1.421,2.502-3.19,4.554-5.597,6.86Z"/>
        <path d="M214.915,213.926c-2.806,1.168-5.34,2.057-8.536,2.699,1.669-3.25,4.286-9.785,7.497-9.751,2.277.024,4.025,2.338,3.463,4.457-.302,1.138-1.416,1.874-2.425,2.594Z"/>
        <path d="M165.539,63.063c.879,2.116-.685,4.542-2.521,4.939-.925.2-2.113-.2-2.862-.855-2.542-2.223-4.603-4.646-6.781-7.457,3.873.114,11.127.874,12.164,3.373Z"/>
        <path d="M191.071,85.247c-.7.795-1.784,1.205-2.72,1.147-1.972-.123-3.787-2.424-3.251-4.614.641-2.619,7.524-4.161,11.197-4.643-1.425,3.063-3.021,5.608-5.226,8.11Z"/>
        <path d="M105.933,214.093c-2.698,1.086-5.142,1.88-8.18,2.539,1.5-3.147,4.294-9.511,7.213-9.735,2.489-.191,4.38,2.362,3.646,4.587-.397,1.203-1.568,1.891-2.679,2.609Z"/>
        <path d="M78.987,111.242c-.961,2.766-8.24,3.278-12.174,3.289,2.742-3.058,6.443-8.544,9.605-8.032,1.77.287,3.333,2.546,2.57,4.743Z"/>
        <path d="M62.543,165.329l-1.736,3.695c-1.501-3.104-2.79-6.1-3.206-9.467-.257-2.075,1.165-3.736,3.311-3.749.937-.006,1.979.364,2.535.908,1.833,1.798.5,5.625-.904,8.613Z"/>
        <path d="M141.164,52.327c-3.791-.096-11.014-.95-12.098-3.621-.753-1.857.487-4.241,2.424-4.737.802-.206,1.966.121,2.676.713,2.655,2.213,4.795,4.655,6.998,7.645Z"/>
        <path d="M199.711,214.456c-3.421-3.379-8.612-8.657-5.189-11.585,1.264-1.081,3.097-1.363,4.607-.268,2.323,2.573,1.209,7.944.582,11.854Z"/>
        <path d="M86.604,219.748c-3.394,1.389-9.888,3.479-12.005,1.533-1.676-1.542-1.213-4.427.461-5.526,2.664-1.748,7.783,1.748,11.544,3.993Z"/>
        <path d="M88.123,216.591c-3.805-.916-10.681-2.67-11.03-5.649-.234-1.996,1.559-3.98,3.38-4.131,3.096-.257,6.033,6.216,7.65,9.78Z"/>
        <path d="M147.899,76.298c-1.168.005-2.21-.186-2.871-.817-.682-.651-.936-1.744-.988-2.811.676-3.39,1.66-6.462,3.286-9.772,1.466,2.952,2.72,5.9,3.44,9.092.457,2.024-.615,4.008-2.867,4.307Z"/>
        <path d="M195.307,219.799c-3.812,1.33-9.85,3.507-12.13,1.54-1.448-1.249-1.33-4.221.38-5.441,2.731-1.948,8.126,1.893,11.749,3.902Z"/>
        <path d="M251.554,110.823c-1.015,2.981-8.195,3.484-12.054,3.826,2.456-3.164,6.327-8.799,9.359-8.405,1.816.236,3.393,2.531,2.696,4.579Z"/>
        <path d="M233.903,169.075c-1.764-3.741-4.221-8.443-3-11.821.863-1.039,1.976-1.501,3.267-1.424,1.258.074,2.31.801,2.993,2.051.117,1.343.141,2.78-.374,4.054l-2.886,7.14Z"/>
        <path d="M196.722,216.591c-3.587-.756-10.362-2.501-10.894-5.293-.417-2.192,1.507-4.388,3.29-4.394.829-.003,2.016.451,2.593,1.153,2.099,2.558,3.611,5.272,5.012,8.534Z"/>
        <path d="M159.403,252.824c-.283,2.063-2.987,3.571-4.895,2.659-2.618-1.251-3.356-8.024-3.789-11.713,3.403,2.617,9.115,5.919,8.684,9.054Z"/>
        <path d="M158.632,68.473c1.419,1.751.978,3.836-.809,4.969-.854.541-1.911.848-2.932.528-.702-.22-1.683-1.15-1.977-2.036-1.082-3.262-1.735-6.429-2.125-9.905l3.526,2.481c1.592,1.12,3.062,2.414,4.317,3.962Z"/>
        <path d="M80.069,120.648c-2.343,2.355-8.8-.838-12.524-2.448,3.69-1.525,10.056-4.701,12.394-2.574,1.367,1.244,1.485,3.66.13,5.022Z"/>
        <path d="M249.881,121.433c-3.401-.544-6.463-1.754-9.39-3.246,3.703-1.755,9.75-4.646,12.131-2.717.785.636,1.131,1.699,1.127,2.779-.007,2.004-1.636,3.541-3.868,3.184Z"/>
        <path d="M57.297,169.953c-2.791-1.743-5.222-3.668-7.389-5.984-.862-.922-1.222-2.177-.959-3.447.201-.97,1.218-1.955,2.439-2.359,1.732-.573,3.414.27,3.999,1.997,1.046,3.089,1.609,6.17,1.91,9.793Z"/>
        <path d="M54.089,118.231c-3.064,1.505-5.856,2.764-9.014,3.294-2.163.363-4-.928-4.079-3.062-.038-1.023.272-2.122,1.019-2.781,2.482-2.19,8.438.691,12.074,2.549Z"/>
        <path d="M104.099,236.351c-.913.876-2.076,1.279-3.359.999-3.032-.661-3.845-7.817-4.258-11.517,3.047,1.815,5.662,3.628,7.842,5.977,1.291,1.391,1.125,3.244-.226,4.542Z"/>
        <path d="M141.263,59.641c-2.359,3.217-6.058,8.802-8.923,8.584-1.898-.144-3.6-2.55-2.923-4.59.908-2.734,8.021-3.782,11.846-3.994Z"/>
        <path d="M93.002,226.679c1.972,4.157,5.493,10.505,2.125,12.561-1.232.752-2.877.707-4.088-.102-2.999-2.001.205-8.436,1.964-12.459Z"/>
        <path d="M201.527,239.812c-1.129-.053-2.189-.434-2.712-1.109-.599-.773-.718-1.793-.718-2.825.774-3.166,1.821-6.047,3.36-9.202,2.432,4.994,6.134,12.376.07,13.136Z"/>
        <path d="M136.601,254.933c-1.517-1.178-1.67-3.033-.499-4.463,2.11-2.578,4.64-4.633,7.645-6.723-.343,3.845-.863,10.771-3.698,11.789-1.192.428-2.431.186-3.447-.603Z"/>
        <path d="M110.755,225.5c1.236,2.276-.543,4.93-2.121,5.201-1,.172-2.121-.123-2.911-.702-2.612-1.912-4.747-4.08-6.881-6.634,4.057-.139,10.548-.381,11.914,2.134Z"/>
        <path d="M213.562,234.315c-.26,2.102-2.838,3.687-4.805,2.941-2.768-1.05-3.308-7.612-3.791-11.436,3.337,2.149,8.963,5.532,8.597,8.495Z"/>
        <path d="M219.213,225.479c1.286,2.056-.496,4.971-2.17,5.24-3.167.509-7.05-4.407-9.693-7.338,3.958-.131,10.227-.518,11.863,2.098Z"/>
        <path d="M66.747,172.194c2.148-2.781,6.211-8.309,8.872-8.007,2.467.28,3.659,2.799,2.84,4.907-.729,1.022-1.717,1.607-2.897,2.047-2.83.645-5.439,1.05-8.815,1.053Z"/>
        <path d="M195.384,236.588c-1.678,1.37-3.707,1.049-4.98-.316-1.319-1.413-1.109-3.419.347-4.856,2.187-2.158,4.543-3.933,7.305-5.647l-1.12,7.163c-.195,1.248-.873,2.484-1.552,3.656Z"/>
        <path d="M253.73,176.255c-.277,5.514-8.615,1.815-13.278-.406,3.878-1.65,9.558-4.483,12.148-2.59.912.667,1.189,1.812,1.13,2.997Z"/>
        <path d="M83.005,237.145c-.903-.688-1.67-1.505-1.871-2.332-.261-1.075.185-2.314.961-3.123,2.18-2.271,4.59-4.036,7.455-5.911-.418,3.76-.677,9.148-3.182,11.307-1.258.438-2.104.393-3.363.059Z"/>
        <path d="M237.212,169.994l1.795-9.134c.267-1.358,1.544-2.413,2.68-2.663,1.504-.332,2.868.548,3.582,1.55.894,1.256.599,2.892-.397,4.028-2.189,2.495-4.746,4.439-7.66,6.219Z"/>
        <path d="M147.344,231.485c-1.491-2.773-2.682-5.832-3.242-9.085-.355-2.058,1.028-3.754,3.154-3.827.989-.034,2.115.331,2.718.995.63.693.842,1.739.866,2.755-.752,3.172-1.695,6.018-3.496,9.163Z"/>
        <path d="M230.459,169.939c-2.953-1.864-5.629-3.919-7.732-6.562-1.332-1.674-.667-4.017,1.213-4.865,1.682-1.046,3.904-.221,4.584,1.697,1.11,3.13,1.617,6.365,1.935,9.729Z"/>
        <path d="M76.453,179.25c-3.151-.931-5.886-1.941-8.99-3.337,3.511-1.696,9.537-4.557,11.989-2.723,1.641,1.228,1.558,4.198-.009,5.399-.776.595-1.795.709-2.989.661Z"/>
        <path d="M143.817,232.521c-3.025-1.905-5.52-3.856-7.648-6.443-.65-.79-.892-1.887-.601-2.967.436-1.62,2.686-2.916,4.659-2.166,2.384.907,3.386,7.975,3.59,11.576Z"/>
        <path d="M147.366,257.69c-2.202.076-3.572-1.692-3.243-3.677.545-3.276,1.66-6.298,3.174-9.461,1.522,2.969,2.709,5.902,3.409,9.113.45,2.067-.994,4.058-3.34,4.025Z"/>
        <path d="M226.933,118.192c-3.076,1.669-6.1,2.883-9.417,3.34-2.088.288-3.702-1.28-3.651-3.26.024-.954.372-1.943.969-2.501,2.36-2.208,8.444.754,12.098,2.422Z"/>
        <path d="M87.342,223.359c-2.656,2.888-6.611,7.979-9.684,7.416-1.474-.27-3.176-2.614-2.397-4.793,1.014-2.84,8.163-2.818,12.082-2.623Z"/>
        <path d="M64.207,170.001c.36-3.782,1.242-10.543,3.892-11.652.997-.417,2.121-.204,3.012.329,1.761,1.053,2.178,3.28.807,4.846-2.211,2.526-4.774,4.523-7.711,6.477Z"/>
        <path d="M233.743,124.969c1.781,4.033,4.91,10.14,2.017,12.26-1.063.779-2.604.908-3.947.188-1.126-.604-1.788-2.043-1.476-3.556.65-3.153,1.722-6.076,3.407-8.892Z"/>
        <path d="M251.743,168.509c-.675,3.164-7.874,3.6-12.009,3.77,2.163-2.753,4.193-5.311,6.755-7.383,1.38-1.116,3.07-.914,4.193.241.896.922,1.357,1.986,1.061,3.372Z"/>
        <path d="M159.352,224.793c-1.698,3.196-5.28,5.627-8.641,7.814.339-3.242.935-6.316,2.021-9.389.386-1.091,1.426-2.027,2.29-2.248,1.264-.323,2.437.096,3.336.912.85.771,1.178,1.783.994,2.911Z"/>
        <path d="M78.794,125.245c.752,2.269-1.445,4.636-3.03,4.662-2.761.045-6.61-5.452-8.946-8.314,3.407.259,6.506.761,9.734,1.651,1.03.284,1.979,1.207,2.242,2.001Z"/>
        <path d="M53.991,175.889c-2.758,1.552-5.799,2.746-8.989,3.324-2.136.387-3.875-.928-3.998-3.004-.058-.981.271-2.08.897-2.671.759-.717,1.82-.901,2.932-.931,3.156.652,5.937,1.637,9.158,3.281Z"/>
        <path d="M227.154,175.862c-3.496,1.639-9.617,4.653-11.877,2.74-1.626-1.376-1.483-4.203.017-5.374,2.295-1.793,8.284.997,11.86,2.634Z"/>
        <path d="M61.046,195.34c-1.992.024-3.041-1.206-3.237-2.9.163-1.47.277-3.039.823-4.412l2.318-5.818c1.631,3.675,4.733,9.466,2.84,11.949-.564.74-1.602,1.167-2.744,1.181Z"/>
        <path d="M64.132,136.481c-1.141,1.697-4.193,1.751-5.356.428-.617-.702-.774-1.682-.803-2.694.563-3.214,1.552-6.074,3.026-9.286,1.735,3.413,4.836,9.02,3.133,11.552Z"/>
        <path d="M227.724,114.645c-3.912-.235-10.597-.74-11.674-3.217-.899-2.066.398-4.391,2.19-4.779,1.053-.228,2.188.17,3.023.874,2.489,2.099,4.543,4.475,6.461,7.122Z"/>
        <path d="M234.731,195.212c-1.259.299-2.495.018-3.294-.733-2.343-2.204.691-8.576,2.336-12.209,1.94,4.296,5.749,11.804.958,12.942Z"/>
        <path d="M250.895,128.436c-1.214,1.708-3.107,1.956-4.696.791-2.392-2.279-4.523-4.603-6.579-7.552,3.379.276,6.525.773,9.733,1.719.924.272,1.847,1.227,2.099,1.902.391,1.049.095,2.224-.556,3.141Z"/>
        <path d="M54.842,114.458c-3.542.15-6.698-.601-9.763-1.759-2.035-.769-2.69-3.027-1.546-4.812.484-.755,1.478-1.478,2.203-1.583,1.084-.156,2.018.324,2.83.95,2.241,2.2,4.274,4.352,6.276,7.204Z"/>
        <path d="M195.793,223.35c-2.629,2.838-6.267,7.585-9.268,7.492-1.529-.047-3.497-2.326-2.707-4.728.984-2.994,7.844-2.907,11.975-2.764Z"/>
        <path d="M164.478,248.483c-1.068,1.412-2.964,1.661-4.32.481-2.598-2.261-4.877-4.76-7.018-7.517,4.014.452,10.796.841,11.984,3.626.517,1.211.16,2.343-.646,3.409Z"/>
        <path d="M54.784,172.289c-4.149-.333-10.703-.578-11.77-3.543-.701-1.948,1.065-4.474,3.013-4.591,2.488-.15,6.543,5.239,8.757,8.134Z"/>
        <path d="M227.951,172.276c-3.761-.254-9.817-.559-11.364-2.921-.701-1.07-.56-2.45.129-3.536.509-.802,1.715-1.913,3.085-1.596,1.294.299,2.613,1.338,3.457,2.362l4.692,5.692Z"/>
        <path d="M140.593,238.147c-2.927,1.472-5.952,2.585-9.17,3.204-2.047.393-3.762-.747-3.948-2.785-.098-1.07.251-2.231,1.039-2.919.815-.711,2.029-.866,3.234-.708,3.007.773,5.716,1.721,8.846,3.208Z"/>
        <path d="M143.764,62.133c-.399,4.079-.848,11.319-4.206,11.874-1.468.242-2.712-.428-3.446-1.485-.815-1.175-.579-2.583.345-3.8,1.949-2.569,4.298-4.671,7.307-6.588Z"/>
        <path d="M245.465,132.999c-.287,1.775-2.712,3.343-4.74,2.537-2.391-.95-3.371-7.889-3.588-11.466,2.809,1.942,5.264,3.833,7.5,6.189.654.689.97,1.863.828,2.74Z"/>
        <path d="M165.096,231.294c-.875,2.675-7.804,3.499-11.848,3.475,2.052-2.689,4.211-4.914,6.662-7.104.678-.606,1.79-.988,2.601-.86,1.912.3,3.222,2.543,2.585,4.489Z"/>
        <path d="M244.997,188.488c.943,1.593.323,3.124-.998,4.076-.859.619-1.996.913-3.147.582-2.512-.722-3.426-7.912-3.687-11.631l5.112,4.004c1.008.79,2.041,1.823,2.719,2.97Z"/>
        <path d="M71.328,134.926c-1.678,1.148-3.94.624-4.708-1.245-1.249-3.037-1.876-6.235-2.176-9.623,2.874,1.851,5.43,3.706,7.623,6.053,1.409,1.507,1.079,3.754-.739,4.816Z"/>
        <path d="M227.746,121.683c-2.483,3.128-6.24,8.777-8.997,8.212-1.748-.359-3.231-2.666-2.533-4.602.933-2.587,7.837-3.391,11.53-3.61Z"/>
        <path d="M251.173,182.803c.753,2.263-1.143,4.556-2.714,4.675-.925.07-2.022-.392-2.711-1.054-2.282-2.193-4.166-4.477-6.094-7.155,3.39.225,6.322.746,9.387,1.667.946.284,1.892,1.145,2.132,1.867Z"/>
        <path d="M141.281,234.741c-3.759-.115-10.73-.887-11.688-3.429-.659-1.748.506-3.861,2.177-4.459.901-.322,2.09-.118,2.807.527,2.522,2.271,4.629,4.673,6.704,7.361Z"/>
        <path d="M166.021,240.758c-.861.743-2.433.801-3.498.422l-8.531-3.036,7.983-2.898c1.256-.456,2.653-.385,3.884.059,1.696,1.411,1.892,3.961.162,5.454Z"/>
        <path d="M72.638,190.547c-.195,1.616-2.52,3.219-4.585,2.46-2.292-.842-3.462-7.893-3.776-11.463,2.792,1.955,5.288,3.905,7.571,6.315.607.641.894,1.829.791,2.688Z"/>
        <path d="M77.624,186.174c-1.032,1.363-2.888,1.76-4.206.629-2.561-2.197-4.758-4.593-6.753-7.542,4.042.546,10.903,1.062,11.651,3.677.336,1.174.054,2.248-.693,3.235Z"/>
        <path d="M134.576,249.036c-.582.535-1.639.783-2.465.67-1.485-.203-3.073-2.37-2.52-4.283.791-2.739,7.892-3.72,11.821-3.829-2.159,2.791-4.32,5.127-6.836,7.441Z"/>
        <path d="M44.291,128.77c-.697-.9-1.104-2.029-.831-3.004.85-3.033,7.716-3.842,11.481-4.087-1.924,2.862-3.909,5.393-6.415,7.536-1.344,1.149-3.124.988-4.235-.446Z"/>
        <path d="M227.947,179.27c-2.341,3.069-5.8,8.473-8.731,8.21-1.714-.153-3.383-2.486-2.665-4.56.895-2.588,7.637-3.283,11.396-3.65Z"/>
        <path d="M48.8,186.593c-1.446,1.297-3.162,1.246-4.355-.107-.755-.856-1.182-1.935-.904-3.151.679-2.968,7.492-3.759,11.472-4.026-1.815,2.716-3.788,5.108-6.213,7.284Z"/>
        <path d="M223.322,134.802c-1.639-1.297-1.643-3.161-.35-4.632,2.07-2.356,4.482-4.306,7.294-6.147-.276,3.284-.793,6.264-1.791,9.272-.318.959-1.248,1.837-1.984,2.091-.942.325-2.363.053-3.168-.584Z"/>
        <path d="M228.604,191.03c-.716,2.133-3.039,2.734-4.733,1.756-1.792-1.034-2.114-3.178-.65-4.881,2.089-2.431,4.419-4.55,7.23-6.347-.336,3.263-.803,6.364-1.847,9.472Z"/>
        <path d="M57.449,181.704c-.233,3.918-.739,11.182-3.964,11.561-1.502.176-2.836-.425-3.543-1.613-.699-1.173-.337-2.591.569-3.743,1.957-2.332,4.147-4.242,6.939-6.205Z"/>
        <path d="M145.906,50.992c3.128-.825,5.807.978,6.544,3.791.696,2.656-.978,5.401-3.653,6.164-2.921.833-5.733-.75-6.562-3.516-.802-2.677.652-5.643,3.67-6.439ZM146.22,53.074c-1.91.725-2.608,2.669-1.933,4.323.64,1.568,2.445,2.368,4.077,1.824,1.754-.585,2.642-2.424,2.109-4.031-.558-1.684-2.361-2.835-4.253-2.116Z"/>
        <path d="M51.895,135.515c-.955-.322-1.828-1.167-2.061-1.836-.35-1.004-.046-2.231.599-3.066,1.989-2.574,4.322-4.636,7.102-6.563-.18,3.304-.556,6.387-1.543,9.414-.56,1.718-2.212,2.687-4.098,2.051Z"/>
        <path d="M62.07,123.134c-3.198.776-6.138-1.679-6.378-4.482-.27-3.151,2.141-5.806,5.44-5.686,2.68.097,4.624,2.107,4.953,4.464.354,2.535-1.215,5.025-4.015,5.705ZM60.139,115.118c-1.966.517-2.822,2.348-2.418,3.866.472,1.773,2.288,2.736,4.037,2.333,1.674-.385,2.717-2.123,2.352-3.767-.37-1.666-2.074-2.931-3.972-2.433Z"/>
        <path d="M233.471,123.293c-3.186-.206-5.11-2.87-4.83-5.632.275-2.718,2.685-4.947,5.649-4.642,2.898.298,4.818,2.73,4.712,5.395-.108,2.7-2.422,5.08-5.53,4.879ZM233.092,115.117c-1.978.496-2.809,2.288-2.435,3.863.415,1.746,2.22,2.778,3.993,2.319,1.625-.421,2.755-2.025,2.356-3.717-.38-1.61-2.04-2.936-3.914-2.466Z"/>
        <path d="M109.483,52.465c-1.248-.298-1.655-1.569-1.306-2.399.375-.892,1.675-1.392,2.728-.84,2.099,1.099,2.775,3.688,4.276,3.682.383-.002,1.04-.647,1.09-1.038l.412-3.248c.107-.846.635-1.907,1.31-2.426.777-.597,1.928-.426,2.434.133.565.624.61,1.794.001,2.467-4.471,4.935-2.572,8.167-3.514,8.62-1.131.544-1.949-3.638-7.431-4.949Z"/>
        <path d="M200.138,68.309c2.93-.623,5.558,1.371,6.108,3.865.62,2.809-1.166,5.46-3.963,6.066-2.73.592-5.441-1.103-6.129-3.806-.651-2.558.991-5.489,3.984-6.126ZM204.233,74.51c.535-1.479-.12-2.975-1.329-3.792-1.581-1.067-3.667-.355-4.525,1.152-.925,1.624-.247,3.615,1.514,4.439,1.492.699,3.643.128,4.341-1.799Z"/>
        <path d="M183.971,49.497c.894-.872,2.298-.318,2.746.448.452.773.12,2.319-1.07,2.514-5.321.872-6.887,5.451-7.46,5.048l-.725-.51c.528-3.189-.693-5.977-2.909-8.192-.511-.826-.558-1.958.162-2.573.628-.537,1.855-.534,2.557.169.672.673,1.029,1.656,1.156,2.619l.382,2.897c.043.323.501.88.785.974s1.019-.119,1.256-.35l3.119-3.044Z"/>
        <path d="M62.85,211.935c.189-2.402,2.598-3.785,2.212-5.114-.092-.317-.95-.57-1.286-.492l-3.239.757c-1.258.294-2.593-.048-3.178-1.328-.169-.37.061-1.268.344-1.561.319-.331,1.321-.724,1.825-.53,5.218,2.016,9.092-1.473,9.522-.334.442,1.172-3.259,3.142-2.738,8.894.086.952-.959,1.773-1.682,1.759-1.044-.02-1.876-.848-1.781-2.053Z"/>
        <path d="M39.309,151.689c.036-.62.595-1.679,1.143-1.904l3.522-1.449c.525-.216,1.122-.759,1.087-1.294-.109-1.644-3.278-1.193-5.225-3.351-.707-.783-.654-1.963-.012-2.55.736-.674,1.915-.536,2.601.249,1.515,2.523,3.909,4.19,6.808,4.982.172.106.799.487.684.672l-.514.834c-3.059.626-5.394,2.417-7.113,4.932-.501.46-1.313.75-1.898.568-.595-.186-1.126-.94-1.083-1.689Z"/>
        <path d="M118.632,248.696c-3.362-.447-1.664-6.696-3.424-6.887-1.692-.184-2.114,2.934-4.511,3.838-1.013.382-2.151-.094-2.474-.945-.302-.797.177-1.949,1.269-2.228,4.496-1.147,6.121-5.044,6.807-5.176.2-.038.569.159.777.309-.114,2.782.573,5.291,2.294,7.414.989.658,1.561,1.863.895,3-.227.387-1.173.737-1.632.676Z"/>
        <path d="M235.375,87.667c1.381.136,1.973,1.167,1.849,2.099-.132.99-1.324,1.656-2.49,1.255-5.578-1.918-8.507,1.332-9.097.417-.64-.994,2.766-3.27,2.582-9.007-.034-1.051.96-1.823,1.814-1.79.884.034,1.73.89,1.619,1.967-.28,2.716-2.964,4.105-2.172,5.557.774,1.417,3.315-.752,5.895-.497Z"/>
        <path d="M145.695,233.191c2.851-.846,5.7.751,6.504,3.386.776,2.543-.713,5.515-3.523,6.267-2.557.685-5.347-.645-6.305-3.199-.942-2.512.362-5.576,3.325-6.455ZM146.185,234.934c-1.848.637-2.545,2.708-1.841,4.277.675,1.503,2.476,2.242,4.065,1.694,1.725-.595,2.453-2.361,1.936-3.994-.525-1.658-2.268-2.629-4.16-1.977Z"/>
        <path d="M57.778,88.552c.894-.961,2.224-1.018,3.309-.605l2.696,1.026c.391.149,1.412-.259,1.606-.62.767-1.422-1.904-2.897-2.167-5.756-.099-1.08.801-1.972,1.691-1.996.955-.026,1.834.896,1.703,1.969-.741,6.04,4.404,8.768,1.684,9.309-2.74-1.437-5.555-1.523-8.515-.696-.66-.027-1.507-.188-1.895-.502-.534-.432-.616-1.588-.113-2.128Z"/>
        <path d="M254.93,150.676c.587.909.342,1.992-.308,2.484-.626.475-1.85.324-2.362-.476-3.627-5.661-9.204-4.198-6.999-6.323,2.949-.624,5.264-2.408,6.933-4.834.585-.767,1.692-.962,2.44-.416.713.52.835,1.662.2,2.535-1.619,2.224-5.084,1.708-5.2,3.393-.136,1.986,3.691,1.152,5.296,3.637Z"/>
        <path d="M91.741,215.171c2.929-.744,5.622,1.086,6.259,3.74.609,2.533-1.062,5.304-3.61,5.928-2.85.698-5.562-.797-6.308-3.583-.656-2.448.758-5.348,3.659-6.085ZM95.085,222.466c1.386-1.107,1.444-2.898.537-4.217-.768-1.118-2.34-1.781-3.8-1.125-1.829.822-2.443,2.913-1.519,4.504.917,1.579,3.127,2.161,4.782.838Z"/>
        <path d="M199.65,224.717c-2.776-1.008-3.919-4.037-2.922-6.518.986-2.451,3.832-3.87,6.518-2.908s4.001,3.79,3.065,6.375c-.906,2.5-3.759,4.105-6.661,3.051ZM199.143,222.236c1.386,1.485,3.841,1.197,4.96-.341,1.07-1.471.658-3.568-1.112-4.628-1.406-.842-3.162-.344-4.035.833-.897,1.211-.994,2.871.186,4.136Z"/>
        <path d="M180.89,242.475c-.222-.278-.794-.656-1.093-.636s-.804.558-.861.866l-.564,3.046c-.16.866-.654,1.882-1.284,2.459-.754.69-1.942.549-2.484-.034-.634-.682-.568-1.821.141-2.46,4.159-3.746,2.665-7.978,3.508-8.399,1.041-.52,1.994,4.057,7.201,5.24.396.09.955.764,1.077,1.124s-.051,1.251-.343,1.505c-1.017.882-2.599.667-3.378-.308l-1.919-2.404Z"/>
        <path d="M230.147,205.957c-.306-.028-.889.631-.845.889.3,1.757,2.508,2.931,2.382,5.298-.055,1.028-.886,1.766-1.66,1.808-2.454.131-1.349-2.89-1.865-5.098-.642-2.752-3.289-5.679-2.184-5.721l1.083-.041c2.6,1.378,5.359,1.567,8.108.568.893-.016,1.764.3,2.104,1.048.277.611-.068,1.615-.79,2.035-2.108,1.227-3.928-.569-6.334-.786Z"/>
        <path d="M90.77,74.869c.805,1.37,2.348,2.014,3.727,1.674,1.505-.371,2.682-1.656,2.59-3.307-.079-1.427-1.286-2.637-2.502-2.947-2.978-.76-3.886,2.466-5.104,1.997-.517-.199-.573-.724-.29-1.299,1.362-2.772,4.836-3.536,7.35-2.061,2.656,1.559,3.29,4.966,1.534,7.326-1.814,2.438-5.367,2.867-7.702.831-.921-.803-1.477-1.904-1.471-3.02.824-.185,1.512.2,1.869.808Z"/>
        <path d="M230.645,175.908c.104,1.57,1.201,2.647,2.505,2.951,1.31.306,2.577-.203,3.556-1.457l1.513.722c-.974,1.756-2.519,2.582-4.396,2.606-2.757.035-4.921-2.098-5.156-4.605-.248-2.641,1.582-4.957,4.24-5.487,2.525-.504,5.518,1.127,5.917,3.875-.024.455-1.456.738-1.778.425-.516-1.568-2-2.629-3.577-2.415-1.62.219-2.949,1.483-2.824,3.384Z"/>
        <path d="M60.898,172.545c-1.495-.015-2.649.999-3.092,2.125-.586,1.486-.001,2.708,1.04,3.898l1.271,2.037c-2.676-.276-4.43-2.529-4.464-4.949-.036-2.541,1.838-4.684,4.486-5.057,2.418-.341,4.818,1.091,5.573,3.405.782,2.396-.117,5.224-2.867,6.216-1.388-1.411,2.064-2.3,1.173-5.349-.354-1.211-1.655-2.311-3.118-2.325Z"/>
        <path d="M115.166,46.068c.563,1.85.152,4.863-.229,4.78-.655-.143-2.534-2.382-2.945-3.743-.277-.916.196-1.948.926-2.207.859-.304,1.932.13,2.248,1.17Z"/>
        <path d="M180.123,51.003c-.35-1.409-.465-2.524-.456-3.874.008-1.277,1.142-2.615,2.453-2.153,1.123.396,1.35,2.023.732,2.986-.723,1.125-1.482,1.901-2.729,3.041Z"/>
        <path d="M114.96,248.418c-.283.989-1.399,1.407-2.04,1.211-2.103-.643-.588-3.936,1.935-6.027.343,1.745.543,3.283.104,4.816Z"/>
        <path d="M179.887,243.671c2.537,1.879,3.986,5.27,1.9,5.964-.704.235-1.896-.303-2.062-1.289-.245-1.456-.134-2.931.161-4.676Z"/>
        <path d="M42.978,147.113c-1.448.927-2.647,1.363-4.13,1.641-1,.188-2.012-.667-2.011-1.46,0-1.08.834-1.735,2.045-1.825l4.096,1.644Z"/>
        <path d="M255.547,148.781l-3.897-1.593c2.233-1.406,4.807-2.345,5.84-.956.31.416.305,1.416.005,1.829-.283.389-1.401.944-1.948.721Z"/>
        <path d="M63.604,86.914c-1.57-.176-2.667-.543-3.928-1.153-.94-.454-1.501-1.812-.793-2.602.774-.864,1.955-.437,2.77.179.802,1.083,1.296,1.919,1.952,3.576Z"/>
        <path d="M235.572,85.397c-1.261,1.004-2.672,1.316-4.31,1.368.606-1.556,1.27-2.681,2.342-3.667.579-.532,1.81-.505,2.289.077.386.47.347,1.69-.32,2.221Z"/>
        <path d="M236.048,211.248c-.91.823-2.254.618-2.906-.391l-1.471-2.281c-.091-.142-.142-.538-.092-.674s.548-.217.694-.171l2.489.796c1.181.377,1.733,1.549,1.286,2.721Z"/>
        <path d="M63.189,208.006c-.901,2.333-2.928,4.667-4.422,3.418-.44-.368-.532-1.417.03-2.052.851-.962,4.078-2.098,4.392-1.366Z"/>
        <path d="M180.54,185.488c-18.697,17.189-47.407,17.007-66.022.066-11.087-10.09-17.647-24.067-17.364-39.201.447-23.906,17.973-45.279,42.294-49.338,13.395-2.236,26.957,1.136,37.607,9.391,8.199,6.356,14.363,15.004,17.595,24.788,6.312,19.107.829,40.56-14.111,54.294ZM180.209,178.096c8.246-9.386,12.344-21.532,11.512-33.875-1.059-15.71-10.211-30.024-24.425-37.42-22.212-11.558-48.928-1.698-59.835,20.241-2.58,5.19-4.19,10.424-4.694,16.23-1.457,16.793,6.633,33.384,21.046,42.692,18.282,11.807,42.241,8.244,56.396-7.868Z"/>
        <path d="M167.587,180.068c-11.92,7.865-27.188,8.14-39.321.776-7.937-4.817-13.746-12.141-16.792-20.783-5.814-16.496.31-34.982,14.938-44.856,13.845-9.345,32.196-8.4,44.959,2.359,4.931,4.157,8.747,9.383,11.126,15.339,6.844,17.13.741,36.837-14.911,47.165ZM132.002,174.016c9.66,5.906,21.464,5.723,30.896-.149,8.342-5.193,13.694-13.918,14.659-23.207,1.037-9.991-2.644-19.757-10.179-26.406-12.701-11.206-31.334-9.893-42.389,2.2-13.316,14.566-9.832,37.263,7.014,47.562Z"/>
      </g>
    </g>
  </g>
</svg>