<?xml version="1.0" encoding="UTF-8"?>
<svg id="b" data-name="Layer 2" xmlns="http://www.w3.org/2000/svg" width="388.8" height="386.73" viewBox="0 0 388.8 386.73">
  <g id="c" data-name="Layer 1">
    <g id="d" data-name="6tjDg9">
      <g>
        <path d="M18.1,0L4.6.24C2.24.28.34,2.07.33,4.51l-.12,24.5-.016,21.602c1.54-3.81,3.295-7.472,5.087-11.179.453-.938.875-1.917,1.256-2.923l.003-19.33c0-4.52-.03-9.75,3.43-10.69l182.467.015c1.723-.717,3.41-1.526,5.096-2.321,2.931-1.382,5.812-2.923,8.802-4.184H18.1Z"/>
        <path d="M.904,256.23c1.844-4.587,3.367-9.284,4.732-14.032.32-1.112.595-2.256.891-3.39l-.008-85.688.016-111.59c-1.36,4.49-2.677,8.976-3.814,13.532-.847,3.396-1.695,6.792-2.539,10.189l-.023,31.929-.16,47.47.036,113.654c.292-.69.589-1.379.868-2.074Z"/>
        <path d="M78.466,384.549c-2.931-1.004-6.003-2.271-8.352-4.301H7.53c-.8-.458-.99-.958-.99-1.818l-.011-124.759c-1.625,6.138-3.775,12.112-6.489,17.855l.03,96.404.14,14.11c.03,2.84,2.03,4.69,4.98,4.69l80.592-.002c-2.465-.645-4.912-1.354-7.316-2.179Z"/>
        <path d="M145.623,380.247h-68.883c1.756.607,3.525,1.167,5.324,1.647,6.242,1.664,12.467,3.197,18.903,3.911,6.742.748,13.592.82,20.325-.067,6.623-.873,13.283-2.173,19.706-4.014,1.559-.447,3.098-.943,4.624-1.477Z"/>
        <path d="M285.034,384.649c-2.482-1.382-4.865-2.945-7.303-4.407l-122.484.003c-1.672.844-3.363,1.641-5.092,2.365-3.581,1.501-7.26,2.75-11.003,3.783-.421.116-.845.222-1.268.333l151.607-.004c-1.52-.572-2.992-1.257-4.458-2.073Z"/>
        <path d="M388.594,271.259l.036-49.769.078-25.706c-.866-1.839-1.799-3.646-2.816-5.419-1.149-2.004-2.445-3.859-3.842-5.637l-.005,97.383c1.119-1.954,2.306-3.875,3.489-5.775,1.038-1.667,2.152-3.326,3.06-5.077Z"/>
        <path d="M388.509,278.075c-1.799,2.613-3.703,5.142-5.573,7.704-.285.391-.589.765-.891,1.14l-.005,91.512c0,.93-.23,1.81-1.32,1.81h-21.443c-4.267,2.553-8.679,4.822-13.41,6.481h37.583c2.93,0,4.89-2.051,4.9-4.741l.12-25.48.11-65.16.01-13.381c-.027.039-.054.077-.081.116Z"/>
        <path d="M382.06,8.25l-.005,85.143c.354.595.652,1.208.938,1.93.179.453.344.912.516,1.367.034.089.381.955.182.479.939,2.243,1.902,4.469,2.757,6.746.789,2.104,1.522,4.227,2.224,6.36l-.052-8.574-.04-94.95c-.25-1.56-.3-3.04-.92-4.3-.89-1.81-3.01-2.42-5.18-2.42L217.423.001c-3.683.813-7.343,1.812-10.803,3.209-2.592,1.047-5.137,2.213-7.715,3.295l180.835.015c1.36,0,1.95.49,2.32,1.73Z"/>
        <path d="M387.035,120.937c-.718-1.811-1.354-3.656-2.04-5.479-.938-2.493-1.907-4.974-2.94-7.428l-.004,69.051c2.562,2.057,4.776,4.498,6.691,7.182l.059-52.562-.037-6.25c-.508-1.529-1.132-3.012-1.728-4.513Z"/>
        <path d="M350.429,380.241h-67.804c1.395.712,2.78,1.444,4.182,2.126,5.849,2.846,12.615,3.281,19.027,3.651,7.158.413,14.31.11,21.455-.389,3.42-.239,6.879-.396,10.252-1.035,3.025-.573,5.983-1.458,8.848-2.583,1.367-.537,2.711-1.135,4.04-1.771Z"/>
        <path d="M12.959,86.533c.434,1.786,1.014,3.541,1.69,5.239.967,2.429,2.143,4.868,3.557,7.147l.284-9.319c.11-3.31-.09-6.5,1.27-9.59,1.91-4.31,5.45-7.3,9.6-9.44-3.04-.96-5.43-2.22-7.52-4.31-.73-.74-1.61-1.07-2.85-1.35.05-4.99,1.54-8.75,6.49-10.23-3.89-3.42-5.6-7.79-5.83-13.12-.2-4.83-.17-9.49-.07-14.28l.13-7.18,19.36-.06c6.03-.02,11.69,1.27,14.72,6.86,2.3-5.12,6.68-7.17,12.05-7.26.03,1.88.5,2.97,1.47,4.23,1.76,2.32,3.11,4.61,3.85,7.56-.05.51.1.54.41.22,3.77-7.93,14.15-11.54,22.18-8.43l1.28-2.21,5.24-.13c.551-.053,1.097-.08,1.641-.095-1.134-.763-2.292-1.489-3.505-2.161-2.352-1.302-4.812-2.376-7.445-2.964-2.51-.56-5.242-.463-7.779-.107-1.599.225-2.559-1.063-2.373-2.23l-27.029-.002-40.76.01-.03,44.5.04,12.98-.071,15.723Z"/>
        <path d="M16.342,182.188c-1.304,2.715-2.532,5.418-3.277,8.351-.024.093-.04.188-.063.282l-.003,6.808c.893-1.94,1.857-3.843,2.882-5.69,1.05-1.893,2.195-3.735,3.447-5.492l.002-2.375-.064-7.386c-1.101,1.759-2.031,3.643-2.924,5.503Z"/>
        <path d="M33.51,122.38c-3.54-2.16-6.94-4.02-9.75-6.96-3.339-3.488-5.278-7.657-5.584-12.369-.589-.749-1.127-1.536-1.638-2.296-1.385-2.062-2.547-4.279-3.56-6.553l.062,12.398-.034,75.982c.395-.809.8-1.614,1.211-2.417,1.1-2.148,2.792-5.342,5.015-7.441l-.082-9.424c-.06-7.28,2.33-13.939,7.96-19.22-5.38-.15-9.28-3.78-9.76-9.01-.41-4.49.73-8.95,3.93-12.11.72,4.34,6.08,3.75,7.49,9.04l4.76-2.51c2.69,2.95,2.75,7.04.78,10.83,2.87-1.57,4.57-4.37,4.64-7.76.08-3.88-2.05-8.11-5.44-10.18Z"/>
        <path d="M177.463,366.782l-10.163.048c-8.53.04-16.73-1.75-22.87-8.17-.89,4.73-4.48,8.22-9.25,8.85-4.48.6-10.1.52-12.79-2.74,1.8-.37,3.07-1.29,3.77-2.84,1-2.22,2.75-3.7,5.16-4.52-1.14-1.14-2.39-2.95-1.73-4.6,1.89-4.79,7.99-4.97,12.9-2.09-1.07-3.19-3.69-5.42-7.03-5.95-4.63-.74-8.85,1.76-11.07,5.87-1.63,3.01-3.26,5.84-5.47,8.44-4.67,5.5-11.42,7.99-18.64,7.24-1.83-.19-3.5-.11-5.38.06l-1.3-2.1c-4.48,1.78-9.08,1.33-13.5-.49-3.92-1.61-6.96-3.98-8.8-8.22-.64,3.26-1.71,5.86-3.48,8.54l-1.73,3.26c-5.33.58-10.1-1.45-12.34-6.79-2.72,6.24-8.65,6.55-15.01,6.63l-19.36.23.26-7.92-.01-12.57c-.01-5.06,1.93-10.09,5.86-13.16-5.05-1.79-6.17-4.72-6.47-9.9,1-.35,1.97-.66,2.59-1.2,2.36-2.04,4.82-3.43,7.78-4.57-3.96-1.91-7.2-4.38-9.09-8.14-2.08-4.17-2.76-10.47-.09-14.51-1.51-1.49-1.79-3.46-2.03-5.49-.85-7.1,1.52-13.58,6.89-18.32,2.67-2.35,5.71-3.93,8.74-5.91,3.01-1.96,4.82-5.79,5.14-9.23.34-3.61-1.37-6.73-4.26-8.51,1.46,4.15,1.68,7.39-.93,10.95-1.82-.74-3.05-1.4-4.76-2.62-1.26,5.36-5.71,5.521-7.67,9.57-3.31-3.93-4.62-9.12-3.65-14.09.91-4.72,4.66-7.79,9.64-7.61-5.06-4.88-8.04-10.96-8.03-18.02l.033-34.392c-1.116,2.121-2.151,4.289-3.114,6.472-1.164,2.64-2.244,5.358-3.213,8.122l-.035,77.219v26.65l.09,63.2,20.6.17,32.72-.12,118.584-.071c-2.876-1.753-5.349-4.053-7.491-6.657Z"/>
        <path d="M201.102,369.231c-1.101-.785-2.168-1.624-3.181-2.524l-11.551.033-4.336.021c1.918,1.472,4.001,2.756,6.201,3.713,4.443,1.935,9.241,2.277,13.959,2.954l6.275-.005c-2.577-1.188-5.08-2.562-7.366-4.192Z"/>
        <path d="M242.96,28.18c1.19-4.5,4.52-7.74,9.04-8.72,4.51-.98,9.09-.26,12.75,2.55-.03.17-.07.48-.07.48-3.92.68-3.2,5.66-8.49,7.57,2.11,2.19,2.24,5.17-.03,7.2-3.13,2.8-7.08,2.2-11.14.12l-.09.32c1.82,4.71,6.85,7.01,11.62,5.34,2.97-1.04,5.08-3.3,6.51-6.05,1.59-3.04,3.25-5.88,5.39-8.54,4.31-5.35,10.66-8.05,17.55-7.62l6.43.39,1.19,2.14c3.17-1.44,6.32-1.5,9.68-.83,5.49,1.1,9.96,4.1,12.74,9.38.94-2.91,2.12-5.35,3.94-7.72.95-1.24,1.65-2.47,2.19-4.15,4.77-.25,9.52,2.26,11.5,6.97,3.65-6.64,11.17-7.03,18.64-6.91l15.14.25.57-.08c.11-.02.13.4.13.54l-.02,8.16-.28,14.86c-.08,4.3-2.3,8.05-5.75,10.78,4.87,1.5,6.38,5.229,6.55,10.29-1.47.22-2.25.79-3.18,1.74-1.9,1.94-4.39,2.88-7.23,3.99,4.66,2.37,8.57,5.76,10.33,10.75,1.17,3.31.63,6.69.77,10.16l.17,4.34c.15,3.68.68,7.28-.29,10.89-1.23,4.53-4.18,8.04-7.82,10.89l-8.4,5.48c-3.98,2.6-6.9,12.44-.46,16.79l.34.09c-1.32-4.22-1.6-7.81,1.29-10.61l4.8,2.58c1.26-5.24,6.44-4.76,7.42-9.02,3.73,3.63,5.06,9.07,3.63,14.15-1.22,4.33-4.93,6.78-9.47,6.98,5.45,5.14,8.31,11.55,8.21,18.77l-.42,31.38.025,3.611c.023-.025.046-.048.069-.073,2.451-2.686,4.49-5.688,6.043-8.981.215-.456.419-.917.615-1.381l.028-47.895v-45.96l-.08-80.22-278.633-.026c.894.442,1.766.925,2.605,1.443,2.445,1.509,4.805,3.222,6.938,5.147.501.453.989.921,1.478,1.387,4.298.959,8.153,3.222,11.131,6.768,4.86,5.79,5.89,12.1,11.19,14.58,5.17,2.41,11.14-.05,12.79-5.54-2.02,1.08-3.96,1.979-6.15,2.08-3,.14-5.73-1.44-6.68-4.23-.62-1.83.23-3.57,1.62-4.93-2.51-.95-4.23-2.64-5.38-4.96-.69-1.4-1.8-2.21-3.46-2.83,5.15-4.6,14.29-4.06,18.88.38,1.5,1.45,2.32,3.48,3.07,5.46,4.42-5.26,13.57-7.9,20.19-7.9h58.06c6.83,0,15.53,2.5,20.27,8Z"/>
        <path d="M375.087,195.537c-1.139,1.765-2.433,3.426-3.906,4.998-.876.935-1.804,1.873-2.779,2.792l.168,24.573c.03,4.27-1.2,8.6-3.93,11.61l-4.59,5.06c3.52.21,6.91,1.29,8.78,4.229,3.02,4.71,1.87,13.07-2.56,17.1-1.85-3.81-6.2-3.95-7.6-8.86-1.39.9-2.97,1.72-4.54,2.13-3.26-2.88-2.62-6.44-1.43-10.71-4.03,2.74-5.14,7.82-3.12,12.19.8,1.72,2.04,3.99,3.66,5.03l8.52,5.48c3.54,2.87,6.36,6.44,7.51,10.88.96,3.74.55,7.45.25,11.26-.1,1.34-.35,2.71-.71,3.9,2,9.49-1.49,16.86-10.66,20.9,3.12,1.28,6.21,3.13,8.35,4.91.44.37,1.49.49,2.24.6l-1.09,5.34c-.44,2.16-2.49,3.58-4.46,4.4l-.89.37c-.21.09.17.45.5.73,2.81,2.42,4.46,5.9,4.9,9.72.61,5.32.83,19.68-.62,21.44-1.17,1.4-16.52,1.28-21.92,1.06-4.83-.19-9.25-1.85-11.65-6.23-1.92,4.52-6.25,6.78-11.19,6.52-.72.01-.83-1.39-2.62-3.73-1.51-1.98-2.83-4.08-3.37-6.53l-.17-.74c-.02-.12-.12-.13-.2-.05l-.49.47c-1.89,3.62-5.12,5.99-8.92,7.4-4.26,1.66-8.67,1.95-13.06.27l-1.28,2.08-6.88.13c-7.09.14-13.42-2.53-17.7-8.13l-4.75-7.45c-1.2-1.9-2.49-3.61-4.43-4.75-3.95-2.32-8.88-1.85-12.01,1.62l-1.64,2.39c-.07.1.06.76.16.69l.47-.39c4.49-2.58,10.8-1.75,12.24,2.58.74,2.22-1.91,4.4-1.64,4.52l.83.38c4.83,2.17,3.49,5.91,7.91,7.1-2.96,2.99-8.95,3.2-13.37,2.44-4.5-.78-7.74-4.14-8.53-8.74-3.87,3.83-8.37,6.26-13.54,7.26l-7.98.86-18.184.052c3.521,1.916,7.255,3.531,11.109,4.625,3.728,1.059,7.479,1.798,11.344,2.092l37.251-.03,100.14-.036c.566-.254,1.099-.221,1.538,0l10.482-.004.05-79.75-.03-35.12.037-62.934Z"/>
        <path d="M342.8,178.3l-3.28-8.65c-1.98-4.6-5.04-8.08-8.79-11.31-9.68-8.33-18.06-9.52-31.01-6.85,5.71-5.19,9.68-11.37,10.6-18.88.78-6.37-.19-12.69-2.61-18.61l-4.91-12.03c-1.56-3.81-2.46-7.61-2.92-11.78-6.68-.6-12.87-2.4-18.94-5.15-15.48-7.03-31.62-6.69-43.18,6.74-.02.05-.19-.27-.22-.39l.95-7.99c.5-8.48-2.34-16.26-7.8-22.58-6.91-8-10.68-9.43-20.38-12.98-6.2-2.27-11.85-5.38-16.77-9.79-3.36,3.12-6.85,5.84-11.03,7.5l-9.97,3.96c-8.7,3.06-14.81,8.56-19.82,16.21-5.29,8.06-5.41,16.79-3.76,26.17l-3.39-3.46c-9.79-9.99-25.33-9.35-37.98-3.86-6.48,2.81-12.99,5-20.05,5.71-.79,4.07-1.61,7.84-3.11,11.6l-4.64,11.64c-5.64,14.13-4.36,27.56,7.44,37.82l-9.35-1.16c-8.01-.36-14.98,2.77-20.91,7.87-3.88,3.32-7.11,6.76-9.28,11.521l-4.13,10.83c-2.02,5.31-5.14,9.92-8.61,14.51,5.15,5.81,8.52,12.51,10.83,19.8,2.29,7.23,6.44,12.77,12.24,17.42,5.74,4.6,12.3,7.37,19.9,6.92l8.97-1.13c-7.84,7.07-10.9,13.97-10.29,24.36.44,6.08,2.46,11.54,4.91,17.09,2.75,6.22,5.01,12.35,5.97,19.13,7.08.48,13.44,2.62,19.83,5.37,6.28,2.69,12.65,4.39,19.5,4.05,8.87-.45,16.73-4.33,22.09-11.42l-.9,8.94c-.3,7.96,2.53,15.23,7.75,21.07,6.19,6.91,10.23,9.43,19.2,12.44,6.98,2.35,13.36,5.81,18.64,10.68,5.64-5.27,12.17-8.73,19.53-11.06,7.86-2.49,13.88-6.75,18.9-12.96,7.39-9.16,8.14-17.42,6.08-29.09,7.97,10.32,21.14,13.4,33.52,10.17l9.72-3.51c5.85-2.51,11.82-4.3,18.33-4.83.7-4.77,1.89-9.17,3.7-13.6l4.13-10.12c4.4-10.77,4.65-24.38-3.61-32.98l-4.07-4.24c7.405,1.457,13.975,1.731,20.124-.322-.015,0-.03.001-.045.001-4.099-.019-7.812-1.588-11.492-3.241-.003-.001-.006-.003-.009-.004-4.096.064-8.006-.754-12.007-1.695-5.4-1.26-10.29-3.51-16.23-4.22,7.51,5.39,16.88,10.13,21.28,18.2,2.2,4.05,3.9,10.73,1.87,12.58-1.1,1.02-3.49-.23-5.17,1.23l4.64,3.26c2.01,2.57,1.65,5.97.63,8.97-1.96,5.76-7.2,5.32-7.1,5.53l.26.55c1.09,2.29,1.44,4.88,1.44,7.47l.01,8.54.28,2.24.15.67c.02.11-.26.02-.49,0l-4.82-.54-7.75-.12c-2.57-.04-4.87-.85-7.24-2.04.17,3.15-1.49,5.65-4.27,6.73-2.64,1.03-5.49,1.31-8.29.53-1.3-.37-2.18-1.45-2.96-2.49l-2.29-3.06c-.31,1.91-.54,3.28-1.19,4.89-7.24,1.61-16.23-4.16-20.31-10.03l-8.81-12.72c-.27-.37-.47-.3-.51.18l4.43,18.8c1.72,7.29-1.01,19.92-5.38,21.1-2.35.63-3.45-2.11-5.75-1.88l1.1,6.67c.52,3.15-2.15,5.99-4.69,7.63-4.12,2.65-9.17,2.6-13.01-.16-1.37,2.83-3.13,5.2-5.24,7.48l-7.37,7.98-5.89-6.32c-2.61-2.81-5.15-5.45-6.81-9.09-4.31,2.89-9.4,2.77-13.53-.2-2.31-1.65-4.73-4.33-4.18-7.35l1.21-6.67c-1.19.15-2.12.53-2.91,1.14-5.91,4.61-10.91-10.84-8.14-22.06l4.38-17.771-5.51,7.83c-2.12,3.02-4.11,5.96-6.69,8.59-3.81,3.88-8.46,6.52-13.94,7.15-.99.12-3.11.07-3.63-.68-.92-1.33-.95-2.8-1.32-4.48l-3.01,4.1c-1.96,2.68-8.42,2.42-12.15-.2-1.8-1.271-2.7-3.23-2.5-5.53-2.25,1.06-4.51,1.95-6.98,1.98l-8.55.1-4.78.74.42-2.44v-10.61c0-2.36.7-4.63,1.65-6.77-3.59-.09-6.13-2.34-7.18-5.78-.81-2.64-1.6-6.45.87-8.39l4.37-3.45c-1.79-1.58-4.71-.16-5.28-1.33-.61-1.22-.8-3.14-.61-4.52,1.51-10.55,9.38-16.24,17.7-21.8,2.11-1.4,4.4-2.31,6.04-4.48l-17.43,4.99c-7.54,2.16-16.48,2.21-22.87-2.17-1.77-1.21-2.32-3.08-1.12-4.84l2.21-3.2c-4.51.11-8.15,3.02-11.95-.61-4.46-4.27-6.18-10.56-1.48-15.2-4.49-1.88-7.75-4.729-11.19-7.79l-4.84-4.3,7.02-6.77c2.72-2.62,5.66-4.46,9.4-5.8-2.49-2.2-3.59-4.66-3.1-7.65.91-5.52,5.95-10.79,10.78-9.06,1.57.56,3.16.72,4.71.5l-2.08-3.79c-.68-1.23.7-2.97,1.88-3.68,4.59-2.77,9.92-3.64,15.36-3.33,8.66.49,16.43,4.17,25.05,5.84l-11.54-8.13c-6.81-4.79-13.2-13.1-12.55-21.49.05-.56.44-1.55.76-1.9.89-.97,3.22.22,5.35-.93-1.43-1.55-2.62-2.34-4.32-3.45-2.82-1.84-2.12-8.46.82-12.6,1.17-1.64,3.27-2.3,5.25-2.25-.86-2.29-1.64-4.65-1.65-7.1l-.03-9.94c-.01-.57-.44-1.73-.67-2.24,1.06.47,2.45.85,3.69.86l10.23.03c2.37,0,4.45,1.02,6.65,2.35-.16-2.34.48-4.45,2.47-5.83,3.42-2.37,8.38-2.83,11.97-.65l3.16,4.64c.4-1.67.71-3.28,1.38-4.68,7.83-2.11,16.59,4.39,21.25,10.75l7.85,11.88c.03.06.5.42.53.29l.26-1.04-4.05-15.4c-1.81-7.73-1.82-17.05,2.92-23.34.45-.58,1.43-1.24,2-1.4,1.83-.49,3.42,2.33,5.79,2.24l-1.2-6.04c-.67-3.39,1.54-6.58,4.21-8.5,4.05-2.91,9.19-2.93,13.42,0,1.52-3.39,3.52-6.19,6.06-8.78l6.59-6.73,5.22,5.5c2.85,3.01,5.55,5.9,7.38,9.97,4.9-3.46,11.26-2.62,15.33,1.68,1.98,2.09,2.77,4.75,2.21,7.6l-1.01,5.11c2.09.29,3.29-2.12,5.24-2.13.6,0,1.52.78,1.97,1.42,5.14,7.32,4.3,16.81,2.5,25.37-1.04,4.93-2.76,9.47-3.27,14.83,3.76-5.42,6.47-10.81,10.67-15.52,3.81-4.27,8.69-7.16,14.28-8.15,1.74-.31,3.48-.27,5.15.4l1.09,4.49,2.62-3.59c.57-.79,1.45-1.67,2.43-1.92,3.25-.83,6.53-.5,9.42,1.06,2.3,1.25,3.53,3.57,3.3,6.35,2.29-1.35,4.58-2.29,7.16-2.3l9.48-.04,3.7-.54-.5,11.58c-.1,2.5-.54,4.83-1.49,7.35,5.22.14,6.47,3.16,7.57,8.26.48,2.24.07,4.57-1.1,6.47-1.94,1.01-3.4,2.04-4.86,3.68,2.07,1.12,4.23.01,5.21.9.36.31.79,1.29.83,1.85.54,7.62-5.17,16.31-11.09,20.4l-11.26,7.77c-.57.4-1.04.85-1.25,1.56l15.92-4.54c7.87-2.25,18.03-2.29,24.79,2.49,1.62,1.15,1.8,3.07.72,4.63l-2.14,3.07,4.79-1.16c1.97-.48,3.83-.6,5.63.5,2.78,1.7,4.79,4.41,5.65,7.58.87,3.21-.08,6.32-2.73,8.6,3.53,1.18,6.47,3.15,9.14,5.75l6.4,6.17c.2.09.59.29.61.29-.01,0-.44.36-.55.46l-5.08,4.73c-3.15,2.93-6.27,5.45-10.35,7.15,4.65,4.39,3.05,10.77-1.07,14.71-2.23,2.12-4.86,2.48-7.84,1.7l-3.32-.87c-.2-.05-1.06.19-.99.37.07.17.27.62.39.78l1.75,2.15c2.163,2.682-1.216,5.372-5.887,6.932,1.096.282,2.197.52,3.306.668,2.914.39,5.755.175,8.544-.523.363-.277.726-.547,1.086-.846,3.16-2.63,6.02-5.28,8.27-8.76,2-3.39,3.44-6.85,4.7-10.61,2.25-6.69,5.55-12.72,10.18-18.03-4.3-4.89-7.43-10.21-9.66-16.09Z"/>
        <path d="M296.15,80.53c1.05-3.87.85-7.5-2.54-9.56l.03-3.59c-12.1,7.86-24.76,8.72-36.09-.79l-15.34-12.87c-3.28-2.75-5.91-5.8-8.52-9.19l-6.82-8.82c-1.86-2.42-4.46-3.9-7-5.69,3.25-.04,6.02,1.1,8.69,2.66,9.58,5.6,15.27,20.61,31.83,15.63-1.04,8.18,2.75,16.62,10.6,18.81,4.8,1.34,9.46.36,13.07-2.63,2.84-2.35,4.29-5.86,3.79-9.46-.69-4.91-5.05-8.18-9.91-7.23-2,.39-3.67,1.87-4.4,3.311-1.06,2.07-.84,3.99-.08,6.12-2.31-1.05-3.6-3.28-3.56-5.85.04-2.83,1.45-5.45,3.94-7.26,5.84-4.24,13.6-4.26,19.78-.67,13.19,7.66,12.66,26.26,2.53,37.08Z"/>
        <path d="M167.71,29.98c-2.68,1.63-5.33,3.24-7.27,5.73l-5.96,7.64c-3.7,4.74-7.57,8.81-12.18,12.66l-13.69,11.45c-10.26,8.57-23.91,7.46-34.69-.14l-.13,3.71c-3.32,2.17-3.3,5.1-2.72,9.1-4.88-4.7-7.46-13.15-7.16-19.85.31-7.03,3.72-13.35,9.89-16.87,5.82-3.32,12.57-3.45,18.15-.31,3.18,1.79,5.36,4.65,5.47,8.29.08,2.59-1.11,4.87-3.58,5.83.86-2.09,1-4.06-.06-6.1-.81-1.57-2.51-3.06-4.71-3.39-2.8-.41-5.78.57-7.6,2.81-2.53,3.13-2.62,7.46-.68,10.96,1.98,3.56,5.62,5.56,9.62,6.07,5.89.76,11.31-1.95,14.26-7.14,2.07-3.63,2.72-7.79,2.2-12.18,9.72,3.1,16.14-.85,22.81-7.66,5.15-5.26,10.09-10.55,18.03-10.61Z"/>
        <path d="M302.05,334.76c-4.19,10.84-16.83,15.76-27,10.25-2.96-1.61-5.09-4.29-5.26-7.58-.13-2.62,1.14-5.05,3.64-5.87-1.65,3.41-.32,7.09,3.06,8.61,2.61,1.17,5.7.69,7.97-.98,2.17-1.6,3.48-4.25,3.35-7.23-.14-3.43-2-6.31-4.81-8.26-5.49-3.4-12.74-3.13-17.64,1.25-4.29,3.84-5.84,9.51-5.17,15.17-6.31-1.98-12.83-.93-18.11,3.25l-8.4,7.73c-3.71,3.42-8.51,6.42-13.81,6.33,2.92-1.82,5.59-3.63,7.73-6.31l5.27-6.63c2.78-3.49,5.6-6.78,9.07-9.63l15.85-13.021c10.93-8.979,23.63-8.33,35.55-.47l.09-3.37c3.17-1.92,3.85-5.51,2.69-9.48,6.66,5.96,9.27,17.64,5.93,26.24Z"/>
        <path d="M167.43,357.49c-6.96.36-11.25-3.79-15.71-7.88l-6.56-6.021c-5.16-4.05-11.63-5.56-18.21-3.36.35-4.39-.18-8.49-2.42-12.03-2.92-4.63-7.88-7.14-13.3-6.62-6.94.12-12.67,5.54-11.7,12.15.74,4.99,5.58,8.23,10.32,6.82,3.89-1.16,5.72-5.229,3.93-8.91,2.06.69,3.25,2.42,3.51,4.46.65,5.14-3.67,9.09-8.5,10.49-10.63,3.08-21.4-3.17-24.17-13.94-1.92-7.47-.1-15.28,4.17-21.66l2.45-2.37c-1.16,3.86-.38,7.27,2.64,9.45l.14,3.47c11.24-7.94,24.59-8.39,35.17.29l14.75,12.08c3.94,3.24,7.25,6.71,10.37,10.73l4.45,5.74c2.37,3.05,5.22,5.33,8.67,7.11Z"/>
        <path d="M76.35,296.33c-5.55,5.48-13.19,8.32-20.96,7.48-10.35-1.12-18.35-9.95-17.87-20.48.17-3.67,1.91-6.94,4.6-8.73,3.15-2.09,7.28-1.5,9.32,1.67-2.52-.25-4.65-.04-6.5,1.48-1.59,1.31-2.65,3.52-2.55,5.98.18,4.76,4.15,8.33,8.96,8.28,3.93-.04,7.26-2.13,9.43-5.35,4.59-7.13,2.55-16.5-4.64-21.05-3.69-2.34-7.84-3.15-12.54-2.561,5.03-16.03-8.83-22.05-13.81-31.59-1.41-2.68-2.47-5.44-1.96-8.56,3.04,8.94,12.21,12.46,18.36,19.36l17.45,19.58c7.74,8.7,8.11,22.46,1.17,32.03l3.28.61c2.15,2.67,4.76,2.25,8.26,1.85Z"/>
        <path d="M350.95,240.51c-6.36,6.48-10.21,13.76-7,22.76-4.39-.49-8.27.18-11.91,2.19-7.6,4.2-10.22,13.87-5.5,21.2,2.55,3.95,7.17,6.15,11.71,5.17,4.62-.99,7.56-5.16,6.76-9.69-.73-4.17-4.6-6.59-8.73-5.64,2.25-3.43,6.98-4,10.2-1,2.47,2.32,3.55,5.82,3.48,9.23-.22,9.41-6.99,17.06-16.26,18.81-8.22,1.55-16.77-1.24-22.8-7.26,3.55.86,6.67.64,8.81-1.89l2.82-.59c-6.85-9.7-6.55-22.75,1.42-31.71l14.87-16.69c3.29-3.7,6.78-6.74,10.66-9.77l6.42-5.81,4-6.25c.19,6.79-4.56,12.1-8.95,16.94Z"/>
        <path d="M68.17,94.09l-3.04.6c7.22,9.89,5.67,22.91-2.21,31.94l-16.94,19.38-4.41,4.12-7.66,6.62c-2.77,2.4-4.57,5.27-6.14,8.81-.54-6.14,3.56-11.88,7.71-16.41,6.71-7.31,11.31-13.31,8.19-23.88,5.36.61,10.14-.65,13.99-3.93,5.59-4.76,7.2-12.62,3.75-19.12-2.26-4.25-6.83-6.81-11.54-6.08-2.68.41-4.91,2.02-6.08,3.82-1.62,2.47-1.83,5.23-.84,7.76,1.36,3.48,4.71,4.93,8.62,4.07-1.29,2.38-3.73,3.22-6.13,3.16-5.34-.12-8.5-6.68-8-12.19.76-8.54,6.86-15.41,15.3-17.32,8.57-1.95,17.57.89,23.88,7.08-3.5-.48-6.37-1.17-8.45,1.57Z"/>
        <path d="M360.02,165.5c-3.57-8.65-12.52-13-17.64-18.82l-17.8-20.25c-7.8-8.87-9.26-22.1-1.99-31.77l-3.14-.56c-1.09-1.2-2.8-2.2-4.52-2.03l-3.9.4c8.91-8.46,23.52-10.73,32.85-2.37,6.48,5.82,8.44,16.28,3.24,22.43-1.37,1.62-3.54,2.48-5.5,2.42-2.1-.07-4.29-1.01-5.49-3.16,3.91.9,7.34-.76,8.64-4.34.91-2.51.6-5.35-1.06-7.66-1.35-1.89-3.65-3.49-6.48-3.73-4.62-.4-8.97,2.15-11.18,6.32-3.55,6.71-1.56,14.87,4.46,19.47,3.92,3,8.57,3.88,13.5,3.46-2.85,8.39.03,14.48,5.33,20.73l6.92,8.19c2.61,3.08,3.94,7.01,3.76,11.27Z"/>
        <path d="M46.74,40.05c-3.64-2.62-7.42-4.45-12.53-4.729-.3,8.42,5.17,16.13,12.36,20.51l8.89,5.41c3.22,1.97,6.11,4.23,8.54,7.28-5.07-3.08-9.82-5.78-15.03-8.28l-12.06-5.27-.76-.79c-.21-.22.27-.83.6-1.27-7.67-5.76-9.13-13.78-8.26-23.12l7.22-.19c7.29-.19,13.7,4.11,16.99,10.83l2.34-3.57c1.04,2.4,1.63,4.07,2.22,6.29,2.29,8.47,5.57,16.23,10.19,24.15-2.43-1.84-4.31-4.35-5.87-7.08l-5.58-9.74c-2.36-4.12-5.58-7.51-9.26-10.43Z"/>
        <path d="M67.44,321.05c-3.91,6.69-6.98,13.26-9.24,20.68l-2.87,9.4c-1.21-1.29-1.85-2.3-2.51-3.55-6.01,10.21-12.92,11.84-24.29,10.34-1.14-9.57.88-17.58,8.86-22.85l-.76-1.06,10.96-5.11c5.79-2.69,11.16-5.54,16.7-8.9-1.49,1.93-3.11,3.61-5.13,4.85l-9.91,6.07c-2.88,1.77-5.65,3.53-8.06,5.86-4.37,4.25-7.09,9.67-7.08,15.86,9.06-.35,17.45-7.34,21.87-14.99l5.61-9.69c1.53-2.64,3.29-5.02,5.85-6.91Z"/>
        <path d="M359.09,29.89l-.1,8.81c-.64,5.88-3.66,11-8.5,14.24l1.04,1.45-6.05,2.81c-7.71,3.06-14.69,6.8-21.85,11.43,2.38-3.43,5.71-5.44,8.95-7.69l8.53-5.26c7.14-4.4,12.39-11.83,12.32-20.33-11.85.83-19.49,9.81-24.65,19.73-2.1,3.64-3.84,7.27-6.94,10.33,3.49-7.32,5.99-14.52,8.36-22.11l2.01-6.45c1.33,1.24,1.96,2.3,2.57,3.72,3.18-6.67,9.56-10.81,16.82-10.92l7.49.24Z"/>
        <path d="M359.01,349.41l-.01,8.25-7.38.23c-7.17.23-13.42-3.83-16.88-10.21l-2.6,3.59-3.09-10.2c-2.1-6.94-4.98-13.021-8.5-19.36l3.92,4.13,4.87,8.35c2.83,4.85,5.83,9.38,10.25,12.88,4,3.16,8.57,5.26,13.76,5.4-.19-10.08-6.31-16.19-14.4-21.08l-9.95-6.01c-2.26-1.37-4.24-3.1-5.71-5.35,5.45,3.45,10.7,6.3,16.43,8.88l11.33,5.09-.75,1.28c4.86,3.05,8.1,8.2,8.71,14.13Z"/>
        <path d="M316.37,58.36c-.76,6.56-3.2,12.97-7.97,17.74,1.55-4.54,3.17-8.57,3.78-13.1.58-4.37.47-8.49-1.02-12.63-3.04-7.28-8.9-12.89-16.3-15.63-7.64-3.1-15.52-1.97-22.66,2.55,4.16-6.21,11.77-8.51,18.9-7.24,8.39,1.5,15.66,6.38,20.9,13.01,3.23,4.57,5.01,9.71,4.37,15.3Z"/>
        <path d="M115.09,37.25c-4.88-3.07-9.94-4.69-15.45-4.15-13.09,1.28-24.28,11.38-24.66,24.5-.19,6.57,1.92,12.5,4.35,18.77-5.08-5.17-7.83-12.06-8.21-19.15-.34-6.36,2.18-12.11,6.47-16.62,4.98-5.49,11.36-9.19,18.65-10.6,7.13-1.11,14.89.96,18.85,7.25Z"/>
        <path d="M115,350.71c-1.93,3.21-5.32,5.36-8.95,6.4-12.08,3.47-25.48-3.93-31.84-14.28-2.61-4.25-3.61-9.13-2.92-14.04.86-6.13,3.32-12.1,7.99-16.38-3.55,8.43-5.9,16.35-3.04,24.97,2.88,7.51,8.78,13.2,16.36,15.92,7.51,2.87,15.32,1.89,22.4-2.59Z"/>
        <path d="M311.73,344.84c-6.71,8.7-18.49,14.88-29.71,12.39-4.04-1.24-7.66-3.07-10.06-6.81,6.72,4.6,14.92,5.7,22.66,2.79,7.64-2.87,13.8-8.62,16.62-16.34,1.55-4.26,1.45-8.66.64-13.11l-3.67-11.3c3.54,3.16,5.39,7,6.85,11.18,2.55,7.28,1.42,15.04-3.33,21.2Z"/>
        <path d="M359.84,292.23c-1.33,8.23-5.8,15.58-12.53,20.41-4.18,3.01-8.98,3.97-14.08,3.73-7.22-.68-14.13-3.45-19.35-8.87,11.05,5.66,22.68,8.31,33.01.29,5.28-4.28,8.7-10.41,10.03-17.12,1.01-5.1,0-9.78-2.27-14.59,4.5,4.01,6.14,10.24,5.19,16.15Z"/>
        <path d="M354.73,112.43c5.94-11.81.92-25.66-9.21-32.75-5.29-3.71-11.52-4.52-17.81-3.55-4.87.74-8.96,2.93-13.65,4.94,8.74-8.61,23.64-12.32,33.62-4.94,11.22,8.31,17.73,25.81,7.05,36.3Z"/>
        <path d="M73.13,307.83c-4.84,4.92-11.47,7.83-18.34,8.5-6.99.57-13.49-1.61-18.27-6.61-8.48-9.18-13.38-23.62-3.86-33.25-2.12,4.57-3.06,9.13-2.05,13.99.87,4.7,2.75,8.97,5.59,12.77,4.69,6.41,11.92,9.87,19.91,9.57,6.01-.25,11.18-2.34,17.02-4.97Z"/>
        <path d="M73.49,80.98l-8.56-3.77c-9.13-2.58-18.12-2.28-25.42,4.43-5.44,5-8.73,11.78-9.26,19.04-.3,4.06,1.06,7.52,2.41,11.41-10.51-10.24-3.73-27.66,7.05-35.86,9.84-7.47,25.24-4.01,33.78,4.75Z"/>
        <path d="M215.85,144.81c.715-9.001-5.396-13.823-13.078-15.995-.001.005-.003.011-.004.016-.475,1.681-1.16,3.289-1.912,4.864,2.107.77,4.118,1.883,5.944,3.375,3.54,2.9,5.22,7.41,4.71,11.94l-1.95,8.67,4.08-5.17c5.098-6.48,12.994-6.66,19.455-2.803.102-.593.222-1.175.373-1.732.316-1.166.831-2.208,1.483-3.153-6.347-3.707-13.441-5.521-19.1-.012Z"/>
        <path d="M148.47,178.44l7.49,1.71-5.73-4.16c-8.11-5.88-6.23-17.93.19-23.7.176-.158.361-.296.541-.447-1.371-1.109-2.516-2.519-3.372-4.02-.09.065-.18.131-.269.197l-9.78-6.45,7.05,9.5c-5.1,7.63-8.45,16.34-1.67,23.37-11.22-.78-14.56,8.93-15.96,18.87l-15.53,1.83,15.64,1.68c1.59,10.34,4.37,19.24,15.95,18.99-7.23,7.4-3,15.04,1.45,22.89l-6.92,9.37,8.67-5.91c.523-.355,1.152-.387,1.74-.212.128-.211.262-.418.385-.633.735-1.281,1.36-2.633,1.874-4.023-2.346-2.162-3.866-5.117-4.82-8.191-1.73-5.54.21-11.11,4.83-14.54l5.66-4.21-6.92,1.53c-6.98,1.55-13.11-2.63-15.34-9.14-1.93-5.6-1.9-11.09.45-16.56,2.46-5.72,8.09-8.83,14.39-7.74Z"/>
        <path d="M183.54,130.915c-.115-.557-.204-1.135-.274-1.722-7.287,2.393-12.593,7.261-11.855,15.617-5.972-6.102-14.207-3.276-21.006,1.077.639,1.319,1.485,2.546,2.463,3.592.172.184.353.371.542.557,6.893-4.34,15.239-4.043,20.222,2.504l3.9,5.14-1.49-6.18c-1.63-6.8,1.23-13.44,7.45-16.6.423-.215.856-.401,1.288-.588-.562-1.072-.992-2.212-1.238-3.397Z"/>
        <path d="M198.62,127.9c-1.07-.17-2.22-.5-3.13-.88l-1.88-13.81-1.89,13.92-5.657,1.325c.019.25.033.499.063.75.173,1.406.533,2.877,1.048,4.215,3.538-1.083,7.244-1.279,10.783-.548.003-.009.006-.019.009-.027.476-1.536.84-3.103,1.233-4.661.014-.057.023-.114.037-.171-.206-.036-.409-.079-.616-.112Z"/>
        <path d="M244.1,174.45c6.88-6.92,3.47-15.61-1.6-23.39l6.85-9.31-9.64,6.25c-.272-.203-.548-.403-.825-.603-.065.074-.138.141-.201.217t-.004.004c-.013.022-.029.048-.055.088-.112.176-.238.343-.353.517-.221.333-.412.679-.598,1.032-.051.101-.1.203-.147.306.049-.129.046-.122-.01.021-.078.191-.147.386-.213.582-.158.467-.28.943-.41,1.418-.074.272-.147.545-.22.818.078.072.16.136.237.21,2.44,2.34,3.95,5.7,4.79,9,1.43,5.59-.49,11.2-5.14,14.52l-5.46,3.91,8.27-1.72c5.86-.67,11.06,2.35,13.43,7.65.233.519.437,1.045.629,1.575.756-.412,1.523-.797,2.29-1.131.864-.377,1.742-.7,2.627-.996-2.046-6.674-6.063-11.518-14.246-10.967Z"/>
        <path d="M259.9,193.23c-.171-1.432-.388-2.842-.659-4.21-.47.12-.941.241-1.406.385-1.208.375-2.353.86-3.494,1.366.984,4.902.278,9.998-2.191,14.529-2.71,4.99-8.17,7.811-13.78,6.63l-7.39-1.56,6.13,4.53c7.53,5.57,5.47,17.21-.4,22.49-7.13,6.41-17.08,7.36-22.88.13l-4.08-5.06,1.71,8.07c.244,2.134-.082,4.186-.858,6.04.082.896.125,1.801.078,2.741-.131,2.585-.687,5.032-1.643,7.34,4.357-2.597,7.335-6.658,6.663-12.182,7.16,6.87,16.18,2.22,23.85-2.9l10.08,6.65-3.59-4.85-3.42-4.84c4.61-7.82,8.53-16.12,1.42-22.8,11.45.58,14.51-8.76,15.97-18.85l15.55-1.73-15.66-1.92Z"/>
        <path d="M182.02,252.69c-4.43-2.51-6.93-7.13-6.31-12.2l1.78-8.05-3.99,5.06c-4.902,6.2-12.929,6.356-19.594,2.481-.239,1.047-.538,2.081-.927,3.096-.192.5-.404,1.005-.629,1.512,6.273,3.546,13.407,5.309,19.06.141-.9,8.41,6.54,12.94,13.98,14.73l6.22,1.51,1.95,13.67,1.94-13.72,6.206-1.457c1.586-2.288,3.244-4.736,4.347-7.326-.386.271-.784.529-1.203.763-7.32,4.09-15.58,3.89-22.83-.21Z"/>
        <path d="M216.21,136.45l-1.44-1.36c2.78-7.88,6.8-21.29,3.93-28.32-1.4-3.43-5.2-4.88-8.66-5.31l-9.05-.16c-3.16-.05-5.49-2.43-7.4-5.14-2.1,3.59-5.34,5.22-9.29,5.28l-7.3.12c-3.75.06-7.29,2.41-8.56,6.06-2.73,7.79,1.27,19.27,4.11,27.44l-1.72,1.05c-4.8-8.47-9.44-19.91-6.88-29.521,1.53-5.72,5.95-9.69,11.81-10.7,3.71-.65,7.43-.66,11.27-.72,1.7-.03,3.21-.28,4.79-.88l1.78-25.93,1.79,26c5.49,1.64,11.06.13,17.58,1.82,4.86,1.25,8.48,4.71,9.95,9.49,3.04,9.94-1.61,22.05-6.71,30.78Z"/>
        <path d="M173.362,290.502c-.48-1.396-.66-2.797-1.011-4.207-.198-.797-.459-1.578-.711-2.362-.555-.383-1.069-.831-1.52-1.374-5.6-6.74-.85-20.09,2.21-28.36l-1.83-.9c-4.34,7.76-8.55,17.78-6.94,26.59,1.008,5.533,4.687,9.621,10.018,11.18-.072-.189-.149-.375-.216-.568Z"/>
        <path d="M216.65,253.37l-1.71.79,3.92,13.39c.84,2.87.87,5.84.67,8.79-.34,4.94-3.73,8.81-8.72,9.44l-7.45.29c-4.07.17-7.7,1.78-9.74,5.51-2-3.31-5.28-5.44-9.31-5.48l-6.44-.06c-1.185-.199-2.386-.444-3.527-.816.159.311.331.611.532.885,1.508,2.042,3.044,4.011,4.66,5.947,4.243.297,8.167-.03,12.245,1.174l1.43,22.09.46,3.43,1.72-25.51c5.85-1.72,11.37-.32,17.83-2.03,4.53-1.2,7.92-4.18,9.53-8.56,3.37-9.19-1.25-20.78-6.1-29.28Z"/>
        <path d="M132.6,215.32c-8.5,4.55-19.84,8.91-29.13,6.8-5.35-1.21-9.13-5.05-10.12-10.39-1.11-6.02.07-10.88-2.06-15.3l-26.06-1.34,26.16-1.85c2.15-5.19.62-10.37,2.26-16.45,4.19-15.48,27.4-9.09,39.08-2.32-.35.52-.79,1.07-1.15,1.4-8.69-2.82-25.41-8.32-30.58-.65-4.2,6.24,1.83,13.97-7.63,19.8,2.68,1.62,5.43,4.04,5.61,7.31l.43,7.75c2.13,13.87,20.52,7.62,31.85,4.33.39-.12,1.17.54,1.34.91Z"/>
        <path d="M321.37,194.35l-3.76.49-21.82,1.271c-2.47,4.56-1,9.979-2.39,16.4-2.01,9.21-11.77,11.34-20.66,9.6-6.31-1.25-12.16-3.51-17.98-6.69.14-.41.91-1.07,1.26-1.03,7.74,2.14,17.8,5.74,25.16,3.67,3.71-1.05,6.22-4.08,6.42-7.92l.4-7.45c.18-3.43,2.98-5.82,5.64-7.64-4-2.45-6.05-6.189-5.86-10.66l-.21-5.31c-.15-3.84-3.21-6.57-7.01-7.35-7.51-1.55-17.26,1.51-24.87,4.15-.42-.31-.92-.83-1.31-1.32,11.74-7.17,35.62-13.3,39.09,2.75,1.27,5.85-.04,11.01,2.11,15.64l25.79,1.4Z"/>
        <path d="M166.8,139.09l-2.16.33c-3.24-6.64-6.99-13.22-12.76-17.8-4.41-3.5-10.26-3.13-14.35.73l-4.62,5.17c-1.82,2.05-4.12,3.27-7.2,2.56.39,2.25.1,4.37-1.56,6.08l-6.34,6.52c-1.93,1.99-2.85,4.96-2.53,7.67.43,3.55,2.53,6.25,5.19,8.45,4.92,4.07,10.32,6.85,16.17,9.79l-.97,1.99c-8.36-3.07-18.36-7.01-23.19-14.3-3.14-4.74-3.32-10.36-.41-15.25,1.61-2.69,3.77-4.98,6.01-7.21l4.94-4.92-13.63-16.39,16.06,13.44c1.01-.61,1.78-1.19,2.52-1.97,2.25-2.37,4.34-4.69,6.83-6.75,5.17-4.28,12.21-4.5,17.69-.62,7.44,5.26,11.12,13.99,14.31,22.479Z"/>
        <path d="M274.6,140.31c3.66,5.47,3.21,12.08-.9,17.22-5.12,6.4-14.24,9.92-22.02,13.09l-1.22-1.94c5.71-2.9,11.04-5.65,15.98-9.61,2.78-2.23,5.08-5.1,5.65-8.71.43-2.73-.68-5.74-2.6-7.64l-5.87-5.81c-1.99-1.98-2.88-4.31-1.97-6.89-3.24.95-5.88-.49-7.91-2.84l-4.42-5.08c-3.98-3.64-9.7-3.95-14.03-.6-5.55,4.3-9.66,11.43-12.64,17.93-.6.23-1.58.15-2.18-.24,2.9-8.41,6.58-16.33,13.31-21.96,5.6-4.69,13.32-4.57,18.92.19l8.3,8.39,16.27-13.51-13.5,15.91,3.41,3.59c2.62,2.76,5.31,5.35,7.42,8.51Z"/>
        <path d="M278.5,276.67l-16.91-14.31-2.35,2.07c-2.32,2.6-4.6,5.12-7.32,7.25-5.22,4.08-11.97,4.29-17.39.52-6.68-4.64-10.74-12.99-13.66-21.02.54-.4,1.22-.67,1.88-.82,4.65,9.55,14.79,25.1,25.25,17.39,5.39-3.97,6.43-10.48,13.43-8.95-.71-2.37.18-4.66,2.05-6.479l5.66-5.53c2.23-2.18,3.17-5.49,2.41-8.53-2.01-8.06-13.46-13.02-20.86-16.48l-.76-2.65,4.05,1.02c7.45,2.62,16.32,6.45,20.69,12.91,2.84,4.19,3.26,9.28.96,13.77-1.32,2.6-3.26,4.83-5.33,6.87l-6.02,5.93,14.22,17.04Z"/>
        <path d="M166.24,251.11c-2.95,7.87-6.61,16.1-13.54,21.02-5.08,3.6-11.43,3.76-16.64.23-2.92-1.98-5.29-4.58-7.66-7.22l-2.86-2.64-16.51,13.71,13.83-16.45-3.74-3.74-6.05-6.49c-4.2-5.31-4.12-12.29.21-17.54,5.6-6.81,14.9-10.28,23.42-12.91l-.38,2.67-10.98,5.68c-4.46,2.3-10.47,7.97-10.07,13.41.19,2.57,1.63,4.99,3.44,6.75l5.36,5.21c1.64,1.59,2.13,3.74,1.59,6.11,3.1-.74,5.53.38,7.44,2.55l4.28,4.87c2.07,2.35,5.3,3.67,8.48,3.39,7.83-.69,14.85-11.84,18.38-19.33l2,.72Z"/>
        <path d="M178.394,194.593c-1.167-.43-2.408-.685-3.651-.78-.145.138-.296.246-.443.277l-5,1,5.6,1.22c.02.036.033.087.052.126.391-.046.776-.104,1.139-.183.785-.169,1.538-.497,2.297-.764-.005-.298-.007-.597.006-.896Z"/>
        <path d="M171.89,220.366c.182-.381.26-.583.43-1.092.176-.525.324-1.063.466-1.599.101-.382.175-.775.245-1.17-.929-.732-1.655-1.59-2.15-2.464-.188.063-.377.121-.561.198-1.036.434-2.078,1.03-3.021,1.677l.721,1.075-9.19,11.34,3.7-2.49,8.38-6.14.98.666Z"/>
        <path d="M167.624,173.695c.139.051.278.101.419.147.905.293,1.812.525,2.753.676.329.052.657.085.986.11.636-.741,1.436-1.358,2.347-1.823-.117-.276-.226-.56-.328-.851-.362-1.034-.733-2.063-1.12-3.087-.611.477-1.223.985-1.851,1.542l-11.77-8.59,9.03,11.29c-.161.198-.312.391-.466.585Z"/>
        <path d="M230.06,209.86l-2.83-2.48c-.49-.43-1.15-1.31-1.41-1.87l1.8-8.56,14.83-1.76-14.88-1.87-1.65-8.72,3.83-3.97-5.83-.07-4.89-7.53,8.97-11.12-11.56,8.53-1.489-1.018c-.122.191-.243.377-.365.591-.371.652-.594,1.004-.769,1.617-.13.458-.226.919-.361,1.371,1.947,1.22,3.635,3.087,3.444,5.649-.088,1.32-1.34,2.557-2.518,3.39.145.041.292.073.434.121.26.086.513.194.766.301l2.268-1.491c1.78-.94,2.8,2.04,2.99,3.29.17,1.1,1.56,2.16.64,3.45l-8.18,2.76c-.71.23-1.99-.01-2.08-.49-.11-.65.18-1.58.51-2.13-.67.18-1.94-1.06-1.65-1.77l3.726-2.451c-.42-.167-.867-.312-1.334-.433l-3.282,1.883-1.44-1.89,2.65-4.45-4.46,2.63-2.25-1.66c.56-1.236,1.148-2.501,1.793-3.648-.112.005-.224.007-.335.017-.108.009-.202.025-.173.02-.019.003-.038.006-.057.01-.123.023-.244.05-.366.078-.179.041-.359.07-.541.096l-1.5,2.138c-1.08.28-2.55-.27-3.47-1.05.52-3.92.46-9.65,3.24-10.05.63-.09,1.6.44,2.4.78,1.17.51,3.15.92,3.13,2.77l-1.449,2.064c.536-.086,1.076-.109,1.614-.071.79-.63,1.669-.988,2.671-.933.008-.183.006-.366.021-.548.119-1.45.572-2.744,1.286-4.009l-2.943-2.012c-.49-1.85-.07-4.05.17-6.24l-4.41,4.19-9.17-1.91-1.96-15.54c-1,5.05-1.32,10.09-1.94,15.479l-9.16,1.98c-1.61-1.1-2.88-2.64-4.53-4.35.26,2.21.56,4.23.23,6.28-1.26.707-2.393,1.389-3.482,2.12.347,1.09.684,2.187.962,3.294.104.417.175.864.254,1.314,2.984-.603,5.651,4.226,7.306,7.882l-1.81,1.59-5.11-3.15,3.19,4.93-1.38,1.62c-1.306-.542-2.523-1.133-3.654-1.823-.038.372.008.899.054,1.427l2.679,1.815-1.14,3.25-.36.79c-.11.24-.99.25-1.25.17l-8.26-2.69c-1.42-1.06.53-5.69,1.84-6.67,1.02-.76,1.99.28,2.72.78l1.058.717c.011-.154.019-.309.037-.463.038-.318.082-.642.13-.966-.624-.564-1.212-1.187-1.755-1.888-.094-.983.059-1.896.369-2.735-.041.005-.081.013-.122.018-1.105.145-2.301.183-3.382-.137-.417-.123-.814-.289-1.202-.473-1.007,1.455-1.896,2.934-2.823,4.637l-5.95.01,4.13,4.08-1.51,7.2c-.09.43-.15,1.19-.46,1.33-.25.1-.92.28-1.21.31l-13.7,1.56c5.05,1.03,10.14,1.1,15.24,1.88l1.89,8.58-4.31,4.5c2.11-.2,4.18-.4,6.12-.03l1.896,2.826c.303-.145.607-.291.911-.416,1.269-.525,2.603-.821,3.967-.911-.01-.654.143-1.253.496-1.73.374-.505.809-.961,1.279-1.386-.018-.393-.027-.787-.028-1.18,0-.017-.001-.034-.001-.051l-1.91,1.188c-.57.36-1.71.56-2.24.27-.58-.31-.93-1.32-1.27-2.06-.73-1.61-1.5-3.11-.37-4.86,3.24-.09,6.13-.94,9.47-2.01l1.68,4.14-1.974,1.228c-.015.038-.03.076-.044.114-.039.104-.076.209-.112.315-.096.283-.176.571-.257.859.885-.493,1.8-.934,2.688-1.346.64-.01,1.96,1.52,1.63,2.12l-2.83,4.63,4.9-2.96,2.42,1.77-4.02,6.25c-.55.86-2.28,1.65-3.24,1.38-.343-.098-.673-.213-.991-.341-.004.081-.006.166-.01.245-.066,1.203-.315,2.409-.707,3.547-.056.163-.123.318-.185.478l3.403,2.312c1.13,1.96.1,4.49.09,6.63l4.47-4.47,9.12,1.8,2,15.25,1.97-15.25,8.73-1.8c1.8.87,3.27,2.79,4.99,4.6.02-2.28-1.33-4.71-.1-6.67l6.92-4.9,12.1,8.73-9.19-11.44,4.79-7.13,6.27.061ZM216.53,213.9c-.96,1.9-2.6,3.1-4.63,3.94-1.376.57-2.527.341-3.525-.364-.084.104-.163.213-.256.312-.271.292-.563.561-.864.819l.015.023c.98,1.48-.79,2.86-2.21,3.34-1.16.4-2.06.66-3.05.33-.72-.24-1.27-1.54-1.45-2.46l-1.45-7.35,3.25-1.31,2.81,4.264c.135-.094.27-.187.402-.284.17-.138.347-.267.519-.401-.79-1.341-1.482-2.911-2.141-4.408l2-1.5,4.96,2.9-2.94-4.54c-.37-.58.74-2.1,1.47-2.19,4.51,2.01,9.24,4.61,7.09,8.88ZM223.24,197.46c-.473,1.393-1.295,2.563-2.824,2.743.014.062.036.122.048.185.073.382.138.771.196,1.161.052.004.11.007.16.011,1.99.52.13,5.34-.91,6.7-.43.56-1.76.58-2.42.16l-7.46-4.8,1.49-3.95,4.437,1.298c-.022-.412-.043-.825-.062-1.237-1.206-.25-2.425-.586-3.625-1.021-.092-.033-.158-.13-.214-.249-1.201-.075-2.373-.336-3.555-.524-.013.068-.017.135-.031.203-1.095,5.396-5.045,9.628-10.162,11.242-.048,1.537-.259,3.068-.46,4.446,1.285,2.617,1.964,5.477,1.401,8.272-.35,1.73-4.34,3.41-7.72,2.35-1.26-.4-3.08-.84-3.31-2.46-.074-.542-.085-1.088-.069-1.634-.497.224-1.02.38-1.552.448-.63,1.922-3.018,1.982-4.549,1.236-.89-.44-1.83-1.05-2.21-1.78-.48-.92.07-2.09.68-2.92l4.21-5.77c1.35-.01,2.71.479,3.88,1.32l-.898,3.584s.007,0,.01,0c.029-.003.079-.008.153-.015.147-.026.293-.056.438-.091.138-.034.274-.072.409-.117.045-.015.089-.031.134-.047.041-.023.091-.046.13-.062.011-.021.021-.039.039-.049.349-.949.772-1.868,1.247-2.73.052-.231.103-.462.156-.687.217-.927.46-1.867.743-2.787-3.294-.536-6.204-2.023-8.419-4.199-2.463-2.419-3.864-5.457-4.254-8.615-.302.148-.604.299-.908.442-.725.341-1.462.576-2.233.716.012.157.024.316.026.457l-7.51,1.54c-1.99.41-3.44-1.1-4.06-2.84-.65-1.82-.49-3.28.2-5.07.63-1.6,1.69-2.85,3.65-2.48,2.54.48,5.08,1.01,7.49,2.07.014.006.018.021.031.028,1.136.074,2.31.251,3.457.555.314-1.72.914-3.405,1.812-4.973,2.09-3.658,5.554-6.183,9.478-7.14-.083-1.151-.037-2.318.082-3.475l-.19.015-.965-3.478c-.018.014-.037.027-.055.041-.066.057-.131.117-.192.172-.215.193-.418.4-.607.619-.045.053-.089.107-.134.16l-.002.003c-.023.031-.044.065-.067.097l.552,2.817-3.25,1.57c-2.88-3.39-8.12-8.54-4.22-10.2l3.25-1.39c1.81-.77,2.51,1.3,2.75,2.52l.279,1.424c.271-.288.556-.562.87-.807l-.099-.356c-.46-1.66.56-3.48,2.14-4.11l3.48-1.38,3.67,1.35c3.56,1.3,1.81,6.61.29,11.01l-.308-.029c-.055.288-.109.576-.156.867-.123.756-.229,1.624-.4,2.486.325.07.65.143.975.236,7.059,2.031,11.562,8.503,11.111,15.527,1.137-.079,2.283-.087,3.415-.188,1.377-.122,2.734-.327,4.103-.431l1.501-.389-4.51-.87c-.34-.06-.97-.43-1.18-.67-.25-.29-.1-1.41.29-1.56,2.38-.95,5.62-1.94,8.25-2.04,1.54-.06,4.02,3.43,2.64,7.54Z"/>
        <path d="M193.435,210.077c-.19,1.039-.392,2.072-.524,3.122-.086.685-.142,1.371-.189,2.057l.908,3.944,1.025-5.054c.04-.58.07-1.158.096-1.73.036-.787.093-1.583.137-2.38-.479.036-.963.05-1.453.042Z"/>
        <path d="M193.472,179.741c.286-.979.484-1.979.722-2.969.1-.416.217-.826.335-1.234l-.919-4.717-1.114,4.912c-.014.64-.01,1.28.018,1.919.019.436.047.871.088,1.305.018.194.04.388.064.582.008.04.052.339.063.399.002.012.006.023.008.035.22-.011.442-.011.663-.011.023-.074.049-.146.071-.221Z"/>
      </g>
    </g>
  </g>
</svg>