<?xml version="1.0" encoding="UTF-8"?>
<svg id="b" data-name="Layer 2" xmlns="http://www.w3.org/2000/svg" width="383.501" height="384.534" viewBox="0 0 383.501 384.534">
  <g id="c" data-name="Layer 1">
    <g>
      <path d="M383.495,3.877c0-2.247-1.734-3.877-4.124-3.877L4.676.008C3.304.008,1.938.451,1.197,1.135c-.683.63-1.197,1.959-1.197,3.091l.002,378.446c0,1.235.713,1.862,2.118,1.862l379.468-.002c1.377,0,1.913-.582,1.913-2.076l-.006-378.578ZM3.834,380.799l.012-374.908c.23-.78.917-1.493,1.9-1.975l186.78-.021,183.977.028c1.061,0,2.744.322,2.747,1.183l.242,68.932.046,306.701-42.55.097-217.2-.015-51.728.023-64.226-.044Z"/>
      <path d="M373.386,64.771l-.088-52.957-.012-.105c-.198-.907-.91-1.448-1.905-1.447l-187.173.079-158.896.113-13.798.134c-.774.008-1.302,1.119-1.373,1.929l-.01,362.101h.5l362.851-.019-.097-309.826ZM13.734,14.123l23.441-.01,163.312.124,57.442-.013,111.63-.052.148,45.679.035,310.972-356.019.019.005-67.814-.009-96.023.064-170.605-.05-22.276Z"/>
      <path d="M27.357,200.26l-.015,154.397c0,.948.746,1.72,1.662,1.72l156.52.024,4.894,7.158c.245.358.889.511,1.392.511.217,0,.407-.028.528-.081l.134-.059,5.103-7.546,158.61-.018.093-122.831-.117-33.268,7.333-7.032c.528-.506.588-1.605.286-2.178l-7.647-6.607.11-34.576-.062-112.809-.037-5.864c-.006-.962-.407-2.108-2.279-2.108h-.001l-156.147.048-6.125-8.709-6.033,8.655-37.695.139-63.857-.025-54.831.17c-1.054.003-1.818.814-1.819,1.928l-.02,142.135.078,11.05-7.577,6.545c-.257.222-.397.521-.405.862-.015.623.424,1.266.84,1.659l7.084,6.708ZM352.452,352.649l-98.989.049-53.404-.052c1.571-2.617,3.44-4.809,5.234-6.842,2.22-2.561,4.388-5.459,5.375-9.332,1.692,1.614,3.498,2.73,5.599,3.462-.385,1.461-.246,2.861.409,4.074.825,1.528,2.433,2.669,4.527,3.212l.062.016,111.478.004c.225-.004.648-.094.957-.655.341-.622.424-1.606.203-2.156.019-2.354.966-4.518,2.674-6.103,1.868-1.734,4.469-2.608,7.139-2.395l.068.005,1.58-.308c.951-.185.964-1.94.964-2.015l.032-28.632.011-66.653.041-12.09c.002-.675-.657-1.834-1.086-2.257-.36-.355-1.123-.552-2.268-.587-1.367-2.883-3.004-5.882-5.587-8.538,4.336-1.794,8.021-4.75,11.243-9.017.948-1.255,1.99-1.891,3.102-1.893.405.844.643,2.112.643,3.466l-.015,120.122-.063,8.088.072,17.024ZM71.924,207.181c-.517-2.536.031-4.443,1.829-6.377,5.886-6.331,15.611-7.451,22.181-7.38-2.142.854-4.221,1.842-6.185,3.26-5.327,3.847-9.702,10.871-7.025,17.406-4.254,1.713-7.386,5.254-8.624,9.754l-1.832,4.957,1.281,2.401c1.439,3.713,3.548,6.552,6.449,8.68,10.069,7.386,24.003,5.26,34.808,1.67-4.073,3.188-8.026,5.866-11.734,8.303-8.094,5.319-18.28,5.786-26.582,1.218-4.369-2.404-7.542-6.229-9.178-11.061-.786-2.322-2.03-4.349-3.797-6.183,2.79-3.136,6.642-9.569,4.378-12.505l-.399-.518-.395.521c-.861,1.135-1.439,2.121-1.996,3.403-1.76,4.055-3.662,6.783-6.36,9.119l-.537.465.619.348c2.236,1.258,3.655,3.121,4.595,6.019,2.235,8.306,9.103,14.117,19.388,16.438-2.504,2.187-5.601,3.385-8.793,3.354-3.357-.019-6.549-1.392-8.99-3.869-2.309-2.324-4.098-5.148-5.315-8.396-1.933-5.153-5.234-9.035-9.816-11.546,4.785-5.071,8.222-11.237,10.495-18.825,1.651-5.512,4.885-11.734,10.912-10.073l.785.216-.162-.798ZM173.978,69.476c3.276-.461,6.387.346,8.997,2.333,3.272,2.492,5.497,6.588,6.102,11.239.635,4.882.891,10.125.771,15.919-.635-3.329-1.426-6.709-2.68-10.087-3.786-10.367-10.516-15.175-20.568-14.676-1.973-6.691-7.007-11.797-13.842-14.033l-4.135-1.649-.231.288c-1.178,1.465-2.277,2.763-3.812,3.827-4.282,2.967-7.708,7.044-9.908,11.791-3.898,8.412-1.646,15.638,1.314,23.097-5.845-5.669-11.62-8.908-19.613-7.208-.973.208-2.206.014-3.066-.482-3.305-1.903-7.145-1.246-10.022,1.714-1.529,1.574-2.771,2.715-4.82,3.062l-.621.105.243.581c.916,2.188,1.276,4.064,1.166,6.083-.283,5.204.645,10.586,2.919,16.938l.101.281c1.093,3.054,2.125,5.939,3.988,8.616l5.286,7.6-9.374-6.111c-3.474-2.265-6.43-5.763-9.038-10.694-4.965-9.39-6.86-19.974-5.485-30.622,2.254-1.399,4.387-2.739,6.445-4.573,4.262-3.8,9.379-5.603,14.797-5.21,1.656.119,2.942.807,4.579,1.765l.637.372.552-3.658.813-4.123c3.675-.422,6.911,1.333,8.707,4.742l2.731,5.188c.605,1.149,1.292.954,1.487.866,1.192-.532,1.027-3.595-.401-7.448-1.166-3.144-.961-6.204.617-9.341,2.417-4.409,6.194-8.104,11.545-11.297,4.097-2.444,7.221-5.26,9.775-8.821,3.67,5.167,8.027,9.159,13.662,12.522l1.052.622c4.31,2.54,9.194,5.418,8.764,9.942l-.06.631.627-.088ZM209.897,68.858c-.226-4.515,3.562-6.758,8.359-9.598,3.295-1.951,7.03-4.162,10.386-7.611l4.539-5.773c2.268,3.276,5.131,5.923,8.959,8.291,6.62,4.095,12.896,8.875,13.987,16.062.334,2.201-.242,4.167-.851,6.248-.531,1.813-1.081,3.688-.944,5.69l.033.476.477-.01c.514-.011,1.279-.481,1.462-.899,2.449-5.581,4.565-10.414,11.494-9.76l.561,2.669.919,5.111.629-.402c1.239-.792,2.717-1.617,4.288-1.733,5.479-.409,10.607,1.379,14.827,5.162,2.519,2.257,5.293,3.876,8.254,4.818l-1.45,9.402c-.584,8.72-2.926,16.485-6.96,23.08-2.574,4.208-5.133,7.016-8.052,8.837l-9.255,5.774,4.324-6.536c2.375-3.59,4.299-7.688,6.057-12.896,1.537-4.554,2.172-9.195,1.941-14.188-.085-1.856.25-3.53,1.121-5.597l.197-.468-.471-.189c-2.042-.822-3.537-1.813-4.844-3.212-1.733-1.854-4.04-2.848-6.279-2.848-1.169,0-2.321.271-3.364.832-1.319.709-2.476.911-3.751.655-8.106-1.63-14.152,2.312-19.394,7.309,1.396-3.51,2.687-7.159,3.2-11.145,1.094-8.481-2.613-16.814-9.674-21.746-2.31-1.613-4.146-3.563-5.614-5.961l-.231-.378-6.297,2.886c-6.125,2.807-10.319,7.448-11.855,13.101-9.138-.911-16.394,4.327-20.465,14.797-1.26,3.312-2.008,6.597-2.696,10.009l-.043-8.247c-.017-3.246.331-6.371,1.062-9.555,1.465-6.379,6.742-12.838,14.862-11.931l.584.064-.029-.586ZM311.546,176.368c.144,2.805-.493,4.848-2.004,6.429-5.869,6.14-14.327,7.336-22.238,7.604,2.684-1.14,5.197-2.392,7.367-4.279,5.905-5.138,7.973-11.031,5.863-16.649,5.03-2.112,8.426-6.352,9.332-11.629l.983-2.801c.163-.462-.128-.994-.435-1.556-.102-.185-.201-.365-.263-.516h0c-2.137-5.239-5.598-9.085-10.286-11.431-8.264-4.136-18.615-4.133-31.573.024,3.811-2.96,7.369-5.446,11.039-7.718,10.295-6.372,22.04-6.089,30.65.735,3.213,2.547,4.424,5.477,5.595,8.31.978,2.367,1.988,4.81,4.156,6.858-2.431,3.192-4.014,6.746-4.707,10.57l-.019.104.272,1.136c.046.191.172.349.355.441.489.249,1.208-.045,1.238-.058l.182-.076,2.475-5.469c1.066-2.357,2.587-4.39,5.086-6.795l.496-.477-.607-.324c-2.38-1.27-3.902-3.202-4.525-5.742-2.022-8.242-8.45-13.916-18.618-16.456,3.577-2.592,7.672-3.639,11.635-2.953,3.406.59,6.414,2.802,8.477,6.239,1.012,1.597,1.49,3.328,1.997,5.161.23.832.467,1.691.76,2.544,1.472,4.293,5.281,7.068,8.862,9.314-2.95,3.549-6.148,7.714-7.823,12.548l-2.729,7.876c-1.115,3.218-4.354,10.491-10.337,8.535l-.692-.226.037.727ZM312.079,207.713c2.8-.474,4.762.009,6.174,1.518,2.07,2.213,3.606,5.052,4.695,8.68,2.257,7.521,5.552,13.501,10.346,18.761-4.497,2.491-7.716,6.298-9.829,11.617-1.116,2.81-2.607,5.309-4.545,7.625-5.187,5.669-12.376,6.118-18.538,1.253,10.244-2.392,17.07-8.108,19.272-16.175.81-2.966,2.375-5.037,4.786-6.332l.611-.328-.505-.476c-2.089-1.969-3.619-3.661-4.788-6.005l-2.786-5.587c-.122-.243-.585-.737-.979-.816l-.33-.033-.185.16c-.331.286-.516.732-.552,1.327-.151,2.516,2.578,8.145,4.876,10.904-1.952,1.859-3.164,3.72-3.8,5.823-1.736,5.744-5.784,10.104-11.707,12.612-8.429,3.568-18.008,2.363-25.624-3.222l-9.902-7.263c9.971,3.268,22.765,5.275,32.576-.668,3.926-2.379,6.67-5.599,8.125-9.506l1.544-2.848-1.603-4.274c-1.279-4.798-4.433-8.463-8.907-10.371,1.661-4.304.627-9.069-2.939-13.48-2.504-3.096-5.716-5.364-10.227-7.18,9.526-.109,17.54,2.552,22.242,7.449,1.558,1.622,2.185,3.681,1.917,6.293l-.067.654.648-.11ZM322.712,299.065c-1.428.033-2.609-.39-4.155-1.129l-.459-.219-.211.462c-2.441,5.339-.821,13.855,3.509,19.191-10.563-.562-20.072-7.521-22.871-16.891-.888-2.97-.959-7.161-.207-12.126,1.106-1.408,3.491-1.669,5.216-1.189,1.597.444,3.046,1.806,3.78,3.555.88,2.097.592,4.288.313,6.407-.382,2.899-.776,5.897,2.157,8.142l.851.651-.047-1.07c-.105-2.352-.155-4.854.475-7.325.96-3.77.49-7.244-1.361-10.045-2.544-3.853-7.048-5.139-11.614-3.375-.83-8.713-3.627-16.713-8.325-23.817,3.541,1.968,6.244,5.078,8.049,9.269,1.287,2.988,3.634,5.233,6.975,6.674,3.444,1.485,6.014,3.794,7.665,6.906l2.675,4.022.082-1.504c.187-3.463-1.354-6.606-4.707-9.585,3.538-.956,6.21-3.168,7.651-6.336,3.895,4.749,4.958,10.524,3.453,18.588-.721,3.86-.359,7.384,1.107,10.746ZM255.159,299.734c-.749,2.03-.293,3.82.189,5.714.556,2.181,1.13,4.436-.102,7.373-1.295,3.088-3.474,5.441-6.294,7.982l-7.952,5.412c-3.151,2.144-5.552,4.578-7.507,7.617-2.549-3.335-5.86-6.281-10.358-9.225l-8.69-5.686c-1.982-1.297-3.583-3.419-4.265-5.614l-.604-3.531-.473.057c-7.548.909-12.078-4.696-13.802-10.243-.862-2.772-1.143-5.699-1.376-8.704-.279-3.583-.586-7.542-.243-11.649,1.254,6.089,3.686,11.43,7.251,15.911,4.578,5.754,10.154,9.171,15.738,9.656,1.989,6.323,5.999,10.318,13.343,13.319,1.54.629,2.769,1.5,4.37,2.791l.489.394.274-.565c1.436-2.954,3.305-5.193,5.715-6.846,3.28-2.249,5.477-4.51,6.912-7.115,3.031-5.503,3.621-11.933,1.713-18.556l-.613-2.989,2.089,1.571c4.355,3.275,9.547,4.555,15.016,3.701.92-.143,1.999.125,3.205.797,3.289,1.833,7.429,1.386,10.547-1.142,1.288-1.043,2.667-1.674,4.472-2.046l.546-.112-.17-.53c-.771-2.394-1.069-4.429-.939-6.403.808-12.268-6.271-24.339-13.235-33.936l10.996,7.834c9.171,9.625,13.846,22.427,13.162,36.063l-.11,6.361c-2.281.642-4.376,1.606-6.08,2.8-5.403,3.787-13.622,5.808-18.875,2.345l-.631-.416-.901,4.935-.613,2.835c-3.995.486-7.679-1.82-9.452-5.956l-2.307-5.384-.435,1.177ZM127.886,299.723l-.414-1.202-2.763,6.226c-1.611,3.632-5.097,5.592-9.15,5.178l-.889-4.23-.612-3.563-.643.438c-1.579,1.076-3.076,1.599-4.854,1.693-5.16.275-10.08-1.254-14.624-4.544-1.554-1.125-3.409-1.823-5.21-2.396l-.198-7.417c-.346-12.972,4.314-25.369,13.123-34.914l11.098-7.865-5.741,8.562c-2.808,4.188-4.524,8.78-5.706,12.312-1.529,4.569-2.144,8.846-1.881,13.074.124,1.984-.161,4.021-.896,6.409l-.167.546.562.095c1.68.281,2.998.861,4.272,1.878,2.542,2.028,6.575,3.493,10.266,1.523,1.303-.695,2.329-1.173,3.675-1,7.621.984,12.525-1.453,17.491-5.874-2.364,6.975-3.881,15.546,1.406,23.378,1.593,2.359,3.557,3.903,5.456,5.396,2.457,1.932,4.778,3.756,6.24,7.214l.256.604.515-.407c1.621-1.281,3.078-2.276,4.922-2.969,6.027-2.267,10.576-6.969,12.527-12.931,4.278-.395,8.279-2.188,11.897-5.336,5.77-5.02,9.761-11.755,11.47-19.252l-2.061,19.017c-.338,3.119-2.292,6.329-5.1,8.378-2.55,1.86-5.467,2.575-8.215,2.012l-.589-.121-.011.601c-.103,5.377-4.333,8.713-8.888,11.519l-3.753,2.31c-3.389,2.086-7.7,5.052-11.331,9.643-2.385-3.532-5.724-6.551-10.449-9.456-4.011-2.467-6.918-4.948-9.135-7.791-1.541-2.192-3.244-5.137-2.735-8.468.119-.781.336-1.563.546-2.32.513-1.851,1.044-3.764.291-5.948ZM75.041,285.399c-3.171,2.643-4.52,6.891-3.605,11.375.587,2.569.789,4.722.719,7.638l-.021.431.38.128c.403.137,1.264-.272,1.479-.628,1.6-2.65,1.312-5.145,1.034-7.557-.281-2.438-.547-4.742,1.062-7.211.956-1.468,2.406-2.392,4.083-2.603,1.622-.204,3.27.311,4.55,1.416l.265,3.647c.42,5.784-.782,10.416-3.782,14.576-4.643,6.439-11.89,10.333-20.017,10.8,4.425-5.407,6.005-13.459,3.651-19.212l-.21-.513-.489.261c-1.619.867-2.901,1.212-4.25,1.124,1.639-3.244,2.016-6.934,1.157-11.249-1.058-5.313-.705-9.864,1.077-13.904.779-1.697,1.684-3.078,2.753-4.198,1.411,3.236,4.067,5.446,7.599,6.328-3.016,2.666-4.628,5.545-4.922,8.777l-.005.058.008.057c.077.544.247.875.505.981l.293.105.906-.683.053-.119c1.916-4.344,5.154-7.526,9.394-9.215,3.128-1.461,5.39-3.677,6.721-6.588,1.908-4.17,4.579-7.241,7.956-9.154-4.519,6.707-7.099,13.955-8.489,23.743-3.626-1.267-7.272-.764-9.856,1.39ZM181.833,109.98c.375.773.756,1.482,1.122,2.161.792,1.472,1.477,2.743,1.855,4.222.776,3.027.241,6.056-1.506,8.528-2.357,3.334-3.323,6.44-3.102,10.008l-5.185.981-2.26-9.956c-2.046-9.014-4.056-17.128-7.945-25.155l-.868-1.792-.082,1.989c-.116,2.813.559,5.424,1.21,7.948.288,1.115.585,2.267.81,3.419,1.581,8.113,3.195,16.784,4.067,25.799-1.223.682-2.51,1.019-3.679.973-3.875-6.891-7.244-12.625-12.029-18.238l-.608-.713-.254.902c-.452,1.605.277,2.982.92,4.196.162.306.323.609.464.914l7.381,15.936c-.785.634-1.652,1.094-2.801,1.488l-14.467-12.622-9.438-8.01-1.316.207c-.235.037-.42.207-.482.444-.12.454.272,1.217.476,1.375l9.196,9.327,11.73,12.578c-1.166,1.345-2.01,2.644-2.75,4.243-2.272-3.973-6.224-6.344-10.529-6.344-.461,0-.928.027-1.396.083-2.811.333-5.405-.246-7.932-1.77-2.551-1.539-4.192-3.675-6.094-6.149-.389-.506-.79-1.027-1.212-1.562l-.749-.948-1.111,9.495c-7.668-8.13-13.739-17.43-18.052-27.656-1.853-4.394-2.652-9.112-2.515-14.849.033-1.371-.126-2.866-.486-4.561,1.045-.698,2.196-1.524,3.14-2.561,1.497-1.643,3.967-2.778,6.112-1.61,1.427.778,3.177,1.515,5.331,1.078,9.674-1.955,15.25,4.172,21.153,10.66l.355.391c.94,1.032,1.829,2.074,2.72,3.118,1.728,2.024,3.515,4.117,5.671,6.125l1.541,1.435-.731-1.974c-1.081-2.915-2.487-5.492-3.847-7.984-.82-1.503-1.669-3.058-2.429-4.659-6.956-14.651-8.234-24.605,4.95-35.264l3.176-3.187c5.459,1.999,8.08,3.178,11.552,8.206,2.004,2.902,2.435,5.914,2.463,9.542l.01,1.219.849-.875c1.924-1.981,3.145-2.833,5.291-2.656,13.514,1.124,17.051,17.711,18.728,33.789.121,1.159-.027,2.304-.228,3.217-1.214-2.576-2.656-4.988-5.642-5.608l-.994-.207.442.914ZM198.649,115.279l3.183-6.176-1.003.187c-3.016.56-4.636,3.086-5.609,5.454-.196-1.043-.31-2.269-.175-3.529,1.662-15.499,5.088-31.574,17.899-33.29,2.412-.323,4.022.357,5.939,2.51l.893,1.003-.02-1.343c-.108-7.442,3.256-12.637,10.285-15.88l3.793-1.75c1.531,2.306,3.667,4.079,5.385,5.382,6.008,4.557,8.843,11.696,7.583,19.099-.896,5.268-3,9.879-5.077,14.15-.72,1.48-1.501,2.93-2.257,4.332-1.366,2.538-2.78,5.161-3.914,8.108l-.792,2.055,1.602-1.512c2.292-2.164,4.49-4.715,6.617-7.183,6.41-7.437,13.037-15.126,23.075-13.173,2.284.445,4.089-.263,5.553-1.014,2.105-1.08,4.578-.015,5.985,1.431.92.946,1.977,1.786,3.397,2.695-.266,1.244-.579,2.837-.534,4.258.188,5.999-.914,11.632-3.37,17.221-2.464,5.607-5.706,11.065-10.512,17.696-1.872,2.583-3.932,5.309-6.771,7.929l-.48-7.473c-.018-.278-.171-.822-.224-.989-.075-.233-.278-.393-.543-.426-.417-.049-1.171.239-1.425.642-2.699,4.285-9.026,9.854-13.199,9.191-5.502-.873-10.472,1.536-12.949,6.189-.757-1.547-1.597-2.843-2.736-4.233,3.21-4.016,6.924-8.037,11.987-12.983.947-.925,1.9-1.813,2.852-2.701,2.267-2.114,4.61-4.299,6.806-6.942l1.392-1.675-1.982.9c-3.222,1.463-5.8,3.637-8.293,5.74-.625.527-1.251,1.056-1.891,1.577l-15.549,12.658c-1.049-.257-1.95-.855-2.741-1.819l4.914-9.742,4.424-9.025c.2-.408-.023-.961-.128-1.18-.123-.254-.391-.694-.813-.788l-.296-.065-4.639,5.536-7.999,12.398c-1.159.111-2.274-.115-3.552-.719.536-5.83,1.157-12.402,2.657-18.862l4.73-20.368-1.396,1.795c-2.044,2.629-3.023,5.548-3.97,8.371-.216.644-.432,1.29-.662,1.936-2.692,7.573-4.74,15.474-6.431,24.828l-5.011-.649c.663-3.135-.19-6.641-2.334-9.493-1.756-2.336-3.469-6.023-1.672-10.287ZM114.171,191.917l.573-.651-5.385-1.073c-.975-.195-1.944-.369-2.909-.542-3.331-.599-6.477-1.165-9.558-2.479-4.977-2.124-8.742-5.728-10.604-10.148-1.486-3.53-.684-6.624,2.452-9.456l.878-.793-1.18-.077c-5.903-.388-9.953-3.412-11.402-8.516l-.949-3.344c1.077-2.603,2.329-5.294,4.566-7.301,10.109-9.069,29.511-6.059,42.746,1.395.568,3.451,1.512,6.944,4.339,9.313.84.704,1.026,1.14,1.341,2.204,1.273,4.291,5.153,7.53,10.447,8.763-1.347,2.325-2.164,4.475-2.651,6.981l-18.017-7.441c-2.89-1.194-5.757-2.264-8.995-2.226l-2.034.023,19.391,9.871,8.669,4.8c-.174,1.31-.457,2.527-.941,4.048-1.561-.015-3.11-.084-4.623-.167-3.458-.188-7.033-.382-10.851.394l-1.65.335,1.566.62c3.258,1.288,6.357,1.86,9.638,2.466,1.509.278,3.067.566,4.642.93.623,1.355,1.112,2.879,1.49,4.641-1.804.649-3.605,1.235-5.351,1.802-3.344,1.087-6.802,2.21-10.236,3.782l-1.756.803,1.925.15c3.412.266,6.591-.219,9.667-.688,1.895-.289,3.84-.586,5.847-.708-3.827,2.694-7.712,5.128-11.482,7.491-2.005,1.256-4.009,2.512-6.007,3.806l-10.192,6.603,2.863-.696c4.844-1.179,8.873-3.172,12.504-5.15l13.982-7.617c.657,2.438,1.648,4.486,3.212,6.639-6.399,1.605-10.436,5.561-11.419,11.212-4.049,3.302-5.013,7.794-5.607,12.145-11.77,7.354-33.779,11.303-43.261,1.073-1.415-1.527-2.581-3.722-3.466-6.526l1.083-3.23c1.782-5.314,5.635-8.316,11.144-8.681l1.184-.079-.883-.792c-2.815-2.526-3.685-4.515-3.105-7.093,1.939-8.612,10.732-12.147,14.423-13.267,3.445-1.045,6.827-1.535,10.891-2.065,1.155-.15,2.05-.345,3.05-1.481ZM269.154,191.626l-.589.495.691.337c1.012.493,1.685.721,2.668.902l10.256,1.894c6.167,1.139,13.764,6.761,15.246,13.316.608,2.691-.286,4.791-3.086,7.249l-.89.781,1.18.094c6.284.499,10.522,4.148,11.934,10.276.043.19.087.363.127.524.207.821.302,1.196-.033,2.044-1.662,4.209-4.206,7.157-7.78,9.012-10.598,5.5-27.288,2.133-38.296-4.037-.591-.331-.893-.862-.951-1.67-.312-4.333-1.89-7.879-4.564-10.254-.617-.549-.688-.82-.949-1.832l-.064-.247c-1.303-4.979-5.682-8.73-11.273-9.735,1.684-2.4,2.768-4.581,3.363-6.764l19.599,10.327c2.099,1.106,4.227,2.119,7.186,2.366l1.946.163-1.628-1.078c-3.26-2.158-6.653-4.217-9.934-6.208-5.063-3.072-10.284-6.241-15.351-9.96,2.671.302,5.223.781,7.705,1.248,2.043.384,4.157.781,6.289,1.069l.111.015,1.156-.368c.208-.066.362-.234.412-.448.142-.613-.672-1.452-.681-1.46l-15.042-5.329,1.417-4.457,13.606-2.772.688-.707.194-.244-.039-.247c-.019-.117-.067-.426-.832-.831l-.113-.061-14.649.224c-.574-1.278-.914-2.636-1.011-4.046l20.537-10.724c.565-.295,1.133-.558,1.696-.818,1.451-.672,2.95-1.367,4.307-2.58l1.34-1.198-1.767.334c-5.332,1.008-9.949,2.715-15.671,5.143l-11.38,4.828c-.509-2.555-1.326-4.713-2.653-7.005,4.845-.972,10.061-4.663,10.831-10.007,1.684-1.304,3.767-3.491,4.503-6.683l.811-3.515c10.764-6.042,26.71-9.752,38.27-4.476,3.862,1.763,6.675,4.747,8.597,9.121.411.935.491,1.389.198,2.408-.873,3.027-1.701,5.497-3.729,7.436-2.221,2.125-4.655,2.561-6.266,2.85-.868.156-1.495.269-1.91.576-.089.066-.24.22-.243.506-.004.407.329,1.028.594,1.232,1.37,1.056,2.146,2.479,2.307,4.232.25,2.727-1.09,6.089-3.5,8.775-5.333,5.946-12.64,7.812-21.971,8.786-1.108.115-1.902.34-2.921,1.196ZM179.637,189.774c.239-3.284,1.787-6.285,4.357-8.452,2.246-1.893,4.96-2.82,7.664-2.82,3.329,0,6.642,1.405,9.048,4.144,4.309,4.904,3.907,12.297-.916,16.831-2.352,2.211-5.411,3.349-8.618,3.203-3.257-.148-6.369-1.638-8.538-4.085-2.17-2.449-3.235-5.582-2.999-8.821ZM136.428,221.988c-.708-1.748-2.241-1.777-3.593-1.802-.003,0-.006,0-.01,0,1.927-4.072,6.574-6.545,11.112-5.817,4.366.702,7.739.158,10.946-1.771l10.763-6.882,1.07.068c.049.15.079.405.06.538l-10.989,8.193c-2.533,1.889-4.482,4.733-5.349,7.805-.15.533-.284,1.062-.417,1.585-.393,1.551-.764,3.016-1.508,4.367-1.784,3.236-5.078,4.915-8.595,4.383-5.812-.881-10.308,2.646-13.355,5.777-.364-5.657.598-10.006,2.8-12.62,1.564-1.856,3.798-2.912,6.639-3.137l.68-.054-.256-.632ZM169.701,203.403l7.827-4.962c.025.036.05.075.072.112l-6.782,4.898c-.36.26-.636.414-.806.492-.063-.083-.166-.243-.311-.541ZM176.433,195.537l-8.285,5.138c-3.542-7.256-3.205-15.254.931-22.102l8.143,5.402c-1.685,3.698-1.937,7.394-.789,11.562ZM154.203,168.597l11.441,7.622c-4.583,8.84-4.92,17.105-1.09,26.681l-7.232,4.491-5.931,3.124c-2.171,1.143-4.797.63-7.026-1.373-2.373-2.132-3.823-5.13-4.083-8.444-.353-4.491-1.198-7.98-2.735-11.27,1.803-3.567,2.803-7.337,3.055-11.515.17-2.817,1.278-5.521,3.197-7.812,2.74-3.141,7.019-3.76,10.405-1.504ZM167.356,173.415l-11.642-7.911c-2.271-1.24-4.558-1.859-6.756-1.859-2.21,0-4.331.626-6.256,1.878-4.229.495-8.102-1.456-9.888-4.917,1.457-.1,2.985-.347,3.594-2.053l.247-.69-.732.022c-4.302.123-7.533-2.218-8.641-6.273-.718-2.629-.924-5.551-.636-9.123,2.863,3.039,5.964,4.942,9.449,5.807,1.29.319,2.673.21,4.012.106l.777-.058c3.913-.261,7.323,2.069,8.477,5.79,1.238,3.994,3.141,6.847,6.172,9.251l11.714,9.296c.155.123.328.367.387.499-.062.08-.186.184-.278.237ZM165.945,236.717c-1.19-2.263-2.716-3.743-4.657-4.521-3.439-1.378-5.832-4.567-6.242-8.248.211-5.44,5.254-9.127,10.131-12.692,1.112-.813,2.17-1.586,3.172-2.379,5.14,6.205,12.009,10.006,19.918,11.02.21,1.69.25,3.376.122,5.141l-.544,7.5c-.269,3.695-2.746,7.023-6.026,8.095-2.414.789-5.457.143-8.349-1.772-2.596-1.719-4.932-2.387-7.525-2.143ZM171.651,206.328l7.551-5.708c2.794,3.192,5.87,4.993,9.613,5.628l-.546,9.616c-6.483-.64-12.492-4.087-16.619-9.536ZM170.833,175.816l.284-.249c.665.544,1.335,1.041,1.987,1.522,1.211.896,2.376,1.758,3.441,2.87-2.272-1.228-5.04-3.362-5.711-4.144ZM180.37,179.327l-7.24-6.151,5.076-4.246c3.433-2.185,6.661-3.337,10.115-3.606l.477,9.549c-3.266.687-5.964,2.112-8.428,4.455ZM205.598,180.827l6.587-5.469.369.516-6.956,4.953ZM214.406,204.692l-8.633-6.157c-.039-.028-.115-.109-.17-.178v-.005c.09.019.176.043.21.06l8.053,5.284c.129.442.314.761.539.997ZM230.141,209.98l-11.367-6.954c4.142-9.61,3.82-17.989-1.038-27.047l11.345-7.474c3.42-2.252,7.584-1.543,10.372,1.778,1.913,2.143,3.055,5.148,3.302,8.692.261,3.732,1.167,7,2.846,10.264-1.466,3.5-2.34,7.169-2.747,11.522-.29,3.093-1.417,5.718-3.352,7.803-2.646,2.72-6.32,3.275-9.361,1.415ZM215.271,200.72l-8.468-5.06c1.062-4.176.858-8.043-.622-11.795l7.985-5.411c4.338,6.875,4.774,15.694,1.104,22.266ZM214.883,205.056c.365.201.782.3,1.21.401.634.15,1.352.321,2.172.838l10.537,6.635c2.627,1.654,5.943,2.164,9.59,1.472,4.948-.937,9.85,1.482,11.947,5.797-1.467.018-2.961.079-3.698,1.787l-.274.636.689.06c2.914.255,5.189,1.352,6.764,3.26,2.168,2.628,3.08,6.922,2.656,12.462-3.131-3.162-6.521-5.828-11.76-5.828-.592,0-1.209.034-1.851.105-5.711.633-8.745-3.826-9.68-8.212-.896-4.2-3.017-7.618-6.303-10.158l-10.068-7.781-1.932-1.474ZM255.833,151.633c-1.157,4.092-4.389,6.442-8.645,6.283l-.774-.029.292.718c.701,1.718,2.225,1.985,3.652,2.017-2.095,3.702-6.311,5.665-10.335,4.729-3.107-1.98-6.933-2.227-10.854-.655l-5.487,3.279-7.606,5.324-.375-.321c.064-.147.208-.363.303-.439l11.816-9.533c2.602-2.1,4.41-4.83,5.863-8.852,1.479-4.094,5.083-6.335,9.194-5.709,5.855.739,10.785-2.967,13.589-5.751.219,3.298.158,6.137-.634,8.94ZM203.845,200.755l7.925,5.857c-4.283,5.363-10.195,8.659-16.748,9.335l-.568-9.678c3.904-.765,6.908-2.529,9.391-5.514ZM210.386,172.982l-7.442,6.375c-2.603-2.478-5.25-3.87-8.479-4.459l.6-9.585c5.982.706,11.133,3.284,15.321,7.669ZM194.929,219.945c8.038-1.044,14.759-4.717,19.989-10.926l9.9,7.817c3.011,2.587,4.031,5.996,2.8,9.348-1.052,2.808-3.17,5.009-5.965,6.196-1.998.849-3.43,2.251-4.369,4.279-2.568-.235-5.018.481-7.479,2.184-2.446,1.692-5.274,2.371-8.173,1.964-3.04-.468-5.196-2.664-5.768-5.875-.834-4.685-.983-9.397-.936-14.988ZM163.763,299.484l-.717-.594-.1.925c-.715,6.646-4.479,12.137-9.861,14.347l-4.178,2.131c-1.612-2.507-3.353-4.355-5.311-5.639-7.692-5.045-9.792-14.543-5.619-25.408l6.476-16.856-1.659,1.652c-1.469,1.463-2.578,2.995-3.651,4.478-.627.867-1.277,1.765-1.986,2.628-2.145,2.611-4.531,5.303-7.451,7.296-4.592,3.135-8.678,2.907-11.662,2.741-1.902-.105-3.405-.189-4.531.534-2.475,1.591-4.861,1.617-7.512.083l-3.548-2.055.405-6.013c-.082-5.203,1.181-10.485,3.858-16.148,4.102-8.675,9.495-16.719,16.466-24.555l.456,5.699c.028.353.399.875.735,1.035.21.101.432.088.609-.033l.766-.524.058-.125c1.548-3.337,3.916-5.867,7.063-7.533,2.013-1.215,4.271-1.628,6.903-1.262,5.299.736,10.361-2.27,12.614-7.382l2.279,3.339c-3.527,4.562-7.458,8.815-11.261,12.932l-.546.59c-.757.82-1.521,1.609-2.281,2.394-2.035,2.103-4.139,4.277-5.97,6.929l-1.402,2.03,2.082-1.324c5.29-3.365,9.591-7.312,14.146-11.489l9.507-8.715c1.104.466,2.018,1.068,2.964,1.952l-10.294,19.3c-.248.463-.061,1.471.248,1.778l.26.196.241-.03c1.699-.211,11.87-16.104,13.093-18.031,1.4-.268,2.671-.104,3.786.487l-3.446,15.382c-.446,1.99-.967,3.974-1.471,5.893-1.056,4.02-2.148,8.175-2.623,12.66l-.302,2.857,1.25-2.587c3.489-7.226,5.934-14.49,8.056-21.264l3.322-10.605,4.609,1.146c-1.3,3.12-1.178,6.723.385,9.804l3.606,5.279c.828,1.212,2.071,3.602,1.085,5.979-.637,1.536-1.796,1.488-2.916,1.443-.848-.033-2.01-.082-2.18,1.144-.1.724.677,1.589,1.277,1.891,2.236,1.124,4.531.643,6.995-1.477.735,8.138-1.455,16.106-6.217,22.539-2.756,3.723-6.708,6.741-12.083,9.227-1.59.736-3.033.416-4.826-1.069ZM297.865,125.908c-2.589-.091-4.978-.009-7.381.258l2.584-2.132c3.068-2.531,5.915-4.333,8.959-5.669,4.474-1.965,7.637-5.525,9.148-10.295,1.444-4.561,1.591-8.969.436-13.103l-1.764-6.315-.58,1.157c-.442.882-.771,1.703-1.088,2.497-.543,1.358-1.012,2.531-1.884,3.575-1.753,2.1-3.772,3.057-5.999,2.852-.479-1.084-.378-2.302-.272-3.586l.017-.2c.993-12.129,10.24-21.457,22.179-22.571-6.304,8.457-5.505,17.489-3.906,27.518.764,5.763,1.092,11.748-1.662,16.468-.944,1.62-2.493,3.262-3.815,3.226-5.923-.088-11.1,2.098-14.972,6.321ZM308.619,98.481c.413,2.911.149,5.736-.811,8.792-1.296,3.718-3.813,6.523-7.261,8.102-2.675,1.092-4.95,2.558-7.385,4.254,2.646-5.138,4.354-9.848,5.34-14.695.229-1.431,1.189-2.354,2.505-2.407,2.802-.115,5.3-1.44,7.611-4.046ZM217.013,143.623c.938,1.098,2.002,2.343,3.372,2.873,3.386,1.308,5.595,3.255,6.752,5.953,1.411,3.287.483,6.491-2.612,9.021l-10.955,8.957c-5.12-5.173-11.415-8.255-18.722-9.168.05-5.101.119-10.365.799-15.602.405-3.118,2.02-5.349,4.518-6.27,3.146-.942,6.59-.363,9.698,1.633,2.358,1.516,4.537,2.267,6.819,2.217.109.126.219.254.33.385ZM187.609,146.087c.703,5.086.748,10.171.772,15.098-7.171,1.122-13.137,4.033-17.74,8.656-.285.286-1.056.446-1.344.205l-10.384-8.651c-2.417-2.014-3.427-4.925-2.845-8.199.452-2.542,2.747-5.036,5.58-6.066,1.72-.625,3.278-1.894,4.758-3.875,2.851-.168,5.066-.854,6.955-2.152,3.185-2.188,6.875-2.718,9.872-1.42,2.291.992,3.968,3.447,4.377,6.406ZM83.677,115.768c-3.971-1.428-6.921-4.476-8.304-8.572-.916-2.893-1.187-5.753-.82-8.708,1.903,2.372,4.534,3.789,7.522,4.026,1.214.096,2.155.911,2.508,2.135,1.074,5.56,3.143,10.482,5.188,14.683-2.203-1.481-4.086-2.58-6.095-3.564ZM83.141,97.596c-.009.33-.199.825-.309.938-.229.233-.709.319-1.316.237-1.702-.231-4.094-1.679-5.373-3.996-.513-.93-.875-1.88-1.292-2.98-.234-.616-.48-1.262-.77-1.949l-.459-1.086-.461,1.085c-3.228,7.592-3.61,18.269,2.812,25.007,1.82,1.91,4.144,3.057,6.604,4.27,2.422,1.195,4.926,2.431,7.042,4.508l2.946,2.465c-1.857-.147-3.673-.219-5.552-.219-.495,0-.995.005-1.5.015-4.132-4.375-9.433-6.543-15.353-6.276-5.31-2.278-6.34-10.43-5.603-16.744.137-1.057.278-2.094.418-3.113,1.348-9.856,2.519-18.412-3.97-27.366,12.844,1.293,22.488,12.159,22.138,25.206ZM203.584,269.946c.389-.25.835-1.013.854-1.456.008-.2-.065-.504-.461-.821-.273-.219-.866-.554-1.359-.422-1.389.372-2.78-.473-3.309-2.006-.705-2.044.171-3.988,1.031-5.258l3.863-5.721c1.509-3.113,1.571-6.549.194-9.531,1.579-.292,3.069-.62,4.666-1.222l.623,2.016c3.049,9.879,6.203,20.096,10.806,30.052l1.263,2.732-.312-2.994c-.432-4.145-1.439-8.043-2.414-11.814-.433-1.674-.88-3.405-1.271-5.134l-3.879-17.168c1.132-.547,2.446-.722,3.755-.498l6.21,9.485c2.292,3.5,4.354,6.167,6.688,8.648l.782.832.081-1.14c.137-1.934-.747-3.425-1.602-4.867-.22-.372-.441-.743-.642-1.122l-7.978-15.009c.933-.858,1.923-1.508,3.073-2.018,7.641,7.395,14.319,13.333,20.996,18.67.812.648,1.61,1.145,2.869,1.457l1.611.399-7.931-8.641-13.47-15.237,2.302-3.691c2.361,5.452,6.995,8.497,12.028,7.81,3.531-.48,6.7.377,9.689,2.623,1.774,1.333,2.969,2.998,4.352,4.926.479.667.976,1.36,1.521,2.074l.762.996.849-7.991c7.547,8.571,13.191,17.143,17.238,26.172,2.387,5.326,3.415,10.649,3.144,16.274-.07,1.447.192,3.066.402,4.367l.004.022-3.136,1.842c-2.943,1.729-5.453,1.771-7.898.135-1.082-.724-2.62-.644-4.567-.544-3.292.17-7.799.402-12.549-3.376-3.573-2.842-6.421-6.402-8.737-9.511-.262-.351-.504-.698-.743-1.041-.795-1.139-1.546-2.213-2.812-3.232l-1.456-1.172,5.934,15.288c1.832,4.72,2.616,8.488,2.541,12.214-.115,5.68-2.616,10.617-6.862,13.546-2.898,1.998-4.917,4.06-6.315,6.456l-4.129-2.123c-7.175-3.69-10.071-7.939-9.998-14.666l.013-1.183-.857.814c-1.56,1.481-2.61,2.076-4.361,1.451-11.061-3.954-18.057-14.866-18.715-29.19-.04-.874.057-1.805.296-2.826,2.025,2.309,4.919,2.872,7.323,1.323ZM191.39,164.81c.129-.194.216-.39.271-.585.043.124.102.249.176.373l.014.553c.064,2.458.126,4.813-.219,7.295-.376-2.604-.337-5.107-.243-7.635ZM86.292,257.743l6.275-.5c-4.195,2.423-7.566,6.171-10.256,11.388-1.449,2.81-4.361,4.597-7.236,4.434-3.343-.183-6.091-2.224-7-5.199-.412-1.346-.44-3.218.766-4.217,6.515,1.576,12.071-.303,17.452-5.906ZM181.545,251.516c-.724-2.997.433-6.062,2.813-7.455.288-.169.585-.333.886-.498,1.458-.801,3.11-1.709,3.933-3.39,1.198-2.448,1.813-5.373,1.935-9.203l.379-11.92c.028-.77.053-1.435-.02-2.265-.195-2.222-.139-4.45.173-6.748.185,1.903.26,4.013.24,6.513l-.023,2.949.337,11.814c.068,2.388.548,4.944,1.387,7.395,1.055,3.077,3.274,4.299,5.624,5.593,2.774,1.528,3.298,5.648,2.034,8.39-.716,1.551-1.672,2.816-2.596,4.04-1.222,1.618-2.377,3.147-2.901,5.179-2.221,3.368-3.312,6.963-4.147,10.667-.05-.216-.1-.431-.149-.645-.63-2.737-1.226-5.323-2.687-7.742l-1.131-1.873c-.537-2.432-1.876-4.101-3.173-5.715-1.24-1.544-2.411-3.003-2.914-5.086ZM310.567,272.476c-4.789,1.887-8.64-1.059-10.333-4.812-1.952-4.328-5.173-7.816-9.591-10.393l6.187.428c5.019,5.453,11.022,7.573,16.939,5.983.431.207,1.178.869,1.233,1.117.697,3.328-1.044,6.341-4.436,7.677ZM198.522,135.822c-5.724,2.814-6.317,7.957-6.445,13.429l-.293,12.495c-.005.236-.057.489-.111.757-.014.067-.028.137-.041.208-.018-.083-.037-.163-.055-.241-.068-.295-.132-.574-.137-.822l-.253-13.346c-.051-2.681-.468-5.326-1.208-7.647-.749-2.352-2.677-3.49-4.542-4.592l-.441-.261c-.719-.429-1.014-1.249-1.136-1.86-.399-2.01.372-4.822,1.881-6.847,2.726-3.842,4.538-8.06,5.885-13.782,1.165,5.551,3.244,10.383,6.323,14.711,1.708,2.4,1.922,5.375.572,7.8ZM59.135,137.222c.322-.879.573-1.771.815-2.635.417-1.483.81-2.883,1.524-4.206,1.91-3.197,4.115-5.213,6.741-6.163,4.466-1.615,9.397-.741,13.672,2.387-10.074,2.407-16.873,8.487-18.707,16.735-.766,1.99-1.887,4.208-4.392,5.563l-.627.34.533.474c2.983,2.652,4.708,5.86,6.128,8.932.088.19.172.386.256.583.457,1.063.976,2.269,2.221,2.846l.723.335-.013-.797c-.065-3.989-1.524-7.791-4.583-11.932,1.653-1.504,2.783-3.324,3.537-5.688,1.313-4.117,3.22-7.058,5.999-9.252,8.193-6.471,19.924-7.213,29.19-1.847,3.272,1.895,6.314,3.901,9.574,6.313l3.244,2.401c-12.109-4.007-22.076-4.217-30.389-.654-5.066,2.172-8.903,6.01-11.075,11.056l-1.405,2.529.2.467c.421.983.856,1.999,1.038,2.952.994,5.234,4.349,9.393,9.236,11.478-1.948,5.708.316,12.115,5.988,16.834,2.208,1.837,4.692,3.053,7.199,4.095-7.403-.222-14.821-1.36-20.593-6.139-1.87-1.548-2.945-3.027-3.275-4.435l-.218-4.052-.589.149c-6.596,1.669-9.531-5.562-11.766-12.473-1.991-6.159-5.095-11.718-9.229-16.531,4.715-2.767,7.677-5.934,9.044-9.667ZM235.606,42.464c1.76-.09,3.579-.184,5.441-.184h.003l83.451.006,5.847.191c.312,6.585,5.565,11.693,12.248,11.912l.02,75.039.205,10.694c.112,5.836-.041,10.991-.468,15.744-1.544.527-2.121,1.92-2.839,3.651-.651,1.571-1.461,3.527-3.266,5.643-1.086,1.274-2.721,2.686-4.051,2.825l-5.055.532,2.076-6.333c1.864-5.687,4.679-10.504,8.607-14.727.346-.373.707-1.329.495-1.887-.21-.555-.995-1.165-1.493-1.447-4.205-1.782-7.265-4.418-9.097-7.835-1.01-6.486-4.304-11.763-9.283-14.864-.104-.064-.187-.2-.222-.362-.041-.189-.009-.385.084-.524,2.894-4.317,4.251-9.153,4.034-14.402l-.857-8.551-.764-9.257c-.019-7.006,2.78-13.266,7.883-17.625l.129-.11.245-1.153c.145-.682-.722-1.059-1.187-1.262l-.106-.046-.116.005c-3.513.153-8.122.552-12.612,2.277-6.496,2.35-11.596,6.653-15.161,12.794-3.544.538-5.596-1.189-8.412-3.562l-.161-.136c-5.523-4.649-12.261-6.498-19.02-5.228-.424-1.434-.627-2.831-.807-4.562l-.013-.121-.066-.102c-1.646-2.514-5.496-1.621-8.893-.835-.407.094-.811.188-1.208.275-.456.1-1.431-.972-1.648-1.683-1.755-5.731-6.186-10.661-13.543-15.072-3.438-2.061-7.323-4.39-9.239-7.917l1.52-1.775-2.748-.024c.016,0,.032-.002.048-.002ZM145.854,42.516l.229.663c.295.853.27,1.452-.082,1.888-2.591,3.214-5.369,4.936-8.31,6.758-1.62,1.004-3.294,2.042-5.023,3.377-4.044,3.122-6.998,6.95-8.778,11.377-.459,1.141-1.564,2.258-3.291,1.971l-6.584-1.095c-.503-.084-1.662.056-2.082.621-.472.633-.467,1.42-.461,2.254.005.846.011,1.72-.497,2.469-.313.461-1.549,1.069-2.346,1.041-6.954-.269-13.364,2.202-18.542,7.141-1.263,1.205-2.989,2.1-4.505,2.336-1.203.189-2.192-.296-2.939-1.44-3.503-5.366-8.292-9.205-14.226-11.41-4.464-1.717-9.062-2.15-12.97-2.349l-.249.04-.147.114c-.437.34-.981.764-.789,1.302l.468,1.305.098.085c4.922,4.294,7.562,10.193,7.637,17.051-.027,3.892-.444,7.512-.847,10.531-1.208,8.013-1.76,15.252,3.662,22.524-5.406,3.256-9.035,8.943-10.003,15.705-2.153,3.483-5.225,6.009-9.13,7.511l-.109.042-.957,1.039c-.536.583.082,1.871.392,2.211,3.811,4.166,6.479,8.604,8.16,13.569l2.511,7.421-4.838-.59c-1.833-.223-3.642-1.603-5.375-4.099-1.151-1.658-1.855-3.449-2.6-5.346-.231-.589-.465-1.184-.714-1.781l-.08-.191-.193-.079c-1.054-.429-1.574-1.015-1.635-1.843-.321-4.308-.297-8.361-.272-12.653.006-1.085.013-2.182.014-3.3l.063-71.991.122-12.356c3.42-.056,6.683-1.456,9.017-3.885,2.121-2.208,3.243-5.034,3.19-8.005l3.803-.161,87.556.051c1.487,0,2.942.085,4.354.174l-2.702.004ZM31.439,203.85c1.389.448,2.317,1.084,3.128,2.123,3.27,4.19,6.9,7.099,11.08,8.875-2.23,2.578-3.925,5.355-5.163,8.463-.712-.003-1.543.065-2.03.385-.619.407-1.478,1.772-1.475,2.56l.047,13.31-.012,16.013.059,78.588c0,.524.366,1.035.68,1.313.326.289.686.427,1.011.389,2.611-.311,5.218.526,7.152,2.295,1.923,1.759,2.941,4.172,2.866,6.797h0c-.018.624.022,1.401.489,1.883.259.266.602.401,1.021.401l110.537-.006c2.083,0,4.092-.943,5.374-2.523,1.068-1.316,1.361-2.905.872-4.729,2.05-.826,3.774-1.948,5.342-3.481.909,3.189,2.58,6.103,5.336,9.33l.562.645c1.671,1.913,3.258,3.729,4.593,6.155l-151.786.106-.056-145.644c0-1.325.125-2.202.372-3.245ZM175.564,331.329c.14-4.274,2.401-7.555,6.204-9.001l.154-.059.398-.62c.198-.307.122-.675-.184-.896-.237-.171-.661-.269-1.204-.269-1.629,0-4.333.883-6.312,3.345-1.778,2.019-2.719,4.617-2.875,7.939-1.683,2.878-4.309,4.743-7.603,5.398l-.109.035c-.613.278-1.22,1.291-1.025,1.985.29,1.029.097,2.143-.515,2.979-.548.75-1.354,1.181-2.269,1.212l-9.921.34-97.758-.053c-.509-6.316-5.497-11.191-11.864-11.594l-.141-3.561-.077-84.741c0-1.246-.016-2.475-.03-3.691-.05-4.237-.097-8.245.412-12.358l1.904-.345.073-.323c.994-4.401,4.99-10.481,7.872-10.907l5.584-.824c-2.535,8.059-4.933,14.354-11.102,20.875-.211.223-.289.578-.224,1.024.054.37.263,1.062.703,1.316,6.11,3.518,8.157,5.401,10.91,11.948,1.967,4.676,4.917,8.491,8.772,11.349-.628,1.113-.965,2.04-1.151,3.154-6.509,6.34-8.509,13.614-6.685,24.287.741,4.334-.282,8.216-3.039,11.537l-.357.43.467.307c2.529,1.665,5.101,1.497,7.365,1.107.378,2.334.091,4.801-.891,7.711-1.28,3.669-3.461,6.362-6.481,8.005l-.135.073-.588,1.143c-.346.67.615,1.294.918,1.469l.209.065c5.938.495,11.542-.319,16.657-2.417,7.75-3.144,13.522-9.28,16.293-17.305,1.587.262,3.113.918,4.769,2.047,5.79,3.95,12.363,5.359,18.56,3.989.538,1.61.584,2.848.619,3.771.054,1.449.097,2.593,2.425,2.611,3.042.021,6.254-.199,9.231-1.9,2.287,7.982,8.18,12.242,14.039,15.92,6.83,4.288,8.963,8.018,9.988,9.81.372.65.596,1.042.91,1.243.662.421,1.849-.279,2.108-.476l.124-.137c2.465-4.017,6.02-7.344,11.196-10.479l8.949-5.718c2.806-1.792,4.799-4.613,5.927-8.386,4.349-.294,8.193-2.434,11.222-6.229-.395,5.217-.075,9.085,3.676,12.714,1.723,1.667,2.855,3.509,3.368,5.475.596,2.287.038,4.434-1.811,6.959l-1.658,2.265-2.385-2.907c-.914-1.113-2.292-3.338-1.262-5.732l1.498-3.479-.357-.229c-1.326-.85-2.761-.411-3.84,1.173-2.151,3.159-1.689,7.555,1.119,10.686,1.801,2.071,3.129,4.209,4.179,6.73l.045.107.527.462c.331.289.762.088,1.146-.091l.176-.081.075-.178c1.167-2.769,2.41-4.781,4.042-6.539,4.207-4.858,3.597-11.277-1.554-16.354-4.005-3.947-3.845-7.672-3.624-12.828l.04-.948c.049-1.245.118-2.536.313-3.787,2.34,7.534,7.627,12.177,14.767,12.885.686,2.8,2.132,5.199,4.335,7.163l5.37,3.91,7.435,4.696c3.985,2.517,6.812,6.086,8.481,8.637.361.552,1.604,1.142,2.24.771.427-.248.741-.775,1.217-1.575,1.155-1.94,3.305-5.552,9.678-9.517,5.806-3.612,12.135-8.114,14.2-15.992,3.338,2.191,9.238,2.311,10.84,1.612.492-.215.609-.519.621-.735.107-2.035.231-3.638.792-5.28,5.823,1.219,11.724.155,17.092-3.092l.521-.316c1.803-1.097,3.512-2.138,5.568-2.607,2.081,6.655,6.56,12.081,12.985,15.718,5.792,3.15,12.402,4.503,19.648,4.021l.138-.009,1.017-.704c.114-.079.303-.266.292-.638-.016-.506-.414-1.233-.804-1.469-5.256-3.176-7.966-8.888-7.485-15.727,3.044.481,6.357.276,7.169-1.075.242-.402.381-1.068-.329-1.956-3.033-3.795-2.571-7.714-2.036-12.252.262-2.226.534-4.528.412-6.997-.29-5.861-2.694-11.203-6.955-15.458-.307-1.151-.644-2.083-1.092-3.017,3.913-2.904,6.952-6.845,9.048-11.742,1.881-5.144,5.425-9.014,10.25-11.191l1.126-1.254c.504-.596-.19-1.746-.479-2.029-2.936-2.88-5.259-6.229-7.087-10.2l-3.653-10.088c1.772.34,3.493.488,5.449.473,2.646,1.403,4.727,3.476,5.721,5.703l2.57,5.758,1.651.562c.537,4.415.482,8.677.424,13.185-.017,1.312-.034,2.639-.037,3.987l-.156,86.948c-6.937.346-12.256,5.257-12.651,11.672l-98.146.052-8.706-.275c-.796-.025-1.95-.661-2.411-1.191-.689-.793-.657-1.716-.625-2.609.035-.978.078-2.194-1.354-2.56-3.126-.631-5.68-2.473-7.393-5.33-.204-3.156-1.025-5.631-2.544-7.602-1.726-1.803-4.334-4.524-7.93-3.26l-1.1.387,1.038.53c4.52,2.308,6.774,5.667,6.701,9.985-.047,2.795-.746,5.288-2.103,7.573l-4.865,6.351-8.964,12.944-7.694-11.18-4.675-5.854c-2.581-3.233-3.844-6.79-3.651-10.298ZM346.458,203.292c-.842.727-1.638,1.5-2.408,2.249-1.738,1.688-3.38,3.283-5.5,4.379-3.636,1.881-7.054,2.423-10.159,1.61-3.283-.859-5.333-3.093-5.625-6.127l-.488-5.077-.71.524c-1.648,1.219-1.854,2.845-1.947,4.455-1.442-.866-2.886-1.417-4.383-1.673-1.075-4.593-4.853-7.389-8.569-9.601,5.176-1.761,9.046-2.062,12.087,1.261,2.252,2.462,4.235,3.915,6.43,4.713,3.964,1.44,8.338.585,12.002-2.348l5.589-4.473c.416-.333.831-.741.759-1.242-.082-.567-.654-.802-1.522-1.158-1.278-.525-3.21-1.318-4.938-3.496-3.553-4.476-8.25-5.968-12.257-3.895-2.327,1.204-3.319,3.581-2.412,5.78.458,1.111,2.003,1.79,2.975,1.616,1.739-.315,2.003-1.691,2.196-2.695.203-1.058.319-1.42,1.125-1.384,2.52.115,3.896,1.568,5.488,3.251.881.932,1.789,1.891,2.954,2.684l-2.651,2.176c-3.839,3.15-9.362,2.413-12.849-1.715-4.209-4.984-10.125-5.177-18.078-.588l-2.278-.694c7.786-2.56,12.471-6.511,13.939-11.759,1.546-.277,2.94-.792,4.396-1.626.055,1.81.413,3.327,1.601,4.669l.359.406.376-.391c.82-.855.841-2.298.812-2.88-.219-4.322,2.528-7.543,6.836-8.015,3.697-.405,7.587.773,10.91,3.275l6.634,6.464,5.032,4.208,6.683,5.948-7.615,7.028-4.792,4.139ZM352.301,176.058c-.01,1.725-.15,3.178-.463,4.75-1.809-.788-3.044-2.043-4.303-3.661-2.53-3.251-5.679-5.785-9.875-7.937,2.063-2.353,3.784-5.135,5.242-8.477,1.859-.066,3.126-1.186,3.5-3.116l.009-.049-.12-13.742.062-43.38-.056-47.797c0-.882-.139-1.43-.434-1.724-.407-.404-1.458-.489-1.827-.457-2.717.243-5.357-.678-7.241-2.524-1.848-1.811-2.768-4.255-2.589-6.883.008-.112.068-1.111-.18-1.634-.272-.577-1.278-.792-1.849-.792h0l-108.662.043c-3.524.002-5.89,1.387-7.033,4.116-.327.781-.267,2.116-.219,3.189l.003.074c-2.215.896-4.045,2.134-5.917,4.013-.498-5.318-3.084-9.996-7.53-13.585-1.123-.907-1.854-2.028-2.179-3.34l40.063-.168,80.663-.036,30.896-.028.09,27.661.049,37.339.032,55.787-.133,22.358ZM203.923,58.63c-.667.726-1.469,1.216-2.396,1.783-.504.309-1.027.629-1.559,1.007l-.531.377.501.416c.798.662,1.74.812,2.878.457,3.407-1.061,5.724-3.182,6.885-6.304.328-.879,1.105-1.74,1.792-2.5l.23-.256c2.675-2.986,4.898-3.768,6.369-4.284.712-.251,1.228-.432,1.568-.789.417-.436.444-1.181.477-2.044.068-1.842.268-3.283,2.118-3.698,1.125-.252,2.781-.474,4.052-.345.855.087,1.693.141,2.521.168l.659,1.684c-2.549,3.581-5.423,6.394-9.264,9.081l-7.634,4.771c-3.329,2.081-5.283,4.422-6.121,7.345-6.707.62-11.741,4.694-14.655,11.835-.75-4.292-.833-9.203,2.614-12.598,2.911-2.869,4.602-6.501,4.521-9.716-.058-2.303-1.008-4.342-2.75-5.896-1.791-1.597-2.583-3.375-3.108-4.55-.413-.926-.686-1.538-1.275-1.611-.035-.004-.069-.006-.103-.006-.446,0-.795.366-1.053.693l-.074.128c-.93,2.4-2.229,4.095-4.024,6.052-2.372,2.586-2.898,6.186-1.341,9.171.989,1.896,2.547,2.103,3.31,1.927.489-.113.787-.393.797-.748l.042-1.568-.172-.154c-1.727-1.549-1.779-3.972-.118-5.902l2.585-3.198,1.285,1.869c1.033,1.502,1.925,2.799,1.938,4.491-.306,2.591-1.425,4.892-3.42,7.034-2.233,2.398-3.297,5.36-3.173,8.824-3.19-3.72-7.038-5.746-11.46-6.031-.846-2.698-2.368-4.811-4.415-6.122l-6.212-3.979c-4.08-2.613-8.722-5.945-12.208-10.847-.179-.251-.282-.522.266-1.306l.403-.575c1.036-.034,2.089-.121,3.179-.287.748-.113,2.344.165,3.16.416,2.012.618,2.421,2.438,2.133,3.935-.322,1.671,1.088,2.241,2.72,2.901,1.701.688,4.031,1.629,5.775,4.191l2.027,2.979c1.293,3.409,4.418,5.778,8.169,6.188l.193.021.945-.694c.152-.112.242-.28.252-.475.031-.566-.703-1.259-.71-1.266l-.098-.07c-4.434-2.445-6.284-7.51-4.494-12.334.896-2.707,2.44-4.93,4.076-7.283.34-.489.682-.981,1.021-1.481l8.555-12.635,6.925,10.365,2.894,4.254c4.494,4.78,6.908,12.43,2.53,17.191ZM182.133,34.554l-4.824,5.443c-2.479,2.797-4.031,6.146-4.524,9.741-1.883-1.764-3.606-2.88-5.572-3.615.269-1.598.367-3.363-.803-4.833-.952-1.195-2.75-2.591-4.687-2.591l-111.095-.011h0c-.489,0-.926.187-1.229.525-.34.379-.492.913-.428,1.502.294,2.682-.568,5.2-2.43,7.091-1.938,1.969-4.666,2.947-7.486,2.685-.521-.048-1.054.134-1.458.502-.398.363-.617.854-.617,1.384l-.019,105.414c0,.716.725,1.864,1.114,2.279.486.517,1.604.541,2.326.496,1.258,3.232,2.944,5.993,5.264,8.616-4.29,2.2-7.62,4.9-10.165,8.239-1.138,1.493-2.366,2.556-4.018,3.461l-.391-3.629.028-144.351,110.93.057,36.976.076,3.77.224c-.209.496-.458,1.068-.661,1.297ZM34.866,182.882c1.266-1.053,2.574-2.141,3.671-3.522,4.911-5.766,13.353-9.469,18.98-5.686,2.214,1.488,3.286,4.276,2.866,7.457-.082.62.369,1.729.941,2.016.288.144.607.096.832-.125,1.278-1.258,1.411-2.975,1.525-4.642,1.461.855,2.806,1.365,4.33,1.645,1.6,6.226,8.021,9.805,13.741,11.797l-1.818.489-5.871-2.422c-3.124-1.289-6.764-1.013-9.5.721-1.135.718-2.093,1.668-3.021,2.587-.311.309-.622.616-.938.915-3.364,3.171-8.277,3.458-11.681.682l-2.735-2.23c1.419-1.07,2.495-2.08,3.523-3.3,1.881-2.23,4.154-2.755,5.167-2.416.556.187.576.556.582.677.07,1.33.542,2.237,1.484,2.857.834.549,2.631.622,3.404-.402.735-.974.989-2.174.714-3.381-.305-1.341-1.243-2.532-2.508-3.184-3.857-1.99-8.596-.708-11.793,3.19l-.002.003c-1.517,1.872-3.29,3.676-5.965,4.189l-.166.032-.673.754c-.116.13-.171.303-.156.486.043.53.698,1.089.705,1.094l5.634,4.545c5.352,4.317,12.591,3.802,17.212-1.227,1.486-1.617,2.865-2.99,4.682-3.425,2.579-.616,5.367-.292,8.496.992-4.747,2.578-7.518,5.642-8.663,9.566-1.714.457-3.064.975-4.168,1.601-.007-.073-.014-.146-.021-.219-.13-1.386-.278-2.958-2.008-4.113l-.69-.461-.5,4.86c-.309,3.005-2.146,5.222-5.041,6.081-5.507,1.633-11.946-.862-17.261-6.711l-4.539-4.11-9.102-8.424,8.661-7.811c.552-.497,1.113-.964,1.669-1.427Z"/>
    </g>
  </g>
</svg>