<?xml version="1.0" encoding="UTF-8"?>
<svg id="b" data-name="Layer 2" xmlns="http://www.w3.org/2000/svg" width="381.284" height="404.222" viewBox="0 0 381.284 404.222">
  <g id="c" data-name="Layer 1">
    <g>
      <path d="M219.15,404.218l-7.915.004c7.188-.022,14.457-.05,21.762-.079l-13.847.075Z"/>
      <path d="M368.864,1.223c-12.118-.326-32.288-.916-44.422-1.219-8.052-.006-18.65-.027-26.673.17-49.96.982-104.218,2.43-153.996,1.072-31.201.204-63.689-1.185-94.795-.741-7.777.268-28.156.906-35.52,1.127-4.056.036-8.115-.198-12.176-.439,0,0-.005.36-.005.36-.264,12.003-.439,36.394-.684,48.381-.44,35.863-.711,72.999.231,108.866.918,19.874,1.001,40.575-.004,60.448C.098,233.691-.075,248.257.027,262.859c.01,6.036.086,12.085.245,18.164l.01.379c.384,19.667,1.059,39.332,1.362,58.78.197,12.101.188,36.259.035,48.382-.019.052,10.131-.893,10.148-.877-.006,0,22.529.555,24.273.598l.111.003h.004c6.953.288,14.797.435,23.039.488,6.824.092,13.631.115,20.571.003l4.576-.074c13.529-.136,26.835-.39,37.964-.575,50.129-.85,100.623-.823,150.78.136,19.994.37,55.233-.185,75.393-.1,5.395-.006,16.125.064,21.534.051,1.635.041,3.674.258,5.369.351l5.368.379.29.02-.014-.291-.577-12.084c-.034-.503-.029-1.008-.029-1.512.024-6.658-.061-28.086-.026-34.793,1.041-67.385-2.477-137.018.119-204.212.275-18.088.324-43.863.413-62.047-.344-13.774-.478-28.517-.405-42.348-.088-4.489.651-25.136.688-30.242l.017-.69c-4.095.603-8.247.592-12.42.474ZM1.472,326.862l.149,5.677.025,3.104c-.051-2.923-.11-5.85-.173-8.782ZM1.71,388.564s0,0,0-.001h.006s-.007,0-.007.001ZM240.392,4.314c-3.206.085-6.476-.006-9.66-.079,3.33-.051,6.663-.062,9.66.079ZM1.839,370.387c.008-3.028.012-6.131.01-9.196l.031,3.966-.042,5.23ZM36.215,388.288c6.428.161,12.7.316,18.934.424-6.751-.066-13.162-.199-18.934-.424ZM95.738,388.521l10.673-.173c-3.473.061-7.043.12-10.673.173ZM374.408,38.195c-.146,14.451-.474,35.742-.615,50.209.049,12.415,1.156,52.316,1.38,64.965.3,20.584-.047,47.276.098,67.929-.195,9.717-.458,22.714-.659,32.483-.385,15.852-.275,37.329-.444,53.163.135,4.208.394,24.722.575,29.531.046,5.269.415,15.566.348,20.672-.051.798-.08,8.019-.117,14.756l-.11,11.435c-.005.165-.01.298-.016.39.053-.027-14.866.12-22.362.19l-4.192.036-4.131-.056c-18.783-.262-39.877-.627-60.428-.827l-9.027-.124-5.114.015c-9.739-.053-19.199-.053-28.049.031-4.968.009-13.783.018-18.682.082-1.774.041-11.357.305-13.34.349-7.965.166-25.192.005-33.358.018-13.513-.439-27.867-.626-41.362-.71-27.959.043-57.408.372-85.404.471-7.136.122-25.863.567-32.682.674l-.666-.023-1.332-.05c-1.78-.05-5.701-.233-7.744-.291-.044-2.537-.402-23.37-.402-23.37-.16-11.295.602-24.135.52-35.439-.027-26.917.222-55.878-.185-82.718-.227-13.621-.498-33.794-.473-47.256-.433-22.634,1.375-48.272,1.253-70.879-.222-23.649.748-47.273-.211-70.898-.189-6.783-.324-16.996-.449-23.619-.047-7.695.14-15.388.663-23.06,7.448-.622,14.896-.408,22.364-.015,9.469.432,19.218.876,28.71.978,3.382.049,13.913-.06,17.229-.093,21.382-.186,47.634-.343,68.919-.409,13.502-.44,32.566-1.194,45.902-1.032,21.944.152,46.924,1.216,68.884,1.375,29.233-.068,62.675.187,91.875-.748,6.754-.184,15.637-.165,22.622-.281.005,7.338.233,25.156.213,32.144Z"/>
      <path d="M187.082,337.935c.032-.375.065-.752.092-1.113-.028.364-.058.735-.092,1.113Z"/>
      <path d="M258.314,18.137c-2.799.134-6.287.151-9.099.346-6.113.421-12.214,2.258-17.243,5.837-2.233,1.604-4.197,3.594-5.771,5.862-.931-2.54-2.701-4.881-5.228-5.997-6.892-2.726-16.831-3.655-23.275.645-2.788,1.944-4.77,4.749-6.419,7.661-.248-.456-.513-.942-.662-1.208-.782-1.227-1.612-2.417-2.577-3.513-.512-.493-1.385-1.49-1.952-1.861l-.522-.429c-.171-.147-.348-.287-.542-.403l-1.135-.74c-.572-.357-1.205-.598-1.806-.93-.602-.197-1.307-.539-1.911-.685-5.194-1.511-10.741-.631-15.811.863-3.233.917-5.824,3.462-7.097,6.527-5.628-7.525-14.611-10.685-23.768-11.376-15.381-1.219-30.805-1.671-46.217-2.021-15.387-.402-30.854-.65-46.247.34-4.605.172-9.209.188-13.807-.081-1.318-.093-2.666-.145-3.988-.312-1.635-.213-3.125-.912-4.581-1.789-1.873-1.171-3.803-2.449-5.785-3.593l1.04,1.924c2.043,3.749,3.505,7.815,3.826,12.076.251,4.292.319,8.655.318,12.956-.891,26.039-.127,52.096,1.924,78.06.541,5.78.964,11.572,2.167,17.273,1.177,5.558,3.356,11.109,7.291,15.32-1.166,1.501-2.092,3.175-2.774,4.938-2.129,5.454-2.058,12.338,1.892,16.935-2.471,1.431-4.607,3.589-5.508,6.347-2.055,6.431-.291,13.872,4.493,18.646,0,0,3.809,3.025,4.726,3.753-7.144,4.405-11.636,11.695-9.438,20.28.747,3.56,3.493,6.457,6.844,7.742-1.949,2.24-3.638,4.731-4.868,7.447-1.377,2.904-2.1,6.063-2.657,9.199-1.136,6.26-1.69,12.587-2.109,18.908-1.682,31.141-.563,63.706-1.244,94.929-.022,1.577-.015,3.174-.061,4.736-.156,5.149-2.208,10.004-4.895,14.332l1.034-.668s6.4-4.134,6.4-4.133c2.433-1.131,5.522-1.56,8.372-1.566,15.633.086,45.382-.031,61.198-.019,14.576-.021,29.162-.662,43.65-2.31,1.449-.193,2.889-.446,4.316-.767,4.987-1.137,9.778-3.196,13.951-6.164l.89-.626c.3-.193.617-.364.941-.519,1.268-.598,2.638-.967,3.958-1.505.951,3.291,3.684,5.783,6.803,7.036,6.225,2.442,13.997,2.087,19.528-1.869,2.722-1.97,4.759-4.737,6.243-7.725.729,1.517,1.564,2.989,2.577,4.338,3.226,4.512,8.141,6.449,13.539,6.8,3.475.228,6.994-.292,10.257-1.504,1.638-.582,3.268-1.335,4.474-2.622,1.207-1.24,2.099-2.745,2.795-4.315.531.2,4.615,1.77,4.522,1.722,5.507,4.695,12.735,6.961,19.812,7.901,3.069.383,9.7.586,12.927.866,3.866.202,11.333.753,15.086.9,20.555.039,50.725.081,71.246.254.548.025,1.788.018,3.052.022l1.725.017c.121.002.236.006.35.009.141.003.282.008.422.015.194.01.388.026.581.042.082.007.164.013.245.021.032.005.071.009.097.013,1.488.16,2.927.561,4.292,1.144-.126-.054-.25-.114-.378-.165.299.118.593.25.885.386-.122-.058-.248-.108-.371-.162.186.081.371.165.554.253-.045-.022-.089-.046-.134-.068.582.275,1.152.582,1.707.923-.008-.005-.016-.009-.024-.014.027.017.055.033.082.05-.005-.003-.009-.006-.013-.009.076.047.153.09.228.138-.071-.045-.143-.086-.215-.13.275.169.546.344.812.526.031.021.061.042.092.063.131.091.26.184.389.278.11.081.22.163.329.246.065.049.13.099.194.149.181.142.361.286.54.435.006.005.012.01.018.015.2.167.398.338.594.513l.003.003.558.499s.691.008.774.006h.003s.012,0,.012,0c0,0,0,0,0,0h0s0,0,0,0h0c-.018-.029-.036-.059-.054-.088-.482-.77-.918-1.536-1.31-2.303-.095-.188-.189-.377-.279-.567-.013-.027-.026-.054-.039-.081-.2-.424-.388-.853-.564-1.286.06.148.117.298.18.445-.557-1.28-.989-2.572-1.315-3.893.173.683.375,1.358.603,2.024-.513-1.506-.886-3.059-1.104-4.635-.012-.091-.023-.183-.034-.274-.022-.178-.044-.355-.063-.533-.015-.14-.026-.282-.038-.423-.015-.173-.031-.345-.042-.519-.002-.023-.002-.046-.004-.07-.017-.273-.029-.546-.036-.819-.031-3.542-.097-8.391-.139-12.768l-.004-.383c-.018-1.911-.031-3.722-.034-5.279.076-3.902.103-8.047.096-12.349l.065-4.723-.159-7.117c-.246-18.343-.897-38.152-1.158-54.129-.132-7.682-.897-15.349-2.19-22.921-.75-4.567-2.895-8.839-5.523-12.569,0,0-1.712-3.087-1.789-3.226,3.583-1.18,6.014-4.512,6.665-8.153.393-1.792.528-3.693.352-5.519-.543-6.287-4.54-11.928-9.951-15.055,2.829-1.99,5.519-4.331,7.287-7.352,3.953-6.64,3.823-16.406-3.61-20.434,4.173-5.12,4.445-12.629,1.696-18.485-.902-1.938-2.142-3.727-3.692-5.211,2.85-3.171,5.028-6.958,6.029-11.13,1.839-6.918,2.721-14.051,3.542-21.144,1.523-14.212,2.384-28.498,2.601-42.79-.081-5.709.134-19.738.006-25.72.022-7.144-.165-14.281.464-21.393.199-4.841,2.731-8.999,4.887-13.231l-1.15.944c-3.43,2.87-7.687,4.91-12.213,4.814-7.004-.148-15.713-.109-22.703-.508-20.995-1.302-51.487.638-72.72,1.187ZM361.534,335.397c-.005,2.869-.028,5.646-.071,8.316l-.017-1.859.089-6.457ZM194.67,93.444c.185-16.299,1.546-32.555,3.51-48.735.13-.465,1.378-4.938,1.378-4.938,1.316-4.954,5.431-8.638,10.587-9.054,3.548-.431,10.375.776,10.375,5.324l-.016.323-.063,1.291c-.061,1.362-.261,5.223-.321,6.614.619-.709,2.017-2.24,2.659-2.982,1.593-1.88,3.344-3.72,5.736-4.467,3.127-.968,6.624-.354,9.636.761,4.101,1.586,6.672,4.965,5.711,9.44-.339,2.382-.951,6.675-1.291,9.064.534-.701,5.857-7.365,6.58-8.314,1.455-1.433,3.78-2.815,5.992-3.183,7.272-1.247,14.646,3.677,13.59,11.423l-2.423,9.226-.195.741c2.002-1.352,6.116-4.231,8.089-5.503,2.543-1.521,5.618-2.071,8.526-1.448,8.735,1.732,13.155,10.406,7.969,18-1.19,1.743-2.671,3.289-4.048,4.912l.362-.016c4.706-.366,12.885,1.132,10.746,7.571-.702,1.621-1.782,3.086-2.822,4.514-1.422,1.918-3.12,3.591-4.819,5.262-6.026,5.887-14.336,14.393-20.338,20.145-9.785,9.796-22.101,18.815-33.217,27.142l-5.718,4.304c-.068.057-.139.111-.21.166l-.312.234c-.045.032-.089.065-.135.097-.017.013-.035.025-.053.038-1.399.95-3.157,1.562-4.775,1.165.041.01.081.023.122.031-.045-.01-.09-.023-.135-.034.004,0,.008.002.012.003-.01-.003-.021-.005-.031-.008.006.001.011.004.016.005-.377-.093-.744-.235-1.089-.448-.001,0-.003-.001-.004-.002,0,0,.001,0,.002,0,0,0-.001,0-.002,0h0c-.444-.274-.751-.649-.969-1.074-.025-.045-.048-.09-.07-.136.007.016.014.032.021.047-.024-.05-.053-.098-.074-.149.015.035.036.068.053.102-.063-.132-.118-.268-.162-.407-.01-.033-.019-.065-.029-.098-.015-.053-.029-.106-.042-.16-.015-.063-.027-.128-.039-.192-.007-.036-.014-.072-.02-.108-.008-.05-.013-.101-.019-.152-.085-.735.013-1.536.205-2.348.007-.026.013-.052.02-.077.203-.709.427-1.407.659-2.101.315-.862.645-1.676.868-2.363,1.232-3.081,2.754-6.05,4.573-8.826,3.025-4.945,9.063-10.76,13.045-15.002l.176-.185c-.079.041-.157.086-.236.128h0s-.002.001-.002.001c-3.943,2.086-7.632,4.638-11.021,7.535-3.411,2.884-6.542,6.101-9.217,9.682-1.355,1.774-2.652,3.59-3.97,5.388l-.496.673c-.441.717-1.154,1.164-1.966,1.349-.583.185-.992-.226-1.312-.653-.284-.418-.639-.948-.509-1.466.986-4.347,2.243-8.633,3.75-12.828,2.625-7.133,7.073-17.71,9.885-24.869,1.458-3.66,3.57-8.805,4.961-12.436,1.787-4.859,3.068-9.892,4.47-14.859l-1.022,1.859c-3.431,6.158-6.824,12.367-9.557,18.88-2.638,6.417-5.231,13.215-7.979,19.577-1.924,4.406-3.837,8.904-6.076,13.165-1.245,2.211-3.468,6.145-4.702,8.335l-.081.144-.041.072c-.009.013-.013.014-.017.023-.295.313-1.035.583-1.449.58-.086.004-.113-.012-.132-.017-.442-.33-.68-1.088-.669-1.611l.013-.115.027-.163.054-.326.108-.652.217-1.303c.005-.037,1.74-10.431,1.741-10.465.591-6.488.492-13.333-2.322-19.366,0,0-1.238-2.688-1.238-2.688.701,6.322.68,12.811-.715,19.032-.579,2.634-1.341,5.219-2.289,7.753-.935,2.485-1.871,5.074-3.376,7.247-.547.731-1.281,1.622-2.134,1.596-.254-.202-.485-.578-.573-.932-.063-.237-.09-.347-.078-.593,0,0,0-.255,0-.255-.134-13.281.107-29.492.17-42.857ZM235.776,190.019c-.124.054-.252.107-.392.157-.002,0-.004.002-.006.003-7.099.327-14.538.757-21.634,1.219-.036-2.735-.44-5.484-1.31-8.102-.844-2.578-2.142-5.006-3.784-7.165,3.837-2.712,10.81-7.662,14.337-10.196.652-.328,2.328-.89,3.422-.789,2.197.043,3.964,1.577,5.041,3.406.91,1.329,1.667,2.75,2.344,4.212,2.158,4.719,3.189,9.894,3.657,15.054-.047.954-.772,1.773-1.675,2.201ZM237.04,198.872c-1.421,8.066-4.297,16.515-10.602,22.04,0,0-.794.643-.794.643-1.834,1.637-4.685.381-6.14-.521-3.686-3.406-8.896-8.17-12.671-11.608,3.957-4.31,6.479-9.934,6.871-15.777,3.21.504,8.909,1.389,11.822,1.82l6.183.9c.494.068,1.846.274,2.319.337,1.296.136,2.36,1.055,3.011,2.166ZM228.144,152.401c.281-.091.558-.201.829-.326-.269.125-.546.235-.829.326ZM222.87,149.115c.004-.455.062-.911.155-1.338-.091.455-.147.905-.155,1.338ZM223.985,144.678c.185-.528.377-1.052.578-1.571-.162.475-.367,1.007-.578,1.571ZM194.37,149.052l.312-3.161c.07-.779.62-1.581,1.294-2.135,6.524.208,15.02,3.258,20.231,7.132,1.649,1.32,3.489,3.067,3.44,5.337-.143,2.202-.915,4.377-2.296,6.11-2.507,3.108-5.304,6.513-7.86,9.612l-2.528,3.022c-3.623-4.326-8.995-7.147-14.66-7.494.684-5.565,1.515-12.96,2.066-18.422ZM157.059,222.446c-2.044-.783-3.35-2.675-4.668-4.33-4.124-5.517-6.269-12.277-6.871-19.083.479-.998,1.341-1.838,2.415-2.033l.783-.125,1.579-.254c3.146-.516,9.475-1.583,12.614-2.147l5.9-1.07c.322,2.954,1.041,5.874,2.271,8.575,1.266,2.808,3.106,5.331,5.321,7.436-.029.038-.056.076-.085.114-2.065,2.006-5.031,4.726-7.097,6.708l-.005.004s-.001.001-.002.002c-3.147,2.685-7.606,7.759-12.157,6.203ZM169.216,216.244c-.699.636-1.4,1.284-2.102,1.913.747-.686,1.451-1.349,2.102-1.913ZM154.409,227.224c-.053-.196-.124-.385-.213-.56.088.145.16.34.213.56ZM169.115,191.799c-6.257-.641-16.041-1.609-22.253-2.176-.51-.147-.977-.37-1.287-.703-.312-.329-.46-.779-.494-1.281.351-5.212,1.464-10.431,3.691-15.169.551-1.187,1.175-2.327,1.878-3.44.642-1.073,1.365-2.116,2.411-2.814,2.04-1.486,4.785-1.27,6.929-.057-.238-.196,7.155,5.131,7.138,5.071l6.898,4.843c-3.357,4.505-5.018,10.128-4.91,15.725ZM167.021,165.35c-1.376-1.599-2.382-3.482-3.188-5.44-1.238-2.432-.916-5.369,1.073-7.287.426-.414,1.045-.854,1.504-1.242,5.636-4.355,12.866-6.799,19.743-7.56.855-.049,1.524.58,1.608,1.427l.345,3.235c.62,5.65,1.48,13.322,2.159,19.058-5.754.421-11.272,3.175-14.92,7.665t0,0v-.002s-8.324-9.854-8.324-9.854ZM155.362,37.124c2.495.971,4.146,3.078,6.031,4.963l.954.966c.024-.948.06-3.052.086-4.062.02-1.657-.036-3.511.948-4.911,1.445-2.163,4.075-2.956,6.609-3.209,3.424-.367,7.039.512,9.63,2.823.453.402.921.947,1.312,1.403,2.749,3.758,4.08,8.312,4.818,12.9,1.101,7.101,1.867,14.269,2.386,21.448,1.398,21.563,1.657,43.23.933,64.825l-.051,1.35c-.027.279,0,.996-.079,1.232-.159.635-.827,1.425-1.23,1.217-.58-.126-1.293-.426-1.682-.901-.536-.828-1.045-1.693-1.522-2.562-3.386-6.271-5.081-13.406-5.571-20.492-.163-3.55.3-7.119.666-10.712l.316-3.097-1.307,2.824c-3.327,7.1-3.941,15.152-3.017,22.85.338,2.162,1.219,7.505,1.57,9.768.062.438.328,1.947.369,2.341-.018.304-.304.845-.537,1.073-.559.291-1.101-.15-1.605-.587-1.533-1.473-2.485-3.464-3.445-5.377-2.943-5.883-5.63-11.889-8.132-17.974-3.362-8.122-6.142-16.501-10.287-24.284-1.772-3.425-4.612-8.057-6.549-11.452l-1.485-2.549s.864,2.819.864,2.819c2.508,8.598,5.693,17.011,9.348,25.178,3.531,8.218,6.965,16.479,9.937,24.918,1.232,3.678,2.636,7.398,2.885,11.296.012.68-.02,1.373-.326,1.973-.491.839-1.615.906-2.422.45-1.953-1.088-3.081-3.168-4.447-4.88l-1.037-1.322c-5.953-7.411-13.464-13.634-22.072-17.693-.004-.002-.008-.004-.013-.006t0,0c1.66,1.345,3.364,2.877,5.047,4.543-1.041-1.016-2.1-1.995-3.168-2.935,4.261,3.771,8.086,8.04,11.353,12.696,2.977,4.333,5.618,9.058,6.678,14.25.918,2.957-1.075,5.826-4.276,5.293-1.581-.245-3.029-1.05-4.276-2.067-18.184-13.708-35.378-28.889-51.316-45.136-3.403-3.481-6.92-6.911-10.18-10.516-1.052-1.223-2.024-2.512-2.897-3.865-.805-1.309-1.779-2.646-1.806-4.232.039-5.342,7.188-5.58,11.203-5.676l.878-.014c-1.387-1.824-2.953-3.584-4.118-5.494-4.621-7.581.232-16.137,8.736-17.305,6.204-1.03,10.973,3.814,15.707,7.063l1.316.922-.531-1.518c-1.46-4.362-3.808-9.606-2.361-14.184,1.64-4.473,6.872-7.158,11.484-7.007,3.995.077,7.247,2.511,9.449,5.74,1.457,2.065,2.962,4.387,4.587,6.395-.112-1.337-.443-5.393-.565-6.839-.097-1.368-.334-3.598-.376-4.933-.011-3.251,2.597-5.747,5.432-6.989,3.458-1.514,7.549-1.943,11.155-.74ZM27.822,133.246c-.822-10.128-.577-20.308-.649-30.466-.036-9.843-.166-25.46-.195-35.272.257-6.496.793-19.088,1.062-25.718.165-4.924-.204-9.813-.363-14.674,9.413.153,22.637-.458,31.98-.875,4.409-.164,18.173-.771,22.375-.896,7.151.002,35.07-.024,42.754-.02,2.697.004,9.63-.046,12.185.071,6.052.358,12.213,1.896,17.286,5.291-6.238-.463-13.005.046-18.042,4.034-1.703,1.393-2.998,3.277-3.718,5.355-.658-.238-4.398-1.59-4.398-1.59l-.047-.017c-4.853-.482-9.975-.079-14.349,2.259-4.44,2.286-7.04,6.823-7.307,11.722-3.393-.583-6.904-.566-10.263.223-3.428.836-6.904,2.336-9.259,5.046-3.315,4.031-4.893,9.783-4.573,14.95.12,1.733.459,3.445.963,5.103-3.055.742-6.017,2.145-8.222,4.425-2.317,2.792-3.3,6.498-2.924,10.082-.046-.483-.064-.968-.061-1.453,0,.471.02.954.061,1.453-.004,0-.008,0-.013-.001-1.058-.114-2.151-.195-3.259-.235-6.238-.264-12.963.642-17.267,5.43-4.515,5.738-5.23,13.991-2.538,20.689-1.31.072-2.615.302-3.864.727-7.049,2.41-9.946,10.463-9.858,17.35-.03,2.703.834,5.375,2.244,7.658-2.391.638-4.604,1.897-6.472,3.511-2.114-4.407-2.892-9.31-3.272-14.161ZM31.573,185.975c-1.853-3.768-1.29-9.542,2.908-11.423.812-.362,1.695-.403,2.572-.532l5.477-.729,1.216-.162c-.702-.525-4.548-3.24-5.369-3.859-.75-.522-1.402-1.037-2.025-1.643-4.466-4.247-3.714-12.175.799-16.1,4.249-3.697,10.077-1.923,15.15-1.477l1.407.12-.981-1.019c-2.737-2.842-6.051-5.011-8.162-8.131-2.091-3.051-2.239-7.24-.624-10.57,1.526-3.385,4.894-5.817,8.626-6.058,1.544-.221,4.129.432,5.612.679,1.457.282,6.059,1.113,7.493,1.395l-1.269-1.278c-1.267-1.274-4.849-4.883-6.049-6.091-6.587-5.736-4.252-17.653,4.544-19.534,3.632-.744,7.455.067,10.893,1.378,3.489,1.284,6.77,3.452,9.661,5.764l9.125,6.945c17.569,13.242,37.287,28.431,54.184,42.377.329.272,1.362,1.109,1.665,1.36.838.597,1.037,1.728,1.063,2.774-.063,3.524-7.021,1.631-9.26,1.082-9.399-2.42-17.302-7.471-24.765-13.54l-2.728-2.161s1.969,2.868,1.969,2.868c6.143,9.126,15.279,15.643,24.909,20.667l1.418.791c.053.03.133.072.163.093.272.203.463.57.577.897.072.204.118.452.094.56-.007.037.002.015-.013.044-.319.442-1.012.81-1.486.893-.039.003-.079.007-.098.003-.004.003-.039-.003-.074-.009l-.1-.016c-7.238-1.104-17.728-3.759-24.944-5.431-4.209-1.004-8.413-2.045-12.642-2.999-7.371-1.767-18.005-3.31-25.591-4.558l-.163.674,20.073,6.396c6.743,2.06,13.774,2.792,20.587,4.504,6.868,1.57,13.234,4.543,19.503,7.693.323.176,1.471.674,1.723.869.411.409.693,1.094.695,1.66-.039.405-.451.613-.783.789-.377.177-.797.325-1.193.286l-1.312-.113-2.623-.227c-.006,0-10.493-.907-10.499-.907-7.908-.112-16.016.622-23.336,3.808-.003.001-.006.002-.009.004h0s.003,0,.004,0c11.355-1.813,23.226-.679,33.826,3.855,1.212.519,2.581,1.167,3.741,1.759.42.196.787.387,1.081.749.465.586,1.143,1.598.794,2.338-.185.378-.509.704-.857.971-.353.263-.753.478-1.17.569-.198.04-.436.048-.665.067l-.689.051-2.755.209c-9.122.717-18.43,1.35-27.571,1.004-18.297-.473-36.976-.589-55.23-1.474l-2.759-.114c-2.707-.126-5.4-.747-7.886-1.822-3.26-1.408-6.332-3.708-7.872-6.963ZM32.009,212.311c1.568-3.274,5.046-4.774,8.222-6.139,4.977-2.068,10.351-3.029,15.732-3.185,3.406-.136,12.827-.465,16.322-.608,8.664-.319,26.882-1.002,35.363-1.342,5.753-.188,23.865-.129,29.937-.193h.34c.204.009.479.162.687.258.174.107.347.194.448.316,0,.025-.003.069-.011.114-.055.301-.247.697-.46.962-.124.152-.141.154-.385.298l-.581.344c-10.764,6.388-23.463,10.247-36.033,9.124l-4.688-.44c1.433.473,2.994.997,4.586,1.466v.002s.005,0,.008,0c2.2.648,4.462,1.189,6.535,1.343,8.972.853,18.022-.253,26.67-2.701,1.081-.29,2.157-.599,3.231-.91l1.605-.474c.328-.062.988.094,1.312.287.211.095.437.265.451.324.138.532-.302,1.357-.757,1.659l-2.806,1.811c-5.444,3.526-11.394,7.46-17.049,10.57-6.521,3.51-14.274,7.247-20.88,10.633-.489.247-1.77.893-2.243,1.131l-.725.419-11.58,6.745s-1.913,1.114-1.913,1.114c16.814-4.833,37.74-16.513,53.505-24.299l5.576-2.156,1.394-.539c.198-.077.449-.022.678.043.429.135.942.353,1.194.724.222.654-.325,1.502-.634,1.959-2.365,1.831-4.788,3.591-7.072,5.532-4.544,3.892-8.617,8.394-11.699,13.538-1.543,2.561-2.839,5.271-3.859,8.082,0,.001-.002.002-.002.003h0c-.043.119-.088.236-.13.355l.204-.306c3.916-5.984,8.832-11.355,14.715-15.452,2.928-2.059,6.077-3.797,9.348-5.247,1.637-.699,3.332-1.377,5.122-1.518.507-.028,1.076-.01,1.584.146.055.017.109.037.163.057.136.052.266.115.388.191-.019-.012-.037-.026-.056-.038.086.047.176.09.256.148.056.041.108.101.157.175-.048-.051-.101-.096-.154-.139.056.047.109.097.16.151.135.27.233.576.286.891.039.277.048.572.02.847-.04.298-.126.586-.273.84.147-.246.23-.524.269-.811-.036.32-.121.612-.269.811-.672.906-1.355,1.802-2.045,2.692-.132.171-.264.337-.396.507-4.381,5.608-9.103,10.924-14.01,16.075-2.739,2.826-5.496,5.624-8.266,8.403-4.927,4.882-9.941,9.681-14.893,14.515-8.746,8.315-17.587,16.543-26.649,24.512-1.84,1.551-3.739,3.063-5.859,4.19-3.002,1.658-6.019,1.641-6.947-2.124-.399-1.764-.008-3.558.39-5.3l.076-.331-.305.15c.021-.009-5.521,2.703-5.419,2.658-11.039,3.209-16.748-9.791-10.314-17.877.753-.942,2.364-2.617,3.152-3.483.716-.774,3.049-3.296,3.802-4.11-5.919,1.2-12.454,3.621-18.174.544-3.505-1.795-5.449-5.777-5.432-9.614.007-6.176,6.164-9.869,10.416-13.436l.995-.806s-1.279.087-1.279.087c-4.798.38-10.3,1.19-14.122-2.38-4.733-4.289-5.255-13.286.611-16.835,1.712-1.094,3.696-2.222,5.305-3.605l-1.332-.086-5.434-.35-.679-.044-.638-.066-.629-.114-.615-.165c-4.59-1.4-5.495-6.617-3.515-10.52ZM149.424,235.39c-2.808,3.475-5.693,6.804-8.771,10.092,3.021-3.279,5.958-6.633,8.771-10.092ZM143.049,363.041c-2.523.536-5.088.609-7.66.688-3.026.031-16.483.754-19.301.565-6.971-.159-19.962-.473-27.039-.632-17.934-.474-43.442-.97-61.267-1.346.038-26.315.2-57.354-.028-83.426-.187-5.771-.363-14.183-.56-19.986-.219-7.058-.184-14.168.831-21.159.156.895.339,1.787.56,2.671,1.267,5.376,4.245,10.189,9.775,11.702-5.002,6.724-3.733,17.012,2.144,22.809,2.747,2.594,6.569,3.777,10.285,3.747-.637,1.665-1.052,3.418-1.177,5.195-.147,1.872-.01,3.756.313,5.596.586,3.663,1.879,7.44,4.806,9.9,2.268,1.393,4.818,2.325,7.448,2.723,2.598.395,5.266.261,7.819-.338.466,3.486,2.592,6.934,5.999,8.172,1.1.415,2.28.591,3.452.563.047,1.79.472,3.59,1.368,5.151.857,1.513,2.396,3.04,3.824,3.707-1.511,4.126-.985,8.746.589,12.773.549,1.384,1.33,2.651,2.282,3.772.06.071.12.141.181.211.085.096.171.191.259.285.845.918,1.816,1.721,2.909,2.392.037.023.073.047.109.069.118.071.24.139.361.207.181.104.365.204.551.299.032.016.064.032.096.048.575.29,1.17.541,1.78.752-.299-.105-.594-.22-.885-.344.577.242,1.18.454,1.809.633.875.249,1.75.458,2.622.622-.886-.163-1.763-.372-2.622-.622,1.674.494,3.453.839,5.244.972.077.006.154.008.231.013,2.784.178,5.583-.167,8.053-1.273.09-.037.18-.071.27-.11.09,3.287.988,5.839,2.682,7.802.038.045.075.091.115.135.106.118.215.234.327.348.078.08.159.159.24.236,1.404,1.343,3.241,2.376,5.527,3.144,4.97,1.758,10.612,1.297,15.3-1.083.417,1.78,1.233,3.485,2.462,4.851,2.501,2.81,6.206,4.15,9.805,4.866,1.652.329,3.326.531,5.004.66-2.242.862-4.542,1.575-6.895,2.039ZM180.787,357.333c.726-.78,1.369-1.657,1.939-2.606-.577.98-1.221,1.859-1.939,2.606ZM188.733,310.579v.01c0-.005,0-.01,0-.015v.005ZM189.639,274.938c-.256,9.697-.592,22.747-.849,32.434-.028,2.237-.435,9.495-.838,16.351l-.272,4.583c-.091,1.528-.178,2.96-.254,4.225.019-.314.04-.638.06-.971l-.313,5.262c-.119,1.999-.358,4.283-.757,6.618.311-1.902.517-3.768.665-5.505-.229,2.606-.592,5.521-1.239,8.38-.325,1.413-.716,2.81-1.182,4.141-.019.054-.038.108-.057.161-.038.105-.076.21-.115.314-1.002,2.676-2.368,5.095-4.247,6.893-2.396,2.179-5.759,3.127-8.955,2.768-2.08-.276-4.32-.836-5.906-2.276-.771-.748-1.251-1.747-1.522-2.778-.759-3.215-.158-6.539.173-9.777-2.452,2.717-4.617,5.821-7.761,7.792-5.329,3.443-16.855.469-17.791-6.508-.204-1.414.241-4.017.323-5.406l.52-5.422.032-.334-.212.261c.011-.012-6.237,7.661-6.183,7.599-1.093,1.01-2.338,1.87-3.717,2.428-4.744,1.956-11.058.233-13.707-4.276-2.7-4.793.292-10.966,1.636-15.851,0,0-.579.497-.579.497-4.834,4.205-9.725,10.004-16.806,8.492-5.698-1.09-10.125-5.84-9.04-11.834.545-2.784,2.316-5.029,4.039-7.244l.542-.697c-1.277.256-2.671.447-3.944.12-5.313-1.218-3.402-6.777-.863-9.786l2.13-2.422c2.112-2.413,6.442-7.285,8.547-9.697,1.135-1.347,3.208-3.439,4.406-4.728,8.242-8.563,18.45-19.641,26.823-28.01-.028.029,18.34-18.448,18.203-18.313,0,0,5.294-4.619,5.294-4.619.394-.357,1.622-1.397,1.985-1.732.926-.884,2.358-1.37,3.617-1.359,1.803.159,2.231,2.459,1.822,3.938l-.061.209s-.242.835-.242.835c-3.584,12.734-11.78,23.009-20.941,32.256,3.264-1.803,6.925-3.865,9.787-6.233,4.382-3.589,8.273-7.796,11.508-12.441.703-1.043,2.375-3.584,3.116-4.679,1.051-1.584,2.87-4.3,3.894-5.848.193-.294.528-.423.87-.575.185-.075.368-.125.554-.145.28.229.528.688.592,1.072.018.11.032.224.022.294-.011.047.003.021-.029.121-.53,1.697-4.785,15.249-5.389,17.185.064-.173-4.392,11.197-4.38,11.162-4.495,11.928-9.944,23.446-13.841,35.617,0,0,1.441-1.541,1.441-1.541.897-.919,1.674-2.515,2.331-3.59.693-1.213,1.376-2.433,2.043-3.661,5.403-9.624,9.495-20.359,13.564-30.62,2.898-7.567,6.649-16.131,10.267-22.656,0,0,1.214-.578,1.397-.665.01.02.019.041.028.063.044.108.08.236.11.365.031.129.055.262.074.394.018.119.032.283.03.341-2.132,8.461-3.424,17.243-2.436,25.981.319,3.345,1.203,6.655,2.653,9.699-.067-.452-.127-.905-.182-1.358.002,0,.006-.002.006-.002-.003-.008-.006-.015-.009-.023-.912-7.466-.298-15.085,1.825-22.307,1.12-4.306,2.962-8.827,5.006-12.526l1.34-.616c.132-.063.171-.084.27-.037.383.239.647.688.783,1.118.033.108.03.212.031.343l.008.737c.085,7.222.188,17.838.275,25.069.022.729.002,2.222-.025,2.949ZM189.493,225.849c-.236,3.419-.452,7.076-.643,10.382,0,0-1.143,3.288-1.143,3.288,0,0,0,0,0,0-3.943-.355-7.846-1.179-11.521-2.642-1.838-.705-3.603-1.586-5.3-2.572-.825-.484-1.665-.965-2.356-1.629-2.185-2.011-2.17-5.153-.75-7.61,2.686-5.032,5.792-9.849,9.194-14.432,1.813,1.559,3.848,2.897,6.084,3.8,2.27.931,4.703,1.424,7.135,1.532-.238,3.294-.484,6.587-.699,9.883ZM178.851,206.436c-3.539-3.545-5.646-8.479-5.894-13.461-.362-7.375,3.347-15.099,9.982-18.606,12.233-6.548,25.947,2.681,26.891,15.987.55,6.172-1.955,12.461-6.507,16.602-.113.101-.227.202-.342.301-.089.077-.177.155-.267.23-.89.732-1.857,1.4-2.903,1.991-.197.111-.396.214-.595.317-.742.38-1.489.701-2.237.97.039-.014.077-.025.116-.039-.251.091-.502.177-.754.256.213-.068.425-.14.638-.216-6.269,2.186-13.371.514-18.128-4.331ZM193.125,226.541l-.763-10.704c2.374-.133,4.77-.547,7.014-1.448,2.152-.847,4.133-2.095,5.902-3.575,1.956,3.032,3.938,6.048,5.946,9.047,1.061,1.596,2.134,3.186,3.218,4.769.222.331.566.824.721,1.187,1.318,2.522.891,5.625-1.523,7.305-4.589,3.292-9.982,5.336-15.565,6.102-.581.078-1.166.148-1.756.202-.001,0-.003,0-.004,0-.291.027-.555-.004-.794-.078-.047-.016-.093-.035-.138-.055-.022-.009-.043-.019-.065-.029-.461-.219-.836-.622-1.083-1.084,0-.001-.002-.003-.002-.004-.094-.176-.169-.36-.223-.546-.167-1.847-.324-3.694-.465-5.543-.152-1.848-.292-3.697-.419-5.548ZM203.249,244.674c.003-.01.007-.026.007-.026.006-.022,0,.008-.007.026ZM205.052,359.344c1.375.679,2.956,1.113,4.58,1.275-1.622-.142-3.169-.571-4.58-1.275ZM215.471,359.928c.477-.179.937-.391,1.377-.636-.432.248-.893.461-1.377.636ZM226.722,353.858c-1.491-.772-2.653-2.037-3.625-3.38l-3.059-3.985-.065-.085v.107s.034,4.37.034,4.37c.003,3.193.478,5.729-2.437,7.913-1.308.899-2.862,1.457-4.492,1.709-.037.006-.074.01-.111.015-.207.03-.415.055-.624.075-.07.007-.14.013-.209.019-2.455.2-5.003-.264-7.084-1.291-1.853-.911-3.41-2.328-4.58-4.018.856,1.243,1.917,2.342,3.156,3.199-1.454-.998-2.707-2.342-3.682-4.016.004.006.008.012.012.019-.019-.033-.038-.066-.057-.099.005.009.009.018.014.027-.069-.119-.14-.235-.205-.358.061.112.127.221.191.331-.16-.275-.312-.554-.452-.84-.081-.166-.159-.333-.235-.504-.005-.012-.01-.024-.015-.036-.907-2.072-1.689-4.203-2.259-6.393-.581-2.201-.912-4.463-1.015-6.736l-.886-13.625-.443-6.812c-.143-1.943-.113-4.862-.184-6.823-.163-10.661-.786-33.526-.832-44.364.047-4.923.204-12.115.255-17.064.049-1.897-.105-4.78.704-6.56.672.219,1.273.666,1.731,1.21.245.295.43.607.575.971l.466,1.076c2.428,5.764,4.096,11.84,5.002,18.027.905,5.153.337,10.361.136,15.56,1.108-2.792,1.915-5.74,2.32-8.71.36-2.475.525-4.969.642-7.456-.363-6.269-1.294-13.653-2.571-19.206.059-.19.283-1.028.334-1.181l.046-.164c.126.028.251.075.376.144.204.112.408.268.516.413l1.491,2.858,3.02,5.806c-.075-.158,10.838,26.296,10.811,26.251,1.454,3.702,4.131,9.325,5.782,12.988,1.018,2.212,3.412,7.588,4.53,9.657.875,1.737,2.67,5.256,3.553,7.012-1.249-5.713-2.908-11.566-5.03-16.988-2.815-7.281-6.845-17.513-9.709-24.897-1.589-4.157-3.358-8.252-4.555-12.544-.635-2.029-2.376-7.623-2.982-9.558-.165-.533-.62-1.982-.774-2.483-.039-.471.247-1.095.516-1.408.305-.008.749.132,1.016.346.083.056.144.121.173.157.002-.003.048.072.082.13,1.616,2.678,3.24,5.39,4.97,8.004,2.445,3.764,5.3,7.256,8.431,10.477,3.092,3.265,6.525,6.313,10.534,8.432l3.123,1.668c-3.669-3.872-7.406-7.923-10.523-12.232-4.293-5.909-7.69-12.557-9.516-19.638-.674-2.837-.145-5.717,3.358-4.405.2.099.303.181.527.381,0,0,4.781,4.163,4.781,4.162,5.417,5.537,13.653,13.505,19.021,19.157,10.794,11.103,27.023,27.806,37.366,39.076,1.498,1.64,5.532,5.788,6.807,7.459,2.292,3.144,4.87,8.2-.206,10.039-.125.044-.245.073-.374.104l-.413.088-3.306.702-.4.085s.216.345.216.345c2.05,3.087,3.912,6.286,3.077,10.107-.611,3.707-3.394,6.472-6.817,7.787-3.411,1.304-7.357.929-10.515-.885-1.624-.871-2.933-2.189-4.316-3.391-.781-.695-3.72-3.294-4.578-4.059,0,0,.154.552.154.552,1.888,6.734,4.569,16.412-4.014,19.496-2.611.993-5.555,1.22-8.168.141-4.353-1.912-7.07-6.095-9.528-9.982l-.175-.283.033.331s.493,4.999.492,4.999c.525,3.912.565,7.539-2.511,10.461-3.284,2.944-8.835,4.067-12.843,2.018ZM332.445,370.439l2.176.006,2.715.026c-1.602-.011-3.234-.022-4.891-.032ZM353.183,370.623h.089c.025.001.05.003.075.004-.055-.001-.109-.002-.164-.004ZM353.256,238.827c.603,4.233.967,8.493.904,12.758-.11,5.305-.348,18.686-.46,23.853-.066,2.267-.076,5.669-.015,7.952.245,10.194.196,37.156.169,47.702.034,7.76-.073,23.154-.218,31.255-1.741,0-7.113.001-7.113.001-13.942.244-39.328,1.002-53.514,1.352l-15.289.407-15.289-.169c-4.41-.086-10.96-.008-15.265-.313-4.723-.355-9.412-1.229-13.921-2.691,1.301-.253,2.6-.532,3.885-.88,3.197-.868,6.501-2.246,8.585-4.946,1.002-1.28,1.678-2.783,2.094-4.339,4.566,2.504,10.122,2.495,14.986.906,5.155-1.513,8.757-6.174,8.934-11.532-.032.699-.124,1.383-.266,2.049.134-.657.224-1.34.266-2.049,1.414.533,2.931.891,4.487,1.081,5.071.672,10.448-.4,14.529-3.484,5.294-4.21,6.841-11.694,5.547-18.1,3.878-1.568,6.335-5.268,6.271-9.447,1.122.049,2.258-.072,3.339-.408,3.508-1.029,5.862-4.331,6.557-7.814,3.039.457,6.174.542,9.181-.197,3.927-.896,7.505-3.471,9.264-7.144,2.211-4.919,2.52-10.689.885-15.834,3.963-.161,7.867-1.912,10.373-5.064,2.625-3.218,3.829-7.433,3.899-11.542.255-3.531-.711-7.123-2.79-9.989,3.191-1.009,5.973-3.301,7.507-6.281,1.208-2.23,1.929-4.644,2.479-7.094ZM303.795,301.056c.912-.072,1.788-.448,2.458-1.062-.652.618-1.503,1.004-2.458,1.062ZM307.283,298.41c.098-.284.169-.571.217-.86-.046.3-.118.587-.217.86ZM307.528,297.371c.003-.024.005-.048.008-.072-.001.012,0,.025-.002.037-.001.012-.004.023-.006.035ZM350.128,211.148c1.726,3.218,1.867,7.926-.831,10.658-.821.859-2.274,1.448-3.304,1.591-1.288.028-7.996.108-9.304.14,7.568,4.324,12.002,6.758,9.326,16.374-.991,3.234-3.599,5.996-6.946,6.763-3.479.769-7.086.151-10.609-.04l.29.246,7.283,6.182c.484.532,1.04,1.212,1.443,1.858,2.188,3.341,2.216,7.778.453,11.308-4.353,8.426-14.016,5.434-21.368,3.675l-.186-.042.131.138c1.248,1.319,4.55,4.768,5.717,6.02,1.87,2.018,3.227,4.569,3.588,7.312,1.045,8.169-5.837,14.68-13.853,11.702-1.614-.599-3.183-1.658-4.645-2.449.02.012.04.025.061.038-.035-.02-.069-.04-.104-.061.014.008.029.016.043.023-.075-.047-.152-.094-.227-.14,0,.003,0,.006.001.01-.005-.003-.009-.005-.014-.008,0,.003,0,.006.001.009-.005-.002-.009-.005-.014-.007.115.947.323,1.92.432,2.892.007.064.015.129.021.192.003.034.006.067.008.101.014.154.024.307.031.458.002.043.005.087.006.13.004.099.003.196.004.294-.002.684-.09,1.361-.338,2.02-.039.109-.086.214-.134.317-.026.052-.052.103-.079.154-.027.051-.055.102-.084.151-.057.095-.119.187-.183.277-.017.024-.034.049-.052.073-.051.067-.106.129-.16.192-.767.875-1.921,1.37-3.093,1.363-.084-.002-.166-.002-.251-.009-.022-.002-.043-.004-.065-.006-.315-.031-.638-.096-.966-.2,0,0,0,0-.002,0-.001,0-.002,0-.003-.001-.798-.254-1.552-.574-2.277-.94-1.566-.802-3.002-1.851-4.384-2.953-.084-.067-.168-.134-.252-.201-.278-.224-.554-.449-.828-.674-7.142-5.73-14.046-11.753-20.801-17.933-13.42-12.444-26.714-25.089-38.82-38.833-1.983-2.309-4.048-4.573-5.828-7.043-.927-1.385-3.23-4.64-.991-5.772.648-.274,1.451-.448,2.136-.281,7.257,2.317,13.788,6.58,19.317,11.779,3.42,3.073,5.885,6.937,8.577,10.639l1.036,1.416-.62-1.643c-3.123-8.271-8.384-15.743-15.118-21.469-.845-.71-5.543-4.785-6.264-5.381l-.626-.538c-.243-.195-.292-.26-.409-.518-1.456-3.409,5.951-.085,7.333.513,4.086,1.716,24.921,13.039,29.241,15.255,7.783,4.139,15.726,8.157,24.252,10.577l4.121,1.179c-1.686-.958-25.067-14.234-27.503-15.618-11.123-5.698-21.84-12.205-32.078-19.382l-.35-.243c-.223-.177-.419-.493-.531-.777-.09-.206-.148-.46-.14-.57,0-.003,0-.004,0-.006.261-.353,1.008-.588,1.4-.535,1.594.474,3.294.956,4.893,1.409,6.621,1.81,13.414,3.317,20.309,3.384,3.438.061,6.95-.271,10.308-1.034,2.115-.465,5.812-1.628,7.947-2.204l-4.796.173c-.89-.002-5.414.273-6.205.155-4.527-.181-9.035-.902-13.408-2.081-6.325-1.698-12.357-4.448-17.857-8.002-.156-.357-.377-.863-.533-1.218.227-.2.659-.364.937-.451,7.243.01,20.26.018,27.359.03,12.375.438,38.74,1.35,50.908,1.815,4.516.222,11.213.174,15.586.97,4.926.895,10.441,2.591,12.932,7.308ZM242.332,201.307s0-.002-.001-.003c0,0-.016-.033-.003-.01.002.004.003.009.005.013ZM242.437,192.38c-.115.342-.14.702-.045,1.078-.106-.364-.083-.724.045-1.078ZM242.486,193.723c.058.104.122.204.192.3-.078-.1-.145-.198-.188-.289-.002-.004-.002-.007-.004-.011ZM350.909,185.567c-3.623,9.815-18.565,10.339-27.437,10.402-8.913.195-26.879.536-35.792.735-14.055.402-28.493.31-42.445-1.387-.679-.02-1.361-.262-1.911-.673-.029-.021-.054-.044-.082-.066-.308-.246-.572-.544-.761-.891-.252-.68-.115-1.307.254-1.875.05-.074.097-.148.156-.221,0,0,0,0,.001-.002.442-.552,1.11-1.076,1.896-1.555.982-.587,2.051-1.043,2.777-1.35-.579.242-1.417.595-2.253,1.046.706-.389,1.479-.742,2.258-1.049-.002,0-.004.002-.006.002.002,0,.004-.002.006-.003.001,0,.003,0,.004-.002-.001,0-.002,0-.004.001.002,0,.003-.001.004-.002,0,0,0,0,.002,0,1.134-.445,2.246-.856,3.342-1.232.02-.007.04-.014.061-.021.337-.116.672-.228,1.005-.337.053-.017.107-.034.16-.051.305-.099.609-.196.911-.289.063-.019.126-.038.189-.058.302-.092.602-.183.902-.27.043-.012.085-.024.128-.037.186-.054.37-.104.555-.156,9.008-2.438,18.077-2.619,27.6-.775l.279.05-.256-.121c-6.202-2.952-13.094-4.074-19.907-4.387-5.668-.333-11.415.401-17.031,1.162-.562.081-1.112.167-1.669.03-1.385-.263-1.72-1.447-.782-2.365,1.171-1.264,2.878-1.763,4.41-2.457,2.097-.884,4.22-1.71,6.37-2.458,10.202-3.614,20.888-5.637,31.46-7.863,7.972-1.962,15.662-5.017,23.183-8.284-.636.131-18.384,3.816-19.687,4.085-15.15,3.149-30.177,7.023-45.485,9.335-.344.049-1.312.182-1.64.23-.326.045-1.691-.652-1.543-1.075.07-.547.451-1.191.852-1.613.698-.385,7.675-4.232,7.675-4.232,7.804-4.243,15.004-9.993,19.77-17.586,0,0,1.873-2.924,1.873-2.925-6.513,5.788-13.779,10.944-21.991,13.988-3.976,1.511-8.124,2.563-12.338,3.139-.41.049-.84.03-1.252-.049-3.518-.721-1.923-3.893-.081-5.559,4.908-4.202,12.501-10.522,17.487-14.747,1.646-1.343,9.428-8.049,11.004-9.155,11.561-8.795,25.093-18.664,36.874-27.188,5.563-4.45,17.26-8.077,23.313-3.053,2.738,2.421,4.16,6.221,3.728,9.857-.274,2.74-1.588,5.335-3.547,7.256-1.277,1.226-4.945,4.693-6.232,5.91l-1.081,1.023,1.472-.207,10.196-1.433c1.163-.051,2.836.098,4.068.553,3.567,1.125,5.955,4.455,6.663,8.031.383,1.872.392,3.855-.281,5.662-1.65,4.416-5.758,7.201-9.368,10.014l1.121-.046c1.414-.056,5.432-.227,6.771-.279,2.214-.169,4.438.101,6.372,1.228,5.147,2.959,6.758,10.409,4.043,15.539-.652,1.27-1.8,2.48-2.832,3.305-.915.555-5.751,3.625-6.669,4.175.46.041,4.516.377,5.17.435,1.471.124,2.95.174,4.289.834,4.321,1.946,5.186,7.246,3.713,11.353ZM353.239,27.043c-.713,13.822.012,30.809.07,44.623.37,14.992-.531,30.165-.782,45.142-.155,5.64-.397,11.274-.941,16.886-.354,4.286-1.426,8.497-3.15,12.437-1.734-.881-3.545-1.63-5.417-2.168,1.116-1.853,1.742-3.948,2.081-6.056.145-4.297-.667-8.696-2.775-12.473-2.123-3.895-6.179-6.203-10.563-6.393,0,0-.002,0-.003,0,3.102-8.161,2.02-19.79-6.656-23.997-4.879-2.27-10.398-2.946-15.714-2.252.693-5.055-1.467-10.55-6.232-12.838,0,0-3.891-1.874-4.328-2.084,2.406-8.258.696-18.846-7.347-23.371-4.541-2.541-9.971-2.929-15.042-2.254-.202-5.717-4.298-10.922-9.75-12.623-2.706-.905-5.552-1.488-8.441-1.482-2.69-.003-5.393.549-7.864,1.637-2.931-8.211-12.893-9.64-20.797-9.341,8.191-5.806,19.01-5.425,28.699-5.374,5.925.077,34.431.002,39.798.32,14.647.456,33.103,1.385,47.746,1.571,0,0,6.444.08,7.408.092Z"/>
      <path d="M363.506,371.458c-.176-.433-.34-.871-.493-1.313.153.442.318.879.493,1.313Z"/>
      <path d="M199.956,354.507c.144.245.299.483.458.718-.16-.234-.313-.474-.458-.718Z"/>
      <path d="M200.469,355.305c-.018-.027-.038-.053-.056-.08.018.027.037.053.056.08Z"/>
      <path d="M363.513,371.477c-.002-.006-.005-.012-.007-.018.002.006.005.012.007.018Z"/>
      <path d="M359.256,371.926c-.045-.02-.09-.04-.135-.059.045.02.09.039.135.059Z"/>
      <path d="M359.81,372.18c.241.117.482.237.718.364-.236-.127-.476-.248-.718-.364Z"/>
      <path d="M187.427,332.531c-.117,1.9-.208,3.417-.253,4.291.05-.891.14-2.405.253-4.291Z"/>
    </g>
  </g>
</svg>