<?xml version="1.0" encoding="UTF-8"?>
<svg id="b" data-name="Layer 2" xmlns="http://www.w3.org/2000/svg" width="326.09" height="324.12" viewBox="0 0 326.09 324.12">
  <g id="c" data-name="Layer 1">
    <g id="d" data-name="WJEIHb">
      <g>
        <path d="M326.09,324.12l-326.09-.01V27.818S.002,0,.002,0l326.086.012v324.108ZM320.124,6.11l-147.509-.027-98.709.013-29.885-.008-25.463.013-12.648.046.007,121.909-.005,43.221.004,146.877,314.257.036-.049-312.079Z"/>
        <path d="M162.778,304.302c-.146.463-.331.797-.384.786l-13.14-44.012-12.346-41.02-26.271,13.814-40.973,21.646,34.184-68.508-35.167-10.913-51.576-15.886,86.757-25.212-10.097-20.067-23.839-46.68,67.489,33.885,13.599-45.367,12.319-41.011,11.176,37.121,14.485,49.25,67.354-33.881-27.446,53.917-6.41,12.828,86.731,25.227-35.63,11.091-51.07,15.664,8.87,17.818,24.93,50.475-46.671-24.713-20.248-10.554-26.627,84.299ZM210.808,209.492v-96.621s-95.282.003-95.282.003v96.618s95.282,0,95.282,0Z"/>
        <polygon points="181.738 186.114 163.284 204.647 120.3 161.621 163.276 118.616 206.216 161.621 181.738 186.114"/>
      </g>
    </g>
  </g>
</svg>