<?xml version="1.0" encoding="UTF-8"?>
<svg id="b" data-name="Layer 2" xmlns="http://www.w3.org/2000/svg" width="623.469" height="232.196" viewBox="0 0 623.469 232.196">
  <g id="c" data-name="Layer 1">
    <g>
      <path d="M545.154,198.316c2.146,6.283,7.477,11.184,14.271,13.113,4.419,1.169,8.476.951,12.063-.646,4.402.688,8.995-.304,14.002-3.014,3.023-1.429,5.741-1.56,8.078-.387l.21.105.232-.034c1.992-.285,3.833-.116,6.016.562l3.848.915c.119.028.4.095,1.276-.234l.392-.169.098-.375c.117-.453-.177-.803-.412-1.084-.035-.041-.067-.078-.086-.104l-4.579-6.792-5.721-7.756c-3.344-3.713-7.663-5.277-11.648-4.259l1.373-3.755-.49-.327c-2.846-1.899-4.545-.123-6.044,1.449-.273.287-.549.575-.835.851,1.472-2.387,1.875-5.413,1.032-8.592-2.677-10.097-12.002-21.375-22.975-22.769-1.377-.173-2.646-.012-3.938.231l.166-.178c.285-.265.675-.627.585-1.134l-.113-.449-1.16-.486-5.202-.579c-5.441-.117-10.157,1.252-14.494,2.93,4.786-6.722,10.88-8.404,19.476-5.483l.547.186.921-1.389-1.072-1.588c-5.745-8.516-15.882-14.468-24.743-14.467l-3.008.372-.481.187c-4.733-4.155-11.491-5.136-16.609-2.358-3.983,2.162-7.112,6.713-7.97,11.594-.675,3.835.114,7.254,2.22,9.628,2.05,2.311,4.926,3.017,7.696,2.019-.987,1.901-2.67,3.353-4.948,4.25-3.977,1.566-8.325,1.362-12.245-.577-4.095-2.025-7.217-5.721-8.632-10.192,2.048-1.51,3.773-3.023,5.543-4.856l.656-.679-1.163-.697c1.975-.199,4.189-1.098,5.728-2.139,2.896-1.959,5.29-4.242,7.994-7.067l15.505-16.205-15.176-15.513-.859-.883c-3.776-3.889-7.666-7.895-12.979-8.701l1.253-.887-5.431-4.852c1.617-4.002,4.779-7.234,8.742-8.915,4.126-1.75,8.662-1.713,12.772.101,1.409.623,3.146,1.759,4.162,3.779-3.491-1.112-6.99.164-8.918,3.427-1.44,2.437-1.763,5.531-.909,8.711,1.068,3.981,3.836,7.639,7.224,9.546,4.781,2.691,10.972,2.139,16.244-1.43,2.832.873,5.626.91,8.271.122,8.127-1.892,15.427-7.17,20.555-14.862l.526-1.639-.326-.321c-.276-.272-.715-.313-1.301-.121-3.61,1.186-6.939,1.449-10.177.806-4.057-.808-6.244-2.704-8.855-6.301,7.973,3.09,14.954,3.714,20.761,1.854l1.223-.392-1.375-1.274c4.862.797,10.512-1.22,15.805-5.702,7.358-6.231,11.84-15.412,11.068-22.551l.01-.005h0s.272-.125.272-.125c.005-.002.01-.004.014-.006l.094-.042-.002-.004c.127-.071.219-.15.286-.232,1.38,1.287,3.002,1.479,4.694.518l.517-.293-1.105-3.761c7.411,1.853,12.566-4.618,15.816-9.694l5.805-9.075.568-1.049.23-.472-.3-.385c-.122-.156-.406-.521-1.714-.193l-4.614,1.168-4.871.626c-.632.136-1.212.342-1.772.542-1.391.494-2.487.886-3.973.205l-5.387-2.47c-2.751-1.262-6.896-2.568-11.189-1.759l.009-.608-.532-.168c-10.154-3.209-21.671,2.628-25.674,13.01-1.477,3.833-1.467,7.771.03,11.39.805,1.942,2.286,2.909,3.083,3.428.022.015.046.03.067.044l-.093.149c-1.192,1.913-3.18,3.314-5.596,3.945-4.605,1.201-9.446-.415-12.54-4.126,5.383-4.478,7.151-10.304,8.741-16.879.786-3.251,2.06-5.833,4.258-8.631l.898-1.144-1.453-.068c-4.971-.232-8.482,1.948-12.178,4.261l-.733.458c-2.587,1.609-6.572,2.105-8.862-.147-7.307-7.188-18.419-9.493-26.479-5.519-.047-.02-.108-.055-.164-.104l-.209-.185-.28-.002c-10.992-.105-21.462,4.32-28.817,12.154-2.71,3.054-4.325,5.801-5.148,8.789-.177-.214-.4-.413-.646-.5-.256-.092-.529-.066-.749.07l-.835.511c-2.812,1.721-5.04,4.19-6.631,7.349l-1.039-.599-.649,1.444c-.625-6.931-6.405-12.693-11.147-17.42l-.135-.134c-5.027-5.012-8.868-9.64-12.089-14.566l-.586-.895-6.193,8.26-9.278,9.6c-4.226,4.372-7.837,8.557-8.87,14.479-1.282-2.858-3.134-5.594-6.245-7.248l-.845-.448-.373-.167-.326.134c-.095.039-.18.09-.258.16-.868-3.152-2.636-5.618-4.316-7.665-7.274-8.229-17.633-13.074-28.418-13.291l-.204-.004-.178.1c-.361.202-.521.203-.943.013-4.888-2.203-10.54-2.423-16.345-.639-4.517,1.371-8.276,3.624-11.177,6.697-3.08,1.582-6.63,1.237-9.778-.971-3.47-2.239-7.678-4.473-12.659-4.082l-1.482.118.977,1.122c2.611,3.002,4.176,6.171,5.072,10.274,1.056,4.833,2.928,10.875,8.07,15.241-3.304,3.601-8.097,5.31-12.685,4.479-3.037-.551-5.37-2.026-6.947-4.389,2.01-1.131,3.43-2.996,4.128-5.441,1.155-4.042.191-9.161-2.457-13.039-5.362-7.857-15.482-11.618-24.604-9.146l-1.026.279.649.934c-2.313-.474-5.178-.695-8.002.314l-7.79,2.783c-1.247.438-4.392,1.228-6.64-.887l-.122-.115-.16-.052c-4.708-1.527-8.537-2.259-12.415-2.371l-1.603-.047.991,1.26c2.738,3.479,4.965,6.772,7.22,10.676,4.782,8.282,10.603,11.834,16.576,10.175l-1.66,3.937.865.203c3.278.772,5.126-.877,6.506-2.588.157-.195.328-.378.51-.548-1.459,1.808-2.146,4.161-1.849,6.72.367,3.156,1.544,6.335,3.703,10.006,3.775,6.421,9.069,11.091,15.31,13.503,2.903,1.122,5.562,1.506,8.347,1.175l-1.358,1.317,1.2.378c6.769,2.131,14.352,1.531,23.12-1.842-4.781,6.309-10.875,7.814-20.943,5.398l-1.819-.436,1.015,1.572c3.219,4.992,7.428,9.08,12.509,12.149,3.073,1.856,10.823,5.855,17.315,3.58,4.108,2.872,9.028,3.78,13.557,2.486,3.488-.996,6.71-3.794,8.618-7.485,1.784-3.451,2.171-7.236,1.062-10.385-.785-2.232-2.455-3.949-4.582-4.709-1.548-.555-3.185-.564-4.742-.051.965-1.918,2.666-3.071,4.063-3.732,4.104-1.939,8.885-2.015,13.123-.205,3.906,1.668,6.926,4.794,8.353,8.626l-5.777,4.945,1.302.947c-3.942.482-8.068,3.042-12.54,7.764l-16.453,17.378,14.706,16.037c4.021,4.385,8.39,8.661,13.945,9.436l-1.164.783,5.98,5.192c-1.63,4.865-5.098,8.757-9.576,10.723-4.066,1.786-8.475,1.734-12.409-.145-1.784-.852-3.167-2.19-4.016-3.857,1.871.656,3.67.584,5.284-.229,2.785-1.405,4.554-4.031,4.852-7.206.632-6.738-2.982-13.409-8.79-16.223-4.723-2.288-10.505-1.354-15.524,2.497-8.162-1.363-21.127,3.725-29.456,15.988l-.887,1.305,10.116-.884c4.39.183,8.054,1.935,10.316,4.932l.818,1.084c-5.354-2.106-13.592-4.25-21.695-2.015l-1.214.335,1.419,1.476c-4.266-.617-8.593.605-13.156,3.698-5.163,3.499-9.266,8.357-12.193,14.442-2.683,5.572-2.853,10.163-.549,13.509-.222-.193-.443-.397-.671-.606-1.479-1.36-3.157-2.904-6.196-2.326l-.771.146.182.764c.293,1.233.639,2.242,1.061,3.236-3.73-.963-7.69.025-10.872,2.797-2.202,1.919-3.854,4.298-5.453,6.598l-8.985,12.774,1.466-.017c5.256-.061,9.538-.937,13.092-2.679,2.13-1.045,4.258-1.104,6.898-.189l7.106,2.463c2.471.857,5.114.979,8.182.358l-.436.496,1.17.311c9.398,2.491,19.869-1.75,24.896-10.088,2.28-3.784,3.063-8.663,1.993-12.43-.676-2.381-2.04-4.259-3.966-5.479,1.655-2.366,4.069-3.868,6.871-4.257,4.721-.653,9.365,1.018,12.563,4.492-3.747,3.147-6.344,7.641-7.725,13.372-.992,4.119-2.355,8.469-5.587,12.375l-.977,1.18,1.531.047c5.2.172,9.266-2.074,13.328-4.579,2.994-1.844,7.271-2.504,10.079.186,7.111,6.813,17.971,8.849,26.629,5.219l-.14.275,1.254-.029c11.399-.267,22.028-5.184,29.162-13.489,2.092-2.437,3.55-4.998,4.423-7.784l.37.683.677-.425c2.985-1.873,4.865-3.69,6.095-5.894l1.32-2.363c1.568,6.241,6.094,11.269,10.298,15.546,5.479,5.575,9.51,10.389,13.069,15.609l.644.943.61-.965c3.18-5.024,7.07-9.762,12.618-15.363,4.933-4.981,10.164-10.773,11.106-17.329.181.236.387.463.557.588l.806.59c1.402,4.042,4.242,7.292,8.018,9.167l.753.374.13-.36c.721,2.219,1.717,4.183,3.062,6.056,6.698,9.33,18.504,14.898,30.822,14.526l1.203-.036-.072-.137c5.366,2.139,11.511,2.094,17.542-.171,3.399-1.276,5.849-3.293,8.697-5.797,2.521-2.217,6.548-1.32,9.223.454,3.362,2.229,7.365,4.587,12.461,4.545l1.479-.017-.888-1.183c-2.26-3.013-3.713-6.277-4.712-10.583-1.199-5.172-3.121-10.992-8.235-15.241,2.69-3.249,6.676-4.977,10.562-4.536,4.139.47,6.656,3.115,7.378,4.257l-.048.025c-4.613,2.415-5.357,9.751-3.412,15.45ZM532.285,203.121c-3.762-2.698-9.431-3.623-12.993-.176-6.006,5.81-14.139,7.987-21.769,5.826-3.495-.99-6.229-3.006-8.601-6.343l-1.15-1.618-.207,1.975c-.233,2.224.638,3.766,1.755,5.237-6.793-.758-13.22-3.414-18.682-7.736-4.383-3.467-8.847-9.498-8.228-16.025l.154-1.638-1.338.958c-1.136.813-1.985,1.794-2.681,3.113-2.255-1.792-3.999-4.354-5.084-7.475,3.03-3.465,5.121-7.421,6.351-12.028,6.4,14.756,18.631,25.041,32.38,27.061,4.624.677,10.37.332,12.625-2.676l.888-1.186-1.481-.014c-3.165-.03-5.075-1.175-5.839-3.499-.949-2.889.394-6.101,3.266-7.811,5.022-2.993,12.347-1.979,17.906.082-1.13,1.189-2.191,2.512-2.724,4.441l-.444,1.61,1.498-.738c3.801-1.873,7.381-1.569,10.641.908,4.592,3.491,5.964,8.429,7.417,13.657.667,2.402,1.354,4.872,2.377,7.254-2.212-.63-4.007-1.703-6.037-3.16ZM390.463,182.74l.187,1.489c.497,3.975-1.514,8.691-5.379,12.616-5.626,5.71-13.139,9.547-21.306,10.911,1.04-1.506,1.912-3.027,1.868-5.121l-.039-1.831-1.257,1.333c-.363.385-.716.774-1.066,1.16-1.402,1.546-2.727,3.006-4.488,3.961-5.338,2.893-11.873,3.101-18.407.58-2.959-1.142-5.072-2.815-7.733-5.056-1.655-1.393-3.659-1.964-5.68-1.964-2.263,0-4.546.716-6.382,1.795l-.722.426c-2.402,1.42-4.534,2.68-7.056,3.393,1.249-2.31,2.188-4.822,2.918-7.775,2.293-9.307,6.218-14.336,11.996-15.375,1.891-.34,3.561.168,5.675.811.327.099.66.201,1.003.301l1.396.41-.477-1.375c-.559-1.61-1.457-2.989-2.86-4.364,7.702-3.087,19.093-2.064,21.881,3.773.855,1.791.689,3.764-.453,5.412-.941,1.356-2.53,2.016-5.312,2.204l-1.543.104,1.038,1.147c2.094,2.313,5.191,2.63,7.34,2.667.192.003.384.005.575.005,14.244,0,27.886-9.106,36.047-23.995,1.553,4.008,3.633,7.263,6.453,10.117-.766,1.817-2.086,4.107-4.274,5.821-.729-1.318-1.58-2.229-2.64-2.834l-1.303-.744ZM322.939,136.055c4.248-1.125,8.479.439,11.032,4.086l.306.437.514-.146c.631-.179,1.048-.598,1.173-1.18.35-1.624-1.785-3.92-3.002-5.074,3.793-2.163,8.084-2.402,11.397-.589,4.42,2.42,7.867,9.704,5.517,15.118-.677,1.561-2.17,2.624-3.805,2.708-1.738.086-3.103-.729-4.475-2.746l-.736-1.083-.562,1.183c-.541,1.14-.671,2.458-.375,3.81.903,4.12,3.854,7.338,8.097,8.828,4.62,1.624,9.363,1.373,13.721-.726,4.654-2.241,8.431-6.473,10.463-11.69,2.057.998,4.117,1.764,6.262,2.329l.021,9.592c-5.529,10.928-17.524,16.827-29.235,14.347-5.295-1.119-10.119-3.583-15.184-7.754-3.944-3.249-6.763-7.351-9.311-11.274-4.565-7.047-9.456-10.08-16.729-10.08-.623,0-1.265.022-1.924.066,4.749-4.997,10.534-8.495,16.835-10.162ZM340.433,85.043l.302,1.329.961-.965c1.891-1.899,3.48-2.975,5.584-2.468,1.948.47,3.348,2.238,3.564,4.503.504,5.256-2.664,10.422-7.533,12.284-3.088,1.181-6.715.827-9.872-.927,2.189-2.166,2.734-3.852,2.477-4.751-.127-.443-.453-.75-.872-.822-.311-.053-.916-.014-1.515.828-2.1,2.956-5.521,4.337-9.154,3.696-6.038-1.066-10.976-3.449-14.674-7.083l-3.125-3.07c5.088.256,10.987-.384,15.436-5.058l5.439-7.016c5.16-7.415,12.028-12.885,19.861-15.82,7.604-2.848,16.107-1.681,23.332,3.199,3.784,2.555,6.405,5.336,8.006,8.497l.013,9.306c-2.476.65-4.472,1.416-6.451,2.478-2.133-4.722-6.088-8.529-10.483-10.04-6.252-2.149-12.47-1.421-17.063,1.994-3.523,2.619-5.066,6.23-4.231,9.908ZM276.52,47.766c1.742-1.664,3.854-1.645,5.508.057l.97.997.301-1.357c.404-1.825-.651-3.548-2.689-4.388-3.552-1.466-7.642-.29-10.171,2.925-.056.071-.115.139-.178.203l1.286-2.486c.375-.722.763-1.468.632-2.677l-.15-1.387-1.074.89c-3.636,3.012-7.925,3.319-11.474.821-2.497-1.758-4.221-4.312-5.91-6.996l-4.423-7.03c2.066.313,4.315.708,6.063,1.655l.113.062c1.836.996,3.736,2.026,6.273,1.694,2.271-.296,4.318-1.087,6.297-1.852,3.304-1.276,6.728-2.596,11.411-1.686,2.705.525,4.462,2.466,6.497,4.713l1.132,1.248.396-1.239c.76-2.379-.821-3.776-2.216-5.009-.637-.562-1.288-1.139-1.765-1.815,6.313-.521,12.563,1.896,16.887,6.579,3.504,3.795,5.487,10.394,2.26,15.148-.594.873-1.564,1.305-3.056,1.36l-.962.036.271.924c1.112,3.81,4.045,6.787,8.045,8.168,6.419,2.217,13.439.11,18.046-5.373,1.649.84,3.413,1.277,5.492,1.349l-1.924,1.489.846.583c3.722,2.562,7.921,3.507,11.58,3.907-6.415,3.675-11.485,8.253-15.448,13.936-7.169,3.6-15.076,5.242-21.977,4.589.068-.072.137-.143.205-.214,1.223-1.277,2.486-2.597,2.604-4.906l.09-1.753-1.329,1.148c-2.801,2.419-5.476,3.412-8.43,3.127-10.813-1.049-19.197-11.432-21.597-20.668-.688-2.646-.102-5.177,1.566-6.77ZM321.27,30.535c4.292,3.042,10.087,2.901,13.48-.327,4.775-4.542,11.832-6.901,18.416-6.161,5.278.594,9.681,3.176,12.397,7.268l.997,1.501.362-1.765c.447-2.173-.501-3.632-1.616-5.103,9.238,1.526,17.621,6.504,23.208,13.841,2.085,2.738,2.994,5.688,2.861,9.282l-.053,1.4,1.194-.733c1.25-.768,1.878-1.595,2.455-2.666,1.49,1.249,2.714,2.818,3.648,4.68-2.778,2.975-4.803,6.192-6.28,9.994-8.505-14.303-21.324-22.639-34.879-22.639-.549,0-1.103.014-1.653.042-.31.057-.617.106-.923.155-1.757.281-3.573.571-5.216,2.249l-1.073,1.097,1.524.173c2.268.258,3.993.715,5.049,2.107,1.095,1.444,1.324,3.455.613,5.381-.834,2.257-2.592,3.93-5.227,4.973-4.609,1.823-11.585,1.397-16.991-.969,1.365-1.33,2.613-2.636,2.939-4.71l.247-1.577-1.371.816c-2.446,1.454-4.961,1.822-7.485,1.094-3.15-.91-6.01-3.492-7.844-7.085-1.432-2.802-2.134-5.436-2.813-7.983-.698-2.615-1.364-5.109-2.736-7.662,2.216.562,4.361,1.623,6.768,3.328ZM462.727,50.493l.01-1.413c.031-4.35,1.374-7.927,4.226-11.257,5.567-6.501,13.799-10.818,22.781-11.995-1.041,1.468-1.933,2.93-1.715,5.051l.201,1.964,1.153-1.603c3.059-4.248,7.402-6.747,12.562-7.225,6.132-.571,12.738,1.9,17.669,6.604,3.514,3.355,9.065,2.621,12.733.16,1.978-1.327,3.967-2.579,6.396-3.351-1.219,2.498-1.899,5-2.562,7.434-.73,2.684-1.486,5.459-2.966,8.169-1.94,3.551-4.795,6.055-7.833,6.868-2.386.64-4.771.246-7.092-1.169l-1.389-.846.258,1.605c.338,2.107,1.475,3.445,2.714,4.629-5.49,2.37-12.545,2.699-16.84.701-2.415-1.123-3.929-2.877-4.5-5.214-.561-2.293.384-4.02,1.273-5.064.984-1.154,2.693-1.417,4.825-1.641l1.572-.166-1.122-1.113c-2.251-2.234-5.156-2.575-7.701-2.614-11.395-.159-27.745,6.74-37.085,26.581-1.049-4.683-3.104-8.82-6.239-12.577,1.401-3.014,2.965-5.03,4.971-6.394.563,1.173,1.227,2.177,2.534,3.075l1.165.8ZM566.247,26.723c-.169.183-.355.364-.544.548-1.021.998-2.422,2.365-1.606,4.506l.52,1.362.807-1.214c5.627-8.47,13.126-5.99,20.43-2.029,3.135,1.467,6.34,1.424,9.052-.116,1.894.031,3.646-.205,5.47-.616l-5.397,8.245c-1.054,1.609-2.641,3.137-4.47,4.302-3.363,2.142-7.116,1.686-10.569-1.277l-1.048-.9-.184,1.369c-.184,1.37.331,2.441.785,3.386l.703,1.467c-2.191-2.558-5.36-3.791-8.449-3.248-2.324.409-4.604,2.061-4.461,4.829l.08,1.533,1.16-1.005c1.352-1.171,3.386-2.171,5.399-.266,1.721,1.626,2.331,4.144,1.676,6.907-2.206,9.297-10.638,19.554-20.929,20.626-2.989.31-5.622-.712-8.048-3.132l-1.019-1.017-.249,1.417c-.41,2.326.81,3.86,2.107,5.296-6.189.261-13.006-1.342-19.372-4.573-4.005-5.836-9.067-10.467-15.425-14.1,4.131-.553,7.897-1.408,11.383-3.721l.822-.546-1.782-1.542c1.926-.036,3.55-.386,5.282-1.114,3.354,4.318,8.394,6.533,13.607,5.958,5.342-.595,9.64-4.03,11.217-8.964l.335-1.051-1.1.074c-1.289.088-2.328-.402-3.099-1.45-1.614-2.198-1.805-6.505-.44-10.02,2.764-7.12,9.497-11.799,17.162-11.936l1.832.242-1.639,1.767ZM580.253,187.33l-2.117,3.932c-.206.385-.272,1.176-.254,1.412.021.295.192.557.456.701.567.308,1.403-.021,1.595-.125l.123-.084c3.276-2.745,7.537-2.765,11.069-.092,1.771,1.602,3.414,3.545,4.885,5.778l3.972,6.029c-1.845-.489-3.606-.751-5.651-.476-2.84-1.371-6.051-1.307-9.596.209-9.887,5.058-15.912,4.277-20.143-2.604l-.659-1.073-.629,1.091c-1.432,2.484.692,4.376,1.6,5.184l1.938,1.726c-3.208.481-5.947-.287-8.449-1.219-5.129-1.908-9.235-6.304-10.717-11.471-1.105-3.858-.568-7.593,1.476-10.247.351-.457.969-.672,1.961-.672.243,0,.509.013.799.039l1.15.102-.375-1.092c-1.168-3.406-3.577-6.135-6.783-7.682-3.245-1.567-6.927-1.758-10.369-.538-3.172,1.125-5.674,2.923-7.446,5.349-1.829-1.003-3.624-1.277-5.505-1.307l2.094-1.899-.901-.512c-3.793-2.155-7.643-3.011-11.332-3.447,6.18-3.596,11.249-8.245,15.094-13.848,6.542-3.609,13.758-5.375,19.652-4.849-1.301,1.447-2.451,2.889-2.39,5.218l.045,1.68,1.221-1.155c3.193-3.021,6.894-4.036,10.707-2.943,4.03,1.159,7.679,3.453,10.844,6.819,4.666,4.963,10.33,14.36,6.808,19.908-.692,1.089-1.751,1.864-2.833,2.072-1.049.197-2.149-.439-3.431-1.179l-1.197-.69-.043,1.248c-.079,2.334,1.8,4.296,4.37,4.562,3.455.355,7.025-1.181,8.964-3.854ZM480.851,94.189l-.534,1.789,1.624-.923c3.009-1.71,5.868-1.681,8.739.084,3.137,1.957,5.639,4.545,8.287,7.287l13.204,13.571-13.27,13.744c-2.577,2.678-5.011,5.208-8.077,7.077-2.854,1.745-5.753,1.785-8.864.122l-1.371-.733.279,1.529c.407,2.229,1.552,3.511,2.964,4.673-7.344,6.436-15.358,8.007-23.831,4.667-3.037-1.197-5.171-2.687-6.836-4.787,3.093-3.352,5.508-7.312,7.36-12.068,6.977,2.715,14.556.441,21.438-6.463l7.574-7.766-9.641-10.001-.088-.078c-2.406-1.82-4.775-3.235-7.279-4.34-3.92-1.499-8.009-1.517-11.872-.056-1.885-4.839-4.19-8.689-7.195-12.014,5.92-5.991,14.965-7.944,22.734-4.849,2.72,1.083,5.299,2.714,7.864,4.975-1.5,1.323-2.611,2.554-3.211,4.561ZM470.7,175.928c-.166.793-.233,1.605-.203,2.467l-1.957-2.378c.744.039,1.447.011,2.16-.088ZM462.323,165.258l2.058-.013c-.494.606-.864,1.254-1.121,1.962l-.937-1.949ZM481.754,184.411c.06,1.385.495,2.601,1.19,3.776-1.507-.706-3.004-1.585-4.586-2.692,1.271-.11,2.384-.466,3.396-1.084ZM484.901,176.083l1.595.708c-.454.197-.898.429-1.335.696-.075-.486-.162-.96-.26-1.404ZM492.371,191.128c1.392-.638,2.492-1.572,3.318-2.813.45,1.141,1.16,2.138,2.137,3.005-1.666.215-3.459.152-5.455-.191ZM492.68,187.742c-1.024.997-2.413,1.461-3.915,1.314-2.792-.279-4.297-2.718-4.341-4.983-.052-2.607,1.596-4.718,4.006-5.134,1.381-.241,2.753.106,3.86.973,1.136.889,1.846,2.206,1.948,3.614.114,1.58-.469,3.156-1.559,4.216ZM475.456,170.888c.035-.488.046-1.01.031-1.546l1.281,1.262-1.312.284ZM465.519,169.908c-.194-2.182,1.273-4.064,3.343-4.285.136-.015.27-.021.401-.021,2.075,0,3.547,1.754,3.753,3.511.129,1.091-.198,2.188-.896,3.011-.676.796-1.643,1.262-2.721,1.312-2.324.099-3.721-1.738-3.88-3.527ZM474.443,174.553c.854-.931,2.004-1.438,3.255-1.438.046,0,.092,0,.139.002,1.389.042,2.747.718,3.633,1.81.922,1.137,1.315,2.588,1.08,3.981-.228,1.341-1.02,2.491-2.23,3.238-2.284,1.412-4.891.49-6.184-1.094-1.54-1.889-1.41-4.622.308-6.498ZM497.4,178.825c-.462.532-.861,1.086-1.2,1.67-.336-.652-.712-1.227-1.144-1.746l2.344.076ZM457.939,149.493c3.897,1.832,7.726,2.617,11.868,2.426l.002,10.058-9.217.072c.157-4.252-.715-8.386-2.653-12.556ZM461.637,104.573c2.668-1.258,5.728-1.351,9.094-.276,3.334,1.144,6.262,3.016,8.702,5.564l5.809,6.062-6.98,7.051c-3.915,3.955-11.291,6.624-16.73,4.319,2.141-7.533,2.177-15.17.106-22.72ZM425.976,52.301l5.236,6.397c4.035,4.931,8.303,11.605,5.908,19.814-3.857-1.287-7.721-1.93-11.567-1.93-3.697,0-7.379.595-11.022,1.784-1.229-4.637-.526-9.5,2.049-14.114,1.485-2.663,3.409-4.921,5.479-7.351l3.917-4.6ZM389.735,104.142c-2.306,7.714-2.298,15.593.023,23.44-5.026,1.716-12.156-.852-15.673-4.423l-7.1-7.212,7.488-7.604c1.729-1.757,4.039-2.815,6.623-3.908,2.969-1.079,5.802-1.177,8.638-.293ZM432.216,171.332l-6.654,8.135-6.062-7.492c-2.44-3.016-7.703-10.784-5.054-18.957,7.417,2.336,15.141,2.269,22.427-.199,2.422,7.126-1.164,13.978-4.656,18.512ZM395.575,133.562c-5.103-9.573-5.799-21.01-1.909-31.377,3.411-9.09,10.424-16.351,19.24-19.921,4.062-1.645,8.303-2.464,12.548-2.464,4.948,0,9.903,1.114,14.586,3.332,8.721,4.131,15.188,11.588,18.21,20.997,3.183,9.909,2.121,20.794-2.914,29.864-6.16,11.097-17.476,17.664-30.16,17.524-12.418-.12-23.761-7-29.601-17.956ZM470.176,80.042c-4.111-.221-8.13.637-12.222,2.613,1.947-4.114,2.855-8.035,2.821-12.138l9.406-.024-.006,9.549ZM470.815,55.154c-.021.713.016,1.44.135,2.215-.54-.099-1.088-.14-1.672-.14-.082,0-.164,0-.247.002l1.784-2.078ZM497.95,42.14c-.884.749-1.529,1.692-1.976,2.882-.83-1.196-1.88-2.073-3.21-2.677,1.863-.311,3.54-.376,5.186-.205ZM479.081,48.114l3.621-2.094c-.427.927-.698,1.882-.812,3.027-.916-.476-1.833-.783-2.81-.933ZM485.195,57.792c.155-.57.267-1.174.333-1.81.533.312,1.117.604,1.782.855l-2.115.955ZM475.725,62.62c.538.174,1.091.303,1.675.389-.613.55-1.188,1.121-1.729,1.705.112-.664.132-1.366.054-2.094ZM495.013,54.972c.582-.629,1.086-1.367,1.523-2.23.426.756.937,1.47,1.544,2.162l-3.067.069ZM489.552,44.353c1.872,0,3.681,1.063,4.45,2.679.889,1.867.626,4.13-.655,5.631-1.461,1.711-3.715,2.261-5.738,1.401-2.528-1.073-3.17-3.562-2.951-5.367.279-2.292,2.005-4.023,4.294-4.308.2-.025.4-.037.601-.037ZM477.286,50.798c.277-.051.557-.075.836-.075,1.915,0,3.788,1.148,4.493,2.857.9,2.186.135,4.615-1.906,6.046h0c-1.466,1.027-3.205,1.091-4.898.18-1.538-.829-2.468-2.5-2.425-4.362.053-2.289,1.692-4.243,3.9-4.646ZM471.914,66.417c-.841.744-1.923,1.078-3.031.94-2.164-.264-3.269-2.287-3.086-4.091.197-1.956,1.687-3.395,3.621-3.499.963-.056,1.901.295,2.623.979.771.731,1.212,1.75,1.211,2.792-.002,1.062-.502,2.138-1.338,2.877ZM462.791,67.324l.789-1.559c.177.523.41,1.022.739,1.55l-1.528.009ZM383.593,57.594c.175-.828.214-1.611.179-2.391l1.952,2.303c-.743-.087-1.45-.058-2.131.088ZM388.527,63.26c.137,1.483-.559,2.889-1.814,3.67-1.646,1.026-3.516.397-4.505-.757-1.116-1.303-1.198-3.101-.208-4.58.6-.896,1.735-1.596,2.997-1.596.477,0,.972.1,1.462.327,1.22.565,1.977,1.934,2.068,2.936ZM389.911,67.354c.42-.667.726-1.325.934-2.012.245.636.293,1.231.105,2.013h-1.039ZM380.533,58.545c-1.12,1.947-3.379,2.982-5.383,2.457-2.13-.557-3.667-2.217-3.915-4.229-.289-2.344.86-4.457,2.928-5.382.727-.325,1.474-.483,2.201-.483,1.339,0,2.617.537,3.598,1.567,1.539,1.616,1.764,4,.571,6.072ZM369.177,58.45c-.973-.503-1.936-.948-2.892-1.336.865-.16,1.71-.48,2.516-.957.033.787.155,1.534.376,2.293ZM371.895,45.697c1.457.721,2.832,1.572,4.214,2.608-1.138.065-2.222.311-3.354.862-.027-1.317-.342-2.431-.859-3.47ZM369.186,46.251c1.404,1.941,1.407,5.121-1.018,7.081h0c-1.087.88-2.416,1.277-3.749,1.107-1.399-.174-2.714-.955-3.605-2.144-.796-1.061-1.121-2.378-.917-3.708.222-1.436,1.03-2.718,2.276-3.61.867-.621,1.856-.919,2.842-.919,1.574,0,3.137.762,4.171,2.192ZM358.653,44.855c-.428-1.026-1.071-1.914-1.938-2.673,1.484-.139,2.981-.082,4.586.175-1.083.607-1.962,1.437-2.648,2.498ZM359.887,55.341c-1.222-.18-2.448-.27-3.688-.271.658-.715,1.24-1.441,1.786-2.28.426.978,1.073,1.845,1.901,2.551ZM378.809,63.201c-.092,1.544.272,2.938,1.087,4.168l-.087.003-3.458-3.732c.832-.025,1.653-.171,2.458-.439ZM381.727,70.523l8.919-.032c-.013,4.156.786,7.852,2.537,11.673-3.479-1.399-6.581-2.066-9.64-2.066-.613,0-1.225.027-1.837.08l.021-9.655ZM390.466,161.973l-8.861.058.032-10.257c3.767.363,7.38-.279,11.412-2.04-1.912,4.092-2.725,7.966-2.583,12.239ZM384.886,175.915l-1.926,2.257c-.014-.837-.083-1.598-.213-2.353.729.159,1.446.17,2.139.096ZM377.716,170.398c-.813-.15-1.606-.229-2.401-.237l2.985-3.535c-.525,1.111-.716,2.357-.584,3.772ZM366.042,176.585l2.387-1.149c-.171.61-.326,1.269-.479,2.018-.593-.351-1.237-.644-1.908-.869ZM371.404,184.499c1.028.63,2.07.934,3.199,1.044-1.297.863-2.679,1.643-4.165,2.349.531-1.06.867-2.135.966-3.394ZM358.155,178.75c-.509.612-.936,1.262-1.297,1.974-.366-.6-.802-1.203-1.344-1.774l2.641-.2ZM357.422,188.497c.702,1.073,1.613,1.892,2.831,2.538-1.484.221-3.11.342-4.873.239.872-.776,1.524-1.664,2.042-2.777ZM358.791,183.283c.295-2.016,1.859-3.738,3.805-4.189.383-.088.77-.131,1.155-.131,1.762,0,3.468.892,4.323,2.354,1.206,2.062.995,4.494-.537,6.195-1.636,1.819-4.065,2.256-6.182,1.117h0c-1.913-1.028-2.896-3.077-2.563-5.346ZM380.351,178.203c-.193,2.351-1.88,3.921-3.465,4.435-2.411.782-4.55-.328-5.589-1.778-1.251-1.745-1.192-4.099.15-5.997.981-1.388,2.528-2.175,4.087-2.175.525,0,1.053.089,1.56.275,2.207.808,3.455,2.816,3.257,5.24ZM380.367,168.604c.349-1.975,1.981-2.992,3.353-3.102.113-.009.227-.013.338-.013,1.606,0,3.009.917,3.555,2.358.672,1.776.139,3.592-1.427,4.858-1.275,1.032-2.986.784-4.118.083-1.376-.853-2.012-2.417-1.7-4.184ZM390.766,165.228c.105.457.188,1.041.134,1.245l-.688,1.275c-.216-.869-.591-1.692-1.216-2.493l1.77-.026ZM528.92,135.912c6.571,1.323,12.385,4.624,16.929,9.589-6.157-.746-11.628,1.375-15.607,6.113l-5.087,6.96c-4.934,7.044-11.438,12.292-18.812,15.174-9.248,3.614-19.27,1.829-26.813-4.775-3.17-2.775-5.209-5.486-6.593-8.771l.075-8.633c2.34-.535,4.391-1.286,6.633-2.431,1.587,4.225,4.14,7.651,7.42,9.944,4.577,3.199,10.437,4.176,15.682,2.61,4.101-1.225,7.129-3.823,8.525-7.315.815-2.037.85-3.972.099-5.596l-.536-1.16-.751,1.034c-1.032,1.42-2.717,3.045-4.902,2.707-1.911-.294-3.273-1.675-3.836-3.889-.803-3.167-.019-6.804,2.209-10.242,1.593-2.456,3.851-4.054,6.531-4.624,2.853-.604,5.972-.025,8.89,1.627-1.545,1.407-3.154,3.51-2.92,4.973.099.613.49,1.066,1.104,1.278l.532.184.325-.46c2.546-3.613,6.52-5.182,10.904-4.297ZM480.732,83.35c-2.408-1.344-4.684-2.224-7.379-2.856l-.042-7.109c4.635-8.914,13.495-14.778,23.167-15.32,12.196-.695,23.244,8.499,28.995,16.569l5.151,7.23c3.356,4.711,9.815,6.259,15.359,5.791-4.593,5.286-10.812,8.823-17.699,10.029-3.793.664-7.111-.881-9.873-4.594l-.902-1.213-.42,1.452c-.737,2.551.838,4.276,2.223,5.383-3.276,1.72-6.606,2.137-9.477,1.171-5.305-1.79-8.795-7.721-7.779-13.223.432-2.335,2.217-3.671,3.694-3.925.312-.054.615-.081.91-.081,1.62,0,2.988.818,4.25,2.523l.794,1.075.504-1.238c.746-1.837.678-3.828-.198-5.758-1.257-2.771-4.107-5.207-7.438-6.359-9.519-3.292-19.618,1.19-23.84,10.453ZM577.679,47.906c-.028-.05-.061-.109-.098-.176-.213-.381-.549-.982-1.077-1.59.688.433,1.282,1.021,1.715,1.735.058.095.116.188.175.277l-.715-.247ZM402.82,58.605l.006-.498c.638.44,1.392.786,2.322.983l1.593.337-.779-1.43c-1.769-3.246-1.824-6.562-.178-10.125,2.046-4.217,5.188-7.565,8.279-10.555,5.104-4.937,8.718-8.936,11.91-13.191,3.896,5.406,8.111,9.788,12.104,13.727,5.653,5.577,11.627,12.905,7.609,20.135l-.804,1.446,1.617-.349c2.656-.573,3.989-2.417,5.12-4.126,8.163,9.253,8.019,23.102-.368,32.231-3.654-3.438-7.283-5.838-11.32-7.488,1.583-4.509,1.252-9.5-1.006-14.889-1.771-3.552-4.127-6.502-6.662-9.676l-6.235-7.804-7.305,8.81c-2.364,2.851-4.236,5.353-5.702,8.322-2.393,5.22-2.855,10.251-1.38,14.967-3.966,1.562-7.739,3.987-11.495,7.385-6.941-7.107-8.428-17.795-3.655-26.837.961-1.911,2.051-3.534,3.476-5.163.038.056.076.113.114.169.715,1.058,1.444,2.137,2.509,2.948l.229.668ZM392.73,85.283c2.142.976,3.878,2.229,5.29,3.821-3.27,3.773-5.669,7.747-7.31,12.111-8.389-2.484-15.038,1.951-19.976,6.197l-8.011,8.553,5.309,5.655c7.554,8.268,14.988,11.169,22.713,8.86,1.833,4.79,4.173,8.635,7.303,12.007-1.781,2.146-4.035,3.683-7.039,4.811-7.79,2.923-16.398,1.043-22.673-4.893,1.324-1.014,2.558-2.409,2.884-4.73l.218-1.552-1.346.804c-2.705,1.616-5.209,1.809-7.653.589-2.74-1.365-5.292-3.299-7.38-5.592l-10.32-11.333-4.383-4.681,13.775-14.516c4.875-5.138,10.138-9.867,16.2-6.413l1.491.85-.39-1.671c-.417-1.79-1.377-3.246-2.998-4.528,7.152-6.559,15.959-8.148,24.295-4.347ZM300.904,199.277c-3.827,6.247-10.855,9.791-18.223,9.26.35-.352.741-.671,1.145-1,1.258-1.027,2.684-2.19,3.159-4.667.067-.435-.18-.836-.615-.997-.555-.205-1.712-.048-2.107.587-4.574,7.384-13.941,4.42-17.757,2.805-2.172-.92-4.833-1.874-7.966-1.828-1.502.014-2.616.583-3.599,1.085-.287.147-.571.292-.862.422-1.972.875-4.123,1.35-6.481,1.745l4.974-7.487c1.482-2.233,3.154-4.546,5.326-6.336,3.755-3.092,8.401-2.846,12.751.672l1.294,1.047-.073-1.663c-.084-1.909-.951-3.177-1.716-4.295-.281-.411-.555-.811-.787-1.232.17.116.328.252.458.404,2.48,2.918,6.134,4.15,9.542,3.216,1.989-.547,3.963-2.239,3.593-4.66l-.223-1.459-1.047,1.041c-.885.879-1.952,1.335-3.008,1.308-.999-.035-1.954-.516-2.689-1.355-1.513-1.728-1.984-4.227-1.296-6.855,2.264-8.633,9.836-18.552,19.929-20.807,3.471-.776,6.75.274,9.739,3.125l1.189,1.134.077-1.642c.108-2.319-1.216-3.803-2.55-5.211,7.021-.539,15.748,1.535,20.96,5.073,4.273,6.184,9.123,10.723,14.765,13.807-4.015.547-7.308,1.313-10.522,3.366l-.844.539,1.994,1.742c-2.109-.032-3.876.403-5.685,1.267-3.896-4.234-9.109-6.427-14.439-6.027-5.553.417-9.973,3.756-11.821,8.931l-.422,1.179,1.238-.185c1.531-.226,2.666.357,3.385,1.74,1.927,3.701,1.634,8.267-.785,12.215ZM444.732,172.574l.745,1.384c1.636,3.037,1.8,6.087.487,9.063-1.681,3.812-4.267,7.343-8.384,11.447-5.175,5.158-8.959,9.534-12.146,14.057-3.597-4.745-7.265-8.97-11.48-13.228-3.023-3.054-5.44-6.029-7.567-9.296-2.411-4.708-3.048-7.456-.746-12.296l.797-1.677-1.738.653c-2.462.925-3.944,2.622-5.095,4.438-6.508-8.156-7.828-17.502-3.703-26.424,1.124-2.431,2.504-4.371,4.312-6.051,3.654,3.63,7.918,5.816,11.407,7.327-1.31,3.595-1.32,7.487-.034,11.883,1.251,3.953,3.381,7.624,6.687,11.533l7.333,9.279,7.47-9.552c3.581-4.229,5.689-7.865,6.836-11.79,1.222-4.172,1.158-8.063-.188-11.577,4.393-1.919,7.979-4.235,11.186-7.223,8.622,9.439,8.771,22.562.393,32.45l-.079-.122c-1.113-1.712-2.266-3.482-4.947-3.987l-1.544-.292Z"/>
      <path d="M132.204,187.914c-1.226,3.727-.598,8.612,1.639,12.75,2.903,5.368,8.016,9.195,14.397,10.775,2.947.73,7.308,1.454,11.374-.583,3.88.446,7.629-.047,11.143-1.468l5.802-2.347c2.297-.434,4.333-.148,6.218.875l.187.101.212-.011c2.185-.119,4.299.149,6.509.828l7.356,1.799-10.331-14.326c-4.921-6.824-10.035-9.426-15.588-7.907.594-1.374,1.053-2.667,1.293-4.113l.077-.467-.388-.271c-1.66-1.157-4.228-.6-5.5,1.192-.667.941-1.378,1.692-2.142,2.259.939-1.242,1.529-2.667,1.763-4.262,1.076-7.368-5.821-15.807-7.962-18.217-2.34-2.635-10.163-10.49-19.411-9.365l1.52-1.421-1.312-.346c-7.036-1.858-14.459-1.15-23.809,2.31,4.082-5.123,9.677-7.208,16.665-6.201l6.297.907-1.057-1.44c-9.082-12.387-22.037-17.139-30.37-15.515-4.016-3.832-9.873-5.249-15.048-3.607-3.907,1.241-7.398,4.551-9.34,8.855-1.739,3.855-1.934,7.883-.535,11.052.965,2.185,2.768,3.816,4.946,4.475,1.5.455,3.061.428,4.534-.059-1.417,2.605-3.824,3.891-5.753,4.522-4.723,1.545-10.624.541-14.69-2.502-3.708-2.775-6.134-6.848-7.03-11.799l2.395-2.39-1.226-.807c6.354-.645,11.757-6.233,15.832-10.449,4.37-4.521,9.501-9.746,15.103-14.559l.649-.558-2.403-2.146c-3.854-3.437-7.493-6.683-11.017-10.293-3.512-3.598-6.723-6.805-10.496-9.64-2.36-1.572-4.589-2.711-7.311-3.049l1.231-.833-2.495-2.433c1.651-4.191,3.933-7.249,6.963-9.335,4.269-2.939,10.357-3.846,15.153-2.258,1.879.623,4.237,1.867,5.674,4.334-2.312-.716-4.377-.486-6.39.684-2.308,1.342-3.833,3.764-4.079,6.478-.584,6.459,3.466,12.798,9.628,15.072,4.824,1.779,10.345,1.043,15.201-2.013,2.382.721,4.469.924,6.544.643,9.861-1.345,19.023-7.284,24.507-15.887l1.028-1.614-1.852.485c-6.421,1.684-15.2,2.238-20.543-4.7l-.865-1.123c6.871,2.378,16.053,4.522,24.42,1.465l1.187-.434-1.107-.973c8.489.835,15.982-6.075,18.245-8.406,4.394-4.524,7.251-9.493,8.493-14.767.747-3.173-.002-6.229-1.841-8.395.541.461,1.02,1.01,1.506,1.569,1.377,1.581,2.936,3.369,6.028,2.511l.622-.173-.079-.641c-.163-1.323-.489-2.571-1.028-3.904,8.445,2.047,12.86-4.067,17.136-9.994l8.736-11.973-7.151,1.795c-2.147.624-4.426.967-6.963,1.05l-.212.007-.177.116c-1.714,1.13-3.666,1.414-5.81.843l-6.082-2.752c-3.72-1.685-7.369-2.226-10.797-1.625l.139-.457-.695-.23c-5.016-1.661-10.566-1.154-15.63,1.425-5.258,2.679-9.255,7.292-10.966,12.656-1.61,5.051-.619,11.318,3.688,13.675-1.748,2.532-4.487,4.13-7.8,4.528-4.566.55-8.973-1.121-12.199-4.599,5.576-4.348,7.292-9.378,9.071-15.934,1.034-3.81,2.661-6.773,5.12-9.327l1.168-1.213-1.683-.057c-5.201-.177-9.546,1.969-13.123,4.114-3.16,2.154-6.815,2.471-10.052.881-6.617-7.292-19.741-10.219-28.175-6.259-.718.337-1.207.346-2.178.365-6.019.122-12.194,1.749-18.357,4.836-6.19,3.101-13.263,8.711-15.616,15.561l-.392-.698-.63.292c-4.369,2.028-7.593,5.894-9.597,11.498l-3.182-3.838-.963,1.409c-.295-5.754-3.796-11.667-10.256-17.255-6.606-5.716-11.658-10.634-16.38-15.947l-1.184-1.333-.125,1.778c-.058.816-.06,1.887-.005,2.665l.019.265.181.194c4.781,5.129,9.829,9.951,15.887,15.175,3.488,3.008,6.111,6.475,7.797,10.303,1.479,3.357,1.318,6.684-.488,10.17l-.87,1.68,1.785-.627c2.217-.779,3.665-2.185,4.765-3.587,3.955,4.716,5.891,10.632,5.463,16.758-.435,6.229-3.254,11.906-7.957,16.059-3.934-3.672-7.892-6.282-12.062-7.952,1.861-4.591,1.687-9.602-.541-15.324-2.738-5.962-6.929-11.11-12.812-15.739l-1.19-.937-.023,1.514c-.013.807.09,1.846.248,2.528l.057.244.191.161c13.656,11.471,13.062,21.273,11.213,26.456-3.382-1.013-6.91-1.607-10.763-1.813l-.464-.025-.229.404c-.401.708-.386,1.716.038,2.453l.211.365.421.011c13.061.321,24.673,7.751,30.306,19.39,3.835,7.923,4.555,16.965,2.081,26.149-4.005,14.875-17.059,25.04-32.482,25.292l-.728.012-.043,3.311.773-.014c4.217-.075,7.73-.677,11.593-2.001,3.194,11.407-6.177,21.847-12.14,27.117l-.274.243.27,4.27,7.493-7.65c3.158-3.225,5.618-7.394,7.315-12.405,1.45-4.558,1.507-8.836.172-12.729,4.326-1.99,8.051-4.513,11.349-7.687,9.655,8.85,10.646,22.796,2.397,33.084-1.181-1.888-2.389-3.461-4.731-4.186l-1.696-.525.807,1.583c1.744,3.422,1.942,6.349.624,9.212-1.459,3.163-3.301,5.937-5.477,8.243l-6.321,6.702L.199,210.313l.058,4.448,14.687-14.923c3.993-4.057,7.825-8.11,10.825-13.084,1.163-1.929,1.863-3.819,2.245-6.159l.812,1.469,3.324-3.978c1.254,4.306,3.891,9.463,9.434,12.211l.617.306.464-.765c.666,2.213,1.595,4.088,2.865,5.804,6.877,9.29,18.154,14.794,31.753,15.5l1.333.069-.173-.32c8.805,3.61,19.825,1.498,27.029-5.42,2.542-2.44,6.647-1.927,9.385-.419l5.536,3.05c2.441,1.345,5.194,1.971,8.661,1.971h.045l1.574-.002-.993-1.221c-2.766-3.397-4.398-6.575-5.294-10.301-1.279-5.317-3.19-10.84-8.393-15.34,3.367-3.663,8.241-5.351,13.155-4.534,2.986.496,5.4,1.934,7.031,4.178-1.883,1.114-3.249,2.849-3.977,5.062ZM103.92,202.867c-2.337,1.952-4.544,3.796-7.475,4.915-7.65,2.921-18.566,3.136-24.147-5.872l-1.039-1.676-.338,1.943c-.368,2.121.449,3.778,1.556,5.394-10.486-1.478-20.028-7.005-25.188-14.676-1.723-2.563-2.413-5.315-2.171-8.663l.095-1.311-1.177.585c-1.259.626-2.189,1.613-2.884,3.071-3.48-2.655-5.834-6.876-6.681-12.011,1.597-2.712,2.547-5.407,3.204-9.105h2.3c7.093,15.448,23.969,30.222,42.858,28.841,2.534-.185,4.59-1.055,6.11-2.587l1.185-1.194-1.68-.083c-2.866-.143-4.565-.818-5.508-2.191-1.2-1.747-1.373-3.905-.463-5.774,3.253-6.679,14.439-6.209,21.913-3.279-1.177,1.14-2.188,2.232-2.882,4.087l-.596,1.591,1.577-.632c4.476-1.793,8.643-1.188,12.048,1.756,2.711,2.344,4.654,5.671,6.1,10.413.827,3.731,1.905,6.779,3.528,9.92-2.188-.504-4.068-1.653-6.039-2.857-.388-.237-.777-.475-1.172-.71-3.478-2.071-8.936-3.32-12.87-.033l-.165.138ZM45.231,50.493l-.068-1.544c-.176-3.977,1.165-7.348,4.221-10.61,5.89-6.289,14.168-10.546,23.465-12.1-1.089,1.452-2.028,3.019-1.721,5.146l.248,1.717,1.081-1.357c2.515-3.157,5.437-6.225,9.751-7.293,7.916-1.963,16.463.281,22.297,5.856,1.851,1.768,4.282,2.607,7.238,2.503,3.09-.111,5.582-1.523,7.992-2.889,1.801-1.02,3.649-2.068,5.76-2.566-1.553,2.717-2.388,5.472-3.198,8.149-1.317,4.35-2.562,8.458-6.763,11.949-3.713,3.086-8.278,3.509-12.528,1.156l-1.508-.835.417,1.672c.524,2.104,1.686,3.334,2.961,4.547-6.636,2.512-15.609,3.628-20.599-1.059-2.407-2.262-2.761-5.7-.84-8.174,1.185-1.527,2.969-1.736,5.36-1.866l1.646-.089-1.148-1.182c-1.537-1.583-3.761-2.458-6.609-2.602-18.671-.943-35.356,13.305-42.379,28.001l-2.606.094c-.202-2.681-1.189-5.059-2.147-7.366-.27-.65-.54-1.3-.792-1.958.438-4.249,3.055-8.661,6.639-11.271.674,1.26,1.389,2.211,2.577,3.064l1.255.902ZM189.948,28.872l-4.08,5.784c-1.475,2.088-3.078,4.269-5.044,5.963-4.001,3.446-8.967,3.375-12.964-.192l-.956-.854-.275,1.253c-.361,1.645.506,3.066,1.345,4.442.317.522.642,1.052.904,1.602-.312-.278-.592-.583-.881-.932-2.416-2.912-5.914-4.186-9.14-3.32-2.574.691-4.016,2.325-3.955,4.482l.044,1.556,1.189-1.004c1.032-.871,2.222-1.275,3.364-1.132,1.062.132,2,.725,2.709,1.712,1.371,1.911,1.695,4.386.915,6.969-2.302,7.623-7.726,14.142-14.88,17.885-3.304,1.729-6.438,2.303-9.59,1.749-1.685-.296-3.057-1.318-4.646-2.502l-1.884-1.387.037,1.526c.057,2.318,1.331,3.785,2.635,5.163-7.028.874-15.364-.702-23.154-4.406-4.182-5.846-9.453-10.518-16.055-14.217,5.36-.309,9.871-1.532,13.723-3.714l.964-.546-2.118-1.693c2.182.042,4.115-.347,6.004-1.221,4.559,5.564,11.959,7.683,18.614,5.271,3.909-1.418,6.653-4.193,7.935-8.027l.349-1.042-1.097.055c-1.191.061-2.168-.373-2.933-1.281-1.441-1.715-1.967-5.042-1.278-8.09,1.162-5.149,4.728-9.504,9.78-11.946,3.716-1.796,6.976-2.434,10.146-1.962l-1.964,1.905c-1.677,1.626-2.322,3.252-1.919,4.832l.411,1.611.936-1.375c4.375-6.425,10.332-7.35,18.746-2.915,1.93,1.017,3.948,1.715,6.353,2.196l.145.015h.059c2.091,0,3.937-.486,5.633-1.483,1.847-.014,3.809-.232,5.873-.729ZM131.251,87.854c-5.121,5.455-11.611,8.87-18.883,9.916-3.989.573-7.52-1.002-10.494-4.683l-.886-1.097-.414,1.348c-.766,2.49.781,4.12,2.362,5.334-3.235,1.523-6.367,1.924-9.332,1.186-4.862-1.209-8.611-5.64-9.117-10.774-.221-2.246.616-4.382,2.184-5.575.844-.642,1.795-.972,2.785-.972.224,0,.449.017.675.051,1.505.225,2.969,1.188,4.016,2.643l.916,1.274.416-1.514c1.077-3.927-.757-8.017-4.671-10.418-7.229-4.435-17.157-3.335-23.611,2.615-2.425,2.234-3.988,4.9-5.49,8.169-2.543-1.609-5.323-3.188-8.492-4.263l.055-5.202c3.042-6.851,8.411-12.227,15.538-15.553,7.297-3.405,15.321-3.422,22.599-.047,7.951,3.689,14.478,9.431,19.41,17.083,5.618,8.191,11.644,11.323,20.436,10.479ZM130.816,146.256c-8.626-.543-14.527,2.518-19.996,10.262-9.279,14.291-23.043,19.936-32.606,19.183-11.019-.865-20.561-7.916-24.935-18.413l-.062-6.874c2.707-.951,5.162-2.171,7.967-3.961,1.373,5.678,4.822,10.501,9.584,13.347,4.739,2.832,10.296,3.467,15.648,1.787,5.327-1.672,10.136-6.655,8.555-12.595l-.378-1.421-.929,1.14c-1.753,2.154-3.369,2.986-5.227,2.709-1.916-.288-3.466-1.694-4.044-3.67-1.582-5.403,2.613-13.184,8.016-14.866,3.404-1.061,7.354-.504,10.52,1.438-2.633,2.508-3.311,4.497-3.057,5.486.111.433.412.742.805.827.264.057.787.058,1.315-.597,2.635-3.264,6.988-4.65,11.363-3.612,6.567,1.557,12.432,4.86,17.46,9.829ZM58.471,94.059l-.229,1.526,1.342-.763c3.108-1.768,6.15-1.781,9.278-.048,3.623,2.12,6.526,4.884,8.89,7.309,5.237,5.375,9.776,9.711,14.221,13.582-4.521,3.928-8.994,8.267-14.014,13.589-3.195,3.39-6.059,6.026-9.652,7.88-2.87,1.528-5.865,1.387-8.905-.422l-1.466-.872.348,1.669c.47,2.254,1.814,3.581,3.341,4.836-8.964,7.09-18.845,8.097-28.631,2.897-1.535-1.16-2.858-2.34-4.116-3.674,2.862-3.272,5.03-7.062,6.762-11.823,7.173,2.71,14.263.97,21.674-5.334l9.049-8.756-6.766-6.773c-8.231-8.241-16.11-10.611-24.055-7.227-1.829-4.533-3.881-7.985-6.561-11.035,1.846-2.378,4.354-4.269,7.463-5.625,8.521-3.666,17.514-2.086,25.411,4.434-1.554,1.145-3.051,2.407-3.384,4.628ZM37.924,162.07c-.009-4.5-.975-8.553-3.001-12.551,5.129,2.09,10.177,2.66,15.055,1.691l-.01,10.844-12.044.016ZM58.398,171.527l.083-1.516,1.218,1.102-1.301.414ZM79.975,180.64c-.313-.624-.714-1.205-1.217-1.768l2.425.009c-.444.512-.844,1.095-1.208,1.759ZM78.044,184.974c-.364,1.939-1.896,3.997-4.5,4.221-2.331.195-4.177-1.262-4.9-2.708-1.022-2.037-.771-4.181.688-5.882.91-1.06,2.227-1.619,3.604-1.619.828,0,1.68.202,2.477.619,1.65.862,3.104,2.856,2.631,5.369ZM68.575,177.8l-.328-1.335,1.603.604c-.454.22-.883.465-1.274.731ZM56.821,176.096c.424-.81,1.257-1.871,2.816-2.329,1.374-.402,2.791-.251,3.992.427,1.184.669,2.026,1.764,2.372,3.081.683,2.6-.773,5.198-3.386,6.043-2.556.826-5.259-.626-6.152-3.309-.411-1.236-.278-2.699.357-3.913ZM65.502,184.738c.09,1.298.479,2.478,1.216,3.658-1.573-.666-3.148-1.468-4.75-2.418,1.298-.173,2.454-.535,3.534-1.24ZM76.466,191.044c1.32-.669,2.312-1.524,3.081-2.65.475,1.143,1.191,2.028,2.164,2.877-1.711.113-3.434.04-5.245-.227ZM48.228,167.826c.895-1.22,2.12-1.86,3.438-1.86.659,0,1.342.161,2.017.49.771.375,1.811,1.58,2.184,2.528.844,2.146-.3,4.2-1.805,5.042-2.156,1.207-4.293.48-5.46-.774-1.387-1.49-1.547-3.823-.373-5.426ZM53.155,163.723l.003-.12.103.147-.105-.027ZM47.029,165.286c-.922.91-1.531,1.929-1.939,3.233l-1.722-3.12,3.661-.113ZM53.842,179.683l-2.596-2.563c.876.02,1.736-.049,2.646-.269-.198.95-.197,1.868-.051,2.832ZM46.653,103.782c5.596,1.963,9.781,6.202,14.212,10.69.374.378.748.758,1.123,1.135-7.566,7.666-15.404,15.443-25.4,11.068,1.991-7.256,1.971-14.484-.062-22.056,3.017-1.647,6.514-1.936,10.127-.837ZM54.04,56.271c-.695-.158-1.395-.237-2.12-.237-.164,0-.329.004-.496.012.793-.82,1.673-1.7,2.661-2.627-.146.841-.19,1.754-.045,2.852ZM51.951,58.375c1.118,0,1.951.437,2.481.838.919.696,1.534,1.749,1.688,2.888.311,2.297-1.313,4.388-3.698,4.759-2.211.344-4.329-1.173-4.728-3.381-.214-1.184.061-2.411.752-3.366.474-.655,1.357-1.48,2.874-1.693.219-.031.429-.045.63-.045ZM62.464,47.349c1.509-.861,2.924-1.563,4.37-2.168-.646,1.148-.993,2.257-1.079,3.442-1.092-.688-2.152-1.048-3.291-1.274ZM69.472,45.938c.997-1.232,2.448-1.898,3.925-1.898.718,0,1.441.157,2.121.484,1.857.892,3.043,2.822,2.952,4.802-.096,2.062-1.328,3.824-3.216,4.599-2.117.871-4.513.231-5.823-1.554h0c-1.469-2.002-1.452-4.587.041-6.432ZM70.373,56.37l-1.876.752c.142-.543.259-1.083.345-1.596.483.322,1,.607,1.531.844ZM58.641,61.692l1.548.434-1.557,1.286c.059-.582.062-1.164.009-1.72ZM78.938,54.68c.558-.593,1.018-1.266,1.385-2.024.443.723.937,1.398,1.484,2.033l-2.869-.008ZM76.979,42.29c1.631-.249,3.274-.31,4.948-.182-.893.822-1.528,1.677-2.058,2.762-.761-1.118-1.726-1.979-2.891-2.58ZM60.329,49.849c.394-.096.789-.143,1.182-.143.898,0,1.775.248,2.547.731,1.151.72,1.979,1.897,2.269,3.228.568,2.612-1.101,5.222-3.799,5.94-2.469.657-5.116-.904-5.916-3.478-.388-1.25-.226-2.644.444-3.824.705-1.243,1.867-2.115,3.273-2.456ZM53.553,69.191l-.355.529-.002-.412.357-.118ZM43.573,67.094l1.669-2.885c.272,1.081.656,1.976,1.311,2.871l-2.979.014ZM50.033,70.269l-.044,10.059c-5.096-.876-9.998-.212-14.906,2.027,1.979-4.128,2.904-8.018,2.876-12.043l12.074-.043ZM138.82,185.278c.203,0,.412.019.627.056l1.229.213-.388-1.186c-1.632-4.985-6.185-8.413-11.879-8.945-5.577-.52-11.156,1.779-15.084,6.169-1.79-.905-3.597-1.344-5.817-1.391l2.149-1.789-.92-.541c-3.366-1.976-7.27-3.114-12.425-3.594,6.256-3.541,11.335-8.076,15.124-13.507,4.643-2.391,13.49-6.031,23.006-5.1-.128.144-.257.285-.385.425-1.131,1.244-2.302,2.529-2.229,4.777l.055,1.671,1.212-1.151c3.317-3.153,7.183-4.093,11.185-2.721,4.357,1.496,8.104,3.99,11.452,7.627,3.949,4.289,9.782,13.055,6.592,18.706-.597,1.058-1.691,1.933-2.724,2.178-1.359.325-2.41-.307-3.853-1.309l-1.024-.711-.148,1.238c-.321,2.699,1.819,4.331,4.083,4.75,3.832.71,7.644-1.006,9.944-4.479.083-.125.202-.24.343-.338-.314.741-.726,1.423-1.151,2.131-.809,1.343-1.645,2.732-1.954,4.682l-.298,1.866,1.496-1.154c4.485-3.459,9.2-3.635,12.938-.484,2.376,2.004,4.188,4.504,5.988,7.104l3.676,5.31c-2.015-.464-3.948-.728-5.863-.799-1.479-.698-2.933-1.122-4.824-1.411l-.118-.018-.118.02c-2.43.405-4.298.758-6.21,1.614-7.251,3.249-14.689,5.106-19.975-3.242l-.839-1.324-.505,1.484c-.928,2.725,1.043,4.468,2.481,5.741.262.231.518.458.753.685l.479.463c-3.014.297-6.149-.326-9.737-1.924-5.739-2.558-9.605-7.508-10.342-13.243-.396-3.083.375-6.241,1.876-7.678.606-.58,1.317-.872,2.123-.872Z"/>
      <path d="M.63,4.98l622.423.002.272-3.418c.023-.28-.092-.948-.401-1.284l-.292-.28H.533s-.153.55-.153.55C.005,1.895.031,3.369.448,4.492l.182.489Z"/>
      <polygon points="623.046 227.179 .211 227.183 .104 232.194 621.885 232.196 623.469 231.352 623.046 227.179"/>
      <path d="M218.241,213.48l.629.893.607-.908c4.04-6.039,8.255-11.233,13.26-16.345,3.487-3.498,6.195-6.749,8.537-10.25,1.391-2.241,2.207-4.33,2.558-6.637l.857,1.66.726-.729c4.529-4.543,7.554-9.971,8.772-15.733h12.087s.027-13.558.027-13.558c5.971-.934,11.653-3.946,16.474-8.741l.599-.596-1.142-.902c4.403-.255,9.175-3.01,14.507-8.356,6.091-6.109,11.644-11.594,17.91-16.856l.644-.54-15.463-14.668c-.692-.657-1.37-1.315-2.044-1.969-2.544-2.467-4.946-4.798-7.869-6.863-2.619-1.622-5.041-2.463-7.619-2.617l1.222-1.022-.588-.58c-5.13-5.059-10.547-7.971-16.542-8.889l-.033-13.321-12.081.041c-1.237-5.917-4.209-11.243-8.619-15.437l-.685-.651-1.121,1.908c-.234-1.98-.688-3.687-1.649-5.364-2.019-3.525-4.585-6.833-8.075-10.412-6.081-6.234-10.57-11.679-14.128-17.137l-.619-.95-.824,1.229c-2.25,3.357-4.376,6.529-7.095,9.306l-10.047,10.266c-3.402,4.003-6.484,8.031-7.107,12.954l-1.064-1.958-.705.617c-4.743,4.153-7.964,9.558-9.34,15.664l-11.867.032-.148,13.72c-6.206,1.031-11.643,3.822-16.601,8.519l-.618.585,1.34,1.097c-2.45.131-4.794.88-7.251,2.305-2.915,1.916-5.358,3.923-7.69,6.316-6.129,6.29-11.735,11.647-17.644,16.859l-.63.556.623.563c5.324,4.811,10.66,10.009,16.313,15.893,2.954,3.075,5.725,5.404,8.758,7.355,2.481,1.386,4.702,2.109,7.08,2.27l-1.257.924.625.617c4.871,4.814,10.668,7.779,16.804,8.602l.049,13.285,11.843-.04c1.159,5.892,4.374,11.458,9.102,15.732l.722.652.877-1.693c.917,5.846,5.701,11.473,9.992,15.89,5.851,6.021,10.497,11.555,14.624,17.413ZM254.633,68.942l8.658.056-.037,10.024c-3.741.053-7.227.893-10.996,2.663,1.847-4.186,2.627-8.381,2.375-12.744ZM238.398,172.301l.936,1.521c1.87,3.039,2.011,6.039.464,9.396-1.992,3.65-4.654,7.107-8.378,10.88-5.146,5.216-9.166,9.975-12.579,14.896-4.688-6.263-9.706-11.652-14.031-16.127-3.384-3.502-5.715-6.747-7.335-10.209-1.435-3.066-1.239-5.867.616-8.815l.924-1.467-1.702.332c-2.467.481-3.916,1.935-5.267,4.136-2.406-2.426-4.24-5.667-5.586-9.857-2.36-8.221.227-16.993,6.593-22.541,3.746,3.461,7.468,5.854,11.614,7.468-1.305,3.87-1.264,7.89.125,12.274,1.347,3.959,3.505,7.604,6.772,11.445l7.278,9.276,7.978-9.943c2.379-2.854,4.767-6.049,6.11-10.038,1.742-4.583,1.845-9.148.306-13.254,4.551-2.048,8.211-4.428,11.418-7.426,5.993,5.918,8.275,14.567,5.966,22.713-1.345,3.957-3.043,7.126-5.309,9.888-1.149-1.89-2.644-3.575-5.173-4.15l-1.74-.396ZM161.588,138.144l.35-1.792-1.509,1.029c-2.716,1.851-5.411,2.161-8.448.987-3.362-1.472-6.44-3.718-9.688-7.069-4.812-4.964-10.019-10.237-15.57-15.263,5.698-5.091,10.736-10.153,14.937-14.46,2.421-2.483,5.727-5.597,9.786-7.629,3.529-1.45,6.361-1.274,9.182.566l1.408.919-.257-1.661c-.358-2.319-1.685-3.714-3.245-4.927,5.668-4.603,12.316-6.744,18.843-6.037,5.257.47,10.007,2.684,13.452,6.254-3.254,3.649-5.661,7.66-7.333,12.225-4.168-1.272-8.594-1.03-13.186.731-3.733,1.599-6.778,3.938-9.554,6.263l-8.018,7.749,8.919,8.358c7.396,6.416,15.133,8.489,21.879,5.888,1.888,4.663,4.244,8.489,7.355,11.94-6.217,6.725-17.037,8.828-25.991,4.989-2.558-1.237-4.686-2.524-6.624-4.011,1.526-1.223,2.842-2.644,3.312-5.05ZM185.435,81.745c-3.425-1.509-6.871-2.25-10.447-2.25-.196,0-.394.002-.59.006l.006-10.451,8.312.042c-.294,4.458.58,8.545,2.719,12.652ZM275.755,93.617l-.338,1.753,1.488-.987c2.812-1.865,5.562-2.116,8.644-.789,3.364,1.499,6.069,3.953,9.007,6.771l16.114,15.454-15.961,15.063c-2.73,2.577-5.458,5.026-8.78,6.673-3.176,1.445-6.133,1.26-9.046-.568l-1.354-.851.213,1.585c.324,2.425,1.749,3.837,3.112,4.92-8.678,7.404-20.534,8.294-29.144,2.097l-2.833-2.728c3.373-3.919,5.678-7.733,7.19-11.9,3.562,1.27,7.312,1.249,11.45-.07,4.262-1.491,7.689-4.172,10.232-6.371l8.262-8.044-9.481-9.124c-2.116-1.701-4.998-3.829-8.545-5.211-4.09-1.478-8.157-1.521-11.82-.135-1.832-4.586-4.169-8.481-7.122-11.865l2.48-2.457c9.285-6.58,20.008-5.887,29.548,1.867-1.48,1.209-2.867,2.582-3.316,4.917ZM182.522,162.286l-8.274.02-.002-9.988c3.611.039,7.146-.727,10.876-2.369-1.652,3.458-2.915,7.385-2.6,12.336ZM252.068,149.626c4.058,1.77,7.511,2.513,11.087,2.393l-.01,10.211-8.589.039c.276-4.477-.523-8.559-2.488-12.643ZM251.511,128.013c-5.396,15.933-21.399,25.624-38.056,23.042-10.148-1.573-18.698-7.299-24.076-16.125-7.202-11.823-7.149-27.117.134-38.962,5.764-9.373,15.248-15.328,26.021-16.339,16.994-1.587,32.469,9.357,36.747,26.045,1.915,7.47,1.649,15.195-.77,22.339ZM182.473,104.245c-2.114,7.543-2.092,15.522.064,23.167-10.138,3.341-18.179-4.354-25.288-11.45l6.806-6.397c1.938-1.821,4.424-3.369,7.57-4.719,3.989-1.491,7.545-1.688,10.848-.6ZM230.349,152.741c2.42,6.029-.579,13.741-4.52,18.501l-7.017,8.479-6.185-7.678c-2.426-3.013-7.665-10.792-5.078-19.129,7.718,2.455,15.381,2.397,22.799-.173ZM264.191,104.005c3.636,1.301,6.883,3.337,9.651,6.052l5.761,5.649-7.046,6.605c-4.44,4.164-11.777,7.061-17.519,4.829,2.17-7.706,2.187-15.447.051-23.031,2.758-1.144,5.894-1.181,9.102-.104ZM207.63,78.091c-.983-2.654-.982-5.707-.011-9.274,1.154-3.437,3.057-6.726,5.656-9.776l6.004-7.042,5.839,7.027c1.748,2.102,3.216,4.378,4.471,6.921,1.883,4.414,2.209,8.451.989,12.314-3.844-1.358-7.787-2.038-11.729-2.038-3.771,0-7.541.623-11.22,1.867ZM249.397,61c4.154,8.938,2.336,19.306-4.498,26.035-3.33-3.21-7.11-5.717-11.52-7.638,1.472-4.324,1.313-8.997-.471-13.574-1.326-3.225-3.271-6.295-6.112-9.654l-7.437-9.056-6.912,8.172c-2.45,2.897-4.611,5.556-6.253,8.772-2.535,5.071-3.053,10.141-1.54,15.081-3.927,1.504-7.664,3.931-11.662,7.571-4.932-4.477-7.535-10.814-7.165-17.457.601-5.507,2.83-10.415,6.63-14.598.021.026.04.053.061.08,1.339,1.788,2.724,3.637,5.339,4.271l1.681.407-.851-1.505c-3.671-6.492.646-12.187,5.769-17.904l5.831-5.865c3.325-3.345,6.292-6.86,9.044-10.718,4.121,5.847,8.941,10.995,13.929,16.182,2.959,3.077,5.136,6.069,6.653,9.149,1.449,2.941,1.336,5.815-.355,9.044l-.773,1.476,1.617-.399c2.411-.595,3.845-2.275,5.121-4.047,1.442,1.73,2.688,3.719,3.875,6.177Z"/>
      <polygon points="623.296 219.896 623.06 216.143 .297 216.146 0 219.15 1.155 219.913 623.296 219.896"/>
      <path d="M398.952,16.058l56.611-.01,166.151.019c.34,0,.962-.051,1.305-.396l.254-.292-.016-2.329-.02-.373-.248-.222c-.296-.265-.652-.226-.96-.193-.108.012-.234.026-.362.026H.575s-.162.531-.162.531c-.195.643-.272,1.367-.258,2.42l.011.739,51.121.027,347.665.052Z"/>
      <path d="M615.173,172.577l7.323,9.032.499-1.113c.857-1.914-.09-3.333-1.129-4.47-7.496-8.199-10.457-15.906-8.81-22.921,3.496.99,6.505,1.504,9.415,1.61l.793.029-.063-3.226-.707-.028c-11.895-.469-22.389-7.027-28.071-17.543-5.922-10.96-6.085-24.114-.436-35.185,5.631-11.032,16.315-17.886,28.581-18.334l.751-.027-.124-3.26-.779.062c-3.332.263-6.299.784-9.265,1.628-1.483-7.16,1.751-14.786,9.864-23.282l.216-.226-.129-4.758-8.51,10.565c-2.229,3.321-3.744,6.891-4.643,10.964-.421,2.819-.341,5.305.258,7.764-4.27,1.709-8.048,4.133-11.516,7.387-8.726-8.297-9.168-21.593-1.076-31.538,1.191,1.597,2.405,3.056,4.81,3.617l1.537.358-.693-1.418c-4.209-8.604,1.576-14.787,7.172-20.768l12.847-13.732-.271-4.61-15.637,17.075c-4.087,4.462-8.296,9.059-8.614,15.732l-.703-1.153-.675.661c-4.232,4.148-7.089,9.462-8.283,15.402l-11.753.008-.078,13.495c-5.634,1.088-10.722,4.11-15.133,8.99l-.549.608,1.129.852c-1.98.199-3.861.855-5.991,2.063-3.391,2.243-6.145,4.979-8.898,7.82l-14.846,15.314,15.181,16.088c1.924,2.038,4.535,4.669,7.739,6.984,1.878,1.12,4.117,2.228,6.888,2.443l-1.181.93.575.597c4.515,4.682,9.401,7.503,14.919,8.61l.013,13.828,11.855.005c1.188,5.816,4.025,11.117,8.231,15.365l.68.686.706-1.178c.551,7.061,5.55,12.947,10.039,17.414,4.048,4.027,8.782,8.928,13.204,14.737l1.195,1.571.149-1.969c.065-.873.063-2.203-.068-3.059l-.035-.226-13.694-14.847c-5.348-5.797-10.264-12.723-6.178-20.13l.917-1.662-1.805.586c-2.351.764-3.581,2.132-4.771,3.757l-1.907-2.536c-4.599-7.255-5.098-15.809-1.367-23.474,1.184-2.434,2.612-4.322,4.465-5.893,3.014,3.021,6.682,5.388,11.448,7.39-2.046,6.388.905,15.5,4.989,20.539ZM591.214,149.887c-1.903,4.158-2.699,7.987-2.59,12.357l-8.437.074.029-10.295c3.653.238,7.066-.421,10.997-2.136ZM566.322,142.382c1.23-1.116,2.626-2.38,2.722-4.787l.06-1.48-1.229.829c-2.683,1.81-5.538,1.962-8.478.456-3.843-2.025-6.739-5.098-9.807-8.351l-12.236-12.974,13.861-14.429c2.839-2.956,5.222-4.927,7.725-6.393,2.989-1.749,5.871-1.763,9.069-.042l1.576.848-.501-1.718c-.596-2.046-1.567-3.156-3.051-4.521,7.019-6.808,16.259-8.49,24.861-4.484,2.037.95,3.874,2.317,5.598,4.17-3.149,3.829-5.422,7.639-7.092,11.891-6.857-2.265-15.17,1.428-20.018,6.42l-8.015,8.253,8.207,8.411c3.035,3.109,6.67,5.211,10.802,6.246,3.213.815,6.181.771,9.049-.142,1.702,4.52,4.027,8.396,7.086,11.813-3.813,3.971-8.86,6.237-14.283,6.398-5.862.174-11.542-2.038-16.091-6.248.062-.056.122-.111.184-.167ZM591.135,82.033c-2.841-1.167-5.918-2.085-9.379-2.085-.46,0-.927.016-1.4.05l.092-10.042,8.323-.032c-.202,4.069.541,7.896,2.364,12.108ZM570.369,120.993l-4.782-4.893,7.094-7.08c3.179-3.173,10.438-6.5,15.703-4.646-2.213,7.697-2.213,15.504.002,23.228-8.134,2.625-15.812-4.356-18.017-6.61Z"/>
      <path d="M.943,143.243l-.68.023-.043.678c-.045.687.076,1.629.446,2.19l.238.36.431-.025c8.413-.481,15.978-4.161,21.302-10.359,5.519-6.427,8.1-14.812,7.267-23.61-.637-6.717-3.297-12.611-7.905-17.518-5.631-5.995-13.05-9.288-20.911-9.288-.061,0-.122,0-.183,0l-.734.005-.045,3.059.752.009c14.134.164,25.323,11.111,26.027,25.462.381,7.745-2.189,15.03-7.237,20.516-4.816,5.234-11.467,8.252-18.725,8.498Z"/>
      <path d="M622.337,88.604l.392-.021.207-.333c.365-.59.389-2.041-.273-2.582l-.226-.184-.29.016c-7.913.43-15.349,4.224-20.4,10.409-9.936,12.165-9.294,30.075,1.492,41.661,5.019,5.392,11.646,8.469,19.166,8.899l.783.045.01-.784c.006-.504-.065-1.462-.29-2.033l-.174-.442-.475-.032c-6.949-.461-12.959-3.386-17.379-8.458-7.235-8.305-9.103-19.805-4.872-30.011,3.916-9.445,12.472-15.633,22.329-16.149Z"/>
      <path d="M.6,96.935l.538.008c5.312.083,9.929,2.374,13.706,6.789,3.604,4.503,4.996,10.327,3.821,15.979-1.194,5.745-4.875,10.623-10.099,13.383-2.151,1.137-4.506,1.706-7.634,1.847l-.68.03-.17,3.18.787.004c.037,0,.073,0,.11,0,3.476,0,6.519-.809,9.567-2.542,9.171-5.211,13.634-15.817,10.854-25.792-2.57-9.225-10.04-14.105-16.172-15.597-1.171-.285-3.996-.844-4.898.127-.262.281-.348.668-.229,1.034l.497,1.55Z"/>
      <path d="M622.591,134.928c-4.223-.278-7.862-1.833-10.818-4.622-6.811-6.422-8.22-16.896-3.352-24.906,3.16-5.2,8.155-8.275,14.065-8.661l.682-.044.089-3.191-.828.062c-6.332.475-11.657,3.375-15.4,8.388-3.787,5.072-5.306,11.318-4.274,17.587,1.027,6.248,4.451,11.658,9.639,15.233,2.857,1.969,6.135,3.087,10.02,3.418l.784.067.121-3.283-.727-.048Z"/>
      <path d="M432.359,145.561c9.259-2.376,16.944-9.182,20.559-18.207,5.908-14.747,0-31.526-13.742-39.028-11.379-6.213-25.561-3.917-34.489,5.583-11.231,11.954-11.501,30.777-.613,42.853,5.629,6.243,13.416,9.671,21.388,9.671,2.3,0,4.616-.286,6.898-.871ZM425.03,143.241c-7.458-.153-14.519-3.585-19.372-9.417-6.65-7.991-8.297-19.525-4.194-29.385,3.631-8.725,11.432-14.912,20.359-16.146,1.261-.174,2.511-.26,3.748-.26,8.486,0,16.292,4.037,21.385,11.225,7.597,10.72,6.726,25.562-2.07,35.289-5.135,5.68-12.381,8.869-19.855,8.696Z"/>
      <path d="M228.507,86.208c-9.865-3.581-20.983-1.376-29.01,5.756-12.874,11.439-14.114,31.313-2.764,44.301,5.757,6.587,13.763,10.153,21.962,10.153,3.275,0,6.584-.569,9.79-1.743,12.234-4.479,20.169-15.912,20.211-29.128.04-13.15-8.073-24.941-20.189-29.339ZM245.527,116.57c-.446,11.809-7.721,21.741-18.533,25.304-12.178,4.015-25.451-1.427-31.554-12.938-5.657-10.668-3.999-23.812,4.128-32.707,5.091-5.572,12.108-8.507,19.241-8.507,4.292,0,8.627,1.062,12.608,3.253,9.109,5.012,14.516,14.82,14.109,25.595Z"/>
      <path d="M439.639,98.53c-4.29-3.805-9.729-5.711-15.307-5.371-5.614.343-10.812,2.917-14.634,7.249-7.449,8.442-7.74,20.898-.691,29.618,4.222,5.222,10.161,8.112,16.385,8.112,1.191,0,2.394-.106,3.596-.322,8.181-1.469,14.993-7.697,17.356-15.868,2.481-8.577-.088-17.551-6.705-23.419ZM439.203,128.599c-3.496,3.983-8.247,6.226-13.38,6.314-5.075.094-9.873-1.957-13.45-5.76-6.053-6.435-7.036-16.296-2.39-23.98,2.915-4.821,8.023-8.17,13.332-8.742.737-.079,1.466-.119,2.186-.119,5.354,0,10.183,2.178,13.769,6.257,6.498,7.392,6.47,18.582-.066,26.029Z"/>
      <path d="M228.573,95.25c-6.164-3.243-13.516-3.204-19.67.107-7.369,3.964-11.95,11.641-11.955,20.034-.004,8.412,4.462,16.058,11.656,19.953,3.269,1.77,6.721,2.657,10.171,2.657,3.04,0,6.078-.689,8.984-2.072,7.817-3.719,12.774-11.467,12.936-20.221.157-8.601-4.487-16.44-12.122-20.458ZM237.508,116.816c-.527,7.437-5.073,13.802-11.865,16.613-7.258,3.003-15.608.951-20.777-5.106-3.512-4.117-5.203-9.279-4.761-14.536.443-5.275,2.982-10.101,7.151-13.589,3.326-2.783,7.438-4.203,11.573-4.203,3.223,0,6.46.863,9.349,2.615,6.28,3.81,9.855,10.786,9.33,18.206Z"/>
    </g>
  </g>
</svg>